<?xml version="1.0" standalone="no"?>
<!DOCTYPE svg PUBLIC "-//W3C//DTD SVG 1.1//EN" "http://www.w3.org/Graphics/SVG/1.1/DTD/svg11.dtd" >
<svg>
<metadata>
Created by FontForge 20090914 at Fri Jan 13 15:42:44 2023
 By www-data
Copyright 2015 The Cormorant Project Authors (github.com/CatharsisFonts/Cormorant)
</metadata>
<defs>
<font id="CormorantInfant-SemiBold" horiz-adv-x="0" >
  <font-face 
    font-family="Cormorant Infant SemiBold"
    font-weight="600"
    font-stretch="normal"
    units-per-em="1000"
    panose-1="0 0 0 0 0 0 0 0 0 0"
    ascent="800"
    descent="-200"
    x-height="386"
    cap-height="625"
    bbox="-104.064 -282.166 1451.8 932.335"
    underline-thickness="50"
    underline-position="-75"
    unicode-range="U+0020-U+FFFB"
  />
<missing-glyph horiz-adv-x="501" 
d="M94 725h317v-1000h-317v1000zM233 626v-38h-66v-32h166v32h-66v38h66v32h-165v-32h65zM333 426v34h-66v69h-100v-103h166zM200 495h33v-35h-33v35zM233 365v-36h-66v-34h100v70h66v33h-166v-33h66zM167 273v-34h166v99h-32v-65h-134zM267 160v24h34v-48h-101v80h-33v-113
h166v113h-100v-56h34zM333 -70v113h-166v-113h166zM200 11h101v-48h-101v48zM237 -126l-70 -47v-33h166v33h-101l69 47h32v34h-166v-34h70z" />
    <glyph glyph-name="T_T.liga" unicode="TT" horiz-adv-x="1155" 
d="M1113.5 654c3.66699 0 5.50293 -1.33301 5.50293 -4c-2 -19.333 -4 -50.333 -6 -93s-3 -77 -3 -103c0 -1.33301 -1.83301 -2 -5.5 -2s-5.5 0.666992 -5.5 2c-8.66699 52.667 -24.834 90.834 -48.501 114.501s-56.834 35.5 -99.501 35.5c-19.333 0 -33.333 -1.5 -42 -4.5
s-14.667 -8.66699 -18 -17s-5 -21.833 -5 -40.5v-461c0 -20.667 2 -35.667 6 -45s12 -15.666 24 -18.999s31.333 -5 58 -5c1.33301 0 2 -2 2 -6s-0.666992 -6 -2 -6c-24 0 -42.667 0.333008 -56 1l-81 1l-79 -1c-14 -0.666992 -33.333 -1 -58 -1c-1.33301 0 -2 2 -2 6
s0.666992 6 2 6c26 0 45.167 1.66699 57.5 5s20.833 9.83301 25.5 19.5s7 24.5 7 44.5v463c0 18 -1.66699 31 -5 39s-9.16602 13.5 -17.499 16.5s-21.166 4.5 -38.499 4.5c-36 0 -63.333 -4 -82 -12s-32.667 -22.5 -42 -43.5s-16 -52.5 -20 -94.5c0 -1.33301 -2 -2 -6 -2
s-6 0.666992 -6 2c-2 42 -7.33301 73.5 -16 94.5s-22.667 35.5 -42 43.5s-48.333 12 -87 12c-22.667 0 -37.834 -4.16699 -45.501 -12.5s-11.5 -24.833 -11.5 -49.5v-461c0 -20 1.83301 -34.833 5.5 -44.5s10.834 -16.167 21.501 -19.5s27.334 -5 50.001 -5
c1.33301 0 2 -2 2 -6s-0.666992 -6 -2 -6c-21.333 0 -38.333 0.333008 -51 1l-75 1l-79 -1c-13.333 -0.666992 -32.333 -1 -57 -1c-2 0 -3 2 -3 6s1 6 3 6c26 0 45.167 1.66699 57.5 5s20.666 9.83301 24.999 19.5s6.5 24.5 6.5 44.5v463
c0 24.667 -4.33301 40.834 -13 48.501s-26 11.5 -52 11.5c-39.333 0 -71.666 -12 -96.999 -36s-46.333 -62 -63 -114c0 -2 -1.83301 -2.83301 -5.5 -2.5s-5.5 1.16602 -5.5 2.49902c3.33301 20 7 51.667 11 95s6 76 6 98c0 3.33301 2 5 6 5s6 -1.66699 6 -5
c0 -14.667 17.667 -22 53 -22c57.333 -2 124.333 -3 201 -3c37.333 0 76.666 0.666992 117.999 2l63 1c28 0 46.667 0.333008 56 1s15.166 2.66699 17.499 6s4.16602 9.66602 5.49902 18.999c0 2.66699 1.83301 4 5.5 4s5.5 -1.33301 5.5 -4
c-0.666992 -9.33301 -0.333984 -15.5 0.999023 -18.5s5.16602 -4.83301 11.499 -5.5s20.166 -1.33398 41.499 -2.00098c54 -2 117.333 -3 190 -3c39.333 0 81 0.666992 125 2l68 1c24.667 0 42.834 1.66699 54.501 5s19.167 10 22.5 20
c0.666992 2.66699 2.83398 4 6.50098 4z" />
    <glyph glyph-name="T_h.liga" unicode="Th" horiz-adv-x="1041" 
d="M183 6c0 4 0.667969 6.00293 2.00098 6.00293c26 0 45.167 1.66699 57.5 5s20.666 9.83301 24.999 19.5s6.5 24.5 6.5 44.5v463c0 17.333 -1.66699 30.166 -5 38.499s-9.33301 14 -18 17s-22.334 4.5 -41.001 4.5c-40.667 0 -74 -12.5 -100 -37.5s-46 -62.5 -60 -112.5
c0 -2 -1.83301 -2.83301 -5.5 -2.5s-5.5 1.16602 -5.5 2.49902c2.66699 26 5.66699 59.5 9 100.5s5 71.833 5 92.5c0 3.33301 1.83301 5 5.5 5s5.5 -1.66699 5.5 -5c0 -14.667 18.667 -22 56 -22c57.333 -2 124.333 -3 201 -3c100 0 164.667 1 194 3
c40.667 1.33301 75.167 11.166 103.5 29.499s48.5 41.833 60.5 70.5c1.33301 2 3.66602 3 6.99902 3c2.66699 0 5 -0.5 7 -1.5s3 -2.16699 3 -3.5v-642c0 -27.333 3.83301 -45.666 11.5 -54.999s22.834 -14 45.501 -14c2 0 3 -2 3 -6s-1 -6 -3 -6
c-16.667 0 -29.667 0.333008 -39 1l-58 1l-58 -1c-10 -0.666992 -23.333 -1 -40 -1c-1.33301 0 -2 2 -2 6s0.666992 6 2 6c22.667 0 37.834 4.66699 45.501 14s11.5 27.666 11.5 54.999v508c0 5.33301 -1.33301 9.16602 -4 11.499s-7.33398 3.5 -14.001 3.5h-162
c-18.667 0 -32.5 -1.66699 -41.5 -5s-15.167 -9.16602 -18.5 -17.499s-5 -21.5 -5 -39.5v-461c0 -20 2.16699 -34.833 6.5 -44.5s12.5 -16.167 24.5 -19.5s31 -5 57 -5c2 0 3 -2 3 -6s-1 -6 -3 -6c-23.333 -0 -41.666 0.333008 -54.999 1l-82 1l-78 -1
c-14 -0.666992 -33.333 -1 -58 -1c-1.33301 0 -2 2 -2 6zM825.001 6.00293c0 4 0.665039 6 1.99805 6c22.667 0 37.834 4.66699 45.501 14s11.5 27.666 11.5 54.999v149c0 37.333 -7 65 -21 83s-35.333 27 -64 27c-22 0 -44.333 -6.16699 -67 -18.5s-41 -28.833 -55 -49.5
l-1 17c51.333 72 109 108 173 108c36 0 64.333 -11 85 -33s31 -52 31 -90v-193c0 -27.333 3.83301 -45.666 11.5 -54.999s22.834 -14 45.501 -14c2 0 3 -2 3 -6s-1 -6 -3 -6c-16.667 0 -29.667 0.333008 -39 1l-58 1l-58 -1c-10 -0.666992 -23.333 -1 -40 -1
c-1.33301 0 -2 2 -2 6z" />
    <glyph glyph-name="f_b.liga" unicode="fb" horiz-adv-x="827" 
d="M25 6c0 4 1.33203 5.99805 3.99902 5.99805c18 0 31.333 1.83301 40 5.5s14.667 10.167 18 19.5s5 24 5 44v225c0 22 -4.33301 36 -13 42s-26.667 9 -54 9c-2 0 -3 3 -3 9c0 5.33301 1 8 3 8c24.667 0 41.5 3.16699 50.5 9.5s13.833 17.833 14.5 34.5
c4 101.333 21.333 176 52 224c18.667 28.667 42.334 49.834 71.001 63.501s63 20.5 103 20.5c33.333 0 62.5 -4.5 87.5 -13.5s45.167 -20.833 60.5 -35.5l-57 -64c-14 30 -31.5 53.5 -52.5 70.5s-42.833 25.5 -65.5 25.5c-41.333 0 -71.666 -26 -90.999 -78
c-16.667 -44.667 -25 -108.667 -25 -192v-358c0 -20.667 2.16699 -35.667 6.5 -45s12.666 -15.666 24.999 -18.999s32.5 -5 60.5 -5c2.66699 0 4 -2 4 -6s-1.33301 -6 -4 -6l-67 1c-14.667 0.666992 -37 1 -67 1l-59 -1c-10 -0.666992 -24.333 -1 -43 -1
c-2.66699 0 -4 2 -4 6zM135.999 351.998v24.001c40.667 0 91.667 3.33301 153 10c2 0 3.66699 -2.33301 5 -7s2 -10.334 2 -17.001c0 -6 -1 -12 -3 -18s-4.33301 -8.66699 -7 -8c-46 10.667 -96 16 -150 16zM349.999 -6.00098c-2.66699 0 -4.33301 1.16797 -5 3.50098
s0 4.16602 2 5.49902c18 11.333 31.167 24.5 39.5 39.5s12.5 35.167 12.5 60.5v553c20 0.666992 36.667 9 50 25s20 32.333 20 49c0 2 1.83301 3 5.5 3s5.5 -1 5.5 -3v-677l-128 -59h-2zM421 45l52.001 73c16 -38 35.333 -66.167 58 -84.5s46.667 -27.5 72 -27.5
c32.667 0 57.667 14.667 75 44s26 71.333 26 126c0 58.667 -10.5 102.834 -31.5 132.501s-49.167 44.5 -84.5 44.5c-39.333 0 -79.666 -19.333 -120.999 -58l-9 8c27.333 29.333 54 52.666 80 69.999s56.667 26 92 26c29.333 0 56.5 -7 81.5 -21s45 -35 60 -63
s22.5 -62 22.5 -102c0 -48 -10.333 -89 -31 -123s-47.334 -59.667 -80.001 -77s-67.334 -26 -104.001 -26c-60 0 -112.667 19.333 -158 58z" />
    <glyph glyph-name="f_f.liga" unicode="ff" horiz-adv-x="603" 
d="M25 6c0 4 1.33301 6.00098 4 6.00098c18 0 31.333 1.83301 40 5.5s14.667 10.167 18 19.5s5 24 5 44v225c0 22 -4.33301 36 -13 42s-26.667 9 -54 9c-2 0 -3 3 -3 9c0 5.33301 1 8 3 8c24.667 0 41.5 3.16699 50.5 9.5s13.833 17.833 14.5 34.5
c4.66699 93.333 27.834 162.166 69.501 206.499s99.167 66.5 172.5 66.5c30.667 0 59 -3.5 85 -10.5s46 -15.5 60 -25.5l-39 -73c-15.333 27.333 -35.5 49.166 -60.5 65.499s-50.833 24.5 -77.5 24.5c-38.667 0 -69.5 -19.333 -92.5 -58s-34.5 -97 -34.5 -175v-358
c0 -20.667 2.16699 -35.667 6.5 -45s12.666 -15.666 24.999 -18.999s32.5 -5 60.5 -5c2.66699 0 4 -2 4 -6s-1.33301 -6 -4 -6l-67 1c-14.667 0.666992 -37 1 -67 1l-59 -1c-10 -0.666992 -24.333 -1 -43 -1c-2.66699 0 -4 2 -4 6zM384.5 336.001
c-3 6 -8.99902 10.167 -17.999 12.5s-23.833 3.83301 -44.5 4.5c-24.667 1.33301 -82.667 2 -174 2v21c85.333 0 143.333 0.333008 174 1c26.667 0.666992 44.167 3.66699 52.5 9s13.166 16 14.499 32l23 -47l-22 -65c-0.666992 14 -2.5 24 -5.5 30zM323.001 6.00098
c0 4 1.00195 5.99805 3.00195 5.99805c18.667 0 32.167 1.66699 40.5 5s14.166 9.83301 17.499 19.5s5 24.5 5 44.5v225c0 15.333 -1.83301 26.5 -5.5 33.5s-10 11.667 -19 14s-23.167 3.5 -42.5 3.5c-2 0 -3 3 -3 9c0 5.33301 1 8 3 8c25.333 0 42.5 3.16699 51.5 9.5
s13.833 17.833 14.5 34.5c3.33301 108.667 23.666 187.167 60.999 235.5s93.333 72.5 168 72.5c36 0 64.5 -5.16699 85.5 -15.5s31.5 -24.166 31.5 -41.499c0 -13.333 -4.5 -23.833 -13.5 -31.5s-19.5 -11.5 -31.5 -11.5c-13.333 0 -23.5 3 -30.5 9s-13.5 15.333 -19.5 28
c-8 14 -16.167 24.5 -24.5 31.5s-20.166 10.5 -35.499 10.5c-33.333 0 -59.666 -21.667 -78.999 -65s-29 -110.333 -29 -201v-358c0 -20.667 2.16699 -35.667 6.5 -45s12.666 -15.666 24.999 -18.999s32.5 -5 60.5 -5c2 0 3 -2 3 -6s-1 -6 -3 -6l-68 1
c-14.667 0.666992 -36.667 1 -66 1l-59 -1c-10.667 -0.666992 -25.334 -1 -44.001 -1c-2 0 -3 2 -3 6zM434.003 351.999v24.001c40.667 0 91.667 3.33301 153 10c2 0 3.66699 -2.33301 5 -7s2 -10.334 2 -17.001c0 -6 -1.16699 -12 -3.5 -18s-4.5 -8.66699 -6.5 -8
c-46 10.667 -96 16 -150 16z" />
    <glyph glyph-name="f_f_b.liga" unicode="ffb" horiz-adv-x="1125" 
d="M25 6c0 4 1.33301 6.00098 4 6.00098c18 0 31.333 1.83301 40 5.5s14.667 10.167 18 19.5s5 24 5 44v225c0 22 -4.33301 36 -13 42s-26.667 9 -54 9c-2 0 -3 3 -3 9c0 5.33301 1 8 3 8c24.667 0 41.5 3.16699 50.5 9.5s13.833 17.833 14.5 34.5
c4.66699 93.333 27.834 162.166 69.501 206.499s99.167 66.5 172.5 66.5c30.667 0 59 -3.5 85 -10.5s46 -15.5 60 -25.5l-39 -73c-15.333 27.333 -35.5 49.166 -60.5 65.499s-50.833 24.5 -77.5 24.5c-38.667 0 -69.5 -19.333 -92.5 -58s-34.5 -97 -34.5 -175v-358
c0 -20.667 2.16699 -35.667 6.5 -45s12.666 -15.666 24.999 -18.999s32.5 -5 60.5 -5c2.66699 0 4 -2 4 -6s-1.33301 -6 -4 -6l-67 1c-14.667 0.666992 -37 1 -67 1l-59 -1c-10 -0.666992 -24.333 -1 -43 -1c-2.66699 0 -4 2 -4 6zM384.5 336.001
c-3 6 -8.99902 10.167 -17.999 12.5s-23.833 3.83301 -44.5 4.5c-24.667 1.33301 -82.667 2 -174 2v21c85.333 0 143.333 0.333008 174 1c26.667 0.666992 44.167 3.66699 52.5 9s13.166 16 14.499 32l23 -47l-22 -65c-0.666992 14 -2.5 24 -5.5 30zM323.001 6.00098
c0 4 1.00391 5.99805 3.00391 5.99805c18.667 0 32.167 1.66699 40.5 5s14.166 9.83301 17.499 19.5s5 24.5 5 44.5v225c0 15.333 -1.83301 26.5 -5.5 33.5s-10 11.667 -19 14s-23.167 3.5 -42.5 3.5c-2 0 -3 3 -3 9c0 5.33301 1 8 3 8c25.333 0 42.5 3.16699 51.5 9.5
s13.833 17.833 14.5 34.5c3.33301 101.333 20.666 176 51.999 224c18.667 28.667 42.334 49.834 71.001 63.501s63 20.5 103 20.5c32.667 0 61.5 -4.5 86.5 -13.5s45.5 -20.833 61.5 -35.5l-57 -64c-14.667 30 -32.334 53.5 -53.001 70.5s-42.667 25.5 -66 25.5
c-42 0 -72 -26 -90 -78c-16.667 -44.667 -25 -108.667 -25 -192v-358c0 -20.667 2.16699 -35.667 6.5 -45s12.666 -15.666 24.999 -18.999s32.5 -5 60.5 -5c2 0 3 -2 3 -6s-1 -6 -3 -6l-68 1c-14.667 0.666992 -36.667 1 -66 1l-59 -1
c-10.667 -0.666992 -25.334 -1 -44.001 -1c-2 0 -3 2 -3 6zM434.005 351.999v24.001c40.667 0 91.667 3.33301 153 10c2 0 3.66699 -2.33301 5 -7s2 -10.334 2 -17.001c0 -6 -1.16699 -12 -3.5 -18s-4.5 -8.66699 -6.5 -8c-46 10.667 -96 16 -150 16zM647.005 -6
c-2.66699 0 -4.33301 1.16699 -5 3.5s0 4.16602 2 5.49902c18 11.333 31.167 24.5 39.5 39.5s12.5 35.167 12.5 60.5v553c20.667 0.666992 37.5 8.83398 50.5 24.501s19.5 32.167 19.5 49.5c0 2 2 3 6 3s6 -1 6 -3v-677l-129 -59h-2zM719.006 45l50.999 73
c16 -38 35.5 -66.167 58.5 -84.5s47.167 -27.5 72.5 -27.5c32.667 0 57.667 14.667 75 44s26 71.333 26 126c0 58.667 -10.667 102.834 -32 132.501s-49.666 44.5 -84.999 44.5c-38.667 0 -78.667 -19.333 -120 -58l-9 8c27.333 29.333 54 52.666 80 69.999s56.667 26 92 26
c29.333 0 56.5 -7 81.5 -21s45 -35 60 -63s22.5 -62 22.5 -102c0 -48 -10.333 -89 -31 -123s-47.5 -59.667 -80.5 -77s-67.833 -26 -104.5 -26c-60 0 -112.333 19.333 -157 58z" />
    <glyph glyph-name="f_f_f.liga" unicode="fff" horiz-adv-x="901" 
d="M323 6c0 4 1.00586 5.99902 3.00586 5.99902c18.667 0 32.167 1.66699 40.5 5s14.166 9.83301 17.499 19.5s5 24.5 5 44.5v225c0 15.333 -1.83301 26.5 -5.5 33.5s-9.83398 11.667 -18.501 14s-22.667 3.5 -42 3.5c-1.33301 0 -2.33301 0.833008 -3 2.5
s-1 3.83398 -1 6.50098c0 2 0.5 3.83301 1.5 5.5s1.83301 2.5 2.5 2.5c24 0 40.667 3.16699 50 9.5s14.333 17.833 15 34.5c4 101.333 26.833 176.166 68.5 224.499s99.167 72.5 172.5 72.5c31.333 0 59.666 -6 84.999 -18s45.666 -26 60.999 -42l-39 -73
c-15.333 34.667 -35.5 62.167 -60.5 82.5s-50.833 30.5 -77.5 30.5c-38.667 0 -69.5 -21.333 -92.5 -64s-34.5 -106.667 -34.5 -192v-358c0 -20.667 2.16699 -35.667 6.5 -45s12.666 -15.666 24.999 -18.999s32.5 -5 60.5 -5c2 0 3 -2 3 -6s-1 -6 -3 -6l-67 1
c-14.667 0.666992 -36.667 1 -66 1l-60 -1c-10.667 -0.666992 -25.334 -1 -44.001 -1c-2 0 -3 2 -3 6zM25.0059 5.99902c0 4 1.33301 6.00098 4 6.00098c18 0 31.333 1.83301 40 5.5s14.667 10.167 18 19.5s5 24 5 44v225c0 22 -4.33301 36 -13 42s-26.667 9 -54 9
c-2 0 -3 3 -3 9c0 5.33301 1 8 3 8c24.667 0 41.5 3.16699 50.5 9.5s13.833 17.833 14.5 34.5c4.66699 93.333 27.834 162.166 69.501 206.499s99.167 66.5 172.5 66.5c31.333 0 60 -3.66699 86 -11s46 -16 60 -26l-40 -72c-15.333 27.333 -35.5 49.166 -60.5 65.499
s-50.833 24.5 -77.5 24.5c-38.667 0 -69.5 -19.333 -92.5 -58s-34.5 -97 -34.5 -175v-358c0 -20.667 2.16699 -35.667 6.5 -45s12.666 -15.666 24.999 -18.999s32.5 -5 60.5 -5c2.66699 0 4 -2 4 -6s-1.33301 -6 -4 -6l-67 1c-14.667 0.666992 -37 1 -67 1l-59 -1
c-10 -0.666992 -24.333 -1 -43 -1c-2.66699 0 -4 2 -4 6zM383.506 336c-3 6 -8.83203 10.167 -17.499 12.5s-23.334 3.83301 -44.001 4.5c-24.667 1.33301 -82.667 2 -174 2v21c85.333 0 143.333 0.333008 174 1c26.667 0.666992 44.167 3.66699 52.5 9s12.833 16 13.5 32
l24 -47l-23 -65c-0.666992 14 -2.5 24 -5.5 30zM682.507 336c-3 6 -8.83203 10.167 -17.499 12.5s-23.334 3.83301 -44.001 4.5c-26 1.33301 -84.333 2 -175 2v21c84.667 0 142.334 0.333008 173.001 1c27.333 0.666992 45.166 3.66699 53.499 9s12.833 16 13.5 32l24 -47
l-22 -65c-0.666992 14 -2.5 24 -5.5 30zM732.008 352v24.001c40.667 0 91.667 3.33301 153 10c2 0 3.66699 -2.33301 5 -7s2 -10.334 2 -17.001c0 -6 -1 -12 -3 -18s-4.33301 -8.66699 -7 -8c-46 10.667 -96 16 -150 16zM621.008 6.00098
c0 4 1.33496 5.99902 4.00195 5.99902c18 0 31.333 1.83301 40 5.5s14.667 10.167 18 19.5s5 24 5 44v225c0 18.667 -1.33301 31.167 -4 37.5s-7.83398 10.166 -15.501 11.499s-23.5 2 -47.5 2c-2 0 -3 3 -3 9c0 5.33301 1 8 3 8c24.667 0 41.5 3.16699 50.5 9.5
s13.833 17.833 14.5 34.5c3.33301 108.667 23.666 187.167 60.999 235.5s93.333 72.5 168 72.5c36.667 0 65.334 -5.16699 86.001 -15.5s31 -24.166 31 -41.499c0 -13.333 -4.5 -23.833 -13.5 -31.5s-19.5 -11.5 -31.5 -11.5c-13.333 0 -23.333 3 -30 9
s-13.334 15.333 -20.001 28c-7.33301 14 -15.333 24.5 -24 31.5s-20.667 10.5 -36 10.5c-33.333 0 -59.666 -21.667 -78.999 -65s-29 -110.333 -29 -201v-358c0 -20.667 2.16699 -35.667 6.5 -45s12.666 -15.666 24.999 -18.999s32.5 -5 60.5 -5c2.66699 0 4 -2 4 -6
s-1.33301 -6 -4 -6l-67 1c-14.667 0.666992 -37 1 -67 1l-59 -1c-10 -0.666992 -24.333 -1 -43 -1c-2.66699 0 -4 2 -4 6z" />
    <glyph glyph-name="f_f_h.liga" unicode="ffh" horiz-adv-x="1123" 
d="M25 6c0 4 1.33301 6.00098 4 6.00098c18 0 31.333 1.83301 40 5.5s14.667 10.167 18 19.5s5 24 5 44v225c0 22 -4.33301 36 -13 42s-26.667 9 -54 9c-2 0 -3 3 -3 9c0 5.33301 1 8 3 8c24.667 0 41.5 3.16699 50.5 9.5s13.833 17.833 14.5 34.5
c4.66699 93.333 27.834 162.166 69.501 206.499s99.167 66.5 172.5 66.5c30.667 0 59 -3.5 85 -10.5s46 -15.5 60 -25.5l-39 -73c-15.333 27.333 -35.5 49.166 -60.5 65.499s-50.833 24.5 -77.5 24.5c-38.667 0 -69.5 -19.333 -92.5 -58s-34.5 -97 -34.5 -175v-358
c0 -20.667 2.16699 -35.667 6.5 -45s12.666 -15.666 24.999 -18.999s32.5 -5 60.5 -5c2.66699 0 4 -2 4 -6s-1.33301 -6 -4 -6l-67 1c-14.667 0.666992 -37 1 -67 1l-59 -1c-10 -0.666992 -24.333 -1 -43 -1c-2.66699 0 -4 2 -4 6zM384.5 336.001
c-3 6 -8.99902 10.167 -17.999 12.5s-23.833 3.83301 -44.5 4.5c-24.667 1.33301 -82.667 2 -174 2v21c85.333 0 143.333 0.333008 174 1c26.667 0.666992 44.167 3.66699 52.5 9s13.166 16 14.499 32l23 -47l-22 -65c-0.666992 14 -2.5 24 -5.5 30zM323.001 6.00098
c0 4 1.00488 5.99902 3.00488 5.99902c18.667 0 32.167 1.66699 40.5 5s14.166 9.83301 17.499 19.5s5 24.5 5 44.5v225c0 15.333 -1.83301 26.5 -5.5 33.5s-10 11.667 -19 14s-23.167 3.5 -42.5 3.5c-2 0 -3 3 -3 9c0 5.33301 1 8 3 8c25.333 0 42.5 3.16699 51.5 9.5
s13.833 17.833 14.5 34.5c3.33301 108 23.166 186.333 59.499 235s91.833 73 166.5 73c32.667 0 61.5 -4.5 86.5 -13.5s45.5 -20.833 61.5 -35.5l-57 -64c-14.667 30 -32.334 53.5 -53.001 70.5s-42.667 25.5 -66 25.5c-76.667 0 -115 -90 -115 -270v-358
c0 -20.667 2.16699 -35.667 6.5 -45s12.666 -15.666 24.999 -18.999s32.5 -5 60.5 -5c2 0 3 -2 3 -6s-1 -6 -3 -6l-68 1c-14.667 0.666992 -36.667 1 -66 1l-59 -1c-10.667 -0.666992 -25.334 -1 -44.001 -1c-2 0 -3 2 -3 6zM434.006 352v24.001
c40.667 0 91.667 3.33301 153 10c2 0 3.66699 -2.33301 5 -7s2 -10.334 2 -17.001c0 -6 -1.16699 -12 -3.5 -18s-4.5 -8.66699 -6.5 -8c-46 10.667 -96 16 -150 16zM637.006 6.00098c0 4 0.999023 5.99902 2.99902 5.99902c22 0 36.833 4.66699 44.5 14
s11.5 27.666 11.5 54.999v575c20.667 0.666992 37.5 8.83398 50.5 24.501s19.5 32.167 19.5 49.5c0 2 2 3 6 3s6 -1 6 -3v-649c0 -27.333 3.83301 -45.666 11.5 -54.999s22.834 -14 45.501 -14c2 0 3 -2 3 -6s-1 -6 -3 -6c-16.667 0 -30 0.333008 -40 1l-58 1l-58 -1
c-9.33301 -0.666992 -22.333 -1 -39 -1c-2 0 -3 2 -3 6zM906.005 6c0 4 0.998047 6 2.99805 6c22 0 36.833 4.66699 44.5 14s11.5 27.666 11.5 54.999v149c0 38 -6.83301 65.833 -20.5 83.5s-35.167 26.5 -64.5 26.5c-21.333 0 -43.333 -6.16699 -66 -18.5
s-41 -28.5 -55 -48.5l-5 12c53.333 74.667 112 112 176 112c36.667 0 65.334 -11 86.001 -33s31 -52 31 -90v-193c0 -27.333 3.83301 -45.666 11.5 -54.999s22.834 -14 45.501 -14c2 0 3 -2 3 -6s-1 -6 -3 -6c-16.667 -0 -30 0.333008 -40 1l-58 1l-58 -1
c-9.33301 -0.666992 -22.333 -1 -39 -1c-2 0 -3 2 -3 6z" />
    <glyph glyph-name="f_f_i.liga" unicode="ffi" horiz-adv-x="867" 
d="M25 6c0 4 1.33301 6.00098 4 6.00098c18 0 31.333 1.83301 40 5.5s14.667 10.167 18 19.5s5 24 5 44v225c0 22 -4.33301 36 -13 42s-26.667 9 -54 9c-2 0 -3 3 -3 9c0 5.33301 1 8 3 8c24.667 0 41.5 3.16699 50.5 9.5s13.833 17.833 14.5 34.5
c4.66699 93.333 27.834 162.166 69.501 206.499s99.167 66.5 172.5 66.5c30.667 0 59 -3.5 85 -10.5s46 -15.5 60 -25.5l-39 -73c-15.333 27.333 -35.5 49.166 -60.5 65.499s-50.833 24.5 -77.5 24.5c-38.667 0 -69.5 -19.333 -92.5 -58s-34.5 -97 -34.5 -175v-358
c0 -20.667 2.16699 -35.667 6.5 -45s12.666 -15.666 24.999 -18.999s32.5 -5 60.5 -5c2.66699 0 4 -2 4 -6s-1.33301 -6 -4 -6l-67 1c-14.667 0.666992 -37 1 -67 1l-59 -1c-10 -0.666992 -24.333 -1 -43 -1c-2.66699 0 -4 2 -4 6zM384.5 336.001
c-3 6 -8.99902 10.167 -17.999 12.5s-23.833 3.83301 -44.5 4.5c-24.667 1.33301 -82.667 2 -174 2v21c85.333 0 143.333 0.333008 174 1c26.667 0.666992 44.167 3.66699 52.5 9s13.166 16 14.499 32l23 -47l-22 -65c-0.666992 14 -2.5 24 -5.5 30zM323.001 6.00098
c0 4 1.00293 5.99902 3.00293 5.99902c18.667 0 32.167 1.66699 40.5 5s14.166 9.83301 17.499 19.5s5 24.5 5 44.5v225c0 15.333 -1.83301 26.5 -5.5 33.5s-10 11.667 -19 14s-23.167 3.5 -42.5 3.5c-2 0 -3 3 -3 9c0 5.33301 1 8 3 8c25.333 0 42.5 3.16699 51.5 9.5
s13.833 17.833 14.5 34.5c4 107.333 26.833 185.5 68.5 234.5s101.167 73.5 178.5 73.5c42.667 0 76.5 -7.16699 101.5 -21.5s37.5 -32.5 37.5 -54.5c0 -12 -3.66699 -21.5 -11 -28.5s-17.666 -10.5 -30.999 -10.5c-12.667 0 -22.834 3.66699 -30.501 11
s-15.834 18 -24.501 32c-9.33301 17.333 -19.166 30.5 -29.499 39.5s-25.166 13.5 -44.499 13.5c-38.667 0 -70.334 -22.167 -95.001 -66.5s-37 -111.5 -37 -201.5v-358c0 -20.667 2.16699 -35.667 6.5 -45s12.666 -15.666 24.999 -18.999s32.5 -5 60.5 -5c2 0 3 -2 3 -6
s-1 -6 -3 -6l-68 1c-14.667 0.666992 -36.667 1 -66 1l-59 -1c-10.667 -0.666992 -25.334 -1 -44.001 -1c-2 0 -3 2 -3 6zM437.004 353v23c40 0 90 3.33301 150 10c2 0 3.66699 -2.5 5 -7.5s2 -10.5 2 -16.5c0 -6.66699 -1.16699 -13.167 -3.5 -19.5
s-4.5 -8.83301 -6.5 -7.5c-47.333 12 -96.333 18 -147 18zM642.004 6c0 4 0.665039 6.00195 1.99805 6.00195c22.667 0 37.834 4.66699 45.501 14s11.5 27.666 11.5 54.999v182c0 23.333 -2.16699 40.166 -6.5 50.499s-12.166 15.5 -23.499 15.5
c-8 0 -21.333 -4.33301 -40 -13h-1c-2.66699 0 -4.83398 1.66699 -6.50098 5s-1.5 5.66602 0.5 6.99902l144 67c0.666992 0.666992 1.66699 1 3 1c3.33301 0 6.33301 -1.5 9 -4.5s4 -5.5 4 -7.5v-21c-1.33301 -28 -2 -61 -2 -99v-183
c0 -27.333 3.83301 -45.666 11.5 -54.999s22.834 -14 45.501 -14c2 0 3 -2 3 -6s-1 -6 -3 -6c-16.667 -0 -30 0.333008 -40 1l-57 1l-58 -1c-10 -0.666992 -23.333 -1 -40 -1c-1.33301 0 -2 2 -2 6z" />
    <glyph glyph-name="f_f_j.liga" unicode="ffj" horiz-adv-x="873" 
d="M25 6c0 4 1.33301 6.00098 4 6.00098c18 0 31.333 1.83301 40 5.5s14.667 10.167 18 19.5s5 24 5 44v225c0 22 -4.33301 36 -13 42s-26.667 9 -54 9c-2 0 -3 3 -3 9c0 5.33301 1 8 3 8c24.667 0 41.5 3.16699 50.5 9.5s13.833 17.833 14.5 34.5
c4.66699 93.333 27.834 162.166 69.501 206.499s99.167 66.5 172.5 66.5c30.667 0 59 -3.5 85 -10.5s46 -15.5 60 -25.5l-39 -73c-15.333 27.333 -35.5 49.166 -60.5 65.499s-50.833 24.5 -77.5 24.5c-38.667 0 -69.5 -19.333 -92.5 -58s-34.5 -97 -34.5 -175v-358
c0 -20.667 2.16699 -35.667 6.5 -45s12.666 -15.666 24.999 -18.999s32.5 -5 60.5 -5c2.66699 0 4 -2 4 -6s-1.33301 -6 -4 -6l-67 1c-14.667 0.666992 -37 1 -67 1l-59 -1c-10 -0.666992 -24.333 -1 -43 -1c-2.66699 0 -4 2 -4 6zM384.5 336.001
c-3 6 -8.99902 10.167 -17.999 12.5s-23.833 3.83301 -44.5 4.5c-24.667 1.33301 -82.667 2 -174 2v21c85.333 0 143.333 0.333008 174 1c26.667 0.666992 44.167 3.66699 52.5 9s13.166 16 14.499 32l23 -47l-22 -65c-0.666992 14 -2.5 24 -5.5 30zM323.001 6.00098
c0 4 1.00195 6.00098 3.00195 6.00098c18.667 0 32.167 1.66699 40.5 5s14.166 9.83301 17.499 19.5s5 24.5 5 44.5v225c0 15.333 -1.83301 26.5 -5.5 33.5s-10 11.667 -19 14s-23.167 3.5 -42.5 3.5c-2 0 -3 3 -3 9c0 5.33301 1 8 3 8c25.333 0 42.5 3.16699 51.5 9.5
s13.833 17.833 14.5 34.5c4 106.667 27 184.667 69 234s100.667 74 176 74c48 0 85.5 -7.16699 112.5 -21.5s40.5 -32.5 40.5 -54.5c0 -12 -3.66699 -21.5 -11 -28.5s-17.666 -10.5 -30.999 -10.5c-14.667 0 -26.167 3.66699 -34.5 11s-17.5 18.666 -27.5 33.999
c-10.667 17.333 -21 30.166 -31 38.499s-24.333 12.5 -43 12.5c-41.333 0 -74.5 -22 -99.5 -66s-37.5 -111.333 -37.5 -202v-358c0 -20.667 2.16699 -35.667 6.5 -45s12.666 -15.666 24.999 -18.999s32.5 -5 60.5 -5c2 0 3 -2 3 -6s-1 -6 -3 -6l-68 1
c-14.667 0.666992 -36.667 1 -66 1l-59 -1c-10.667 -0.666992 -25.334 -1 -44.001 -1c-2 0 -3 2 -3 6zM622.503 -275.498c-1.66699 3.66699 -1.49609 5.83203 0.503906 6.49902c32 14 54.833 36.167 68.5 66.5s20.5 74.166 20.5 131.499v334
c0 22.667 -2.33301 39.334 -7 50.001s-12.334 16 -23.001 16c-8.66699 0 -22.334 -4.33301 -41.001 -13h-1c-2.66699 0 -4.83398 1.83301 -6.50098 5.5s-1.16699 5.83398 1.5 6.50098l144 67c0.666992 0.666992 1.66699 1 3 1c2.66699 0 5.5 -1.5 8.5 -4.5
s4.5 -5.5 4.5 -7.5c0 -8 -0.333008 -15 -1 -21c-1.33301 -28 -2 -61 -2 -99v-312c0 -45.333 -5 -82.333 -15 -111s-26.833 -52.5 -50.5 -71.5s-56.834 -35.5 -99.501 -49.5c-1.33301 -0.666992 -2.83301 0.833008 -4.5 4.5zM434.007 352v24.001
c40.667 0 91.667 3.33301 153 10c2 0 3.66699 -2.33301 5 -7s2 -10.334 2 -17.001c0 -6 -1.16699 -12 -3.5 -18s-4.5 -8.66699 -6.5 -8c-46 10.667 -96 16 -150 16z" />
    <glyph glyph-name="f_f_k.liga" unicode="ffk" horiz-adv-x="1109" 
d="M25 6c0 4 1.33301 6.00098 4 6.00098c18 0 31.333 1.83301 40 5.5s14.667 10.167 18 19.5s5 24 5 44v225c0 22 -4.33301 36 -13 42s-26.667 9 -54 9c-2 0 -3 3 -3 9c0 5.33301 1 8 3 8c24.667 0 41.5 3.16699 50.5 9.5s13.833 17.833 14.5 34.5
c4.66699 93.333 27.834 162.166 69.501 206.499s99.167 66.5 172.5 66.5c30.667 0 59 -3.5 85 -10.5s46 -15.5 60 -25.5l-39 -73c-15.333 27.333 -35.5 49.166 -60.5 65.499s-50.833 24.5 -77.5 24.5c-38.667 0 -69.5 -19.333 -92.5 -58s-34.5 -97 -34.5 -175v-358
c0 -20.667 2.16699 -35.667 6.5 -45s12.666 -15.666 24.999 -18.999s32.5 -5 60.5 -5c2.66699 0 4 -2 4 -6s-1.33301 -6 -4 -6l-67 1c-14.667 0.666992 -37 1 -67 1l-59 -1c-10 -0.666992 -24.333 -1 -43 -1c-2.66699 0 -4 2 -4 6zM384.5 336.001
c-3 6 -8.99902 10.167 -17.999 12.5s-23.833 3.83301 -44.5 4.5c-24.667 1.33301 -82.667 2 -174 2v21c85.333 0 143.333 0.333008 174 1c26.667 0.666992 44.167 3.66699 52.5 9s13.166 16 14.499 32l23 -47l-22 -65c-0.666992 14 -2.5 24 -5.5 30zM323.001 6.00098
c0 4 1.00391 5.99902 3.00391 5.99902c18.667 0 32.167 1.66699 40.5 5s14.166 9.83301 17.499 19.5s5 24.5 5 44.5v225c0 15.333 -1.83301 26.5 -5.5 33.5s-10 11.667 -19 14s-23.167 3.5 -42.5 3.5c-2 0 -3 3 -3 9c0 5.33301 1 8 3 8c25.333 0 42.5 3.16699 51.5 9.5
s13.833 17.833 14.5 34.5c3.33301 108 23.166 186.333 59.499 235s91.5 73 165.5 73c64.667 0 114.334 -16.333 149.001 -49l-57 -64c-14.667 30 -32.334 53.5 -53.001 70.5s-42.667 25.5 -66 25.5c-76.667 0 -115 -90 -115 -270v-358c0 -20.667 2.16699 -35.667 6.5 -45
s12.666 -15.666 24.999 -18.999s32.5 -5 60.5 -5c2 0 3 -2 3 -6s-1 -6 -3 -6l-68 1c-14.667 0.666992 -36.667 1 -66 1l-59 -1c-10.667 -0.666992 -25.334 -1 -44.001 -1c-2 0 -3 2 -3 6zM434.005 352v24.001c40.667 0 91.667 3.33301 153 10c2 0 3.66699 -2.33301 5 -7
s2 -10.334 2 -17.001c0 -6 -1.16699 -12 -3.5 -18s-4.5 -8.66699 -6.5 -8c-46 10.667 -96 16 -150 16zM888.005 6.00098c0 4 1 6 3 6c27.333 0 41 7 41 21c0 6 -2.66699 12.667 -8 20l-123 161l60 46l138 -179c34 -46 71 -69 111 -69c1.33301 0 2 -2 2 -6
s-0.666992 -6 -2 -6c-16.667 0 -30 0.333008 -40 1l-58 1l-76 -1c-10.667 -0.666992 -25.667 -1 -45 -1c-2 0 -3 2 -3 6zM637.005 6.00098c0 4 0.999023 5.99902 2.99902 5.99902c22 0 36.833 4.66699 44.5 14s11.5 27.666 11.5 54.999v575
c20.667 0.666992 37.5 8.83398 50.5 24.501s19.5 32.167 19.5 49.5c0 2 2 3 6 3s6 -1 6 -3v-649c0 -27.333 3.83301 -45.666 11.5 -54.999s22.834 -14 45.501 -14c2 0 3 -2 3 -6s-1 -6 -3 -6c-16.667 0 -30 0.333008 -40 1l-58 1l-58 -1
c-9.33301 -0.666992 -22.333 -1 -39 -1c-2 0 -3 2 -3 6zM742.004 170l142 129c18.667 16 28 31.333 28 46c0 8.66699 -3.66699 15.667 -11 21s-18.333 8 -33 8c-2 0 -3 2 -3 6s1 6 3 6c19.333 0 34 -0.333008 44 -1l77 -1l70 1c9.33301 0.666992 22.333 1 39 1
c1.33301 0 2 -2 2 -6s-0.666992 -6 -2 -6c-27.333 0 -58.333 -6.83301 -93 -20.5s-67 -33.5 -97 -59.5l-160 -139z" />
    <glyph glyph-name="f_f_l.liga" unicode="ffl" horiz-adv-x="865" 
d="M25 6c0 4 1.33301 6.00098 4 6.00098c18 0 31.333 1.83301 40 5.5s14.667 10.167 18 19.5s5 24 5 44v225c0 22 -4.33301 36 -13 42s-26.667 9 -54 9c-2 0 -3 3 -3 9c0 5.33301 1 8 3 8c24.667 0 41.5 3.16699 50.5 9.5s13.833 17.833 14.5 34.5
c4.66699 93.333 27.834 162.166 69.501 206.499s99.167 66.5 172.5 66.5c30.667 0 59 -3.5 85 -10.5s46 -15.5 60 -25.5l-39 -73c-15.333 27.333 -35.5 49.166 -60.5 65.499s-50.833 24.5 -77.5 24.5c-38.667 0 -69.5 -19.333 -92.5 -58s-34.5 -97 -34.5 -175v-358
c0 -20.667 2.16699 -35.667 6.5 -45s12.666 -15.666 24.999 -18.999s32.5 -5 60.5 -5c2.66699 0 4 -2 4 -6s-1.33301 -6 -4 -6l-67 1c-14.667 0.666992 -37 1 -67 1l-59 -1c-10 -0.666992 -24.333 -1 -43 -1c-2.66699 0 -4 2 -4 6zM384.5 336.001
c-3 6 -8.99902 10.167 -17.999 12.5s-23.833 3.83301 -44.5 4.5c-24.667 1.33301 -82.667 2 -174 2v21c85.333 0 143.333 0.333008 174 1c26.667 0.666992 44.167 3.66699 52.5 9s13.166 16 14.499 32l23 -47l-22 -65c-0.666992 14 -2.5 24 -5.5 30zM323.001 6.00098
c0 4 1.00391 5.99707 3.00391 5.99707c18.667 0 32.167 1.66699 40.5 5s14.166 9.83301 17.499 19.5s5 24.5 5 44.5v225c0 15.333 -1.83301 26.5 -5.5 33.5s-10 11.667 -19 14s-23.167 3.5 -42.5 3.5c-2 0 -3 3 -3 9c0 5.33301 1 8 3 8c25.333 0 42.5 3.16699 51.5 9.5
s13.833 17.833 14.5 34.5c3.33301 108.667 23.5 187.167 60.5 235.5s92.5 72.5 166.5 72.5c65.333 0 115.333 -16.333 150 -49l-57 -64c-15.333 30.667 -33.333 54.334 -54 71.001s-42.667 25 -66 25c-36.667 0 -65.334 -21.667 -86.001 -65s-31 -111.666 -31 -204.999v-358
c0 -20.667 2.16699 -35.667 6.5 -45s12.666 -15.666 24.999 -18.999s32.5 -5 60.5 -5c2 0 3 -2 3 -6s-1 -6 -3 -6l-68 1c-14.667 0.666992 -36.667 1 -66 1l-59 -1c-10.667 -0.666992 -25.334 -1 -44.001 -1c-2 0 -3 2 -3 6zM437.005 352.998v23c40 0 90 3.33301 150 10
c2 0 3.66699 -2.5 5 -7.5s2 -10.5 2 -16.5c0 -6.66699 -1.16699 -13.167 -3.5 -19.5s-4.5 -8.83301 -6.5 -7.5c-47.333 12 -96.333 18 -147 18zM641.005 5.99805c0 4 0.999023 5.99902 2.99902 5.99902c22 0 36.833 4.66699 44.5 14s11.5 27.666 11.5 54.999v575
c20.667 0.666992 37.5 8.83398 50.5 24.501s19.5 32.167 19.5 49.5c0 2 2 3 6 3s6 -1 6 -3v-649c0 -27.333 3.83301 -45.666 11.5 -54.999s22.834 -14 45.501 -14c2 0 3 -2 3 -6s-1 -6 -3 -6c-16.667 0 -30 0.333008 -40 1l-58 1l-58 -1
c-9.33301 -0.666992 -22.333 -1 -39 -1c-2 0 -3 2 -3 6z" />
    <glyph glyph-name="f_f_thorn.liga" unicode="ff&#xfe;" horiz-adv-x="1117" 
d="M25 6c0 4 1.33301 6.00098 4 6.00098c18 0 31.333 1.83301 40 5.5s14.667 10.167 18 19.5s5 24 5 44v225c0 22 -4.33301 36 -13 42s-26.667 9 -54 9c-2 0 -3 3 -3 9c0 5.33301 1 8 3 8c24.667 0 41.5 3.16699 50.5 9.5s13.833 17.833 14.5 34.5
c4.66699 93.333 27.834 162.166 69.501 206.499s99.167 66.5 172.5 66.5c30.667 0 59 -3.5 85 -10.5s46 -15.5 60 -25.5l-39 -73c-15.333 27.333 -35.5 49.166 -60.5 65.499s-50.833 24.5 -77.5 24.5c-38.667 0 -69.5 -19.333 -92.5 -58s-34.5 -97 -34.5 -175v-358
c0 -20.667 2.16699 -35.667 6.5 -45s12.666 -15.666 24.999 -18.999s32.5 -5 60.5 -5c2.66699 0 4 -2 4 -6s-1.33301 -6 -4 -6l-67 1c-14.667 0.666992 -37 1 -67 1l-59 -1c-10 -0.666992 -24.333 -1 -43 -1c-2.66699 0 -4 2 -4 6zM384.5 336.001
c-3 6 -8.99902 10.167 -17.999 12.5s-23.833 3.83301 -44.5 4.5c-24.667 1.33301 -82.667 2 -174 2v21c85.333 0 143.333 0.333008 174 1c26.667 0.666992 44.167 3.66699 52.5 9s13.166 16 14.499 32l23 -47l-22 -65c-0.666992 14 -2.5 24 -5.5 30zM323.001 6.00098
c0 4 1.00391 5.99902 3.00391 5.99902c18.667 0 32.167 1.66699 40.5 5s14.166 9.83301 17.499 19.5s5 24.5 5 44.5v225c0 15.333 -1.83301 26.5 -5.5 33.5s-10 11.667 -19 14s-23.167 3.5 -42.5 3.5c-2 0 -3 3 -3 9c0 5.33301 1 8 3 8c25.333 0 42.5 3.16699 51.5 9.5
s13.833 17.833 14.5 34.5c3.33301 108 23.166 186.333 59.499 235s91.5 73 165.5 73c64.667 0 114.334 -16.333 149.001 -49l-57 -64c-14.667 30 -32.334 53.5 -53.001 70.5s-42.667 25.5 -66 25.5c-76.667 0 -115 -90 -115 -270v-358c0 -20.667 2.16699 -35.667 6.5 -45
s12.666 -15.666 24.999 -18.999s32.5 -5 60.5 -5c2 0 3 -2 3 -6s-1 -6 -3 -6l-68 1c-14.667 0.666992 -36.667 1 -66 1l-59 -1c-10.667 -0.666992 -25.334 -1 -44.001 -1c-2 0 -3 2 -3 6zM434.005 352v24.001c40.667 0 91.667 3.33301 153 10c2 0 3.66699 -2.33301 5 -7
s2 -10.334 2 -17.001c0 -6 -1.16699 -12 -3.5 -18s-4.5 -8.66699 -6.5 -8c-46 10.667 -96 16 -150 16zM633.005 -268.999c0 4 0.666992 5.99902 2 5.99902c16.667 0 29 1.83301 37 5.5s13.5 10.167 16.5 19.5s4.5 24 4.5 44v850c20.667 0.666992 37.5 8.83398 50.5 24.501
s19.5 32.167 19.5 49.5c0 2 2 3 6 3s6 -1 6 -3v-924c0 -20 2.16699 -34.667 6.5 -44s12.833 -15.833 25.5 -19.5s32.667 -5.5 60 -5.5c1.33301 0 2 -2 2 -6s-0.666992 -6 -2 -6c-24.667 0 -44 0.333008 -58 1l-76 1l-57 -1c-10 -0.666992 -23.667 -1 -41 -1
c-1.33301 0 -2 2 -2 6zM799.005 -6c-18.667 4.66699 -40.6689 12.667 -66.002 24l28 61c18 -22.667 36.333 -39.667 55 -51s42.334 -17 71.001 -17c34 0 60.667 14.5 80 43.5s29 72.167 29 129.5c0 52 -12 92.5 -36 121.5s-54.333 43.5 -91 43.5
c-24.667 0 -46.5 -6 -65.5 -18s-39.167 -30 -60.5 -54l-9 10c34 38.667 66.5 67 97.5 85s62.833 27 95.5 27c28 0 54 -7.33301 78 -22s43.167 -36 57.5 -64s21.5 -60.667 21.5 -98c0 -52.667 -11.167 -96 -33.5 -130s-50.166 -58.833 -83.499 -74.5
s-67.333 -23.5 -102 -23.5c-25.333 0 -47.333 2.33301 -66 7z" />
    <glyph glyph-name="f_f_t.liga" unicode="fft" horiz-adv-x="925" 
d="M25 6c0 4 1.33301 6.00098 4 6.00098c18 0 31.333 1.83301 40 5.5s14.667 10.167 18 19.5s5 24 5 44v225c0 22 -4.33301 36 -13 42s-26.667 9 -54 9c-2 0 -3 3 -3 9c0 5.33301 1 8 3 8c24.667 0 41.5 3.16699 50.5 9.5s13.833 17.833 14.5 34.5
c4.66699 93.333 27.834 162.166 69.501 206.499s99.167 66.5 172.5 66.5c30.667 0 59 -3.5 85 -10.5s46 -15.5 60 -25.5l-39 -73c-15.333 27.333 -35.5 49.166 -60.5 65.499s-50.833 24.5 -77.5 24.5c-38.667 0 -69.5 -19.333 -92.5 -58s-34.5 -97 -34.5 -175v-358
c0 -20.667 2.16699 -35.667 6.5 -45s12.666 -15.666 24.999 -18.999s32.5 -5 60.5 -5c2.66699 0 4 -2 4 -6s-1.33301 -6 -4 -6l-67 1c-14.667 0.666992 -37 1 -67 1l-59 -1c-10 -0.666992 -24.333 -1 -43 -1c-2.66699 0 -4 2 -4 6zM384.5 336.001
c-3 6 -8.99902 10.167 -17.999 12.5s-23.833 3.83301 -44.5 4.5c-24.667 1.33301 -82.667 2 -174 2v21c85.333 0 143.333 0.333008 174 1c26.667 0.666992 44.167 3.66699 52.5 9s13.166 16 14.499 32l23 -47l-22 -65c-0.666992 14 -2.5 24 -5.5 30zM323.001 6.00098
c0 4 1.00098 5.99707 3.00098 5.99707c18.667 0 32.167 1.66699 40.5 5s14.166 9.83301 17.499 19.5s5 24.5 5 44.5v225c0 15.333 -1.83301 26.5 -5.5 33.5s-10 11.667 -19 14s-23.167 3.5 -42.5 3.5c-2 0 -3 3 -3 9c0 5.33301 1 8 3 8c25.333 0 42.5 3.16699 51.5 9.5
s13.833 17.833 14.5 34.5c3.33301 108.667 23.5 187.167 60.5 235.5s93.167 72.5 168.5 72.5c36 0 64.5 -5.16699 85.5 -15.5s31.5 -24.166 31.5 -41.499c0 -13.333 -4.66699 -23.833 -14 -31.5s-20.333 -11.5 -33 -11.5s-22.667 3.5 -30 10.5s-14.666 17.5 -21.999 31.5
c-6.66699 12.667 -14.167 22.334 -22.5 29.001s-19.5 10 -33.5 10c-33.333 0 -59.666 -22 -78.999 -66s-29 -111.333 -29 -202v-358c0 -20.667 2.16699 -35.667 6.5 -45s12.666 -15.666 24.999 -18.999s32.5 -5 60.5 -5c2 0 3 -2 3 -6s-1 -6 -3 -6l-68 1
c-14.667 0.666992 -36.667 1 -66 1l-59 -1c-10.667 -0.666992 -25.334 -1 -44.001 -1c-2 0 -3 2 -3 6zM700.502 8.49805c-19.667 13.667 -29.5039 36.5 -29.5039 68.5v229c0 16.667 -4.16699 28.167 -12.5 34.5s-27.166 10.5 -56.499 12.5s-82.666 3 -159.999 3v21
c78.667 0 135.334 1 170.001 3c36 2 62.5 8.5 79.5 19.5s32.5 29.5 46.5 55.5c0.666992 2.66699 3.33398 4 8.00098 4s7 -1.33301 7 -4v-345c0 -26 6.5 -45.167 19.5 -57.5s31.167 -18.5 54.5 -18.5c31.333 0 57 9.33301 77 28c0.666992 0.666992 1.66699 1 3 1
c2.66699 0 4.83398 -1.33301 6.50098 -4s1.5 -4.66699 -0.5 -6c-24.667 -22.667 -48 -39.167 -70 -49.5s-45.333 -15.5 -70 -15.5c-28.667 0 -52.834 6.83301 -72.501 20.5zM724.998 351.998v24.001c42.667 0 96.334 3.33301 161.001 10c2 0 3.66699 -2.33301 5 -7
s2 -10.334 2 -17.001c0 -6 -1.16699 -12 -3.5 -18s-4.5 -8.66699 -6.5 -8c-48.667 10.667 -101.334 16 -158.001 16z" />
    <glyph glyph-name="f_h.liga" unicode="fh" horiz-adv-x="825" 
d="M25 6c0 4 1.33496 5.99902 4.00195 5.99902c18 0 31.333 1.83301 40 5.5s14.667 10.167 18 19.5s5 24 5 44v225c0 22 -4.33301 36 -13 42s-26.667 9 -54 9c-2 0 -3 3 -3 9c0 5.33301 1 8 3 8c24.667 0 41.5 3.16699 50.5 9.5s13.833 17.833 14.5 34.5
c3.33301 108 23.166 186.333 59.499 235s91.833 73 166.5 73c33.333 0 62.5 -4.5 87.5 -13.5s45.167 -20.833 60.5 -35.5l-57 -64c-14 30 -31.5 53.5 -52.5 70.5s-42.833 25.5 -65.5 25.5c-77.333 0 -116 -90 -116 -270v-358c0 -20.667 2.16699 -35.667 6.5 -45
s12.666 -15.666 24.999 -18.999s32.5 -5 60.5 -5c2.66699 0 4 -2 4 -6s-1.33301 -6 -4 -6l-67 1c-14.667 0.666992 -37 1 -67 1l-59 -1c-10 -0.666992 -24.333 -1 -43 -1c-2.66699 0 -4 2 -4 6zM136.002 351.999v24.001c40.667 0 91.667 3.33301 153 10
c2 0 3.66699 -2.33301 5 -7s2 -10.334 2 -17.001c0 -6 -1 -12 -3 -18s-4.33301 -8.66699 -7 -8c-46 10.667 -96 16 -150 16zM340.002 6c0 4 0.999023 5.99902 2.99902 5.99902c22 0 36.833 4.66699 44.5 14s11.5 27.666 11.5 54.999v575
c20 0.666992 36.5 8.83398 49.5 24.501s19.5 32.167 19.5 49.5c0 2 2 3 6 3s6 -1 6 -3v-649c0 -27.333 3.83301 -45.666 11.5 -54.999s22.834 -14 45.501 -14c2 0 3 -2 3 -6s-1 -6 -3 -6c-16.667 -0 -30 0.333008 -40 1l-57 1l-58 -1c-9.33301 -0.666992 -22.333 -1 -39 -1
c-2 0 -3 2 -3 6zM609.001 5.99902c0 4 0.999023 6 2.99902 6c22 0 36.833 4.66699 44.5 14s11.5 27.666 11.5 54.999v149c0 37.333 -7 65 -21 83s-35.333 27 -64 27c-22 0 -44 -6.16699 -66 -18.5s-40.333 -28.5 -55 -48.5l-6 12c54.667 74.667 113.667 112 177 112
c36 0 64.333 -11 85 -33s31 -52 31 -90v-193c0 -27.333 3.83301 -45.666 11.5 -54.999s22.834 -14 45.501 -14c2 0 3 -2 3 -6s-1 -6 -3 -6c-16.667 0 -30 0.333008 -40 1l-57 1l-58 -1c-9.33301 -0.666992 -22.333 -1 -39 -1c-2 0 -3 2 -3 6z" />
    <glyph glyph-name="f_j.liga" unicode="fj" horiz-adv-x="575" 
d="M25 6c0 4 1.33398 5.99902 4.00098 5.99902c18 0 31.333 1.83301 40 5.5s14.667 10.167 18 19.5s5 24 5 44v225c0 22 -4.33301 36 -13 42s-26.667 9 -54 9c-2 0 -3 3 -3 9c0 5.33301 1 8 3 8c24.667 0 41.5 3.16699 50.5 9.5s13.833 17.833 14.5 34.5
c7.33301 205.333 89 308 245 308c48 0 85.667 -7.16699 113 -21.5s41 -32.5 41 -54.5c0 -12 -3.66699 -21.5 -11 -28.5s-18 -10.5 -32 -10.5s-25.167 3.66699 -33.5 11s-17.5 18.666 -27.5 33.999c-10.667 16.667 -21.167 29.334 -31.5 38.001s-24.833 13 -43.5 13
c-41.333 0 -74.5 -22 -99.5 -66s-37.5 -111.333 -37.5 -202v-358c0 -20.667 2.16699 -35.667 6.5 -45s12.666 -15.666 24.999 -18.999s32.5 -5 60.5 -5c2.66699 0 4 -2 4 -6s-1.33301 -6 -4 -6l-67 1c-14.667 0.666992 -37 1 -67 1l-59 -1c-10 -0.666992 -24.333 -1 -43 -1
c-2.66699 0 -4 2 -4 6zM325.501 -275.501c-1.66699 3.66699 -1.5 5.83594 0.5 6.50293c32 14 54.667 36.167 68 66.5s20 74.166 20 131.499v334c0 23.333 -2.16699 40.166 -6.5 50.499s-12.166 15.5 -23.499 15.5c-8 0 -21.333 -4.33301 -40 -13h-1
c-2.66699 0 -4.83398 1.66699 -6.50098 5s-1.5 5.66602 0.5 6.99902l144 67c0.666992 0.666992 1.66699 1 3 1c3.33301 0 6.33301 -1.5 9 -4.5s4 -5.5 4 -7.5v-21c-1.33301 -28 -2 -61 -2 -99v-312c0 -45.333 -5.16699 -82.333 -15.5 -111s-27.333 -52.5 -51 -71.5
s-56.5 -35.5 -98.5 -49.5c-1.33301 -0.666992 -2.83301 0.833008 -4.5 4.5zM136.001 352.001v24.001c40.667 0 91.667 3.33301 153 10c2 0 3.66699 -2.33301 5 -7s2 -10.334 2 -17.001c0 -6 -1 -12 -3 -18s-4.33301 -8.66699 -7 -8c-46 10.667 -96 16 -150 16z" />
    <glyph glyph-name="f_k.liga" unicode="fk" horiz-adv-x="811" 
d="M25 6c0 4 1.33496 5.99902 4.00195 5.99902c18 0 31.333 1.83301 40 5.5s14.667 10.167 18 19.5s5 24 5 44v225c0 22 -4.33301 36 -13 42s-26.667 9 -54 9c-2 0 -3 3 -3 9c0 5.33301 1 8 3 8c24.667 0 41.5 3.16699 50.5 9.5s13.833 17.833 14.5 34.5
c3.33301 108 23.166 186.333 59.499 235s91.5 73 165.5 73c34 0 63.5 -4.5 88.5 -13.5s45.167 -20.833 60.5 -35.5l-57 -64c-14 30 -31.333 53.5 -52 70.5s-42.667 25.5 -66 25.5c-77.333 0 -116 -90 -116 -270v-358c0 -20.667 2.16699 -35.667 6.5 -45
s12.666 -15.666 24.999 -18.999s32.5 -5 60.5 -5c2.66699 0 4 -2 4 -6s-1.33301 -6 -4 -6l-67 1c-14.667 0.666992 -37 1 -67 1l-59 -1c-10 -0.666992 -24.333 -1 -43 -1c-2.66699 0 -4 2 -4 6zM136.002 351.999v24.001c40.667 0 91.667 3.33301 153 10
c2 0 3.66699 -2.33301 5 -7s2 -10.334 2 -17.001c0 -6 -1 -12 -3 -18s-4.33301 -8.66699 -7 -8c-46 10.667 -96 16 -150 16zM591.002 6c0 4 1 6 3 6c27.333 0 41 6.66699 41 20c0 6 -3 13 -9 21l-122 161l60 46l137 -179c34 -46 71 -69 111 -69c1.33301 0 2 -2 2 -6
s-0.666992 -6 -2 -6c-16.667 -0 -30 0.333008 -40 1l-57 1l-76 -1c-10.667 -0.666992 -25.667 -1 -45 -1c-2 0 -3 2 -3 6zM340.002 6c0 4 0.999023 5.99902 2.99902 5.99902c22 0 36.833 4.66699 44.5 14s11.5 27.666 11.5 54.999v575c20 0.666992 36.5 8.83398 49.5 24.501
s19.5 32.167 19.5 49.5c0 2 2 3 6 3s6 -1 6 -3v-649c0 -27.333 3.83301 -45.666 11.5 -54.999s22.834 -14 45.501 -14c2 0 3 -2 3 -6s-1 -6 -3 -6c-16.667 -0 -30 0.333008 -40 1l-57 1l-58 -1c-9.33301 -0.666992 -22.333 -1 -39 -1c-2 0 -3 2 -3 6zM445.001 169.999
l141.998 129c18.667 16 28 31.333 28 46c0 8.66699 -3.83301 15.667 -11.5 21s-18.5 8 -32.5 8c-2 0 -3 2 -3 6s1 6 3 6c18.667 0 33.334 -0.333008 44.001 -1l76 -1l71 1c8.66699 0.666992 21.334 1 38.001 1c1.33301 0 2 -2 2 -6s-0.666992 -6 -2 -6
c-27.333 0 -58.5 -6.83301 -93.5 -20.5s-67.167 -33.5 -96.5 -59.5l-160 -139z" />
    <glyph glyph-name="f_thorn.liga" unicode="f&#xfe;" horiz-adv-x="819" 
d="M25 6c0 4 1.33496 5.99902 4.00195 5.99902c18 0 31.333 1.83301 40 5.5s14.667 10.167 18 19.5s5 24 5 44v225c0 22 -4.33301 36 -13 42s-26.667 9 -54 9c-2 0 -3 3 -3 9c0 5.33301 1 8 3 8c24.667 0 41.5 3.16699 50.5 9.5s13.833 17.833 14.5 34.5
c3.33301 108 23.166 186.333 59.499 235s91.5 73 165.5 73c34 0 63.5 -4.5 88.5 -13.5s45.167 -20.833 60.5 -35.5l-57 -64c-14 30 -31.333 53.5 -52 70.5s-42.667 25.5 -66 25.5c-77.333 0 -116 -90 -116 -270v-358c0 -20.667 2.16699 -35.667 6.5 -45
s12.666 -15.666 24.999 -18.999s32.5 -5 60.5 -5c2.66699 0 4 -2 4 -6s-1.33301 -6 -4 -6l-67 1c-14.667 0.666992 -37 1 -67 1l-59 -1c-10 -0.666992 -24.333 -1 -43 -1c-2.66699 0 -4 2 -4 6zM136.002 351.999v24.001c40.667 0 91.667 3.33301 153 10
c2 0 3.66699 -2.33301 5 -7s2 -10.334 2 -17.001c0 -6 -1 -12 -3 -18s-4.33301 -8.66699 -7 -8c-46 10.667 -96 16 -150 16zM335.002 -269c0 4 0.665039 5.99902 1.99805 5.99902c16.667 0 29.167 1.83301 37.5 5.5s14 10.167 17 19.5s4.5 24 4.5 44v850
c20 0.666992 36.5 8.83398 49.5 24.501s19.5 32.167 19.5 49.5c0 2 2 3 6 3s6 -1 6 -3v-924c0 -20 2.33301 -34.667 7 -44s13.334 -15.833 26.001 -19.5s32.334 -5.5 59.001 -5.5c2 0 3 -2 3 -6s-1 -6 -3 -6c-24 0 -43 0.333008 -57 1l-76 1l-59 -1
c-10 -0.666992 -23.333 -1 -40 -1c-1.33301 0 -2 2 -2 6zM502.5 -6.00098c-18.333 4.66699 -40.835 12.667 -67.502 24l28 61c18 -22.667 36.333 -39.667 55 -51s42.334 -17 71.001 -17c34 0 60.667 14.5 80 43.5s29 72.167 29 129.5c0 52 -12 92.5 -36 121.5
s-54.333 43.5 -91 43.5c-24 0 -45.5 -6 -64.5 -18s-39.167 -30 -60.5 -54l-10 10c34 38.667 66.5 67 97.5 85s62.833 27 95.5 27c28 0 54 -7.33301 78 -22s43.167 -36 57.5 -64s21.5 -60.667 21.5 -98c0 -52.667 -11.167 -96 -33.5 -130s-50.166 -58.833 -83.499 -74.5
s-67.333 -23.5 -102 -23.5c-24.667 0 -46.167 2.33301 -64.5 7z" />
    <glyph glyph-name="f_t.liga" unicode="ft" horiz-adv-x="627" 
d="M25 6c0 4 1.33203 5.99902 3.99902 5.99902c18 0 31.333 1.83301 40 5.5s14.667 10.167 18 19.5s5 24 5 44v225c0 22 -4.33301 36 -13 42s-26.667 9 -54 9c-2 0 -3 3 -3 9c0 5.33301 1 8 3 8c24.667 0 41.5 3.16699 50.5 9.5s13.833 17.833 14.5 34.5
c3.33301 108.667 23.666 187.167 60.999 235.5s93.333 72.5 168 72.5c36.667 0 65.334 -5.16699 86.001 -15.5s31 -24.166 31 -41.499c0 -13.333 -4.5 -23.833 -13.5 -31.5s-19.833 -11.5 -32.5 -11.5s-23 3.5 -31 10.5s-15 17.5 -21 31.5
c-7.33301 13.333 -15.166 23.166 -23.499 29.499s-19.5 9.5 -33.5 9.5c-33.333 0 -59.666 -22 -78.999 -66s-29 -111.333 -29 -202v-358c0 -20.667 2.16699 -35.667 6.5 -45s12.666 -15.666 24.999 -18.999s32.5 -5 60.5 -5c2.66699 0 4 -2 4 -6s-1.33301 -6 -4 -6l-67 1
c-14.667 0.666992 -37 1 -67 1l-59 -1c-10 -0.666992 -24.333 -1 -43 -1c-2.66699 0 -4 2 -4 6zM402.999 8.49902c-19.333 13.667 -28.999 36.5 -28.999 68.5v229c0 16.667 -4.33301 28.167 -13 34.5s-27.5 10.5 -56.5 12.5s-82.167 3 -159.5 3v21c78 0 134.333 1 169 3
c36 2 62.5 8.5 79.5 19.5s32.5 29.5 46.5 55.5c0.666992 2.66699 3.33398 4 8.00098 4c5.33301 0 8 -1.33301 8 -4v-345c0 -50.667 24.333 -76 73 -76c16 0 30.667 2.5 44 7.5s24.666 11.833 33.999 20.5c0.666992 0.666992 1.66699 1 3 1c2 0 3.83301 -1.33301 5.5 -4
s1.5 -4.66699 -0.5 -6c-24.667 -22.667 -47.834 -39.167 -69.501 -49.5s-45.167 -15.5 -70.5 -15.5c-28.667 0 -52.667 6.83301 -72 20.5zM427 351.999l-0.000976562 24.001c42.667 0 96.334 3.33301 161.001 10c2 0 3.83301 -2.33301 5.5 -7s2.5 -10.334 2.5 -17.001
c0 -6 -1.16699 -12 -3.5 -18s-4.83301 -8.66699 -7.5 -8c-48 10.667 -100.667 16 -158 16z" />
    <glyph glyph-name="g_g.liga" unicode="gg" horiz-adv-x="936" 
d="M94 -260.5c-27.333 13.667 -40.999 32.166 -40.999 55.499c0 15.333 4.33301 26.5 13 33.5s19 10.5 31 10.5c15.333 0 27 -3.66699 35 -11s16.333 -18.666 25 -33.999c10 -17.333 20.667 -30.666 32 -39.999s28 -14 50 -14c26.667 0 47.834 12 63.501 36
s23.5 67.333 23.5 130v454c19.333 5.33301 33.666 10.166 42.999 14.499s18.666 11.833 27.999 22.5c0.666992 0.666992 1.66699 1 3 1s2.83301 -0.5 4.5 -1.5s2.5 -2.16699 2.5 -3.5v-463c0 -63.333 -18.333 -114.333 -55 -153s-87.667 -58 -153 -58
c-42.667 0 -77.667 6.83301 -105 20.5zM107.001 8.49902c-22.667 13.667 -40.667 33.667 -54 60s-20 57.833 -20 94.5c0 47.333 11.167 88.833 33.5 124.5s51.333 63 87 82s72.834 28.5 111.501 28.5c24 0 46.667 -4 68 -12s39.666 -19.667 54.999 -35l-62 -61
c0 25.333 -8.33301 46.333 -25 63s-37.334 25 -62.001 25c-35.333 0 -63.333 -17 -84 -51s-31 -78 -31 -132c0 -50 9 -89.333 27 -118s43 -43 75 -43c35.333 0 74.333 19.333 117 58l8 -7c-29.333 -30.667 -56.666 -54.5 -81.999 -71.5s-54.666 -25.5 -87.999 -25.5
c-26.667 0 -51.334 6.83301 -74.001 20.5zM561.501 -260.501c-27 13.667 -40.499 32.166 -40.499 55.499c0 15.333 4.33301 26.5 13 33.5s19 10.5 31 10.5c15.333 0 27 -3.66699 35 -11s16.333 -18.666 25 -33.999c10 -17.333 20.667 -30.666 32 -39.999s28 -14 50 -14
c26.667 0 47.834 12 63.501 36s23.5 67.333 23.5 130v454c19.333 5.33301 33.666 10.166 42.999 14.499s18.666 11.833 27.999 22.5c0.666992 0.666992 1.66699 1 3 1s2.83301 -0.5 4.5 -1.5s2.5 -2.16699 2.5 -3.5v-463c0 -63.333 -18.333 -114.333 -55 -153
s-88 -58 -154 -58c-42.667 0 -77.5 6.83301 -104.5 20.5zM574.502 8.49805c-22.333 13.667 -40.1699 33.667 -53.5029 60s-20 57.833 -20 94.5c0 47.333 11.167 88.833 33.5 124.5s51.333 63 87 82s72.834 28.5 111.501 28.5c48.667 0 89.667 -15.667 123 -47l-62 -61
c0 25.333 -8.33301 46.333 -25 63s-37.334 25 -62.001 25c-35.333 0 -63.333 -17 -84 -51s-31 -78 -31 -132c0 -50 9 -89.333 27 -118s43 -43 75 -43c35.333 0 74.333 19.333 117 58l8 -7c-29.333 -30.667 -56.666 -54.5 -81.999 -71.5s-54.666 -25.5 -87.999 -25.5
c-27.333 0 -52.166 6.83301 -74.499 20.5z" />
    <glyph glyph-name="longs_b.liga" unicode="&#x17f;b" horiz-adv-x="816" 
d="M25 6c0 4 1.33301 5.99707 4 5.99707c18 0 31.333 1.83301 40 5.5s14.667 10.167 18 19.5s5 24 5 44v225c0 22 -4.33301 36 -13 42s-26.667 9 -54 9c-2 0 -3 3 -3 9c0 5.33301 1 8 3 8c24.667 0 41.667 3.16699 51 9.5s14 17.833 14 34.5c2.66699 205.333 77 308 223 308
c60.667 0 107.334 -16.333 140.001 -49l-58 -64c-13.333 30.667 -29.333 54.334 -48 71.001s-39 25 -61 25c-35.333 0 -63 -21.667 -83 -65s-30 -111.666 -30 -204.999v-358c0 -20.667 2.16699 -35.667 6.5 -45s12.666 -15.666 24.999 -18.999s32.5 -5 60.5 -5
c2.66699 0 4 -2 4 -6s-1.33301 -6 -4 -6l-67 1c-14.667 0.666992 -37 1 -67 1l-59 -1c-10 -0.666992 -24.333 -1 -43 -1c-2.66699 0 -4 2 -4 6zM338 -6.00293c-2.66699 0 -4.33203 1.33105 -4.99902 3.99805s0.333008 4.33398 3 5.00098
c17.333 11.333 30.166 24.5 38.499 39.5s12.5 35.167 12.5 60.5v553c20 0.666992 36.5 8.83398 49.5 24.501s19.5 32.167 19.5 49.5c0 2 2 3 6 3s6 -1 6 -3v-677l-128 -59h-2zM409.002 44.9951l52.002 73c16 -38 35.333 -66.167 58 -84.5s46.667 -27.5 72 -27.5
c32.667 0 57.667 14.667 75 44s26 71.333 26 126c0 58.667 -10.5 102.834 -31.5 132.501s-49.167 44.5 -84.5 44.5c-38 0 -78.333 -19.333 -121 -58l-9 8c27.333 29.333 54 52.666 80 69.999s56.667 26 92 26c29.333 0 56.5 -7 81.5 -21s45 -35 60 -63s22.5 -62 22.5 -102
c0 -48 -10.333 -89 -31 -123s-47.334 -59.667 -80.001 -77s-67.334 -26 -104.001 -26c-60 0 -112.667 19.333 -158 58z" />
    <glyph glyph-name="longs_h.liga" unicode="&#x17f;h" horiz-adv-x="813" 
d="M25 6c0 4 1.00293 5.99805 3.00293 5.99805c18.667 0 32.167 1.66699 40.5 5s14.166 9.83301 17.499 19.5s5 24.5 5 44.5l1 225c0 22 -4.33301 36 -13 42s-26.667 9 -54 9c-2 0 -3 3 -3 9c0 5.33301 1 8 3 8c24.667 0 41.667 3.16699 51 9.5s14 17.833 14 34.5
c2.66699 205.333 76.667 308 222 308c61.333 0 108.333 -16.333 141 -49l-58 -64c-13.333 30.667 -29.333 54.334 -48 71.001s-39 25 -61 25c-75.333 0 -113 -90 -113 -270v-358c0 -20.667 2.16699 -35.667 6.5 -45s12.666 -15.666 24.999 -18.999s32.5 -5 60.5 -5
c2.66699 0 4 -2 4 -6s-1.33301 -6 -4 -6l-68 1c-14.667 0.666992 -36.667 1 -66 1l-59 -1c-10.667 -0.666992 -25.334 -1 -44.001 -1c-2 0 -3 2 -3 6zM327.003 5.99805c0 4 0.998047 5.99902 2.99805 5.99902c22.667 0 37.834 4.66699 45.501 14s11.5 27.666 11.5 54.999
v575c20 0.666992 36.5 8.83398 49.5 24.501s19.5 32.167 19.5 49.5c0 2 2 3 6 3s6 -1 6 -3v-649c0 -27.333 3.83301 -45.666 11.5 -54.999s22.834 -14 45.501 -14c2 0 3 -2 3 -6s-1 -6 -3 -6c-16.667 0 -30 0.333008 -40 1l-58 1l-57 -1c-10 -0.666992 -23.333 -1 -40 -1
c-2 0 -3 2 -3 6zM596.001 5.99707c0 4 0.998047 6 2.99805 6c22.667 0 37.834 4.66699 45.501 14s11.5 27.666 11.5 54.999v149c0 37.333 -7 65 -21 83s-35.333 27 -64 27c-22 0 -44.167 -6.16699 -66.5 -18.5s-40.5 -28.5 -54.5 -48.5l-5 12
c53.333 74.667 111.666 112 174.999 112c36.667 0 65.334 -11 86.001 -33s31 -52 31 -90v-193c0 -27.333 3.83301 -45.666 11.5 -54.999s22.834 -14 45.501 -14c2 0 3 -2 3 -6s-1 -6 -3 -6c-16.667 0 -30 0.333008 -40 1l-58 1l-57 -1c-10 -0.666992 -23.333 -1 -40 -1
c-2 0 -3 2 -3 6z" />
    <glyph glyph-name="longs_i.liga" unicode="&#x17f;i" horiz-adv-x="558" 
d="M24 6c0 4 1.33301 5.99902 4 5.99902c18 0 31.5 1.83301 40.5 5.5s15.167 10.167 18.5 19.5s5 24 5 44v225c0 22 -4.33301 36 -13 42s-26.667 9 -54 9c-2 0 -3 3 -3 9c0 5.33301 1 8 3 8c24.667 0 41.667 3.16699 51 9.5s14 17.833 14 34.5c0 105.333 20 183 60 233
s97.333 75 172 75c40.667 0 72.667 -6.5 96 -19.5s35 -29.833 35 -50.5c0 -11.333 -3.83301 -20.5 -11.5 -27.5s-18.167 -10.5 -31.5 -10.5c-12.667 0 -22.667 3.5 -30 10.5s-15.333 17.833 -24 32.5c-9.33301 16 -18.333 27.833 -27 35.5s-21 11.5 -37 11.5
c-34.667 0 -63.167 -22.333 -85.5 -67s-33.5 -112 -33.5 -202v-358c0 -20.667 2 -35.667 6 -45s12 -15.666 24 -18.999s31.333 -5 58 -5c2.66699 0 4 -2 4 -6s-1.33301 -6 -4 -6l-66 1c-14 0.666992 -35.333 1 -64 1l-60 -1c-10.667 -0.666992 -25 -1 -43 -1
c-2.66699 0 -4 2 -4 6zM322 5.99902c0 4 0.666992 6 2 6c22.667 0 38 4.83301 46 14.5s12 27.834 12 54.501v182c0 23.333 -2.16699 40.166 -6.5 50.499s-12.166 15.5 -23.499 15.5c-8.66699 0 -22.334 -4.33301 -41.001 -13h-1c-2.66699 0 -4.66699 1.66699 -6 5
s-1 5.66602 1 6.99902l143 67c0.666992 0.666992 2 1 4 1c2.66699 0 5.5 -1.5 8.5 -4.5s4.5 -5.5 4.5 -7.5v-21c-1.33301 -28 -2 -61 -2 -99v-183c0 -27.333 3.83301 -45.666 11.5 -54.999s22.5 -14 44.5 -14c2.66699 0 4 -2 4 -6s-1.33301 -6 -4 -6
c-16.667 0 -29.667 0.333008 -39 1l-58 1l-57 -1c-10 -0.666992 -23.667 -1 -41 -1c-1.33301 0 -2 2 -2 6z" />
    <glyph glyph-name="longs_j.liga" unicode="&#x17f;j" horiz-adv-x="540" 
d="M24 6c0 4 1.33301 5.99902 4 5.99902c18 0 31.5 1.83301 40.5 5.5s15.167 10.167 18.5 19.5s5 24 5 44v225c0 22 -4.33301 36 -13 42s-26.667 9 -54 9c-2 0 -3 3 -3 9c0 5.33301 1 8 3 8c24.667 0 41.667 3.16699 51 9.5s14 17.833 14 34.5c0 105.333 20 183 60 233
s97.333 75 172 75c40.667 0 72.667 -6.5 96 -19.5s35 -29.833 35 -50.5c0 -11.333 -3.83301 -20.5 -11.5 -27.5s-18.167 -10.5 -31.5 -10.5c-12.667 0 -22.667 3.5 -30 10.5s-15.333 17.833 -24 32.5c-9.33301 16 -18.333 27.833 -27 35.5s-21 11.5 -37 11.5
c-34.667 0 -63.167 -22.333 -85.5 -67s-33.5 -112 -33.5 -202v-358c0 -20.667 2 -35.667 6 -45s12 -15.666 24 -18.999s31.333 -5 58 -5c2.66699 0 4 -2 4 -6s-1.33301 -6 -4 -6l-66 1c-14 0.666992 -35.333 1 -64 1l-60 -1c-10.667 -0.666992 -25 -1 -43 -1
c-2.66699 0 -4 2 -4 6zM289.5 -275.501c-1.66699 3.66699 -1.50098 5.83594 0.499023 6.50293c32 14 54.833 36.167 68.5 66.5s20.5 74.166 20.5 131.499v334c0 23.333 -2.16699 40.166 -6.5 50.499s-12.166 15.5 -23.499 15.5c-8.66699 0 -22.334 -4.33301 -41.001 -13h-1
c-2.66699 0 -4.66699 1.66699 -6 5s-1 5.66602 1 6.99902l144 67c0.666992 0.666992 1.66699 1 3 1c2.66699 0 5.5 -1.5 8.5 -4.5s4.5 -5.5 4.5 -7.5c0 -8 -0.333008 -15 -1 -21c-1.33301 -28 -2 -61 -2 -99v-312c0 -45.333 -5.16699 -82.333 -15.5 -111
s-27.166 -52.5 -50.499 -71.5s-56 -35.5 -98 -49.5c-2 -0.666992 -3.83301 0.833008 -5.5 4.5z" />
    <glyph glyph-name="longs_k.liga" unicode="&#x17f;k" horiz-adv-x="799" 
d="M25 6c0 4 1.33301 5.99707 4 5.99707c18 0 31.333 1.83301 40 5.5s14.667 10.167 18 19.5s5 24 5 44v225c0 22 -4.33301 36 -13 42s-26.667 9 -54 9c-2 0 -3 3 -3 9c0 5.33301 1 8 3 8c24.667 0 41.667 3.16699 51 9.5s14 17.833 14 34.5c2.66699 205.333 77 308 223 308
c60.667 0 107.334 -16.333 140.001 -49l-58 -64c-13.333 30.667 -29.333 54.334 -48 71.001s-39 25 -61 25c-35.333 0 -63 -21.667 -83 -65s-30 -111.666 -30 -204.999v-358c0 -20.667 2.16699 -35.667 6.5 -45s12.666 -15.666 24.999 -18.999s32.5 -5 60.5 -5
c2.66699 0 4 -2 4 -6s-1.33301 -6 -4 -6l-67 1c-14.667 0.666992 -37 1 -67 1l-59 -1c-10 -0.666992 -24.333 -1 -43 -1c-2.66699 0 -4 2 -4 6zM580 5.99707c0 4 0.666992 6 2 6c27.333 0 41 6.66699 41 20c0 6 -3 13 -9 21l-122 161l60 46l137 -179
c34.667 -46 71.667 -69 111 -69c1.33301 0 2 -2 2 -6s-0.666992 -6 -2 -6c-16.667 0 -30 0.333008 -40 1l-57 1l-76 -1c-10.667 -0.666992 -25.667 -1 -45 -1c-1.33301 0 -2 2 -2 6zM328 5.99707c0 4 0.999023 5.99707 2.99902 5.99707c22 0 37 4.83301 45 14.5
s12 27.834 12 54.501v575c20 0.666992 36.333 8.83398 49 24.501s19 32.167 19 49.5c0 2 2 3 6 3s6 -1 6 -3v-649c0 -27.333 3.83301 -45.666 11.5 -54.999s22.834 -14 45.501 -14c2.66699 0 4 -2 4 -6s-1.33301 -6 -4 -6c-16.667 0 -30 0.333008 -40 1l-57 1l-57 -1
c-10 -0.666992 -23.333 -1 -40 -1c-2 0 -3 2 -3 6zM432.999 169.994l141.999 129c18.667 16 28 31.667 28 47c0 8 -3.83301 14.667 -11.5 20s-18.5 8 -32.5 8c-2 0 -3 2 -3 6s1 6 3 6c18.667 0 33.334 -0.333008 44.001 -1l77 -1l70 1c9.33301 0.666992 22 1 38 1
c2 0 3 -2 3 -6s-1 -6 -3 -6c-27.333 0 -58.5 -6.83301 -93.5 -20.5s-67.167 -33.5 -96.5 -59.5l-159 -139z" />
    <glyph glyph-name="longs_l.liga" unicode="&#x17f;l" horiz-adv-x="553" 
d="M25 6c0 4 1.33398 5.99707 4.00098 5.99707c18 0 31.333 1.83301 40 5.5s14.667 10.167 18 19.5s5 24 5 44v225c0 22 -4.33301 36 -13 42s-26.667 9 -54 9c-2 0 -3 3 -3 9c0 5.33301 1 8 3 8c24.667 0 41.667 3.16699 51 9.5s14 17.833 14 34.5
c2.66699 106 22.667 183.833 60 233.5s91 74.5 161 74.5c62 0 109.333 -16.333 142 -49l-58 -64c-14 30.667 -30.333 54.334 -49 71.001s-39 25 -61 25c-34 0 -61.167 -21.667 -81.5 -65s-30.5 -111.666 -30.5 -204.999v-358c0 -20.667 2.16699 -35.667 6.5 -45
s12.666 -15.666 24.999 -18.999s32.5 -5 60.5 -5c2.66699 0 4 -2 4 -6s-1.33301 -6 -4 -6l-67 1c-14.667 0.666992 -37 1 -67 1l-59 -1c-10 -0.666992 -24.333 -1 -43 -1c-2.66699 0 -4 2 -4 6zM328.001 5.99707c0 4 0.999023 5.99902 2.99902 5.99902
c22.667 0 37.834 4.66699 45.501 14s11.5 27.666 11.5 54.999v575c20 0.666992 36.5 8.83398 49.5 24.501s19.5 32.167 19.5 49.5c0 2 2 3 6 3s6 -1 6 -3v-649c0 -27.333 4 -45.666 12 -54.999s23.333 -14 46 -14c2 0 3 -2 3 -6s-1 -6 -3 -6c-17.333 0 -31 0.333008 -41 1
l-57 1l-57 -1c-10 -0.666992 -23.667 -1 -41 -1c-2 0 -3 2 -3 6z" />
    <glyph glyph-name="longs_thorn.liga" unicode="&#x17f;&#xfe;" horiz-adv-x="807" 
d="M23 6c0 4 1.33496 5.99609 4.00195 5.99609c18.667 0 32.167 1.66699 40.5 5s14.166 9.83301 17.499 19.5s5 24.5 5 44.5v225c0 15.333 -1.83301 26.5 -5.5 33.5s-10 11.667 -19 14s-23.167 3.5 -42.5 3.5c-1.33301 0 -2.33301 0.833008 -3 2.5s-1 3.83398 -1 6.50098
c0 2 0.5 3.83301 1.5 5.5s1.83301 2.5 2.5 2.5c25.333 0 42.5 3.16699 51.5 9.5s13.833 17.833 14.5 34.5c4 205.333 77.667 308 221 308c61.333 0 108.333 -16.333 141 -49l-57 -64c-13.333 30.667 -29.333 54.334 -48 71.001s-39.334 25 -62.001 25
c-35.333 0 -62.833 -21.667 -82.5 -65s-29.5 -111.666 -29.5 -204.999v-358c0 -20.667 2 -35.667 6 -45s12.333 -15.666 25 -18.999s33 -5 61 -5c2 0 3 -2 3 -6s-1 -6 -3 -6l-68 1c-14.667 0.666992 -36.667 1 -66 1l-60 -1c-10.667 -0.666992 -25 -1 -43 -1
c-2.66699 0 -4 2 -4 6zM322.002 -269.004c0 4 0.666992 5.99902 2 5.99902c16.667 0 29 1.83301 37 5.5s13.5 10.167 16.5 19.5s4.5 24 4.5 44v850c20.667 0.666992 37.5 8.83398 50.5 24.501s19.5 32.167 19.5 49.5c0 2 2 3 6 3s6 -1 6 -3v-924
c0 -20 2.16699 -34.667 6.5 -44s12.833 -15.833 25.5 -19.5s32.667 -5.5 60 -5.5c1.33301 0 2 -2 2 -6s-0.666992 -6 -2 -6c-24.667 0 -44 0.333008 -58 1l-75 1l-59 -1c-10 -0.666992 -23.333 -1 -40 -1c-1.33301 0 -2 2 -2 6zM489.502 -6.00488
c-19 4.66699 -41.167 12.667 -66.5 24l28 61c18 -22.667 36.333 -39.667 55 -51s42.667 -17 72 -17c33.333 0 59.666 14.5 78.999 43.5s29 72.167 29 129.5c0 52 -12 92.5 -36 121.5s-54 43.5 -90 43.5c-24.667 0 -46.5 -6 -65.5 -18s-39.167 -30 -60.5 -54l-10 10
c34 38.667 66.667 67 98 85s63 27 95 27c28 0 54 -7.33301 78 -22s43.167 -36 57.5 -64s21.5 -60.667 21.5 -98c0 -52.667 -11.167 -96 -33.5 -130s-50.166 -58.833 -83.499 -74.5s-67.333 -23.5 -102 -23.5c-24.667 0 -46.5 2.33301 -65.5 7z" />
    <glyph glyph-name="longs_longs.liga" unicode="&#x17f;&#x17f;" horiz-adv-x="539" 
d="M25 6c0 4 1.33496 6 4.00195 6c18 0 31.333 1.83301 40 5.5s14.667 10.167 18 19.5s5 24 5 44v225c0 15.333 -1.83301 26.5 -5.5 33.5s-9.83398 11.667 -18.501 14s-22.667 3.5 -42 3.5c-1.33301 0 -2.33301 0.833008 -3 2.5s-1 3.83398 -1 6.50098
c0 2 0.5 3.83301 1.5 5.5s1.83301 2.5 2.5 2.5c24.667 0 41.667 3.16699 51 9.5s14 17.833 14 34.5c1.33301 89.333 23.5 157.166 66.5 203.499s101.167 69.5 174.5 69.5c27.333 0 52 -3.16699 74 -9.5s39 -13.833 51 -22.5l-43 -77
c-13.333 27.333 -30.166 49.166 -50.499 65.499s-41.5 24.5 -63.5 24.5c-38.667 0 -69.5 -19.333 -92.5 -58s-34.5 -97 -34.5 -175v-358c0 -20.667 1.66699 -35.667 5 -45s10.166 -15.666 20.499 -18.999s27.166 -5 50.499 -5c1.33301 0 2 -2 2 -6s-0.666992 -6 -2 -6l-60 1
c-12.667 0.666992 -32 1 -58 1l-59 -1c-10 -0.666992 -24.333 -1 -43 -1c-2.66699 0 -4 2 -4 6zM300.002 6c0 4 1.33496 5.99707 4.00195 5.99707c18.667 0 32.167 1.66699 40.5 5s14.166 9.83301 17.499 19.5s5 24.5 5 44.5v225c0 15.333 -1.83301 26.5 -5.5 33.5
s-10 11.667 -19 14s-23.167 3.5 -42.5 3.5c-1.33301 0 -2.33301 0.833008 -3 2.5s-1 3.83398 -1 6.50098c0 2 0.5 3.83301 1.5 5.5s1.83301 2.5 2.5 2.5c25.333 0 42.666 3.16699 51.999 9.5s14.333 17.833 15 34.5c3.33301 110 22.833 188.833 58.5 236.5
s88.834 71.5 159.501 71.5c34 0 60.5 -5.16699 79.5 -15.5s28.5 -24.166 28.5 -41.499c0 -13.333 -4.66699 -23.833 -14 -31.5s-20.333 -11.5 -33 -11.5s-22.334 3.33301 -29.001 10s-13.334 17 -20.001 31c-7.33301 14 -14.333 24.167 -21 30.5s-16.334 9.5 -29.001 9.5
c-30.667 0 -54.667 -21.667 -72 -65s-26 -111 -26 -203v-358c0 -20.667 1.83301 -35.667 5.5 -45s10.834 -15.666 21.501 -18.999s28.334 -5 53.001 -5c2 0 3 -2 3 -6s-1 -6 -3 -6l-62 1c-13.333 0.666992 -33.333 1 -60 1l-60 -1c-10.667 -0.666992 -25 -1 -43 -1
c-2.66699 0 -4 2 -4 6z" />
    <glyph glyph-name="longs_longs_b.liga" unicode="&#x17f;&#x17f;b" horiz-adv-x="1102" 
d="M25 6c0 4 1.33496 6 4.00195 6c18 0 31.333 1.83301 40 5.5s14.667 10.167 18 19.5s5 24 5 44v225c0 15.333 -1.83301 26.5 -5.5 33.5s-9.83398 11.667 -18.501 14s-22.667 3.5 -42 3.5c-1.33301 0 -2.33301 0.833008 -3 2.5s-1 3.83398 -1 6.50098
c0 2 0.5 3.83301 1.5 5.5s1.83301 2.5 2.5 2.5c24.667 0 41.667 3.16699 51 9.5s14 17.833 14 34.5c1.33301 89.333 23.5 157.166 66.5 203.499s101.167 69.5 174.5 69.5c27.333 0 52 -3.16699 74 -9.5s39 -13.833 51 -22.5l-43 -77
c-13.333 27.333 -30.166 49.166 -50.499 65.499s-41.5 24.5 -63.5 24.5c-38.667 0 -69.5 -19.333 -92.5 -58s-34.5 -97 -34.5 -175v-358c0 -20.667 1.66699 -35.667 5 -45s10.166 -15.666 20.499 -18.999s27.166 -5 50.499 -5c1.33301 0 2 -2 2 -6s-0.666992 -6 -2 -6l-60 1
c-12.667 0.666992 -32 1 -58 1l-59 -1c-10 -0.666992 -24.333 -1 -43 -1c-2.66699 0 -4 2 -4 6zM312.002 6c0 4 1.33301 5.99707 4 5.99707c18 0 31.333 1.83301 40 5.5s14.667 10.167 18 19.5s5 24 5 44v225c0 22 -4.33301 36 -13 42s-26.667 9 -54 9c-2 0 -3 3 -3 9
c0 5.33301 1 8 3 8c24.667 0 41.667 3.16699 51 9.5s14 17.833 14 34.5c2.66699 205.333 77 308 223 308c60.667 0 107.334 -16.333 140.001 -49l-58 -64c-13.333 30.667 -29.333 54.334 -48 71.001s-39 25 -61 25c-35.333 0 -63 -21.667 -83 -65s-30 -111.666 -30 -204.999
v-358c0 -20.667 2.16699 -35.667 6.5 -45s12.666 -15.666 24.999 -18.999s32.5 -5 60.5 -5c2.66699 0 4 -2 4 -6s-1.33301 -6 -4 -6l-67 1c-14.667 0.666992 -37 1 -67 1l-59 -1c-10 -0.666992 -24.333 -1 -43 -1c-2.66699 0 -4 2 -4 6zM625.002 -6.00293
c-2.66699 0 -4.33203 1.33105 -4.99902 3.99805s0.333008 4.33398 3 5.00098c17.333 11.333 30.166 24.5 38.499 39.5s12.5 35.167 12.5 60.5v553c20 0.666992 36.5 8.83398 49.5 24.501s19.5 32.167 19.5 49.5c0 2 2 3 6 3s6 -1 6 -3v-677l-128 -59h-2zM696.004 44.9951
l52.002 73c16 -38 35.333 -66.167 58 -84.5s46.667 -27.5 72 -27.5c32.667 0 57.667 14.667 75 44s26 71.333 26 126c0 58.667 -10.5 102.834 -31.5 132.501s-49.167 44.5 -84.5 44.5c-38 0 -78.333 -19.333 -121 -58l-9 8c27.333 29.333 54 52.666 80 69.999
s56.667 26 92 26c29.333 0 56.5 -7 81.5 -21s45 -35 60 -63s22.5 -62 22.5 -102c0 -48 -10.333 -89 -31 -123s-47.334 -59.667 -80.001 -77s-67.334 -26 -104.001 -26c-60 0 -112.667 19.333 -158 58z" />
    <glyph glyph-name="longs_longs_h.liga" unicode="&#x17f;&#x17f;h" horiz-adv-x="1100" 
d="M25 6c0 4 1.33496 6 4.00195 6c18 0 31.333 1.83301 40 5.5s14.667 10.167 18 19.5s5 24 5 44v225c0 15.333 -1.83301 26.5 -5.5 33.5s-9.83398 11.667 -18.501 14s-22.667 3.5 -42 3.5c-1.33301 0 -2.33301 0.833008 -3 2.5s-1 3.83398 -1 6.50098
c0 2 0.5 3.83301 1.5 5.5s1.83301 2.5 2.5 2.5c24.667 0 41.667 3.16699 51 9.5s14 17.833 14 34.5c1.33301 89.333 23.5 157.166 66.5 203.499s101.167 69.5 174.5 69.5c27.333 0 52 -3.16699 74 -9.5s39 -13.833 51 -22.5l-43 -77
c-13.333 27.333 -30.166 49.166 -50.499 65.499s-41.5 24.5 -63.5 24.5c-38.667 0 -69.5 -19.333 -92.5 -58s-34.5 -97 -34.5 -175v-358c0 -20.667 1.66699 -35.667 5 -45s10.166 -15.666 20.499 -18.999s27.166 -5 50.499 -5c1.33301 0 2 -2 2 -6s-0.666992 -6 -2 -6l-60 1
c-12.667 0.666992 -32 1 -58 1l-59 -1c-10 -0.666992 -24.333 -1 -43 -1c-2.66699 0 -4 2 -4 6zM312.002 6c0 4 1.00293 5.99805 3.00293 5.99805c18.667 0 32.167 1.66699 40.5 5s14.166 9.83301 17.499 19.5s5 24.5 5 44.5l1 225c0 22 -4.33301 36 -13 42s-26.667 9 -54 9
c-2 0 -3 3 -3 9c0 5.33301 1 8 3 8c24.667 0 41.667 3.16699 51 9.5s14 17.833 14 34.5c2.66699 205.333 76.667 308 222 308c61.333 0 108.333 -16.333 141 -49l-58 -64c-13.333 30.667 -29.333 54.334 -48 71.001s-39 25 -61 25c-75.333 0 -113 -90 -113 -270v-358
c0 -20.667 2.16699 -35.667 6.5 -45s12.666 -15.666 24.999 -18.999s32.5 -5 60.5 -5c2.66699 0 4 -2 4 -6s-1.33301 -6 -4 -6l-68 1c-14.667 0.666992 -36.667 1 -66 1l-59 -1c-10.667 -0.666992 -25.334 -1 -44.001 -1c-2 0 -3 2 -3 6zM614.005 5.99805
c0 4 0.998047 5.99902 2.99805 5.99902c22.667 0 37.834 4.66699 45.501 14s11.5 27.666 11.5 54.999v575c20 0.666992 36.5 8.83398 49.5 24.501s19.5 32.167 19.5 49.5c0 2 2 3 6 3s6 -1 6 -3v-649c0 -27.333 3.83301 -45.666 11.5 -54.999s22.834 -14 45.501 -14
c2 0 3 -2 3 -6s-1 -6 -3 -6c-16.667 0 -30 0.333008 -40 1l-58 1l-57 -1c-10 -0.666992 -23.333 -1 -40 -1c-2 0 -3 2 -3 6zM883.003 5.99707c0 4 0.998047 6 2.99805 6c22.667 0 37.834 4.66699 45.501 14s11.5 27.666 11.5 54.999v149c0 37.333 -7 65 -21 83
s-35.333 27 -64 27c-22 0 -44.167 -6.16699 -66.5 -18.5s-40.5 -28.5 -54.5 -48.5l-5 12c53.333 74.667 111.666 112 174.999 112c36.667 0 65.334 -11 86.001 -33s31 -52 31 -90v-193c0 -27.333 3.83301 -45.666 11.5 -54.999s22.834 -14 45.501 -14c2 0 3 -2 3 -6
s-1 -6 -3 -6c-16.667 0 -30 0.333008 -40 1l-58 1l-57 -1c-10 -0.666992 -23.333 -1 -40 -1c-2 0 -3 2 -3 6z" />
    <glyph glyph-name="longs_longs_i.liga" unicode="&#x17f;&#x17f;i" horiz-adv-x="838" 
d="M25 6c0 4 1.33496 6 4.00195 6c18 0 31.333 1.83301 40 5.5s14.667 10.167 18 19.5s5 24 5 44v225c0 15.333 -1.83301 26.5 -5.5 33.5s-9.83398 11.667 -18.501 14s-22.667 3.5 -42 3.5c-1.33301 0 -2.33301 0.833008 -3 2.5s-1 3.83398 -1 6.50098
c0 2 0.5 3.83301 1.5 5.5s1.83301 2.5 2.5 2.5c24.667 0 41.667 3.16699 51 9.5s14 17.833 14 34.5c1.33301 89.333 23.5 157.166 66.5 203.499s101.167 69.5 174.5 69.5c27.333 0 52 -3.16699 74 -9.5s39 -13.833 51 -22.5l-43 -77
c-13.333 27.333 -30.166 49.166 -50.499 65.499s-41.5 24.5 -63.5 24.5c-38.667 0 -69.5 -19.333 -92.5 -58s-34.5 -97 -34.5 -175v-358c0 -20.667 1.66699 -35.667 5 -45s10.166 -15.666 20.499 -18.999s27.166 -5 50.499 -5c1.33301 0 2 -2 2 -6s-0.666992 -6 -2 -6l-60 1
c-12.667 0.666992 -32 1 -58 1l-59 -1c-10 -0.666992 -24.333 -1 -43 -1c-2.66699 0 -4 2 -4 6zM305.002 6c0 4 1.33301 5.99902 4 5.99902c18 0 31.5 1.83301 40.5 5.5s15.167 10.167 18.5 19.5s5 24 5 44v225c0 22 -4.33301 36 -13 42s-26.667 9 -54 9c-2 0 -3 3 -3 9
c0 5.33301 1 8 3 8c24.667 0 41.667 3.16699 51 9.5s14 17.833 14 34.5c0 105.333 20 183 60 233s97.333 75 172 75c40.667 0 72.667 -6.5 96 -19.5s35 -29.833 35 -50.5c0 -11.333 -3.83301 -20.5 -11.5 -27.5s-18.167 -10.5 -31.5 -10.5c-12.667 0 -22.667 3.5 -30 10.5
s-15.333 17.833 -24 32.5c-9.33301 16 -18.333 27.833 -27 35.5s-21 11.5 -37 11.5c-34.667 0 -63.167 -22.333 -85.5 -67s-33.5 -112 -33.5 -202v-358c0 -20.667 2 -35.667 6 -45s12 -15.666 24 -18.999s31.333 -5 58 -5c2.66699 0 4 -2 4 -6s-1.33301 -6 -4 -6l-66 1
c-14 0.666992 -35.333 1 -64 1l-60 -1c-10.667 -0.666992 -25 -1 -43 -1c-2.66699 0 -4 2 -4 6zM603.002 5.99902c0 4 0.666992 6 2 6c22.667 0 38 4.83301 46 14.5s12 27.834 12 54.501v182c0 23.333 -2.16699 40.166 -6.5 50.499s-12.166 15.5 -23.499 15.5
c-8.66699 0 -22.334 -4.33301 -41.001 -13h-1c-2.66699 0 -4.66699 1.66699 -6 5s-1 5.66602 1 6.99902l143 67c0.666992 0.666992 2 1 4 1c2.66699 0 5.5 -1.5 8.5 -4.5s4.5 -5.5 4.5 -7.5v-21c-1.33301 -28 -2 -61 -2 -99v-183c0 -27.333 3.83301 -45.666 11.5 -54.999
s22.5 -14 44.5 -14c2.66699 0 4 -2 4 -6s-1.33301 -6 -4 -6c-16.667 0 -29.667 0.333008 -39 1l-58 1l-57 -1c-10 -0.666992 -23.667 -1 -41 -1c-1.33301 0 -2 2 -2 6z" />
    <glyph glyph-name="longs_longs_j.liga" unicode="&#x17f;&#x17f;j" horiz-adv-x="821" 
d="M25 6c0 4 1.33496 6 4.00195 6c18 0 31.333 1.83301 40 5.5s14.667 10.167 18 19.5s5 24 5 44v225c0 15.333 -1.83301 26.5 -5.5 33.5s-9.83398 11.667 -18.501 14s-22.667 3.5 -42 3.5c-1.33301 0 -2.33301 0.833008 -3 2.5s-1 3.83398 -1 6.50098
c0 2 0.5 3.83301 1.5 5.5s1.83301 2.5 2.5 2.5c24.667 0 41.667 3.16699 51 9.5s14 17.833 14 34.5c1.33301 89.333 23.5 157.166 66.5 203.499s101.167 69.5 174.5 69.5c27.333 0 52 -3.16699 74 -9.5s39 -13.833 51 -22.5l-43 -77
c-13.333 27.333 -30.166 49.166 -50.499 65.499s-41.5 24.5 -63.5 24.5c-38.667 0 -69.5 -19.333 -92.5 -58s-34.5 -97 -34.5 -175v-358c0 -20.667 1.66699 -35.667 5 -45s10.166 -15.666 20.499 -18.999s27.166 -5 50.499 -5c1.33301 0 2 -2 2 -6s-0.666992 -6 -2 -6l-60 1
c-12.667 0.666992 -32 1 -58 1l-59 -1c-10 -0.666992 -24.333 -1 -43 -1c-2.66699 0 -4 2 -4 6zM305.002 6c0 4 1.33301 5.99902 4 5.99902c18 0 31.5 1.83301 40.5 5.5s15.167 10.167 18.5 19.5s5 24 5 44v225c0 22 -4.33301 36 -13 42s-26.667 9 -54 9c-2 0 -3 3 -3 9
c0 5.33301 1 8 3 8c24.667 0 41.667 3.16699 51 9.5s14 17.833 14 34.5c0 105.333 20 183 60 233s97.333 75 172 75c40.667 0 72.667 -6.5 96 -19.5s35 -29.833 35 -50.5c0 -11.333 -3.83301 -20.5 -11.5 -27.5s-18.167 -10.5 -31.5 -10.5c-12.667 0 -22.667 3.5 -30 10.5
s-15.333 17.833 -24 32.5c-9.33301 16 -18.333 27.833 -27 35.5s-21 11.5 -37 11.5c-34.667 0 -63.167 -22.333 -85.5 -67s-33.5 -112 -33.5 -202v-358c0 -20.667 2 -35.667 6 -45s12 -15.666 24 -18.999s31.333 -5 58 -5c2.66699 0 4 -2 4 -6s-1.33301 -6 -4 -6l-66 1
c-14 0.666992 -35.333 1 -64 1l-60 -1c-10.667 -0.666992 -25 -1 -43 -1c-2.66699 0 -4 2 -4 6zM570.502 -275.501c-1.66699 3.66699 -1.50098 5.83594 0.499023 6.50293c32 14 54.833 36.167 68.5 66.5s20.5 74.166 20.5 131.499v334c0 23.333 -2.16699 40.166 -6.5 50.499
s-12.166 15.5 -23.499 15.5c-8.66699 0 -22.334 -4.33301 -41.001 -13h-1c-2.66699 0 -4.66699 1.66699 -6 5s-1 5.66602 1 6.99902l144 67c0.666992 0.666992 1.66699 1 3 1c2.66699 0 5.5 -1.5 8.5 -4.5s4.5 -5.5 4.5 -7.5c0 -8 -0.333008 -15 -1 -21
c-1.33301 -28 -2 -61 -2 -99v-312c0 -45.333 -5.16699 -82.333 -15.5 -111s-27.166 -52.5 -50.499 -71.5s-56 -35.5 -98 -49.5c-2 -0.666992 -3.83301 0.833008 -5.5 4.5z" />
    <glyph glyph-name="longs_longs_k.liga" unicode="&#x17f;&#x17f;k" horiz-adv-x="1080" 
d="M25 6c0 4 1.33496 6 4.00195 6c18 0 31.333 1.83301 40 5.5s14.667 10.167 18 19.5s5 24 5 44v225c0 15.333 -1.83301 26.5 -5.5 33.5s-9.83398 11.667 -18.501 14s-22.667 3.5 -42 3.5c-1.33301 0 -2.33301 0.833008 -3 2.5s-1 3.83398 -1 6.50098
c0 2 0.5 3.83301 1.5 5.5s1.83301 2.5 2.5 2.5c24.667 0 41.667 3.16699 51 9.5s14 17.833 14 34.5c1.33301 89.333 23.5 157.166 66.5 203.499s101.167 69.5 174.5 69.5c27.333 0 52 -3.16699 74 -9.5s39 -13.833 51 -22.5l-43 -77
c-13.333 27.333 -30.166 49.166 -50.499 65.499s-41.5 24.5 -63.5 24.5c-38.667 0 -69.5 -19.333 -92.5 -58s-34.5 -97 -34.5 -175v-358c0 -20.667 1.66699 -35.667 5 -45s10.166 -15.666 20.499 -18.999s27.166 -5 50.499 -5c1.33301 0 2 -2 2 -6s-0.666992 -6 -2 -6l-60 1
c-12.667 0.666992 -32 1 -58 1l-59 -1c-10 -0.666992 -24.333 -1 -43 -1c-2.66699 0 -4 2 -4 6zM306.002 6c0 4 1.33301 5.99707 4 5.99707c18 0 31.333 1.83301 40 5.5s14.667 10.167 18 19.5s5 24 5 44v225c0 22 -4.33301 36 -13 42s-26.667 9 -54 9c-2 0 -3 3 -3 9
c0 5.33301 1 8 3 8c24.667 0 41.667 3.16699 51 9.5s14 17.833 14 34.5c2.66699 205.333 77 308 223 308c60.667 0 107.334 -16.333 140.001 -49l-58 -64c-13.333 30.667 -29.333 54.334 -48 71.001s-39 25 -61 25c-35.333 0 -63 -21.667 -83 -65s-30 -111.666 -30 -204.999
v-358c0 -20.667 2.16699 -35.667 6.5 -45s12.666 -15.666 24.999 -18.999s32.5 -5 60.5 -5c2.66699 0 4 -2 4 -6s-1.33301 -6 -4 -6l-67 1c-14.667 0.666992 -37 1 -67 1l-59 -1c-10 -0.666992 -24.333 -1 -43 -1c-2.66699 0 -4 2 -4 6zM861.002 5.99707c0 4 0.666992 6 2 6
c27.333 0 41 6.66699 41 20c0 6 -3 13 -9 21l-122 161l60 46l137 -179c34.667 -46 71.667 -69 111 -69c1.33301 0 2 -2 2 -6s-0.666992 -6 -2 -6c-16.667 0 -30 0.333008 -40 1l-57 1l-76 -1c-10.667 -0.666992 -25.667 -1 -45 -1c-1.33301 0 -2 2 -2 6zM609.002 5.99707
c0 4 0.999023 5.99707 2.99902 5.99707c22 0 37 4.83301 45 14.5s12 27.834 12 54.501v575c20 0.666992 36.333 8.83398 49 24.501s19 32.167 19 49.5c0 2 2 3 6 3s6 -1 6 -3v-649c0 -27.333 3.83301 -45.666 11.5 -54.999s22.834 -14 45.501 -14c2.66699 0 4 -2 4 -6
s-1.33301 -6 -4 -6c-16.667 0 -30 0.333008 -40 1l-57 1l-57 -1c-10 -0.666992 -23.333 -1 -40 -1c-2 0 -3 2 -3 6zM714.001 169.994l141.999 129c18.667 16 28 31.667 28 47c0 8 -3.83301 14.667 -11.5 20s-18.5 8 -32.5 8c-2 0 -3 2 -3 6s1 6 3 6
c18.667 0 33.334 -0.333008 44.001 -1l77 -1l70 1c9.33301 0.666992 22 1 38 1c2 0 3 -2 3 -6s-1 -6 -3 -6c-27.333 0 -58.5 -6.83301 -93.5 -20.5s-67.167 -33.5 -96.5 -59.5l-159 -139z" />
    <glyph glyph-name="longs_longs_l.liga" unicode="&#x17f;&#x17f;l" horiz-adv-x="833" 
d="M25 6c0 4 1.33496 6 4.00195 6c18 0 31.333 1.83301 40 5.5s14.667 10.167 18 19.5s5 24 5 44v225c0 15.333 -1.83301 26.5 -5.5 33.5s-9.83398 11.667 -18.501 14s-22.667 3.5 -42 3.5c-1.33301 0 -2.33301 0.833008 -3 2.5s-1 3.83398 -1 6.50098
c0 2 0.5 3.83301 1.5 5.5s1.83301 2.5 2.5 2.5c24.667 0 41.667 3.16699 51 9.5s14 17.833 14 34.5c1.33301 89.333 23.5 157.166 66.5 203.499s101.167 69.5 174.5 69.5c27.333 0 52 -3.16699 74 -9.5s39 -13.833 51 -22.5l-43 -77
c-13.333 27.333 -30.166 49.166 -50.499 65.499s-41.5 24.5 -63.5 24.5c-38.667 0 -69.5 -19.333 -92.5 -58s-34.5 -97 -34.5 -175v-358c0 -20.667 1.66699 -35.667 5 -45s10.166 -15.666 20.499 -18.999s27.166 -5 50.499 -5c1.33301 0 2 -2 2 -6s-0.666992 -6 -2 -6l-60 1
c-12.667 0.666992 -32 1 -58 1l-59 -1c-10 -0.666992 -24.333 -1 -43 -1c-2.66699 0 -4 2 -4 6zM306.002 6c0 4 1.33398 5.99707 4.00098 5.99707c18 0 31.333 1.83301 40 5.5s14.667 10.167 18 19.5s5 24 5 44v225c0 22 -4.33301 36 -13 42s-26.667 9 -54 9c-2 0 -3 3 -3 9
c0 5.33301 1 8 3 8c24.667 0 41.667 3.16699 51 9.5s14 17.833 14 34.5c2.66699 106 22.667 183.833 60 233.5s91 74.5 161 74.5c62 0 109.333 -16.333 142 -49l-58 -64c-14 30.667 -30.333 54.334 -49 71.001s-39 25 -61 25c-34 0 -61.167 -21.667 -81.5 -65
s-30.5 -111.666 -30.5 -204.999v-358c0 -20.667 2.16699 -35.667 6.5 -45s12.666 -15.666 24.999 -18.999s32.5 -5 60.5 -5c2.66699 0 4 -2 4 -6s-1.33301 -6 -4 -6l-67 1c-14.667 0.666992 -37 1 -67 1l-59 -1c-10 -0.666992 -24.333 -1 -43 -1c-2.66699 0 -4 2 -4 6z
M609.003 5.99707c0 4 0.999023 5.99902 2.99902 5.99902c22.667 0 37.834 4.66699 45.501 14s11.5 27.666 11.5 54.999v575c20 0.666992 36.5 8.83398 49.5 24.501s19.5 32.167 19.5 49.5c0 2 2 3 6 3s6 -1 6 -3v-649c0 -27.333 4 -45.666 12 -54.999s23.333 -14 46 -14
c2 0 3 -2 3 -6s-1 -6 -3 -6c-17.333 0 -31 0.333008 -41 1l-57 1l-57 -1c-10 -0.666992 -23.667 -1 -41 -1c-2 0 -3 2 -3 6z" />
    <glyph glyph-name="longs_longs_thorn.liga" unicode="&#x17f;&#x17f;&#xfe;" horiz-adv-x="1085" 
d="M22 6c0 4 1.33594 6 4.00293 6c18 0 31.333 1.83301 40 5.5s14.667 10.167 18 19.5s5 24 5 44v225c0 15.333 -1.83301 26.5 -5.5 33.5s-9.83398 11.667 -18.501 14s-22.667 3.5 -42 3.5c-1.33301 0 -2.33301 0.833008 -3 2.5s-1 3.83398 -1 6.50098
c0 2 0.5 3.83301 1.5 5.5s1.83301 2.5 2.5 2.5c24.667 0 41.667 3.16699 51 9.5s14.333 17.833 15 34.5c0.666992 89.333 22.5 157.166 65.5 203.499s101.167 69.5 174.5 69.5c27.333 0 52 -3.16699 74 -9.5s39 -13.833 51 -22.5l-43 -77
c-13.333 27.333 -30.166 49.166 -50.499 65.499s-41.5 24.5 -63.5 24.5c-38.667 0 -69.5 -19.333 -92.5 -58s-34.5 -97 -34.5 -175v-358c0 -20.667 1.66699 -35.667 5 -45s10.166 -15.666 20.499 -18.999s27.166 -5 50.499 -5c1.33301 0 2 -2 2 -6s-0.666992 -6 -2 -6l-60 1
c-12.667 0.666992 -32 1 -58 1l-58 -1c-10.667 -0.666992 -25.334 -1 -44.001 -1c-2.66699 0 -4 2 -4 6zM302.003 6c0 4 1.00195 5.99707 3.00195 5.99707c18.667 0 32.167 1.66699 40.5 5s14.166 9.83301 17.499 19.5s5 24.5 5 44.5v225c0 15.333 -1.83301 26.5 -5.5 33.5
s-10 11.667 -19 14s-23.167 3.5 -42.5 3.5c-2 0 -3 3 -3 9c0 5.33301 1 8 3 8c25.333 0 42.5 3.16699 51.5 9.5s13.833 17.833 14.5 34.5c4 205.333 77.667 308 221 308c61.333 0 108.333 -16.333 141 -49l-57 -64c-13.333 30.667 -29.333 54.334 -48 71.001
s-39.334 25 -62.001 25c-35.333 0 -62.833 -21.667 -82.5 -65s-29.5 -111.666 -29.5 -204.999v-358c0 -20.667 2 -35.667 6 -45s12.333 -15.666 25 -18.999s33 -5 61 -5c2 0 3 -2 3 -6s-1 -6 -3 -6l-68 1c-14.667 0.666992 -36.667 1 -66 1l-60 -1
c-10.667 -0.666992 -25 -1 -43 -1c-2 0 -3 2 -3 6zM600.005 -269.003c0 4 0.666992 5.99902 2 5.99902c16.667 0 29 1.83301 37 5.5s13.5 10.167 16.5 19.5s4.5 24 4.5 44v850c20.667 0.666992 37.5 8.83398 50.5 24.501s19.5 32.167 19.5 49.5c0 2 2 3 6 3s6 -1 6 -3v-924
c0 -20 2.16699 -34.667 6.5 -44s12.833 -15.833 25.5 -19.5s32.667 -5.5 60 -5.5c1.33301 0 2 -2 2 -6s-0.666992 -6 -2 -6c-24.667 0 -43.667 0.333008 -57 1l-76 1l-59 -1c-10 -0.666992 -23.333 -1 -40 -1c-1.33301 0 -2 2 -2 6zM767.505 -6.00391
c-19 4.66699 -41.167 12.667 -66.5 24l28 61c18 -22.667 36.333 -39.667 55 -51s42.667 -17 72 -17c33.333 0 59.666 14.5 78.999 43.5s29 72.167 29 129.5c0 52 -12 92.5 -36 121.5s-54 43.5 -90 43.5c-24.667 0 -46.5 -6 -65.5 -18s-39.167 -30 -60.5 -54l-10 10
c34 38.667 66.667 67 98 85s63 27 95 27c28 0 54 -7.33301 78 -22s43.167 -36 57.5 -64s21.5 -60.667 21.5 -98c0 -52.667 -11.167 -96 -33.5 -130s-50.166 -58.833 -83.499 -74.5s-67.333 -23.5 -102 -23.5c-24.667 0 -46.5 2.33301 -65.5 7z" />
    <glyph glyph-name="fi.liga" unicode="fi" horiz-adv-x="569" 
d="M25 6c0 4 1.33496 5.99902 4.00195 5.99902c18 0 31.333 1.83301 40 5.5s14.667 10.167 18 19.5s5 24 5 44v225c0 22 -4.33301 36 -13 42s-26.667 9 -54 9c-2 0 -3 3 -3 9c0 5.33301 1 8 3 8c24.667 0 41.5 3.16699 50.5 9.5s13.833 17.833 14.5 34.5
c4 107.333 27 185.5 69 234.5s101.667 73.5 179 73.5c42 0 75.667 -7.16699 101 -21.5s38 -32.5 38 -54.5c0 -12 -3.66699 -21.5 -11 -28.5s-18 -10.5 -32 -10.5c-12.667 0 -22.834 3.66699 -30.501 11s-15.834 18 -24.501 32c-9.33301 17.333 -19.166 30.5 -29.499 39.5
s-25.166 13.5 -44.499 13.5c-38.667 0 -70.334 -22.167 -95.001 -66.5s-37 -111.5 -37 -201.5v-358c0 -20.667 2.16699 -35.667 6.5 -45s12.666 -15.666 24.999 -18.999s32.5 -5 60.5 -5c2.66699 0 4 -2 4 -6s-1.33301 -6 -4 -6l-67 1c-14.667 0.666992 -37 1 -67 1l-59 -1
c-10 -0.666992 -24.333 -1 -43 -1c-2.66699 0 -4 2 -4 6zM140.002 352.999v23c39.333 0 89 3.33301 149 10c2 0 3.66699 -2.5 5 -7.5s2 -10.5 2 -16.5c0 -6.66699 -1.16699 -13.167 -3.5 -19.5s-4.5 -8.83301 -6.5 -7.5c-47.333 12 -96 18 -146 18zM344.002 5.99902
c0 4 0.998047 6.00195 2.99805 6.00195c22.667 0 37.834 4.66699 45.501 14s11.5 27.666 11.5 54.999v182c0 23.333 -2.16699 40.166 -6.5 50.499s-12.166 15.5 -23.499 15.5c-8.66699 0 -22.334 -4.33301 -41.001 -13h-1c-2.66699 0 -4.66699 1.66699 -6 5
s-1 5.66602 1 6.99902l144 67c0.666992 0.666992 1.66699 1 3 1c2.66699 0 5.5 -1.5 8.5 -4.5s4.5 -5.5 4.5 -7.5c0 -8 -0.333008 -15 -1 -21c-1.33301 -28 -2 -61 -2 -99v-183c0 -27.333 3.83301 -45.666 11.5 -54.999s22.834 -14 45.501 -14c2.66699 0 4 -2 4 -6
s-1.33301 -6 -4 -6c-16.667 0 -30 0.333008 -40 1l-57 1l-57 -1c-10 -0.666992 -23.333 -1 -40 -1c-2 0 -3 2 -3 6z" />
    <glyph glyph-name="fl.liga" unicode="fl" horiz-adv-x="567" 
d="M25 6c0 4 1.33496 5.99707 4.00195 5.99707c18 0 31.333 1.83301 40 5.5s14.667 10.167 18 19.5s5 24 5 44v225c0 22 -4.33301 36 -13 42s-26.667 9 -54 9c-2 0 -3 3 -3 9c0 5.33301 1 8 3 8c24.667 0 41.5 3.16699 50.5 9.5s13.833 17.833 14.5 34.5
c3.33301 108.667 23.5 187.167 60.5 235.5s92.5 72.5 166.5 72.5c65.333 0 115.333 -16.333 150 -49l-56 -64c-15.333 30.667 -33.5 54.334 -54.5 71.001s-43.167 25 -66.5 25c-36.667 0 -65.334 -21.667 -86.001 -65s-31 -111.666 -31 -204.999v-358
c0 -20.667 2.16699 -35.667 6.5 -45s12.666 -15.666 24.999 -18.999s32.5 -5 60.5 -5c2.66699 0 4 -2 4 -6s-1.33301 -6 -4 -6l-67 1c-14.667 0.666992 -37 1 -67 1l-59 -1c-10 -0.666992 -24.333 -1 -43 -1c-2.66699 0 -4 2 -4 6zM140.002 352.997v23
c39.333 0 89 3.33301 149 10c2 0 3.66699 -2.5 5 -7.5s2 -10.5 2 -16.5c0 -6.66699 -1.16699 -13.167 -3.5 -19.5s-4.5 -8.83301 -6.5 -7.5c-47.333 12 -96 18 -146 18zM343.002 5.99707c0 4 0.998047 6 2.99805 6c22.667 0 37.834 4.66699 45.501 14
s11.5 27.666 11.5 54.999v575c20 0.666992 36.667 9 50 25s20 32.333 20 49c0 2 2 3 6 3s6 -1 6 -3v-649c0 -27.333 3.83301 -45.666 11.5 -54.999s22.834 -14 45.501 -14c2 0 3 -2 3 -6s-1 -6 -3 -6c-16.667 0 -30 0.333008 -40 1l-59 1l-56 -1
c-10 -0.666992 -23.667 -1 -41 -1c-2 0 -3 2 -3 6z" />
    <glyph glyph-name=".notdef" horiz-adv-x="501" 
d="M94 725h317v-1000h-317v1000zM233 626v-38h-66v-32h166v32h-66v38h66v32h-165v-32h65zM333 426v34h-66v69h-100v-103h166zM200 495h33v-35h-33v35zM233 365v-36h-66v-34h100v70h66v33h-166v-33h66zM167 273v-34h166v99h-32v-65h-134zM267 160v24h34v-48h-101v80h-33v-113
h166v113h-100v-56h34zM333 -70v113h-166v-113h166zM200 11h101v-48h-101v48zM237 -126l-70 -47v-33h166v33h-101l69 47h32v34h-166v-34h70z" />
    <glyph glyph-name="space" unicode=" " horiz-adv-x="234" 
 />
    <glyph glyph-name="exclam" unicode="!" horiz-adv-x="258" 
d="M86 626c13.333 2 27.665 2.99805 42.998 2.99805c14.667 0 28.834 -1.16699 42.501 -3.5s20.167 -5.16602 19.5 -8.49902c-13.333 -52 -23.166 -108 -29.499 -168s-12.833 -136 -19.5 -228l-2 -32c0 -2.66699 -4.33301 -4 -13 -4c-9.33301 0 -14 1.33301 -14 4
c-4.66699 93.333 -10.167 173.833 -16.5 241.5s-16.166 129.834 -29.499 186.501c-0.666992 4 5.66602 7 18.999 9zM82.999 3.99805c-10 10 -15 23.333 -15 40c0 16 5 28.667 15 38s23.333 14 40 14c17.333 0 30.666 -4.66699 39.999 -14s14 -22 14 -38
c0 -17.333 -4.66699 -30.833 -14 -40.5s-22.666 -14.5 -39.999 -14.5c-16.667 0 -30 5 -40 15z" />
    <glyph glyph-name="quotedbl" unicode="&#x22;" horiz-adv-x="295" 
d="M62.5 629c20.333 7.33301 38.167 11.001 53.5 11.001c10 0 14.667 -2.33301 14 -7l-59 -267c-1.33301 -1.33301 -4.16602 -2.33301 -8.49902 -3s-6.5 0 -6.5 2l-23 242c-0.666992 7.33301 9.16602 14.666 29.499 21.999zM211.001 629.001
c20 7.33301 37.666 11.001 52.999 11.001c10.667 0 15.667 -2.33301 15 -7l-59 -267c-1.33301 -1.33301 -4.16602 -2.33301 -8.49902 -3s-6.5 0 -6.5 2l-23 242c-0.666992 7.33301 9 14.666 29 21.999z" />
    <glyph glyph-name="numbersign" unicode="#" horiz-adv-x="526" 
d="M123 -82.5c-16 2.33301 -23.332 4.83594 -21.999 7.50293l99 557c0 3.33301 7.66699 3.16602 23 -0.500977s22.666 -6.83398 21.999 -9.50098l-98 -554c0 -2.66699 -8 -2.83398 -24 -0.500977zM310.001 -82.4971c-16 2.33301 -23.332 4.83594 -21.999 7.50293l99 557
c0 3.33301 7.66699 3.16602 23 -0.500977s22.666 -6.83398 21.999 -9.50098l-98 -554c0 -2.66699 -8 -2.83398 -24 -0.500977zM59.502 82.5059c-1 5 -1.5 10.501 -1.5 16.501c0 5.33301 0.333008 10.166 1 14.499s1.66699 6.5 3 6.5h366c1.33301 0 2.5 -2.33301 3.5 -7
s1.5 -9.66699 1.5 -15c0 -6 -0.5 -11.333 -1.5 -16s-2.16699 -7 -3.5 -7h-365c-1.33301 0 -2.5 2.5 -3.5 7.5zM94.502 281.507c-1 5 -1.5 10.5 -1.5 16.5c0 4.66699 0.5 9.16699 1.5 13.5s1.83301 6.5 2.5 6.5h366c1.33301 0 2.5 -2.33301 3.5 -7s1.5 -9.66699 1.5 -15
s-0.5 -10.333 -1.5 -15s-2.16699 -7 -3.5 -7h-365c-1.33301 0 -2.5 2.5 -3.5 7.5z" />
    <glyph glyph-name="dollar" unicode="$" horiz-adv-x="516" 
d="M262 725c2.66699 1.33301 5.66699 2 9 2s6.33301 -0.666992 9 -2s4 -3.33301 4 -6v-827c0 -4.66699 -4.33301 -7 -13 -7s-13 2.33301 -13 7v827c0 2.66699 1.33301 4.66699 4 6zM182.5 453.5c12.333 -19 27.5 -35.334 45.5 -49.001s42.667 -30.5 74 -50.5
c34 -21.333 60.833 -39.666 80.5 -54.999s36.5 -34.166 50.5 -56.499s21 -48.5 21 -78.5c0 -34 -8.83301 -64.333 -26.5 -91s-42.667 -47.5 -75 -62.5s-69.166 -22.5 -110.499 -22.5c-28 0 -56.833 3.66699 -86.5 11s-52.167 16.333 -67.5 27c-6 4 -9.33301 10.333 -10 19
l-6 151v1c0 2.66699 1.66699 4.16699 5 4.5s5.33301 -0.833984 6 -3.50098c22 -54.667 47.167 -99.667 75.5 -135s64.166 -53 107.499 -53c29.333 0 53.666 7.83301 72.999 23.5s29 41.834 29 78.501c0 29.333 -6.5 55 -19.5 77s-29 40.333 -48 55s-44.833 32.667 -77.5 54
c-32 20.667 -57 38.167 -75 52.5s-33.333 32 -46 53s-19 45.5 -19 73.5c0 34.667 9.66699 64 29 88s44.5 41.833 75.5 53.5s63.5 17.5 97.5 17.5c22 0 44.333 -2.16699 67 -6.5s42 -9.83301 58 -16.5c10 -4 15 -10.333 15 -19l2 -135
c0 -2.66699 -1.5 -4.33398 -4.5 -5.00098s-5.16699 0 -6.5 2c-13.333 40.667 -31.166 77.5 -53.499 110.5s-55.833 49.5 -100.5 49.5c-30 0 -53.833 -8.83301 -71.5 -26.5s-26.5 -41.167 -26.5 -70.5c0 -24.667 6.16699 -46.5 18.5 -65.5z" />
    <glyph glyph-name="percent" unicode="%" horiz-adv-x="574" 
d="M57.5 340.5c-24.333 25 -36.5 55.833 -36.5 92.5c0 35.333 12.167 65.333 36.5 90s55.166 37 92.499 37c36.667 0 67 -12.5 91 -37.5s36 -55.833 36 -92.5c0 -36 -12 -66.167 -36 -90.5s-54.333 -36.5 -91 -36.5c-37.333 0 -68.166 12.5 -92.499 37.5zM194 344
c6 18 9 44.333 9 79c0 40 -5 70.5 -15 91.5s-24.667 31.5 -44 31.5s-32.5 -9.66699 -39.5 -29s-10.5 -46.333 -10.5 -81c0 -79.333 21 -119 63 -119c18.667 0 31 9 37 27zM334.5 32.5c-24.333 25 -36.502 55.833 -36.502 92.5c0 35.333 12.333 65.5 37 90.5
s55.334 37.5 92.001 37.5s67 -12.667 91 -38s36 -56 36 -92s-12 -66.333 -36 -91s-54.333 -37 -91 -37c-37.333 0 -68.166 12.5 -92.499 37.5zM470.998 36.5c6 17.667 9 44.167 9 79.5c0 40 -5 70.333 -15 91s-24.667 31 -44 31c-18.667 0 -31.5 -9.66699 -38.5 -29
s-10.5 -46 -10.5 -80c0 -79.333 20.667 -119 62 -119c18.667 0 31 8.83301 37 26.5zM92.998 -1c-9.33301 6 -13.334 10 -12.001 12l370 544c2 2 7.66699 -0.333008 17 -7s13.333 -10.667 12 -12l-371 -543c-1.33301 -2 -6.66602 0 -15.999 6z" />
    <glyph glyph-name="ampersand" unicode="&#x26;" horiz-adv-x="709" 
d="M339.5 596c-14.333 16.667 -33.168 25.0039 -56.501 25.0039c-40.667 0 -61 -26.667 -61 -80c0 -67.333 27.667 -137.666 83 -210.999s124 -141 206 -203c44 -32.667 83.667 -58.834 119 -78.501s63.666 -31.834 84.999 -36.501
c2.66699 -0.666992 3.83398 -2.83398 3.50098 -6.50098s-1.5 -5.5 -3.5 -5.5h-144c-28.667 0 -82.334 32 -161.001 96c-49.333 39.333 -96.166 82.833 -140.499 130.5s-77.833 92.834 -100.5 135.501c-9.33301 19.333 -16.5 37.5 -21.5 54.5s-7.5 34.833 -7.5 53.5
c0 33.333 7.5 63.333 22.5 90s36.333 47.667 64 63s59.834 23 96.501 23c38 0 68.833 -8.33301 92.5 -25s35.5 -41.667 35.5 -75c0 -25.333 -6.66699 -48.333 -20 -69s-29.833 -38.667 -49.5 -54s-45.834 -34 -78.501 -56c-33.333 -22 -59.833 -41 -79.5 -57
s-36.334 -34.667 -50.001 -56s-20.5 -45 -20.5 -71c0 -26.667 7.33301 -51.834 22 -75.501s35.667 -42.5 63 -56.5s58.666 -21 93.999 -21c56.667 0 100.5 19 131.5 57s46.5 88.667 46.5 152c0 34 -5.83301 58.833 -17.5 74.5s-31.834 23.5 -60.501 23.5
c-1.33301 0 -2.16602 2 -2.49902 6s0.5 6 2.5 6l228 1c2.66699 0 4 -2 4 -6s-1.33301 -6 -4 -6c-20.667 0 -36.167 -2.16699 -46.5 -6.5s-17.833 -11 -22.5 -20s-10 -23.5 -16 -43.5c-13.333 -48 -30.166 -91.833 -50.499 -131.5s-51.666 -74.334 -93.999 -104.001
s-97.166 -44.5 -164.499 -44.5c-44.667 0 -82 6.83301 -112 20.5s-52.333 31.5 -67 53.5s-22 45.667 -22 71c0 24.667 6.33301 47.5 19 68.5s28.5 39.833 47.5 56.5s44.167 36.667 75.5 60c34 25.333 61.167 47.166 81.5 65.499s37.5 39.5 51.5 63.5s21 50.667 21 80
s-7.16699 52.333 -21.5 69z" />
    <glyph glyph-name="quotesingle" unicode="'" horiz-adv-x="147" 
d="M62.5 629c20.333 7.33301 38.167 11.001 53.5 11.001c10 0 14.667 -2.33301 14 -7l-59 -267c-1.33301 -1.33301 -4.16602 -2.33301 -8.49902 -3s-6.5 0 -6.5 2l-23 242c-0.666992 7.33301 9.16602 14.666 29.499 21.999z" />
    <glyph glyph-name="parenleft" unicode="(" horiz-adv-x="309" 
d="M110 559c39.333 75.333 94 130.667 164 166c1.33301 0.666992 2.66602 0.166992 3.99902 -1.5s1.33301 -3.16699 0 -4.5c-44.667 -46.667 -77.334 -104.5 -98.001 -173.5s-31 -149.5 -31 -241.5s10.333 -172.5 31 -241.5s53.334 -126.833 98.001 -173.5
c1.33301 -0.666992 1.33301 -2 0 -4s-2.66602 -2.66699 -3.99902 -2c-70 36 -124.667 91.5 -164 166.5s-59 159.833 -59 254.5s19.667 179.667 59 255z" />
    <glyph glyph-name="parenright" unicode=")" horiz-adv-x="309" 
d="M199 49c-39.333 -75.333 -94 -130.667 -164 -166c-1.33301 -0.666992 -2.66602 -0.166992 -3.99902 1.5s-1.33301 3.16699 0 4.5c44.667 46.667 77.334 104.5 98.001 173.5s31 149.5 31 241.5s-10.333 172.5 -31 241.5s-53.334 126.833 -98.001 173.5
c-1.33301 0.666992 -1.33301 2 0 4s2.66602 2.66699 3.99902 2c70 -36 124.667 -91.5 164 -166.5s59 -159.833 59 -254.5s-19.667 -179.667 -59 -255z" />
    <glyph glyph-name="asterisk" unicode="*" horiz-adv-x="448" 
d="M142 368c-8.66699 0 -20.6689 3 -36.002 9s-28.666 12.5 -39.999 19.5s-15.666 11.167 -12.999 12.5l153 82l2 1c2 0 3.83301 -0.833008 5.5 -2.5s2.16699 -3.16699 1.5 -4.5l-63 -113c-0.666992 -2.66699 -4 -4 -10 -4zM234.998 486.5
c2.66699 2.33301 4.66602 2.83496 5.99902 1.50195l89 -95c4 -4.66699 0.833008 -14.334 -9.5 -29.001s-22.166 -28.167 -35.499 -40.5s-20.333 -16.5 -21 -12.5l-32 170c-0.666992 1.33301 0.333008 3.16602 3 5.49902zM65.9971 569.002
c0 16.667 1.83203 33.5 5.49902 50.5s6.83398 24.167 9.50098 21.5l126 -121c1.33301 -0.666992 1.5 -2.5 0.5 -5.5s-2.16699 -4.16699 -3.5 -3.5l-128 24c-6.66699 0.666992 -10 12 -10 34zM246.996 508.002c-0.666992 2.66699 -0.333008 4.33301 1 5l117 56
c6 2.66699 14.5 -3.33301 25.5 -18s20.333 -30.167 28 -46.5s9.5 -24.5 5.5 -24.5l-174 24c-1.33301 0 -2.33301 1.33301 -3 4zM243.997 678.501c23.333 7 42.6689 10.5 58.002 10.5c7.33301 0 10.666 -1.33301 9.99902 -4l-76 -156c-0.666992 -2 -2.5 -3 -5.5 -3
s-4.5 1 -4.5 3l-16 128c-0.666992 7.33301 10.666 14.5 33.999 21.5z" />
    <glyph glyph-name="plus" unicode="+" horiz-adv-x="398" 
d="M30.5 174.5c-1 5 -1.5 10.501 -1.5 16.501c0 5.33301 0.333008 10.166 1 14.499s1.66699 6.5 3 6.5h331c1.33301 0 2.5 -2.33301 3.5 -7s1.5 -9.66699 1.5 -15c0 -6 -0.5 -11.333 -1.5 -16s-2.16699 -7 -3.5 -7h-330c-1.33301 0 -2.5 2.5 -3.5 7.5zM213.5 21.501
c-5.66699 -1 -11.5 -1.5 -17.5 -1.5c-13.333 0 -20 1 -20 3v331c0 1.33301 2.5 2.5 7.5 3.5s10.167 1.5 15.5 1.5c6 0 11.333 -0.5 16 -1.5s7 -2.16699 7 -3.5v-329c0 -1.33301 -2.83301 -2.5 -8.5 -3.5z" />
    <glyph glyph-name="comma" unicode="," horiz-adv-x="222" 
d="M153.5 70.5c12.333 -15.667 18.5 -39.1699 18.5 -70.5029c0 -33.333 -7.83301 -65.166 -23.5 -95.499s-38.167 -60.5 -67.5 -90.5c-0.666992 -0.666992 -1.66699 -1 -3 -1c-2 0 -3.5 0.833008 -4.5 2.5s-1.16699 3.5 -0.5 5.5c16.667 21.333 28.167 42.5 34.5 63.5
s9.5 43.833 9.5 68.5c0 18.667 -2 32.834 -6 42.501s-9.66699 17.834 -17 24.501l37 7c0.666992 -11.333 -2.5 -20 -9.5 -26s-16.5 -9 -28.5 -9c-16 0 -28.333 4.5 -37 13.5s-13 21.167 -13 36.5c0 16.667 5.16699 29.5 15.5 38.5s24.5 13.5 42.5 13.5
c22.667 0 40.167 -7.83301 52.5 -23.5z" />
    <glyph glyph-name="hyphen" unicode="-" horiz-adv-x="323" 
d="M28.5 166.5c-1 6.33301 -1.5 12.833 -1.5 19.5c0 14.667 1 22 3 22l261 47c1.33301 0.666992 2.5 -1.66602 3.5 -6.99902s1.5 -11 1.5 -17s-0.5 -11.667 -1.5 -17s-2.16699 -8.33301 -3.5 -9l-259 -47c-1.33301 -0.666992 -2.5 2.16602 -3.5 8.49902z" />
    <glyph glyph-name="period" unicode="." horiz-adv-x="204" 
d="M63 4c-10 10 -15 23.333 -15 40c0 16 5 28.667 15 38s23.333 14 40 14c17.333 0 30.666 -4.66699 39.999 -14s14 -22 14 -38c0 -17.333 -4.66699 -30.833 -14 -40.5s-22.666 -14.5 -39.999 -14.5c-16.667 0 -30 5 -40 15z" />
    <glyph glyph-name="slash" unicode="/" horiz-adv-x="348" 
d="M47 -162c-14.667 4 -21.665 7.33301 -20.998 10l252 882c1.33301 2.66699 9.16602 2 23.499 -2s21.166 -7.66699 20.499 -11l-251 -881c-1.33301 -2.66699 -9.33301 -2 -24 2z" />
    <glyph glyph-name="zero" unicode="0" horiz-adv-x="501" 
d="M138.5 26.5c-31.667 26.333 -55.999 63.999 -72.999 112.999s-25.5 106.833 -25.5 173.5c0 66 8.5 123.333 25.5 172s41.667 86.167 74 112.5s70.166 39.5 113.499 39.5c42.667 0 79.5 -13.167 110.5 -39.5s54.833 -64.166 71.5 -113.499s25 -107.333 25 -174
c0 -66 -8.5 -123.333 -25.5 -172s-41.167 -86 -72.5 -112s-68.333 -39 -111 -39c-43.333 0 -80.833 13.167 -112.5 39.5zM335.501 76.499c15 47 22.5 120.834 22.5 221.501c0 111.333 -9.66699 192.666 -29 243.999s-48.333 77 -87 77c-34.667 0 -60.167 -24.5 -76.5 -73.5
s-24.5 -124.167 -24.5 -225.5c0 -106 10 -184.833 30 -236.5s50.667 -77.5 92 -77.5c33.333 0 57.5 23.5 72.5 70.5z" />
    <glyph glyph-name="one" unicode="1" horiz-adv-x="391" 
d="M51 6c0 4 0.667969 5.99805 2.00098 5.99805c28.667 0 50.5 1.83301 65.5 5.5s25.833 10.334 32.5 20.001s10 24.167 10 43.5v373c0 44.667 -10.667 67 -32 67c-15.333 0 -41 -12.333 -77 -37l-2 -1c-2 0 -3.66699 1.5 -5 4.5s-1.33301 4.83301 0 5.5l192 139
c2.66699 1.33301 5 2 7 2c1.33301 0 2.66602 -0.666992 3.99902 -2s2 -2.66602 2 -3.99902v-547c0 -20 3 -34.667 9 -44s16.5 -15.833 31.5 -19.5s37.5 -5.5 67.5 -5.5c2 0 3 -2 3 -6s-1 -6 -3 -6c-26.667 -0 -47.667 0.333008 -63 1l-90 1l-87 -1
c-16 -0.666992 -37.667 -1 -65 -1c-1.33301 0 -2 2 -2 6z" />
    <glyph glyph-name="two" unicode="2" horiz-adv-x="445" 
d="M29 9.5c-3.33301 6.33301 -3.66895 10.8311 -1.00195 13.498c18.667 22.667 27.334 33.334 26.001 32.001c58 72.667 101.333 128.834 130 168.501s51.5 78.5 68.5 116.5s25.5 76 25.5 114c0 43.333 -9.66699 75.166 -29 95.499s-45.666 30.5 -78.999 30.5
c-32 0 -58.667 -8.5 -80 -25.5s-36 -40.5 -44 -70.5c0 -0.666992 -1.33301 -1 -4 -1c-5.33301 0 -7.66602 1.33301 -6.99902 4c8 46 28.167 82.333 60.5 109s72.5 40 120.5 40c49.333 0 87.666 -14 114.999 -42s41 -65 41 -111c0 -36.667 -8.66699 -72.667 -26 -108
s-38 -67.666 -62 -96.999s-54.667 -64 -92 -104c-36 -37.333 -61.333 -66 -76 -86c-2.66699 -4.66699 -1 -7 5 -7c76 0 131.167 1.5 165.5 4.5s58 9.33301 71 19s19.833 25.167 20.5 46.5c0 2 1.83301 3 5.5 3s5.5 -1 5.5 -3v-140c0 -2.66699 -0.833008 -5.16699 -2.5 -7.5
s-3.83398 -3.5 -6.50098 -3.5h-341c-3.33301 0 -6.66602 3.16699 -9.99902 9.5z" />
    <glyph glyph-name="three" unicode="3" horiz-adv-x="435" 
d="M37 63l-1.00195 1.99902c0 2.66699 1.5 4.83398 4.5 6.50098s5.16699 1.5 6.5 -0.5c15.333 -15.333 34 -27 56 -35s43.333 -12 64 -12c45.333 0 78.333 13.167 99 39.5s31 60.833 31 103.5c0 100.667 -54.667 151 -164 151c-2.66699 0 -4.16699 2.16699 -4.5 6.5
s1.16699 6.5 4.5 6.5c53.333 0 90.833 11.667 112.5 35s32.5 56.333 32.5 99c0 42 -9 73 -27 93s-42.667 30 -74 30c-26.667 0 -52 -6.5 -76 -19.5s-41.667 -32.167 -53 -57.5c0 -0.666992 -1 -1 -3 -1s-4.16699 0.666992 -6.5 2s-3.16602 2.33301 -2.49902 3
c14.667 37.333 38 66.833 70 88.5s68.667 32.5 110 32.5c46 0 83.5 -13 112.5 -39s43.5 -59.333 43.5 -100s-14.333 -77.667 -43 -111s-67 -54.666 -115 -63.999l2 8c37.333 2.66699 69.5 -3 96.5 -17s47.5 -33.333 61.5 -58s21 -51.334 21 -80.001
c0 -36.667 -8.16699 -69.167 -24.5 -97.5s-39.166 -50.333 -68.499 -66s-63 -23.5 -101 -23.5c-63.333 0 -118 25 -164 75z" />
    <glyph glyph-name="four" unicode="4" horiz-adv-x="472" 
d="M354.5 36.5c3 -9.66699 8.99902 -16.167 17.999 -19.5s23.167 -5 42.5 -5c1.33301 0 2 -2 2 -6s-0.666992 -6 -2 -6c-19.333 -0 -34.333 0.333008 -45 1l-66 1l-78 -1c-13.333 -0.666992 -32 -1 -56 -1c-1.33301 0 -2 2 -2 6s0.666992 6 2 6
c28.667 0 48.834 1.5 60.501 4.5s19.5 9 23.5 18s6 24.5 6 46.5v427l39 30l-227 -318c-4 -4.66699 -2.33301 -7 5 -7c115.333 0 229 2 341 6c2.66699 0 4 -7 4 -21s-1.33301 -21 -4 -21c-98 4.66699 -230 7 -396 7c-3.33301 0 -5.83301 1.16699 -7.5 3.5
s-1.5 4.83301 0.5 7.5l320 435c1.33301 1.33301 3.33301 2 6 2c2 0 4 -0.5 6 -1.5s3 -2.5 3 -4.5v-545c0 -20 1.5 -34.833 4.5 -44.5z" />
    <glyph glyph-name="five" unicode="5" horiz-adv-x="448" 
d="M72 336.5c-2 2.33301 -2.66504 5.16602 -1.99805 8.49902l32 268c0.666992 4.66699 1.66699 7.83398 3 9.50098s4.66602 2.5 9.99902 2.5c90.667 0 150.834 0.5 180.501 1.5s49.167 3.16699 58.5 6.5s16.666 10.333 21.999 21c0.666992 1.33301 2.66699 1.83301 6 1.5
s4.66602 -1.83301 3.99902 -4.5l-15 -96c-2 -8 -4.5 -13.167 -7.5 -15.5s-8.83301 -3.5 -17.5 -3.5l-209 5c-8.66699 0 -14 -4.66699 -16 -14l-23 -181l-18 -13c-3.33301 0 -6 1.16699 -8 3.5zM109.502 36c20.333 -8 41.499 -12 63.499 -12c44.667 0 78.167 14 100.5 42
s33.5 65 33.5 111c0 51.333 -12.167 92.333 -36.5 123s-60.166 46 -107.499 46c-21.333 0 -40 -2 -56 -6s-25 -6.33301 -27 -7c-0.666992 0 -1 1 -1 3c0 3.33301 0.5 6.83301 1.5 10.5s1.83301 6.5 2.5 8.5c14 5.33301 32.167 10.5 54.5 15.5s45.833 7.5 70.5 7.5
c60.667 0 108.5 -16.333 143.5 -49s52.5 -79.667 52.5 -141c0 -63.333 -19 -112.5 -57 -147.5s-86.333 -52.5 -145 -52.5c-31.333 0 -59.333 6.16699 -84 18.5s-47.667 31.166 -69 56.499l-1 2c0 2.66699 1.33301 4.83398 4 6.50098s4.66699 1.5 6 -0.5
c14 -15.333 31.167 -27 51.5 -35z" />
    <glyph glyph-name="six" unicode="6" horiz-adv-x="493" 
d="M410.5 294c27.667 -30.667 41.498 -69.6621 41.498 -116.995c0 -36.667 -8.5 -69.334 -25.5 -98.001s-40.5 -51.167 -70.5 -67.5s-64 -24.5 -102 -24.5c-62.667 0 -111.167 21.667 -145.5 65s-51.5 102 -51.5 176c0 65.333 13 128.666 39 189.999
s63.667 112.166 113 152.499s106.666 62.166 171.999 65.499c2 0 3.5 -1.5 4.5 -4.5s0.166992 -4.83301 -2.5 -5.5c-49.333 -14 -91.166 -40.333 -125.499 -79s-60.166 -85 -77.499 -139s-26 -110.667 -26 -170c0 -66.667 10.5 -121.667 31.5 -165s50.833 -65 89.5 -65
c53.333 0 80 47 80 141c0 51.333 -7.83301 90.5 -23.5 117.5s-38.5 40.5 -68.5 40.5c-22.667 0 -43.667 -7 -63 -21l-2 -1c-2 0 -3.83301 1.16699 -5.5 3.5s-2.16699 4.16602 -1.5 5.49902c27.333 30.667 63.333 46 108 46c46.667 0 83.834 -15.333 111.501 -46z" />
    <glyph glyph-name="seven" unicode="7" horiz-adv-x="429" 
d="M197 4.5c-2.66699 -3 -7.33301 -4.5 -14 -4.5h-71c-4 -0 -7.33301 1.33301 -10 4s-3 6 -1 10l234 520c2.66699 4.66699 1.33398 7 -3.99902 7c-98.667 0 -166.167 -1.33301 -202.5 -4s-59.5 -8 -69.5 -16s-18.667 -24 -26 -48c0 -1.33301 -1.33301 -2 -4 -2
c-2 0 -3.83301 0.5 -5.5 1.5s-2.16699 2.16699 -1.5 3.5l40 175c0.666992 2 3 2.83301 7 2.5s5.66699 -1.5 5 -3.5c-0.666992 -2.66699 -1 -6 -1 -10c0 -6 3.16699 -10 9.5 -12s19.166 -3 38.499 -3h265c2.66699 0 5.16699 -1.66699 7.5 -5s2.83301 -6 1.5 -8l-189 -589
c-3.33301 -9.33301 -6.33301 -15.5 -9 -18.5z" />
    <glyph glyph-name="eight" unicode="8" horiz-adv-x="493" 
d="M311 410c8.66699 27.333 12.998 56.3301 12.998 86.9971c0 39.333 -7.33301 69 -22 89s-35.334 30 -62.001 30c-22.667 0 -39.834 -7.33301 -51.501 -22s-17.5 -33.667 -17.5 -57c0 -26 6 -48.833 18 -68.5s27.167 -36.5 45.5 -50.5s43.5 -30.667 75.5 -50
c31.333 -19.333 57 -37.333 77 -54s36.833 -37.334 50.5 -62.001s20.5 -54 20.5 -88c0 -34.667 -9.33301 -65.5 -28 -92.5s-44.167 -47.833 -76.5 -62.5s-68.166 -22 -107.499 -22c-42 0 -78.667 7.83301 -110 23.5s-55.166 37 -71.499 64s-24.5 56.5 -24.5 88.5
c0 50.667 18 94.167 54 130.5s78.667 62.5 128 78.5l5 -8c-29.333 -18 -51.333 -41.167 -66 -69.5s-22 -64.5 -22 -108.5c0 -54 11.833 -97.167 35.5 -129.5s55.5 -48.5 95.5 -48.5c32.667 0 57.667 10.833 75 32.5s26 50.834 26 87.501c0 31.333 -6.5 58.166 -19.5 80.499
s-29.167 41 -48.5 56s-44.666 31.833 -75.999 50.5c-29.333 18.667 -53 35.167 -71 49.5s-32.833 31.833 -44.5 52.5s-17.5 45.334 -17.5 74.001c0 32 7.66699 58.833 23 80.5s35.5 37.834 60.5 48.501s51.5 16 79.5 16c44 0 80.167 -11.833 108.5 -35.5
s42.5 -54.167 42.5 -91.5c0 -35.333 -12 -68.166 -36 -98.499s-55.333 -56.166 -94 -77.499l-5 6c16.667 20 29.334 43.667 38.001 71z" />
    <glyph glyph-name="nine" unicode="9" horiz-adv-x="489" 
d="M82.5 333.5c-28.333 32.333 -42.501 73.5 -42.501 123.5c0 34.667 8.66699 65.667 26 93s41 48.5 71 63.5s64 22.5 102 22.5c63.333 0 112.166 -21.5 146.499 -64.5s51.5 -101.833 51.5 -176.5c0 -64.667 -13.5 -127.667 -40.5 -189s-65.667 -112.166 -116 -152.499
s-109.166 -62.5 -176.499 -66.5c-2.66699 0 -4.33398 1.66699 -5.00098 5s0 5.33301 2 6c51.333 13.333 94.833 39.333 130.5 78s62.5 85 80.5 139s27 110.667 27 170c0 67.333 -10.667 122.5 -32 165.5s-51 64.5 -89 64.5c-28 0 -48.333 -11.833 -61 -35.5
s-19 -57.834 -19 -102.501c0 -52 8.16699 -91.667 24.5 -119s40.166 -41 71.499 -41c21.333 0 41 6.33301 59 19l2 1c2.66699 0 4.83398 -1.33301 6.50098 -4s1.83398 -4.66699 0.500977 -6c-26.667 -28 -62 -42 -106 -42c-47.333 0 -85.166 16.167 -113.499 48.5z" />
    <glyph glyph-name="colon" unicode=":" horiz-adv-x="204" 
d="M63 4c-10 10 -15 23.333 -15 40c0 16 5 28.667 15 38s23.333 14 40 14c17.333 0 30.666 -4.66699 39.999 -14s14 -22 14 -38c0 -17.333 -4.66699 -30.833 -14 -40.5s-22.666 -14.5 -39.999 -14.5c-16.667 0 -30 5 -40 15zM63 285c-10 10 -15 23.333 -15 40
c0 16 5 28.667 15 38s23.333 14 40 14c17.333 0 30.666 -4.66699 39.999 -14s14 -22 14 -38c0 -17.333 -4.66699 -30.833 -14 -40.5s-22.666 -14.5 -39.999 -14.5c-16.667 0 -30 5 -40 15z" />
    <glyph glyph-name="semicolon" unicode=";" horiz-adv-x="229" 
d="M160.5 70.5c12.333 -15.667 18.499 -39.1699 18.499 -70.5029c0 -33.333 -7.83301 -65.166 -23.5 -95.499s-38.5 -60.5 -68.5 -90.5c-0.666992 -0.666992 -1.66699 -1 -3 -1c-2 0 -3.5 0.833008 -4.5 2.5s-1.16699 3.5 -0.5 5.5c16.667 21.333 28.167 42.333 34.5 63
s9.5 43.667 9.5 69c0 18.667 -1.83301 32.834 -5.5 42.501s-9.5 17.834 -17.5 24.501l38 7c0.666992 -11.333 -2.66602 -20 -9.99902 -26s-17 -9 -29 -9c-16 0 -28.333 4.5 -37 13.5s-13 21.167 -13 36.5c0 16.667 5.33301 29.5 16 38.5s25 13.5 43 13.5
c22.667 0 40.167 -7.83301 52.5 -23.5zM64.999 284.997c-10 10 -15 23.333 -15 40c0 16 5 28.667 15 38s23.333 14 40 14c17.333 0 30.666 -4.66699 39.999 -14s14 -22 14 -38c0 -17.333 -4.66699 -30.833 -14 -40.5s-22.666 -14.5 -39.999 -14.5c-16.667 0 -30 5 -40 15z
" />
    <glyph glyph-name="less" unicode="&#x3c;" horiz-adv-x="407" 
d="M31 190c0 10 1.66699 15.667 5 17l334 147c4.66699 2.66699 7 -3.66602 7 -18.999c0 -14.667 -2.33301 -23.334 -7 -26.001l-315 -135v32l315 -135c4.66699 -2 7 -10.667 7 -26s-2.33301 -22 -7 -20l-334 148c-3.33301 2 -5 7.66699 -5 17z" />
    <glyph glyph-name="equal" unicode="=" horiz-adv-x="468" 
d="M30.5 104.5c-1 5 -1.5 10.501 -1.5 16.501c0 5.33301 0.333008 10.166 1 14.499s1.66699 6.5 3 6.5h401c1.33301 0 2.5 -2.33301 3.5 -7s1.5 -9.66699 1.5 -15c0 -6 -0.5 -11.333 -1.5 -16s-2.16699 -7 -3.5 -7h-400c-1.33301 0 -2.5 2.5 -3.5 7.5zM30.5 244.501
c-1 5 -1.5 10.501 -1.5 16.501c0 5.33301 0.333008 10.166 1 14.499s1.66699 6.5 3 6.5h401c1.33301 0 2.5 -2.33301 3.5 -7s1.5 -9.66699 1.5 -15c0 -6 -0.5 -11.333 -1.5 -16s-2.16699 -7 -3.5 -7h-400c-1.33301 0 -2.5 2.5 -3.5 7.5z" />
    <glyph glyph-name="greater" unicode="&#x3e;" horiz-adv-x="407" 
d="M376 189c0 -9.33301 -1.66699 -15 -5 -17l-334 -147c-2 -0.666992 -3.66699 0.833008 -5 4.5s-2 8.5 -2 14.5s0.666992 11.667 2 17s3 8.33301 5 9l315 135v-32l-315 135c-2 0.666992 -3.66699 3.66699 -5 9s-2 11 -2 17s0.666992 11.167 2 15.5s3 5.83301 5 4.5
l334 -148c3.33301 -1.33301 5 -7 5 -17z" />
    <glyph glyph-name="question" unicode="?" horiz-adv-x="336" 
d="M138.5 596.5c-4.33301 -7.66699 -7.16699 -18.168 -8.5 -31.501c-2 -17.333 -6.33301 -31.666 -13 -42.999s-19.334 -17 -38.001 -17c-15.333 0 -26.666 4.16699 -33.999 12.5s-11 18.166 -11 29.499c0 21.333 12.5 39.666 37.5 54.999s55.833 23 92.5 23
c42 0 77.167 -10.333 105.5 -31s42.5 -50 42.5 -88c0 -25.333 -6 -46.333 -18 -63s-30 -35.667 -54 -57l-18 -15c-21.333 -19.333 -36.833 -38.666 -46.5 -57.999s-14.5 -41 -14.5 -65c0 -12.667 2 -30.667 6 -54c0.666992 -2 -1.5 -3.5 -6.5 -4.5s-7.83301 -0.5 -8.5 1.5
c-8 18 -14.333 38.5 -19 61.5s-7 42.5 -7 58.5c0 20.667 3.5 37.5 10.5 50.5s17.5 27.833 31.5 44.5c15.333 18 27 34.833 35 50.5s12 36.167 12 61.5c0 26.667 -4.66699 48.334 -14 65.001s-22 25 -38 25c-12 0 -20.167 -3.83301 -24.5 -11.5zM110.999 3.99902
c-10 10 -15 23.333 -15 40c0 16 5 28.667 15 38s23.333 14 40 14c17.333 0 30.666 -4.66699 39.999 -14s14 -22 14 -38c0 -17.333 -4.66699 -30.833 -14 -40.5s-22.666 -14.5 -39.999 -14.5c-16.667 0 -30 5 -40 15z" />
    <glyph glyph-name="at" unicode="@" horiz-adv-x="726" 
d="M428 232l28.9951 12.9971c-23.333 -55.333 -53.333 -101.333 -90 -138s-71 -55 -103 -55c-16 0 -29.167 5.33301 -39.5 16s-15.5 27.334 -15.5 50.001c0 8.66699 0.333008 15.334 1 20.001c5.33301 36 19.333 71 42 105s49.334 61.667 80.001 83s59.334 32 86.001 32
c14.667 0 27.667 -4.16699 39 -12.5s17.666 -20.5 18.999 -36.5l-29 19c9.33301 1.33301 19 5.5 29 12.5s16.333 15.167 19 24.5c1.33301 1.33301 4 2 8 2c6.66699 0 10 -1 10 -3l-41 -224c-2 -8.66699 -3 -17.334 -3 -26.001c0 -24 12.333 -36 37 -36
c16.667 0 33.667 6.16699 51 18.5s31.833 30.5 43.5 54.5s17.5 52.333 17.5 85c0 44 -10.833 84.333 -32.5 121s-51.334 65.834 -89.001 87.501s-79.834 32.5 -126.501 32.5c-50.667 0 -94.667 -12.5 -132 -37.5s-65.833 -58.667 -85.5 -101s-29.5 -88.5 -29.5 -138.5
c0 -54 11.333 -101.333 34 -142s54.834 -72 96.501 -94s89.834 -33 144.501 -33c32 0 60.833 3.5 86.5 10.5s52.5 19.833 80.5 38.5h1c2 0 3.83301 -1.16699 5.5 -3.5s1.5 -3.83301 -0.5 -4.5c-34 -28.667 -68.167 -48.334 -102.5 -59.001s-69.166 -16 -104.499 -16
c-55.333 0 -105.666 11 -150.999 33s-81 53.833 -107 95.5s-39 91.167 -39 148.5c0 62.667 15.667 118.834 47 168.501s72.833 88.334 124.5 116.001s106.834 41.5 165.501 41.5c52 0 97.833 -10.667 137.5 -32s70.334 -49.833 92.001 -85.5s32.5 -74.167 32.5 -115.5
c0 -38 -9 -73.333 -27 -106s-42.167 -58.667 -72.5 -78s-63.5 -29 -99.5 -29c-20 0 -35.333 5.16699 -46 15.5s-16 24.833 -16 43.5c0 10.667 1.33301 21 4 31zM353.995 132.997c18 16.667 34.3301 37.833 48.9971 63.5s24.667 51.167 30 76.5c1.33301 8 2 14 2 18
c0 13.333 -2.66699 24 -8 32s-12.666 12 -21.999 12c-25.333 0 -49.666 -15.333 -72.999 -46s-38.666 -66 -45.999 -106c-2.66699 -16 -4 -28 -4 -36c0 -26 8 -39 24 -39c14 0 30 8.33301 48 25z" />
    <glyph glyph-name="A" unicode="A" horiz-adv-x="711" 
d="M192 270h280l7 -25h-300zM715 6c0 -4 -1.33496 -6 -4.00195 -6c-12.667 0 -33 0.666992 -61 2s-48.333 2 -61 2c-16.667 0 -36.334 -0.666992 -59.001 -2s-40.334 -2 -53.001 -2c-2.66699 0 -4 2 -4 6s1.33301 6 4 6c20 0 34.333 2.16699 43 6.5s13 11.5 13 21.5
s-5.66699 27 -17 51l-209 425l41 67l-198 -446c-8.66699 -20 -13 -38 -13 -54c0 -23.333 8.33301 -41 25 -53s40 -18 70 -18c3.33301 0 5 -2 5 -6s-1.66699 -6 -5 -6c-12 0 -29.333 0.666992 -52 2c-25.333 1.33301 -47.333 2 -66 2c-18 0 -39 -0.666992 -63 -2
c-21.333 -1.33301 -39 -2 -53 -2c-3.33301 0 -5 2 -5 6s1.66699 6 5 6c18.667 0 34.334 3.66699 47.001 11s25 20.5 37 39.5s26.333 47.167 43 84.5l215 484c1.33301 2 4.33301 3 9 3s7.33398 -1 8.00098 -3l245 -494c22.667 -48 41.834 -80.833 57.501 -98.5
s32.834 -26.5 51.501 -26.5c2.66699 0 4 -2 4 -6z" />
    <glyph glyph-name="B" unicode="B" horiz-adv-x="582" 
d="M428 331c32.667 -14.667 57.998 -34.8369 75.998 -60.5039s27 -55.167 27 -88.5c0 -34.667 -9.66699 -66.167 -29 -94.5s-45.666 -50.666 -78.999 -66.999s-70.666 -24.5 -111.999 -24.5c-19.333 0 -41.666 1 -66.999 3c-8.66699 0.666992 -19.667 1.33398 -33 2.00098
s-28.333 1 -45 1l-72 -1c-12.667 -0.666992 -30 -1 -52 -1c-2 0 -3 2 -3 6s1 6 3 6c21.333 0 37.333 1.83301 48 5.5s18.167 10.167 22.5 19.5s6.5 24 6.5 44v463c0 19.333 -2 33.833 -6 43.5s-11.333 16.334 -22 20.001s-26.667 5.5 -48 5.5c-1.33301 0 -2 2 -2 6
s0.666992 6 2 6l52 -1c29.333 -1.33301 53 -2 71 -2c18.667 0 38.334 1 59.001 3c7.33301 0.666992 16.166 1.33398 26.499 2.00098s22.166 1 35.499 1c59.333 0 104.666 -11.333 135.999 -34s47 -54.667 47 -96c0 -38 -14.5 -71.333 -43.5 -100s-69.833 -49 -122.5 -61
l11 16c42.667 0 80.334 -7.33301 113.001 -22zM226.498 594.997c-7.66699 -8.66699 -11.499 -26.334 -11.499 -53.001v-196l-36 7c29.333 -1.33301 55 -2 77 -2c39.333 0 69.166 12.833 89.499 38.5s30.5 58.834 30.5 99.501c0 38 -8.83301 67.333 -26.5 88
s-44.167 31 -79.5 31c-21.333 0 -35.833 -4.33301 -43.5 -13zM429.999 157.997c0 50.667 -13.1689 91.333 -39.502 122s-64.833 46 -115.5 46c-37.333 0 -68 -2 -92 -6l32 12v-251c0 -15.333 1.83301 -27.333 5.5 -36s11.334 -15.167 23.001 -19.5s28.834 -6.5 51.501 -6.5
c90 0 135 46.333 135 139z" />
    <glyph glyph-name="C" unicode="C" horiz-adv-x="683" 
d="M601 605c5.33301 -2.66699 8.66406 -5.16699 9.99707 -7.5s2.66602 -7.5 3.99902 -15.5l12 -132c0 -2 -1.66699 -3.33301 -5 -4s-5.66602 0.333008 -6.99902 3c-17.333 54.667 -43.166 96.334 -77.499 125.001s-76.833 43 -127.5 43c-49.333 0 -93 -12.167 -131 -36.5
s-67.667 -59.333 -89 -105s-32 -98.834 -32 -159.501c0 -60 11.333 -113.5 34 -160.5s53.667 -83.5 93 -109.5s83.666 -39 132.999 -39c48.667 0 89.167 12.833 121.5 38.5s60.833 66.5 85.5 122.5c0.666992 2 2.66699 2.66699 6 2s5 -1.66699 5 -3l-13 -119
c-1.33301 -8 -2.66602 -13.167 -3.99902 -15.5s-4.66602 -4.83301 -9.99902 -7.5c-60 -24.667 -124 -37 -192 -37c-70.667 0 -134 13.5 -190 40.5s-99.667 65 -131 114s-47 105.167 -47 168.5c0 62.667 16.167 118.667 48.5 168s76.833 87.833 133.5 115.5
s120.334 41.5 191.001 41.5c74 0 133.667 -10.333 179 -31z" />
    <glyph glyph-name="D" unicode="D" horiz-adv-x="700" 
d="M245 -1c-10 0.666992 -22.6621 1.33398 -37.9951 2.00098s-32.333 1 -51 1l-71 -1c-12.667 -0.666992 -30.334 -1 -53.001 -1c-1.33301 0 -2 2 -2 6s0.666992 6 2 6c22.667 0 39.167 1.66699 49.5 5s17.5 9.83301 21.5 19.5s6 24.5 6 44.5v463
c0 20 -1.83301 34.667 -5.5 44s-10.834 15.833 -21.501 19.5s-27 5.5 -49 5.5c-1.33301 0 -2 2 -2 6s0.666992 6 2 6l53 -1c29.333 -1.33301 52.666 -2 69.999 -2c26 0 53 1 81 3c33.333 1.33301 55.666 2 66.999 2c68 0 128.333 -13.333 181 -40s93.5 -63 122.5 -109
s43.5 -97.667 43.5 -155c0 -64.667 -15 -121.834 -45 -171.501s-70.333 -88 -121 -115s-106.334 -40.5 -167.001 -40.5c-20.667 0 -45 1 -73 3zM430.505 49c35.667 22 63.5 54.501 83.5 97.501s30 94.5 30 154.5c0 57.333 -9.5 109.166 -28.5 155.499s-45.833 83 -80.5 110
s-75 40.5 -121 40.5c-28.667 0 -50.5 -1.66699 -65.5 -5s-26.167 -9.5 -33.5 -18.5s-11 -22.833 -11 -41.5v-450c0 -27.333 7.16699 -46.833 21.5 -58.5s41.833 -17.5 82.5 -17.5c46 0 86.833 11 122.5 33z" />
    <glyph glyph-name="E" unicode="E" horiz-adv-x="547" 
d="M39 6c0 4 1.00391 5.99902 3.00391 5.99902c22.667 0 39.167 1.66699 49.5 5s17.333 9.83301 21 19.5s5.5 24.5 5.5 44.5v463c0 20 -1.83301 34.667 -5.5 44s-10.834 15.833 -21.501 19.5s-27 5.5 -49 5.5c-2 0 -3 2 -3 6s1 6 3 6h416c6.66699 0 10 -3 10 -9l2 -130
c0 -1.33301 -1.83301 -2.16602 -5.5 -2.49902s-5.83398 0.5 -6.50098 2.5c-16 75.333 -62 113 -138 113h-41c-24.667 0 -41.834 -4.33301 -51.501 -13s-14.5 -23.334 -14.5 -44.001v-457c0 -22 4.16699 -37.333 12.5 -46s23.166 -13 44.499 -13h49c89.333 0 146 43 170 129
c0 1.33301 1.66699 2 5 2c4.66699 0 7 -1 7 -3c-6.66699 -50.667 -10 -97 -10 -139c0 -5.33301 -1 -9.16602 -3 -11.499s-6 -3.5 -12 -3.5h-434c-2 0 -3 2 -3 6zM308.004 311.999l-140 -0.000976562v26h141c73.333 0 110 24.667 110 74c0 2 1.83301 3 5.5 3s5.5 -1 5.5 -3
l-1 -87l1 -47c1.33301 -21.333 2 -38.666 2 -51.999c0 -1.33301 -2 -2 -6 -2s-6 0.666992 -6 2c0 57.333 -37.333 86 -112 86z" />
    <glyph glyph-name="F" unicode="F" horiz-adv-x="518" 
d="M34 6c0 4 1.00098 5.99902 3.00098 5.99902c24 0 41.5 1.66699 52.5 5s18.5 9.83301 22.5 19.5s6 24.5 6 44.5v463c0 20 -1.83301 34.667 -5.5 44s-10.834 15.833 -21.501 19.5s-27 5.5 -49 5.5c-2 0 -3 2 -3 6s1 6 3 6h416c6.66699 0 10 -3 10 -9l2 -130
c0 -1.33301 -1.83301 -2.16602 -5.5 -2.49902s-5.83398 0.5 -6.50098 2.5c-16 75.333 -62 113 -138 113h-41c-24 0 -41 -4.33301 -51 -13s-15 -23 -15 -43v-458c0 -21.333 2.66699 -36.833 8 -46.5s15.833 -16.5 31.5 -20.5s39.834 -6 72.501 -6c1.33301 0 2 -2 2 -6
s-0.666992 -6 -2 -6c-27.333 -0 -48.666 0.333008 -63.999 1l-98 1l-73 -1c-12.667 -0.666992 -30.334 -1 -53.001 -1c-2 0 -3 2 -3 6zM293.001 299.999h-125v26h127c74.667 0 112 25 112 75c0 1.33301 2 2 6 2s6 -0.666992 6 -2l-1 -88c0 -20.667 0.333008 -36 1 -46l1 -52
c0 -2 -2 -3 -6 -3s-6 1 -6 3c0 56.667 -38.333 85 -115 85z" />
    <glyph glyph-name="G" unicode="G" horiz-adv-x="725" 
d="M220.5 31c-55.667 28.667 -98.1631 67.5 -127.496 116.5s-44 103.5 -44 163.5c0 64 16.667 120.667 50 170s79.333 87.5 138 114.5s124.334 40.5 197.001 40.5c33.333 0 65.833 -2.66699 97.5 -8s57.167 -13 76.5 -23c6.66699 -2.66699 10.5 -4.83398 11.5 -6.50098
s1.83301 -7.16699 2.5 -16.5l13 -131c0 -2 -1.83301 -3.33301 -5.5 -4s-5.83398 0 -6.50098 2c-14.667 42.667 -40.667 81.334 -78 116.001s-85 52 -143 52c-46 0 -87.833 -11.667 -125.5 -35s-67.334 -56.833 -89.001 -100.5s-32.5 -94.167 -32.5 -151.5
c0 -60.667 11.833 -115.834 35.5 -165.501s57.167 -88.834 100.5 -117.501s93.666 -43 150.999 -43c28.667 0 51 3.33301 67 10s27.667 18.667 35 36s11 42.666 11 75.999c0 34.667 -2 58.834 -6 72.501s-12.833 22.834 -26.5 27.501s-37.5 7 -71.5 7c-4 0 -6 2.66699 -6 8
c0 2 0.5 3.83301 1.5 5.5s2.16699 2.5 3.5 2.5c55.333 -3.33301 99.666 -5 132.999 -5s68 1 104 3c2.66699 0 4.16699 -2.33301 4.5 -7s-1.16699 -7 -4.5 -7c-13.333 0.666992 -22.833 -1.5 -28.5 -6.5s-9.33398 -15.333 -11.001 -31s-2.5 -42.167 -2.5 -79.5
c0 -30 1.16699 -51.333 3.5 -64s3.5 -20.667 3.5 -24c0 -4 -0.666992 -6.66699 -2 -8s-4.33301 -2.66602 -9 -3.99902c-84 -18.667 -158.667 -28 -224 -28c-75.333 0 -140.833 14.333 -196.5 43z" />
    <glyph glyph-name="H" unicode="H" horiz-adv-x="762" 
d="M547 586.5c-4 9.66699 -12 16.5 -24 20.5s-30.333 6 -55 6c-2 0 -3 2 -3 6s1 6 3 6l48 -1c32 -1.33301 60.333 -2 85 -2c18 0 42.333 0.666992 73 2l55 1c2 0 3 -2 3 -6s-1 -6 -3 -6c-24 0 -41.667 -1.83301 -53 -5.5s-19 -10.167 -23 -19.5s-6 -24 -6 -44v-463
c0 -20 2 -34.833 6 -44.5s11.667 -16.167 23 -19.5s29 -5 53 -5c2 0 3 -2 3 -6s-1 -6 -3 -6c-22.667 -0 -41 0.333008 -55 1l-73 1l-85 -1c-12 -0.666992 -28 -1 -48 -1c-2 0 -3 2 -3 6s1 6 3 6c25.333 0 43.833 1.66699 55.5 5s19.5 9.83301 23.5 19.5s6 24.5 6 44.5v461
c0 20 -2 34.833 -6 44.5zM158 338h438v-26h-438v26zM108 588c-4 9.33301 -11.667 15.833 -23 19.5s-28.666 5.5 -51.999 5.5c-1.33301 0 -2 2 -2 6s0.666992 6 2 6l53 -1c30.667 -1.33301 54.667 -2 72 -2c23.333 0 51 0.666992 83 2l52 1c1.33301 0 2 -2 2 -6
s-0.666992 -6 -2 -6c-24 0 -41.833 -2 -53.5 -6s-19.667 -10.833 -24 -20.5s-6.5 -24.5 -6.5 -44.5v-461c0 -20 2 -34.833 6 -44.5s11.833 -16.167 23.5 -19.5s29.834 -5 54.501 -5c1.33301 0 2 -2 2 -6s-0.666992 -6 -2 -6c-22.667 -0 -40.334 0.333008 -53.001 1l-82 1
l-73 -1c-12.667 -0.666992 -30.334 -1 -53.001 -1c-1.33301 0 -2 2 -2 6s0.666992 6 2 6c24 0 41.667 1.66699 53 5s19 9.83301 23 19.5s6 24.5 6 44.5v463c0 20 -2 34.667 -6 44z" />
    <glyph glyph-name="I" unicode="I" horiz-adv-x="339" 
d="M222.5 36c3.66699 -9.33301 10.668 -15.667 21.001 -19s26.833 -5 49.5 -5c2 0 3 -2 3 -6s-1 -6 -3 -6c-21.333 -0 -38.333 0.333008 -51 1l-74 1l-72 -1c-12.667 -0.666992 -30 -1 -52 -1c-2 0 -3 2 -3 6s1 6 3 6c22.667 0 39.167 1.66699 49.5 5
s17.5 9.83301 21.5 19.5s6 24.5 6 44.5v463c0 20 -2 34.667 -6 44s-11.167 15.833 -21.5 19.5s-26.833 5.5 -49.5 5.5c-2 0 -3 2 -3 6s1 6 3 6l52 -1c29.333 -1.33301 53.333 -2 72 -2c20.667 0 45.667 0.666992 75 2l50 1c2 0 3 -2 3 -6s-1 -6 -3 -6
c-22 0 -38.333 -2 -49 -6s-17.834 -10.833 -21.501 -20.5s-5.5 -24.5 -5.5 -44.5v-461c0 -20.667 1.83301 -35.667 5.5 -45z" />
    <glyph glyph-name="J" unicode="J" horiz-adv-x="333" 
d="M294 619c0 -4 -0.666016 -6.00195 -1.99902 -6.00195c-18.667 0 -32.5 -2 -41.5 -6s-15 -10.833 -18 -20.5s-4.5 -24.5 -4.5 -44.5v-554c0 -72 -17.5 -128.5 -52.5 -169.5s-84.167 -61.5 -147.5 -61.5c-24 0 -43.5 4.83301 -58.5 14.5s-22.5 22.834 -22.5 39.501
c0 12.667 3.83301 23.334 11.5 32.001s19.167 13 34.5 13c14.667 0 26 -4.16699 34 -12.5s15.333 -19.833 22 -34.5c5.33301 -10 10.166 -17.667 14.499 -23s9.83301 -8 16.5 -8c17.333 0 30.166 12.167 38.499 36.5s12.5 64.5 12.5 120.5v609c0 20 -2.16699 34.667 -6.5 44
s-12.666 15.833 -24.999 19.5s-31.5 5.5 -57.5 5.5c-1.33301 0 -2 2 -2 6s0.666992 6 2 6l60 -1c32 -1.33301 57.333 -2 76 -2c18 0 41 0.666992 69 2l45 1c1.33301 0 2 -2 2 -6z" />
    <glyph glyph-name="K" unicode="K" horiz-adv-x="653" 
d="M103.5 588c-3.66699 9.33301 -10.8311 15.832 -21.498 19.499s-27 5.5 -49 5.5c-1.33301 0 -2 2 -2 6s0.666992 6 2 6l53 -1c29.333 -1.33301 52.666 -2 69.999 -2c20 0 44.667 0.666992 74 2l50 1c2 0 3 -2 3 -6s-1 -6 -3 -6c-22 0 -38.167 -2 -48.5 -6
s-17.5 -10.833 -21.5 -20.5s-6 -24.5 -6 -44.5v-461c0 -20.667 1.83301 -35.667 5.5 -45s10.667 -15.666 21 -18.999s26.833 -5 49.5 -5c2.66699 0 4 -2 4 -6s-1.33301 -6 -4 -6c-21.333 -0 -38.333 0.333008 -51 1l-73 1l-71 -1c-12.667 -0.666992 -30.334 -1 -53.001 -1
c-1.33301 0 -2 2 -2 6s0.666992 6 2 6c22.667 0 39.167 1.66699 49.5 5s17.5 9.83301 21.5 19.5s6 24.5 6 44.5v463c0 20 -1.83301 34.667 -5.5 44zM224.003 334.999l70.0029 64l150 -199c45.333 -62 79.666 -105.833 102.999 -131.5s41.666 -41.5 54.999 -47.5
s31.333 -9 54 -9c2 0 3 -2 3 -6s-1 -6 -3 -6h-112l-39 -1c-9.33301 0 -17.333 2 -24 6s-14.334 11.333 -23.001 22s-24.667 31.667 -48 63l-41 55zM432.006 581.999c0 9.33301 -5.16699 16.833 -15.5 22.5s-25.5 8.5 -45.5 8.5c-1.33301 0 -2 2 -2 6s0.666992 6 2 6l45 -1
c29.333 -1.33301 56 -2 80 -2c26 0 52.333 0.666992 79 2l43 1c2 0 3 -2 3 -6s-1 -6 -3 -6c-29.333 0 -61.5 -7.83301 -96.5 -23.5s-66.833 -37.5 -95.5 -65.5l-256 -258l-27 2l258 262c20.667 20 31 37.333 31 52z" />
    <glyph glyph-name="L" unicode="L" horiz-adv-x="541" 
d="M208 46.5c3.33301 -8.33301 9.33398 -13.834 18.001 -16.501s22.667 -4 42 -4h60c47.333 0 87.333 13.167 120 39.5s54.334 61.833 65.001 106.5c0 1.33301 1.33301 2 4 2c1.33301 0 2.83301 -0.5 4.5 -1.5s2.5 -1.83301 2.5 -2.5c-6 -61.333 -9 -113 -9 -155
c0 -5.33301 -1 -9.16602 -3 -11.499s-6 -3.5 -12 -3.5h-468c-1.33301 0 -2 2 -2 6s0.666992 6 2 6c22.667 0 39.167 1.66699 49.5 5s17.333 9.83301 21 19.5s5.5 24.5 5.5 44.5v463c0 20 -1.83301 34.667 -5.5 44s-10.834 15.833 -21.501 19.5s-27 5.5 -49 5.5
c-1.33301 0 -2 2 -2 6s0.666992 6 2 6l51 -1c29.333 -1.33301 53.333 -2 72 -2c20 0 44.667 0.666992 74 2l50 1c2 0 3 -2 3 -6s-1 -6 -3 -6c-22 0 -38.333 -1.83301 -49 -5.5s-17.834 -10.334 -21.501 -20.001s-5.5 -24.5 -5.5 -44.5v-458
c0 -17.333 1.66699 -30.166 5 -38.499z" />
    <glyph glyph-name="M" unicode="M" horiz-adv-x="850" 
d="M128 602l27.001 -2l-11 -479c-0.666992 -35.333 6.16602 -62.333 20.499 -81s35.833 -28 64.5 -28c2 0 3 -2 3 -6s-1 -6 -3 -6c-18 -0 -32 0.333008 -42 1l-55 1l-59 -1c-10 -0.666992 -24 -1 -42 -1c-2 0 -3 2 -3 6s1 6 3 6c27.333 0 48.5 9.33301 63.5 28
s22.833 45.667 23.5 81zM828.001 6c0 -4 -0.668945 -6 -2.00195 -6c-22 -0 -39.667 0.333008 -53 1l-72 1l-70 -1c-12 -0.666992 -29 -1 -51 -1c-1.33301 0 -2 2 -2 6s0.666992 6 2 6c22 0 38.333 1.83301 49 5.5s17.667 10.167 21 19.5s4.33301 24 3 44l-21 457l44 69
l-256 -600c-1.33301 -2.66699 -4 -4 -8 -4c-3.33301 0 -6.33301 1.33301 -9 4l-271 535c-12 24.667 -25.667 42.667 -41 54s-33 17 -53 17c-2 0 -3 2 -3 6s1 6 3 6l43 -1c8.66699 -0.666992 20 -1 34 -1l46 1c6 0.666992 13 1 21 1c8.66699 0 15.667 -3.16699 21 -9.5
s13.666 -20.5 24.999 -42.5l225 -441l-43 -76l237 544c4 9.33301 8.33301 15.833 13 19.5s10.334 5.5 17.001 5.5c4.66699 0 10.667 -0.333008 18 -1s16.333 -1 27 -1l54 1c8.66699 0.666992 21.334 1 38.001 1c2 0 3 -2 3 -6s-1 -6 -3 -6
c-31.333 0 -54.166 -5.83301 -68.499 -17.5s-20.833 -30.834 -19.5 -57.501l22 -457c1.33301 -20.667 4 -35.667 8 -45s11 -15.666 21 -18.999s26.333 -5 49 -5c1.33301 0 2 -2 2 -6z" />
    <glyph glyph-name="N" unicode="N" horiz-adv-x="732" 
d="M125 602l26.9971 -2v-479c0 -35.333 6.83301 -62.333 20.5 -81s33.834 -28 60.501 -28c2 0 3 -2 3 -6s-1 -6 -3 -6c-17.333 -0 -30.666 0.333008 -39.999 1l-53 1l-59 -1c-10.667 -0.666992 -26 -1 -46 -1c-2 0 -3 2 -3 6s1 6 3 6c28.667 0 50.834 9.33301 66.501 28
s23.5 45.667 23.5 81v481zM627.997 -18c-3.33301 -0.666992 -5.66602 -0.333008 -6.99902 1l-481 560c-22.667 26 -42.667 44.167 -60 54.5s-34.333 15.5 -51 15.5c-2 0 -3 2 -3 6s1 6 3 6l40 -1c8 -0.666992 20 -1 36 -1l64 1c8 0.666992 17.333 1 28 1
c5.33301 0 9.33301 -1.33301 12 -4s6.66699 -8 12 -16c11.333 -15.333 19.666 -26 24.999 -32l379 -446l8 -141c0 -2 -1.66699 -3.33301 -5 -4zM632.997 -13.999l-26.999 30v487c0 35.333 -6.83301 62.5 -20.5 81.5s-33.834 28.5 -60.501 28.5c-1.33301 0 -2 2 -2 6
s0.666992 6 2 6l41 -1c21.333 -1.33301 39 -2 53 -2c12.667 0 31 0.666992 55 2l42 1c2 0 3 -2 3 -6s-1 -6 -3 -6c-26.667 0 -47.167 -9.5 -61.5 -28.5s-21.5 -46.167 -21.5 -81.5v-517z" />
    <glyph glyph-name="O" unicode="O" horiz-adv-x="766" 
d="M200.5 31.5c-48.333 29 -85.666 68.335 -111.999 118.002s-39.5 103.834 -39.5 162.501c0 68.667 17.333 127.5 52 176.5s79.167 85.833 133.5 110.5s109.833 37 166.5 37c63.333 0 119 -14.833 167 -44.5s84.833 -68.834 110.5 -117.501s38.5 -100.334 38.5 -155.001
c0 -60.667 -16 -116.334 -48 -167.001s-74.833 -90.667 -128.5 -120s-111.834 -44 -174.501 -44c-62 0 -117.167 14.5 -165.5 43.5zM507.5 44.502c31.667 21.667 56.667 53.501 75 95.501s27.5 92 27.5 150c0 62 -10.167 117.167 -30.5 165.5s-49.333 86.166 -87 113.499
s-81.834 41 -132.501 41c-65.333 0 -115.666 -23.167 -150.999 -69.5s-53 -110.5 -53 -192.5c0 -64 10.333 -121.5 31 -172.5s49.667 -91 87 -120s79.333 -43.5 126 -43.5c40 0 75.833 10.833 107.5 32.5z" />
    <glyph glyph-name="P" unicode="P" horiz-adv-x="549" 
d="M215.5 38.5c5 -9.66699 14.666 -16.501 28.999 -20.501s36.833 -6 67.5 -6c2 0 3 -2 3 -6s-1 -6 -3 -6c-27.333 0 -48.666 0.333008 -63.999 1l-87 1l-72 -1c-12.667 -0.666992 -30 -1 -52 -1c-2 0 -3 2 -3 6s1 6 3 6c22.667 0 39.167 1.66699 49.5 5
s17.333 9.83301 21 19.5s5.5 24.5 5.5 44.5v463c0 20 -1.83301 34.667 -5.5 44s-10.834 15.833 -21.501 19.5s-27 5.5 -49 5.5c-2 0 -3 2 -3 6s1 6 3 6l52 -1c29.333 -1.33301 53 -2 71 -2c15.333 0 34 1 56 3c8 0.666992 18.833 1.33398 32.5 2.00098s29.834 1 48.501 1
c65.333 0 117.333 -14 156 -42s58 -71 58 -129c0 -42 -10.833 -77.667 -32.5 -107s-49.334 -51.333 -83.001 -66s-68.167 -22 -103.5 -22c-18.667 0 -34.667 1.66699 -48 5c-1.33301 0 -2 1.66699 -2 5c0 2 0.5 4 1.5 6s2.16699 2.66699 3.5 2c10 -2.66699 21.667 -4 35 -4
c34.667 0 64 14.333 88 43s36 69.667 36 123c0 52.667 -12.167 93.5 -36.5 122.5s-58.5 43.5 -102.5 43.5c-16 0 -28.167 -1.66699 -36.5 -5s-14.166 -9.5 -17.499 -18.5s-5 -23.167 -5 -42.5v-457c0 -21.333 2.5 -36.833 7.5 -46.5z" />
    <glyph glyph-name="Q" unicode="Q" horiz-adv-x="766" 
d="M586 -123c43.333 -34.667 84.668 -52 124.001 -52c11.333 0 23 0.666992 35 2h1c1.33301 0 2.5 -1.5 3.5 -4.5s0.833008 -4.83301 -0.5 -5.5c-30 -8 -57.333 -12 -82 -12c-51.333 0 -104.833 17.333 -160.5 52s-102.834 83 -141.501 145l116 8
c26.667 -54 61.667 -98.333 105 -133zM200.502 31.5c-48.333 29 -85.666 68.335 -111.999 118.002s-39.5 103.834 -39.5 162.501c0 68.667 17.333 127.5 52 176.5s79.167 85.833 133.5 110.5s109.833 37 166.5 37c63.333 0 119 -14.833 167 -44.5
s84.833 -68.834 110.5 -117.501s38.5 -100.334 38.5 -155.001c0 -60.667 -16 -116.334 -48 -167.001s-74.833 -90.667 -128.5 -120s-111.834 -44 -174.501 -44c-62 0 -117.167 14.5 -165.5 43.5zM507.502 44.502c31.667 21.667 56.667 53.501 75 95.501s27.5 92 27.5 150
c0 62 -10.167 117.167 -30.5 165.5s-49.333 86.166 -87 113.499s-81.834 41 -132.501 41c-65.333 0 -115.666 -23.167 -150.999 -69.5s-53 -110.5 -53 -192.5c0 -64 10.333 -121.5 31 -172.5s49.667 -91 87 -120s79.333 -43.5 126 -43.5c40 0 75.833 10.833 107.5 32.5z" />
    <glyph glyph-name="R" unicode="R" horiz-adv-x="689" 
d="M449.5 84c-43 56 -95.166 134 -156.499 234l80 24c56 -83.333 102.833 -148.5 140.5 -195.5s71.167 -81.167 100.5 -102.5s57.666 -32 84.999 -32c1.33301 0 2 -2 2 -6s-0.666992 -6 -2 -6h-161c-16 0 -45.5 28 -88.5 84zM445.001 593.5
c32 -23 48.0039 -54.502 48.0039 -94.502c0 -37.333 -10.667 -71 -32 -101s-49.5 -53.5 -84.5 -70.5s-71.833 -25.5 -110.5 -25.5c-14 0 -31 0.666992 -51 2v-223c0 -20.667 1.66699 -35.667 5 -45s10.166 -15.666 20.499 -18.999s27.166 -5 50.499 -5c1.33301 0 2 -2 2 -6
s-0.666992 -6 -2 -6c-22 0 -39.333 0.333008 -52 1l-73 1l-72 -1c-12.667 -0.666992 -30 -1 -52 -1c-2 0 -3 2 -3 6s1 6 3 6c22.667 0 39.167 1.66699 49.5 5s17.5 9.83301 21.5 19.5s6 24.5 6 44.5v463c0 20 -1.83301 34.667 -5.5 44s-10.834 15.833 -21.501 19.5
s-27 5.5 -49 5.5c-1.33301 0 -2 2 -2 6s0.666992 6 2 6l52 -1c29.333 -1.33301 53 -2 71 -2c22 0 46 1 72 3c8.66699 0.666992 19.167 1.33398 31.5 2.00098s26.166 1 41.499 1c57.333 0 102 -11.5 134 -34.5zM366.505 576.998c-18.333 21.333 -44.832 32 -79.499 32
c-26.667 0 -45.334 -4.83301 -56.001 -14.5s-16 -27.167 -16 -52.5v-211c16 -2.66699 35.333 -4 58 -4c43.333 0 74.333 10.833 93 32.5s28 56.5 28 104.5c0 54 -9.16699 91.667 -27.5 113z" />
    <glyph glyph-name="S" unicode="S" horiz-adv-x="507" 
d="M182.5 453.5c12.333 -19 27.5 -35.334 45.5 -49.001s42.667 -30.5 74 -50.5c34 -21.333 60.833 -39.666 80.5 -54.999s36.5 -34.166 50.5 -56.499s21 -48.5 21 -78.5c0 -34 -8.83301 -64.333 -26.5 -91s-42.667 -47.5 -75 -62.5s-69.166 -22.5 -110.499 -22.5
c-28 0 -56.833 3.66699 -86.5 11s-52.167 16.333 -67.5 27c-6 4 -9.33301 10.333 -10 19l-6 151v1c0 2.66699 1.66699 4.16699 5 4.5s5.33301 -0.833984 6 -3.50098c22 -54.667 47.167 -99.667 75.5 -135s64.166 -53 107.499 -53c29.333 0 53.666 7.83301 72.999 23.5
s29 41.834 29 78.501c0 29.333 -6.5 55 -19.5 77s-29 40.333 -48 55s-44.833 32.667 -77.5 54c-32 20.667 -57 38.167 -75 52.5s-33.333 32 -46 53s-19 45.5 -19 73.5c0 34.667 9.66699 64 29 88s44.5 41.833 75.5 53.5s63.5 17.5 97.5 17.5c22 0 44.333 -2.16699 67 -6.5
s42 -9.83301 58 -16.5c10 -4 15 -10.333 15 -19l2 -135c0 -2.66699 -1.5 -4.33398 -4.5 -5.00098s-5.16699 0 -6.5 2c-13.333 40.667 -31.166 77.5 -53.499 110.5s-55.833 49.5 -100.5 49.5c-30 0 -53.833 -8.83301 -71.5 -26.5s-26.5 -41.167 -26.5 -70.5
c0 -24.667 6.16699 -46.5 18.5 -65.5z" />
    <glyph glyph-name="T" unicode="T" horiz-adv-x="640" 
d="M110 566.5c-26 -25 -45.9971 -62.498 -59.9971 -112.498c0 -2 -1.83301 -2.83301 -5.5 -2.5s-5.5 1.16602 -5.5 2.49902c2.66699 26 5.66699 59.5 9 100.5s5 71.833 5 92.5c0 3.33301 1.83301 5 5.5 5s5.5 -1.66699 5.5 -5c0 -14.667 18.667 -22 56 -22
c57.333 -2 124.333 -3 201 -3c39.333 0 81 0.666992 125 2l68 1c25.333 0 43.833 1.66699 55.5 5s19.167 10 22.5 20c0.666992 2.66699 2.66699 4 6 4s5 -1.33301 5 -4c-2 -20.667 -4 -52 -6 -94s-3 -76 -3 -102c0 -1.33301 -1.83301 -2 -5.5 -2
s-5.83398 0.666992 -6.50098 2c-6.66699 51.333 -22.334 89.166 -47.001 113.499s-58 36.5 -100 36.5c-18.667 0 -32.5 -1.66699 -41.5 -5s-15.167 -9.16602 -18.5 -17.499s-5 -21.5 -5 -39.5v-461c0 -20 2.16699 -34.833 6.5 -44.5s12.5 -16.167 24.5 -19.5s31 -5 57 -5
c2 0 3 -2 3 -6s-1 -6 -3 -6c-23.333 0 -41.666 0.333008 -54.999 1l-82 1l-78 -1c-14 -0.666992 -33.333 -1 -58 -1c-1.33301 0 -2 2 -2 6s0.666992 6 2 6c26 0 45.167 1.66699 57.5 5s20.666 9.83301 24.999 19.5s6.5 24.5 6.5 44.5v463
c0 17.333 -1.66699 30.166 -5 38.499s-9.33301 14 -18 17s-22.334 4.5 -41.001 4.5c-40.667 0 -74 -12.5 -100 -37.5z" />
    <glyph glyph-name="U" unicode="U" horiz-adv-x="760" 
d="M551.5 586.5c-3.66699 9.66699 -10.666 16.5 -20.999 20.5s-26.833 6 -49.5 6c-1.33301 0 -2 2 -2 6s0.666992 6 2 6l51 -1c29.333 -1.33301 52.666 -2 69.999 -2c18.667 0 42.667 0.666992 72 2l52 1c2 0 3 -2 3 -6s-1 -6 -3 -6c-22.667 0 -39.167 -1.83301 -49.5 -5.5
s-17.5 -10.167 -21.5 -19.5s-6 -24 -6 -44v-463c0 -20 2 -34.833 6 -44.5s11.167 -16.167 21.5 -19.5s26.833 -5 49.5 -5c2 0 3 -2 3 -6s-1 -6 -3 -6l-86 1l-64 -1c-8 0 -13.167 1 -15.5 3s-3.5 7.33301 -3.5 16v523c0 20 -1.83301 34.833 -5.5 44.5zM470.501 25
c-43 -24.667 -90.8301 -36.999 -143.497 -36.999c-43.333 0 -82.333 8.16699 -117 24.5s-62 39.333 -82 69s-30 64.5 -30 104.5v358c0 20 -1.83301 34.667 -5.5 44s-10.834 15.833 -21.501 19.5s-27 5.5 -49 5.5c-2 0 -3 2 -3 6s1 6 3 6l52 -1
c29.333 -1.33301 52.666 -2 69.999 -2c19.333 0 44.333 0.666992 75 2l50 1c1.33301 0 2 -2 2 -6s-0.666992 -6 -2 -6c-22 0 -38.333 -2 -49 -6s-18 -10.833 -22 -20.5s-6 -24.5 -6 -44.5v-321c0 -63.333 15.5 -112 46.5 -146s72.5 -51 124.5 -51
c40 0 78.167 10.167 114.5 30.5s76.166 53.833 119.499 100.5l12 -11c-49.333 -54.667 -95.5 -94.334 -138.5 -119.001z" />
    <glyph glyph-name="V" unicode="V" horiz-adv-x="662" 
d="M669 619c0 -4 -1 -6 -3 -6c-23.333 0 -45 -9 -65 -27s-36.333 -44 -49 -78l-195 -507c-0.666992 -2.66699 -4.33398 -4 -11.001 -4s-10.334 1.33301 -11.001 4l-253 541c-12 24.667 -24 42.667 -36 54s-26.333 17 -43 17c-2 0 -3 2 -3 6s1 6 3 6l26 -1
c16 -1.33301 32.667 -2 50 -2c46.667 0 88.667 0.666992 126 2c10.667 0.666992 24 1 40 1c2 0 3 -2 3 -6s-1 -6 -3 -6c-20 0 -35.333 -3.66699 -46 -11s-16 -18 -16 -32c0 -12 3.33301 -24.667 10 -38l193 -418l-41 -69l180 467c6 16 9 30.333 9 43
c0 18.667 -6.16699 33 -18.5 43s-30.5 15 -54.5 15c-2 0 -3 2 -3 6s1 6 3 6l46 -1c26.667 -1.33301 50.334 -2 71.001 -2c12.667 0 28.334 0.666992 47.001 2l41 1c2 0 3 -2 3 -6z" />
    <glyph glyph-name="W" unicode="W" horiz-adv-x="910" 
d="M473 583l-180.996 -582c-0.666992 -2.66699 -4.33398 -4 -11.001 -4c-7.33301 0 -11.333 1.33301 -12 4l-187 541c-10 28 -20.667 46.833 -32 56.5s-27 14.5 -47 14.5c-2 0 -3 2 -3 6s1 6 3 6l26 -1c16 -1.33301 32.667 -2 50 -2c42 0 82.333 0.666992 121 2
c11.333 0.666992 24.666 1 39.999 1c2 0 3 -2 3 -6s-1 -6 -3 -6c-40.667 0 -61 -15 -61 -45c0 -10.667 2.33301 -22.667 7 -36l137 -398l-45 -91l181 582c2 2 6 3 12 3c6.66699 0 10.334 -1 11.001 -3l201 -496l-42 -86l129 462c4.66699 18.667 7 33 7 43
c0 43.333 -28 65 -84 65c-1.33301 0 -2 2 -2 6s0.666992 6 2 6l54 -1c32 -1.33301 58.333 -2 79 -2c13.333 0 28.666 0.666992 45.999 2l43 1c1.33301 0 2 -2 2 -6s-0.666992 -6 -2 -6c-24.667 0 -47.834 -9 -69.501 -27s-37.167 -44 -46.5 -78l-144 -507
c0 -2.66699 -3.66699 -4 -11 -4c-6.66699 0 -10.334 1.33301 -11.001 4l-202 502z" />
    <glyph glyph-name="X" unicode="X" horiz-adv-x="649" 
d="M404 6c0 4 0.999023 6.00098 2.99902 6.00098c26 0 39 5.66699 39 17c0 6 -3 13.333 -9 22l-314 484c-18 28 -35.5 48 -52.5 60s-35.5 18 -55.5 18c-2 0 -3 2 -3 6s1 6 3 6l41 -1c18.667 -1.33301 32.334 -2 41.001 -2c22.667 0 51.334 0.666992 86.001 2l55 1
c1.33301 0 2 -2 2 -6s-0.666992 -6 -2 -6c-13.333 0 -23.333 -1.16699 -30 -3.5s-10 -6.83301 -10 -13.5s3 -14.334 9 -23.001l319 -490c17.333 -25.333 34.666 -43.5 51.999 -54.5s38.333 -16.5 63 -16.5c2 0 3 -2 3 -6s-1 -6 -3 -6c-18.667 -0 -33 0.333008 -43 1l-59 1
l-81 -1c-12 -0.666992 -29 -1 -51 -1c-2 0 -3 2 -3 6zM5.99902 6.00098c0 4 1.00098 6.00098 3.00098 6.00098c21.333 0 45.666 9.83301 72.999 29.5s55.666 49.5 84.999 89.5l133 180l16 -13l-121 -171c-22.667 -32.667 -34 -58.334 -34 -77.001
c0 -12 4.66699 -21.333 14 -28s23 -10 41 -10c1.33301 0 2 -2 2 -6s-0.666992 -6 -2 -6c-21.333 0 -37.666 0.333008 -48.999 1l-72 1l-46 -1c-8 -0.666992 -21.333 -1 -40 -1c-2 0 -3 2 -3 6zM318 326.002l119.001 168.999c23.333 33.333 35 60 35 80
c0 25.333 -18 38 -54 38c-1.33301 0 -2 2 -2 6s0.666992 6 2 6l49 -1c26.667 -1.33301 50.667 -2 72 -2c13.333 0 28.666 0.666992 45.999 2l40 1c2 0 3 -2 3 -6s-1 -6 -3 -6c-22 0 -47 -10.167 -75 -30.5s-56.667 -51.166 -86 -92.499l-130 -177z" />
    <glyph glyph-name="Y" unicode="Y" horiz-adv-x="616" 
d="M469 569c0 29.333 -18.333 44 -55 44c-1.33301 0 -2 2 -2 6s0.666992 6 2 6l52 -1c28 -1.33301 53.667 -2 77 -2c11.333 0 25 0.666992 41 2l37 1c1.33301 0 2 -2 2 -6s-0.666992 -6 -2 -6c-22 0 -47 -11.5 -75 -34.5s-53 -52.5 -75 -88.5l-139 -225l-20 16l132 217
c16.667 27.333 25 51 25 71zM50.5 592.5c-16.333 13.667 -32.168 20.5 -47.501 20.5c-2 0 -3 2 -3 6s1 6 3 6l33 -1c14.667 -1.33301 25.334 -2 32.001 -2c22 0 53.667 0.666992 95 2l63 1c1.33301 0 2 -2 2 -6s-0.666992 -6 -2 -6c-28 0 -42 -9 -42 -27
c0 -8 4.33301 -19 13 -33l153 -235l-80 -45l-161 246c-22.667 35.333 -42.167 59.833 -58.5 73.5zM356.998 319v-238.001c0 -20.667 1.66699 -35.667 5 -45s10.166 -15.666 20.499 -18.999s26.833 -5 49.5 -5c2 0 3 -2 3 -6s-1 -6 -3 -6c-21.333 -0 -38 0.333008 -50 1
l-73 1l-72 -1c-13.333 -0.666992 -31 -1 -53 -1c-1.33301 0 -2 2 -2 6s0.666992 6 2 6c22.667 0 39.334 1.66699 50.001 5s18 9.83301 22 19.5s6 24.5 6 44.5v229z" />
    <glyph glyph-name="Z" unicode="Z" horiz-adv-x="602" 
d="M427 606c0 1.33301 -2.67285 2.00098 -8.00586 2.00098c-90 0 -155.667 -2.5 -197 -7.5s-73.166 -15.833 -95.499 -32.5s-42.166 -44.334 -59.499 -83.001c0 -1.33301 -1.33301 -2 -4 -2c-2 0 -4 0.5 -6 1.5s-2.66699 1.83301 -2 2.5l40 168c0 0.666992 1.33301 1 4 1
c6.66699 0 9.33398 -1 8.00098 -3c-0.666992 -2 -1 -4.66699 -1 -8c0 -8 3.83301 -13.333 11.5 -16s23.167 -4 46.5 -4h365c3.33301 0 5.83301 -1.66699 7.5 -5s1.5 -6 -0.5 -8l-361 -585l-3 -6c0 -1.33301 2.66699 -2 8 -2h220c38.667 0 72.334 12 101.001 36
s46.334 54.667 53.001 92c0.666992 1.33301 2.66699 2 6 2s5 -0.666992 5 -2l-14 -139c0 -2 -0.833008 -4.16699 -2.5 -6.5s-3.83398 -3.5 -6.50098 -3.5c-99.333 1.33301 -258.666 2 -477.999 2c-3.33301 0 -5.66602 1.5 -6.99902 4.5s-1 5.83301 1 8.5l366 587z" />
    <glyph glyph-name="bracketleft" unicode="[" horiz-adv-x="274" 
d="M75.5 723.5c1 1 3.5 1.5 7.5 1.5h153c2 0 3 -2 3 -6s-1 -6 -3 -6c-22.667 0 -39.334 -2 -50.001 -6s-17.834 -10.833 -21.501 -20.5s-5.5 -24.5 -5.5 -44.5v-676c0 -20 1.83301 -34.833 5.5 -44.5s10.834 -16.5 21.501 -20.5s27.334 -6 50.001 -6c2 0 3 -2 3 -6
s-1 -6 -3 -6h-153c-4 0 -6.5 0.666992 -7.5 2s-1.5 4.33301 -1.5 9v821c0 4.66699 0.5 7.5 1.5 8.5z" />
    <glyph glyph-name="backslash" unicode="\" horiz-adv-x="348" 
d="M46 728c14.667 4 22.666 4.66699 23.999 2l252 -882c0.666992 -2.66699 -6.33301 -6 -21 -10s-22.667 -4.66699 -24 -2l-251 881c-1.33301 3.33301 5.33398 7 20.001 11z" />
    <glyph glyph-name="bracketright" unicode="]" horiz-adv-x="274" 
d="M198.5 -115c-1 -1.33301 -3.5 -2 -7.5 -2h-153c-2 0 -3 2 -3 6s1 6 3 6c22.667 0 39.334 2 50.001 6s17.834 10.833 21.501 20.5s5.5 24.5 5.5 44.5v676c0 20 -1.83301 34.833 -5.5 44.5s-10.834 16.5 -21.501 20.5s-27.334 6 -50.001 6c-2 0 -3 2 -3 6s1 6 3 6h153
c4 0 6.5 -0.5 7.5 -1.5s1.5 -3.83301 1.5 -8.5v-821c0 -4.66699 -0.5 -7.66699 -1.5 -9z" />
    <glyph glyph-name="asciicircum" unicode="^" horiz-adv-x="392" 
d="M333 379c0 -1.33301 -1.33398 -2.66602 -4.00098 -3.99902s-4.33398 -1.33301 -5.00098 0l-128 147l-128 -147c-0.666992 -0.666992 -1.66699 -1 -3 -1c-2 0 -3.83301 0.666992 -5.5 2s-2.16699 2.66602 -1.5 3.99902l127 249c0.666992 3.33301 4.33398 5 11.001 5
s10.334 -1.66699 11.001 -5l126 -249v-1z" />
    <glyph glyph-name="underscore" unicode="_" horiz-adv-x="398" 
d="M30.5 -71c-1 5.33301 -1.5 11.001 -1.5 17.001c0 5.33301 0.333008 10.166 1 14.499s1.66699 6.5 3 6.5h331c1.33301 0 2.5 -2.5 3.5 -7.5s1.5 -10.167 1.5 -15.5c0 -6 -0.5 -11.333 -1.5 -16s-2.16699 -7 -3.5 -7h-330c-1.33301 0 -2.5 2.66699 -3.5 8z" />
    <glyph glyph-name="grave" unicode="`" horiz-adv-x="213" 
d="M42 731c12.667 0 27.8311 -1.83203 45.498 -5.49902s26.834 -6.83398 27.501 -9.50098l39 -240c0.666992 -1.33301 -0.666016 -2.5 -3.99902 -3.5s-5.33301 -0.5 -6 1.5l-114 253c-0.666992 2.66699 3.33301 4 12 4z" />
    <glyph glyph-name="a" unicode="a" horiz-adv-x="490" 
d="M107 8.5c-22.667 13.667 -40.667 33.667 -54 60s-20 57.833 -20 94.5c0 47.333 11.167 88.833 33.5 124.5s51.333 63 87 82s72.834 28.5 111.501 28.5c24 0 46.667 -4 68 -12s39.666 -19.667 54.999 -35l-62 -61c0 25.333 -8.33301 46.333 -25 63s-37.334 25 -62.001 25
c-35.333 0 -63.333 -17 -84 -51s-31 -78 -31 -132c0 -50 9 -89.333 27 -118s43 -43 75 -43c35.333 0 74.333 19.333 117 58l8 -7c-29.333 -30.667 -56.666 -54.5 -81.999 -71.5s-54.666 -25.5 -87.999 -25.5c-26.667 0 -51.334 6.83301 -74.001 20.5zM334.5 14
c-5.66699 17.333 -8.49902 39.668 -8.49902 67.001v279c19.333 5.33301 33.666 10.166 42.999 14.499s18.666 11.833 27.999 22.5c0.666992 0.666992 1.66699 1 3 1s2.83301 -0.5 4.5 -1.5s2.5 -2.16699 2.5 -3.5v-285c0 -20.667 2.33301 -35.5 7 -44.5
s12.334 -13.5 23.001 -13.5c9.33301 0 24.333 4.33301 45 13h1c2.66699 0 4.83398 -1.5 6.50098 -4.5s1.5 -5.16699 -0.5 -6.5l-131 -63c-1.33301 -0.666992 -3 -1 -5 -1c-6.66699 0 -12.834 8.66699 -18.501 26z" />
    <glyph glyph-name="b" unicode="b" horiz-adv-x="514" 
d="M108 46l57.9961 106.999c0 -34 6.5 -62 19.5 -84s29 -37.833 48 -47.5s37.5 -14.5 55.5 -14.5c32.667 0 57.667 14.667 75 44s26 71 26 125c0 58.667 -10.333 102.834 -31 132.501s-49 44.5 -85 44.5c-38 0 -78.333 -19.333 -121 -58l-9 8
c28.667 30 55.834 53.5 81.501 70.5s55.834 25.5 90.501 25.5c29.333 0 56.5 -7 81.5 -21s45 -35 60 -63s22.5 -62 22.5 -102c0 -48 -10.167 -89 -30.5 -123s-47.166 -59.667 -80.499 -77s-68.666 -26 -105.999 -26c-59.333 0 -111 19.667 -155 59zM35.9961 -6.00098
c-2.66699 0 -4.33398 1.16992 -5.00098 3.50293s0 4.16602 2 5.49902c18 11.333 31.167 24.5 39.5 39.5s12.5 35.167 12.5 60.5v489c0 23.333 -2.16699 40.166 -6.5 50.499s-12.166 15.5 -23.499 15.5c-10.667 0 -24 -4 -40 -12h-1c-2.66699 0 -4.66699 1.66699 -6 5
s-1.33301 5.66602 0 6.99902l139 66l5 1c2.66699 0 5.66699 -1.33301 9 -4s5 -5 5 -7v-661l-128 -59h-2z" />
    <glyph glyph-name="c" unicode="c" horiz-adv-x="420" 
d="M122.5 16.5c-30.333 19 -52.8398 43.666 -67.5068 73.999s-22 62.166 -22 95.499c0 42 11.333 78.833 34 110.5s51.834 56 87.501 73s71.834 25.5 108.501 25.5c31.333 0 59.5 -6.33301 84.5 -19s37.5 -29.667 37.5 -51c0 -11.333 -4.16699 -21 -12.5 -29
s-20.166 -12 -35.499 -12c-26 0 -44.333 14.667 -55 44c-6 16.667 -12.833 28.5 -20.5 35.5s-19.5 10.5 -35.5 10.5c-31.333 0 -56.166 -14.167 -74.499 -42.5s-27.5 -66.166 -27.5 -113.499c0 -55.333 12.833 -100.166 38.5 -134.499s65.834 -51.5 120.501 -51.5
c18 0 34.5 2.33301 49.5 7s31.167 12 48.5 22h1c2 0 3.83301 -1 5.5 -3s1.83398 -3.66699 0.500977 -5c-24.667 -22 -49 -38.333 -73 -49s-51.333 -16 -82 -16c-43.333 0 -80.166 9.5 -110.499 28.5z" />
    <glyph glyph-name="d" unicode="d" horiz-adv-x="511" 
d="M111 10.5c-24 15.667 -42.9941 38.1689 -56.9941 67.502s-21 63.666 -21 102.999c0 49.333 11.667 90.333 35 123s52.666 56.667 87.999 72s70.666 23 105.999 23c43.333 0 84.333 -12 123 -36l-19 -76c-16 30 -33.5 52.167 -52.5 66.5s-42.5 21.5 -70.5 21.5
c-38 0 -67.5 -13.333 -88.5 -40s-31.5 -67.667 -31.5 -123c0 -56 11 -100.167 33 -132.5s50 -48.5 84 -48.5c25.333 0 48.166 6.66699 68.499 20s42.166 32.666 65.499 57.999l9 -8c-30.667 -34 -60.834 -61.5 -90.501 -82.5s-63.834 -31.5 -102.501 -31.5
c-28.667 0 -55 7.83301 -79 23.5zM434.006 64.502c4.66699 -9.66699 12.665 -14.499 23.998 -14.499c13.333 0 28.333 4 45 12h1c2 0 3.83301 -1.66699 5.5 -5s1.5 -5.33301 -0.5 -6l-128 -62l-6 -1c-8 0 -14.833 8.33301 -20.5 25s-8.5 39.667 -8.5 69v510
c0 23.333 -2.16699 40.166 -6.5 50.499s-12.166 15.5 -23.499 15.5c-7.33301 0 -20.666 -4 -39.999 -12h-2c-2.66699 0 -4.66699 1.66699 -6 5s-1 5.33301 1 6l140 67l4 1c2.66699 0 5.66699 -1.33301 9 -4s5 -5 5 -7v-600c0 -23.333 2.33301 -39.833 7 -49.5z" />
    <glyph glyph-name="e" unicode="e" horiz-adv-x="414" 
d="M124.5 15c-29.667 18 -52.333 41.666 -68 70.999s-23.5 61 -23.5 95c0 39.333 9.66699 75.333 29 108s45.833 58.5 79.5 77.5s71.167 28.5 112.5 28.5c40 0 70.833 -9.66699 92.5 -29s32.5 -48 32.5 -86c0 -10 -0.833008 -17.333 -2.5 -22s-4.5 -7 -8.5 -7h-82
c3.33301 82.667 -19.334 124 -68.001 124c-30 0 -53.5 -13.667 -70.5 -41s-25.5 -64.333 -25.5 -111c0 -58.667 13.667 -105.167 41 -139.5s66 -51.5 116 -51.5c18.667 0 34.334 2.33301 47.001 7s29.334 12.334 50.001 23.001l2 1c1.33301 0 2.83301 -1.33301 4.5 -4
s1.83398 -4.66699 0.500977 -6c-24 -22.667 -48.333 -39.167 -73 -49.5s-51.334 -15.5 -80.001 -15.5c-40.667 0 -75.834 9 -105.501 27zM92.001 266.999l222 4v-20l-221 -1z" />
    <glyph glyph-name="f" unicode="f" horiz-adv-x="305" 
d="M25 6c0 4 1.33398 5.99805 4.00098 5.99805c18 0 31.333 1.83301 40 5.5s14.667 10.167 18 19.5s5 24 5 44v225c0 22 -4.33301 36 -13 42s-26.667 9 -54 9c-2 0 -3 3 -3 9c0 5.33301 1 8 3 8c24.667 0 41.5 3.16699 50.5 9.5s13.833 17.833 14.5 34.5
c3.33301 108.667 23.666 187.167 60.999 235.5s93.333 72.5 168 72.5c36.667 0 65.334 -5.16699 86.001 -15.5s31 -24.166 31 -41.499c0 -13.333 -4.5 -23.833 -13.5 -31.5s-19.5 -11.5 -31.5 -11.5c-13.333 0 -23.333 3 -30 9s-13.334 15.333 -20.001 28
c-7.33301 14 -15.333 24.5 -24 31.5s-20.667 10.5 -36 10.5c-33.333 0 -59.666 -21.667 -78.999 -65s-29 -110.333 -29 -201v-358c0 -20.667 2.16699 -35.667 6.5 -45s12.666 -15.666 24.999 -18.999s32.5 -5 60.5 -5c2.66699 0 4 -2 4 -6s-1.33301 -6 -4 -6l-67 1
c-14.667 0.666992 -37 1 -67 1l-59 -1c-10 -0.666992 -24.333 -1 -43 -1c-2.66699 0 -4 2 -4 6zM136.001 351.998v24.001c40.667 0 91.667 3.33301 153 10c2 0 3.66699 -2.33301 5 -7s2 -10.334 2 -17.001c0 -6 -1 -12 -3 -18s-4.33301 -8.66699 -7 -8
c-46 10.667 -96 16 -150 16z" />
    <glyph glyph-name="g" unicode="g" horiz-adv-x="468" 
d="M94 -260.5c-27.333 13.667 -40.999 32.166 -40.999 55.499c0 15.333 4.33301 26.5 13 33.5s19 10.5 31 10.5c15.333 0 27 -3.66699 35 -11s16.333 -18.666 25 -33.999c10 -17.333 20.667 -30.666 32 -39.999s28 -14 50 -14c26.667 0 47.834 12 63.501 36
s23.5 67.333 23.5 130v454c19.333 5.33301 33.666 10.166 42.999 14.499s18.666 11.833 27.999 22.5c0.666992 0.666992 1.66699 1 3 1s2.83301 -0.5 4.5 -1.5s2.5 -2.16699 2.5 -3.5v-463c0 -63.333 -18.333 -114.333 -55 -153s-87.667 -58 -153 -58
c-42.667 0 -77.667 6.83301 -105 20.5zM107.001 8.49902c-22.667 13.667 -40.667 33.667 -54 60s-20 57.833 -20 94.5c0 47.333 11.167 88.833 33.5 124.5s51.333 63 87 82s72.834 28.5 111.501 28.5c24 0 46.667 -4 68 -12s39.666 -19.667 54.999 -35l-62 -61
c0 25.333 -8.33301 46.333 -25 63s-37.334 25 -62.001 25c-35.333 0 -63.333 -17 -84 -51s-31 -78 -31 -132c0 -50 9 -89.333 27 -118s43 -43 75 -43c35.333 0 74.333 19.333 117 58l8 -7c-29.333 -30.667 -56.666 -54.5 -81.999 -71.5s-54.666 -25.5 -87.999 -25.5
c-26.667 0 -51.334 6.83301 -74.001 20.5z" />
    <glyph glyph-name="h" unicode="h" horiz-adv-x="505" 
d="M20 6c0 4 0.999023 6 2.99902 6c22.667 0 37.834 4.66699 45.501 14s11.5 27.666 11.5 54.999v511c0 23.333 -2.33301 40.166 -7 50.499s-12.334 15.5 -23.001 15.5c-10 0 -23.667 -4 -41 -12h-1c-2 0 -3.83301 1.83301 -5.5 5.5s-1.5 5.83398 0.5 6.50098l139 66l5 1
c2.66699 0 5.5 -1.33301 8.5 -4s4.5 -5 4.5 -7v-633c0 -27.333 3.83301 -45.666 11.5 -54.999s22.834 -14 45.501 -14c2.66699 0 4 -2 4 -6s-1.33301 -6 -4 -6c-16.667 -0 -30 0.333008 -40 1l-57 1l-57 -1c-10 -0.666992 -23.333 -1 -40 -1c-2 0 -3 2 -3 6zM288.999 6
c0 4 0.998047 6 2.99805 6c22.667 0 37.834 4.66699 45.501 14s11.5 27.666 11.5 54.999v149c0 37.333 -7 65 -21 83s-35.667 27 -65 27c-22 0 -44 -6.16699 -66 -18.5s-40.333 -28.5 -55 -48.5l-5 12c53.333 74.667 112 112 176 112c36 0 64.333 -11 85 -33s31 -52 31 -90
v-193c0 -27.333 3.83301 -45.666 11.5 -54.999s22.834 -14 45.501 -14c2.66699 0 4 -2 4 -6s-1.33301 -6 -4 -6c-16.667 -0 -30 0.333008 -40 1l-57 1l-57 -1c-10 -0.666992 -23.333 -1 -40 -1c-2 0 -3 2 -3 6z" />
    <glyph glyph-name="i" unicode="i" horiz-adv-x="266" 
d="M41 6c0 4 0.998047 6.00098 2.99805 6.00098c22.667 0 37.834 4.66699 45.501 14s11.5 27.666 11.5 54.999v182c0 22.667 -2.33301 39.167 -7 49.5s-12.667 15.5 -24 15.5c-10.667 0 -24 -4 -40 -12h-1c-2.66699 0 -4.66699 1.66699 -6 5s-1 5.66602 1 6.99902l144 67
l3 1c2.66699 0 5.5 -1.5 8.5 -4.5s4.5 -5.5 4.5 -7.5v-21c-1.33301 -28 -2 -61 -2 -99v-183c0 -27.333 3.83301 -45.666 11.5 -54.999s22.834 -14 45.501 -14c2 0 3 -2 3 -6s-1 -6 -3 -6c-16.667 -0 -30 0.333008 -40 1l-58 1l-58 -1c-9.33301 -0.666992 -22.333 -1 -39 -1
c-2 0 -3 2 -3 6zM95.498 515.001c-9.66699 9.33301 -14.5 22.666 -14.5 39.999c0 16 4.83301 28.667 14.5 38s23.167 14 40.5 14c16.667 0 29.5 -4.66699 38.5 -14s13.5 -22 13.5 -38c0 -17.333 -4.5 -30.666 -13.5 -39.999s-21.833 -14 -38.5 -14
c-17.333 0 -30.833 4.66699 -40.5 14z" />
    <glyph glyph-name="j" unicode="j" horiz-adv-x="261" 
d="M181 363c-1.33301 -28 -1.99707 -61 -1.99707 -99v-312c0 -45.333 -5.16699 -82.5 -15.5 -111.5s-27.333 -53.167 -51 -72.5s-56.5 -36 -98.5 -50c-1.33301 -0.666992 -2.83301 0.833008 -4.5 4.5s-1.83398 5.83398 -0.500977 6.50098c32.667 14 55.667 36.333 69 67
s20 75 20 133v334c0 22.667 -2.33301 39.167 -7 49.5s-12.334 15.5 -23.001 15.5s-24 -4 -40 -12h-1c-2.66699 0 -4.83398 1.66699 -6.50098 5s-1.5 5.66602 0.5 6.99902l144 67l3 1c2.66699 0 5.5 -1.5 8.5 -4.5s4.5 -5.5 4.5 -7.5v-21zM90.5029 515.5
c-9.66699 9.66699 -14.5 22.832 -14.5 39.499c0 16 5 28.667 15 38s23.333 14 40 14s29.667 -4.66699 39 -14s14 -22 14 -38c0 -17.333 -4.66699 -30.666 -14 -39.999s-22.333 -14 -39 -14c-17.333 0 -30.833 4.83301 -40.5 14.5z" />
    <glyph glyph-name="k" unicode="k" horiz-adv-x="491" 
d="M20 6c0 4 0.999023 6 2.99902 6c22.667 0 37.834 4.66699 45.501 14s11.5 27.666 11.5 54.999v511c0 23.333 -2.33301 40.166 -7 50.499s-12.334 15.5 -23.001 15.5c-10 0 -23.667 -4 -41 -12h-1c-2 0 -3.83301 1.83301 -5.5 5.5s-1.5 5.83398 0.5 6.50098l139 66l5 1
c2.66699 0 5.5 -1.33301 8.5 -4s4.5 -5 4.5 -7v-633c0 -27.333 3.83301 -45.666 11.5 -54.999s22.834 -14 45.501 -14c2.66699 0 4 -2 4 -6s-1.33301 -6 -4 -6c-16.667 -0 -30 0.333008 -40 1l-57 1l-57 -1c-10 -0.666992 -23.333 -1 -40 -1c-2 0 -3 2 -3 6zM271.999 6
c0 4 0.666016 6 1.99902 6c28 0 42 6.66699 42 20c0 6 -3 13 -9 21l-123 161l60 46l137 -179c34.667 -46 71.667 -69 111 -69c2 0 3 -2 3 -6s-1 -6 -3 -6c-16.667 -0 -30 0.333008 -40 1l-57 1l-75 -1c-11.333 -0.666992 -26.666 -1 -45.999 -1c-1.33301 0 -2 2 -2 6z
M124.998 170l141.999 129c18.667 16 28 31.667 28 47c0 8 -3.83301 14.667 -11.5 20s-18.5 8 -32.5 8c-2 0 -3 2 -3 6s1 6 3 6c18.667 0 33.334 -0.333008 44.001 -1l76 -1l71 1c9.33301 0.666992 22 1 38 1c2 0 3 -2 3 -6s-1 -6 -3 -6
c-27.333 0 -58.333 -6.83301 -93 -20.5s-66.667 -33.5 -96 -59.5l-161 -139z" />
    <glyph glyph-name="l" unicode="l" horiz-adv-x="265" 
d="M34 6c0 4 0.998047 6.00195 2.99805 6.00195c22.667 0 37.834 4.66699 45.501 14s11.5 27.666 11.5 54.999v511c0 23.333 -2.16699 40.166 -6.5 50.499s-11.833 15.5 -22.5 15.5c-10 0 -23.667 -4 -41 -12h-1c-2.66699 0 -4.66699 1.66699 -6 5
s-1.33301 5.66602 0 6.99902l141 66l4 1c2.66699 0 5.66699 -1.33301 9 -4s5 -5 5 -7v-633c0 -27.333 3.83301 -45.666 11.5 -54.999s22.834 -14 45.501 -14c2 0 3 -2 3 -6s-1 -6 -3 -6c-16.667 -0 -30 0.333008 -40 1l-58 1l-58 -1c-10 -0.666992 -23.333 -1 -40 -1
c-2 0 -3 2 -3 6z" />
    <glyph glyph-name="m" unicode="m" horiz-adv-x="772" 
d="M556 6c0 4 0.999023 5.99707 2.99902 5.99707c22 0 37 4.83301 45 14.5s12 27.834 12 54.501v149c0 37.333 -6.5 65 -19.5 83s-32.833 27 -59.5 27c-21.333 0 -42.5 -6 -63.5 -18s-38.5 -28.333 -52.5 -49l-5 12c51.333 74.667 108 112 170 112
c35.333 0 62.5 -10.167 81.5 -30.5s28.5 -51.166 28.5 -92.499v-193c0 -27.333 3.83301 -45.666 11.5 -54.999s22.834 -14 45.501 -14c2.66699 0 4 -2 4 -6s-1.33301 -6 -4 -6c-16.667 -0 -30 0.333008 -40 1l-57 1l-57 -1c-10 -0.666992 -23.333 -1 -40 -1c-2 0 -3 2 -3 6z
M294.999 5.99707c0 4 0.999023 6 2.99902 6c22.667 0 37.834 4.66699 45.501 14s11.5 27.666 11.5 54.999v149c0 37.333 -6.5 65 -19.5 83s-32.833 27 -59.5 27c-21.333 0 -42.5 -6 -63.5 -18s-38.5 -28.333 -52.5 -49l-5 12c51.333 74.667 108 112 170 112
c35.333 0 62.5 -9.83301 81.5 -29.5s28.5 -48.167 28.5 -85.5v-201c0 -27.333 4 -45.666 12 -54.999s23.333 -14 46 -14c2 0 3 -2 3 -6s-1 -6 -3 -6c-17.333 0 -31 0.333008 -41 1l-57 1l-57 -1c-10 -0.666992 -23.333 -1 -40 -1c-2 0 -3 2 -3 6zM37.998 5.99707
c0 4 0.999023 6.00098 2.99902 6.00098c22.667 0 37.667 4.66699 45 14s11 27.666 11 54.999v191c0 21.333 -2.5 37 -7.5 47s-13.167 15 -24.5 15c-10 0 -26.667 -5 -50 -15h-1c-2.66699 0 -4.66699 1.66699 -6 5s-1 5.33301 1 6l131 64c4 1.33301 6.33301 2 7 2
c7.33301 0 14.333 -8.33301 21 -25s10 -38.334 10 -65.001v-225c0 -27.333 3.83301 -45.666 11.5 -54.999s22.834 -14 45.501 -14c2 0 3 -2 3 -6s-1 -6 -3 -6c-16.667 0 -30 0.333008 -40 1l-57 1l-58 -1c-9.33301 -0.666992 -22.333 -1 -39 -1c-2 0 -3 2 -3 6z" />
    <glyph glyph-name="n" unicode="n" horiz-adv-x="523" 
d="M307 6c0 4 0.999023 6 2.99902 6c22.667 0 37.667 4.66699 45 14s11 27.666 11 54.999v150c0 37.333 -6.83301 64.833 -20.5 82.5s-35.167 26.5 -64.5 26.5c-22 0 -44.167 -6 -66.5 -18s-40.5 -28 -54.5 -48l-5 12c53.333 74.667 112 112 176 112
c36.667 0 65.167 -11 85.5 -33s30.5 -52.333 30.5 -91v-193c0 -27.333 3.83301 -45.666 11.5 -54.999s22.834 -14 45.501 -14c2 0 3 -2 3 -6s-1 -6 -3 -6c-16.667 -0 -30 0.333008 -40 1l-57 1l-57 -1c-10 -0.666992 -23.333 -1 -40 -1c-2 0 -3 2 -3 6zM37.999 6
c0 4 0.999023 6.00098 2.99902 6.00098c22.667 0 37.667 4.66699 45 14s11 27.666 11 54.999v191c0 21.333 -2.5 37 -7.5 47s-13.167 15 -24.5 15c-10 0 -26.667 -5 -50 -15h-1c-2.66699 0 -4.66699 1.66699 -6 5s-1 5.33301 1 6l131 64c4 1.33301 6.33301 2 7 2
c7.33301 0 14.333 -8.33301 21 -25s10 -38.334 10 -65.001v-225c0 -27.333 3.83301 -45.666 11.5 -54.999s22.834 -14 45.501 -14c2 0 3 -2 3 -6s-1 -6 -3 -6c-16.667 -0 -30 0.333008 -40 1l-57 1l-58 -1c-9.33301 -0.666992 -22.333 -1 -39 -1c-2 0 -3 2 -3 6z" />
    <glyph glyph-name="o" unicode="o" horiz-adv-x="486" 
d="M129 15.5c-30.667 19 -54.334 44.668 -71.001 77.001s-25 67.5 -25 105.5c0 43.333 10.833 80.166 32.5 110.499s49.334 53 83.001 68s68.167 22.5 103.5 22.5c40.667 0 76.167 -9.66699 106.5 -29s53.5 -44.833 69.5 -76.5s24 -65.5 24 -101.5
c0 -40 -9.83301 -75.667 -29.5 -107s-46.167 -55.5 -79.5 -72.5s-69.333 -25.5 -108 -25.5c-40 0 -75.333 9.5 -106 28.5zM333 46.001c16 26 24 63.999 24 113.999c0 44.667 -6.16699 83.667 -18.5 117s-29 58.666 -50 75.999s-44.167 26 -69.5 26
c-30 0 -52.833 -12.333 -68.5 -37s-23.5 -61 -23.5 -109c0 -43.333 6 -82.166 18 -116.499s28.5 -61.166 49.5 -80.499s44.5 -29 70.5 -29c29.333 0 52 13 68 39z" />
    <glyph glyph-name="p" unicode="p" horiz-adv-x="512" 
d="M25 -269c0 4 1 6 3 6c16.667 0 29 1.83301 37 5.5s13.5 10.167 16.5 19.5s4.5 24 4.5 44v465c0 22 -2.5 38 -7.5 48s-13.5 15 -25.5 15c-11.333 0 -27.333 -4.66699 -48 -14h-2c-2.66699 0 -4.66699 1.5 -6 4.5s-1.33301 5.16699 0 6.5l132 63c1.33301 0.666992 3 1 5 1
c9.33301 0 17.166 -8.16699 23.499 -24.5s9.5 -38.5 9.5 -66.5v-498c0 -20 2.33301 -34.667 7 -44s13.334 -15.833 26.001 -19.5s32.667 -5.5 60 -5.5c1.33301 0 2 -2 2 -6s-0.666992 -6 -2 -6c-24.667 0 -43.667 0.333008 -57 1l-77 1l-57 -1
c-10 -0.666992 -23.667 -1 -41 -1c-2 0 -3 2 -3 6zM194 -6c-18.667 4.66699 -40.6689 12.666 -66.002 23.999l27 61c18.667 -22.667 37.334 -39.667 56.001 -51s42.334 -17 71.001 -17c33.333 0 59.666 14.5 78.999 43.5s29 72.167 29 129.5
c0 52.667 -12 93.334 -36 122.001s-54 43 -90 43c-24 0 -45.5 -6 -64.5 -18s-39.5 -30 -61.5 -54l-9 10c34 38.667 66.5 67 97.5 85s62.833 27 95.5 27c28 0 54 -7.33301 78 -22s43.167 -36 57.5 -64s21.5 -60.667 21.5 -98c0 -52.667 -11.167 -96 -33.5 -130
s-50.166 -58.833 -83.499 -74.5s-67.333 -23.5 -102 -23.5c-25.333 0 -47.333 2.33301 -66 7z" />
    <glyph glyph-name="q" unicode="q" horiz-adv-x="497" 
d="M115 8.5c-24.667 14.333 -44.498 35.333 -59.498 63s-22.5 61.167 -22.5 100.5c0 49.333 10.667 91.166 32 125.499s49 59.833 83 76.5s69.667 25 107 25c54.667 0 103 -14 145 -42l-54 -92c0 36.667 -11.833 64.834 -35.5 84.501s-50.167 29.5 -79.5 29.5
c-71.333 0 -107 -56.667 -107 -170c0 -58 10.167 -101.833 30.5 -131.5s48.166 -44.5 83.499 -44.5c38.667 0 78.667 19.333 120 58l9 -7c-28 -30.667 -54.833 -54.5 -80.5 -71.5s-55.834 -25.5 -90.501 -25.5c-29.333 0 -56.333 7.16699 -81 21.5zM265.002 -269
c0 4 0.666992 6 2 6c23.333 0 40.333 1.83301 51 5.5s18 10.167 22 19.5s6 24 6 44v537l125 45l2 1c2 0 3.33301 -1.66699 4 -5s0 -5.33301 -2 -6c-16.667 -8.66699 -29 -19.5 -37 -32.5s-12 -29.833 -12 -50.5v-489c0 -20 1.5 -34.667 4.5 -44s8.5 -15.833 16.5 -19.5
s20.667 -5.5 38 -5.5c1.33301 0 2 -2 2 -6s-0.666992 -6 -2 -6c-16.667 0 -30 0.333008 -40 1l-59 1l-67 -1c-12.667 -0.666992 -30 -1 -52 -1c-1.33301 0 -2 2 -2 6z" />
    <glyph glyph-name="r" unicode="r" horiz-adv-x="374" 
d="M234 371.5c21.333 16.333 40.333 24.501 57 24.501c14.667 0 29 -5 43 -15s21 -22 21 -36c0 -12.667 -3.66699 -22.834 -11 -30.501s-17.666 -11.5 -30.999 -11.5c-8.66699 0 -15.667 1.66699 -21 5s-11.333 8.33301 -18 15c-6 6 -11.333 10.5 -16 13.5
s-10.334 4.5 -17.001 4.5c-8.66699 0 -18.5 -4.33301 -29.5 -13s-29.833 -27.667 -56.5 -57l-7 12c36 42.667 64.667 72.167 86 88.5zM38 6.00098c0 4 1 6.00293 3 6.00293c22.667 0 37.667 4.66699 45 14s11 27.666 11 54.999v191c0 21.333 -2.5 37 -7.5 47
s-13.167 15 -24.5 15c-10 0 -26.667 -5 -50 -15h-1c-2.66699 0 -4.66699 1.66699 -6 5s-1 5.33301 1 6l131 64c4 1.33301 6.33301 2 7 2c7.33301 0 14.333 -8.33301 21 -25s10 -38.334 10 -65.001v-225c0 -18.667 2.66699 -32.834 8 -42.501s14.5 -16.5 27.5 -20.5
s31.833 -6 56.5 -6c2.66699 0 4 -2 4 -6s-1.33301 -6 -4 -6c-22.667 0 -40.667 0.333008 -54 1l-78 1l-58 -1c-9.33301 -0.666992 -22.333 -1 -39 -1c-2 0 -3 2 -3 6z" />
    <glyph glyph-name="s" unicode="s" horiz-adv-x="337" 
d="M133.5 281c14.333 -14 35.168 -28.3262 62.501 -42.9932c24 -13.333 42.5 -24.333 55.5 -33s24.333 -20.334 34 -35.001s14.5 -32.334 14.5 -53.001c0 -22.667 -5.66699 -43.667 -17 -63s-28.166 -35 -50.499 -47s-48.833 -18 -79.5 -18
c-36.667 0 -70.334 9.33301 -101.001 28c-4 4 -6 8 -6 12l-2 92c0 2 1.83301 3.16699 5.5 3.5s5.83398 -0.5 6.50098 -2.5c11.333 -32.667 28.5 -59.667 51.5 -81s47.5 -32 73.5 -32c16.667 0 29.667 4.33301 39 13s14 21.667 14 39c0 25.333 -7.33301 45.5 -22 60.5
s-36 29.833 -64 44.5c-22.667 12 -40.334 22.167 -53.001 30.5s-23.5 19.666 -32.5 33.999s-13.5 32.166 -13.5 53.499c0 38 13.833 66.333 41.5 85s61.167 28 100.5 28c26 0 52.667 -5 80 -15c6 -2.66699 9 -6.33398 9 -11.001c0 -15.333 -0.333008 -27.333 -1 -36l-1 -48
c0 -1.33301 -2 -2 -6 -2s-6 0.666992 -6 2c0 13.333 -5.33301 27.166 -16 41.499s-24.334 26.166 -41.001 35.499s-33.667 14 -51 14c-30.667 0 -46 -14.667 -46 -44c0 -21.333 7.16699 -39 21.5 -53z" />
    <glyph glyph-name="t" unicode="t" horiz-adv-x="337" 
d="M112.5 8.5c-19.667 13.667 -29.5 36.5 -29.5 68.5v226c0 22 -3.5 36.667 -10.5 44s-20.5 11 -40.5 11c-0.666992 0 -1.5 0.833008 -2.5 2.5s-1.5 3.5 -1.5 5.5s0.5 3.83301 1.5 5.5s1.83301 2.5 2.5 2.5c62.667 2.66699 102 29.667 118 81
c0.666992 2.66699 3.33398 4 8.00098 4s7 -1.33301 7 -4v-345c0 -26 6.5 -45.167 19.5 -57.5s31.167 -18.5 54.5 -18.5c28 0 54.333 9.66699 79 29l2 1c2 0 3.83301 -1.5 5.5 -4.5s1.5 -5.16699 -0.5 -6.5c-24.667 -22.667 -48 -39.167 -70 -49.5s-45.333 -15.5 -70 -15.5
c-28.667 0 -52.834 6.83301 -72.501 20.5zM136 352v24c42.667 0 96.667 3.33301 162 10c1.33301 0 2.83301 -2.5 4.5 -7.5s2.5 -10.5 2.5 -16.5s-1.16699 -12 -3.5 -18s-4.83301 -8.66699 -7.5 -8c-48 10.667 -100.667 16 -158 16z" />
    <glyph glyph-name="u" unicode="u" horiz-adv-x="501" 
d="M105 22.5c-20 22.333 -29.999 52.833 -29.999 91.5v149c0 23.333 -2.5 40.5 -7.5 51.5s-12.833 16.5 -23.5 16.5c-8.66699 0 -18 -2.66699 -28 -8h-1c-2.66699 0 -4.66699 1.66699 -6 5s-1 5.66602 1 6.99902l126 59l5 1c2.66699 0 5.66699 -1.33301 9 -4s5 -5 5 -7v-227
c0 -37.333 6.83301 -65.166 20.5 -83.499s34.5 -27.5 62.5 -27.5c21.333 0 42.833 6.16699 64.5 18.5s39.5 28.5 53.5 48.5l6 -12c-54.667 -74.667 -112.334 -112 -173.001 -112c-36 0 -64 11.167 -84 33.5zM424.001 64.5c4.66699 -9.66699 12.665 -14.501 23.998 -14.501
c8 0 23 4 45 12l2 1c2 0 3.66699 -1.66699 5 -5s1 -5.66602 -1 -6.99902l-131 -63l-4 -1c-7.33301 0 -13.666 8.33301 -18.999 25s-8 39 -8 67v184c0 23.333 -2.5 40.5 -7.5 51.5s-12.833 16.5 -23.5 16.5c-8 0 -17.333 -2.66699 -28 -8h-1
c-2.66699 0 -4.66699 1.83301 -6 5.5s-0.666016 5.83398 2.00098 6.50098l126 59l4 1c2.66699 0 5.66699 -1.33301 9 -4s5 -5 5 -7v-271c0 -22.667 2.33301 -38.834 7 -48.501z" />
    <glyph glyph-name="v" unicode="v" horiz-adv-x="438" 
d="M448 380c0 -4 -0.663086 -6.00098 -1.99609 -6.00098c-18.667 0 -34.834 -6.66699 -48.501 -20s-26.834 -34.666 -39.501 -63.999l-124 -290c-1.33301 -3.33301 -4.66602 -5 -9.99902 -5c-6 0 -10 1.66699 -12 5l-148 303c-14.667 29.333 -26.834 48.5 -36.501 57.5
s-21.834 13.5 -36.501 13.5c-2 0 -3 2 -3 6s1 6 3 6c12 0 21.667 -0.333008 29 -1l58 -1l73 1c10.667 0.666992 25.667 1 45 1c2 0 3 -2 3 -6s-1 -6 -3 -6c-39.333 0 -59 -7.66699 -59 -23c0 -4 1.66699 -9.33301 5 -16l122 -242l-43 -72l112 271
c4.66699 11.333 7 22.333 7 33c0 16 -5.83301 28.167 -17.5 36.5s-28.834 12.5 -51.501 12.5c-1.33301 0 -2 2 -2 6s0.666992 6 2 6c18 0 31.667 -0.333008 41 -1l60 -1l39 1c7.33301 0.666992 19 1 35 1c1.33301 0 2 -2 2 -6z" />
    <glyph glyph-name="w" unicode="w" horiz-adv-x="673" 
d="M28.5 360c-10.333 9.33301 -22.8311 14 -37.498 14c-2 0 -3 2 -3 6s1 6 3 6c12 0 21.667 -0.333008 29 -1l58 -1l68 1c10 0.666992 23.667 1 41 1c2 0 3 -2 3 -6s-1 -6 -3 -6c-16.667 0 -29.667 -1.66699 -39 -5s-14 -9.33301 -14 -18c0 -4 1.66699 -9.33301 5 -16
l112 -241l-43 -62l134 354c0.666992 2.66699 4 4 10 4c7.33301 0 11.333 -1.33301 12 -4l143 -292l-43 -72l103 270c4.66699 12 7 23.333 7 34c0 15.333 -5.66699 27.166 -17 35.499s-28.333 12.5 -51 12.5c-1.33301 0 -2 2 -2 6s0.666992 6 2 6
c18 0 31.667 -0.333008 41 -1l60 -1l39 1c7.33301 0.666992 18.666 1 33.999 1c2 0 3 -2 3 -6s-1 -6 -3 -6c-18 0 -34 -6.66699 -48 -20s-27 -34.666 -39 -63.999l-116 -289c-0.666992 -2.66699 -4 -4 -10 -4c-7.33301 0 -11.333 1.33301 -12 4l-143 292l43 62l-133 -354
c-0.666992 -2.66699 -4.33398 -4 -11.001 -4s-10.334 1.33301 -11.001 4l-136 302c-13.333 28.667 -25.166 47.667 -35.499 57z" />
    <glyph glyph-name="x" unicode="x" horiz-adv-x="440" 
d="M249 6c0 4 1 6 3 6c17.333 0 26 4.33301 26 13c0 6 -3.66699 14.667 -11 26l-168 252c-14.667 22.667 -29.334 40.167 -44.001 52.5s-28 18.5 -40 18.5c-1.33301 0 -2 2 -2 6s0.666992 6 2 6c14 0 24.333 -0.333008 31 -1l31 -1l67 1c10.667 0.666992 25.334 1 44.001 1
c1.33301 0 2 -2 2 -6s-0.666992 -6 -2 -6c-17.333 0 -26 -4.66699 -26 -14c0 -6.66699 3.66699 -15 11 -25l167 -252c16.667 -24.667 33 -42.667 49 -54s30.667 -17 44 -17c2 0 3 -2 3 -6s-1 -6 -3 -6l-35 1c-8 0.666992 -19.667 1 -35 1l-69 -1
c-10 -0.666992 -24 -1 -42 -1c-2 0 -3 2 -3 6zM4 6c0 4 1.00195 5.99902 3.00195 5.99902c19.333 0 40.166 7.66699 62.499 23s43.166 36.333 62.499 63l71 98l14 -13l-62 -91c-15.333 -21.333 -23 -38.666 -23 -51.999c0 -18.667 16.333 -28 49 -28c2 0 3 -2 3 -6
s-1 -6 -3 -6c-18 -0 -31.333 0.333008 -40 1l-60 1l-40 -1c-6.66699 -0.666992 -18 -1 -34 -1c-2 0 -3 2 -3 6zM210.002 203.999l60.998 90c15.333 22.667 23 40 23 52c0 18.667 -16.667 28 -50 28c-1.33301 0 -2 2 -2 6s0.666992 6 2 6c18 0 31.667 -0.333008 41 -1l60 -1
l40 1c6.66699 0.666992 18 1 34 1c2 0 3 -2 3 -6s-1 -6 -3 -6c-19.333 0 -40.166 -7.66699 -62.499 -23s-43.166 -36.333 -62.499 -63l-72 -96z" />
    <glyph glyph-name="y" unicode="y" horiz-adv-x="494" 
d="M180 74c13.333 -18 34 -26.999 62 -26.999c22 0 44.5 6 67.5 18s41.833 28 56.5 48l5 -12c-55.333 -74.667 -114.666 -112 -177.999 -112c-36 0 -64 11.167 -84 33.5s-30 52.833 -30 91.5v149c0 24 -2.33301 41.333 -7 52s-12.334 16 -23.001 16
c-8.66699 0 -18 -2.66699 -28 -8h-1c-2.66699 0 -4.66699 1.66699 -6 5s-1 5.66602 1 6.99902l127 59l4 1c2.66699 0 5.66699 -1.33301 9 -4s5 -5 5 -7v-227c0 -37.333 6.66699 -65 20 -83zM373 -223.499c-35.333 -38.333 -87.3301 -57.499 -155.997 -57.499
c-40 0 -74 7 -102 21s-42 33.333 -42 58c0 12.667 4 22.667 12 30s19 11 33 11s25 -3.66699 33 -11s17 -18.333 27 -33c12.667 -18 24.667 -31.667 36 -41s27.666 -14 48.999 -14c26 0 46.333 11.667 61 35s22 67 22 131v357c0 23.333 -2.33301 40.5 -7 51.5
s-12.334 16.5 -23.001 16.5c-8.66699 0 -18 -2.66699 -28 -8h-1c-2.66699 0 -4.83398 1.66699 -6.50098 5s-1.16699 5.66602 1.5 6.99902l126 59l5 1c2.66699 0 5.5 -1.33301 8.5 -4s4.5 -5 4.5 -7v-454c0 -64 -17.667 -115.167 -53 -153.5z" />
    <glyph glyph-name="z" unicode="z" horiz-adv-x="405" 
d="M260 372c-62 0 -109.999 -7.66797 -143.999 -23.001s-57 -41 -69 -77c0 -1.33301 -1.33301 -2 -4 -2c-2 0 -4 0.5 -6 1.5s-2.66699 1.83301 -2 2.5l40 148c0 0.666992 1.33301 1 4 1c5.33301 0 7.66602 -1.33301 6.99902 -4c-1.33301 -5.33301 -2 -9 -2 -11
c0 -8.66699 4 -14.5 12 -17.5s21 -4.5 39 -4.5h224c2.66699 0 4.83398 -1.33301 6.50098 -4s2.16699 -5.33398 1.5 -8.00098l-231 -350c-2 -4.66699 -0.333008 -7 5 -7c50 0 89.833 3.33301 119.5 10s52.5 17.834 68.5 33.501s27.667 37.5 35 65.5
c0.666992 1.33301 2.83398 2 6.50098 2s5.5 -0.666992 5.5 -2l-2 -115c0 -2.66699 -1 -5.16699 -3 -7.5s-4.33301 -3.5 -7 -3.5h-321c-2.66699 0 -4.83398 1.33301 -6.50098 4s-1.83398 5.33398 -0.500977 8.00098l229 353c2.66699 4.66699 1 7 -5 7z" />
    <glyph glyph-name="braceleft" unicode="{" horiz-adv-x="289" 
d="M29 304.5c0 4.33301 1 6.5 3 6.5c26.667 4 44.167 25.5 52.5 64.5s12.5 90.167 12.5 153.5c0 57.333 4.16699 99.5 12.5 126.5s22.833 45.333 43.5 55s53 14.5 97 14.5c2.66699 0 4 -2 4 -6s-1.33301 -6 -4 -6c-19.333 0 -34.333 -9.16699 -45 -27.5
s-16.334 -44.5 -17.001 -78.5c-1.33301 -81.333 -4.16602 -138.666 -8.49902 -171.999s-14 -59.5 -29 -78.5s-40.833 -36.167 -77.5 -51.5c36.667 -16 62.5 -33.833 77.5 -53.5s24.667 -46.167 29 -79.5s7.16602 -90.333 8.49902 -171
c0.666992 -34 6.33398 -60.167 17.001 -78.5s25.667 -27.5 45 -27.5c2.66699 0 4 -2 4 -6s-1.33301 -6 -4 -6c-44 0 -76.5 4.83301 -97.5 14.5s-35.5 28.167 -43.5 55.5s-12 69.666 -12 126.999c0 64 -4.16699 115.333 -12.5 154s-25.833 60 -52.5 64
c-2 0 -3 2.16699 -3 6.5z" />
    <glyph glyph-name="bar" unicode="|" horiz-adv-x="168" 
d="M86 738c14.667 0 22 -2.33301 22 -7v-885c0 -2.66699 -2.16699 -4.66699 -6.5 -6s-9.5 -2 -15.5 -2s-11.333 0.666992 -16 2s-7 3.33301 -7 6v885c0 4.66699 7.66699 7 23 7z" />
    <glyph glyph-name="braceright" unicode="}" horiz-adv-x="283" 
d="M198.5 234c-8.33301 -38.667 -12.5 -90 -12.5 -154c0 -57.333 -4 -99.666 -12 -126.999s-22.5 -45.833 -43.5 -55.5s-53.5 -14.5 -97.5 -14.5c-2.66699 0 -4 2 -4 6s1.33301 6 4 6c19.333 0 34.333 9.16699 45 27.5s16.334 44.5 17.001 78.5
c1.33301 80.667 4.16602 137.667 8.49902 171s14 59.833 29 79.5s40.833 37.5 77.5 53.5c-36.667 15.333 -62.5 32.5 -77.5 51.5s-24.667 45.167 -29 78.5s-7.16602 90.666 -8.49902 171.999c-0.666992 34 -6.33398 60.167 -17.001 78.5s-25.667 27.5 -45 27.5
c-2.66699 0 -4 2 -4 6s1.33301 6 4 6c44 0 76.333 -4.83301 97 -14.5s35.167 -28 43.5 -55s12.5 -69.167 12.5 -126.5c0 -63.333 4.16699 -114.5 12.5 -153.5s25.833 -60.5 52.5 -64.5c2 0 3 -2.16699 3 -6.5s-1 -6.5 -3 -6.5c-26.667 -4 -44.167 -25.333 -52.5 -64z" />
    <glyph glyph-name="asciitilde" unicode="~" horiz-adv-x="443" 
d="M357.5 217c10.333 6.66699 20.8359 16 31.5029 28l2 1c1.33301 0 2.66602 -1 3.99902 -3s1.66602 -3.66699 0.999023 -5c-24.667 -37.333 -45 -62.333 -61 -75s-33.333 -19 -52 -19c-11.333 0 -21.833 1.33301 -31.5 4s-23.834 7 -42.501 13
c-30.667 12.667 -57.334 19 -80.001 19c-15.333 0 -27.166 -2.16699 -35.499 -6.5s-16 -10 -23 -17s-12.167 -11.833 -15.5 -14.5h-1c-1.33301 0 -2.83301 0.833008 -4.5 2.5s-2.16699 3.16699 -1.5 4.5c40.667 62.667 80.667 94 120 94c8.66699 0 18.667 -1.66699 30 -5
s22.333 -7 33 -11c16.667 -6.66699 31.5 -11.667 44.5 -15s25.833 -5 38.5 -5c18.667 0 33.167 3.33301 43.5 10z" />
    <glyph glyph-name="uni00A0" unicode="&#xa0;" horiz-adv-x="234" 
 />
    <glyph glyph-name="exclamdown" unicode="&#xa1;" horiz-adv-x="258" 
d="M172 -272c-13.333 -2 -27.667 -2.99902 -43 -2.99902s-29.833 1.16699 -43.5 3.5s-19.834 5.16602 -18.501 8.49902c12.667 52 22.167 108 28.5 168s12.833 135.667 19.5 227l2 33c0 1.33301 1.5 2.5 4.5 3.5s6.16699 1.5 9.5 1.5s6.5 -0.5 9.5 -1.5
s4.5 -2.16699 4.5 -3.5c5.33301 -98 11 -179.833 17 -245.5s15.667 -126.5 29 -182.5c0.666992 -4 -5.66602 -7 -18.999 -9zM174.999 350.001c10 -10 15 -23.333 15 -40c0 -16 -5 -28.667 -15 -38s-23.667 -14 -41 -14c-16.667 0 -29.667 4.66699 -39 14s-14 22 -14 38
c0 17.333 4.66699 30.833 14 40.5s22.333 14.5 39 14.5c17.333 0 31 -5 41 -15z" />
    <glyph glyph-name="cent" unicode="&#xa2;" horiz-adv-x="533" 
d="M278 567c2.66699 1.33301 6 2 10 2c3.33301 0 6.33301 -0.666992 9 -2s4 -3.33301 4 -6v-663c0 -4.66699 -4.33301 -7 -13 -7c-9.33301 0 -14 2.33301 -14 7v663c0 2.66699 1.33301 4.66699 4 6zM389.5 472c29 -5.33301 52.833 -12.333 71.5 -21
c4.66699 -2 7.66699 -4.16699 9 -6.5s2 -5.83301 2 -10.5l7 -103c0 -2 -1.83301 -3.33301 -5.5 -4s-5.83398 0.333008 -6.50098 3c-20.667 44 -45 76.667 -73 98s-61.333 32 -100 32c-49.333 0 -88.166 -19.333 -116.499 -58s-42.5 -89 -42.5 -151
c0 -41.333 6.5 -80.666 19.5 -117.999s33.333 -67.666 61 -90.999s61.834 -35 102.501 -35c36.667 0 67.5 10.667 92.5 32s47.167 55 66.5 101c0.666992 2.66699 2.66699 3.66699 6 3s5 -2 5 -4l-10 -106c-0.666992 -5.33301 -1.66699 -9 -3 -11s-5 -4.33301 -11 -7
c-51.333 -18 -104.666 -27 -159.999 -27c-63.333 0 -115.333 12.667 -156 38s-70.167 57 -88.5 95s-27.5 76.333 -27.5 115c0 45.333 12.167 86.666 36.5 123.999s57.666 66.666 99.999 87.999s89.166 32 140.499 32c24.667 0 51.5 -2.66699 80.5 -8z" />
    <glyph glyph-name="sterling" unicode="&#xa3;" horiz-adv-x="505" 
d="M409 70.5c17.333 15 30.0029 40.8301 38.0029 77.4971c0 1.33301 2 1.83301 6 1.5s6 -1.16602 6 -2.49902c-2.66699 -14 -4.83398 -34 -6.50098 -60s-2.5 -50 -2.5 -72c0 -5.33301 -1.16699 -9.16602 -3.5 -11.499s-6.5 -3.5 -12.5 -3.5h-399
c-1.33301 0 -2 1.83301 -2 5.5s0.666992 5.83398 2 6.50098c34 14 57.167 30.833 69.5 50.5s18.5 49.834 18.5 90.501c0 28.667 -1.83301 53.667 -5.5 75s-9.5 46.666 -17.5 75.999c-6.66699 26 -11.667 47.667 -15 65s-5 36.666 -5 57.999c0 47.333 10 86.666 30 117.999
s46.5 54.333 79.5 69s69.167 22 108.5 22c38 0 75.667 -5.33301 113 -16c10 -2.66699 15 -8 15 -16l9 -115c0 -2.66699 -1.66699 -4 -5 -4c-4 0 -6.33301 1.33301 -7 4c-35.333 85.333 -82 128 -140 128c-38.667 0 -66.5 -15.5 -83.5 -46.5s-25.5 -68.833 -25.5 -113.5
c0 -22 2 -42.5 6 -61.5s10 -41.167 18 -66.5c8 -29.333 13.833 -52.833 17.5 -70.5s5.5 -37.167 5.5 -58.5c0 -29.333 -3.33301 -53.666 -10 -72.999s-14.334 -34.166 -23.001 -44.499s-21.334 -23.5 -38.001 -39.5l-9 5h181c40.667 0 69.667 7.5 87 22.5zM335.003 312.997
c1.33301 -2.66699 2 -5.66699 2 -9c0 -4 -0.666992 -7.33301 -2 -10s-3.33301 -4 -6 -4h-283c-2 0 -3.66699 1.5 -5 4.5s-2 6.16699 -2 9.5s0.666992 6.33301 2 9s3 4 5 4h283c2.66699 0 4.66699 -1.33301 6 -4z" />
    <glyph glyph-name="currency" unicode="&#xa4;" horiz-adv-x="414" 
d="M81 33l-29 29l53 55l26 -27zM47 340l34 31l52 -56l-32 -29zM365 66l-34 -33l-52 59l31 29zM336 368l28 -28l-57 -58l-27 27zM124 84.5c-20.667 13 -36.333 30.167 -47 51.5s-16 43.333 -16 66c0 28 7.66699 52.167 23 72.5s34.5 35.5 57.5 45.5s46.167 15 69.5 15
c38.667 0 71.334 -12.833 98.001 -38.5s40 -57.5 40 -95.5c0 -27.333 -7.33301 -51.333 -22 -72s-33.834 -36.5 -57.501 -47.5s-48.167 -16.5 -73.5 -16.5c-27.333 0 -51.333 6.5 -72 19.5zM262.501 111.5c11.667 16.333 17.5 39.166 17.5 68.499
c0 36 -8.33301 67.167 -25 93.5s-39 39.5 -67 39.5c-18.667 0 -33.5 -7.66699 -44.5 -23s-16.5 -37.666 -16.5 -66.999c0 -35.333 7.66699 -66.833 23 -94.5s37 -41.5 65 -41.5c20 0 35.833 8.16699 47.5 24.5z" />
    <glyph glyph-name="yen" unicode="&#xa5;" horiz-adv-x="616" 
d="M471 205c0 -8.66699 -2.33301 -13 -7 -13h-308c-2 0 -3.66699 1.33301 -5 4s-2 5.66699 -2 9s0.666992 6.33301 2 9s3 4 5 4h308c4.66699 0 7 -4.33301 7 -13zM471 283c0 -9.33301 -2.33301 -14 -7 -14h-308c-2 0 -3.66699 1.5 -5 4.5s-2 6.16699 -2 9.5
s0.666992 6.33301 2 9s3 4 5 4h308c4.66699 0 7 -4.33301 7 -13zM469 569c0 29.333 -18.333 44 -55 44c-1.33301 0 -2 2 -2 6s0.666992 6 2 6l52 -1c28 -1.33301 53.667 -2 77 -2c11.333 0 25 0.666992 41 2l37 1c1.33301 0 2 -2 2 -6s-0.666992 -6 -2 -6
c-22 0 -47 -11.5 -75 -34.5s-53 -52.5 -75 -88.5l-133 -215l-26 6l132 217c16.667 27.333 25 51 25 71zM50 592.5c-16 13.667 -31.668 20.5 -47.001 20.5c-2 0 -3 2 -3 6s1 6 3 6l33 -1c14.667 -1.33301 25.334 -2 32.001 -2c22 0 53.667 0.666992 95 2l63 1
c1.33301 0 2 -2 2 -6s-0.666992 -6 -2 -6c-28 0 -42 -9 -42 -27c0 -8 4.33301 -19 13 -33l153 -235l-81 -42l-160 243c-23.333 35.333 -43 59.833 -59 73.5zM361.999 36c3.33301 -9.33301 10.166 -15.667 20.499 -19s26.833 -5 49.5 -5c2 0 3 -2 3 -6s-1 -6 -3 -6
c-21.333 -0 -38 0.333008 -50 1l-73 1l-72 -1c-13.333 -0.666992 -31 -1 -53 -1c-1.33301 0 -2 2 -2 6s0.666992 6 2 6c22.667 0 39.334 1.66699 50.001 5s18 9.83301 22 19.5s6 24.5 6 44.5v125h95v-125c0 -20.667 1.66699 -35.667 5 -45zM261.999 309.999l95 9v-36h-95v27
z" />
    <glyph glyph-name="brokenbar" unicode="&#xa6;" horiz-adv-x="168" 
d="M70 222c4.66699 1.33301 10 2 16 2s11.167 -0.666992 15.5 -2s6.5 -3.33301 6.5 -6v-370c0 -2.66699 -2.16699 -4.66699 -6.5 -6s-9.5 -2 -15.5 -2s-11.333 0.666992 -16 2s-7 3.33301 -7 6v370c0 2.66699 2.33301 4.66699 7 6zM86 738c14.667 0 22 -2.33301 22 -7v-371
c0 -2 -2.16699 -3.66699 -6.5 -5s-9.5 -2 -15.5 -2s-11.333 0.666992 -16 2s-7 3 -7 5v371c0 4.66699 7.66699 7 23 7z" />
    <glyph glyph-name="section" unicode="&#xa7;" horiz-adv-x="472" 
d="M341 63.5c6 16.333 9.00098 34.834 9.00098 55.501c0 30 -6 56 -18 78s-26.5 40 -43.5 54s-39.5 30.333 -67.5 49c-24.667 16 -44.167 30 -58.5 42s-26.333 26.167 -36 42.5s-14.5 35.166 -14.5 56.499c0 42 16 74.333 48 97s70.333 34 115 34
c34.667 0 63.667 -6.33301 87 -19c7.33301 -3.33301 11 -8.66602 11 -15.999l8 -111c0 -1.33301 -2 -2 -6 -2s-6 0.666992 -6 2c-10 26.667 -26.5 53.834 -49.5 81.501s-49.167 41.5 -78.5 41.5c-17.333 0 -31.166 -5.66699 -41.499 -17s-15.5 -28.666 -15.5 -51.999
c0 -22 4.83301 -41.5 14.5 -58.5s21.667 -31.333 36 -43s33.833 -25.834 58.5 -42.501c27.333 -18 49.166 -33.833 65.499 -47.5s30.166 -30.834 41.499 -51.501s17 -45.334 17 -74.001c0 -26.667 -7 -51.167 -21 -73.5s-40.667 -48.5 -80 -78.5l-8 9
c16 12.667 27 27.167 33 43.5zM135.001 -169.999c-7.33301 4.66699 -10.999 10.332 -10.999 16.999l-8 110c0 2 1.83301 3 5.5 3s5.83398 -1 6.50098 -3c9.33301 -26 25.666 -52.833 48.999 -80.5s49.666 -41.5 78.999 -41.5c16.667 0 30.167 5.83301 40.5 17.5
s15.5 28.834 15.5 51.501c0 22 -4.83301 41.333 -14.5 58s-21.667 31 -36 43s-33.833 26 -58.5 42c-26.667 18 -48.334 33.833 -65.001 47.5s-30.667 31 -42 52s-17 45.833 -17 74.5c0 26.667 6.83301 51.167 20.5 73.5s39.834 48.5 78.501 78.5l8 -9
c-15.333 -13.333 -26 -28.166 -32 -44.499s-9 -34.5 -9 -54.5c0 -30 6 -56 18 -78s26.333 -40 43 -54s39.667 -30.667 69 -50c36.667 -23.333 64.167 -44.833 82.5 -64.5s27.5 -44.834 27.5 -75.501c0 -42.667 -16 -75.167 -48 -97.5s-70.667 -33.5 -116 -33.5
c-33.333 0 -62 6 -86 18z" />
    <glyph glyph-name="dieresis" unicode="&#xa8;" horiz-adv-x="322" 
d="M37.5 482c-9 8.66699 -13.5 21 -13.5 37c0 15.333 4.5 27.166 13.5 35.499s21.5 12.5 37.5 12.5c15.333 0 27.166 -4.16699 35.499 -12.5s12.5 -20.166 12.5 -35.499c0 -16 -4.16699 -28.333 -12.5 -37s-20.166 -13 -35.499 -13c-16 0 -28.5 4.33301 -37.5 13zM212.5 482
c-9 8.66699 -13.5 21 -13.5 37c0 14.667 4.5 26.167 13.5 34.5s21.167 12.5 36.5 12.5s27.166 -4 35.499 -12s12.5 -19.667 12.5 -35c0 -16 -4.16699 -28.333 -12.5 -37s-20.166 -13 -35.499 -13s-27.5 4.33301 -36.5 13z" />
    <glyph glyph-name="copyright" unicode="&#xa9;" horiz-adv-x="724" 
d="M225 -70.5c-47.333 23 -85.5029 56.6631 -114.503 100.996s-43.5 96.833 -43.5 157.5c0 60 16 113.833 48 161.5s74.167 84.834 126.5 111.501s107.5 40 165.5 40c51.333 0 96.666 -10.667 135.999 -32s69.666 -49.666 90.999 -84.999s32 -73.666 32 -114.999
c0 -40 -11.167 -77.667 -33.5 -113s-53.166 -63.666 -92.499 -84.999s-83.333 -32 -132 -32c-42 0 -76.667 7.5 -104 22.5s-47.166 34.333 -59.499 58s-18.5 48.834 -18.5 75.501c0 34.667 8.5 64.667 25.5 90s38.833 44.833 65.5 58.5s54.667 20.5 84 20.5
c26.667 0 50.334 -5 71.001 -15s31.334 -24 32.001 -42c0 -12 -3.33301 -21.333 -10 -28s-16 -10 -28 -10c-9.33301 0 -17.166 2.83301 -23.499 8.5s-12.166 13.834 -17.499 24.501c-8 13.333 -15.667 23.333 -23 30s-18 10 -32 10c-24 0 -40.5 -9.33301 -49.5 -28
s-13.5 -47.667 -13.5 -87c0 -46.667 12 -85.167 36 -115.5s61 -45.5 111 -45.5c26.667 0 51.834 6.83301 75.501 20.5s42.667 33.5 57 59.5s21.5 56.667 21.5 92c0 44 -10.167 84.333 -30.5 121s-48.5 65.667 -84.5 87s-76 32 -120 32c-50 0 -93.333 -11.833 -130 -35.5
s-64.334 -55.667 -83.001 -96s-28 -84.833 -28 -133.5c0 -58.667 12.333 -109.334 37 -152.001s58.167 -75.334 100.5 -98.001s89.5 -34 141.5 -34c35.333 0 67.5 3.5 96.5 10.5s59.5 19.833 91.5 38.5h2c1.33301 0 2.66602 -1 3.99902 -3s1.33301 -3.33301 0 -4
c-37.333 -28.667 -74.333 -48.5 -111 -59.5s-75.667 -16.5 -117 -16.5c-54 0 -104.667 11.5 -152 34.5z" />
    <glyph glyph-name="ordfeminine" unicode="&#xaa;" horiz-adv-x="285" 
d="M34.5 289.5c-1 3.66699 -1.5 7.83398 -1.5 12.501c0 3.33301 0.5 6.66602 1.5 9.99902s1.83301 5 2.5 5h225c1.33301 0 2.5 -1.66699 3.5 -5s1.5 -7 1.5 -11s-0.5 -7.83301 -1.5 -11.5s-2.16699 -5.5 -3.5 -5.5h-224c-1.33301 0 -2.5 1.83301 -3.5 5.5zM203 364
c-8 0 -14.999 4.99902 -20.999 14.999s-9 23.333 -9 40v119c0 30.667 -3.33301 50.667 -10 60s-16.334 14 -29.001 14c-10 0 -18.5 -4.83301 -25.5 -14.5s-11.5 -21.834 -13.5 -36.501c-2.66699 -22 -13.667 -33 -33 -33c-10 0 -18 2.83301 -24 8.5s-9 12.834 -9 21.501
c0 11.333 7.5 22.5 22.5 33.5s33.167 20.167 54.5 27.5s39.666 11 54.999 11c20 0 36.167 -6 48.5 -18s18.5 -30 18.5 -54v-117c0 -15.333 1.33301 -26.333 4 -33s7.33398 -10 14.001 -10c3.33301 0 12.333 3 27 9h1c2.66699 0 4.5 -1.16699 5.5 -3.5
s0.833008 -4.16602 -0.5 -5.49902l-68 -32c-4 -1.33301 -6.66699 -2 -8 -2zM42.001 375.999c-8.66699 7.33301 -13 16.667 -13 28s3.5 21 10.5 29s19.5 15 37.5 21l114 39l1 -10l-72 -27c-9.33301 -4 -16.166 -8.5 -20.499 -13.5s-6.5 -11.5 -6.5 -19.5
c0 -8.66699 2.5 -15.667 7.5 -21s11.5 -8 19.5 -8c7.33301 0 15 1.66699 23 5l54 28l1 -11l-58 -31c-14 -8 -25.5 -13.333 -34.5 -16s-18.5 -4 -28.5 -4c-14.667 0 -26.334 3.66699 -35.001 11z" />
    <glyph glyph-name="guillemotleft" unicode="&#xab;" horiz-adv-x="468" 
d="M51 201c0 4.66699 1.33398 8.33301 4.00098 11l184 149c0 0.666992 0.666992 1 2 1s2.66602 -0.833008 3.99902 -2.5s1.66602 -2.83398 0.999023 -3.50098l-102 -155l102 -155c0.666992 -1.33301 -0.166016 -3.16602 -2.49902 -5.49902s-3.83301 -2.5 -4.5 -0.5l-184 149
c-2.66699 2.66699 -4 6.66699 -4 12zM215.001 200.999c0 3.33301 1.33398 7 4.00098 11l185 149c0 0.666992 0.666992 1 2 1s2.66602 -0.833008 3.99902 -2.5s1.66602 -2.83398 0.999023 -3.50098l-103 -155l103 -155
c0.666992 -1.33301 -0.166016 -3.16602 -2.49902 -5.49902s-3.83301 -2.5 -4.5 -0.5l-185 149c-2.66699 4 -4 8 -4 12z" />
    <glyph glyph-name="logicalnot" unicode="&#xac;" horiz-adv-x="395" 
d="M356.5 73.5c-5 -1 -10.501 -1.5 -16.501 -1.5c-5.33301 0 -10.166 0.333008 -14.499 1s-6.5 1.66699 -6.5 3v194h45v-193c0 -1.33301 -2.5 -2.5 -7.5 -3.5zM30.499 233.5c-1 5 -1.5 10.5 -1.5 16.5c0 4.66699 0.5 9.16699 1.5 13.5s1.83301 6.5 2.5 6.5h331v-44h-330
c-1.33301 0 -2.5 2.5 -3.5 7.5z" />
    <glyph glyph-name="uni00AD" unicode="&#xad;" 
 />
    <glyph glyph-name="registered" unicode="&#xae;" horiz-adv-x="743" 
d="M221 173c-46 23.333 -83.1641 56.501 -111.497 99.501s-42.5 92.833 -42.5 149.5c0 59.333 15.167 112.166 45.5 158.499s70.833 82 121.5 107s105 37.5 163 37.5c57.333 0 107.666 -12 150.999 -36s77 -56.833 101 -98.5s36 -88.167 36 -139.5
c0 -57.333 -14.333 -110 -43 -158s-67.334 -85.833 -116.001 -113.5s-102.334 -41.5 -161.001 -41.5c-50 0 -98 11.667 -144 35zM234.003 278.501c0 3.66699 0.332031 5.50098 0.999023 5.50098c12 0 20.5 1 25.5 3s8.33301 6 10 12s2.5 16 2.5 30v215
c0 18.667 -2.16699 30.667 -6.5 36s-14.833 8 -31.5 8c-0.666992 0 -1 2 -1 6s0.333008 6 1 6l71 -1c8 0 22.667 0.666992 44 2c18.667 1.33301 31.334 2 38.001 2c33.333 0 58 -5.5 74 -16.5s24 -28.167 24 -51.5c0 -36 -16 -63 -48 -81s-72.333 -25.333 -121 -22v17
c15.333 -2 28.333 -3 39 -3c24.667 0 42 5.16699 52 15.5s15 27.833 15 52.5c0 26 -4.5 45.167 -13.5 57.5s-21.5 18.5 -37.5 18.5c-10.667 0 -18.5 -0.833008 -23.5 -2.5s-8.66699 -5.83398 -11 -12.501s-3.5 -17.667 -3.5 -33v-213c0 -14 1 -24 3 -30s6 -10 12 -12
s16 -3 30 -3c1.33301 0 2 -1.83301 2 -5.5s-0.666992 -5.5 -2 -5.5l-73 1l-71 -1c-0.666992 0 -1 1.83301 -1 5.5zM568.002 235.002c39.333 46.667 59.001 107.999 59.001 183.999c0 56.667 -11.333 106.334 -34 149.001s-54.167 75.5 -94.5 98.5s-86.5 34.5 -138.5 34.5
c-52.667 0 -96.667 -11.167 -132 -33.5s-61.666 -52 -78.999 -89s-26 -78.167 -26 -123.5c0 -57.333 12.667 -108 38 -152s59.166 -78 101.499 -102s88.166 -36 137.499 -36c72.667 0 128.667 23.333 168 70zM439.003 312.501c-14.667 26.333 -35.666 67.5 -62.999 123.5
l54 14c26.667 -54.667 49.167 -94 67.5 -118s39.833 -41 64.5 -51c1.33301 0 2 -1.33301 2 -4s-0.666992 -4 -2 -4h-91c-6.66699 0 -17.334 13.167 -32.001 39.5z" />
    <glyph glyph-name="macron" unicode="&#xaf;" horiz-adv-x="345" 
d="M41 482.5c-1.33301 3.66699 -2 7.5 -2 11.5c0 4.66699 0.666992 8.66699 2 12s3.33301 5 6 5h251c2.66699 0 4.83398 -1.66699 6.50098 -5s2.5 -7.33301 2.5 -12s-0.833008 -8.66699 -2.5 -12s-3.83398 -5 -6.50098 -5h-251c-2.66699 0 -4.66699 1.83301 -6 5.5z" />
    <glyph glyph-name="degree" unicode="&#xb0;" horiz-adv-x="332" 
d="M67.5 410c-25.667 24.667 -38.5 55.668 -38.5 93.001c0 35.333 12.833 65.333 38.5 90s58.834 37 99.501 37s73.5 -12.333 98.5 -37s37.5 -55.334 37.5 -92.001s-12.5 -67.167 -37.5 -91.5s-57.833 -36.5 -98.5 -36.5s-73.834 12.333 -99.501 37zM222 412.501
c7.33301 17.667 11.001 44.834 11.001 81.501c0 41.333 -5.83301 72.166 -17.5 92.499s-29.834 30.5 -54.501 30.5c-23.333 0 -39.333 -9.5 -48 -28.5s-13 -46.5 -13 -82.5c0 -38 5.5 -67.5 16.5 -88.5s30.167 -31.5 57.5 -31.5c24.667 0 40.667 8.83301 48 26.5z" />
    <glyph glyph-name="plusminus" unicode="&#xb1;" horiz-adv-x="398" 
d="M30.5 8c-1 4.66699 -1.5 9.66602 -1.5 14.999c0 4.66699 0.333008 9 1 13s1.66699 6 3 6h331c1.33301 0 2.5 -2.16699 3.5 -6.5s1.5 -8.83301 1.5 -13.5c0 -5.33301 -0.5 -10.166 -1.5 -14.499s-2.16699 -6.5 -3.5 -6.5h-330c-1.33301 0 -2.5 2.33301 -3.5 7z
M30.5 237.499c-1 5 -1.5 10.501 -1.5 16.501c0 5.33301 0.333008 10.166 1 14.499s1.66699 6.5 3 6.5h331c1.33301 0 2.5 -2.33301 3.5 -7s1.5 -9.66699 1.5 -15c0 -6 -0.5 -11.333 -1.5 -16s-2.16699 -7 -3.5 -7h-330c-1.33301 0 -2.5 2.5 -3.5 7.5zM214 84.5
c-5.33301 -1 -11.001 -1.5 -17.001 -1.5c-5.33301 0 -10.166 0.333008 -14.499 1s-6.5 1.66699 -6.5 3v331c0 2.66699 7.66699 4 23 4s23 -1.33301 23 -4v-330c0 -1.33301 -2.66699 -2.5 -8 -3.5z" />
    <glyph glyph-name="uni00B2" unicode="&#xb2;" horiz-adv-x="252" 
d="M51.5 477.5c11.667 19 26.1699 38.832 43.5029 59.499c18 22.667 31 41.334 39 56.001s12 32.334 12 53.001c0 38.667 -15 58 -45 58c-14.667 0 -27.667 -5 -39 -15s-19.333 -22.667 -24 -38c0 -1.33301 -1.33301 -2 -4 -2c-2 0 -3.83301 0.5 -5.5 1.5
s-2.16699 2.16699 -1.5 3.5c7.33301 23.333 18.666 41.833 33.999 55.5s37 20.5 65 20.5s49.167 -6.83301 63.5 -20.5s21.5 -31.167 21.5 -52.5s-6.66699 -40.5 -20 -57.5s-33 -36.833 -59 -59.5c-20 -17.333 -35.333 -31.833 -46 -43.5s-18.334 -24.167 -23.001 -37.5
c0 -2 1 -3 3 -3c42.667 0 73.667 1 93 3s32.666 6 39.999 12s11.666 15.667 12.999 29c0 1.33301 1.83301 2 5.5 2s5.5 -0.666992 5.5 -2l-2 -92c0 -1.33301 -0.333008 -2.5 -1 -3.5s-1.66699 -1.5 -3 -1.5h-190c-1.33301 0 -2.33301 0.666992 -3 2
s-0.666992 2.66602 0 3.99902c6.66699 26.667 15.834 49.5 27.501 68.5z" />
    <glyph glyph-name="uni00B3" unicode="&#xb3;" horiz-adv-x="251" 
d="M196 555c19.333 -13.333 29 -32.6689 29 -58.002c0 -26 -9.66699 -49.333 -29 -70s-46 -31 -80 -31c-48.667 0 -80 23 -94 69c-0.666992 2.66699 1 4.5 5 5.5s6.33301 0.166992 7 -2.5c6 -14 14.833 -25.5 26.5 -34.5s25.5 -13.5 41.5 -13.5
c16.667 0 30.334 5.5 41.001 16.5s16 28.833 16 53.5c0 24 -6.5 42.333 -19.5 55s-31.5 19 -55.5 19c-2.66699 0 -4 2 -4 6s1.33301 6 4 6c20 0 35.333 6.5 46 19.5s16 29.5 16 49.5c0 18.667 -4.16699 32.667 -12.5 42s-19.5 14 -33.5 14
c-14.667 0 -27.667 -5.16699 -39 -15.5s-18.333 -22.166 -21 -35.499c-1.33301 -1.33301 -3 -2 -5 -2s-3.83301 0.5 -5.5 1.5s-2.16699 2.16699 -1.5 3.5c6 23.333 17 41.833 33 55.5s37.667 20.5 65 20.5s48.5 -6.83301 63.5 -20.5s22.5 -31.167 22.5 -52.5
c0 -23.333 -9.16699 -43.5 -27.5 -60.5s-38.833 -26.5 -61.5 -28.5v10c29.333 -1.33301 53.666 -8.66602 72.999 -21.999z" />
    <glyph glyph-name="acute" unicode="&#xb4;" horiz-adv-x="212" 
d="M65 472c-2 0 -3.83301 0.499023 -5.5 1.49902s-2.16699 1.83301 -1.5 2.5l40 240c0.666992 2.66699 10 5.83398 28 9.50098s33 5.5 45 5.5c8.66699 0 12.667 -1.33301 12 -4l-114 -253c0 -1.33301 -1.33301 -2 -4 -2z" />
    <glyph glyph-name="paragraph" unicode="&#xb6;" horiz-adv-x="651" 
d="M286 -178.5c-14.667 9.66699 -21.999 22.834 -21.999 39.501c0 12 3.66699 21.833 11 29.5s18.333 11.5 33 11.5c15.333 0 25.833 -3.66699 31.5 -11s10.167 -18 13.5 -32c2 -10.667 4.5 -18.667 7.5 -24s8.83301 -8 17.5 -8c15.333 0 26 13.167 32 39.5s9 73.5 9 141.5
v117c-16.667 -2 -35.667 -3 -57 -3c-52.667 0 -102.167 8.66699 -148.5 26s-84.5 45.666 -114.5 84.999s-45 90.333 -45 153c0 78.667 24.833 138.667 74.5 180s118.5 62 206.5 62c20.667 0 42 -1 64 -3c8 0 20.5 -0.5 37.5 -1.5s32.833 -1.5 47.5 -1.5
c13.333 0 32.666 0.666992 57.999 2l52 1c1.33301 0 2 -2 2 -6s-0.666992 -6 -2 -6c-28.667 0 -50.667 -7 -66 -21s-23 -34 -23 -60l1 -477c0 -86 -12.667 -148.833 -38 -188.5s-66 -59.5 -122 -59.5c-25.333 0 -45.333 4.83301 -60 14.5z" />
    <glyph glyph-name="periodcentered" unicode="&#xb7;" horiz-adv-x="195" 
d="M57 161.5c-10 9.66699 -15 22.832 -15 39.499c0 16 5 28.833 15 38.5s23.333 14.5 40 14.5c17.333 0 30.666 -4.83301 39.999 -14.5s14 -22.5 14 -38.5c0 -17.333 -4.66699 -30.666 -14 -39.999s-22.666 -14 -39.999 -14c-16.667 0 -30 4.83301 -40 14.5z" />
    <glyph glyph-name="cedilla" unicode="&#xb8;" horiz-adv-x="232" 
d="M111 -42c0 -11.333 3.16602 -20.8301 9.49902 -28.4971s16.833 -15.834 31.5 -24.501c17.333 -10.667 30.833 -21.834 40.5 -33.501s14.5 -26.5 14.5 -44.5c0 -26.667 -9.66699 -50.334 -29 -71.001s-48.333 -31 -87 -31c-47.333 0 -71 15 -71 45
c0 9.33301 3.5 17.5 10.5 24.5s15.5 10.5 25.5 10.5c11.333 0 19.333 -2.5 24 -7.5s9 -12.167 13 -21.5s8.16699 -16.333 12.5 -21s11.833 -7 22.5 -7c17.333 0 26 9.33301 26 28c0 17.333 -6.16699 33 -18.5 47s-34.166 29.667 -65.499 47
c-3.33301 1.33301 -5.83301 3 -7.5 5s-2.5 4.33301 -2.5 7c0 4 1.33301 9.66699 4 17c9.33301 22 19 47.333 29 76c3.33301 6 6.33301 14 9 24l16 -1c-4.66699 -18.667 -7 -32 -7 -40z" />
    <glyph glyph-name="uni00B9" unicode="&#xb9;" horiz-adv-x="262" 
d="M38 409c0 4 0.667969 6 2.00098 6c21.333 0 36.333 1.5 45 4.5s14.334 9 17.001 18s4 24.5 4 46.5v118c0 29.333 -1.16699 49 -3.5 59s-8.16602 15 -17.499 15c-8.66699 0 -25.334 -5.66699 -50.001 -17h-1c-2.66699 0 -4.66699 1.66699 -6 5s-1 5.33301 1 6l129 58
c0.666992 0.666992 1.66699 1 3 1c2 0 3.66699 -0.833008 5 -2.5s2 -3.5 2 -5.5v-237c0 -22.667 1.16699 -38.5 3.5 -47.5s7.66602 -14.833 15.999 -17.5s22.5 -4 42.5 -4c1.33301 0 2 -2 2 -6s-0.666992 -6 -2 -6l-39 1c-22.667 1.33301 -40.334 2 -53.001 2
c-14 0 -33 -0.666992 -57 -2l-41 -1c-1.33301 0 -2 2 -2 6z" />
    <glyph glyph-name="ordmasculine" unicode="&#xba;" horiz-adv-x="322" 
d="M36.5 289.5c-1 3.66699 -1.5 7.83398 -1.5 12.501c0 3.33301 0.5 6.66602 1.5 9.99902s1.83301 5 2.5 5h243c1.33301 0 2.5 -1.66699 3.5 -5s1.5 -7 1.5 -11s-0.5 -7.83301 -1.5 -11.5s-2.16699 -5.5 -3.5 -5.5h-242c-1.33301 0 -2.5 1.83301 -3.5 5.5zM64 399.5
c-23.333 27 -35 59.833 -35 98.5c0 28.667 7 52.834 21 72.501s31.667 34.5 53 44.5s43 15 65 15c25.333 0 47.5 -6.33301 66.5 -19s33.667 -29.334 44 -50.001s15.5 -42.667 15.5 -66c0 -24.667 -6.33301 -47.5 -19 -68.5s-29.5 -37.5 -50.5 -49.5s-43.833 -18 -68.5 -18
c-38 0 -68.667 13.5 -92 40.5zM215 401.5c10.667 18.333 16 43.5 16 75.5c0 38.667 -7.66699 71.167 -23 97.5s-35 39.5 -59 39.5c-18.667 0 -32.834 -8.33301 -42.501 -25s-14.5 -40.667 -14.5 -72c0 -38.667 7.5 -72.167 22.5 -100.5s33.833 -42.5 56.5 -42.5
c18.667 0 33.334 9.16699 44.001 27.5z" />
    <glyph glyph-name="guillemotright" unicode="&#xbb;" horiz-adv-x="468" 
d="M418 201c0 -4.66699 -1.66797 -8.66699 -5.00098 -12l-184 -149c0 -0.666992 -0.666992 -1 -2 -1s-2.66602 0.833008 -3.99902 2.5s-1.66602 3.16699 -0.999023 4.5l103 154l-103 156c-0.666992 1.33301 0.166016 3 2.49902 5s3.83301 2 4.5 0l184 -149
c3.33301 -3.33301 5 -7 5 -11zM253.999 201c0 -4.66699 -1.66797 -8.66699 -5.00098 -12l-184 -149c0 -0.666992 -0.666992 -1 -2 -1s-2.66602 0.833008 -3.99902 2.5s-1.66602 3.16699 -0.999023 4.5l103 154l-103 156c-0.666992 1.33301 0.166016 3 2.49902 5
s3.83301 2 4.5 0l184 -149c3.33301 -3.33301 5 -7 5 -11z" />
    <glyph glyph-name="onequarter" unicode="&#xbc;" horiz-adv-x="605" 
d="M38 314.5c0 3.66699 0.666992 5.5 2 5.5c21.333 0 36.333 1.5 45 4.5s14.334 9 17.001 18s4 24.5 4 46.5v119c0 29.333 -1.16699 49 -3.5 59s-8.16602 15 -17.499 15c-8.66699 0 -25.334 -5.66699 -50.001 -17h-2c-2 0 -3.66699 1.5 -5 4.5s-1 4.83301 1 5.5l129 59h2
c2 0 3.83301 -0.833008 5.5 -2.5s2.5 -3.16699 2.5 -4.5v-238c0 -22.667 1.16699 -38.5 3.5 -47.5s7.66602 -14.833 15.999 -17.5s22.5 -4 42.5 -4c1.33301 0 2 -1.83301 2 -5.5s-0.666992 -5.5 -2 -5.5c-16.667 0 -29.667 0.333008 -39 1l-53 1l-57 -1
c-10 -0.666992 -23.667 -1 -41 -1c-1.33301 0 -2 1.83301 -2 5.5zM171.5 3.5c-9.66699 5 -14.166 8.16699 -13.499 9.5l279 616c1.33301 2 6.83301 1 16.5 -3s14.167 -7 13.5 -9l-280 -618c-0.666992 -2 -5.83398 -0.5 -15.501 4.5zM542.001 21.5
c1.33301 -3.66699 4.83301 -6.33203 10.5 -7.99902s15.167 -2.5 28.5 -2.5c0.666992 -1.33301 1 -3.33301 1 -6s-0.333008 -4.66699 -1 -6l-67 1l-84 -1c-0.666992 0 -1 2 -1 6s0.333008 6 1 6c16 0 27.333 0.666992 34 2s11.167 4 13.5 8s3.5 10.667 3.5 20v219l17 10
l-111 -158c-2 -2 -1.33301 -3 2 -3c42.667 0 94 1.33301 154 4l38 2c2 0 3 -4.33301 3 -13c0 -9.33301 -1 -14 -3 -14c-80 4 -155.333 6 -226 6c-2 0 -3.66699 1.16699 -5 3.5s-1 4.16602 1 5.49902l163 218c2 2.66699 6 4 12 4c3.33301 0 6.5 -0.5 9.5 -1.5
s4.5 -2.16699 4.5 -3.5v-279c0 -9.33301 0.666992 -15.833 2 -19.5z" />
    <glyph glyph-name="onehalf" unicode="&#xbd;" horiz-adv-x="611" 
d="M38 314.5c0 3.66699 0.666992 5.5 2 5.5c21.333 0 36.333 1.5 45 4.5s14.334 9 17.001 18s4 24.5 4 46.5v119c0 29.333 -1.16699 49 -3.5 59s-8.16602 15 -17.499 15c-8.66699 0 -25.334 -5.66699 -50.001 -17h-2c-2 0 -3.66699 1.5 -5 4.5s-1 4.83301 1 5.5l129 59h2
c2 0 3.83301 -0.833008 5.5 -2.5s2.5 -3.16699 2.5 -4.5v-238c0 -22.667 1.16699 -38.5 3.5 -47.5s7.66602 -14.833 15.999 -17.5s22.5 -4 42.5 -4c1.33301 0 2 -1.83301 2 -5.5s-0.666992 -5.5 -2 -5.5c-16.667 0 -29.667 0.333008 -39 1l-53 1l-57 -1
c-10 -0.666992 -23.667 -1 -41 -1c-1.33301 0 -2 1.83301 -2 5.5zM171.5 3.5c-9.66699 5 -14.166 8.16699 -13.499 9.5l279 616c1.33301 2 6.83301 1 16.5 -3s14.167 -7 13.5 -9l-280 -618c-0.666992 -2 -5.83398 -0.5 -15.501 4.5zM410.501 74.5
c11.667 19 26.1709 38.835 43.5039 59.502c17.333 21.333 30.166 39.666 38.499 54.999s12.5 33.333 12.5 54c0 19.333 -4 33.666 -12 42.999s-19 14 -33 14c-14.667 0 -27.667 -4.83301 -39 -14.5s-19.333 -22.167 -24 -37.5c0 -2 -1.33301 -3 -4 -3
c-2 0 -3.83301 0.5 -5.5 1.5s-2.16699 2.16699 -1.5 3.5c7.33301 23.333 18.666 41.833 33.999 55.5s37 20.5 65 20.5s49.167 -6.66699 63.5 -20s21.5 -30.666 21.5 -51.999c0 -22 -6.83301 -41.5 -20.5 -58.5s-33.5 -36.833 -59.5 -59.5
c-19.333 -16.667 -34.333 -30.834 -45 -42.501s-18.334 -24.167 -23.001 -37.5c0 -2 1 -3 3 -3c42.667 0 73.667 1 93 3s32.666 6 39.999 12s11.666 16 12.999 30c0 1.33301 1.83301 2 5.5 2s5.5 -0.666992 5.5 -2l-2 -93c0 -3.33301 -1.33301 -5 -4 -5h-190
c-2.66699 0 -3.66699 2 -3 6c6.66699 26.667 15.834 49.5 27.501 68.5z" />
    <glyph glyph-name="threequarters" unicode="&#xbe;" horiz-adv-x="594" 
d="M195.5 460.5c19.667 -13.667 29.499 -32.835 29.499 -57.502c0 -26 -9.66699 -49.333 -29 -70s-46 -31 -80 -31c-48.667 0 -80 23 -94 69c-0.666992 2.66699 1 4.33398 5 5.00098s6.33301 -0.333008 7 -3c6 -14 14.833 -25.333 26.5 -34s25.5 -13 41.5 -13
c16.667 0 30.334 5.5 41.001 16.5s16 28.833 16 53.5c0 24 -6.5 42.333 -19.5 55s-31.5 19 -55.5 19c-2.66699 0 -4 2 -4 6s1.33301 6 4 6c20 0 35.333 6.5 46 19.5s16 29.5 16 49.5c0 18 -4.16699 31.833 -12.5 41.5s-19.5 14.5 -33.5 14.5
c-14.667 0 -27.667 -5.16699 -39 -15.5s-18.333 -22.166 -21 -35.499c-0.666992 -2 -2.33398 -3 -5.00098 -3c-2 0 -3.83301 0.5 -5.5 1.5s-2.16699 2.16699 -1.5 3.5c6 23.333 17 41.833 33 55.5s37.667 20.5 65 20.5s48.5 -6.83301 63.5 -20.5s22.5 -31.167 22.5 -52.5
c0 -22.667 -9.16699 -42.5 -27.5 -59.5s-38.833 -26.5 -61.5 -28.5v10c28.667 -1.33301 52.834 -8.83301 72.501 -22.5zM160.499 3.49902c-9.66699 5 -14.166 8.16699 -13.499 9.5l279 616c1.33301 2 6.83301 1 16.5 -3s14.167 -7 13.5 -9l-280 -618
c-0.666992 -2 -5.83398 -0.5 -15.501 4.5zM531 21.499c1.33301 -3.66699 4.83301 -6.33203 10.5 -7.99902s15.167 -2.5 28.5 -2.5c0.666992 -1.33301 1 -3.33301 1 -6s-0.333008 -4.66699 -1 -6l-67 1l-84 -1c-0.666992 0 -1 2 -1 6s0.333008 6 1 6
c16 0 27.333 0.666992 34 2s11.167 4 13.5 8s3.5 10.667 3.5 20v219l17 10l-111 -158c-2 -2 -1.33301 -3 2 -3c42.667 0 94 1.33301 154 4l38 2c2 0 3 -4.33301 3 -13c0 -9.33301 -1 -14 -3 -14c-80 4 -155.333 6 -226 6c-2 0 -3.66699 1.16699 -5 3.5s-1 4.16602 1 5.49902
l163 218c2 2.66699 6 4 12 4c3.33301 0 6.5 -0.5 9.5 -1.5s4.5 -2.16699 4.5 -3.5v-279c0 -9.33301 0.666992 -15.833 2 -19.5z" />
    <glyph glyph-name="questiondown" unicode="&#xbf;" horiz-adv-x="327" 
d="M188.5 -246.5c4.33301 7.66699 7.16699 18.168 8.5 31.501c2 17.333 6.33301 31.666 13 42.999s19.334 17 38.001 17c15.333 0 26.666 -4.16699 33.999 -12.5s11 -18.166 11 -29.499c0 -21.333 -12.5 -39.666 -37.5 -54.999s-55.833 -23 -92.5 -23
c-42 0 -77.167 10.333 -105.5 31s-42.5 50 -42.5 88c0 25.333 6 46.333 18 63s30 35.667 54 57l18 15c21.333 19.333 36.833 38.666 46.5 57.999s14.5 41 14.5 65c0 13.333 -2 31.333 -6 54c-0.666992 2 1.5 3.5 6.5 4.5s7.83301 0.5 8.5 -1.5c8 -18 14.333 -38.5 19 -61.5
s7 -42.5 7 -58.5c0 -20.667 -3.5 -37.5 -10.5 -50.5s-17.5 -27.833 -31.5 -44.5c-15.333 -18 -27 -34.833 -35 -50.5s-12 -36.167 -12 -61.5c0 -26.667 4.66699 -48.334 14 -65.001s22 -25 38 -25c12 0 20.167 3.83301 24.5 11.5zM216.001 346.001c10 -10 15 -23.333 15 -40
c0 -16 -5 -28.667 -15 -38s-23.333 -14 -40 -14s-29.834 4.66699 -39.501 14s-14.5 22 -14.5 38c0 17.333 4.83301 30.833 14.5 40.5s22.834 14.5 39.501 14.5s30 -5 40 -15z" />
    <glyph glyph-name="Agrave" unicode="&#xc0;" horiz-adv-x="711" 
d="M192 270h280l7 -25h-300zM715 6c0 -4 -1.33496 -6 -4.00195 -6c-12.667 0 -33 0.666992 -61 2s-48.333 2 -61 2c-16.667 0 -36.334 -0.666992 -59.001 -2s-40.334 -2 -53.001 -2c-2.66699 0 -4 2 -4 6s1.33301 6 4 6c20 0 34.333 2.16699 43 6.5s13 11.5 13 21.5
s-5.66699 27 -17 51l-209 425l41 67l-198 -446c-8.66699 -20 -13 -38 -13 -54c0 -23.333 8.33301 -41 25 -53s40 -18 70 -18c3.33301 0 5 -2 5 -6s-1.66699 -6 -5 -6c-12 0 -29.333 0.666992 -52 2c-25.333 1.33301 -47.333 2 -66 2c-18 0 -39 -0.666992 -63 -2
c-21.333 -1.33301 -39 -2 -53 -2c-3.33301 0 -5 2 -5 6s1.66699 6 5 6c18.667 0 34.334 3.66699 47.001 11s25 20.5 37 39.5s26.333 47.167 43 84.5l215 484c1.33301 2 4.33301 3 9 3s7.33398 -1 8.00098 -3l245 -494c22.667 -48 41.834 -80.833 57.501 -98.5
s32.834 -26.5 51.501 -26.5c2.66699 0 4 -2 4 -6zM226.998 756c-7.33301 1.33301 -4.16797 5.33301 9.49902 12s29.334 12.667 47.001 18s28.167 6.66602 31.5 3.99902c20 -14.667 35 -26 45 -34c40.667 -30.667 71.667 -53 93 -67c2 -0.666992 3 -2 3 -4
s-0.666992 -3.66699 -2 -5s-3 -1.66602 -5 -0.999023c-74.667 33.333 -148.667 59 -222 77z" />
    <glyph glyph-name="Aacute" unicode="&#xc1;" horiz-adv-x="711" 
d="M192 270h280l7 -25h-300zM715 6c0 -4 -1.33496 -6 -4.00195 -6c-12.667 0 -33 0.666992 -61 2s-48.333 2 -61 2c-16.667 0 -36.334 -0.666992 -59.001 -2s-40.334 -2 -53.001 -2c-2.66699 0 -4 2 -4 6s1.33301 6 4 6c20 0 34.333 2.16699 43 6.5s13 11.5 13 21.5
s-5.66699 27 -17 51l-209 425l41 67l-198 -446c-8.66699 -20 -13 -38 -13 -54c0 -23.333 8.33301 -41 25 -53s40 -18 70 -18c3.33301 0 5 -2 5 -6s-1.66699 -6 -5 -6c-12 0 -29.333 0.666992 -52 2c-25.333 1.33301 -47.333 2 -66 2c-18 0 -39 -0.666992 -63 -2
c-21.333 -1.33301 -39 -2 -53 -2c-3.33301 0 -5 2 -5 6s1.66699 6 5 6c18.667 0 34.334 3.66699 47.001 11s25 20.5 37 39.5s26.333 47.167 43 84.5l215 484c1.33301 2 4.33301 3 9 3s7.33398 -1 8.00098 -3l245 -494c22.667 -48 41.834 -80.833 57.501 -98.5
s32.834 -26.5 51.501 -26.5c2.66699 0 4 -2 4 -6zM251.998 678c-2.66699 0 -4.49902 1.49902 -5.49902 4.49902s-0.5 5.16699 1.5 6.5c22 14 53.333 36.333 94 67c9.33301 8 24 19.333 44 34c3.33301 2.66699 14 1.33398 32 -3.99902s33.667 -11.333 47 -18
s16.666 -10.667 9.99902 -12c-78.667 -20 -152.667 -46 -222 -78h-1z" />
    <glyph glyph-name="Acircumflex" unicode="&#xc2;" horiz-adv-x="711" 
d="M192 270h280l7 -25h-300zM715 6c0 -4 -1.33496 -6 -4.00195 -6c-12.667 0 -33 0.666992 -61 2s-48.333 2 -61 2c-16.667 0 -36.334 -0.666992 -59.001 -2s-40.334 -2 -53.001 -2c-2.66699 0 -4 2 -4 6s1.33301 6 4 6c20 0 34.333 2.16699 43 6.5s13 11.5 13 21.5
s-5.66699 27 -17 51l-209 425l41 67l-198 -446c-8.66699 -20 -13 -38 -13 -54c0 -23.333 8.33301 -41 25 -53s40 -18 70 -18c3.33301 0 5 -2 5 -6s-1.66699 -6 -5 -6c-12 0 -29.333 0.666992 -52 2c-25.333 1.33301 -47.333 2 -66 2c-18 0 -39 -0.666992 -63 -2
c-21.333 -1.33301 -39 -2 -53 -2c-3.33301 0 -5 2 -5 6s1.66699 6 5 6c18.667 0 34.334 3.66699 47.001 11s25 20.5 37 39.5s26.333 47.167 43 84.5l215 484c1.33301 2 4.33301 3 9 3s7.33398 -1 8.00098 -3l245 -494c22.667 -48 41.834 -80.833 57.501 -98.5
s32.834 -26.5 51.501 -26.5c2.66699 0 4 -2 4 -6zM349.998 800c4 0 7.66797 -1.66797 11.001 -5.00098l102 -109c0.666992 0 1 -0.666992 1 -2s-0.833008 -2.66602 -2.5 -3.99902s-2.83398 -1.66602 -3.50098 -0.999023l-108 45l-109 -45
c-1.33301 -0.666992 -3 0.166016 -5 2.49902s-2.33301 3.83301 -1 4.5l103 109c3.33301 3.33301 7.33301 5 12 5z" />
    <glyph glyph-name="Atilde" unicode="&#xc3;" horiz-adv-x="711" 
d="M192 270h280l7 -25h-300zM715 6c0 -4 -1.33496 -6 -4.00195 -6c-12.667 0 -33 0.666992 -61 2s-48.333 2 -61 2c-16.667 0 -36.334 -0.666992 -59.001 -2s-40.334 -2 -53.001 -2c-2.66699 0 -4 2 -4 6s1.33301 6 4 6c20 0 34.333 2.16699 43 6.5s13 11.5 13 21.5
s-5.66699 27 -17 51l-209 425l41 67l-198 -446c-8.66699 -20 -13 -38 -13 -54c0 -23.333 8.33301 -41 25 -53s40 -18 70 -18c3.33301 0 5 -2 5 -6s-1.66699 -6 -5 -6c-12 0 -29.333 0.666992 -52 2c-25.333 1.33301 -47.333 2 -66 2c-18 0 -39 -0.666992 -63 -2
c-21.333 -1.33301 -39 -2 -53 -2c-3.33301 0 -5 2 -5 6s1.66699 6 5 6c18.667 0 34.334 3.66699 47.001 11s25 20.5 37 39.5s26.333 47.167 43 84.5l215 484c1.33301 2 4.33301 3 9 3s7.33398 -1 8.00098 -3l245 -494c22.667 -48 41.834 -80.833 57.501 -98.5
s32.834 -26.5 51.501 -26.5c2.66699 0 4 -2 4 -6zM452.498 766c7 4 14.834 11.001 23.501 21.001l2 1c1.33301 0 2.66602 -1 3.99902 -3s1.66602 -3.66699 0.999023 -5c-17.333 -29.333 -31.666 -49 -42.999 -59s-24.333 -15 -39 -15c-14 0 -33.333 3.66699 -58 11
c-10.667 3.33301 -22.167 6.33301 -34.5 9s-23.833 4 -34.5 4c-12.667 0 -21.667 -1.83301 -27 -5.5s-13 -10.834 -23 -21.501h-1c-2 0 -3.83301 0.833008 -5.5 2.5s-1.83398 3.16699 -0.500977 4.5c29.333 50 58 75 86 75c8 0 24 -3.33301 48 -10
c32.667 -10 57.334 -15 74.001 -15c11.333 0 20.5 2 27.5 6z" />
    <glyph glyph-name="Adieresis" unicode="&#xc4;" horiz-adv-x="711" 
d="M192 270h280l7 -25h-300zM715 6c0 -4 -1.33496 -6 -4.00195 -6c-12.667 0 -33 0.666992 -61 2s-48.333 2 -61 2c-16.667 0 -36.334 -0.666992 -59.001 -2s-40.334 -2 -53.001 -2c-2.66699 0 -4 2 -4 6s1.33301 6 4 6c20 0 34.333 2.16699 43 6.5s13 11.5 13 21.5
s-5.66699 27 -17 51l-209 425l41 67l-198 -446c-8.66699 -20 -13 -38 -13 -54c0 -23.333 8.33301 -41 25 -53s40 -18 70 -18c3.33301 0 5 -2 5 -6s-1.66699 -6 -5 -6c-12 0 -29.333 0.666992 -52 2c-25.333 1.33301 -47.333 2 -66 2c-18 0 -39 -0.666992 -63 -2
c-21.333 -1.33301 -39 -2 -53 -2c-3.33301 0 -5 2 -5 6s1.66699 6 5 6c18.667 0 34.334 3.66699 47.001 11s25 20.5 37 39.5s26.333 47.167 43 84.5l215 484c1.33301 2 4.33301 3 9 3s7.33398 -1 8.00098 -3l245 -494c22.667 -48 41.834 -80.833 57.501 -98.5
s32.834 -26.5 51.501 -26.5c2.66699 0 4 -2 4 -6zM225.498 721c-9 8.66699 -13.499 20.998 -13.499 36.998c0 14.667 4.66699 26.334 14 35.001s21.666 13 36.999 13s27.166 -4.16699 35.499 -12.5s12.5 -20.166 12.5 -35.499c0 -16 -4.16699 -28.333 -12.5 -37
s-20.166 -13 -35.499 -13c-16 0 -28.5 4.33301 -37.5 13zM400.499 720.998c-9 8.66699 -13.5 21 -13.5 37c0 14.667 4.5 26.167 13.5 34.5s21.5 12.5 37.5 12.5c15.333 0 27.166 -4.16699 35.499 -12.5s12.5 -19.833 12.5 -34.5c0 -16 -4.16699 -28.333 -12.5 -37
s-20.166 -13 -35.499 -13c-16 0 -28.5 4.33301 -37.5 13z" />
    <glyph glyph-name="Aring" unicode="&#xc5;" horiz-adv-x="711" 
d="M192 270h280l7 -25h-300zM715 6c0 -4 -1.33496 -6 -4.00195 -6c-12.667 0 -33 0.666992 -61 2s-48.333 2 -61 2c-16.667 0 -36.334 -0.666992 -59.001 -2s-40.334 -2 -53.001 -2c-2.66699 0 -4 2 -4 6s1.33301 6 4 6c20 0 34.333 2.16699 43 6.5s13 11.5 13 21.5
s-5.66699 27 -17 51l-209 425l41 67l-198 -446c-8.66699 -20 -13 -38 -13 -54c0 -23.333 8.33301 -41 25 -53s40 -18 70 -18c3.33301 0 5 -2 5 -6s-1.66699 -6 -5 -6c-12 0 -29.333 0.666992 -52 2c-25.333 1.33301 -47.333 2 -66 2c-18 0 -39 -0.666992 -63 -2
c-21.333 -1.33301 -39 -2 -53 -2c-3.33301 0 -5 2 -5 6s1.66699 6 5 6c18.667 0 34.334 3.66699 47.001 11s25 20.5 37 39.5s26.333 47.167 43 84.5l215 484c1.33301 2 4.33301 3 9 3s7.33398 -1 8.00098 -3l245 -494c22.667 -48 41.834 -80.833 57.501 -98.5
s32.834 -26.5 51.501 -26.5c2.66699 0 4 -2 4 -6zM269.498 684.5c-18.333 15.667 -27.5 34.499 -27.5 56.499c0 24 11.333 42.833 34 56.5s48 20.5 76 20.5c27.333 0 50.833 -7.66699 70.5 -23s29.5 -34 29.5 -56c0 -23.333 -11 -42.166 -33 -56.499
s-47.333 -21.5 -76 -21.5c-30.667 0 -55.167 7.83301 -73.5 23.5zM387.998 720.999c0 22.667 -5.5 42.334 -16.5 59.001s-24.167 25 -39.5 25c-17.333 0 -26 -14.667 -26 -44c0 -22.667 4.66699 -42.834 14 -60.501s22 -26.5 38 -26.5c20 0 30 15.667 30 47z" />
    <glyph glyph-name="AE" unicode="&#xc6;" horiz-adv-x="883" 
d="M-9 6c0 4 1.66406 5.99902 4.99707 5.99902c25.333 0 50 9.5 74 28.5s50 49.5 78 91.5l293 442c8.66699 12 13 20.333 13 25c0 6 -5.5 9.83301 -16.5 11.5s-31.167 2.5 -60.5 2.5c-1.33301 0 -2 2 -2 6s0.666992 6 2 6h418c6 0 9 -3 9 -9l2 -130
c0 -1.33301 -1.83301 -2.16602 -5.5 -2.49902s-5.5 0.5 -5.5 2.5c-3.33301 17.333 -11.166 34.666 -23.499 51.999s-28 31.833 -47 43.5s-39.167 17.5 -60.5 17.5h-46c-24 0 -40.833 -4.16699 -50.5 -12.5s-14.5 -22.833 -14.5 -43.5v-458c0 -22 4 -37.333 12 -46
s23 -13 45 -13h54c34.667 0 67.834 12.667 99.501 38s52.167 55.666 61.5 90.999c0 1.33301 1.66699 2 5 2c4.66699 0 7 -1 7 -3c-6 -45.333 -9 -91.666 -9 -138.999c0 -5.33301 -1.16699 -9.16602 -3.5 -11.499s-6.5 -3.5 -12.5 -3.5h-427c-1.33301 0 -2 2 -2 6
s0.666992 6 2 6c22.667 0 39.167 1.66699 49.5 5s17.5 9.83301 21.5 19.5s6 24.5 6 44.5v508l32 15l-306 -470c-18.667 -28.667 -28 -52.667 -28 -72c0 -16 6.5 -28.333 19.5 -37s31.833 -13 56.5 -13c3.33301 0 5 -2 5 -6s-1.66699 -6 -5 -6c-14 0 -33.667 0.666992 -59 2
c-29.333 1.33301 -54.666 2 -75.999 2c-16.667 0 -35.667 -0.666992 -57 -2c-20 -1.33301 -36 -2 -48 -2c-3.33301 0 -5 2 -5 6zM304.997 337.999h223l7 -26h-245zM643.997 311.999l-154 0.000976562v26h156c72.667 0 109 24.667 109 74c0 2 2 3 6 3s6 -1 6 -3l-1 -87
c0 -20.667 0.333008 -36.334 1 -47.001l1 -52c0 -1.33301 -2 -2 -6 -2s-6 0.666992 -6 2c0 57.333 -37.333 86 -112 86z" />
    <glyph glyph-name="Ccedilla" unicode="&#xc7;" horiz-adv-x="683" 
d="M601 605c5.33301 -2.66699 8.66406 -5.16699 9.99707 -7.5s2.66602 -7.5 3.99902 -15.5l12 -132c0 -2 -1.66699 -3.33301 -5 -4s-5.66602 0.333008 -6.99902 3c-17.333 54.667 -43.166 96.334 -77.499 125.001s-76.833 43 -127.5 43c-49.333 0 -93 -12.167 -131 -36.5
s-67.667 -59.333 -89 -105s-32 -98.834 -32 -159.501c0 -60 11.333 -113.5 34 -160.5s53.667 -83.5 93 -109.5s83.666 -39 132.999 -39c48.667 0 89.167 12.833 121.5 38.5s60.833 66.5 85.5 122.5c0.666992 2 2.66699 2.66699 6 2s5 -1.66699 5 -3l-13 -119
c-1.33301 -8 -2.66602 -13.167 -3.99902 -15.5s-4.66602 -4.83301 -9.99902 -7.5c-60 -24.667 -124 -37 -192 -37c-70.667 0 -134 13.5 -190 40.5s-99.667 65 -131 114s-47 105.167 -47 168.5c0 62.667 16.167 118.667 48.5 168s76.833 87.833 133.5 115.5
s120.334 41.5 191.001 41.5c74 0 133.667 -10.333 179 -31zM408.998 -42c0 -11.333 3.16602 -20.8301 9.49902 -28.4971s16.833 -15.834 31.5 -24.501c17.333 -10.667 30.833 -21.834 40.5 -33.501s14.5 -26.5 14.5 -44.5c0 -26.667 -9.66699 -50.334 -29 -71.001
s-48.333 -31 -87 -31c-47.333 0 -71 15 -71 45c0 9.33301 3.5 17.5 10.5 24.5s15.5 10.5 25.5 10.5c11.333 0 19.333 -2.5 24 -7.5s9 -12.167 13 -21.5s8.16699 -16.333 12.5 -21s11.833 -7 22.5 -7c17.333 0 26 9.33301 26 28c0 17.333 -6.16699 33 -18.5 47
s-34.166 29.667 -65.499 47c-3.33301 1.33301 -5.83301 3 -7.5 5s-2.5 4.33301 -2.5 7c0 4 1.33301 9.66699 4 17c9.33301 22 19 47.333 29 76c3.33301 6 6.33301 14 9 24l16 -1c-4.66699 -18.667 -7 -32 -7 -40z" />
    <glyph glyph-name="Egrave" unicode="&#xc8;" horiz-adv-x="547" 
d="M39 6c0 4 1.00391 5.99902 3.00391 5.99902c22.667 0 39.167 1.66699 49.5 5s17.333 9.83301 21 19.5s5.5 24.5 5.5 44.5v463c0 20 -1.83301 34.667 -5.5 44s-10.834 15.833 -21.501 19.5s-27 5.5 -49 5.5c-2 0 -3 2 -3 6s1 6 3 6h416c6.66699 0 10 -3 10 -9l2 -130
c0 -1.33301 -1.83301 -2.16602 -5.5 -2.49902s-5.83398 0.5 -6.50098 2.5c-16 75.333 -62 113 -138 113h-41c-24.667 0 -41.834 -4.33301 -51.501 -13s-14.5 -23.334 -14.5 -44.001v-457c0 -22 4.16699 -37.333 12.5 -46s23.166 -13 44.499 -13h49c89.333 0 146 43 170 129
c0 1.33301 1.66699 2 5 2c4.66699 0 7 -1 7 -3c-6.66699 -50.667 -10 -97 -10 -139c0 -5.33301 -1 -9.16602 -3 -11.499s-6 -3.5 -12 -3.5h-434c-2 0 -3 2 -3 6zM308.004 311.999l-140 -0.000976562v26h141c73.333 0 110 24.667 110 74c0 2 1.83301 3 5.5 3s5.5 -1 5.5 -3
l-1 -87l1 -47c1.33301 -21.333 2 -38.666 2 -51.999c0 -1.33301 -2 -2 -6 -2s-6 0.666992 -6 2c0 57.333 -37.333 86 -112 86zM173.004 755.998c-6.66699 1.33301 -3.33496 5.33301 9.99805 12s29 12.667 47 18s28.667 6.66602 32 3.99902l37 -28
c40 -30.667 73.667 -55 101 -73c1.33301 -0.666992 2 -2 2 -4s-0.666992 -3.66699 -2 -5s-2.66602 -1.66602 -3.99902 -0.999023c-75.333 33.333 -149.666 59 -222.999 77z" />
    <glyph glyph-name="Eacute" unicode="&#xc9;" horiz-adv-x="547" 
d="M39 6c0 4 1.00391 5.99902 3.00391 5.99902c22.667 0 39.167 1.66699 49.5 5s17.333 9.83301 21 19.5s5.5 24.5 5.5 44.5v463c0 20 -1.83301 34.667 -5.5 44s-10.834 15.833 -21.501 19.5s-27 5.5 -49 5.5c-2 0 -3 2 -3 6s1 6 3 6h416c6.66699 0 10 -3 10 -9l2 -130
c0 -1.33301 -1.83301 -2.16602 -5.5 -2.49902s-5.83398 0.5 -6.50098 2.5c-16 75.333 -62 113 -138 113h-41c-24.667 0 -41.834 -4.33301 -51.501 -13s-14.5 -23.334 -14.5 -44.001v-457c0 -22 4.16699 -37.333 12.5 -46s23.166 -13 44.499 -13h49c89.333 0 146 43 170 129
c0 1.33301 1.66699 2 5 2c4.66699 0 7 -1 7 -3c-6.66699 -50.667 -10 -97 -10 -139c0 -5.33301 -1 -9.16602 -3 -11.499s-6 -3.5 -12 -3.5h-434c-2 0 -3 2 -3 6zM308.004 311.999l-140 -0.000976562v26h141c73.333 0 110 24.667 110 74c0 2 1.83301 3 5.5 3s5.5 -1 5.5 -3
l-1 -87l1 -47c1.33301 -21.333 2 -38.666 2 -51.999c0 -1.33301 -2 -2 -6 -2s-6 0.666992 -6 2c0 57.333 -37.333 86 -112 86zM197.004 677.998c-2.66699 0 -4.33398 1.49902 -5.00098 4.49902s0 5.16699 2 6.5c21.333 12.667 50.666 33.667 87.999 63l50 38
c3.33301 2.66699 14 1.33398 32 -3.99902s33.833 -11.333 47.5 -18s16.834 -10.667 9.50098 -12c-41.333 -10 -79.166 -21.167 -113.499 -33.5s-70.5 -26.833 -108.5 -43.5z" />
    <glyph glyph-name="Ecircumflex" unicode="&#xca;" horiz-adv-x="547" 
d="M39 6c0 4 1.00391 5.99902 3.00391 5.99902c22.667 0 39.167 1.66699 49.5 5s17.333 9.83301 21 19.5s5.5 24.5 5.5 44.5v463c0 20 -1.83301 34.667 -5.5 44s-10.834 15.833 -21.501 19.5s-27 5.5 -49 5.5c-2 0 -3 2 -3 6s1 6 3 6h416c6.66699 0 10 -3 10 -9l2 -130
c0 -1.33301 -1.83301 -2.16602 -5.5 -2.49902s-5.83398 0.5 -6.50098 2.5c-16 75.333 -62 113 -138 113h-41c-24.667 0 -41.834 -4.33301 -51.501 -13s-14.5 -23.334 -14.5 -44.001v-457c0 -22 4.16699 -37.333 12.5 -46s23.166 -13 44.499 -13h49c89.333 0 146 43 170 129
c0 1.33301 1.66699 2 5 2c4.66699 0 7 -1 7 -3c-6.66699 -50.667 -10 -97 -10 -139c0 -5.33301 -1 -9.16602 -3 -11.499s-6 -3.5 -12 -3.5h-434c-2 0 -3 2 -3 6zM308.004 311.999l-140 -0.000976562v26h141c73.333 0 110 24.667 110 74c0 2 1.83301 3 5.5 3s5.5 -1 5.5 -3
l-1 -87l1 -47c1.33301 -21.333 2 -38.666 2 -51.999c0 -1.33301 -2 -2 -6 -2s-6 0.666992 -6 2c0 57.333 -37.333 86 -112 86zM297.004 812.998c4 0 7.66797 -1.66797 11.001 -5.00098l102 -109c0.666992 0 1 -0.666992 1 -2s-0.833008 -2.66602 -2.5 -3.99902
s-2.83398 -1.66602 -3.50098 -0.999023l-108 45l-109 -45c-1.33301 -0.666992 -3 0.166016 -5 2.49902s-2.33301 3.83301 -1 4.5l103 109c3.33301 3.33301 7.33301 5 12 5z" />
    <glyph glyph-name="Edieresis" unicode="&#xcb;" horiz-adv-x="547" 
d="M39 6c0 4 1.00391 5.99902 3.00391 5.99902c22.667 0 39.167 1.66699 49.5 5s17.333 9.83301 21 19.5s5.5 24.5 5.5 44.5v463c0 20 -1.83301 34.667 -5.5 44s-10.834 15.833 -21.501 19.5s-27 5.5 -49 5.5c-2 0 -3 2 -3 6s1 6 3 6h416c6.66699 0 10 -3 10 -9l2 -130
c0 -1.33301 -1.83301 -2.16602 -5.5 -2.49902s-5.83398 0.5 -6.50098 2.5c-16 75.333 -62 113 -138 113h-41c-24.667 0 -41.834 -4.33301 -51.501 -13s-14.5 -23.334 -14.5 -44.001v-457c0 -22 4.16699 -37.333 12.5 -46s23.166 -13 44.499 -13h49c89.333 0 146 43 170 129
c0 1.33301 1.66699 2 5 2c4.66699 0 7 -1 7 -3c-6.66699 -50.667 -10 -97 -10 -139c0 -5.33301 -1 -9.16602 -3 -11.499s-6 -3.5 -12 -3.5h-434c-2 0 -3 2 -3 6zM308.004 311.999l-140 -0.000976562v26h141c73.333 0 110 24.667 110 74c0 2 1.83301 3 5.5 3s5.5 -1 5.5 -3
l-1 -87l1 -47c1.33301 -21.333 2 -38.666 2 -51.999c0 -1.33301 -2 -2 -6 -2s-6 0.666992 -6 2c0 57.333 -37.333 86 -112 86zM172.504 720.998c-9 8.66699 -13.5 21 -13.5 37c0 15.333 4.5 27.166 13.5 35.499s21.5 12.5 37.5 12.5c15.333 0 27.166 -4.16699 35.499 -12.5
s12.5 -20.166 12.5 -35.499c0 -16 -4.16699 -28.333 -12.5 -37s-20.166 -13 -35.499 -13c-16 0 -28.5 4.33301 -37.5 13zM347.504 720.998c-9 8.66699 -13.5 21 -13.5 37c0 14.667 4.5 26.167 13.5 34.5s21.167 12.5 36.5 12.5s27.166 -4 35.499 -12s12.5 -19.667 12.5 -35
c0 -16 -4.16699 -28.333 -12.5 -37s-20.166 -13 -35.499 -13s-27.5 4.33301 -36.5 13z" />
    <glyph glyph-name="Igrave" unicode="&#xcc;" horiz-adv-x="339" 
d="M222.5 36c3.66699 -9.33301 10.668 -15.667 21.001 -19s26.833 -5 49.5 -5c2 0 3 -2 3 -6s-1 -6 -3 -6c-21.333 -0 -38.333 0.333008 -51 1l-74 1l-72 -1c-12.667 -0.666992 -30 -1 -52 -1c-2 0 -3 2 -3 6s1 6 3 6c22.667 0 39.167 1.66699 49.5 5
s17.5 9.83301 21.5 19.5s6 24.5 6 44.5v463c0 20 -2 34.667 -6 44s-11.167 15.833 -21.5 19.5s-26.833 5.5 -49.5 5.5c-2 0 -3 2 -3 6s1 6 3 6l52 -1c29.333 -1.33301 53.333 -2 72 -2c20.667 0 45.667 0.666992 75 2l50 1c2 0 3 -2 3 -6s-1 -6 -3 -6
c-22 0 -38.333 -2 -49 -6s-17.834 -10.833 -21.501 -20.5s-5.5 -24.5 -5.5 -44.5v-461c0 -20.667 1.83301 -35.667 5.5 -45zM47.001 755.999c-7.33301 1.33301 -4.16797 5.33301 9.49902 12s29.334 12.667 47.001 18s28.167 6.66602 31.5 3.99902c20 -14.667 35 -26 45 -34
c40.667 -30.667 71.667 -53 93 -67c2 -0.666992 3 -2 3 -4s-0.666992 -3.66699 -2 -5s-3 -1.66602 -5 -0.999023c-74.667 33.333 -148.667 59 -222 77z" />
    <glyph glyph-name="Iacute" unicode="&#xcd;" horiz-adv-x="339" 
d="M222.5 36c3.66699 -9.33301 10.668 -15.667 21.001 -19s26.833 -5 49.5 -5c2 0 3 -2 3 -6s-1 -6 -3 -6c-21.333 -0 -38.333 0.333008 -51 1l-74 1l-72 -1c-12.667 -0.666992 -30 -1 -52 -1c-2 0 -3 2 -3 6s1 6 3 6c22.667 0 39.167 1.66699 49.5 5
s17.5 9.83301 21.5 19.5s6 24.5 6 44.5v463c0 20 -2 34.667 -6 44s-11.167 15.833 -21.5 19.5s-26.833 5.5 -49.5 5.5c-2 0 -3 2 -3 6s1 6 3 6l52 -1c29.333 -1.33301 53.333 -2 72 -2c20.667 0 45.667 0.666992 75 2l50 1c2 0 3 -2 3 -6s-1 -6 -3 -6
c-22 0 -38.333 -2 -49 -6s-17.834 -10.833 -21.501 -20.5s-5.5 -24.5 -5.5 -44.5v-461c0 -20.667 1.83301 -35.667 5.5 -45zM70.001 677.999c-2.66699 0 -4.33691 1.49902 -5.00391 4.49902s0 5.16699 2 6.5c24.667 16 54.334 37.333 89.001 64l50 37
c3.33301 2.66699 13.833 1.33398 31.5 -3.99902s33.334 -11.333 47.001 -18s16.834 -10.667 9.50098 -12c-41.333 -10 -79.166 -21.167 -113.499 -33.5s-70.5 -26.833 -108.5 -43.5z" />
    <glyph glyph-name="Icircumflex" unicode="&#xce;" horiz-adv-x="339" 
d="M222.5 36c3.66699 -9.33301 10.668 -15.667 21.001 -19s26.833 -5 49.5 -5c2 0 3 -2 3 -6s-1 -6 -3 -6c-21.333 -0 -38.333 0.333008 -51 1l-74 1l-72 -1c-12.667 -0.666992 -30 -1 -52 -1c-2 0 -3 2 -3 6s1 6 3 6c22.667 0 39.167 1.66699 49.5 5
s17.5 9.83301 21.5 19.5s6 24.5 6 44.5v463c0 20 -2 34.667 -6 44s-11.167 15.833 -21.5 19.5s-26.833 5.5 -49.5 5.5c-2 0 -3 2 -3 6s1 6 3 6l52 -1c29.333 -1.33301 53.333 -2 72 -2c20.667 0 45.667 0.666992 75 2l50 1c2 0 3 -2 3 -6s-1 -6 -3 -6
c-22 0 -38.333 -2 -49 -6s-17.834 -10.833 -21.501 -20.5s-5.5 -24.5 -5.5 -44.5v-461c0 -20.667 1.83301 -35.667 5.5 -45zM170.001 812.999c4 0 7.66797 -1.66797 11.001 -5.00098l102 -109c0.666992 0 1 -0.666992 1 -2s-0.833008 -2.66602 -2.5 -3.99902
s-2.83398 -1.66602 -3.50098 -0.999023l-108 45l-109 -45c-1.33301 -0.666992 -3 0.166016 -5 2.49902s-2.33301 3.83301 -1 4.5l103 109c3.33301 3.33301 7.33301 5 12 5z" />
    <glyph glyph-name="Idieresis" unicode="&#xcf;" horiz-adv-x="339" 
d="M222.5 36c3.66699 -9.33301 10.668 -15.667 21.001 -19s26.833 -5 49.5 -5c2 0 3 -2 3 -6s-1 -6 -3 -6c-21.333 -0 -38.333 0.333008 -51 1l-74 1l-72 -1c-12.667 -0.666992 -30 -1 -52 -1c-2 0 -3 2 -3 6s1 6 3 6c22.667 0 39.167 1.66699 49.5 5
s17.5 9.83301 21.5 19.5s6 24.5 6 44.5v463c0 20 -2 34.667 -6 44s-11.167 15.833 -21.5 19.5s-26.833 5.5 -49.5 5.5c-2 0 -3 2 -3 6s1 6 3 6l52 -1c29.333 -1.33301 53.333 -2 72 -2c20.667 0 45.667 0.666992 75 2l50 1c2 0 3 -2 3 -6s-1 -6 -3 -6
c-22 0 -38.333 -2 -49 -6s-17.834 -10.833 -21.501 -20.5s-5.5 -24.5 -5.5 -44.5v-461c0 -20.667 1.83301 -35.667 5.5 -45zM57.501 720.999c-9 8.66699 -13.499 20.998 -13.499 36.998c0 14.667 4.66699 26.334 14 35.001s21.666 13 36.999 13s27.333 -4.16699 36 -12.5
s13 -20.166 13 -35.499c0 -16 -4.33301 -28.333 -13 -37s-20.667 -13 -36 -13c-16 0 -28.5 4.33301 -37.5 13zM208.002 720.997c-8.66699 8.66699 -13 21 -13 37c0 14.667 4.33301 26.167 13 34.5s20.667 12.5 36 12.5s27.166 -4 35.499 -12s12.5 -19.667 12.5 -35
c0 -16 -4.16699 -28.333 -12.5 -37s-20.166 -13 -35.499 -13s-27.333 4.33301 -36 13z" />
    <glyph glyph-name="Eth" unicode="&#xd0;" horiz-adv-x="700" 
d="M49 311c0 8.66699 1.33301 13 4 13h287c3.33301 0 5 -4.33301 5 -13c0 -3.33301 -0.5 -6.33301 -1.5 -9s-2.16699 -4 -3.5 -4h-287c-2.66699 0 -4 4.33301 -4 13zM245 -1c-10 0.666992 -22.6621 1.33398 -37.9951 2.00098s-32.333 1 -51 1l-71 -1
c-12.667 -0.666992 -30.334 -1 -53.001 -1c-1.33301 0 -2 2 -2 6s0.666992 6 2 6c22.667 0 39.167 1.66699 49.5 5s17.5 9.83301 21.5 19.5s6 24.5 6 44.5v463c0 20 -1.83301 34.667 -5.5 44s-10.834 15.833 -21.501 19.5s-27 5.5 -49 5.5c-1.33301 0 -2 2 -2 6
s0.666992 6 2 6l53 -1c29.333 -1.33301 52.666 -2 69.999 -2c26 0 53 1 81 3c33.333 1.33301 55.666 2 66.999 2c68 0 128.333 -13.333 181 -40s93.5 -63 122.5 -109s43.5 -97.667 43.5 -155c0 -64.667 -15 -121.834 -45 -171.501s-70.333 -88 -121 -115
s-106.334 -40.5 -167.001 -40.5c-20.667 0 -45 1 -73 3zM430.505 49c35.667 22 63.5 54.501 83.5 97.501s30 94.5 30 154.5c0 57.333 -9.5 109.166 -28.5 155.499s-45.833 83 -80.5 110s-75 40.5 -121 40.5c-28.667 0 -50.5 -1.66699 -65.5 -5s-26.167 -9.5 -33.5 -18.5
s-11 -22.833 -11 -41.5v-450c0 -27.333 7.16699 -46.833 21.5 -58.5s41.833 -17.5 82.5 -17.5c46 0 86.833 11 122.5 33z" />
    </font>
</defs>
</svg>
