<?xml version="1.0" standalone="no"?>
<!DOCTYPE svg PUBLIC "-//W3C//DTD SVG 1.1//EN" "http://www.w3.org/Graphics/SVG/1.1/DTD/svg11.dtd" >
<svg>
<metadata>
Created by FontForge 20090914 at Fri Jan 13 19:44:30 2023
 By www-data
Copyright 2015 The Cormorant Project Authors (github.com/CatharsisFonts/Cormorant)
</metadata>
<defs>
<font id="CormorantInfant-Light" horiz-adv-x="620" >
  <font-face 
    font-family="Cormorant Infant Light"
    font-weight="300"
    font-stretch="normal"
    units-per-em="1000"
    panose-1="0 0 4 0 0 0 0 0 0 0"
    ascent="800"
    descent="-200"
    x-height="386"
    cap-height="624.999"
    bbox="-348.799 -282.165 1451.8 922.534"
    underline-thickness="50"
    underline-position="-50"
    unicode-range="U+0020-U+A729"
  />
<missing-glyph horiz-adv-x="501" 
d="M94 -275v1000h317v-1000h-317zM168 626h65v-38h-66v-32h166v32h-66v38h66v32h-165v-32zM167 426h166v34h-66v69h-100v-103zM200 460v35h33v-35h-33zM167 365h66v-36h-66v-34h100v70h66v33h-166v-33zM301 273h-134v-34h166v99h-32v-65zM233 160h34v24h34v-48h-101v80h-33
v-113h166v113h-100v-56zM167 -70h166v113h-166v-113zM200 -37v48h101v-48h-101zM167 -126h70l-70 -47v-33h166v33h-101l69 47h32v34h-166v-34z" />
    <glyph glyph-name="Aogonek_acutecomb.liga" unicode="&#x104;&#x301;" horiz-adv-x="701" 
d="M241 678c-2.66699 0 -4.33398 1.5 -5.00098 4.5s0 5.16699 2 6.5c30.667 14 71.334 35.667 122.001 65l50 28c2.66699 1.33301 9.5 0 20.5 -4s20.667 -8.5 29 -13.5s10.166 -7.83301 5.49902 -8.5c-41.333 -10 -79.166 -21.167 -113.499 -33.5
s-70.5 -26.833 -108.5 -43.5zM698 3.5c0 -3.66699 -1.33301 -5.50488 -4 -5.50488c-13.333 0 -30.666 0.666992 -51.999 2l-40 1c-23.333 0 -45.333 -5.66699 -66 -17s-37.334 -27.166 -50.001 -47.499s-19 -43.166 -19 -68.499c0 -31.333 9.5 -58.5 28.5 -81.5
s47.833 -34.5 86.5 -34.5c23.333 0 43 4.66699 59 14h1c2 0 3.83301 -1 5.5 -3s1.83398 -3.66699 0.500977 -5c-30 -22 -64.667 -33 -104 -33c-38.667 0 -69.167 9.66699 -91.5 29s-33.5 46 -33.5 80c0 28.667 6.66699 52.834 20 72.501s32.666 41.834 57.999 66.501
c18 16.667 31.333 30.834 40 42.501s13 24.167 13 37.5c0 10 -2.33301 19.667 -7 29l-121 257h-190l-89 -216c-9.33301 -22.667 -14 -41.334 -14 -56.001c0 -19.333 8 -33.333 24 -42s41 -13 75 -13c3.33301 0 5 -2 5 -6s-1.66699 -6 -5 -6c-12 0 -29.333 0.666992 -52 2
c-25.333 1.33301 -47.333 2 -66 2c-16.667 0 -36.334 -0.666992 -59.001 -2c-20 -1.33301 -36.333 -2 -49 -2c-3.33301 0 -5 2 -5 6s1.66699 6 5 6c18.667 0 34.5 3.33301 47.5 10s25.333 18.667 37 36s24.167 42 37.5 74l209 503c1.33301 2 3.5 3 6.5 3s4.83301 -1 5.5 -3
l232 -500c22 -49.333 41.333 -82.666 58 -99.999s36.334 -26 59.001 -26c2.66699 0 4 -1.83301 4 -5.5zM240 357.995h173l-92 195z" />
    <glyph glyph-name="Eogonek_acutecomb.liga" unicode="&#x118;&#x301;" horiz-adv-x="533" 
d="M168 678c-2.66699 0 -4.33398 1.5 -5.00098 4.5s0 5.16699 2 6.5c30.667 14 71.334 35.667 122.001 65l50 28c2.66699 1.33301 9.5 0 20.5 -4s20.667 -8.5 29 -13.5s10.166 -7.83301 5.49902 -8.5c-41.333 -10 -79.166 -21.167 -113.499 -33.5
s-70.5 -26.833 -108.5 -43.5zM497 -222c2 0 3.83398 -1.00293 5.50098 -3.00293s1.5 -3.66699 -0.5 -5c-34 -30 -69.667 -45 -107 -45c-36 0 -63.5 8.5 -82.5 25.5s-28.5 40.5 -28.5 70.5c0 58.667 37.333 118.334 112 179.001h-352c-1.33301 0 -2 2 -2 6s0.666992 6 2 6
c26 0 45.167 1.66699 57.5 5s20.666 9.83301 24.999 19.5s6.5 24.5 6.5 44.5v463c0 20 -2.16699 34.667 -6.5 44s-12.666 15.833 -24.999 19.5s-31.5 5.5 -57.5 5.5c-1.33301 0 -2 2 -2 6s0.666992 6 2 6h396c6 0 9 -3 9 -9l2 -121c0 -2 -1.83301 -3 -5.5 -3s-5.5 1 -5.5 3
c0 34 -9 61 -27 81s-41.667 30 -71 30h-69c-25.333 0 -44 -1.66699 -56 -5s-20.167 -9.66602 -24.5 -18.999s-6.5 -24 -6.5 -44v-203h132c30.667 0 52 5.16699 64 15.5s18 28.166 18 53.499c0 1.33301 2 2 6 2s6 -0.666992 6 -2l-1 -79
c0 -19.333 0.333008 -33.666 1 -42.999l1 -47c0 -1.33301 -2 -2 -6 -2s-6 0.666992 -6 2c0 30 -6.33301 51 -19 63s-35 18 -67 18h-129v-231c0 -19.333 2.16699 -33.5 6.5 -42.5s12.333 -15.167 24 -18.5s30.5 -5 56.5 -5h92c26.667 0 49.5 11.667 68.5 35
s31.167 54 36.5 92c0 2 2 2.83301 6 2.5s6 -1.5 6 -3.5c-6 -42 -9 -85.333 -9 -130c0 -5.33301 -1.16699 -9.16602 -3.5 -11.499s-6.5 -3.5 -12.5 -3.5h-44c-28.667 -25.333 -49.334 -49.833 -62.001 -73.5s-19 -49.167 -19 -76.5c0 -30.667 7.83301 -54.667 23.5 -72
s38.5 -26 68.5 -26c16 0 29.167 2.16699 39.5 6.5s20.833 10.833 31.5 19.5h2z" />
    <glyph glyph-name="IJ_acutecomb.liga" unicode="&#x132;&#x301;" horiz-adv-x="688" 
d="M68 678c-2.66699 0 -4.33398 1.5 -5.00098 4.5s0 5.16699 2 6.5c30.667 14 71.334 35.667 122.001 65l50 28c2.66699 1.33301 9.5 0 20.5 -4s20.667 -8.5 29 -13.5s10.166 -7.83301 5.49902 -8.5c-41.333 -10 -79.166 -21.167 -113.499 -33.5s-70.5 -26.833 -108.5 -43.5
zM442 678c-2.66699 0 -4.33398 1.5 -5.00098 4.5s0 5.16699 2 6.5c30.667 14 71.334 35.667 122.001 65l50 28c2.66699 1.33301 9.5 0 20.5 -4s20.667 -8.5 29 -13.5s10.166 -7.83301 5.49902 -8.5c-41.333 -10 -79.166 -21.167 -113.499 -33.5s-70.5 -26.833 -108.5 -43.5z
M193.5 305c4.33301 -9.33301 12.499 -15.667 24.499 -19s31.333 -5 58 -5c2 0 3 -2 3 -6s-1 -6 -3 -6c-20 0 -35.667 0.333008 -47 1l-70 1l-66 -1c-12 -0.666992 -28.667 -1 -50 -1c-1.33301 0 -2 2 -2 6s0.666992 6 2 6c26 0 45.167 1.66699 57.5 5
s20.833 9.83301 25.5 19.5s7 24.5 7 44.5v194c0 20 -2.33301 34.667 -7 44s-13.167 15.833 -25.5 19.5s-31.5 5.5 -57.5 5.5c-1.33301 0 -2 2 -2 6s0.666992 6 2 6l50 -1c26.667 -1.33301 48.667 -2 66 -2c19.333 0 43 0.666992 71 2l46 1c2 0 3 -2 3 -6s-1 -6 -3 -6
c-26 0 -45.167 -2 -57.5 -6s-20.666 -10.833 -24.999 -20.5s-6.5 -24.5 -6.5 -44.5v-192c0 -20.667 2.16699 -35.667 6.5 -45zM654.999 618.999c0 -4 -0.665039 -5.99902 -1.99805 -5.99902c-22.667 0 -39.5 -2 -50.5 -6s-18.333 -10.833 -22 -20.5s-5.5 -24.5 -5.5 -44.5
v-284c0 -57.333 -9.83301 -106.333 -29.5 -147s-47 -71.5 -82 -92.5s-75.5 -31.5 -121.5 -31.5c-40.667 0 -77.667 7.66699 -111 23s-59.5 34.666 -78.5 57.999s-28.5 46 -28.5 68c0 10 2.5 17.667 7.5 23s11.5 8 19.5 8c13.333 0 22.5 -4.33301 27.5 -13
s9.83301 -22.667 14.5 -42c5.33301 -22 11.666 -40.5 18.999 -55.5s20.833 -28 40.5 -39s47.5 -16.5 83.5 -16.5c63.333 0 110.166 17.5 140.499 52.5s45.5 83.833 45.5 146.5v344c0 20 -2.5 34.667 -7.5 44s-14.667 15.833 -29 19.5s-36.166 5.5 -65.499 5.5
c-2 0 -3 2 -3 6s1 6 3 6l57 -1c29.333 -1.33301 52.666 -2 69.999 -2c16 0 37.333 0.666992 64 2l42 1c1.33301 0 2 -2 2 -6z" />
    <glyph glyph-name="Iogonek_acutecomb.liga" unicode="&#x12e;&#x301;" horiz-adv-x="330" 
d="M255.5 778c11 -4 20.667 -8.5 29 -13.5s10.166 -7.83301 5.49902 -8.5c-41.333 -10 -79.166 -21.167 -113.499 -33.5s-70.5 -26.833 -108.5 -43.5l-2 -1c-2.66699 0 -4.33398 1.5 -5.00098 4.5s0 5.16699 2 6.5c30.667 14 71.334 35.667 122.001 65l50 28
c2.66699 1.33301 9.5 0 20.5 -4zM223.5 607c-12.333 -4 -20.665 -10.8311 -24.998 -20.498s-6.5 -24.5 -6.5 -44.5v-461c0 -20.667 2.16699 -35.667 6.5 -45s12.5 -15.666 24.5 -18.999s31.333 -5 58 -5c1.33301 0 2 -2 2 -6s-0.666992 -6 -2 -6
c-18.667 0 -33.334 0.333008 -44.001 1l-62 1c-38 -46.667 -57 -97.334 -57 -152.001c0 -30.667 7.16699 -54.667 21.5 -72s34.833 -26 61.5 -26c12 0 21.667 1.83301 29 5.5s13.5 7.66699 18.5 12s8.5 7.16602 10.5 8.49902h1c2 0 3.83301 -1 5.5 -3
s1.83398 -3.66699 0.500977 -5c-16.667 -16 -32.334 -27.5 -47.001 -34.5s-30.334 -10.5 -47.001 -10.5c-32 0 -57 8.66699 -75 26s-27 40.666 -27 69.999s7.5 59.333 22.5 90s37.167 61 66.5 91l-64 -1c-11.333 -0.666992 -27 -1 -47 -1c-2 0 -3 2 -3 6s1 6 3 6
c26 0 45.167 1.66699 57.5 5s20.833 9.83301 25.5 19.5s7 24.5 7 44.5v463c0 20 -2.33301 34.667 -7 44s-13.167 15.833 -25.5 19.5s-31.5 5.5 -57.5 5.5c-2 0 -3 2 -3 6s1 6 3 6l49 -1c28 -1.33301 50.333 -2 67 -2c18.667 0 42 0.666992 70 2l47 1c1.33301 0 2 -2 2 -6
s-0.666992 -6 -2 -6c-26 0 -45.167 -2 -57.5 -6z" />
    <glyph glyph-name="J_acutecomb.liga" unicode="J&#x301;" horiz-adv-x="316" 
d="M63 678c-2.66699 0 -4.49902 1.50098 -5.49902 4.50098s-0.5 5.16699 1.5 6.5c26.667 12 64.667 32 114 60l58 32c2.66699 1.33301 9.5 0.166016 20.5 -3.50098s20.667 -8 29 -13s10.166 -7.83301 5.49902 -8.5c-78.667 -20 -152.667 -46 -222 -78h-1zM183.001 -54.999
c-8 -30.667 -21.3301 -55.498 -39.9971 -74.498s-45.334 -36.167 -80.001 -51.5l-1 -1c-1.33301 0 -2.83301 1.66699 -4.5 5s-1.83398 5.33301 -0.500977 6c31.333 16.667 53.333 42.167 66 76.5s19 79.166 19 134.499v504c0 20 -2.33301 34.667 -7 44
s-13.334 15.833 -26.001 19.5s-32 5.5 -58 5.5c-1.33301 0 -2 2 -2 6s0.666992 6 2 6l52 -1c26.667 -1.33301 48 -2 64 -2c16.667 0 37.667 0.666992 63 2l43 1c1.33301 0 2 -2 2 -6s-0.666992 -6 -2 -6c-22.667 0 -39.5 -2 -50.5 -6s-18.333 -10.833 -22 -20.5
s-5.5 -24.5 -5.5 -44.5v-475c0 -50.667 -4 -91.334 -12 -122.001z" />
    <glyph glyph-name="uni01EA0301.liga" unicode="&#x1ea;&#x301;" horiz-adv-x="766" 
d="M285 678c-2.66699 0 -4.33398 1.5 -5.00098 4.5s0 5.16699 2 6.5c30.667 14 71.334 35.667 122.001 65l50 28c2.66699 1.33301 9.5 0 20.5 -4s20.667 -8.5 29 -13.5s10.166 -7.83301 5.49902 -8.5c-41.333 -10 -79.166 -21.167 -113.499 -33.5
s-70.5 -26.833 -108.5 -43.5zM381 -76c-12 -23.333 -18.001 -47.998 -18.001 -73.998c0 -30.667 7.83301 -54.667 23.5 -72s38.5 -26 68.5 -26c16 0 29.167 2.16699 39.5 6.5s20.833 10.833 31.5 19.5h2c2 0 3.83301 -1 5.5 -3s1.5 -3.66699 -0.5 -5
c-34 -30 -69.667 -45 -107 -45c-36 0 -63.5 8.5 -82.5 25.5s-28.5 40.5 -28.5 70.5c0 56 33.667 112.667 101 170c-16 -2 -32.667 -3 -50 -3c-62 0 -117.167 14.5 -165.5 43.5s-85.666 68.333 -111.999 118s-39.5 103.834 -39.5 162.501c0 68.667 17.333 127.5 52 176.5
s79.167 85.833 133.5 110.5s109.833 37 166.5 37c63.333 0 119 -14.833 167 -44.5s84.833 -68.834 110.5 -117.501s38.5 -100.334 38.5 -155.001c0 -52.667 -12.167 -101.834 -36.5 -147.501s-57.833 -84 -100.5 -115s-90 -51.5 -142 -61.5c-26 -24 -45 -47.667 -57 -71z
M149.499 175.502c24.333 -51.667 58.498 -92.5 102.498 -122.5s94 -45 150 -45c47.333 0 90 11 128 33s68 54.333 90 97s33 93.667 33 153c0 62.667 -12.167 118.5 -36.5 167.5s-58.666 87.167 -102.999 114.5s-95.833 41 -154.5 41c-77.333 0 -137.666 -24 -180.999 -72
s-65 -113.333 -65 -196c0 -62 12.167 -118.833 36.5 -170.5z" />
    <glyph glyph-name="aogonek_acutecomb.liga" unicode="&#x105;&#x301;" horiz-adv-x="490" 
d="M250 472c-2 0 -3.83301 0.5 -5.5 1.5s-2.16699 1.83301 -1.5 2.5l57 240c0.666992 2.66699 5.5 5.5 14.5 8.5s17.667 5 26 6s11.833 -0.166992 10.5 -3.5l-97 -253c0 -1.33301 -1.33301 -2 -4 -2zM483 56c2.66699 0 4.33105 -1.5 4.99805 -4.5
s-0.333008 -4.83301 -3 -5.5l-50 -24c-46.667 -26.667 -81 -54 -103 -82s-33 -58 -33 -90c0 -30.667 7.83301 -54.667 23.5 -72s38.5 -26 68.5 -26c16 0 29.167 2.16699 39.5 6.5s20.833 10.833 31.5 19.5h2c2 0 3.83301 -1 5.5 -3s1.5 -3.66699 -0.5 -5
c-34 -30 -69.667 -45 -107 -45c-36 0 -63.5 8.5 -82.5 25.5s-28.5 40.5 -28.5 70.5s9.83301 60 29.5 90s47.5 58 83.5 84c-5.33301 5.33301 -10.333 15.666 -15 30.999s-7 33 -7 53c-24 -26.667 -49.167 -48 -75.5 -64s-55.166 -24 -86.499 -24
c-40.667 0 -74.667 14.833 -102 44.5s-41 71.167 -41 124.5c0 48 11.333 90.167 34 126.5s51.167 64.166 85.5 83.499s67.833 29 100.5 29c18 0 35.5 -2.83301 52.5 -8.5s32.167 -13.167 45.5 -22.5c10.667 6 18.667 14.667 24 26
c0.666992 0.666992 2.33398 0.833984 5.00098 0.500977s4 -1.16602 4 -2.49902v-286c0 -22.667 2.83301 -39.167 8.5 -49.5s15.167 -15.5 28.5 -15.5c8 0 18 2 30 6l25 11l1 -2h2zM341.997 95l0.000976562 200.001c0 24 -11.333 44.167 -34 60.5s-48 24.5 -76 24.5
c-40.667 0 -73.834 -17.833 -99.501 -53.5s-38.5 -81.834 -38.5 -138.501c0 -50 10.333 -90.667 31 -122s48.667 -47 84 -47c42 0 86.333 25.333 133 76z" />
    <glyph glyph-name="eogonek_acutecomb.liga" unicode="&#x119;&#x301;" horiz-adv-x="405" 
d="M196 472c-2 0 -3.83301 0.5 -5.5 1.5s-2.16699 1.83301 -1.5 2.5l57 240c0.666992 2.66699 5.5 5.5 14.5 8.5s17.667 5 26 6s11.833 -0.166992 10.5 -3.5l-97 -253c0 -1.33301 -1.33301 -2 -4 -2zM368 -222c2 0 3.83594 -0.998047 5.50293 -2.99805s1.5 -3.66699 -0.5 -5
c-16.667 -16 -32.5 -27.5 -47.5 -34.5s-31.167 -10.5 -48.5 -10.5c-32 0 -56.5 8.66699 -73.5 26s-25.5 40.666 -25.5 69.999c0 58 36.333 117.333 109 178c-20 -7.33301 -42 -11 -66 -11c-38.667 0 -72 9 -100 27s-49 41.5 -63 70.5s-21 60.5 -21 94.5
c0 40 9.33301 76.333 28 109s44.167 58.5 76.5 77.5s68.166 28.5 107.499 28.5c34.667 0 61.667 -8.83301 81 -26.5s29 -41.834 29 -72.501c0 -8 -0.833008 -13.667 -2.5 -17s-4.83398 -5 -9.50098 -5l-248 -1c-3.33301 -18.667 -5 -37 -5 -55
c0 -58.667 14.167 -106.334 42.5 -143.001s67.166 -55 116.499 -55c39.333 0 74 11.333 104 34h1c2 0 3.83301 -1.16699 5.5 -3.5s1.83398 -4.5 0.500977 -6.5c-8 -7.33301 -19.333 -15.666 -34 -24.999c-36.667 -28.667 -63.167 -56.5 -79.5 -83.5s-24.5 -55.5 -24.5 -85.5
c0 -30.667 6.83301 -54.667 20.5 -72s33.5 -26 59.5 -26c13.333 0 24.166 2.16699 32.499 6.5s17.5 10.833 27.5 19.5h2zM142.503 351.502c-19 -15.667 -32.501 -38.167 -40.501 -67.5l197 5c0 27.333 -7.66699 48.5 -23 63.5s-35.666 22.5 -60.999 22.5
c-29.333 0 -53.5 -7.83301 -72.5 -23.5z" />
    <glyph glyph-name="ij_acutecomb.liga" unicode="&#x133;&#x301;" horiz-adv-x="524" 
d="M132 472c-2 0 -3.83301 0.5 -5.5 1.5s-2.16699 1.83301 -1.5 2.5l57 240c0.666992 2.66699 5.5 5.5 14.5 8.5s17.667 5 26 6s11.833 -0.166992 10.5 -3.5l-97 -253c0 -1.33301 -1.33301 -2 -4 -2zM390 472c-2 0 -3.83301 0.5 -5.5 1.5s-2.16699 1.83301 -1.5 2.5l57 240
c0.666992 2.66699 5.5 5.5 14.5 8.5s17.667 5 26 6s11.833 -0.166992 10.5 -3.5l-97 -253c0 -1.33301 -1.33301 -2 -4 -2zM55 6c0 4 0.665039 5.99902 1.99805 5.99902c19.333 0 33.5 1.66699 42.5 5s15.167 9.83301 18.5 19.5s5 24.5 5 44.5v189
c0 24.667 -2.5 42.334 -7.5 53.001s-13.5 16 -25.5 16c-12.667 0 -28.667 -5 -48 -15h-1c-2.66699 0 -4.66699 1.66699 -6 5s-0.666016 5.66602 2.00098 6.99902l124 58l4 1c1.33301 0 2.83301 -0.666992 4.5 -2s2.5 -3 2.5 -5c0 -4 -0.333008 -17.167 -1 -39.5
s-1 -48.166 -1 -77.499v-190c0 -20 1.5 -34.833 4.5 -44.5s9 -16.167 18 -19.5s23.167 -5 42.5 -5c2 0 3 -2 3 -6s-1 -6 -3 -6c-15.333 -0 -27.333 0.333008 -36 1l-53 1l-52 -1c-9.33301 -0.666992 -21.666 -1 -36.999 -1c-1.33301 0 -2 2 -2 6zM428.998 348.499
c-0.666992 -22.333 -0.999023 -48.168 -0.999023 -77.501v-319c0 -45.333 -4 -82.5 -12 -111.5s-21.5 -53.167 -40.5 -72.5s-45.167 -36 -78.5 -50c-1.33301 -0.666992 -2.83301 0.833008 -4.5 4.5s-1.83398 5.83398 -0.500977 6.50098c32.667 14 55.667 36.333 69 67
s20 75 20 133v341c0 24.667 -2.33301 42.334 -7 53.001s-13 16 -25 16c-12.667 0 -28.667 -5 -48 -15h-1c-3.33301 0 -5.5 1.66699 -6.5 5s-0.166992 5.66602 2.5 6.99902l124 58l3 1c4.66699 0 7 -2.33301 7 -7c0 -4 -0.333008 -17.167 -1 -39.5z" />
    <glyph glyph-name="iogonek_acutecomb.liga" unicode="&#x12f;&#x301;" horiz-adv-x="275" 
d="M132 472c-2 0 -3.83301 0.5 -5.5 1.5s-2.16699 1.83301 -1.5 2.5l57 240c0.666992 2.66699 5.5 5.5 14.5 8.5s17.667 5 26 6s11.833 -0.166992 10.5 -3.5l-97 -253c0 -1.33301 -1.33301 -2 -4 -2zM239 -214c2 0 3.83105 -0.999023 5.49805 -2.99902
s1.83398 -3.66699 0.500977 -5c-16.667 -16 -32.334 -27.5 -47.001 -34.5s-30.334 -10.5 -47.001 -10.5c-32 0 -57 8.66699 -75 26s-27 40.666 -27 69.999c0 28 6.83301 56.667 20.5 86s33.834 58.333 60.501 87c-37.333 -1.33301 -61.666 -2 -72.999 -2
c-1.33301 0 -2 2 -2 6s0.666992 6 2 6c19.333 0 33.5 1.66699 42.5 5s15.167 9.83301 18.5 19.5s5 24.5 5 44.5v189c0 24.667 -2.5 42.334 -7.5 53.001s-13.5 16 -25.5 16c-12.667 0 -28.667 -5 -48 -15h-1c-2.66699 0 -4.66699 1.66699 -6 5
s-0.666016 5.66602 2.00098 6.99902l124 58l4 1c1.33301 0 2.83301 -0.666992 4.5 -2s2.5 -3 2.5 -5c0 -4 -0.333008 -17.167 -1 -39.5s-1 -48.166 -1 -77.499v-190c0 -20 1.5 -34.833 4.5 -44.5s9 -16.167 18 -19.5s23.167 -5 42.5 -5c2 0 3 -2 3 -6s-1 -6 -3 -6
c-15.333 0 -27.333 0.333008 -36 1l-51 1c-34 -44.667 -51 -92.667 -51 -144c0 -30.667 7.16699 -54.667 21.5 -72s34.833 -26 61.5 -26c12 0 21.667 1.83301 29 5.5s13.5 7.66699 18.5 12s8.5 7.16602 10.5 8.49902h1z" />
    <glyph glyph-name="j_acutecomb.liga" unicode="j&#x301;" horiz-adv-x="255" 
d="M121 472c-2 0 -3.83301 0.5 -5.5 1.5s-2.16699 1.83301 -1.5 2.5l57 240c0.666992 2.66699 5.5 5.5 14.5 8.5s17.667 5 26 6s11.833 -0.166992 10.5 -3.5l-97 -253c0 -1.33301 -1.33301 -2 -4 -2zM160 348.5c-0.666992 -22.333 -0.999023 -48.168 -0.999023 -77.501v-319
c0 -45.333 -4 -82.5 -12 -111.5s-21.5 -53.167 -40.5 -72.5s-45.167 -36 -78.5 -50c-1.33301 -0.666992 -2.83301 0.833008 -4.5 4.5s-1.83398 5.83398 -0.500977 6.50098c32.667 14 55.667 36.333 69 67s20 75 20 133v341c0 24.667 -2.33301 42.334 -7 53.001
s-13 16 -25 16c-12.667 0 -28.667 -5 -48 -15h-1c-3.33301 0 -5.5 1.66699 -6.5 5s-0.166992 5.66602 2.5 6.99902l124 58l3 1c4.66699 0 7 -2.33301 7 -7c0 -4 -0.333008 -17.167 -1 -39.5z" />
    <glyph glyph-name="uni01EB0301.liga" unicode="&#x1eb;&#x301;" horiz-adv-x="477" 
d="M233 472c-2 0 -3.83301 0.5 -5.5 1.5s-2.16699 1.83301 -1.5 2.5l57 240c0.666992 2.66699 5.5 5.5 14.5 8.5s17.667 5 26 6s11.833 -0.166992 10.5 -3.5l-97 -253c0 -1.33301 -1.33301 -2 -4 -2zM392 57c-32 -36 -72.667 -58.3311 -122 -66.998
c-22.667 -22.667 -39.167 -45.334 -49.5 -68.001s-15.5 -46.667 -15.5 -72c0 -30.667 7.33301 -54.667 22 -72s36 -26 64 -26c15.333 0 28.166 2.16699 38.499 6.5s21.5 10.833 33.5 19.5h1c2 0 3.83301 -1 5.5 -3s1.83398 -3.66699 0.500977 -5
c-34.667 -30 -70.667 -45 -108 -45c-34 0 -60 8.66699 -78 26s-27 40.666 -27 69.999c0 54.667 31 110.334 93 167.001c-4 -0.666992 -10.667 -1 -20 -1c-38 0 -71.667 9.5 -101 28.5s-52 44.667 -68 77s-24 67.5 -24 105.5c0 43.333 10.5 80.166 31.5 110.499
s47.667 53 80 68s65.5 22.5 99.5 22.5c38.667 0 72.5 -9.66699 101.5 -29s51.333 -44.833 67 -76.5s23.5 -65.167 23.5 -100.5c0 -54.667 -16 -100 -48 -136zM115 116.502c14 -33.667 33.333 -60.668 58 -81.001s53 -30.5 85 -30.5c38.667 0 69 13 91 39s33 67 33 123
c0 40 -7 76.167 -21 108.5s-33.667 57.833 -59 76.5s-54.333 28 -87 28c-38 0 -67.667 -13.167 -89 -39.5s-32 -64.166 -32 -113.499c0 -40 7 -76.833 21 -110.5z" />
    <glyph glyph-name="T_T.liga" unicode="TT" horiz-adv-x="1146" 
d="M1106 654c3.33301 0 5.00293 -1.33496 5.00293 -4.00195c-2 -17.333 -4 -45.5 -6 -84.5s-3 -70.5 -3 -94.5c0 -1.33301 -2 -2 -6 -2s-6 0.666992 -6 2c0 35.333 -3.66699 62.833 -11 82.5s-19.833 33.834 -37.5 42.501s-42.167 13 -73.5 13
c-34.667 0 -58.834 -1.16699 -72.501 -3.5s-23 -8 -28 -17s-7.5 -24.5 -7.5 -46.5v-461c0 -20.667 2.33301 -35.667 7 -45s13.834 -15.666 27.501 -18.999s35.5 -5 65.5 -5c2 0 3 -2 3 -6s-1 -6 -3 -6c-22 -0 -39.333 0.333008 -52 1l-76 1l-74 -1
c-13.333 -0.666992 -31.333 -1 -54 -1c-1.33301 0 -2 2 -2 6s0.666992 6 2 6c29.333 0 51 1.66699 65 5s23.667 9.83301 29 19.5s8 24.5 8 44.5v463c0 21.333 -2.5 36.333 -7.5 45s-13.833 14.167 -26.5 16.5s-34.667 3.5 -66 3.5c-43.333 0 -72.166 -2.16699 -86.499 -6.5
s-23.5 -14.666 -27.5 -30.999s-6.66699 -49.833 -8 -100.5c0 -1.33301 -2 -2 -6 -2s-6 0.666992 -6 2l1 45c0 32 -3 54 -9 66s-17 19.5 -33 22.5s-45.667 4.5 -89 4.5c-29.333 0 -50.5 -1.5 -63.5 -4.5s-21.833 -9 -26.5 -18s-7 -23.833 -7 -44.5v-461
c0 -20.667 2.16699 -35.667 6.5 -45s12.5 -15.666 24.5 -18.999s31.333 -5 58 -5c1.33301 0 2 -2 2 -6s-0.666992 -6 -2 -6c-20 0 -35.667 0.333008 -47 1l-70 1l-73 -1c-13.333 -0.666992 -31.666 -1 -54.999 -1c-1.33301 0 -2 2 -2 6s0.666992 6 2 6c30 0 52 1.66699 66 5
s23.5 9.83301 28.5 19.5s7.5 24.5 7.5 44.5v463c0 22 -2.66699 37.333 -8 46s-14.833 14 -28.5 16s-38.5 3 -74.5 3c-42 0 -72.667 -10 -92 -30s-32.333 -56 -39 -108c0 -1.33301 -2 -2 -6 -2s-6 0.666992 -6 2c2.66699 18 5.66699 46.833 9 86.5s5 69.5 5 89.5
c0 3.33301 2 5 6 5s6 -1.66699 6 -5c0 -14.667 17.667 -22 53 -22c57.333 -2 124.333 -3 201 -3c37.333 0 76.666 0.666992 117.999 2l63 1c28 0 46.5 0.333008 55.5 1s14.667 2.66699 17 6s3.83301 9.66602 4.5 18.999c0 2.66699 2 4 6 4s6 -1.33301 6 -4
c-0.666992 -9.33301 -0.166992 -15.5 1.5 -18.5s5.66699 -4.83301 12 -5.5s20.166 -1.33398 41.499 -2.00098c54 -2 117.333 -3 190 -3c39.333 0 81 0.666992 125 2l68 1c23.333 0 40.666 1.66699 51.999 5s18.666 10 21.999 20c1.33301 2.66699 3.66602 4 6.99902 4z" />
    <glyph glyph-name="T_h.liga" unicode="Th" horiz-adv-x="1023" 
d="M1003 6c0 -4 -1.00195 -6.00195 -3.00195 -6.00195c-15.333 0 -27.333 0.333008 -36 1l-53 1l-52 -1c-9.33301 -0.666992 -21.666 -1 -36.999 -1c-1.33301 0 -2 2 -2 6s0.666992 6 2 6c19.333 0 33.5 1.66699 42.5 5s15.167 9.83301 18.5 19.5s5 24.5 5 44.5v163
c0 40.667 -7.83301 70.667 -23.5 90s-39.5 29 -71.5 29c-21.333 0 -43.333 -6.16699 -66 -18.5s-43.334 -29.5 -62.001 -51.5v-212c0 -20 1.66699 -34.833 5 -44.5s9.5 -16.167 18.5 -19.5s23.167 -5 42.5 -5c2 0 3 -2 3 -6s-1 -6 -3 -6c-15.333 0 -27.333 0.333008 -36 1
l-53 1l-52 -1c-9.33301 -0.666992 -21.666 -1 -36.999 -1c-1.33301 0 -2 2 -2 6s0.666992 6 2 6c19.333 0 33.5 1.66699 42.5 5s15.167 9.83301 18.5 19.5s5 24.5 5 44.5v517c0 7.33301 -4 11 -12 11h-153c-34.667 0 -59 -1.16699 -73 -3.5s-23.5 -8 -28.5 -17
s-7.5 -24.5 -7.5 -46.5v-461c0 -20.667 2.33301 -35.667 7 -45s14 -15.666 28 -18.999s36 -5 66 -5c1.33301 0 2 -2 2 -6s-0.666992 -6 -2 -6c-22 0 -39.333 0.333008 -52 1l-77 1l-73 -1c-13.333 -0.666992 -31.666 -1 -54.999 -1c-1.33301 0 -2 2 -2 6s0.666992 6 2 6
c30 0 52 1.66699 66 5s23.5 9.83301 28.5 19.5s7.5 24.5 7.5 44.5v463c0 22 -2.66699 37.333 -8 46s-14.833 14 -28.5 16s-38.5 3 -74.5 3c-42 0 -72.667 -10 -92 -30s-32.333 -56 -39 -108c0 -1.33301 -2 -2 -6 -2s-6 0.666992 -6 2c2.66699 18 5.66699 46.833 9 86.5
s5 69.5 5 89.5c0 3.33301 2 5 6 5s6 -1.66699 6 -5c0 -14.667 17.667 -22 53 -22c38 -1.33301 105 -2 201 -2c94 0 158.333 0.666992 193 2c84 2 132 35.333 144 100c0.666992 2 2.66699 2.66699 6 2s5 -1.66699 5 -3v-415c26.667 30.667 52.5 52.834 77.5 66.501
s50.833 20.5 77.5 20.5c36.667 0 65 -10.167 85 -30.5s30 -50.5 30 -90.5v-194c0 -20 1.5 -34.833 4.5 -44.5s9 -16.167 18 -19.5s23.167 -5 42.5 -5c2 0 3 -2 3 -6z" />
    <glyph glyph-name="f_b.liga" unicode="fb" horiz-adv-x="819" 
d="M701 378c24 -14 43.3291 -34.8369 57.9961 -62.5039s22 -61.5 22 -101.5c0 -48 -10.5 -89.167 -31.5 -123.5s-48.5 -60.166 -82.5 -77.499s-69.667 -26 -107 -26c-51.333 0 -97 13.667 -137 41l-70 -32h-2c-2.66699 0 -4.16699 1.16699 -4.5 3.5s0.5 4.5 2.5 6.5
c22.667 16 38.167 30 46.5 42s12.5 30.333 12.5 55l1 531c-32 51.333 -74 77 -126 77c-25.333 0 -46.666 -6 -63.999 -18s-31 -31.333 -41 -58c-17.333 -41.333 -26 -106.666 -26 -195.999v-65c31.333 0.666992 75.666 4 132.999 10c2 0 3.66699 -2.16699 5 -6.5
s2 -9.83301 2 -16.5c0 -5.33301 -1 -10.666 -3 -15.999s-4.33301 -7.66602 -7 -6.99902c-36.667 8.66699 -80 13.667 -130 15v-272c0 -20.667 2.33301 -35.667 7 -45s13.834 -15.666 27.501 -18.999s35.834 -5 66.501 -5c1.33301 0 2 -2 2 -6s-0.666992 -6 -2 -6l-64 1
c-13.333 0.666992 -34 1 -62 1l-55 -1c-9.33301 -0.666992 -22.333 -1 -39 -1c-2 0 -3 2 -3 6s1 6 3 6c20.667 0 35.834 1.83301 45.501 5.5s16.334 10.167 20.001 19.5s5.5 24 5.5 44v225c0 18 -1.5 30.5 -4.5 37.5s-9.33301 11.667 -19 14s-26.834 3.5 -51.501 3.5
c-2 0 -3 2 -3 6s1 6 3 6c28.667 0 48 3.16699 58 9.5s15.333 18.166 16 35.499c3.33301 98.667 19.333 173 48 223c17.333 28.667 38.833 50 64.5 64s56.834 21 93.501 21c26 0 50.167 -3.33301 72.5 -10s40.833 -15.667 55.5 -27c6.66699 12 10 24.667 10 38
c0 2 1.83301 3 5.5 3s5.5 -1 5.5 -3l-1 -417c24.667 26.667 50.167 48.167 76.5 64.5s55.833 24.5 88.5 24.5c28.667 0 55 -7 79 -21zM689.996 51.4961c23.333 30.333 35.001 73.833 35.001 130.5c0 60 -12.333 106.5 -37 139.5s-56.667 49.5 -96 49.5
c-24 0 -47 -6.83301 -69 -20.5s-44 -32.5 -66 -56.5v-220c21.333 -24 43 -41.333 65 -52s45.667 -16 71 -16c41.333 0 73.666 15.167 96.999 45.5z" />
    <glyph glyph-name="f_f.liga" unicode="ff" horiz-adv-x="599" 
d="M696 710.5c22 -10.333 32.9941 -22.1699 32.9941 -35.5029c0 -8.66699 -3 -15.5 -9 -20.5s-13.333 -7.5 -22 -7.5c-6.66699 0 -12.667 1.5 -18 4.5s-11.333 8.83301 -18 17.5c-11.333 14 -23.5 24.333 -36.5 31s-28.5 10 -46.5 10c-40.667 0 -73 -22.5 -97 -67.5
s-36 -112.833 -36 -203.5v-65c31.333 0.666992 75.666 4 132.999 10c2 0 3.66699 -2.16699 5 -6.5s2 -9.83301 2 -16.5c0 -5.33301 -1 -10.666 -3 -15.999s-4.33301 -7.66602 -7 -6.99902c-36.667 8.66699 -80 13.667 -130 15v-272c0 -20.667 2.33301 -35.667 7 -45
s13.834 -15.666 27.501 -18.999s35.834 -5 66.501 -5c1.33301 0 2 -2 2 -6s-0.666992 -6 -2 -6l-64 1c-13.333 0.666992 -34 1 -62 1l-55 -1c-9.33301 -0.666992 -22.333 -1 -39 -1c-2 0 -3 2 -3 6s1 6 3 6c20.667 0 35.834 1.83301 45.501 5.5s16.334 10.167 20.001 19.5
s5.5 24 5.5 44v225c0 11.333 -0.333008 19 -1 23c-1.33301 8 -4.33301 13.5 -9 16.5s-13.834 5 -27.501 6s-30.5 1.83301 -50.5 2.5c-23.333 1.33301 -76 2 -158 2v-275c0 -20.667 2.33301 -35.667 7 -45s13.834 -15.666 27.501 -18.999s35.834 -5 66.501 -5
c1.33301 0 2 -2 2 -6s-0.666992 -6 -2 -6l-64 1c-13.333 0.666992 -34 1 -62 1l-55 -1c-9.33301 -0.666992 -22.333 -1 -39 -1c-2 0 -3 2 -3 6s1 6 3 6c20.667 0 35.834 1.83301 45.501 5.5s16.334 10.167 20.001 19.5s5.5 24 5.5 44v225c0 18 -1.5 30.5 -4.5 37.5
s-9.33301 11.667 -19 14s-26.834 3.5 -51.501 3.5c-2 0 -3 2 -3 6s1 6 3 6c28.667 0 48 3.16699 58 9.5s15.333 18.166 16 35.499c4 88 26.333 155.5 67 202.5s95.667 70.5 165 70.5c46.667 0 89.334 -9.33301 128.001 -28c34.667 42 84.667 63 150 63
c33.333 0 61 -5.16699 83 -15.5zM321.994 374.996c24.667 1.33301 42.1689 3.66699 52.502 7s17.166 10 20.499 20c1.33301 6.66699 2 12 2 16c3.33301 83.333 15.333 148.333 36 195c-18 19.333 -38.333 34.5 -61 45.5s-46.334 16.5 -71.001 16.5
c-45.333 0 -81.5 -20.333 -108.5 -61s-40.5 -99 -40.5 -175v-65c85.333 0 142 0.333008 170 1z" />
    <glyph glyph-name="f_f_b.liga" unicode="ffb" horiz-adv-x="1112" 
d="M995 378c24 -14 43.3271 -34.8379 57.9941 -62.5049s22 -61.5 22 -101.5c0 -48 -10.5 -89.167 -31.5 -123.5s-48.5 -60.166 -82.5 -77.499s-69.667 -26 -107 -26c-51.333 0 -97 13.667 -137 41l-70 -32h-2c-2.66699 0 -4.16699 1.16699 -4.5 3.5s0.5 4.5 2.5 6.5
c22.667 16 38.167 30 46.5 42s12.5 30.333 12.5 55l1 531c-32 51.333 -74 77 -126 77c-25.333 0 -46.666 -6 -63.999 -18s-31 -31.333 -41 -58c-17.333 -41.333 -26 -106.666 -26 -195.999v-65c31.333 0.666992 75.666 4 132.999 10c2 0 3.66699 -2.16699 5 -6.5
s2 -9.83301 2 -16.5c0 -5.33301 -1 -10.666 -3 -15.999s-4.33301 -7.66602 -7 -6.99902c-36.667 8.66699 -80 13.667 -130 15v-272c0 -20.667 2.33301 -35.667 7 -45s13.834 -15.666 27.501 -18.999s35.834 -5 66.501 -5c1.33301 0 2 -2 2 -6s-0.666992 -6 -2 -6l-64 1
c-13.333 0.666992 -34 1 -62 1l-55 -1c-9.33301 -0.666992 -22.333 -1 -39 -1c-2 0 -3 2 -3 6s1 6 3 6c20.667 0 35.834 1.83301 45.501 5.5s16.334 10.167 20.001 19.5s5.5 24 5.5 44v225c0 11.333 -0.333008 19 -1 23c-1.33301 8 -4.33301 13.5 -9 16.5
s-13.834 5 -27.501 6s-30.5 1.83301 -50.5 2.5c-23.333 1.33301 -76 2 -158 2v-275c0 -20.667 2.33301 -35.667 7 -45s13.834 -15.666 27.501 -18.999s35.834 -5 66.501 -5c1.33301 0 2 -2 2 -6s-0.666992 -6 -2 -6l-64 1c-13.333 0.666992 -34 1 -62 1l-55 -1
c-9.33301 -0.666992 -22.333 -1 -39 -1c-2 0 -3 2 -3 6s1 6 3 6c20.667 0 35.834 1.83301 45.501 5.5s16.334 10.167 20.001 19.5s5.5 24 5.5 44v225c0 18 -1.5 30.5 -4.5 37.5s-9.33301 11.667 -19 14s-26.834 3.5 -51.501 3.5c-2 0 -3 2 -3 6s1 6 3 6
c28.667 0 48 3.16699 58 9.5s15.333 18.166 16 35.499c4 88 26.333 155.5 67 202.5s95.667 70.5 165 70.5c46.667 0 88.667 -9 126 -27c32.667 41.333 80 62 142 62c26 0 50.167 -3.33301 72.5 -10s40.833 -15.667 55.5 -27c6.66699 12 10 24.667 10 38c0 2 1.83301 3 5.5 3
s5.5 -1 5.5 -3l-1 -417c24.667 26.667 50.167 48.167 76.5 64.5s55.833 24.5 88.5 24.5c28.667 0 55 -7 79 -21zM321.994 374.995c24.667 1.33301 42.168 3.66699 52.501 7s17.166 10 20.499 20c1.33301 6.66699 2 12 2 16c3.33301 84 15 149.667 35 197
c-38 40 -81.667 60 -131 60c-45.333 0 -81.5 -20.333 -108.5 -61s-40.5 -99 -40.5 -175v-65c85.333 0 142 0.333008 170 1zM983.995 51.4961c23.333 30.333 35.001 73.833 35.001 130.5c0 60 -12.333 106.5 -37 139.5s-56.667 49.5 -96 49.5c-24 0 -47 -6.83301 -69 -20.5
s-44 -32.5 -66 -56.5v-220c21.333 -24 43 -41.333 65 -52s45.667 -16 71 -16c41.333 0 73.666 15.167 96.999 45.5z" />
    <glyph glyph-name="f_f_f.liga" unicode="fff" horiz-adv-x="894" 
d="M905 710.5c22 -10.333 32.999 -22.1709 32.999 -35.5039c0 -8.66699 -3 -15.5 -9 -20.5s-13.333 -7.5 -22 -7.5c-6.66699 0 -12.667 1.5 -18 4.5s-11.333 8.83301 -18 17.5c-11.333 14 -23.5 24.333 -36.5 31s-28.5 10 -46.5 10c-24 0 -44.667 -7.33301 -62 -22
c18 -10 33 -21 45 -33l-27 -62c-14.667 24.667 -30.334 44.667 -47.001 60c-28 -45.333 -42 -116.666 -42 -213.999v-61c13.333 2.66699 22.5 7 27.5 13s7.83301 15 8.5 27l21 -41c34.667 2.66699 60 5 76 7c2 0 3.66699 -2.16699 5 -6.5s2 -9.83301 2 -16.5
c0 -5.33301 -1 -10.666 -3 -15.999s-4.33301 -7.66602 -7 -6.99902c-25.333 6.66699 -51 11 -77 13l-16 -45c-0.666992 14 -1.5 23.667 -2.5 29s-4 9.33301 -9 12s-13.5 4.33398 -25.5 5.00098v-271c0 -20.667 2.33301 -35.667 7 -45s13.834 -15.666 27.501 -18.999
s35.834 -5 66.501 -5c1.33301 0 2 -2 2 -6s-0.666992 -6 -2 -6l-64 1c-13.333 0.666992 -34 1 -62 1c-24.667 0 -52.334 -0.666992 -83.001 -2h-1h-6h-4v0l-57 1c-12.667 0.666992 -32 1 -58 1l-54 -1c-10 -0.666992 -23.667 -1 -41 -1c-1.33301 0 -2 2 -2 6s0.666992 6 2 6
c20.667 0 36 1.66699 46 5s16.833 9.83301 20.5 19.5s5.5 24.5 5.5 44.5v225c0 11.333 -0.333008 19 -1 23c-1.33301 8 -4.33301 13.5 -9 16.5s-13.834 5 -27.501 6s-30.5 1.83301 -50.5 2.5c-23.333 1.33301 -76 2 -158 2v-275c0 -20.667 2.33301 -35.667 7 -45
s13.834 -15.666 27.501 -18.999s35.834 -5 66.501 -5c1.33301 0 2 -2 2 -6s-0.666992 -6 -2 -6l-64 1c-13.333 0.666992 -34 1 -62 1l-55 -1c-9.33301 -0.666992 -22.333 -1 -39 -1c-2 0 -3 2 -3 6s1 6 3 6c20.667 0 35.834 1.83301 45.501 5.5s16.334 10.167 20.001 19.5
s5.5 24 5.5 44v225c0 18 -1.5 30.5 -4.5 37.5s-9.33301 11.667 -19 14s-26.834 3.5 -51.501 3.5c-2 0 -3 2 -3 6s1 6 3 6c28.667 0 48 3.16699 58 9.5s15.333 18.166 16 35.499c4 88 26.333 155.5 67 202.5s95.667 70.5 165 70.5c28.667 0 55.167 -3.33301 79.5 -10
s45.166 -15.334 62.499 -26.001l-1 -2c39.333 41.333 90 62 152 62c28.667 0 56 -6 82 -18c30 19.333 67.333 29 112 29c33.333 0 61 -5.16699 83 -15.5zM676.999 668.995c-26.667 18 -54.332 27 -82.999 27c-45.333 0 -81.333 -22.167 -108 -66.5s-40 -107.833 -40 -190.5
v-65h114c17.333 2 29.166 6.16699 35.499 12.5s9.83301 16.833 10.5 31.5c4 118 27.667 201.667 71 251zM322.001 374.995c20.667 0.666992 36.167 2.16699 46.5 4.5s17.833 6.83301 22.5 13.5c3.33301 8 5 16.333 5 25c4 76.667 19 138.667 45 186
c-18.667 22 -40 39.333 -64 52s-49.333 19 -76 19c-45.333 0 -81.5 -20.333 -108.5 -61s-40.5 -99 -40.5 -175v-65c85.333 0 142 0.333008 170 1zM607.001 305.995c0 15.333 -0.999023 26.5 -2.99902 33.5s-6 12.167 -12 15.5c-23.333 0.666992 -72 1 -146 1v-275
c0 -20 2.16699 -34.667 6.5 -44s12.833 -15.666 25.5 -18.999s33.334 -5.33301 62.001 -6c19.333 0.666992 33.666 2.66699 42.999 6s15.666 9.66602 18.999 18.999s5 24 5 44v225z" />
    <glyph glyph-name="f_f_h.liga" unicode="ffh" horiz-adv-x="1108" 
d="M1087 6c0 -4 -0.672852 -6.00586 -2.00586 -6.00586c-15.333 0 -27.666 0.333008 -36.999 1l-52 1l-53 -1c-8.66699 -0.666992 -20.667 -1 -36 -1c-2 0 -3 2 -3 6s1 6 3 6c19.333 0 33.333 1.66699 42 5s14.667 9.83301 18 19.5s5 24.5 5 44.5v163
c0 40.667 -7.66699 70.667 -23 90s-39 29 -71 29c-21.333 0 -43.333 -6.16699 -66 -18.5s-43.334 -29.166 -62.001 -50.499v-213c0 -20 1.5 -34.833 4.5 -44.5s9 -16.167 18 -19.5s23.5 -5 43.5 -5c1.33301 0 2 -2 2 -6s-0.666992 -6 -2 -6
c-15.333 0 -27.666 0.333008 -36.999 1l-52 1l-53 -1c-8.66699 -0.666992 -20.667 -1 -36 -1c-2 0 -3 2 -3 6s1 6 3 6c19.333 0 33.333 1.66699 42 5s14.667 9.83301 18 19.5s5 24.5 5 44.5v552c-32 52 -74 78 -126 78c-45.333 0 -78.5 -21.167 -99.5 -63.5
s-31.5 -111.833 -31.5 -208.5v-65c31.333 0.666992 75.666 4 132.999 10c2 0 3.66699 -2.16699 5 -6.5s2 -9.83301 2 -16.5c0 -5.33301 -1 -10.666 -3 -15.999s-4.33301 -7.66602 -7 -6.99902c-36.667 8.66699 -80 13.667 -130 15v-272c0 -20.667 2.33301 -35.667 7 -45
s13.834 -15.666 27.501 -18.999s35.834 -5 66.501 -5c1.33301 0 2 -2 2 -6s-0.666992 -6 -2 -6l-64 1c-13.333 0.666992 -34 1 -62 1l-55 -1c-9.33301 -0.666992 -22.333 -1 -39 -1c-2 0 -3 2 -3 6s1 6 3 6c20.667 0 35.834 1.83301 45.501 5.5s16.334 10.167 20.001 19.5
s5.5 24 5.5 44v225c0 11.333 -0.333008 19 -1 23c-1.33301 8 -4.33301 13.5 -9 16.5s-13.834 5 -27.501 6s-30.5 1.83301 -50.5 2.5c-23.333 1.33301 -76 2 -158 2v-275c0 -20.667 2.33301 -35.667 7 -45s13.834 -15.666 27.501 -18.999s35.834 -5 66.501 -5
c1.33301 0 2 -2 2 -6s-0.666992 -6 -2 -6l-64 1c-13.333 0.666992 -34 1 -62 1l-55 -1c-9.33301 -0.666992 -22.333 -1 -39 -1c-2 0 -3 2 -3 6s1 6 3 6c20.667 0 35.834 1.83301 45.501 5.5s16.334 10.167 20.001 19.5s5.5 24 5.5 44v225c0 18 -1.5 30.5 -4.5 37.5
s-9.33301 11.667 -19 14s-26.834 3.5 -51.501 3.5c-2 0 -3 2 -3 6s1 6 3 6c28.667 0 48 3.16699 58 9.5s15.333 18.166 16 35.499c4 88 26.333 155.5 67 202.5s95.667 70.5 165 70.5c46.667 0 88.667 -9 126 -27c32.667 41.333 80 62 142 62
c25.333 0 49.166 -3.16699 71.499 -9.5s40.833 -15.166 55.5 -26.499c5.33301 12 8 24.333 8 37c0 2 2 3 6 3s6 -1 6 -3v-418c26.667 30.667 52.5 52.834 77.5 66.501s50.833 20.5 77.5 20.5c36.667 0 64.834 -10.167 84.501 -30.5s29.5 -50.5 29.5 -90.5v-194
c0 -20 1.66699 -34.833 5 -44.5s9.5 -16.167 18.5 -19.5s23.167 -5 42.5 -5c1.33301 0 2 -2 2 -6zM321.994 374.994c24.667 1.33301 42.168 3.66699 52.501 7s17.166 10 20.499 20c1.33301 6.66699 2 12 2 16c3.33301 84 15 149.667 35 197c-38 40 -81.667 60 -131 60
c-45.333 0 -81.5 -20.333 -108.5 -61s-40.5 -99 -40.5 -175v-65c85.333 0 142 0.333008 170 1z" />
    <glyph glyph-name="f_f_i.liga" unicode="ffi" horiz-adv-x="862" 
d="M486.5 643c-27 -44.667 -40.5039 -112.669 -40.5039 -204.002v-65c35.333 0 79.666 3.33301 132.999 10c2 0 3.66699 -2.5 5 -7.5s2 -10.5 2 -16.5s-1.33301 -12 -4 -18s-4.66699 -8.33301 -6 -7c-43.333 14.667 -86.666 22.334 -129.999 23.001v-277
c0 -20.667 2.33301 -35.667 7 -45s13.834 -15.666 27.501 -18.999s35.834 -5 66.501 -5c1.33301 0 2 -2 2 -6s-0.666992 -6 -2 -6l-64 1c-13.333 0.666992 -34 1 -62 1l-55 -1c-9.33301 -0.666992 -22.333 -1 -39 -1c-2 0 -3 2 -3 6s1 6 3 6
c20.667 0 35.834 1.83301 45.501 5.5s16.334 10.167 20.001 19.5s5.5 24 5.5 44v225c0 11.333 -0.333008 19 -1 23c-1.33301 8 -4.33301 13.5 -9 16.5s-13.834 5 -27.501 6s-30.5 1.83301 -50.5 2.5c-23.333 1.33301 -76 2 -158 2v-275c0 -20.667 2.33301 -35.667 7 -45
s13.834 -15.666 27.501 -18.999s35.834 -5 66.501 -5c1.33301 0 2 -2 2 -6s-0.666992 -6 -2 -6l-64 1c-13.333 0.666992 -34 1 -62 1l-55 -1c-9.33301 -0.666992 -22.333 -1 -39 -1c-2 0 -3 2 -3 6s1 6 3 6c20.667 0 35.834 1.83301 45.501 5.5s16.334 10.167 20.001 19.5
s5.5 24 5.5 44v225c0 18 -1.5 30.5 -4.5 37.5s-9.33301 11.667 -19 14s-26.834 3.5 -51.501 3.5c-2 0 -3 2 -3 6s1 6 3 6c28.667 0 48 3.16699 58 9.5s15.333 18.166 16 35.499c4 88 26.333 155.5 67 202.5s95.667 70.5 165 70.5c50 0 95 -10.667 135 -32
c38 44.667 91.667 67 161 67c34.667 0 63.5 -7.5 86.5 -22.5s34.5 -32.5 34.5 -52.5c0 -8.66699 -2.33301 -15.5 -7 -20.5s-11 -7.5 -19 -7.5c-8.66699 0 -15.334 2.5 -20.001 7.5s-10.334 12.833 -17.001 23.5c-10 17.333 -21.167 31 -33.5 41s-31.833 15 -58.5 15
c-46.667 0 -83.5 -22.333 -110.5 -67zM321.996 374.998c24.667 1.33301 42.168 3.66504 52.501 6.99805s17.166 10 20.499 20c1.33301 6.66699 2 12 2 16c2.66699 78.667 16 142.334 40 191.001c-18 20.667 -38.667 36.834 -62 48.501s-48 17.5 -74 17.5
c-45.333 0 -81.5 -20.333 -108.5 -61s-40.5 -99 -40.5 -175v-65c85.333 0 142 0.333008 170 1zM824.997 5.99707c0 -4 -0.666992 -6.00098 -2 -6.00098c-15.333 0 -27.666 0.333008 -36.999 1l-52 1l-53 -1c-8.66699 -0.666992 -20.667 -1 -36 -1c-2 0 -3 2 -3 6s1 6 3 6
c19.333 0 33.333 1.66699 42 5s14.667 9.83301 18 19.5s5 24.5 5 44.5v189c0 24.667 -2.33301 42.334 -7 53.001s-13 16 -25 16c-10.667 0 -26.667 -5 -48 -15h-1c-3.33301 0 -5.5 1.66699 -6.5 5s-0.166992 5.66602 2.5 6.99902l125 59c0.666992 0.666992 1.66699 1 3 1
s2.66602 -0.833008 3.99902 -2.5s2 -3.5 2 -5.5c0 -4 -0.333008 -17.167 -1 -39.5s-1 -48.166 -1 -77.499v-190c0 -20 1.66699 -34.833 5 -44.5s9.5 -16.167 18.5 -19.5s23.167 -5 42.5 -5c1.33301 0 2 -2 2 -6z" />
    <glyph glyph-name="f_f_j.liga" unicode="ffj" horiz-adv-x="861" 
d="M488 643c-28 -44.667 -42.0039 -112.669 -42.0039 -204.002v-65c31.333 0.666992 75.666 4 132.999 10c2 0 3.66699 -2.16699 5 -6.5s2 -9.83301 2 -16.5c0 -5.33301 -1 -10.666 -3 -15.999s-4.33301 -7.66602 -7 -6.99902c-36.667 8.66699 -80 13.667 -130 15v-272
c0 -20.667 2.33301 -35.667 7 -45s13.834 -15.666 27.501 -18.999s35.834 -5 66.501 -5c1.33301 0 2 -2 2 -6s-0.666992 -6 -2 -6l-64 1c-13.333 0.666992 -34 1 -62 1l-55 -1c-9.33301 -0.666992 -22.333 -1 -39 -1c-2 0 -3 2 -3 6s1 6 3 6
c20.667 0 35.834 1.83301 45.501 5.5s16.334 10.167 20.001 19.5s5.5 24 5.5 44v225c0 11.333 -0.333008 19 -1 23c-1.33301 8 -4.33301 13.5 -9 16.5s-13.834 5 -27.501 6s-30.5 1.83301 -50.5 2.5c-23.333 1.33301 -76 2 -158 2v-275c0 -20.667 2.33301 -35.667 7 -45
s13.834 -15.666 27.501 -18.999s35.834 -5 66.501 -5c1.33301 0 2 -2 2 -6s-0.666992 -6 -2 -6l-64 1c-13.333 0.666992 -34 1 -62 1l-55 -1c-9.33301 -0.666992 -22.333 -1 -39 -1c-2 0 -3 2 -3 6s1 6 3 6c20.667 0 35.834 1.83301 45.501 5.5s16.334 10.167 20.001 19.5
s5.5 24 5.5 44v225c0 18 -1.5 30.5 -4.5 37.5s-9.33301 11.667 -19 14s-26.834 3.5 -51.501 3.5c-2 0 -3 2 -3 6s1 6 3 6c28.667 0 48 3.16699 58 9.5s15.333 18.166 16 35.499c4 88 26.333 155.5 67 202.5s95.667 70.5 165 70.5c26.667 0 51.667 -3 75 -9
s43.666 -13.667 60.999 -23c40.667 44.667 96 67 166 67c24.667 0 46.667 -3.5 66 -10.5s34.333 -16.333 45 -28s16 -23.834 16 -36.501c0 -8.66699 -2.5 -15.5 -7.5 -20.5s-11.5 -7.5 -19.5 -7.5c-8.66699 0 -15.5 2.33301 -20.5 7s-11.167 12.667 -18.5 24
c-10 17.333 -21.5 31 -34.5 41s-33.167 15 -60.5 15c-48.667 0 -87 -22.333 -115 -67zM321.996 374.998c24.667 1.33301 42.167 3.66504 52.5 6.99805s17.166 10 20.499 20c1.33301 6.66699 2 12 2 16c2.66699 78.667 16.334 142.334 41.001 191.001
c-18.667 20.667 -39.667 36.834 -63 48.501s-48 17.5 -74 17.5c-45.333 0 -81.5 -20.333 -108.5 -61s-40.5 -99 -40.5 -175v-65c85.333 0 142 0.333008 170 1zM759.996 395.997c2 0 3.66699 -0.834961 5 -2.50195s2 -3.5 2 -5.5c0 -4 -0.5 -17.167 -1.5 -39.5
s-1.5 -48.166 -1.5 -77.499v-319c0 -45.333 -4 -82 -12 -110s-21.333 -51 -40 -69s-45 -34 -79 -48c-1.33301 -0.666992 -2.83301 0.833008 -4.5 4.5s-1.5 5.83398 0.5 6.50098c32.667 14 55.5 35.333 68.5 64s19.5 71.667 19.5 129v341c0 24.667 -2.33301 42.334 -7 53.001
s-13 16 -25 16c-10.667 0 -26.667 -5 -48 -15h-1c-3.33301 0 -5.5 1.66699 -6.5 5s-0.166992 5.66602 2.5 6.99902l125 59c0.666992 0.666992 1.66699 1 3 1z" />
    <glyph glyph-name="f_f_k.liga" unicode="ffk" horiz-adv-x="1102" 
d="M1093 6c0 -4 -1.00391 -6.00391 -3.00391 -6.00391c-14.667 0 -26.667 0.333008 -36 1l-52 1l-71 -1c-10 -0.666992 -24 -1 -42 -1c-1.33301 0 -2 2 -2 6s0.666992 6 2 6c18.667 0 32.167 1.5 40.5 4.5s12.5 7.83301 12.5 14.5c0 6 -3 13.333 -9 22l-125 173l-58 -44
v-101c0 -20 1.5 -34.833 4.5 -44.5s9 -16.167 18 -19.5s23.5 -5 43.5 -5c1.33301 0 2 -2 2 -6s-0.666992 -6 -2 -6c-15.333 0 -27.666 0.333008 -36.999 1l-52 1l-53 -1c-8.66699 -0.666992 -20.667 -1 -36 -1c-2 0 -3 2 -3 6s1 6 3 6c19.333 0 33.333 1.66699 42 5
s14.667 9.83301 18 19.5s5 24.5 5 44.5v552c-32 52 -74.333 78 -127 78c-44.667 0 -77.5 -21.167 -98.5 -63.5s-31.5 -111.833 -31.5 -208.5v-65c31.333 0.666992 75.666 4 132.999 10c2 0 3.66699 -2.16699 5 -6.5s2 -9.83301 2 -16.5c0 -5.33301 -1 -10.666 -3 -15.999
s-4.33301 -7.66602 -7 -6.99902c-36.667 8.66699 -80 13.667 -130 15v-272c0 -20.667 2.33301 -35.667 7 -45s13.834 -15.666 27.501 -18.999s35.834 -5 66.501 -5c1.33301 0 2 -2 2 -6s-0.666992 -6 -2 -6l-64 1c-13.333 0.666992 -34 1 -62 1l-55 -1
c-9.33301 -0.666992 -22.333 -1 -39 -1c-2 0 -3 2 -3 6s1 6 3 6c20.667 0 35.834 1.83301 45.501 5.5s16.334 10.167 20.001 19.5s5.5 24 5.5 44v225c0 11.333 -0.333008 19 -1 23c-1.33301 8 -4.33301 13.5 -9 16.5s-13.834 5 -27.501 6s-30.5 1.83301 -50.5 2.5
c-23.333 1.33301 -76 2 -158 2v-275c0 -20.667 2.33301 -35.667 7 -45s13.834 -15.666 27.501 -18.999s35.834 -5 66.501 -5c1.33301 0 2 -2 2 -6s-0.666992 -6 -2 -6l-64 1c-13.333 0.666992 -34 1 -62 1l-55 -1c-9.33301 -0.666992 -22.333 -1 -39 -1c-2 0 -3 2 -3 6
s1 6 3 6c20.667 0 35.834 1.83301 45.501 5.5s16.334 10.167 20.001 19.5s5.5 24 5.5 44v225c0 18 -1.5 30.5 -4.5 37.5s-9.33301 11.667 -19 14s-26.834 3.5 -51.501 3.5c-2 0 -3 2 -3 6s1 6 3 6c28.667 0 48 3.16699 58 9.5s15.333 18.166 16 35.499
c4 88 26.333 155.5 67 202.5s95.667 70.5 165 70.5c46.667 0 88.667 -9 126 -27c31.333 41.333 77.666 62 138.999 62c27.333 0 52.166 -3.16699 74.499 -9.5s40.833 -15.166 55.5 -26.499c5.33301 12 8 24.333 8 37c0 2 2 3 6 3s6 -1 6 -3v-532l145 113
c22.667 16.667 34 31 34 43c0 15.333 -21 23 -63 23c-2 0 -3 2 -3 6s1 6 3 6c18 0 31.667 -0.333008 41 -1l71 -1l66 1c8 0.666992 19.667 1 35 1c1.33301 0 2 -2 2 -6s-0.666992 -6 -2 -6c-50 0 -105.333 -23 -166 -69l-64 -49l125 -175c32 -46 70.667 -69 116 -69
c2 0 3 -2 3 -6zM321.996 374.996c24.667 1.33301 42.1689 3.66699 52.502 7s17.166 10 20.499 20c1.33301 6.66699 2 12 2 16c3.33301 84 15 149.667 35 197c-38.667 40 -82.334 60 -131.001 60c-45.333 0 -81.5 -20.333 -108.5 -61s-40.5 -99 -40.5 -175v-65
c85.333 0 142 0.333008 170 1z" />
    <glyph glyph-name="f_f_l.liga" unicode="ffl" horiz-adv-x="861" 
d="M835 6c0 -4 -1.00684 -5.99902 -3.00684 -5.99902c-14.667 0 -26.667 0.333008 -36 1l-54 1l-54 -1c-8.66699 -0.666992 -20.667 -1 -36 -1c-2 0 -3 2 -3 6s1 6 3 6c19.333 0 33.333 1.66699 42 5s14.667 9.83301 18 19.5s5 24.5 5 44.5v549
c-18.667 29.333 -39 50.166 -61 62.499s-46.667 18.5 -74 18.5c-43.333 0 -76.833 -21.167 -100.5 -63.5s-35.5 -111.833 -35.5 -208.5v-65c35.333 0 79.666 3.33301 132.999 10c2 0 3.66699 -2.66699 5 -8s2 -11 2 -17s-1.33301 -11.833 -4 -17.5
s-4.66699 -7.83398 -6 -6.50098c-43.333 14.667 -86.666 22.334 -129.999 23.001v-277c0 -20.667 2.33301 -35.667 7 -45s13.834 -15.666 27.501 -18.999s35.834 -5 66.501 -5c1.33301 0 2 -2 2 -6s-0.666992 -6 -2 -6l-64 1c-13.333 0.666992 -34 1 -62 1l-55 -1
c-9.33301 -0.666992 -22.333 -1 -39 -1c-2 0 -3 2 -3 6s1 6 3 6c20.667 0 35.834 1.83301 45.501 5.5s16.334 10.167 20.001 19.5s5.5 24 5.5 44v225c0 11.333 -0.333008 19 -1 23c-1.33301 8 -4.33301 13.5 -9 16.5s-13.834 5 -27.501 6s-30.5 1.83301 -50.5 2.5
c-23.333 1.33301 -76 2 -158 2v-275c0 -20.667 2.33301 -35.667 7 -45s13.834 -15.666 27.501 -18.999s35.834 -5 66.501 -5c1.33301 0 2 -2 2 -6s-0.666992 -6 -2 -6l-64 1c-13.333 0.666992 -34 1 -62 1l-55 -1c-9.33301 -0.666992 -22.333 -1 -39 -1c-2 0 -3 2 -3 6
s1 6 3 6c20.667 0 35.834 1.83301 45.501 5.5s16.334 10.167 20.001 19.5s5.5 24 5.5 44v225c0 18 -1.5 30.5 -4.5 37.5s-9.33301 11.667 -19 14s-26.834 3.5 -51.501 3.5c-2 0 -3 2 -3 6s1 6 3 6c28.667 0 48 3.16699 58 9.5s15.333 18.166 16 35.499
c4 88 26.333 155.5 67 202.5s95.667 70.5 165 70.5c46.667 0 89.334 -9.33301 128.001 -28c33.333 42 81.333 63 144 63c28 0 53.833 -3.5 77.5 -10.5s43.5 -16.5 59.5 -28.5c7.33301 11.333 11 24.666 11 39.999c0 2 2 3 6 3s6 -1 6 -3v-646c0 -20 1.5 -34.833 4.5 -44.5
s9 -16.167 18 -19.5s23.167 -5 42.5 -5c2 0 3 -2 3 -6zM321.993 375.001c24.667 1.33301 42.168 3.66699 52.501 7s17.166 10 20.499 20c1.33301 6.66699 2 12 2 16c2.66699 82 14.667 147 36 195c-17.333 19.333 -37.333 34.5 -60 45.5s-46.667 16.5 -72 16.5
c-45.333 0 -81.5 -20.333 -108.5 -61s-40.5 -99 -40.5 -175v-65c85.333 0 142 0.333008 170 1z" />
    <glyph glyph-name="f_f_thorn.liga" unicode="ff&#xfe;" horiz-adv-x="1102" 
d="M988.5 377c23 -14.667 41.498 -36.0039 55.498 -64.0039s21 -60.667 21 -98c0 -49.333 -11.333 -91.166 -34 -125.499s-50.667 -60 -84 -77s-65.333 -25.5 -96 -25.5c-22 0 -41.5 2.33301 -58.5 7s-34.167 12.667 -51.5 24v-212c0 -20 2.5 -34.667 7.5 -44
s14.333 -15.833 28 -19.5s35.167 -5.5 64.5 -5.5c2 0 3 -2 3 -6s-1 -6 -3 -6c-22.667 0 -40.334 0.333008 -53.001 1l-72 1l-53 -1c-8.66699 -0.666992 -21 -1 -37 -1c-1.33301 0 -2 2 -2 6s0.666992 6 2 6c18.667 0 32.667 1.83301 42 5.5s15.666 10.167 18.999 19.5
s5 24 5 44v844c-30 40.667 -68.667 61 -116 61c-44.667 0 -77.5 -21.167 -98.5 -63.5s-31.5 -111.833 -31.5 -208.5v-65c31.333 0.666992 75.666 4 132.999 10c2 0 3.66699 -2.16699 5 -6.5s2 -9.83301 2 -16.5c0 -5.33301 -1 -10.666 -3 -15.999
s-4.33301 -7.66602 -7 -6.99902c-36.667 8.66699 -80 13.667 -130 15v-272c0 -20.667 2.33301 -35.667 7 -45s13.834 -15.666 27.501 -18.999s35.834 -5 66.501 -5c1.33301 0 2 -2 2 -6s-0.666992 -6 -2 -6l-64 1c-13.333 0.666992 -34 1 -62 1l-55 -1
c-9.33301 -0.666992 -22.333 -1 -39 -1c-2 0 -3 2 -3 6s1 6 3 6c20.667 0 35.834 1.83301 45.501 5.5s16.334 10.167 20.001 19.5s5.5 24 5.5 44v225c0 11.333 -0.333008 19 -1 23c-1.33301 8 -4.33301 13.5 -9 16.5s-13.834 5 -27.501 6s-30.5 1.83301 -50.5 2.5
c-23.333 1.33301 -76 2 -158 2v-275c0 -20.667 2.33301 -35.667 7 -45s13.834 -15.666 27.501 -18.999s35.834 -5 66.501 -5c1.33301 0 2 -2 2 -6s-0.666992 -6 -2 -6l-64 1c-13.333 0.666992 -34 1 -62 1l-55 -1c-9.33301 -0.666992 -22.333 -1 -39 -1c-2 0 -3 2 -3 6
s1 6 3 6c20.667 0 35.834 1.83301 45.501 5.5s16.334 10.167 20.001 19.5s5.5 24 5.5 44v225c0 18 -1.5 30.5 -4.5 37.5s-9.33301 11.667 -19 14s-26.834 3.5 -51.501 3.5c-2 0 -3 2 -3 6s1 6 3 6c28.667 0 48 3.16699 58 9.5s15.333 18.166 16 35.499
c4 88 26.333 155.5 67 202.5s95.667 70.5 165 70.5c46.667 0 88.667 -9 126 -27c31.333 41.333 77.666 62 138.999 62c51.333 0 92.333 -10.333 123 -31c4 10 6 20.667 6 32c0 2 2 3 6 3s6 -1 6 -3v-419c30 31.333 58.833 54.333 86.5 69s56.167 22 85.5 22
c27.333 0 52.5 -7.33301 75.5 -22zM321.998 374.996c24.667 1.33301 42.1689 3.66699 52.502 7s17.166 10 20.499 20c1.33301 6.66699 2 12 2 16c3.33301 84 15 149.667 35 197c-38.667 40 -82.334 60 -131.001 60c-45.333 0 -81.5 -20.333 -108.5 -61s-40.5 -99 -40.5 -175
v-65c85.333 0 142 0.333008 170 1zM974 54.9971c24 32 36 75 36 129c0 57.333 -12.667 102 -38 134s-57.333 48 -96 48c-25.333 0 -48.666 -6.5 -69.999 -19.5s-43 -31.167 -65 -54.5v-220c18.667 -20.667 39.167 -36.667 61.5 -48s49.166 -17 80.499 -17
c36.667 0 67 16 91 48z" />
    <glyph glyph-name="f_f_t.liga" unicode="fft" horiz-adv-x="915" 
d="M884 47c2 0 3.66309 -1.50586 4.99609 -4.50586s1 -5.16699 -1 -6.5c-24.667 -17.333 -46.334 -29.666 -65.001 -36.999s-38 -11 -58 -11c-27.333 0 -49.666 6.16699 -66.999 18.5s-26 32.833 -26 61.5v238c0 19.333 -2.83301 31.833 -8.5 37.5
s-21.334 9.16699 -47.001 10.5s-82.5 2 -170.5 2v-275c0 -20.667 2.33301 -35.667 7 -45s13.834 -15.666 27.501 -18.999s35.834 -5 66.501 -5c1.33301 0 2 -2 2 -6s-0.666992 -6 -2 -6l-64 1c-13.333 0.666992 -34 1 -62 1l-55 -1c-9.33301 -0.666992 -22.333 -1 -39 -1
c-2 0 -3 2 -3 6s1 6 3 6c20.667 0 35.834 1.83301 45.501 5.5s16.334 10.167 20.001 19.5s5.5 24 5.5 44v225c0 11.333 -0.333008 19 -1 23c-1.33301 8 -4.33301 13.5 -9 16.5s-13.834 5 -27.501 6s-30.5 1.83301 -50.5 2.5c-23.333 1.33301 -76 2 -158 2v-275
c0 -20.667 2.33301 -35.667 7 -45s13.834 -15.666 27.501 -18.999s35.834 -5 66.501 -5c1.33301 0 2 -2 2 -6s-0.666992 -6 -2 -6l-64 1c-13.333 0.666992 -34 1 -62 1l-55 -1c-9.33301 -0.666992 -22.333 -1 -39 -1c-2 0 -3 2 -3 6s1 6 3 6
c20.667 0 35.834 1.83301 45.501 5.5s16.334 10.167 20.001 19.5s5.5 24 5.5 44v225c0 18 -1.5 30.5 -4.5 37.5s-9.33301 11.667 -19 14s-26.834 3.5 -51.501 3.5c-2 0 -3 2 -3 6s1 6 3 6c28.667 0 48 3.16699 58 9.5s15.333 18.166 16 35.499c4 88 26.333 155.5 67 202.5
s95.667 70.5 165 70.5c46.667 0 89.334 -9.33301 128.001 -28c34.667 42 84.667 63 150 63c33.333 0 61 -5.16699 83 -15.5s33 -22.166 33 -35.499c0 -8.66699 -3 -15.5 -9 -20.5s-13.333 -7.5 -22 -7.5c-11.333 0 -23.333 7.33301 -36 22c-11.333 14 -23.5 24.333 -36.5 31
s-28.5 10 -46.5 10c-40.667 0 -73 -22.5 -97 -67.5s-36 -112.833 -36 -203.5v-65c60 0 107.333 1 142 3c32.667 0.666992 57.167 3 73.5 7s27.666 10.833 33.999 20.5s9.5 23.834 9.5 42.501c0 2 2.66699 3 8 3c4.66699 0 7 -1 7 -3v-73c46 0.666992 93 4 141 10
c2 0 3.66699 -2.16699 5 -6.5s2 -9.83301 2 -16.5c0 -5.33301 -1.16699 -10.666 -3.5 -15.999s-4.5 -7.66602 -6.5 -6.99902c-40 10 -86 15 -138 15v-251c0 -55.333 26.667 -83 80 -83c31.333 0 58.666 9 81.999 27zM321.996 374.994
c24.667 1.33301 42.1689 3.66699 52.502 7s17.166 10 20.499 20c1.33301 6.66699 2 12 2 16c3.33301 83.333 15.333 148.333 36 195c-18 19.333 -38.333 34.5 -61 45.5s-46.334 16.5 -71.001 16.5c-45.333 0 -81.5 -20.333 -108.5 -61s-40.5 -99 -40.5 -175v-65
c85.333 0 142 0.333008 170 1z" />
    <glyph glyph-name="f_h.liga" unicode="fh" horiz-adv-x="814" 
d="M793 6c0 -4 -0.670898 -6.00488 -2.00391 -6.00488c-15.333 0 -27.666 0.333008 -36.999 1l-52 1l-53 -1c-8.66699 -0.666992 -20.667 -1 -36 -1c-2 0 -3 2 -3 6s1 6 3 6c19.333 0 33.333 1.66699 42 5s14.667 9.83301 18 19.5s5 24.5 5 44.5v163
c0 40.667 -7.66699 70.667 -23 90s-39 29 -71 29c-21.333 0 -43.333 -6.16699 -66 -18.5s-43.334 -29.166 -62.001 -50.499v-213c0 -20 1.5 -34.833 4.5 -44.5s9 -16.167 18 -19.5s23.5 -5 43.5 -5c1.33301 0 2 -2 2 -6s-0.666992 -6 -2 -6
c-15.333 0 -27.666 0.333008 -36.999 1l-52 1l-53 -1c-8.66699 -0.666992 -20.667 -1 -36 -1c-2 0 -3 2 -3 6s1 6 3 6c19.333 0 33.333 1.66699 42 5s14.667 9.83301 18 19.5s5 24.5 5 44.5v552c-32 52 -74 78 -126 78c-45.333 0 -78.5 -21.167 -99.5 -63.5
s-31.5 -111.833 -31.5 -208.5v-65c31.333 0.666992 75.666 4 132.999 10c2 0 3.66699 -2.16699 5 -6.5s2 -9.83301 2 -16.5c0 -5.33301 -1 -10.666 -3 -15.999s-4.33301 -7.66602 -7 -6.99902c-36.667 8.66699 -80 13.667 -130 15v-272c0 -20.667 2.33301 -35.667 7 -45
s13.834 -15.666 27.501 -18.999s35.834 -5 66.501 -5c1.33301 0 2 -2 2 -6s-0.666992 -6 -2 -6l-64 1c-13.333 0.666992 -34 1 -62 1l-55 -1c-9.33301 -0.666992 -22.333 -1 -39 -1c-2 0 -3 2 -3 6s1 6 3 6c20.667 0 35.834 1.83301 45.501 5.5s16.334 10.167 20.001 19.5
s5.5 24 5.5 44v225c0 18 -1.5 30.5 -4.5 37.5s-9.33301 11.667 -19 14s-26.834 3.5 -51.501 3.5c-2 0 -3 2 -3 6s1 6 3 6c28.667 0 48 3.16699 58 9.5s15.333 18.166 16 35.499c3.33301 105.333 21.333 183 54 233s83.334 75 152.001 75
c25.333 0 49.166 -3.16699 71.499 -9.5s40.833 -15.166 55.5 -26.499c5.33301 12 8 24.333 8 37c0 2 2 3 6 3s6 -1 6 -3v-418c26.667 30.667 52.5 52.834 77.5 66.501s50.833 20.5 77.5 20.5c36.667 0 64.834 -10.167 84.501 -30.5s29.5 -50.5 29.5 -90.5v-194
c0 -20 1.66699 -34.833 5 -44.5s9.5 -16.167 18.5 -19.5s23.167 -5 42.5 -5c1.33301 0 2 -2 2 -6z" />
    <glyph glyph-name="f_j.liga" unicode="fj" horiz-adv-x="567" 
d="M194 643c-28 -44.667 -42.002 -112.668 -42.002 -204.001v-65c31.333 0.666992 75.666 4 132.999 10c2 0 3.66699 -2.16699 5 -6.5s2 -9.83301 2 -16.5c0 -5.33301 -1 -10.666 -3 -15.999s-4.33301 -7.66602 -7 -6.99902c-36.667 8.66699 -80 13.667 -130 15v-272
c0 -20.667 2.33301 -35.667 7 -45s13.834 -15.666 27.501 -18.999s35.834 -5 66.501 -5c1.33301 0 2 -2 2 -6s-0.666992 -6 -2 -6l-64 1c-13.333 0.666992 -34 1 -62 1l-55 -1c-9.33301 -0.666992 -22.333 -1 -39 -1c-2 0 -3 2 -3 6s1 6 3 6
c20.667 0 35.834 1.83301 45.501 5.5s16.334 10.167 20.001 19.5s5.5 24 5.5 44v225c0 18 -1.5 30.5 -4.5 37.5s-9.33301 11.667 -19 14s-26.834 3.5 -51.501 3.5c-2 0 -3 2 -3 6s1 6 3 6c28.667 0 48 3.16699 58 9.5s15.333 18.166 16 35.499
c3.33301 106 26 183.833 68 233.5s99.333 74.5 172 74.5c24.667 0 46.667 -3.5 66 -10.5s34.333 -16.333 45 -28s16 -23.834 16 -36.501c0 -8.66699 -2.5 -15.5 -7.5 -20.5s-11.5 -7.5 -19.5 -7.5c-8.66699 0 -15.5 2.33301 -20.5 7s-11.167 12.667 -18.5 24
c-10 17.333 -21.5 31 -34.5 41s-33.167 15 -60.5 15c-48.667 0 -87 -22.333 -115 -67zM465.998 395.999c2 0 3.66699 -0.834961 5 -2.50195s2 -3.5 2 -5.5c0 -4 -0.5 -17.167 -1.5 -39.5s-1.5 -48.166 -1.5 -77.499v-319c0 -45.333 -4 -82 -12 -110s-21.333 -51 -40 -69
s-45 -34 -79 -48c-1.33301 -0.666992 -2.83301 0.833008 -4.5 4.5s-1.5 5.83398 0.5 6.50098c32.667 14 55.5 35.333 68.5 64s19.5 71.667 19.5 129v341c0 24.667 -2.33301 42.334 -7 53.001s-13 16 -25 16c-10.667 0 -26.667 -5 -48 -15h-1c-3.33301 0 -5.5 1.66699 -6.5 5
s-0.166992 5.66602 2.5 6.99902l125 59c0.666992 0.666992 1.66699 1 3 1z" />
    <glyph glyph-name="f_k.liga" unicode="fk" horiz-adv-x="808" 
d="M799 6c0 -4 -1.00293 -6.00293 -3.00293 -6.00293c-14.667 0 -26.667 0.333008 -36 1l-52 1l-71 -1c-10 -0.666992 -24 -1 -42 -1c-1.33301 0 -2 2 -2 6s0.666992 6 2 6c18.667 0 32.167 1.5 40.5 4.5s12.5 7.83301 12.5 14.5c0 6 -3 13.333 -9 22l-125 173l-58 -44v-101
c0 -20 1.5 -34.833 4.5 -44.5s9 -16.167 18 -19.5s23.5 -5 43.5 -5c1.33301 0 2 -2 2 -6s-0.666992 -6 -2 -6c-15.333 0 -27.666 0.333008 -36.999 1l-52 1l-53 -1c-8.66699 -0.666992 -20.667 -1 -36 -1c-2 0 -3 2 -3 6s1 6 3 6c19.333 0 33.333 1.66699 42 5
s14.667 9.83301 18 19.5s5 24.5 5 44.5v552c-32 52 -74.333 78 -127 78c-44.667 0 -77.5 -21.167 -98.5 -63.5s-31.5 -111.833 -31.5 -208.5v-65c31.333 0.666992 75.666 4 132.999 10c2 0 3.66699 -2.16699 5 -6.5s2 -9.83301 2 -16.5c0 -5.33301 -1 -10.666 -3 -15.999
s-4.33301 -7.66602 -7 -6.99902c-36.667 8.66699 -80 13.667 -130 15v-272c0 -20.667 2.33301 -35.667 7 -45s13.834 -15.666 27.501 -18.999s35.834 -5 66.501 -5c1.33301 0 2 -2 2 -6s-0.666992 -6 -2 -6l-64 1c-13.333 0.666992 -34 1 -62 1l-55 -1
c-9.33301 -0.666992 -22.333 -1 -39 -1c-2 0 -3 2 -3 6s1 6 3 6c20.667 0 35.834 1.83301 45.501 5.5s16.334 10.167 20.001 19.5s5.5 24 5.5 44v225c0 18 -1.5 30.5 -4.5 37.5s-9.33301 11.667 -19 14s-26.834 3.5 -51.501 3.5c-2 0 -3 2 -3 6s1 6 3 6
c28.667 0 48 3.16699 58 9.5s15.333 18.166 16 35.499c3.33301 105.333 21.333 183 54 233s82.334 75 149.001 75c27.333 0 52.166 -3.16699 74.499 -9.5s40.833 -15.166 55.5 -26.499c5.33301 12 8 24.333 8 37c0 2 2 3 6 3s6 -1 6 -3v-532l145 113
c22.667 16.667 34 31 34 43c0 15.333 -21 23 -63 23c-2 0 -3 2 -3 6s1 6 3 6c18 0 31.667 -0.333008 41 -1l71 -1l66 1c8 0.666992 19.667 1 35 1c1.33301 0 2 -2 2 -6s-0.666992 -6 -2 -6c-50 0 -105.333 -23 -166 -69l-64 -49l125 -175c32 -46 70.667 -69 116 -69
c2 0 3 -2 3 -6z" />
    <glyph glyph-name="f_thorn.liga" unicode="f&#xfe;" horiz-adv-x="808" 
d="M694.5 377c23 -14.667 41.499 -36.0029 55.499 -64.0029s21 -60.667 21 -98c0 -49.333 -11.333 -91.166 -34 -125.499s-50.667 -60 -84 -77s-65.333 -25.5 -96 -25.5c-22 0 -41.5 2.33301 -58.5 7s-34.167 12.667 -51.5 24v-212c0 -20 2.5 -34.667 7.5 -44
s14.333 -15.833 28 -19.5s35.167 -5.5 64.5 -5.5c2 0 3 -2 3 -6s-1 -6 -3 -6c-22.667 0 -40.334 0.333008 -53.001 1l-72 1l-53 -1c-8.66699 -0.666992 -21 -1 -37 -1c-1.33301 0 -2 2 -2 6s0.666992 6 2 6c18.667 0 32.667 1.83301 42 5.5s15.666 10.167 18.999 19.5
s5 24 5 44v844c-30 40.667 -68.667 61 -116 61c-44.667 0 -77.5 -21.167 -98.5 -63.5s-31.5 -111.833 -31.5 -208.5v-65c31.333 0.666992 75.666 4 132.999 10c2 0 3.66699 -2.16699 5 -6.5s2 -9.83301 2 -16.5c0 -5.33301 -1 -10.666 -3 -15.999
s-4.33301 -7.66602 -7 -6.99902c-36.667 8.66699 -80 13.667 -130 15v-272c0 -20.667 2.33301 -35.667 7 -45s13.834 -15.666 27.501 -18.999s35.834 -5 66.501 -5c1.33301 0 2 -2 2 -6s-0.666992 -6 -2 -6l-64 1c-13.333 0.666992 -34 1 -62 1l-55 -1
c-9.33301 -0.666992 -22.333 -1 -39 -1c-2 0 -3 2 -3 6s1 6 3 6c20.667 0 35.834 1.83301 45.501 5.5s16.334 10.167 20.001 19.5s5.5 24 5.5 44v225c0 18 -1.5 30.5 -4.5 37.5s-9.33301 11.667 -19 14s-26.834 3.5 -51.501 3.5c-2 0 -3 2 -3 6s1 6 3 6
c28.667 0 48 3.16699 58 9.5s15.333 18.166 16 35.499c3.33301 105.333 21.333 183 54 233s82.334 75 149.001 75c51.333 0 92.333 -10.333 123 -31c4 10 6 20.667 6 32c0 2 2 3 6 3s6 -1 6 -3v-419c30 31.333 58.833 54.333 86.5 69s56.167 22 85.5 22
c27.333 0 52.5 -7.33301 75.5 -22zM679.999 54.9971c24 32 36 75 36 129c0 57.333 -12.667 102 -38 134s-57.333 48 -96 48c-25.333 0 -48.666 -6.5 -69.999 -19.5s-43 -31.167 -65 -54.5v-220c18.667 -20.667 39.167 -36.667 61.5 -48s49.166 -17 80.499 -17
c36.667 0 67 16 91 48z" />
    <glyph glyph-name="f_t.liga" unicode="ft" horiz-adv-x="621" 
d="M590 47c2 0 3.66699 -1.50488 5 -4.50488s1 -5.16699 -1 -6.5c-24.667 -17.333 -46.334 -29.666 -65.001 -36.999s-38 -11 -58 -11c-27.333 0 -49.666 6.16699 -66.999 18.5s-26 32.833 -26 61.5v238c0 19.333 -2.83301 31.833 -8.5 37.5s-21.334 9.16699 -47.001 10.5
s-82.5 2 -170.5 2v-275c0 -20.667 2.33301 -35.667 7 -45s13.834 -15.666 27.501 -18.999s35.834 -5 66.501 -5c1.33301 0 2 -2 2 -6s-0.666992 -6 -2 -6l-64 1c-13.333 0.666992 -34 1 -62 1l-55 -1c-9.33301 -0.666992 -22.333 -1 -39 -1c-2 0 -3 2 -3 6s1 6 3 6
c20.667 0 35.834 1.83301 45.501 5.5s16.334 10.167 20.001 19.5s5.5 24 5.5 44v225c0 18 -1.5 30.5 -4.5 37.5s-9.33301 11.667 -19 14s-26.834 3.5 -51.501 3.5c-2 0 -3 2 -3 6s1 6 3 6c28.667 0 48 3.16699 58 9.5s15.333 18.166 16 35.499
c3.33301 108 22.833 186.333 58.5 235s88.167 73 157.5 73c33.333 0 61 -5.16699 83 -15.5s33 -22.166 33 -35.499c0 -8.66699 -3 -15.5 -9 -20.5s-13.333 -7.5 -22 -7.5c-11.333 0 -23.333 7.33301 -36 22c-11.333 14 -23.5 24.333 -36.5 31s-28.5 10 -46.5 10
c-40.667 0 -73 -22.5 -97 -67.5s-36 -112.833 -36 -203.5v-65c60 0 107.333 1 142 3c32.667 0.666992 57.167 3 73.5 7s27.666 10.833 33.999 20.5s9.5 23.834 9.5 42.501c0 2 2.66699 3 8 3c4.66699 0 7 -1 7 -3v-73c46 0.666992 93 4 141 10c2 0 3.66699 -2.16699 5 -6.5
s2 -9.83301 2 -16.5c0 -5.33301 -1.16699 -10.666 -3.5 -15.999s-4.5 -7.66602 -6.5 -6.99902c-40 10 -86 15 -138 15v-251c0 -55.333 26.667 -83 80 -83c31.333 0 58.666 9 81.999 27z" />
    <glyph glyph-name="fi.liga" unicode="fi" horiz-adv-x="568" 
d="M192.5 643c-27 -44.667 -40.501 -112.668 -40.501 -204.001v-65c35.333 0 79.666 3.33301 132.999 10c2 0 3.66699 -2.5 5 -7.5s2 -10.5 2 -16.5s-1.33301 -12 -4 -18s-4.66699 -8.33301 -6 -7c-43.333 14.667 -86.666 22.334 -129.999 23.001v-277
c0 -20.667 2.33301 -35.667 7 -45s13.834 -15.666 27.501 -18.999s35.834 -5 66.501 -5c1.33301 0 2 -2 2 -6s-0.666992 -6 -2 -6l-64 1c-13.333 0.666992 -34 1 -62 1l-55 -1c-9.33301 -0.666992 -22.333 -1 -39 -1c-2 0 -3 2 -3 6s1 6 3 6
c20.667 0 35.834 1.83301 45.501 5.5s16.334 10.167 20.001 19.5s5.5 24 5.5 44v225c0 18 -1.5 30.5 -4.5 37.5s-9.33301 11.667 -19 14s-26.834 3.5 -51.501 3.5c-2 0 -3 2 -3 6s1 6 3 6c28.667 0 48 3.16699 58 9.5s15.333 18.166 16 35.499
c3.33301 106 25.5 183.833 66.5 233.5s96.833 74.5 167.5 74.5c34.667 0 63.5 -7.5 86.5 -22.5s34.5 -32.5 34.5 -52.5c0 -8.66699 -2.33301 -15.5 -7 -20.5s-11 -7.5 -19 -7.5c-8.66699 0 -15.334 2.5 -20.001 7.5s-10.334 12.833 -17.001 23.5
c-10 17.333 -21.167 31 -33.5 41s-31.833 15 -58.5 15c-46.667 0 -83.5 -22.333 -110.5 -67zM530.999 5.99902c0 -4 -0.666992 -6.00098 -2 -6.00098c-15.333 0 -27.666 0.333008 -36.999 1l-52 1l-53 -1c-8.66699 -0.666992 -20.667 -1 -36 -1c-2 0 -3 2 -3 6s1 6 3 6
c19.333 0 33.333 1.66699 42 5s14.667 9.83301 18 19.5s5 24.5 5 44.5v189c0 24.667 -2.33301 42.334 -7 53.001s-13 16 -25 16c-10.667 0 -26.667 -5 -48 -15h-1c-3.33301 0 -5.5 1.66699 -6.5 5s-0.166992 5.66602 2.5 6.99902l125 59c0.666992 0.666992 1.66699 1 3 1
s2.66602 -0.833008 3.99902 -2.5s2 -3.5 2 -5.5c0 -4 -0.333008 -17.167 -1 -39.5s-1 -48.166 -1 -77.499v-190c0 -20 1.66699 -34.833 5 -44.5s9.5 -16.167 18.5 -19.5s23.167 -5 42.5 -5c1.33301 0 2 -2 2 -6z" />
    <glyph glyph-name="fl.liga" unicode="fl" horiz-adv-x="567" 
d="M541 6c0 -4 -1.00195 -5.99805 -3.00195 -5.99805c-14.667 0 -26.667 0.333008 -36 1l-54 1l-54 -1c-8.66699 -0.666992 -20.667 -1 -36 -1c-2 0 -3 2 -3 6s1 6 3 6c19.333 0 33.333 1.66699 42 5s14.667 9.83301 18 19.5s5 24.5 5 44.5v549
c-18.667 29.333 -39 50.166 -61 62.499s-46.667 18.5 -74 18.5c-43.333 0 -76.833 -21.167 -100.5 -63.5s-35.5 -111.833 -35.5 -208.5v-65c35.333 0 79.666 3.33301 132.999 10c2 0 3.66699 -2.66699 5 -8s2 -11 2 -17s-1.33301 -11.833 -4 -17.5
s-4.66699 -7.83398 -6 -6.50098c-43.333 14.667 -86.666 22.334 -129.999 23.001v-277c0 -20.667 2.33301 -35.667 7 -45s13.834 -15.666 27.501 -18.999s35.834 -5 66.501 -5c1.33301 0 2 -2 2 -6s-0.666992 -6 -2 -6l-64 1c-13.333 0.666992 -34 1 -62 1l-55 -1
c-9.33301 -0.666992 -22.333 -1 -39 -1c-2 0 -3 2 -3 6s1 6 3 6c20.667 0 35.834 1.83301 45.501 5.5s16.334 10.167 20.001 19.5s5.5 24 5.5 44v225c0 18 -1.5 30.5 -4.5 37.5s-9.33301 11.667 -19 14s-26.834 3.5 -51.501 3.5c-2 0 -3 2 -3 6s1 6 3 6
c28.667 0 48 3.16699 58 9.5s15.333 18.166 16 35.499c3.33301 107.333 22.666 185.5 57.999 234.5s86 73.5 152 73.5c28 0 53.833 -3.5 77.5 -10.5s43.5 -16.5 59.5 -28.5c7.33301 11.333 11 24.666 11 39.999c0 2 2 3 6 3s6 -1 6 -3v-646c0 -20 1.5 -34.833 4.5 -44.5
s9 -16.167 18 -19.5s23.167 -5 42.5 -5c2 0 3 -2 3 -6z" />
    <glyph glyph-name="g_g.liga" unicode="gg" horiz-adv-x="930" 
d="M384 394.5c2.66699 -0.333008 3.99805 -1.16895 3.99805 -2.50195v-462c0 -64 -17.333 -115.167 -52 -153.5s-82.667 -57.5 -144 -57.5c-39.333 0 -71.166 7.33301 -95.499 22s-36.5 32.334 -36.5 53.001c0 9.33301 2.5 16.333 7.5 21s10.833 7 17.5 7
c7.33301 0 13.666 -2.16699 18.999 -6.5s11.333 -11.166 18 -20.499c14 -17.333 28.333 -30.833 43 -40.5s36 -14.5 64 -14.5c34.667 0 62.167 11.667 82.5 35s30.5 67 30.5 131v173c-24 -26.667 -49.167 -48 -75.5 -64s-55.166 -24 -86.499 -24
c-40.667 0 -74.667 14.833 -102 44.5s-41 71.167 -41 124.5c0 48 11.333 90.167 34 126.5s51.167 64.166 85.5 83.499s67.833 29 100.5 29c18 0 35.5 -2.83301 52.5 -8.5s32.167 -13.167 45.5 -22.5c10.667 6 18.667 14.667 24 26
c0.666992 0.666992 2.33398 0.833984 5.00098 0.500977zM848.998 394.497c2.66699 -0.333008 3.99805 -1.16895 3.99805 -2.50195v-462c0 -64 -17.333 -115.167 -52 -153.5s-82.667 -57.5 -144 -57.5c-39.333 0 -71.166 7.33301 -95.499 22s-36.5 32.334 -36.5 53.001
c0 9.33301 2.5 16.333 7.5 21s10.833 7 17.5 7c7.33301 0 13.666 -2.16699 18.999 -6.5s11.333 -11.166 18 -20.499c14 -17.333 28.333 -30.833 43 -40.5s36 -14.5 64 -14.5c34.667 0 62.167 11.667 82.5 35s30.5 67 30.5 131v173c-24 -26.667 -49.167 -48 -75.5 -64
s-55.166 -24 -86.499 -24c-40.667 0 -74.667 14.833 -102 44.5s-41 71.167 -41 124.5c0 48 11.333 90.167 34 126.5s51.167 64.166 85.5 83.499s67.833 29 100.5 29c18 0 35.5 -2.83301 52.5 -8.5s32.167 -13.167 45.5 -22.5c10.667 6 18.667 14.667 24 26
c0.666992 0.666992 2.33398 0.833984 5.00098 0.500977zM341.996 94.9941l0.000976562 200.001c0 24 -11.333 44.167 -34 60.5s-48 24.5 -76 24.5c-40.667 0 -73.834 -17.833 -99.501 -53.5s-38.5 -81.834 -38.5 -138.501c0 -50 10.333 -90.667 31 -122s48.667 -47 84 -47
c42 0 86.333 25.333 133 76zM806.997 94.9951l0.000976562 200.001c0 24 -11.333 44.167 -34 60.5s-48 24.5 -76 24.5c-40.667 0 -73.834 -17.833 -99.501 -53.5s-38.5 -81.834 -38.5 -138.501c0 -50 10.333 -90.667 31 -122s48.667 -47 84 -47c42 0 86.333 25.333 133 76z
" />
    <glyph glyph-name="longs_b.liga" unicode="&#x17f;b" horiz-adv-x="807" 
d="M689.5 378c23.667 -14 42.8291 -34.835 57.4961 -62.502s22.334 -61.5 23.001 -101.5c-0.666992 -48 -11.667 -89.167 -33 -123.5s-48.666 -60.166 -81.999 -77.499s-68.666 -26 -105.999 -26c-50.667 0 -96.667 13.667 -138 41l-69 -32h-2
c-2.66699 0 -4.33398 1.16699 -5.00098 3.5s0 4.5 2 6.5c22.667 16 38.167 30 46.5 42s12.5 30.333 12.5 55l2 530c-28.667 52 -67.334 78 -116.001 78c-44.667 0 -77.5 -21.167 -98.5 -63.5s-31.5 -111.833 -31.5 -208.5v-358c0 -20.667 2.33301 -35.667 7 -45
s13.834 -15.666 27.501 -18.999s35.834 -5 66.501 -5c1.33301 0 2 -2 2 -6s-0.666992 -6 -2 -6l-64 1c-13.333 0.666992 -34 1 -62 1l-55 -1c-9.33301 -0.666992 -22.333 -1 -39 -1c-2 0 -3 2 -3 6s1 6 3 6c20.667 0 35.667 1.66699 45 5s15.833 9.83301 19.5 19.5
s5.5 24.5 5.5 44.5v337c0 205.333 67.667 308 203 308c51.333 0 91.333 -12.333 120 -37c6 11.333 9 24 9 38c0 2 2 3 6 3s6 -1 6 -3l-1 -416c24.667 26.667 50.167 48 76.5 64s55.833 24 88.5 24c28.667 0 54.834 -7 78.501 -21zM677.495 51.498
c23 30.333 34.832 73.833 35.499 130.5c-0.666992 60 -13.167 106.5 -37.5 139.5s-56.166 49.5 -95.499 49.5c-23.333 0 -46 -6.83301 -68 -20.5s-44 -32.5 -66 -56.5v-221c21.333 -24 43 -41.167 65 -51.5s45.333 -15.5 70 -15.5c41.333 0 73.5 15.167 96.5 45.5z" />
    <glyph glyph-name="longs_h.liga" unicode="&#x17f;h" horiz-adv-x="802" 
d="M781 6c0 -4 -0.672852 -6.00195 -2.00586 -6.00195c-15.333 0 -27.333 0.333008 -36 1l-53 1l-52 -1c-9.33301 -0.666992 -21.666 -1 -36.999 -1c-1.33301 0 -2 2 -2 6s0.666992 6 2 6c19.333 0 33.5 1.66699 42.5 5s15.167 9.83301 18.5 19.5s5 24.5 5 44.5v163
c0 40.667 -7.83301 70.667 -23.5 90s-39.5 29 -71.5 29c-22 0 -44.167 -6.16699 -66.5 -18.5s-42.833 -29.5 -61.5 -51.5v-212c0 -20 1.66699 -34.833 5 -44.5s9.5 -16.167 18.5 -19.5s23.167 -5 42.5 -5c1.33301 0 2 -2 2 -6s-0.666992 -6 -2 -6
c-15.333 0 -27.333 0.333008 -36 1l-53 1l-52 -1c-9.33301 -0.666992 -21.666 -1 -36.999 -1c-1.33301 0 -2 2 -2 6s0.666992 6 2 6c19.333 0 33.5 1.66699 42.5 5s15.167 9.83301 18.5 19.5s5 24.5 5 44.5v552c-28.667 52 -67.334 78 -116.001 78
c-44.667 0 -77.5 -21.167 -98.5 -63.5s-31.5 -111.833 -31.5 -208.5v-358c0 -20.667 2.33301 -35.667 7 -45s13.834 -15.666 27.501 -18.999s35.834 -5 66.501 -5c1.33301 0 2 -2 2 -6s-0.666992 -6 -2 -6l-64 1c-13.333 0.666992 -34 1 -62 1l-55 -1
c-9.33301 -0.666992 -22.333 -1 -39 -1c-2 0 -3 2 -3 6s1 6 3 6c20.667 0 35.834 1.83301 45.501 5.5s16.334 10.167 20.001 19.5s5.5 24 5.5 44v337c0 104 16.833 181.333 50.5 232s84.167 76 151.5 76c51.333 0 91 -12 119 -36c5.33301 12 8 24.333 8 37
c0 2 1.83301 3 5.5 3s5.5 -1 5.5 -3v-418c26.667 30.667 52.5 52.834 77.5 66.501s50.833 20.5 77.5 20.5c36.667 0 64.834 -10.167 84.501 -30.5s29.5 -50.5 29.5 -90.5v-194c0 -20 1.66699 -34.833 5 -44.5s9.5 -16.167 18.5 -19.5s23.167 -5 42.5 -5c1.33301 0 2 -2 2 -6
z" />
    <glyph glyph-name="longs_i.liga" unicode="&#x17f;i" horiz-adv-x="544" 
d="M30 6c0 4 1 6 3 6c20.667 0 35.834 1.83301 45.501 5.5s16.334 10.167 20.001 19.5s5.5 24 5.5 44v337c0 106.667 18.333 184.667 55 234s88 74 154 74c34 0 60.833 -5 80.5 -15s29.5 -22 29.5 -36c0 -8.66699 -2.83301 -15.334 -8.5 -20.001s-12.834 -7 -21.501 -7
s-15.834 2.16699 -21.501 6.5s-12.167 11.166 -19.5 20.499c-10 12 -19.667 21.167 -29 27.5s-22.333 9.5 -39 9.5c-40.667 0 -72.5 -22.167 -95.5 -66.5s-34.5 -113.166 -34.5 -206.499v-358c0 -20.667 1.83301 -35.667 5.5 -45s11.5 -15.666 23.5 -18.999s31.333 -5 58 -5
c1.33301 0 2 -2 2 -6s-0.666992 -6 -2 -6l-58 1c-12 0.666992 -30.667 1 -56 1l-55 -1c-9.33301 -0.666992 -22.333 -1 -39 -1c-2 0 -3 2 -3 6zM318 6c0 4 0.665039 5.99902 1.99805 5.99902c19.333 0 33.5 1.66699 42.5 5s15.167 9.83301 18.5 19.5s5 24.5 5 44.5v189
c0 24.667 -2.33301 42.334 -7 53.001s-13 16 -25 16c-11.333 0 -27.666 -5 -48.999 -15h-1c-3.33301 0 -5.33301 1.66699 -6 5s0.333008 5.66602 3 6.99902l125 59l2 1c2 0 3.66699 -0.833008 5 -2.5s2 -3.5 2 -5.5c0 -4 -0.333008 -17.167 -1 -39.5s-1 -48.166 -1 -77.499
v-190c0 -20 1.5 -34.833 4.5 -44.5s9 -16.167 18 -19.5s23.167 -5 42.5 -5c2 0 3 -2 3 -6s-1 -6 -3 -6c-15.333 -0 -27.333 0.333008 -36 1l-53 1l-52 -1c-9.33301 -0.666992 -21.666 -1 -36.999 -1c-1.33301 0 -2 2 -2 6z" />
    <glyph glyph-name="longs_j.liga" unicode="&#x17f;j" horiz-adv-x="525" 
d="M30 6c0 4 1 6 3 6c20.667 0 35.834 1.83301 45.501 5.5s16.334 10.167 20.001 19.5s5.5 24 5.5 44v337c0 106.667 18.333 184.667 55 234s88 74 154 74c34 0 60.833 -5 80.5 -15s29.5 -22 29.5 -36c0 -8.66699 -2.83301 -15.334 -8.5 -20.001s-12.834 -7 -21.501 -7
s-15.834 2.16699 -21.501 6.5s-12.167 11.166 -19.5 20.499c-10 12 -19.667 21.167 -29 27.5s-22.333 9.5 -39 9.5c-40.667 0 -72.5 -22.167 -95.5 -66.5s-34.5 -113.166 -34.5 -206.499v-358c0 -20.667 1.83301 -35.667 5.5 -45s11.5 -15.666 23.5 -18.999s31.333 -5 58 -5
c1.33301 0 2 -2 2 -6s-0.666992 -6 -2 -6l-58 1c-12 0.666992 -30.667 1 -56 1l-55 -1c-9.33301 -0.666992 -22.333 -1 -39 -1c-2 0 -3 2 -3 6zM292.5 -270.5c-1.66699 3.66699 -1.83203 5.83203 -0.499023 6.49902c32.667 14 55.667 35.333 69 64s20 71.667 20 129v341
c0 24.667 -2.33301 42.334 -7 53.001s-13 16 -25 16c-10.667 0 -26.667 -5 -48 -15h-1c-3.33301 0 -5.5 1.66699 -6.5 5s-0.166992 5.66602 2.5 6.99902l125 59c0.666992 0.666992 1.66699 1 3 1s2.66602 -0.833008 3.99902 -2.5s2 -3.5 2 -5.5
c0 -4 -0.333008 -17.167 -1 -39.5s-1 -48.166 -1 -77.499v-319c0 -44.667 -4 -81.167 -12 -109.5s-21.333 -51.5 -40 -69.5s-45 -34 -79 -48c-1.33301 -0.666992 -2.83301 0.833008 -4.5 4.5z" />
    <glyph glyph-name="longs_k.liga" unicode="&#x17f;k" horiz-adv-x="796" 
d="M787 6c0 -4 -0.672852 -6.00098 -2.00586 -6.00098c-15.333 0 -27.666 0.333008 -36.999 1l-52 1l-71 -1c-10 -0.666992 -23.667 -1 -41 -1c-2 0 -3 2 -3 6s1 6 3 6c18 0 31.167 1.5 39.5 4.5s12.5 7.83301 12.5 14.5c0 6 -3 13.333 -9 22l-125 172l-58 -44v-100
c0 -20 1.66699 -34.833 5 -44.5s9.5 -16.167 18.5 -19.5s23.167 -5 42.5 -5c1.33301 0 2 -2 2 -6s-0.666992 -6 -2 -6c-15.333 0 -27.333 0.333008 -36 1l-53 1l-52 -1c-9.33301 -0.666992 -21.666 -1 -36.999 -1c-1.33301 0 -2 2 -2 6s0.666992 6 2 6
c19.333 0 33.5 1.66699 42.5 5s15.167 9.83301 18.5 19.5s5 24.5 5 44.5v552c-28.667 52 -67.334 78 -116.001 78c-44.667 0 -77.5 -21.167 -98.5 -63.5s-31.5 -111.833 -31.5 -208.5v-358c0 -20.667 2.33301 -35.667 7 -45s13.834 -15.666 27.501 -18.999
s35.834 -5 66.501 -5c1.33301 0 2 -2 2 -6s-0.666992 -6 -2 -6l-64 1c-13.333 0.666992 -34 1 -62 1l-55 -1c-9.33301 -0.666992 -22.333 -1 -39 -1c-2 0 -3 2 -3 6s1 6 3 6c20.667 0 35.834 1.83301 45.501 5.5s16.334 10.167 20.001 19.5s5.5 24 5.5 44v337
c0 104 16.833 181.333 50.5 232s84.167 76 151.5 76c51.333 0 91 -12 119 -36c5.33301 12 8 24.333 8 37c0 2 1.83301 3 5.5 3s5.5 -1 5.5 -3v-532l145 113c22.667 16.667 34 31 34 43c0 15.333 -21 23 -63 23c-1.33301 0 -2 2 -2 6s0.666992 6 2 6c18 0 32 -0.333008 42 -1
l71 -1l65 1c8.66699 0.666992 20.334 1 35.001 1c2 0 3 -2 3 -6s-1 -6 -3 -6c-50 0 -105.333 -23 -166 -69l-64 -49l125 -175c32 -46 71 -69 117 -69c1.33301 0 2 -2 2 -6z" />
    <glyph glyph-name="longs_l.liga" unicode="&#x17f;l" horiz-adv-x="544" 
d="M517 6c0 -4 -0.671875 -6.00098 -2.00488 -6.00098c-15.333 0 -27.666 0.333008 -36.999 1l-53 1l-54 -1c-8.66699 -0.666992 -20.667 -1 -36 -1c-2 0 -3 2 -3 6s1 6 3 6c18.667 0 32.5 1.83301 41.5 5.5s15.167 10.167 18.5 19.5s5 24 5 44v548
c-28.667 54.667 -68 82 -118 82c-44.667 0 -77.5 -21.167 -98.5 -63.5s-31.5 -111.833 -31.5 -208.5v-358c0 -20.667 2.33301 -35.667 7 -45s13.834 -15.666 27.501 -18.999s35.834 -5 66.501 -5c1.33301 0 2 -2 2 -6s-0.666992 -6 -2 -6l-64 1
c-13.333 0.666992 -34 1 -62 1l-55 -1c-9.33301 -0.666992 -22.333 -1 -39 -1c-2 0 -3 2 -3 6s1 6 3 6c20.667 0 35.834 1.83301 45.501 5.5s16.334 10.167 20.001 19.5s5.5 24 5.5 44v337c0 104 16.833 181.333 50.5 232s84.167 76 151.5 76c52 0 92.333 -12.667 121 -38
c6.66699 12 10 25 10 39c0 2 2 3 6 3s6 -1 6 -3v-646c0 -20 1.5 -34.833 4.5 -44.5s9 -16.167 18 -19.5s23.5 -5 43.5 -5c1.33301 0 2 -2 2 -6z" />
    <glyph glyph-name="longs_thorn.liga" unicode="&#x17f;&#xfe;" horiz-adv-x="796" 
d="M683 377c23.333 -14.667 41.8301 -35.834 55.4971 -63.501s20.5 -60.5 20.5 -98.5c0 -49.333 -11.333 -91.166 -34 -125.499s-50.667 -60 -84 -77s-65.333 -25.5 -96 -25.5c-21.333 0 -40.666 2.33301 -57.999 7s-34.666 13 -51.999 25v-213c0 -20 2.5 -34.667 7.5 -44
s14.333 -15.833 28 -19.5s35.5 -5.5 65.5 -5.5c1.33301 0 2 -2 2 -6s-0.666992 -6 -2 -6c-23.333 0 -41.333 0.333008 -54 1l-71 1l-53 -1c-9.33301 -0.666992 -22 -1 -38 -1c-1.33301 0 -2 2 -2 6s0.666992 6 2 6c18.667 0 32.667 1.83301 42 5.5
s15.666 10.167 18.999 19.5s5 24 5 44v846c-26.667 39.333 -61.334 59 -104.001 59c-44.667 0 -77.5 -21.167 -98.5 -63.5s-31.5 -111.833 -31.5 -208.5v-358c0 -20.667 2.33301 -35.667 7 -45s13.834 -15.666 27.501 -18.999s35.834 -5 66.501 -5c1.33301 0 2 -2 2 -6
s-0.666992 -6 -2 -6l-64 1c-13.333 0.666992 -34 1 -62 1l-55 -1c-9.33301 -0.666992 -22.333 -1 -39 -1c-2 0 -3 2 -3 6s1 6 3 6c20.667 0 35.834 1.83301 45.501 5.5s16.334 10.167 20.001 19.5s5.5 24 5.5 44v337c0 104 16.833 181.333 50.5 232s84.167 76 151.5 76
c45.333 0 82.333 -10 111 -30c4 9.33301 6 19.666 6 30.999c0 2 2 3 6 3s6 -1 6 -3v-419c30 31.333 59 54.333 87 69s56.333 22 85 22c27.333 0 52.666 -7.33301 75.999 -22zM641.997 28.5c19.333 14.333 34.5029 34.832 45.5029 61.499s16.5 58 16.5 94
c0 57.333 -12.5 102 -37.5 134s-56.833 48 -95.5 48c-25.333 0 -48.833 -6.5 -70.5 -19.5s-43.5 -31.167 -65.5 -54.5v-219c19.333 -21.333 40.166 -37.666 62.499 -48.999s49.166 -17 80.499 -17c23.333 0 44.666 7.16699 63.999 21.5z" />
    <glyph glyph-name="longs_longs.liga" unicode="&#x17f;&#x17f;" horiz-adv-x="538" 
d="M663.5 710.5c19.667 -10.333 29.4932 -22.167 29.4932 -35.5c0 -9.33301 -2.83301 -16.166 -8.5 -20.499s-13.167 -6.5 -22.5 -6.5c-8.66699 0 -15.834 2.16699 -21.501 6.5s-12.167 11.166 -19.5 20.499c-9.33301 11.333 -18.666 20.166 -27.999 26.499s-22 9.5 -38 9.5
c-38 0 -67.5 -21.833 -88.5 -65.5s-31.5 -112.5 -31.5 -206.5v-358c0 -20.667 1.83301 -35.667 5.5 -45s11.5 -15.666 23.5 -18.999s31.333 -5 58 -5c1.33301 0 2 -2 2 -6s-0.666992 -6 -2 -6l-58 1c-12 0.666992 -30.667 1 -56 1l-55 -1
c-9.33301 -0.666992 -22.333 -1 -39 -1c-2 0 -3 2 -3 6s1 6 3 6c20.667 0 35.834 1.83301 45.501 5.5s16.334 10.167 20.001 19.5s5.5 24 5.5 44v337c0 86.667 11 154 33 202c-34.667 36.667 -73.667 55 -117 55c-45.333 0 -81.5 -20.333 -108.5 -61s-40.5 -99 -40.5 -175
v-358c0 -20.667 2.33301 -35.667 7 -45s13.834 -15.666 27.501 -18.999s35.834 -5 66.501 -5c1.33301 0 2 -2 2 -6s-0.666992 -6 -2 -6l-64 1c-13.333 0.666992 -34 1 -62 1l-55 -1c-9.33301 -0.666992 -22.333 -1 -39 -1c-2 0 -3 2 -3 6s1 6 3 6
c20.667 0 35.834 1.83301 45.501 5.5s16.334 10.167 20.001 19.5s5.5 24 5.5 44v337c0 87.333 21 154.666 63 201.999s98 71 168 71c40.667 0 77.667 -8.33301 111 -25c32.667 40 80.334 60 143.001 60c30 0 54.833 -5.16699 74.5 -15.5z" />
    <glyph glyph-name="longs_longs_b.liga" unicode="&#x17f;&#x17f;b" horiz-adv-x="1092" 
d="M974.5 378c23.667 -14 42.8262 -34.835 57.4932 -62.502s22.334 -61.5 23.001 -101.5c-0.666992 -48 -11.667 -89.167 -33 -123.5s-48.666 -60.166 -81.999 -77.499s-68.666 -26 -105.999 -26c-50.667 0 -96.667 13.667 -138 41l-69 -32h-2
c-2.66699 0 -4.33398 1.16699 -5.00098 3.5s0 4.5 2 6.5c22.667 16 38.167 30 46.5 42s12.5 30.333 12.5 55l2 530c-28.667 52 -67.334 78 -116.001 78c-44.667 0 -77.5 -21.167 -98.5 -63.5s-31.5 -111.833 -31.5 -208.5v-358c0 -20.667 2.33301 -35.667 7 -45
s13.834 -15.666 27.501 -18.999s35.834 -5 66.501 -5c1.33301 0 2 -2 2 -6s-0.666992 -6 -2 -6l-64 1c-13.333 0.666992 -34 1 -62 1l-55 -1c-9.33301 -0.666992 -22.333 -1 -39 -1c-2 0 -3 2 -3 6s1 6 3 6c20.667 0 35.667 1.66699 45 5s15.833 9.83301 19.5 19.5
s5.5 24.5 5.5 44.5v337c0 83.333 11 149.333 33 198c-34.667 39.333 -74.667 59 -120 59s-81.5 -20.333 -108.5 -61s-40.5 -99 -40.5 -175v-358c0 -20.667 2.33301 -35.667 7 -45s13.834 -15.666 27.501 -18.999s35.834 -5 66.501 -5c1.33301 0 2 -2 2 -6
s-0.666992 -6 -2 -6l-64 1c-13.333 0.666992 -34 1 -62 1l-55 -1c-9.33301 -0.666992 -22.333 -1 -39 -1c-2 0 -3 2 -3 6s1 6 3 6c20.667 0 35.834 1.83301 45.501 5.5s16.334 10.167 20.001 19.5s5.5 24 5.5 44v337c0 87.333 21 154.666 63 201.999s98 71 168 71
c42.667 0 80.667 -9 114 -27c33.333 41.333 80.666 62 141.999 62c51.333 0 91.333 -12.333 120 -37c6 11.333 9 24 9 38c0 2 2 3 6 3s6 -1 6 -3l-1 -416c24.667 26.667 50.167 48 76.5 64s55.833 24 88.5 24c28.667 0 54.834 -7 78.501 -21zM962.492 51.498
c23 30.333 34.832 73.833 35.499 130.5c-0.666992 60 -13.167 106.5 -37.5 139.5s-56.166 49.5 -95.499 49.5c-23.333 0 -46 -6.83301 -68 -20.5s-44 -32.5 -66 -56.5v-221c21.333 -24 43 -41.167 65 -51.5s45.333 -15.5 70 -15.5c41.333 0 73.5 15.167 96.5 45.5z" />
    <glyph glyph-name="longs_longs_h.liga" unicode="&#x17f;&#x17f;h" horiz-adv-x="1089" 
d="M1068 6c0 -4 -0.675781 -6.00195 -2.00879 -6.00195c-15.333 0 -27.333 0.333008 -36 1l-53 1l-52 -1c-9.33301 -0.666992 -21.666 -1 -36.999 -1c-1.33301 0 -2 2 -2 6s0.666992 6 2 6c19.333 0 33.5 1.66699 42.5 5s15.167 9.83301 18.5 19.5s5 24.5 5 44.5v163
c0 40.667 -7.83301 70.667 -23.5 90s-39.5 29 -71.5 29c-22 0 -44.167 -6.16699 -66.5 -18.5s-42.833 -29.5 -61.5 -51.5v-212c0 -20 1.66699 -34.833 5 -44.5s9.5 -16.167 18.5 -19.5s23.167 -5 42.5 -5c1.33301 0 2 -2 2 -6s-0.666992 -6 -2 -6
c-15.333 0 -27.333 0.333008 -36 1l-53 1l-52 -1c-9.33301 -0.666992 -21.666 -1 -36.999 -1c-1.33301 0 -2 2 -2 6s0.666992 6 2 6c19.333 0 33.5 1.66699 42.5 5s15.167 9.83301 18.5 19.5s5 24.5 5 44.5v552c-28.667 52 -67.334 78 -116.001 78
c-44.667 0 -77.5 -21.167 -98.5 -63.5s-31.5 -111.833 -31.5 -208.5v-358c0 -20.667 2.33301 -35.667 7 -45s13.834 -15.666 27.501 -18.999s35.834 -5 66.501 -5c1.33301 0 2 -2 2 -6s-0.666992 -6 -2 -6l-64 1c-13.333 0.666992 -34 1 -62 1l-55 -1
c-9.33301 -0.666992 -22.333 -1 -39 -1c-2 0 -3 2 -3 6s1 6 3 6c20.667 0 35.834 1.83301 45.501 5.5s16.334 10.167 20.001 19.5s5.5 24 5.5 44v337c0 80 10.333 145.333 31 196c-16.667 19.333 -35.334 34.333 -56.001 45s-42.334 16 -65.001 16
c-45.333 0 -81.5 -20.333 -108.5 -61s-40.5 -99 -40.5 -175v-358c0 -20.667 2.33301 -35.667 7 -45s13.834 -15.666 27.501 -18.999s35.834 -5 66.501 -5c1.33301 0 2 -2 2 -6s-0.666992 -6 -2 -6l-64 1c-13.333 0.666992 -34 1 -62 1l-55 -1
c-9.33301 -0.666992 -22.333 -1 -39 -1c-2 0 -3 2 -3 6s1 6 3 6c20.667 0 35.834 1.83301 45.501 5.5s16.334 10.167 20.001 19.5s5.5 24 5.5 44v337c0 87.333 21 154.666 63 201.999s98 71 168 71c44.667 0 83.334 -9.33301 116.001 -28c34 42 81.333 63 142 63
c51.333 0 91 -12 119 -36c5.33301 12 8 24.333 8 37c0 2 1.83301 3 5.5 3s5.5 -1 5.5 -3v-418c26.667 30.667 52.5 52.834 77.5 66.501s50.833 20.5 77.5 20.5c36.667 0 64.834 -10.167 84.501 -30.5s29.5 -50.5 29.5 -90.5v-194c0 -20 1.66699 -34.833 5 -44.5
s9.5 -16.167 18.5 -19.5s23.167 -5 42.5 -5c1.33301 0 2 -2 2 -6z" />
    <glyph glyph-name="longs_longs_i.liga" unicode="&#x17f;&#x17f;i" horiz-adv-x="825" 
d="M469.5 645.5c-23 -44.333 -34.5029 -113.166 -34.5029 -206.499v-358c0 -20.667 1.83301 -35.667 5.5 -45s11.5 -15.666 23.5 -18.999s31.333 -5 58 -5c1.33301 0 2 -2 2 -6s-0.666992 -6 -2 -6l-58 1c-12 0.666992 -30.667 1 -56 1l-55 -1
c-9.33301 -0.666992 -22.333 -1 -39 -1c-2 0 -3 2 -3 6s1 6 3 6c20.667 0 35.834 1.83301 45.501 5.5s16.334 10.167 20.001 19.5s5.5 24 5.5 44v337c0 84 11.667 150.333 35 199c-34.667 38.667 -74.334 58 -119.001 58c-45.333 0 -81.5 -20.333 -108.5 -61
s-40.5 -99 -40.5 -175v-358c0 -20.667 2.33301 -35.667 7 -45s13.834 -15.666 27.501 -18.999s35.834 -5 66.501 -5c1.33301 0 2 -2 2 -6s-0.666992 -6 -2 -6l-64 1c-13.333 0.666992 -34 1 -62 1l-55 -1c-9.33301 -0.666992 -22.333 -1 -39 -1c-2 0 -3 2 -3 6s1 6 3 6
c20.667 0 35.834 1.83301 45.501 5.5s16.334 10.167 20.001 19.5s5.5 24 5.5 44v337c0 87.333 21 154.666 63 201.999s98 71 168 71c42.667 0 80.667 -9 114 -27c34.667 41.333 83 62 145 62c34 0 60.833 -5 80.5 -15s29.5 -22 29.5 -36
c0 -8.66699 -2.83301 -15.334 -8.5 -20.001s-12.834 -7 -21.501 -7s-15.834 2.16699 -21.501 6.5s-12.167 11.166 -19.5 20.499c-10 12 -19.667 21.167 -29 27.5s-22.333 9.5 -39 9.5c-40.667 0 -72.5 -22.167 -95.5 -66.5zM781.997 6
c0 -4 -1.00195 -6.00098 -3.00195 -6.00098c-15.333 0 -27.333 0.333008 -36 1l-53 1l-52 -1c-9.33301 -0.666992 -21.666 -1 -36.999 -1c-1.33301 0 -2 2 -2 6s0.666992 6 2 6c19.333 0 33.5 1.66699 42.5 5s15.167 9.83301 18.5 19.5s5 24.5 5 44.5v189
c0 24.667 -2.33301 42.334 -7 53.001s-13 16 -25 16c-11.333 0 -27.666 -5 -48.999 -15h-1c-3.33301 0 -5.33301 1.66699 -6 5s0.333008 5.66602 3 6.99902l125 59l2 1c2 0 3.66699 -0.833008 5 -2.5s2 -3.5 2 -5.5c0 -4 -0.333008 -17.167 -1 -39.5s-1 -48.166 -1 -77.499
v-190c0 -20 1.5 -34.833 4.5 -44.5s9 -16.167 18 -19.5s23.167 -5 42.5 -5c2 0 3 -2 3 -6z" />
    <glyph glyph-name="longs_longs_j.liga" unicode="&#x17f;&#x17f;j" horiz-adv-x="806" 
d="M469.5 645.5c-23 -44.333 -34.5029 -113.166 -34.5029 -206.499v-358c0 -20.667 1.83301 -35.667 5.5 -45s11.5 -15.666 23.5 -18.999s31.333 -5 58 -5c1.33301 0 2 -2 2 -6s-0.666992 -6 -2 -6l-58 1c-12 0.666992 -30.667 1 -56 1l-55 -1
c-9.33301 -0.666992 -22.333 -1 -39 -1c-2 0 -3 2 -3 6s1 6 3 6c20.667 0 35.834 1.83301 45.501 5.5s16.334 10.167 20.001 19.5s5.5 24 5.5 44v337c0 84 11.667 150.333 35 199c-34.667 38.667 -74.334 58 -119.001 58c-45.333 0 -81.5 -20.333 -108.5 -61
s-40.5 -99 -40.5 -175v-358c0 -20.667 2.33301 -35.667 7 -45s13.834 -15.666 27.501 -18.999s35.834 -5 66.501 -5c1.33301 0 2 -2 2 -6s-0.666992 -6 -2 -6l-64 1c-13.333 0.666992 -34 1 -62 1l-55 -1c-9.33301 -0.666992 -22.333 -1 -39 -1c-2 0 -3 2 -3 6s1 6 3 6
c20.667 0 35.834 1.83301 45.501 5.5s16.334 10.167 20.001 19.5s5.5 24 5.5 44v337c0 87.333 21 154.666 63 201.999s98 71 168 71c42.667 0 80.667 -9 114 -27c34.667 41.333 83 62 145 62c34 0 60.833 -5 80.5 -15s29.5 -22 29.5 -36
c0 -8.66699 -2.83301 -15.334 -8.5 -20.001s-12.834 -7 -21.501 -7s-15.834 2.16699 -21.501 6.5s-12.167 11.166 -19.5 20.499c-10 12 -19.667 21.167 -29 27.5s-22.333 9.5 -39 9.5c-40.667 0 -72.5 -22.167 -95.5 -66.5zM704.997 396
c1.33301 0 2.66797 -0.834961 4.00098 -2.50195s2 -3.5 2 -5.5c0 -4 -0.333008 -17.167 -1 -39.5s-1 -48.166 -1 -77.499v-319c0 -44.667 -4 -81.167 -12 -109.5s-21.333 -51.5 -40 -69.5s-45 -34 -79 -48c-1.33301 -0.666992 -2.83301 0.833008 -4.5 4.5
s-1.83398 5.83398 -0.500977 6.50098c32.667 14 55.667 35.333 69 64s20 71.667 20 129v341c0 24.667 -2.33301 42.334 -7 53.001s-13 16 -25 16c-10.667 0 -26.667 -5 -48 -15h-1c-3.33301 0 -5.5 1.66699 -6.5 5s-0.166992 5.66602 2.5 6.99902l125 59
c0.666992 0.666992 1.66699 1 3 1z" />
    <glyph glyph-name="longs_longs_k.liga" unicode="&#x17f;&#x17f;k" horiz-adv-x="1083" 
d="M1074 6c0 -4 -0.675781 -6.00098 -2.00879 -6.00098c-15.333 0 -27.666 0.333008 -36.999 1l-52 1l-71 -1c-10 -0.666992 -23.667 -1 -41 -1c-2 0 -3 2 -3 6s1 6 3 6c18 0 31.167 1.5 39.5 4.5s12.5 7.83301 12.5 14.5c0 6 -3 13.333 -9 22l-125 172l-58 -44v-100
c0 -20 1.66699 -34.833 5 -44.5s9.5 -16.167 18.5 -19.5s23.167 -5 42.5 -5c1.33301 0 2 -2 2 -6s-0.666992 -6 -2 -6c-15.333 0 -27.333 0.333008 -36 1l-53 1l-52 -1c-9.33301 -0.666992 -21.666 -1 -36.999 -1c-1.33301 0 -2 2 -2 6s0.666992 6 2 6
c19.333 0 33.5 1.66699 42.5 5s15.167 9.83301 18.5 19.5s5 24.5 5 44.5v552c-28.667 52 -67.334 78 -116.001 78c-44.667 0 -77.5 -21.167 -98.5 -63.5s-31.5 -111.833 -31.5 -208.5v-358c0 -20.667 2.33301 -35.667 7 -45s13.834 -15.666 27.501 -18.999
s35.834 -5 66.501 -5c1.33301 0 2 -2 2 -6s-0.666992 -6 -2 -6l-64 1c-13.333 0.666992 -34 1 -62 1l-55 -1c-9.33301 -0.666992 -22.333 -1 -39 -1c-2 0 -3 2 -3 6s1 6 3 6c20.667 0 35.834 1.83301 45.501 5.5s16.334 10.167 20.001 19.5s5.5 24 5.5 44v337
c0 80 10.333 145.333 31 196c-16.667 19.333 -35.334 34.333 -56.001 45s-42.334 16 -65.001 16c-45.333 0 -81.5 -20.333 -108.5 -61s-40.5 -99 -40.5 -175v-358c0 -20.667 2.33301 -35.667 7 -45s13.834 -15.666 27.501 -18.999s35.834 -5 66.501 -5c1.33301 0 2 -2 2 -6
s-0.666992 -6 -2 -6l-64 1c-13.333 0.666992 -34 1 -62 1l-55 -1c-9.33301 -0.666992 -22.333 -1 -39 -1c-2 0 -3 2 -3 6s1 6 3 6c20.667 0 35.834 1.83301 45.501 5.5s16.334 10.167 20.001 19.5s5.5 24 5.5 44v337c0 87.333 21 154.666 63 201.999s98 71 168 71
c44.667 0 83.334 -9.33301 116.001 -28c34 42 81.333 63 142 63c51.333 0 91 -12 119 -36c5.33301 12 8 24.333 8 37c0 2 1.83301 3 5.5 3s5.5 -1 5.5 -3v-532l145 113c22.667 16.667 34 31 34 43c0 15.333 -21 23 -63 23c-1.33301 0 -2 2 -2 6s0.666992 6 2 6
c18 0 32 -0.333008 42 -1l71 -1l65 1c8.66699 0.666992 20.334 1 35.001 1c2 0 3 -2 3 -6s-1 -6 -3 -6c-50 0 -105.333 -23 -166 -69l-64 -49l125 -175c32 -46 71 -69 117 -69c1.33301 0 2 -2 2 -6z" />
    <glyph glyph-name="longs_longs_l.liga" unicode="&#x17f;&#x17f;l" horiz-adv-x="830" 
d="M804 6c0 -4 -0.674805 -6.00098 -2.00781 -6.00098c-15.333 0 -27.666 0.333008 -36.999 1l-53 1l-54 -1c-8.66699 -0.666992 -20.667 -1 -36 -1c-2 0 -3 2 -3 6s1 6 3 6c18.667 0 32.5 1.83301 41.5 5.5s15.167 10.167 18.5 19.5s5 24 5 44v548
c-28.667 54.667 -68 82 -118 82c-44.667 0 -77.5 -21.167 -98.5 -63.5s-31.5 -111.833 -31.5 -208.5v-358c0 -20.667 2.33301 -35.667 7 -45s13.834 -15.666 27.501 -18.999s35.834 -5 66.501 -5c1.33301 0 2 -2 2 -6s-0.666992 -6 -2 -6l-64 1
c-13.333 0.666992 -34 1 -62 1l-55 -1c-9.33301 -0.666992 -22.333 -1 -39 -1c-2 0 -3 2 -3 6s1 6 3 6c20.667 0 35.834 1.83301 45.501 5.5s16.334 10.167 20.001 19.5s5.5 24 5.5 44v337c0 80 10.333 145.333 31 196c-16.667 19.333 -35.334 34.333 -56.001 45
s-42.334 16 -65.001 16c-45.333 0 -81.5 -20.333 -108.5 -61s-40.5 -99 -40.5 -175v-358c0 -20.667 2.33301 -35.667 7 -45s13.834 -15.666 27.501 -18.999s35.834 -5 66.501 -5c1.33301 0 2 -2 2 -6s-0.666992 -6 -2 -6l-64 1c-13.333 0.666992 -34 1 -62 1l-55 -1
c-9.33301 -0.666992 -22.333 -1 -39 -1c-2 0 -3 2 -3 6s1 6 3 6c20.667 0 35.834 1.83301 45.501 5.5s16.334 10.167 20.001 19.5s5.5 24 5.5 44v337c0 87.333 21 154.666 63 201.999s98 71 168 71c44.667 0 83.334 -9.33301 116.001 -28c34 42 81.333 63 142 63
c52 0 92.333 -12.667 121 -38c6.66699 12 10 25 10 39c0 2 2 3 6 3s6 -1 6 -3v-646c0 -20 1.5 -34.833 4.5 -44.5s9 -16.167 18 -19.5s23.5 -5 43.5 -5c1.33301 0 2 -2 2 -6z" />
    <glyph glyph-name="longs_longs_thorn.liga" unicode="&#x17f;&#x17f;&#xfe;" horiz-adv-x="1083" 
d="M970 377c23.333 -14.667 41.8271 -35.834 55.4941 -63.501s20.5 -60.5 20.5 -98.5c0 -49.333 -11.333 -91.166 -34 -125.499s-50.667 -60 -84 -77s-65.333 -25.5 -96 -25.5c-21.333 0 -40.666 2.33301 -57.999 7s-34.666 13 -51.999 25v-213c0 -20 2.5 -34.667 7.5 -44
s14.333 -15.833 28 -19.5s35.5 -5.5 65.5 -5.5c1.33301 0 2 -2 2 -6s-0.666992 -6 -2 -6c-23.333 0 -41.333 0.333008 -54 1l-71 1l-53 -1c-9.33301 -0.666992 -22 -1 -38 -1c-1.33301 0 -2 2 -2 6s0.666992 6 2 6c18.667 0 32.667 1.83301 42 5.5
s15.666 10.167 18.999 19.5s5 24 5 44v846c-26.667 39.333 -61.334 59 -104.001 59c-44.667 0 -77.5 -21.167 -98.5 -63.5s-31.5 -111.833 -31.5 -208.5v-358c0 -20.667 2.33301 -35.667 7 -45s13.834 -15.666 27.501 -18.999s35.834 -5 66.501 -5c1.33301 0 2 -2 2 -6
s-0.666992 -6 -2 -6l-64 1c-13.333 0.666992 -34 1 -62 1l-55 -1c-9.33301 -0.666992 -22.333 -1 -39 -1c-2 0 -3 2 -3 6s1 6 3 6c20.667 0 35.834 1.83301 45.501 5.5s16.334 10.167 20.001 19.5s5.5 24 5.5 44v337c0 80 10.333 145.333 31 196
c-16.667 19.333 -35.334 34.333 -56.001 45s-42.334 16 -65.001 16c-45.333 0 -81.5 -20.333 -108.5 -61s-40.5 -99 -40.5 -175v-358c0 -20.667 2.33301 -35.667 7 -45s13.834 -15.666 27.501 -18.999s35.834 -5 66.501 -5c1.33301 0 2 -2 2 -6s-0.666992 -6 -2 -6l-64 1
c-13.333 0.666992 -34 1 -62 1l-55 -1c-9.33301 -0.666992 -22.333 -1 -39 -1c-2 0 -3 2 -3 6s1 6 3 6c20.667 0 35.834 1.83301 45.501 5.5s16.334 10.167 20.001 19.5s5.5 24 5.5 44v337c0 87.333 21 154.666 63 201.999s98 71 168 71
c44.667 0 83.334 -9.33301 116.001 -28c34 42 81.333 63 142 63c45.333 0 82.333 -10 111 -30c4 9.33301 6 19.666 6 30.999c0 2 2 3 6 3s6 -1 6 -3v-419c30 31.333 59 54.333 87 69s56.333 22 85 22c27.333 0 52.666 -7.33301 75.999 -22zM928.994 28.5
c19.333 14.333 34.5029 34.832 45.5029 61.499s16.5 58 16.5 94c0 57.333 -12.5 102 -37.5 134s-56.833 48 -95.5 48c-25.333 0 -48.833 -6.5 -70.5 -19.5s-43.5 -31.167 -65.5 -54.5v-219c19.333 -21.333 40.166 -37.666 62.499 -48.999s49.166 -17 80.499 -17
c23.333 0 44.666 7.16699 63.999 21.5z" />
    <glyph glyph-name=".notdef" horiz-adv-x="501" 
d="M94 -275v1000h317v-1000h-317zM168 626h65v-38h-66v-32h166v32h-66v38h66v32h-165v-32zM167 426h166v34h-66v69h-100v-103zM200 460v35h33v-35h-33zM167 365h66v-36h-66v-34h100v70h66v33h-166v-33zM301 273h-134v-34h166v99h-32v-65zM233 160h34v24h34v-48h-101v80h-33
v-113h166v113h-100v-56zM167 -70h166v113h-166v-113zM200 -37v48h101v-48h-101zM167 -126h70l-70 -47v-33h166v33h-101l69 47h32v34h-166v-34z" />
    <glyph glyph-name="space" unicode=" " horiz-adv-x="234" 
 />
    <glyph glyph-name="exclam" unicode="!" horiz-adv-x="243" 
d="M94.5 626.5c8.33301 1.66699 17.501 2.5 27.501 2.5s19.167 -0.833008 27.5 -2.5s12.166 -3.5 11.499 -5.5c-10 -58 -17.333 -120 -22 -186s-9.33398 -148 -14.001 -246c0 -1.33301 -1.66699 -2 -5 -2s-5 0.666992 -5 2c-3.33301 96 -7.16602 177.5 -11.499 244.5
s-11.5 129.5 -21.5 187.5c0 2 4.16699 3.83301 12.5 5.5zM89.001 -0.5c-7.33301 7 -11 16.5 -11 28.5c0 11.333 3.66699 20.333 11 27s17 10 29 10c12.667 0 22.334 -3.33301 29.001 -10s10 -15.667 10 -27c0 -12 -3.33301 -21.5 -10 -28.5s-16.334 -10.5 -29.001 -10.5
c-12 0 -21.667 3.5 -29 10.5z" />
    <glyph glyph-name="quotedbl" unicode="&#x22;" horiz-adv-x="278" 
d="M47 609c0 6 5.5 12 16.5 18s22.5 10 34.5 12s17.667 1.33301 17 -2l-50 -271c-0.666992 -1.33301 -2.5 -2.33301 -5.5 -3s-4.5 0 -4.5 2zM187 609c0 6 5.5 12 16.5 18s22.5 10 34.5 12s17.667 1.33301 17 -2l-50 -271c-0.666992 -1.33301 -2.5 -2.33301 -5.5 -3
s-4.5 0 -4.5 2z" />
    <glyph glyph-name="numbersign" unicode="#" horiz-adv-x="526" 
d="M466.5 307.5c1 -3.66699 1.49609 -7.83203 1.49609 -12.499s-0.5 -9 -1.5 -13s-2.16699 -6 -3.5 -6h-75l-29 -161h69c1.33301 0 2.5 -2 3.5 -6s1.5 -8.33301 1.5 -13s-0.5 -9 -1.5 -13s-2.16699 -6 -3.5 -6h-76l-27 -155c0 -2 -3.33301 -3 -10 -3
c-5.33301 0 -10.666 0.666992 -15.999 2s-7.66602 2.66602 -6.99902 3.99902l27 152h-154l-27 -155c0 -2 -3.33301 -3 -10 -3c-5.33301 0 -10.666 0.666992 -15.999 2s-7.66602 2.66602 -6.99902 3.99902l27 152h-69c-1.33301 0 -2.5 2.16699 -3.5 6.5
s-1.5 8.83301 -1.5 13.5s0.5 8.83398 1.5 12.501s1.83301 5.5 2.5 5.5h77l28 161h-69c-1.33301 0 -2.5 2.16699 -3.5 6.5s-1.5 8.83301 -1.5 13.5c0 4 0.333008 7.83301 1 11.5s1.66699 5.5 3 5.5h77l30 169c0 1.33301 2.33301 2 7 2c5.33301 0 11 -0.833008 17 -2.5
s8.66699 -3.5 8 -5.5l-29 -163h154l30 169c0 1.33301 2.33301 2 7 2c5.33301 0 11 -0.833008 17 -2.5s8.66699 -3.5 8 -5.5l-29 -163h69c1.33301 0 2.5 -1.83301 3.5 -5.5zM325.996 115.002l28 161h-153l-29 -161h154z" />
    <glyph glyph-name="dollar" unicode="$" horiz-adv-x="491" 
d="M387.5 45.5c-28.333 -31 -69.167 -49.499 -122.5 -55.499v-98c0 -4.66699 -3 -7 -9 -7c-6.66699 0 -10 2.33301 -10 7v97c-4 -0.666992 -10.333 -1 -19 -1c-23.333 0 -45.5 2.5 -66.5 7.5s-44.167 13.833 -69.5 26.5c-3.33301 2 -5.5 4.33301 -6.5 7
s-1.83301 6.66699 -2.5 12l-15 130v1c0 2.66699 1.66699 4.16699 5 4.5s5.33301 -0.833984 6 -3.50098c6.66699 -45.333 24 -85 52 -119s66.667 -51.333 116 -52v292l-17 10c-32 18.667 -57.167 35 -75.5 49s-34 31.5 -47 52.5s-19.5 46.167 -19.5 75.5
c0 45.333 15.333 81.333 46 108s68.334 42 113.001 46v84c0 2.66699 1 4.66699 3 6s4.33301 2 7 2c2 0 4 -0.666992 6 -2s3 -3.33301 3 -6v-83h2c36.667 0 74.667 -8 114 -24c10 -4 15 -9.66699 15 -17l9 -106c0 -2.66699 -1.83301 -4 -5.5 -4s-5.83398 1.33301 -6.50098 4
c-2.66699 33.333 -14.667 63.333 -36 90s-52 41.334 -92 44.001v-276l15 -9c34.667 -20.667 61.5 -37.834 80.5 -51.501s35.333 -31.167 49 -52.5s20.5 -47 20.5 -77c0 -43.333 -14.167 -80.5 -42.5 -111.5zM165.999 422.501c18.667 -21.667 45.332 -43.166 79.999 -64.499
v265c-37.333 -2 -64.666 -14.5 -81.999 -37.5s-26 -50.167 -26 -81.5c0 -32.667 9.33301 -59.834 28 -81.501zM343.997 36.002c20.667 19.333 31 48.001 31 86.001c0 36.667 -9.66699 67.167 -29 91.5s-46.333 47.166 -81 68.499v-279c32 2.66699 58.333 13.667 79 33z" />
    <glyph glyph-name="percent" unicode="%" horiz-adv-x="574" 
d="M63.5 340.5c-23 25 -34.5 55.833 -34.5 92.5c0 35.333 11.5 65.333 34.5 90s51.833 37 86.5 37s63 -12.5 85 -37.5s33 -55.833 33 -92.5c0 -36 -11.167 -66.167 -33.5 -90.5s-50.5 -36.5 -84.5 -36.5c-34.667 0 -63.5 12.5 -86.5 37.5zM103 -6
c-2.66699 0 -6.83105 1.66797 -12.498 5.00098s-8.16699 5.66602 -7.5 6.99902l371 544c0 0.666992 0.666992 1 2 1c3.33301 0 7.66602 -1.83301 12.999 -5.5s7.66602 -6.16699 6.99902 -7.5l-371 -543zM203.503 340.501c7.66699 18.333 11.5 45.833 11.5 82.5
c0 41.333 -6 72.833 -18 94.5s-29.667 32.5 -53 32.5c-24 0 -40.333 -10 -49 -30s-13 -48 -13 -84c0 -82 25 -123 75 -123c23.333 0 38.833 9.16699 46.5 27.5zM340.503 32.501c-23 25 -34.5 55.833 -34.5 92.5c0 35.333 11.5 65.5 34.5 90.5s51.833 37.5 86.5 37.5
s63 -12.667 85 -38s33 -56 33 -92c0 -36.667 -11.167 -67.167 -33.5 -91.5s-50.5 -36.5 -84.5 -36.5c-34.667 0 -63.5 12.5 -86.5 37.5zM480.503 33.501c7.66699 18.333 11.5 45.833 11.5 82.5c0 84 -23.667 126 -71 126c-23.333 0 -39.5 -10 -48.5 -30
s-13.5 -47.667 -13.5 -83c0 -82 25 -123 75 -123c23.333 0 38.833 9.16699 46.5 27.5z" />
    <glyph glyph-name="ampersand" unicode="&#x26;" horiz-adv-x="692" 
d="M693.5 5.5c-0.333008 -3.66699 -1.50195 -5.49805 -3.50195 -5.49805h-94c-33.333 0 -82.666 26 -147.999 78c-54 -60 -122 -90 -204 -90c-40 0 -73.5 7 -100.5 21s-47 32.5 -60 55.5s-19.5 47.833 -19.5 74.5c0 39.333 12 73.666 36 102.999s58.333 60 103 92
c-12 18.667 -21.667 35.667 -29 51c-18.667 42.667 -28 79 -28 109c0 26.667 6.83301 51.667 20.5 75s32.5 42 56.5 56s51.333 21 82 21c30 0 56.333 -7.33301 79 -22s34 -40.334 34 -77.001c0 -26 -6.5 -49.5 -19.5 -70.5s-29 -39.167 -48 -54.5s-45.167 -34.333 -78.5 -57
l-21 -14c49.333 -77.333 121.333 -152 216 -224c28.667 46.667 43 96 43 148c0 20.667 -4.5 36.167 -13.5 46.5s-27.5 15.5 -55.5 15.5c-2 0 -3.16699 2 -3.5 6s0.833984 6 3.50098 6l202 1c2.66699 0 4 -2 4 -6s-1.33301 -6 -4 -6c-23.333 0 -40.833 -2 -52.5 -6
s-19.834 -9.66699 -24.501 -17s-9 -18 -13 -32c-18 -64 -42.333 -119 -73 -165c39.333 -28.667 77.333 -52.167 114 -70.5s68.667 -30.166 96 -35.499c2.66699 -0.666992 3.83398 -2.83398 3.50098 -6.50098zM243.998 363.002c40.667 28.667 71.833 55.6689 93.5 81.002
s32.5 54.666 32.5 87.999c0 30 -8 53.333 -24 70s-38 25 -66 25c-27.333 0 -48.5 -8.33301 -63.5 -25s-22.5 -42.334 -22.5 -77.001c0 -50 16.667 -104 50 -162zM365.997 32.5039c26.667 13 50.332 31.1699 70.999 54.5029l-11 9c-41.333 32.667 -80.833 68.667 -118.5 108
s-69.834 78.666 -96.501 117.999c-29.333 -22 -52.166 -45.167 -68.499 -69.5s-24.5 -52.5 -24.5 -84.5c0 -28.667 7.16699 -54.834 21.5 -78.501s33.833 -42.334 58.5 -56.001s52.334 -20.5 83.001 -20.5c30 0 58.333 6.5 85 19.5z" />
    <glyph glyph-name="quotesingle" unicode="'" horiz-adv-x="138" 
d="M47 609c0 6 5.5 12 16.5 18s22.5 10 34.5 12s17.667 1.33301 17 -2l-50 -271c-0.666992 -1.33301 -2.5 -2.33301 -5.5 -3s-4.5 0 -4.5 2z" />
    <glyph glyph-name="parenleft" unicode="(" horiz-adv-x="309" 
d="M124 559c36 75.333 86.001 130.667 150.001 166c1.33301 0.666992 2.66602 0.166992 3.99902 -1.5s1.33301 -3.16699 0 -4.5c-51.333 -47.333 -89 -105.333 -113 -174s-36 -149 -36 -241s12 -172.333 36 -241s61.667 -126.667 113 -174
c1.33301 -0.666992 1.33301 -2 0 -4s-2.66602 -2.66699 -3.99902 -2c-64.667 36 -114.834 91.5 -150.501 166.5s-53.5 159.833 -53.5 254.5s18 179.667 54 255z" />
    <glyph glyph-name="parenright" unicode=")" horiz-adv-x="309" 
d="M185 49c-36 -75.333 -86.001 -130.667 -150.001 -166c-1.33301 -0.666992 -2.66602 -0.166992 -3.99902 1.5s-1.33301 3.16699 0 4.5c51.333 47.333 89 105.333 113 174s36 149 36 241s-12 172.333 -36 241s-61.667 126.667 -113 174c-1.33301 0.666992 -1.33301 2 0 4
s2.66602 2.66699 3.99902 2c64.667 -36 114.834 -91.5 150.501 -166.5s53.5 -159.833 53.5 -254.5s-18 -179.667 -54 -255z" />
    <glyph glyph-name="asterisk" unicode="*" horiz-adv-x="448" 
d="M235 657c0 6 5.83105 12 17.498 18s23.334 10 35.001 12s16.834 1.33301 15.501 -2l-67 -156c-0.666992 -2 -2.5 -3 -5.5 -3s-4.5 1 -4.5 3zM83.998 559c-8.66699 3.33301 -13.001 18.001 -13.001 44.001c0 9.33301 0.666992 17.166 2 23.499s3 8.5 5 6.5l129 -113
c2 -0.666992 2.33301 -2.5 1 -5.5s-2.66602 -4.16699 -3.99902 -3.5zM250.997 503.001c-1.33301 0 -2.5 1.5 -3.5 4.5s-0.833008 4.83301 0.5 5.5l126 31c6 1.33301 13.5 -2.5 22.5 -11.5s16.333 -18.667 22 -29s6.5 -15.5 2.5 -15.5zM115.997 382.001
c-7.33301 0 -16.001 1.5 -26.001 4.5s-18.167 6.33301 -24.5 10s-8.16602 6.16699 -5.49902 7.5l146 87l2 1c1.33301 0 2.83301 -1 4.5 -3s2.16699 -3.33301 1.5 -4l-83 -98c-2.66699 -3.33301 -7.66699 -5 -15 -5zM232.996 481.001
c-0.666992 1.33301 0.332031 3.16699 2.99902 5.5s4.33398 2.83301 5.00098 1.5l69 -110c3.33301 -5.33301 2 -13.666 -4 -24.999s-13.167 -21.333 -21.5 -30s-12.833 -11.334 -13.5 -8.00098z" />
    <glyph glyph-name="plus" unicode="+" horiz-adv-x="398" 
d="M367.5 202.5c1 -3.66699 1.5 -7.83301 1.5 -12.5s-0.5 -9 -1.5 -13s-2.16699 -6 -3.5 -6h-146v-146c0 -1.33301 -2.33301 -2.5 -7 -3.5s-9.66699 -1.5 -15 -1.5c-10.667 0 -16 1 -16 3v148h-146c-1.33301 0 -2.5 2.16699 -3.5 6.5s-1.5 8.83301 -1.5 13.5
c0 4 0.333008 7.83301 1 11.5s1.66699 5.5 3 5.5h147v146c0 1.33301 2 2.5 6 3.5s8.33301 1.5 13 1.5s9 -0.5 13 -1.5s6 -2.16699 6 -3.5v-146h146c1.33301 0 2.5 -1.83301 3.5 -5.5z" />
    <glyph glyph-name="comma" unicode="," horiz-adv-x="222" 
d="M147.5 40.5c11 -14.333 16.501 -34.832 16.501 -61.499c0 -26 -5.83301 -50 -17.5 -72s-28.834 -44 -51.501 -66c-0.666992 -0.666992 -1.66699 -1 -3 -1c-2 0 -3.66699 1 -5 3s-1.33301 3.66699 0 5c32.667 33.333 49 72.666 49 117.999c0 17.333 -3.33301 31 -10 41
c-4.66699 -10 -14.334 -15 -29.001 -15c-11.333 0 -20.166 3.16699 -26.499 9.5s-9.5 14.833 -9.5 25.5c0 23.333 13.667 35 41 35c19.333 0 34.5 -7.16699 45.5 -21.5z" />
    <glyph glyph-name="hyphen" unicode="-" horiz-adv-x="323" 
d="M28.5 174.5c-1 5 -1.5 10.166 -1.5 15.499c0 11.333 1 17 3 17l261 47c1.33301 0.666992 2.5 -1.16602 3.5 -5.49902s1.5 -8.83301 1.5 -13.5s-0.5 -9 -1.5 -13s-2.16699 -6.33301 -3.5 -7l-259 -47c-1.33301 -0.666992 -2.5 1.5 -3.5 6.5z" />
    <glyph glyph-name="period" unicode="." horiz-adv-x="195" 
d="M69 -0.5c-7.33301 7 -11 16.5 -11 28.5c0 11.333 3.66699 20.333 11 27s17 10 29 10c12.667 0 22.334 -3.33301 29.001 -10s10 -15.667 10 -27c0 -12 -3.33301 -21.5 -10 -28.5s-16.334 -10.5 -29.001 -10.5c-12 0 -21.667 3.5 -29 10.5z" />
    <glyph glyph-name="slash" unicode="/" horiz-adv-x="339" 
d="M43 -161.5c-12 3.66699 -17.668 6.83301 -17.001 9.5l252 882c1.33301 3.33301 7.83301 3 19.5 -1s16.834 -7.66699 15.501 -11l-251 -881c-0.666992 -2.66699 -7 -2.16699 -19 1.5z" />
    <glyph glyph-name="zero" unicode="0" horiz-adv-x="501" 
d="M147 28.5c-30.667 27.667 -54.666 66.167 -71.999 115.5s-26 105.666 -26 168.999c0 62 8.66699 117.667 26 167s41.5 87.833 72.5 115.5s66.167 41.5 105.5 41.5c38.667 0 73 -14 103 -42s53.333 -66.667 70 -116s25 -105.666 25 -168.999
c0 -62.667 -8.5 -118.5 -25.5 -167.5s-40.667 -87.167 -71 -114.5s-64.833 -41 -103.5 -41s-73.334 13.833 -104.001 41.5zM359.501 79.5c21.667 53.667 32.501 126.503 32.501 218.503c0 71.333 -6.83301 131.666 -20.5 180.999s-31.834 86.166 -54.501 110.499
s-47.667 36.5 -75 36.5c-42 0 -74.833 -28.333 -98.5 -85s-35.5 -130.334 -35.5 -221.001c0 -62 6.33301 -117.333 19 -166s30.667 -86.667 54 -114s50.666 -41 81.999 -41c42.667 0 74.834 26.833 96.501 80.5z" />
    <glyph glyph-name="one" unicode="1" horiz-adv-x="391" 
d="M76 6c0 4 0.667969 5.99902 2.00098 5.99902c32 0 55.833 1.83301 71.5 5.5s26.5 10.167 32.5 19.5s9 24 9 44v427c0 32 -8 48 -24 48c-8.66699 0 -20.5 -4.16699 -35.5 -12.5s-34.5 -21.5 -58.5 -39.5l-2 -1c-2.66699 0 -4.66699 1.66699 -6 5
s-0.666016 5.66602 2.00098 6.99902l158 117c3.33301 2 5.66602 3 6.99902 3s2.5 -0.666992 3.5 -2s1.5 -2.66602 1.5 -3.99902v-548c0 -20.667 2.66699 -35.667 8 -45s15.666 -15.666 30.999 -18.999s40 -5 74 -5c1.33301 0 2 -2 2 -6s-0.666992 -6 -2 -6
c-24 -0 -43 0.333008 -57 1l-79 1l-78 -1c-14 -0.666992 -33.333 -1 -58 -1c-1.33301 0 -2 2 -2 6z" />
    <glyph glyph-name="two" unicode="2" horiz-adv-x="449" 
d="M32.5 3.5c-1.66699 2.33301 -1.50098 4.16797 0.499023 5.50098l60 73c47.333 57.333 85.833 106 115.5 146s54.834 81.5 75.501 124.5s31 83.5 31 121.5c0 37.333 -10.5 67.666 -31.5 90.999s-50.833 35 -89.5 35c-34.667 0 -64 -10 -88 -30s-42.333 -48.667 -55 -86
c0 -0.666992 -1.33301 -1 -4 -1c-5.33301 0 -7.66602 1.33301 -6.99902 4c10.667 48 31.334 84.833 62.001 110.5s68.667 38.5 114 38.5c47.333 0 85 -13.667 113 -41s42 -62.333 42 -105c0 -39.333 -11.5 -81 -34.5 -125s-49.5 -84.5 -79.5 -121.5
s-66.333 -79.167 -109 -126.5c-27.333 -29.333 -47.333 -52.333 -60 -69c-3.33301 -4.66699 -2 -7 4 -7c91.333 0 155 1.16699 191 3.5s61.667 8 77 17s23.666 24.833 24.999 47.5c0 1.33301 1.83301 2 5.5 2s5.5 -0.666992 5.5 -2l-2 -98
c0 -2.66699 -0.833008 -5.16699 -2.5 -7.5s-3.83398 -3.5 -6.50098 -3.5h-345c-3.33301 0 -5.83301 1.16699 -7.5 3.5z" />
    <glyph glyph-name="three" unicode="3" horiz-adv-x="435" 
d="M347 289.5c24.667 -31 36.998 -69.165 36.998 -114.498c0 -36.667 -8 -69.167 -24 -97.5s-38 -50.333 -66 -66s-60 -23.5 -96 -23.5c-61.333 0 -115 25 -161 75l-1 2c0 2.66699 1.5 4.83398 4.5 6.50098s5.16699 1.5 6.5 -0.5c17.333 -19.333 38.833 -34 64.5 -44
s51.5 -15 77.5 -15c45.333 0 79.333 14.5 102 43.5s34 66.5 34 112.5c0 48.667 -14.333 87.167 -43 115.5s-77.334 42.5 -146.001 42.5c-1.33301 0 -2.33301 0.833008 -3 2.5s-1 3.83398 -1 6.50098c0 2 0.5 3.83301 1.5 5.5s1.83301 2.5 2.5 2.5
c60.667 0 103.834 11.667 129.501 35s38.5 55.666 38.5 96.999c0 39.333 -10.333 70 -31 92s-49.667 33 -87 33c-29.333 0 -56.666 -6.83301 -81.999 -20.5s-44 -33.834 -56 -60.501c0 -0.666992 -0.666992 -1 -2 -1c-2 0 -4.16699 0.666992 -6.5 2
s-3.16602 2.66602 -2.49902 3.99902c15.333 36 37.833 63.667 67.5 83s64.167 29 103.5 29c47.333 0 84 -13.333 110 -40s39 -59.334 39 -98.001c0 -34 -10.167 -65.667 -30.5 -95s-47.833 -50.333 -82.5 -63c44 -2.66699 78.333 -19.5 103 -50.5z" />
    <glyph glyph-name="four" unicode="4" horiz-adv-x="468" 
d="M422 198c0 -14 -1.33203 -21.001 -3.99902 -21.001l-28 1c-26.667 1.33301 -47 2 -61 2v-99c0 -20.667 1.83301 -35.667 5.5 -45s10.667 -15.666 21 -18.999s27.166 -5 50.499 -5c1.33301 0 2 -2 2 -6s-0.666992 -6 -2 -6c-17.333 -0 -31 0.333008 -41 1l-61 1l-73 -1
c-12.667 -0.666992 -30 -1 -52 -1c-2 0 -3 2 -3 6s1 6 3 6c32.667 0 55.5 1.33301 68.5 4s21.667 8.5 26 17.5s6.5 24.833 6.5 47.5v101c-92 1.33301 -178 2 -258 2c-3.33301 0 -5.83301 1.16699 -7.5 3.5s-1.5 4.83301 0.5 7.5l298 435c1.33301 1.33301 3.33301 2 6 2
c6.66699 0 10 -2 10 -6v-410l89 3c2.66699 0 4 -7 4 -21zM280.001 214.999v329l-217 -324c-2.66699 -4.66699 -1 -7 5 -7c60 0 130.667 0.666992 212 2z" />
    <glyph glyph-name="five" unicode="5" horiz-adv-x="444" 
d="M345 326c33.333 -32 50.001 -77.999 50.001 -137.999c0 -63.333 -18.167 -112.5 -54.5 -147.5s-82.5 -52.5 -138.5 -52.5c-31.333 0 -59.333 6.16699 -84 18.5s-47.667 31.166 -69 56.499l-1 2c0 2.66699 1.33301 4.83398 4 6.50098s4.66699 1.5 6 -0.5
c16.667 -20 36.667 -34.833 60 -44.5s48.333 -14.5 75 -14.5c48 0 84 15.167 108 45.5s36 70.166 36 119.499c0 52 -13.5 93.167 -40.5 123.5s-68.5 45.5 -124.5 45.5c-39.333 0 -70 -4.33301 -92 -13c-3.33301 0 -6 1.16699 -8 3.5s-2.66699 5.16602 -2 8.49902l32 268
c0.666992 4.66699 1.66699 7.83398 3 9.50098s4.66602 2.5 9.99902 2.5c90 0 149.667 0.5 179 1.5s48.5 3.16699 57.5 6.5s16.167 10.333 21.5 21c0 1.33301 1.33301 2 4 2c2 0 3.83301 -0.5 5.5 -1.5s2.16699 -2.16699 1.5 -3.5l-12 -55c-2 -7.33301 -4.83301 -12 -8.5 -14
s-10.167 -3 -19.5 -3l-205 5c-8.66699 0 -13.667 -4.66699 -15 -14l-25 -211c40 10 76.333 15 109 15c58 0 103.667 -16 137 -48z" />
    <glyph glyph-name="six" unicode="6" horiz-adv-x="489" 
d="M371.5 316.5c22.333 -15.667 39.3311 -36.1689 50.998 -61.502s17.5 -52.666 17.5 -81.999c0 -34.667 -8.16699 -66.167 -24.5 -94.5s-39.166 -50.666 -68.499 -66.999s-62.333 -24.5 -99 -24.5c-62 0 -108.667 21.833 -140 65.5s-47 101.5 -47 173.5
c0 66 12.667 129.833 38 191.5s62 112.667 110 153s104 62.166 168 65.499c2 0 3.5 -1.5 4.5 -4.5s0.166992 -4.83301 -2.5 -5.5c-56 -10 -103.833 -34.5 -143.5 -73.5s-69.5 -86 -89.5 -141s-30 -111.167 -30 -168.5c0 -65.333 13.167 -121.333 39.5 -168
s66.5 -70 120.5 -70c36.667 0 64 12.333 82 37s27 59 27 103c0 49.333 -10.667 89.333 -32 120s-49.666 46 -84.999 46c-34.667 0 -66.667 -15.667 -96 -47l-2 -1c-2.66699 0 -5.16699 1 -7.5 3s-2.83301 3.66699 -1.5 5c16 22.667 35.5 39.834 58.5 51.501
s47.167 17.5 72.5 17.5c30.667 0 57.167 -7.83301 79.5 -23.5z" />
    <glyph glyph-name="seven" unicode="7" horiz-adv-x="429" 
d="M156.5 4c-2.33301 -2.66699 -6.16602 -3.99902 -11.499 -3.99902h-33c-2 0 -3.83301 0.833008 -5.5 2.5s-2.16699 3.83398 -1.5 6.50098l252 568c2.66699 4.66699 1 7 -5 7c-100 0 -169.333 -1.33301 -208 -4s-64.5 -8.33398 -77.5 -17.001
s-22.833 -24.334 -29.5 -47.001c0 -2 -1.66699 -3 -5 -3c-1.33301 0 -2.83301 0.5 -4.5 1.5s-2.16699 2.16699 -1.5 3.5l32 133c0.666992 2 3 2.83301 7 2.5s5.66699 -1.5 5 -3.5c-0.666992 -2.66699 -1 -6 -1 -10c0 -6 3.16699 -10 9.5 -12s19.166 -3 38.499 -3h265
c2.66699 0 5.16699 -1.66699 7.5 -5s2.83301 -6 1.5 -8l-225 -590c-4 -9.33301 -7.16699 -15.333 -9.5 -18z" />
    <glyph glyph-name="eight" unicode="8" horiz-adv-x="489" 
d="M382 300.5c19.333 -16.333 35.3359 -36.002 48.0029 -59.002s19 -50.167 19 -81.5c0 -35.333 -9 -66.166 -27 -92.499s-42.5 -46.333 -73.5 -60s-65.167 -20.5 -102.5 -20.5c-40 0 -75 7.33301 -105 22s-52.833 34.834 -68.5 60.501s-23.5 54.5 -23.5 86.5
c0 41.333 14.167 80.833 42.5 118.5s62.166 66.5 101.499 86.5c-28 20 -49.5 40.5 -64.5 61.5s-22.5 46.5 -22.5 76.5c0 28 7.66699 52.333 23 73s35.166 36.5 59.499 47.5s49.5 16.5 75.5 16.5c27.333 0 52 -5.66699 74 -17s39 -26.666 51 -45.999s18 -40.333 18 -63
c0 -30.667 -8.83301 -59.334 -26.5 -86.001s-41.834 -50.667 -72.501 -72c30 -18 54.667 -35.167 74 -51.5zM168.003 459.998c12.667 -19.333 27.832 -35.333 45.499 -48s43.834 -29.667 78.501 -51l5 -3c40 39.333 60 86 60 140c0 38.667 -11.333 68.667 -34 90
s-50 32 -82 32c-26.667 0 -48.667 -8.66699 -66 -26s-26 -39 -26 -65c0 -26.667 6.33301 -49.667 19 -69zM368.501 38.498c24.333 23 36.5 55.834 36.5 98.501c0 30.667 -7.33301 57.167 -22 79.5s-32.167 41 -52.5 56s-48.5 33.167 -84.5 54.5
c-15.333 9.33301 -29.333 18.333 -42 27c-32 -19.333 -56.5 -44.5 -73.5 -75.5s-25.5 -64.167 -25.5 -99.5c0 -32 7 -61.333 21 -88s33.5 -47.834 58.5 -63.501s53.833 -23.5 86.5 -23.5c40.667 0 73.167 11.5 97.5 34.5z" />
    <glyph glyph-name="nine" unicode="9" horiz-adv-x="489" 
d="M120.5 312.5c-23.667 15.667 -41.498 36.166 -53.498 61.499s-18 53 -18 83c0 35.333 8.16699 66.5 24.5 93.5s39 48 68 63s61.833 22.5 98.5 22.5c62.667 0 109.667 -21.667 141 -65s47 -101 47 -173c0 -66 -12.667 -129.833 -38 -191.5s-62 -112.5 -110 -152.5
s-104 -62 -168 -66c-2 -0.666992 -3.5 0.833008 -4.5 4.5s-0.166992 5.83398 2.5 6.50098c56 10 103.833 34.333 143.5 73s69.5 85.334 89.5 140.001s30 110.667 30 168c0 66 -13.167 122.333 -39.5 169s-66.5 70 -120.5 70c-36.667 0 -64 -11.5 -82 -34.5
s-27 -55.5 -27 -97.5c0 -52 12.167 -94 36.5 -126s55.5 -48 93.5 -48c14 0 27.167 2.83301 39.5 8.5s26.833 16.167 43.5 31.5c0.666992 0.666992 1.66699 1 3 1c2 0 3.83301 -1 5.5 -3s2.16699 -3.66699 1.5 -5c-14.667 -18.667 -32.334 -32.834 -53.001 -42.501
s-43.667 -14.5 -69 -14.5c-32.667 0 -60.834 7.83301 -84.501 23.5z" />
    <glyph glyph-name="colon" unicode=":" horiz-adv-x="195" 
d="M69 280.5c-7.33301 7 -11 16.5 -11 28.5c0 11.333 3.66699 20.333 11 27s17 10 29 10c12.667 0 22.334 -3.33301 29.001 -10s10 -15.667 10 -27c0 -12 -3.33301 -21.5 -10 -28.5s-16.334 -10.5 -29.001 -10.5c-12 0 -21.667 3.5 -29 10.5zM69 -0.5
c-7.33301 7 -11 16.5 -11 28.5c0 11.333 3.66699 20.333 11 27s17 10 29 10c12.667 0 22.334 -3.33301 29.001 -10s10 -15.667 10 -27c0 -12 -3.33301 -21.5 -10 -28.5s-16.334 -10.5 -29.001 -10.5c-12 0 -21.667 3.5 -29 10.5z" />
    <glyph glyph-name="semicolon" unicode=";" horiz-adv-x="222" 
d="M71 280.5c-7.33301 7 -11 16.5 -11 28.5c0 11.333 3.66699 20.333 11 27s17 10 29 10c12.667 0 22.334 -3.33301 29.001 -10s10 -15.667 10 -27c0 -12 -3.33301 -21.5 -10 -28.5s-16.334 -10.5 -29.001 -10.5c-12 0 -21.667 3.5 -29 10.5zM147.5 40.5
c11 -14.333 16.501 -34.832 16.501 -61.499c0 -26 -5.83301 -50 -17.5 -72s-28.834 -44 -51.501 -66c-0.666992 -0.666992 -1.66699 -1 -3 -1c-2 0 -3.66699 1 -5 3s-1.33301 3.66699 0 5c32.667 33.333 49 72.666 49 117.999c0 17.333 -3.33301 31 -10 41
c-4.66699 -10 -14.334 -15 -29.001 -15c-11.333 0 -20.166 3.16699 -26.499 9.5s-9.5 14.833 -9.5 25.5c0 23.333 13.667 35 41 35c19.333 0 34.5 -7.16699 45.5 -21.5z" />
    <glyph glyph-name="less" unicode="&#x3c;" horiz-adv-x="407" 
d="M377 41c0 -12.667 -2.33301 -17.999 -7 -15.999l-334 148c-3.33301 2 -5 7.66699 -5 17c0 10 1.66699 15.667 5 17l334 147c2 1.33301 3.66699 0.5 5 -2.5s2 -7.16699 2 -12.5c0 -12.667 -2.33301 -20.334 -7 -23.001l-294 -126l294 -126c4.66699 -2 7 -9.66699 7 -23z
" />
    <glyph glyph-name="equal" unicode="=" horiz-adv-x="468" 
d="M30.5 247.5c-1 4.33301 -1.5 8.83398 -1.5 13.501c0 4 0.333008 7.83301 1 11.5s1.66699 5.5 3 5.5h401c1.33301 0 2.5 -1.83301 3.5 -5.5s1.5 -7.83398 1.5 -12.501s-0.5 -9 -1.5 -13s-2.16699 -6 -3.5 -6h-400c-1.33301 0 -2.5 2.16699 -3.5 6.5zM30.5 107.501
c-1 4.33301 -1.5 8.83398 -1.5 13.501c0 4 0.333008 7.83301 1 11.5s1.66699 5.5 3 5.5h401c1.33301 0 2.5 -1.83301 3.5 -5.5s1.5 -7.83398 1.5 -12.501s-0.5 -9 -1.5 -13s-2.16699 -6 -3.5 -6h-400c-1.33301 0 -2.5 2.16699 -3.5 6.5z" />
    <glyph glyph-name="greater" unicode="&#x3e;" horiz-adv-x="407" 
d="M376 189c0 -9.33301 -1.66699 -15.001 -5 -17.001l-334 -147c-2 -0.666992 -3.66699 0.5 -5 3.5s-2 6.83301 -2 11.5c0 5.33301 0.666992 10.333 2 15s3 7.33398 5 8.00098l294 126l-294 126c-2 0.666992 -3.66699 3.33398 -5 8.00098s-2 9.66699 -2 15
s0.666992 9.66602 2 12.999s3 4.33301 5 3l334 -148c3.33301 -1.33301 5 -7 5 -17z" />
    <glyph glyph-name="question" unicode="?" horiz-adv-x="327" 
d="M122 600c-6 -8.66699 -9.99805 -20.3369 -11.998 -35.0039c-2.66699 -12 -6.33398 -21.333 -11.001 -28s-12.334 -10 -23.001 -10c-9.33301 0 -16.666 3.16699 -21.999 9.5s-8 13.5 -8 21.5c0 18 11.333 33.667 34 47s49.667 20 81 20c38 0 69.333 -10.333 94 -31
s37 -50.334 37 -89.001c0 -28 -5.83301 -51.167 -17.5 -69.5s-29.5 -39.5 -53.5 -63.5s-40.667 -45 -50 -63s-14 -38.333 -14 -61c0 -15.333 2 -33.666 6 -54.999c0.666992 -2 -0.833008 -3.33301 -4.5 -4s-5.83398 0 -6.50098 2c-7.33301 17.333 -13.5 37.833 -18.5 61.5
s-7.5 42.834 -7.5 57.501c0 20.667 4.33301 37.834 13 51.501s21.667 28.834 39 45.501c18.667 18 32.834 34.667 42.501 50s14.5 35.333 14.5 60c0 28.667 -7.33301 51.834 -22 69.501s-33.334 26.5 -56.001 26.5c-17.333 0 -29 -4.33301 -35 -13zM117.002 -0.50293
c-7.33301 7 -11 16.5 -11 28.5c0 11.333 3.66699 20.333 11 27s17 10 29 10c12.667 0 22.334 -3.33301 29.001 -10s10 -15.667 10 -27c0 -12 -3.33301 -21.5 -10 -28.5s-16.334 -10.5 -29.001 -10.5c-12 0 -21.667 3.5 -29 10.5z" />
    <glyph glyph-name="at" unicode="@" horiz-adv-x="717" 
d="M427 66c-8.66699 10.667 -13.0029 25.666 -13.0029 44.999c0 4.66699 0.666992 13 2 25l12 63c-23.333 -45.333 -49.666 -81.833 -78.999 -109.5s-56.666 -41.5 -81.999 -41.5c-14.667 0 -26.667 4.83301 -36 14.5s-14 24.5 -14 44.5c0 8 0.333008 14 1 18
c5.33301 36 19 71.833 41 107.5s47.5 64.834 76.5 87.501s56.5 34 82.5 34c20 0 35.333 -6.33301 46 -19c7.33301 7.33301 12 16 14 26c1.33301 1.33301 4 2 8 2c8 0 11.333 -1 10 -3l-41 -224c-2.66699 -16 -4 -26.667 -4 -32c0 -12 2.66699 -21 8 -27s15 -9 29 -9
c19.333 0 38.333 6.83301 57 20.5s34 33.167 46 58.5s18 55 18 89c0 42 -10.833 80.833 -32.5 116.5s-51.167 63.834 -88.5 84.501s-78.666 31 -123.999 31c-50 0 -94 -12.333 -132 -37s-67 -57.667 -87 -99s-30 -86 -30 -134c0 -52 11.667 -97.833 35 -137.5
s55.833 -70.5 97.5 -92.5s89.5 -33 143.5 -33c32 0 59.833 3.16699 83.5 9.5s51.167 18.166 82.5 35.499h1c1.33301 0 2.83301 -1.16699 4.5 -3.5s1.83398 -3.83301 0.500977 -4.5c-57.333 -44.667 -125 -67 -203 -67c-53.333 0 -101.5 10.833 -144.5 32.5
s-77 52.667 -102 93s-37.5 87.833 -37.5 142.5c0 60 15 114.333 45 163s69.667 86.667 119 114s101.333 41 156 41c48 0 90.667 -10.167 128 -30.5s66.166 -47.833 86.499 -82.5s30.5 -72.667 30.5 -114c0 -36.667 -8 -71.5 -24 -104.5s-37.5 -59.5 -64.5 -79.5
s-55.5 -30 -85.5 -30c-18 0 -31.333 5.33301 -40 16zM347.997 108.999c21.333 18.667 40.5 42.666 57.5 71.999s28.833 58.666 35.5 87.999c1.33301 6.66699 2 12 2 16c0 13.333 -4 24.333 -12 33s-19.667 13 -35 13c-16.667 0 -34.667 -8.16699 -54 -24.5
s-36.5 -38.166 -51.5 -65.499s-24.833 -56.666 -29.5 -87.999c-2 -12 -3 -22.333 -3 -31c0 -27.333 10 -41 30 -41c18.667 0 38.667 9.33301 60 28z" />
    <glyph glyph-name="A" unicode="A" horiz-adv-x="698" 
d="M698 6c0 -4 -1.33203 -5.99902 -3.99902 -5.99902c-12 0 -31.333 0.666992 -58 2c-25.333 1.33301 -44 2 -56 2c-14 0 -32.333 -0.666992 -55 -2c-21.333 -1.33301 -37.333 -2 -48 -2c-2.66699 0 -4 2 -4 6s1.33301 6 4 6c27.333 0 47 2.5 59 7.5s18 13.5 18 25.5
c0 9.33301 -3.66699 22.333 -11 39l-119 255h-191l-90 -216c-9.33301 -22.667 -14 -41.334 -14 -56.001c0 -19.333 8 -33.333 24 -42s41 -13 75 -13c3.33301 0 5 -2 5 -6s-1.66699 -6 -5 -6c-12 0 -29.333 0.666992 -52 2c-25.333 1.33301 -47.333 2 -66 2
c-16.667 0 -36.334 -0.666992 -59.001 -2c-20 -1.33301 -36.333 -2 -49 -2c-3.33301 0 -5 2 -5 6s1.66699 6 5 6c18.667 0 34.5 3.33301 47.5 10s25.333 18.667 37 36s24.167 42 37.5 74l209 503c1.33301 2 3.5 3 6.5 3s4.83301 -1 5.5 -3l232 -498
c15.333 -34 29 -59.833 41 -77.5s23.833 -30 35.5 -37s25.167 -10.5 40.5 -10.5c2.66699 0 4 -2 4 -6zM241.001 358.001h175l-93 198z" />
    <glyph glyph-name="B" unicode="B" horiz-adv-x="549" 
d="M451 301c32 -31.333 48 -70.0039 48 -116.004c0 -36 -8.33301 -68.333 -25 -97s-39.667 -51.167 -69 -67.5s-61.666 -24.5 -96.999 -24.5c-22.667 0 -46.667 1 -72 3c-9.33301 0.666992 -20.333 1.33398 -33 2.00098s-27 1 -43 1l-66 -1c-12 -0.666992 -28.667 -1 -50 -1
c-1.33301 0 -2 2 -2 6s0.666992 6 2 6c26.667 0 46.167 1.66699 58.5 5s20.833 9.83301 25.5 19.5s7 24.5 7 44.5v463c0 20 -2.16699 34.667 -6.5 44s-12.666 15.833 -24.999 19.5s-31.5 5.5 -57.5 5.5c-2 0 -3 2 -3 6s1 6 3 6l48 -1c26.667 -1.33301 48.667 -2 66 -2
c12 0 23.333 0.333008 34 1s20 1.33398 28 2.00098c20.667 2 39 3 55 3c55.333 0 96.166 -12.5 122.499 -37.5s39.5 -56.833 39.5 -95.5c0 -32.667 -10.333 -61.167 -31 -85.5s-48.334 -43.166 -83.001 -56.499c52 -3.33301 94 -20.666 126 -51.999zM213 610.996
c-8.66699 -2.66699 -15.166 -9 -19.499 -19s-6.5 -26.667 -6.5 -50v-190l47 -1c52.667 0 91 12.5 115 37.5s36 58.167 36 99.5c0 37.333 -10.5 67.833 -31.5 91.5s-54.167 35.5 -99.5 35.5c-18.667 0 -32.334 -1.33301 -41.001 -4zM404.501 50.4961
c24.333 25.667 36.502 62.165 36.502 109.498c0 50.667 -15.5 91.834 -46.5 123.501s-72.833 47.834 -125.5 48.501c-24.667 0.666992 -52 0 -82 -2v-249c0 -18 2.83301 -31.833 8.5 -41.5s16.167 -16.667 31.5 -21s37.666 -6.5 66.999 -6.5
c49.333 0 86.166 12.833 110.499 38.5z" />
    <glyph glyph-name="C" unicode="C" horiz-adv-x="669" 
d="M511.5 626c33 -6.66699 59.498 -15.665 79.498 -26.998c5.33301 -3.33301 8.83301 -6.5 10.5 -9.5s2.83398 -7.83301 3.50098 -14.5l11 -105c0 -2 -1.66699 -3.16699 -5 -3.5s-5.33301 0.5 -6 2.5c-24 97.333 -101 146 -231 146c-52 0 -97.833 -11.167 -137.5 -33.5
s-70.5 -53.833 -92.5 -94.5s-33 -87.667 -33 -141c0 -62.667 13.667 -120.5 41 -173.5s63.666 -95 108.999 -126s94.333 -46.5 147 -46.5c49.333 0 91.833 13 127.5 39s61.834 65.667 78.501 119c0 2 1.33301 3 4 3c2 0 3.83301 -0.333008 5.5 -1s2.5 -1.66699 2.5 -3
l-14 -107c-1.33301 -8 -2.83301 -13.167 -4.5 -15.5s-5.5 -4.83301 -11.5 -7.5c-59.333 -26 -123 -39 -191 -39c-80 0 -146.667 16.167 -200 48.5s-92.666 73.666 -117.999 123.999s-38 103.166 -38 158.499c0 60.667 17 115.167 51 163.5s79 86 135 113
s115.333 40.5 178 40.5c32.667 0 65.5 -3.33301 98.5 -10z" />
    <glyph glyph-name="D" unicode="D" horiz-adv-x="688" 
d="M232 -1c-9.33301 0.666992 -20.833 1.33398 -34.5 2.00098s-28.834 1 -45.501 1l-66 -1c-12 -0.666992 -28.667 -1 -50 -1c-1.33301 0 -2 2 -2 6s0.666992 6 2 6c26 0 45.167 1.66699 57.5 5s20.833 9.83301 25.5 19.5s7 24.5 7 44.5v463c0 20 -2.16699 34.667 -6.5 44
s-12.666 15.833 -24.999 19.5s-31.5 5.5 -57.5 5.5c-1.33301 0 -2 2 -2 6s0.666992 6 2 6l49 -1c28 -1.33301 50 -2 66 -2c23.333 0 47 1 71 3c29.333 1.33301 49.333 2 60 2c70 0 132 -13.333 186 -40s95.833 -63 125.5 -109s44.5 -97.667 44.5 -155
c0 -64.667 -15.5 -121.834 -46.5 -171.501s-72.5 -88 -124.5 -115s-109 -40.5 -171 -40.5c-19.333 0 -41 1 -65 3zM436 43c43.333 22.667 77.168 55.999 101.501 99.999s36.5 96.667 36.5 158c0 58.667 -11.5 111.667 -34.5 159s-56 84.833 -99 112.5
s-92.5 41.5 -148.5 41.5c-29.333 0 -51.833 -1.66699 -67.5 -5s-27.167 -10.166 -34.5 -20.499s-11 -25.833 -11 -46.5v-450c0 -20 3 -36 9 -48s16.667 -20.833 32 -26.5s37.666 -8.5 66.999 -8.5c56 0 105.667 11.333 149 34z" />
    <glyph glyph-name="E" unicode="E" horiz-adv-x="533" 
d="M476 148.5c4 -0.333008 6 -1.50195 6 -3.50195c-6 -42 -9 -85.333 -9 -130c0 -5.33301 -1.16699 -9.16602 -3.5 -11.499s-6.5 -3.5 -12.5 -3.5h-413c-1.33301 0 -2 2 -2 6s0.666992 6 2 6c26 0 45.167 1.66699 57.5 5s20.666 9.83301 24.999 19.5s6.5 24.5 6.5 44.5v463
c0 20 -2.16699 34.667 -6.5 44s-12.666 15.833 -24.999 19.5s-31.5 5.5 -57.5 5.5c-1.33301 0 -2 2 -2 6s0.666992 6 2 6h396c6 0 9 -3 9 -9l2 -121c0 -2 -1.83301 -3 -5.5 -3s-5.5 1 -5.5 3c0 34 -9 61 -27 81s-41.667 30 -71 30h-69c-25.333 0 -44 -1.66699 -56 -5
s-20.167 -9.66602 -24.5 -18.999s-6.5 -24 -6.5 -44v-203h132c30.667 0 52 5.16699 64 15.5s18 28.166 18 53.499c0 1.33301 2 2 6 2s6 -0.666992 6 -2l-1 -79c0 -19.333 0.333008 -33.666 1 -42.999l1 -47c0 -1.33301 -2 -2 -6 -2s-6 0.666992 -6 2
c0 30 -6.33301 51 -19 63s-35 18 -67 18h-129v-231c0 -19.333 2.16699 -33.5 6.5 -42.5s12.333 -15.167 24 -18.5s30.5 -5 56.5 -5h92c26.667 0 49.5 11.667 68.5 35s31.167 54 36.5 92c0 2 2 2.83301 6 2.5z" />
    <glyph glyph-name="F" unicode="F" horiz-adv-x="506" 
d="M451 495c0 -2 -1.83398 -3 -5.50098 -3s-5.5 1 -5.5 3c0 34 -9 61 -27 81s-41.667 30 -71 30h-69c-24.667 0 -43 -1.66699 -55 -5s-20.333 -9.33301 -25 -18s-7 -22 -7 -40v-220h109c34 0 58 5.16699 72 15.5s21 28.166 21 53.499c0 1.33301 2 2 6 2s6 -0.666992 6 -2
l-1 -79c0 -19.333 0.333008 -33.666 1 -42.999l1 -47c0 -1.33301 -2 -2 -6 -2s-6 0.666992 -6 2c0 30 -7.16699 51 -21.5 63s-39.833 18 -76.5 18h-105v-219c0 -21.333 3 -36.833 9 -46.5s17.5 -16.5 34.5 -20.5s44.167 -6 81.5 -6c2 0 3 -2 3 -6s-1 -6 -3 -6
c-27.333 -0 -48.666 0.333008 -63.999 1l-87 1l-66 -1c-12 -0.666992 -28.667 -1 -50 -1c-1.33301 0 -2 2 -2 6s0.666992 6 2 6c26 0 45.167 1.66699 57.5 5s20.666 9.83301 24.999 19.5s6.5 24.5 6.5 44.5v463c0 20 -2.16699 34.667 -6.5 44s-12.666 15.833 -24.999 19.5
s-31.5 5.5 -57.5 5.5c-1.33301 0 -2 2 -2 6s0.666992 6 2 6h396c6 0 9 -3 9 -9z" />
    <glyph glyph-name="G" unicode="G" horiz-adv-x="713" 
d="M214.5 30c-53.667 28 -94.666 65.9961 -122.999 113.996s-42.5 101.667 -42.5 161c0 64.667 16.5 122 49.5 172s78.333 89 136 117s122.834 42 195.501 42c32.667 0 63.5 -3.33301 92.5 -10s53.167 -16 72.5 -28c4.66699 -3.33301 7.5 -6.16602 8.5 -8.49902
s1.66699 -5 2 -8s0.5 -5.16699 0.5 -6.5l12 -105c0 -2 -1.83301 -3.16699 -5.5 -3.5s-5.83398 0.5 -6.50098 2.5c-12.667 47.333 -37.667 83.5 -75 108.5s-84.666 37.5 -141.999 37.5c-88 0 -156.333 -24.333 -205 -73s-73 -116 -73 -202c0 -64 13.667 -121.5 41 -172.5
s65.166 -90.833 113.499 -119.5s102.5 -43 162.5 -43c36 0 63.833 3 83.5 9s34 17.667 43 35s13.5 43 13.5 77c0 34.667 -2.33301 58.834 -7 72.501s-14.667 22.834 -30 27.501s-42 7 -80 7c-4 0 -6 2.66699 -6 8c0 2 0.5 3.83301 1.5 5.5s2.16699 2.5 3.5 2.5
c51.333 -3.33301 92.666 -5 123.999 -5c30 0 62 1 96 3c1.33301 0 2.5 -0.833008 3.5 -2.5s1.5 -3.16699 1.5 -4.5c0 -4.66699 -1.66699 -7 -5 -7c-17.333 0.666992 -29.666 -1.5 -36.999 -6.5s-12 -15.167 -14 -30.5s-3 -42 -3 -80c0 -30 1.16699 -51.333 3.5 -64
s3.5 -20.667 3.5 -24c0 -4 -0.666992 -6.66699 -2 -8s-4.33301 -2.66602 -9 -3.99902c-78 -18.667 -147.333 -28 -208 -28c-72.667 0 -135.834 14 -189.501 42z" />
    <glyph glyph-name="H" unicode="H" horiz-adv-x="758" 
d="M723 6c0 -4 -1.00293 -6 -3.00293 -6c-20.667 -0 -36.667 0.333008 -48 1l-67 1l-69 -1c-11.333 -0.666992 -27 -1 -47 -1c-2 0 -3 2 -3 6s1 6 3 6c26.667 0 46 1.66699 58 5s20.167 9.66602 24.5 18.999s6.5 24.333 6.5 45v235h-399v-235
c0 -20.667 2.16699 -35.667 6.5 -45s12.5 -15.666 24.5 -18.999s31.333 -5 58 -5c1.33301 0 2 -2 2 -6s-0.666992 -6 -2 -6c-20 -0 -36 0.333008 -48 1l-68 1l-66 -1c-12 -0.666992 -28.667 -1 -50 -1c-1.33301 0 -2 2 -2 6s0.666992 6 2 6c26 0 45.167 1.66699 57.5 5
s20.833 9.83301 25.5 19.5s7 24.5 7 44.5v463c0 20 -2.16699 34.667 -6.5 44s-12.666 15.833 -24.999 19.5s-31.5 5.5 -57.5 5.5c-1.33301 0 -2 2 -2 6s0.666992 6 2 6l49 -1c28 -1.33301 50 -2 66 -2c18 0 41 0.666992 69 2l47 1c1.33301 0 2 -2 2 -6s-0.666992 -6 -2 -6
c-26 0 -45.167 -2 -57.5 -6s-20.666 -10.833 -24.999 -20.5s-6.5 -24.5 -6.5 -44.5v-207h399v207c0 20 -2.16699 34.833 -6.5 44.5s-12.666 16.5 -24.999 20.5s-31.5 6 -57.5 6c-2 0 -3 2 -3 6s1 6 3 6l47 -1c28 -1.33301 51 -2 69 -2c16.667 0 39 0.666992 67 2l48 1
c2 0 3 -2 3 -6s-1 -6 -3 -6c-26 0 -45.167 -1.83301 -57.5 -5.5s-20.833 -10.167 -25.5 -19.5s-7 -24 -7 -44v-463c0 -20 2.33301 -34.833 7 -44.5s13.167 -16.167 25.5 -19.5s31.5 -5 57.5 -5c2 0 3 -2 3 -6z" />
    <glyph glyph-name="I" unicode="I" horiz-adv-x="330" 
d="M198.5 36c4.33301 -9.33301 12.499 -15.667 24.499 -19s31.333 -5 58 -5c1.33301 0 2 -2 2 -6s-0.666992 -6 -2 -6c-20 -0 -35.667 0.333008 -47 1l-70 1l-67 -1c-12 -0.666992 -28.333 -1 -49 -1c-2 0 -3 2 -3 6s1 6 3 6c26 0 45.167 1.66699 57.5 5
s20.833 9.83301 25.5 19.5s7 24.5 7 44.5v463c0 20 -2.33301 34.667 -7 44s-13.167 15.833 -25.5 19.5s-31.5 5.5 -57.5 5.5c-2 0 -3 2 -3 6s1 6 3 6l49 -1c28 -1.33301 50.333 -2 67 -2c18.667 0 42 0.666992 70 2l47 1c1.33301 0 2 -2 2 -6s-0.666992 -6 -2 -6
c-26 0 -45.167 -2 -57.5 -6s-20.666 -10.833 -24.999 -20.5s-6.5 -24.5 -6.5 -44.5v-461c0 -20.667 2.16699 -35.667 6.5 -45z" />
    <glyph glyph-name="J" unicode="J" horiz-adv-x="318" 
d="M277 619c0 -4 -0.664062 -6 -1.99707 -6c-22.667 0 -39.334 -2 -50.001 -6s-17.834 -10.833 -21.501 -20.5s-5.5 -24.5 -5.5 -44.5v-576c0 -64 -14.5 -115 -43.5 -153s-71.5 -57 -127.5 -57c-22 0 -39.167 3.5 -51.5 10.5s-18.5 16.167 -18.5 27.5
c0 8.66699 2.5 15.667 7.5 21s12.167 8 21.5 8c10 0 17.667 -2 23 -6s11.333 -10 18 -18c5.33301 -8 10.666 -14 15.999 -18s12.666 -6 21.999 -6c26 0 45.667 14.5 59 43.5s20 75.167 20 138.5v587c0 20 -2.5 34.667 -7.5 44s-14.5 15.833 -28.5 19.5s-36 5.5 -66 5.5
c-1.33301 0 -2 2 -2 6s0.666992 6 2 6l57 -1c30.667 -1.33301 54.334 -2 71.001 -2s37.667 0.666992 63 2l42 1c1.33301 0 2 -2 2 -6z" />
    <glyph glyph-name="K" unicode="K" horiz-adv-x="649" 
d="M638 6c0 -4 -1.00293 -6.00293 -3.00293 -6.00293h-112c-23.333 0 -37.333 1.33301 -42 4s-16.834 18 -36.501 46s-43.5 59.667 -71.5 95l-159 197l-35 -34v-227c0 -20.667 2.16699 -35.667 6.5 -45s12.5 -15.666 24.5 -18.999s31.333 -5 58 -5c1.33301 0 2 -2 2 -6
s-0.666992 -6 -2 -6c-20 0 -36 0.333008 -48 1l-68 1l-66 -1c-12 -0.666992 -28.667 -1 -50 -1c-1.33301 0 -2 2 -2 6s0.666992 6 2 6c26 0 45.167 1.66699 57.5 5s20.833 9.83301 25.5 19.5s7 24.5 7 44.5v463c0 20 -2.16699 34.667 -6.5 44s-12.666 15.833 -24.999 19.5
s-31.5 5.5 -57.5 5.5c-1.33301 0 -2 2 -2 6s0.666992 6 2 6l49 -1c28 -1.33301 50 -2 66 -2c18 0 41 0.666992 69 2l47 1c1.33301 0 2 -2 2 -6s-0.666992 -6 -2 -6c-26 0 -45.167 -2 -57.5 -6s-20.666 -10.833 -24.999 -20.5s-6.5 -24.5 -6.5 -44.5v-211l220 219
c22.667 22.667 34 38.334 34 47.001c0 6 -4.5 10.167 -13.5 12.5s-23.833 3.5 -44.5 3.5c-1.33301 0 -2 2 -2 6s0.666992 6 2 6l42 -1c25.333 -1.33301 49 -2 71 -2c20.667 0 42.334 0.666992 65.001 2l35 1c2 0 3 -2 3 -6s-1 -6 -3 -6
c-27.333 0 -55.5 -5.16699 -84.5 -15.5s-56.167 -28.166 -81.5 -53.499l-170 -166l143 -180c50.667 -63.333 89.334 -108 116.001 -134s47 -41.167 61 -45.5s35 -6.5 63 -6.5c2 0 3 -2 3 -6z" />
    <glyph glyph-name="L" unicode="L" horiz-adv-x="530" 
d="M178 85c0 -19.333 2.16602 -33.5 6.49902 -42.5s12.333 -15.167 24 -18.5s30.167 -5 55.5 -5h128c66 0 105 42.333 117 127c0 2 1.83301 2.83301 5.5 2.5s5.5 -1.5 5.5 -3.5c-6 -52.667 -9 -96 -9 -130c0 -5.33301 -1 -9.16602 -3 -11.499s-6 -3.5 -12 -3.5h-460
c-1.33301 0 -2 2 -2 6s0.666992 6 2 6c26 0 45.167 1.66699 57.5 5s20.666 9.83301 24.999 19.5s6.5 24.5 6.5 44.5v463c0 20 -2.16699 34.667 -6.5 44s-12.666 15.833 -24.999 19.5s-31.5 5.5 -57.5 5.5c-1.33301 0 -2 2 -2 6s0.666992 6 2 6l49 -1
c28 -1.33301 50 -2 66 -2c18 0 41 0.666992 69 2l47 1c1.33301 0 2 -2 2 -6s-0.666992 -6 -2 -6c-26 0 -45.167 -1.83301 -57.5 -5.5s-20.666 -10.334 -24.999 -20.001s-6.5 -24.5 -6.5 -44.5v-458z" />
    <glyph glyph-name="M" unicode="M" horiz-adv-x="830" 
d="M810 6c0 -4 -1.00195 -6.00098 -3.00195 -6.00098c-20.667 0 -37 0.333008 -49 1l-67 1l-62 -1c-10 -0.666992 -24 -1 -42 -1c-1.33301 0 -2 2 -2 6s0.666992 6 2 6c23.333 0 40.5 1.83301 51.5 5.5s18.333 10.167 22 19.5s4.83398 24 3.50098 44l-17 465l-234 -539
c-1.33301 -2.66699 -4 -4 -8 -4c-3.33301 0 -6.33301 1.33301 -9 4l-244 535l-1 2l-8 -440c-0.666992 -34.667 5 -58.667 17 -72s34.333 -20 67 -20c1.33301 0 2 -2 2 -6s-0.666992 -6 -2 -6c-18.667 0 -33 0.333008 -43 1l-54 1l-49 -1
c-8.66699 -0.666992 -21.667 -1 -39 -1c-1.33301 0 -2 2 -2 6s0.666992 6 2 6c28 0 47.833 6.83301 59.5 20.5s17.834 37.5 18.501 71.5l10 474c-20.667 23.333 -47.667 35 -81 35c-1.33301 0 -2 2 -2 6s0.666992 6 2 6l34 -1c6.66699 -0.666992 15.334 -1 26.001 -1
s19.667 0.333008 27 1s13 1 17 1c9.33301 0 16.666 -3.16699 21.999 -9.5s13.333 -20.5 24 -42.5l225 -486l224 513c3.33301 7.33301 7.83301 13.333 13.5 18s11.167 7 16.5 7c2.66699 0 7 -0.333008 13 -1s14.333 -1 25 -1l45 1c6.66699 0.666992 17 1 31 1
c1.33301 0 2 -2 2 -6s-0.666992 -6 -2 -6c-34.667 0 -59.167 -4.5 -73.5 -13.5s-21.166 -26.833 -20.499 -53.5l19 -465c0.666992 -20.667 3.16699 -35.667 7.5 -45s12.666 -15.666 24.999 -18.999s31.5 -5 57.5 -5c2 0 3 -2 3 -6z" />
    <glyph glyph-name="N" unicode="N" horiz-adv-x="725" 
d="M702 619c0 -4 -0.998047 -6 -2.99805 -6c-28.667 0 -48.834 -7 -60.501 -21s-17.5 -38 -17.5 -72v-531c0 -1.33301 -1.66699 -2.33301 -5 -3s-5.66602 -0.333984 -6.99902 0.999023l-452 556l-17 19v-458c0 -34 5.66699 -57.833 17 -71.5s31 -20.5 59 -20.5
c2 0 3 -2 3 -6s-1 -6 -3 -6c-16 0 -28.333 0.333008 -37 1l-48 1l-49 -1c-8.66699 -0.666992 -21.667 -1 -39 -1c-1.33301 0 -2 2 -2 6s0.666992 6 2 6c28.667 0 48.334 6.66699 59.001 20s16 37.333 16 72v479c-23.333 20 -47.333 30 -72 30c-2 0 -3 2 -3 6s1 6 3 6l36 -1
c7.33301 -0.666992 17.666 -1 30.999 -1c11.333 0 20.666 0.333008 27.999 1s13 1 17 1c4.66699 0 8.5 -1.16699 11.5 -3.5s6.5 -7.16602 10.5 -14.499c7.33301 -12 15.333 -23.333 24 -34l395 -491v438c0 34 -5.33301 58 -16 72s-30 21 -58 21c-1.33301 0 -2 2 -2 6
s0.666992 6 2 6l38 -1c20 -1.33301 36 -2 48 -2c11.333 0 27.666 0.666992 48.999 2l39 1c2 0 3 -2 3 -6z" />
    <glyph glyph-name="O" unicode="O" horiz-adv-x="766" 
d="M200.5 31.5c-48.333 29 -85.666 68.335 -111.999 118.002s-39.5 103.834 -39.5 162.501c0 68.667 17.333 127.5 52 176.5s79.167 85.833 133.5 110.5s109.833 37 166.5 37c63.333 0 119 -14.833 167 -44.5s84.833 -68.834 110.5 -117.501s38.5 -100.334 38.5 -155.001
c0 -60.667 -16 -116.334 -48 -167.001s-74.833 -90.667 -128.5 -120s-111.834 -44 -174.501 -44c-62 0 -117.167 14.5 -165.5 43.5zM530 41.002c38 22 67.998 54.333 89.998 97s33 93.667 33 153c0 62.667 -12.167 118.5 -36.5 167.5s-58.666 87.167 -102.999 114.5
s-95.833 41 -154.5 41c-77.333 0 -137.666 -24 -180.999 -72s-65 -113.333 -65 -196c0 -62 12.167 -118.833 36.5 -170.5s58.5 -92.5 102.5 -122.5s94 -45 150 -45c47.333 0 90 11 128 33z" />
    <glyph glyph-name="P" unicode="P" horiz-adv-x="540" 
d="M195 38.5c6 -9.66699 17.4961 -16.501 34.4961 -20.501s44.167 -6 81.5 -6c2 0 3 -2 3 -6s-1 -6 -3 -6c-27.333 0 -48.666 0.333008 -63.999 1l-87 1l-66 -1c-12 -0.666992 -28.667 -1 -50 -1c-1.33301 0 -2 2 -2 6s0.666992 6 2 6c26 0 45.167 1.66699 57.5 5
s20.666 9.83301 24.999 19.5s6.5 24.5 6.5 44.5v463c0 20 -2.16699 34.667 -6.5 44s-12.666 15.833 -24.999 19.5s-31.5 5.5 -57.5 5.5c-1.33301 0 -2 2 -2 6s0.666992 6 2 6l49 -1c28 -1.33301 50 -2 66 -2s34.333 1 55 3c52 2 80.333 3 85 3
c58.667 0 106.334 -13.5 143.001 -40.5s55 -68.167 55 -123.5c0 -44.667 -11 -82.167 -33 -112.5s-49.833 -52.833 -83.5 -67.5s-68.5 -22 -104.5 -22c-20 0 -36.333 1.66699 -49 5c-2 0 -3 1.66699 -3 5c0 2 0.5 4 1.5 6s2.16699 2.66699 3.5 2
c10.667 -2.66699 22.667 -4 36 -4c47.333 0 87.5 14.333 120.5 43s49.5 70.334 49.5 125.001c0 35.333 -7 65.833 -21 91.5s-33.167 45.334 -57.5 59.001s-51.166 20.5 -80.499 20.5c-27.333 0 -46.666 -1.33301 -57.999 -4s-19.5 -8.83398 -24.5 -18.501
s-7.5 -26.5 -7.5 -50.5v-457c0 -21.333 3 -36.833 9 -46.5z" />
    <glyph glyph-name="Q" unicode="Q" horiz-adv-x="766" 
d="M746 -156c1.33301 0 2.49805 -1.49805 3.49805 -4.49805s0.833008 -4.83301 -0.5 -5.5c-35.333 -8 -64 -12 -86 -12c-45.333 0 -93 14.667 -143 44s-93 70.333 -129 123c-5.33301 -0.666992 -13.666 -1 -24.999 -1c-62 0 -117.167 14.5 -165.5 43.5
s-85.666 68.333 -111.999 118s-39.5 103.834 -39.5 162.501c0 68.667 17.333 127.5 52 176.5s79.167 85.833 133.5 110.5s109.833 37 166.5 37c63.333 0 119 -14.833 167 -44.5s84.833 -68.834 110.5 -117.501s38.5 -100.334 38.5 -155.001c0 -50 -11.167 -97 -33.5 -141
s-53 -81.5 -92 -112.5s-82.833 -52.833 -131.5 -65.5c28.667 -46.667 66.667 -84.834 114 -114.501s92.333 -44.5 135 -44.5c15.333 0 27.333 1 36 3h1zM149.498 175.502c24.333 -51.667 58.498 -92.5 102.498 -122.5s94 -45 150 -45c47.333 0 90 11 128 33s68 54.333 90 97
s33 93.667 33 153c0 62.667 -12.167 118.5 -36.5 167.5s-58.666 87.167 -102.999 114.5s-95.833 41 -154.5 41c-77.333 0 -137.666 -24 -180.999 -72s-65 -113.333 -65 -196c0 -62 12.167 -118.833 36.5 -170.5z" />
    <glyph glyph-name="R" unicode="R" horiz-adv-x="667" 
d="M679 6c0 -4 -1.00195 -6.00293 -3.00195 -6.00293h-116c-17.333 0 -49.666 28.833 -96.999 86.5s-104.666 137.5 -171.999 239.5c-20 -5.33301 -40.333 -8 -61 -8c-11.333 0 -25.666 0.666992 -42.999 2v-239c0 -20.667 2.16699 -35.667 6.5 -45
s12.5 -15.666 24.5 -18.999s31.333 -5 58 -5c2 0 3 -2 3 -6s-1 -6 -3 -6c-20 0 -36 0.333008 -48 1l-68 1l-66 -1c-12 -0.666992 -28.667 -1 -50 -1c-1.33301 0 -2 2 -2 6s0.666992 6 2 6c26.667 0 46.167 1.66699 58.5 5s20.833 9.83301 25.5 19.5s7 24.5 7 44.5v463
c0 20 -2.16699 34.667 -6.5 44s-12.666 15.833 -24.999 19.5s-31.5 5.5 -57.5 5.5c-2 0 -3 2 -3 6s1 6 3 6l48 -1c26.667 -1.33301 48.667 -2 66 -2c12 0 23.333 0.333008 34 1s20 1.33398 28 2.00098c20.667 2 39 3 55 3c52.667 0 93 -11 121 -33s42 -52.667 42 -92
c0 -32 -9.33301 -62.167 -28 -90.5s-43.334 -50.833 -74.001 -67.5c58 -85.333 106.333 -151.666 145 -198.999s73.167 -81.5 103.5 -102.5s60.166 -31.5 89.499 -31.5c2 0 3 -2 3 -6zM246.998 339.997c48.667 0 83.668 10.168 105.001 30.501s32 53.166 32 98.499
c0 50.667 -11.833 87.667 -35.5 111s-55.167 35 -94.5 35c-18.667 0 -32.334 -1.33301 -41.001 -4s-15.167 -9 -19.5 -19s-6.5 -26.667 -6.5 -50v-198c25.333 -2.66699 45.333 -4 60 -4z" />
    <glyph glyph-name="S" unicode="S" horiz-adv-x="485" 
d="M157 435c12.667 -19.333 28.167 -35.4951 46.5 -48.4951s43.833 -29.167 76.5 -48.5c34.667 -20.667 61.5 -37.834 80.5 -51.501s35.333 -31.167 49 -52.5s20.5 -47 20.5 -77c0 -31.333 -7.66699 -59.833 -23 -85.5s-38.166 -46 -68.499 -61s-67.5 -22.5 -111.5 -22.5
c-23.333 0 -45.5 2.5 -66.5 7.5s-44.167 13.833 -69.5 26.5c-3.33301 2 -5.5 4.33301 -6.5 7s-1.83301 6.66699 -2.5 12l-15 130v1c0 2.66699 1.66699 4.16699 5 4.5s5.33301 -0.833984 6 -3.50098c6.66699 -46 24.334 -86 53.001 -120s68 -51 118 -51
c35.333 0 65.166 9.66699 89.499 29s36.5 49.666 36.5 90.999c0 30 -6.66699 55.833 -20 77.5s-29.5 39.667 -48.5 54s-44.833 31.166 -77.5 50.499c-32 18.667 -57.167 35 -75.5 49s-34 31.5 -47 52.5s-19.5 46.167 -19.5 75.5c0 33.333 8.5 61.666 25.5 84.999
s39.167 40.833 66.5 52.5s56.666 17.5 87.999 17.5c36.667 0 74.667 -8 114 -24c10 -4 15 -9.66699 15 -17l9 -106c0 -2.66699 -1.83301 -4 -5.5 -4s-5.83398 1.33301 -6.50098 4c-2.66699 34.667 -15.667 65.667 -39 93s-56.666 41 -99.999 41
c-40 0 -69.333 -11.667 -88 -35s-28 -51.333 -28 -84c0 -26.667 6.33301 -49.667 19 -69z" />
    <glyph glyph-name="T" unicode="T" horiz-adv-x="632" 
d="M88 578c-19.333 -20 -32.335 -55.667 -39.002 -107c0 -1.33301 -2 -2 -6 -2s-6 0.666992 -6 2c2.66699 18 5.66699 46.833 9 86.5s5 69.5 5 89.5c0 3.33301 2 5 6 5s6 -1.66699 6 -5c0 -14.667 17.667 -22 53 -22c57.333 -2 124.333 -3 201 -3
c39.333 0 81 0.666992 125 2l68 1c24 0 41.667 1.66699 53 5s18.666 10 21.999 20c0.666992 2.66699 2.66699 4 6 4s5 -1.33301 5 -4c-2 -18.667 -4 -47.167 -6 -85.5s-3 -69.5 -3 -93.5c0 -1.33301 -2 -2 -6 -2s-6 0.666992 -6 2c0 35.333 -3.66699 62.666 -11 81.999
s-19.666 33.333 -36.999 42s-41.666 13 -72.999 13c-34.667 0 -59 -1.16699 -73 -3.5s-23.5 -7.83301 -28.5 -16.5s-7.5 -24 -7.5 -46v-461c0 -20.667 2.33301 -35.667 7 -45s14 -15.666 28 -18.999s36 -5 66 -5c1.33301 0 2 -2 2 -6s-0.666992 -6 -2 -6
c-22 -0 -39.333 0.333008 -52 1l-77 1l-73 -1c-13.333 -0.666992 -31.666 -1 -54.999 -1c-1.33301 0 -2 2 -2 6s0.666992 6 2 6c30 0 52 1.66699 66 5s23.5 9.83301 28.5 19.5s7.5 24.5 7.5 44.5v463c0 22 -2.66699 37.167 -8 45.5s-14.833 13.5 -28.5 15.5s-38.5 3 -74.5 3
c-42 0 -72.667 -10 -92 -30z" />
    <glyph glyph-name="U" unicode="U" horiz-adv-x="764" 
d="M729 6c0 -4 -1.00293 -6.00098 -3.00293 -6.00098l-77 1l-47 -1c-8 0 -13 1 -15 3s-3 7.33301 -3 16v80c-43.333 -39.333 -84.666 -67.666 -123.999 -84.999s-82 -26 -128 -26c-42 0 -79.333 8 -112 24s-58.334 39 -77.001 69s-28 65 -28 105v358
c0 20 -2.16699 34.667 -6.5 44s-12.666 15.833 -24.999 19.5s-31.5 5.5 -57.5 5.5c-2 0 -3 2 -3 6s1 6 3 6l48 -1c26.667 -1.33301 48.667 -2 66 -2c18.667 0 42 0.666992 70 2l46 1c2 0 3 -2 3 -6s-1 -6 -3 -6c-26 0 -45.167 -2 -57.5 -6s-20.666 -10.833 -24.999 -20.5
s-6.5 -24.5 -6.5 -44.5v-321c0 -67.333 16.833 -118.833 50.5 -154.5s79.834 -53.5 138.501 -53.5c40 0 77.667 7.66699 113 23s73.666 41.333 114.999 78v428c0 20 -2.16699 34.833 -6.5 44.5s-12.666 16.5 -24.999 20.5s-31.5 6 -57.5 6c-2 0 -3 2 -3 6s1 6 3 6l47 -1
c28 -1.33301 51 -2 69 -2c16.667 0 39 0.666992 67 2l48 1c2 0 3 -2 3 -6s-1 -6 -3 -6c-26 0 -45.167 -1.83301 -57.5 -5.5s-20.833 -10.167 -25.5 -19.5s-7 -24 -7 -44v-463c0 -20 2.33301 -34.833 7 -44.5s13.167 -16.167 25.5 -19.5s31.5 -5 57.5 -5c2 0 3 -2 3 -6z" />
    <glyph glyph-name="V" unicode="V" horiz-adv-x="667" 
d="M673 619c0 -4 -0.999023 -5.99902 -2.99902 -5.99902c-22.667 0 -41.5 -4.83301 -56.5 -14.5s-28.167 -27.834 -39.5 -54.501l-220 -543c-0.666992 -2.66699 -4.33398 -4 -11.001 -4c-5.33301 0 -9 1.33301 -11 4l-247 541c-11.333 26 -23.5 44.333 -36.5 55
s-29.833 16 -50.5 16c-2 0 -3 2 -3 6s1 6 3 6l43 -1c18.667 -1.33301 32.667 -2 42 -2c19.333 0 42.333 0.666992 69 2l43 1c2 0 3 -2 3 -6s-1 -6 -3 -6c-20.667 0 -36.167 -2.33301 -46.5 -7s-15.5 -12.667 -15.5 -24c0 -8 3 -18 9 -30l218 -481l193 479
c4.66699 11.333 7 21 7 29c0 12 -6.16699 20.667 -18.5 26s-32.5 8 -60.5 8c-2 0 -3 2 -3 6s1 6 3 6l40 -1c22.667 -1.33301 42.667 -2 60 -2c14 0 29.667 0.666992 47 2l42 1c2 0 3 -2 3 -6z" />
    <glyph glyph-name="W" unicode="W" horiz-adv-x="924" 
d="M930 619c0 -4 -1.00195 -6 -3.00195 -6c-23.333 0 -43.166 -5 -59.499 -15s-28.166 -28 -35.499 -54l-161 -543c0 -2.66699 -3.66699 -4 -11 -4c-6.66699 0 -10.334 1.33301 -11.001 4l-190 536l-158 -536c-0.666992 -2.66699 -4.33398 -4 -11.001 -4
c-6 0 -10 1.33301 -12 4l-193 541c-8.66699 26 -20 44.333 -34 55s-31.667 16 -53 16c-2 0 -3 2 -3 6s1 6 3 6l43 -1c18.667 -1.33301 32.667 -2 42 -2c32 0 63.333 0.666992 94 2c10.667 0.666992 24.334 1 41.001 1c1.33301 0 2 -2 2 -6s-0.666992 -6 -2 -6
c-55.333 0 -83 -13.667 -83 -41c0 -7.33301 1.33301 -14 4 -20l166 -462l157 535c1.33301 2 5 3 11 3c7.33301 0 11 -1 11 -3l191 -536l136 461c2 6 3 11.667 3 17c0 30.667 -33 46 -99 46c-2 0 -3 2 -3 6s1 6 3 6l49 -1c28 -1.33301 53 -2 75 -2
c12.667 0 28.334 0.666992 47.001 2l41 1c2 0 3 -2 3 -6z" />
    <glyph glyph-name="X" unicode="X" horiz-adv-x="653" 
d="M635 6c0 -4 -0.664062 -6 -1.99707 -6c-17.333 -0 -31 0.333008 -41 1l-53 1l-75 -1c-12 -0.666992 -28.333 -1 -49 -1c-1.33301 0 -2 2 -2 6s0.666992 6 2 6c20 0 34.333 1.33301 43 4s13 7.33398 13 14.001c0 5.33301 -3 12.333 -9 21l-155 235l-139 -194
c-13.333 -19.333 -20 -35 -20 -47c0 -22 20.333 -33 61 -33c2 0 3 -2 3 -6s-1 -6 -3 -6c-20 0 -35 0.333008 -45 1l-67 1l-41 -1c-7.33301 -0.666992 -19.333 -1 -36 -1c-2 0 -3 2 -3 6s1 6 3 6c22.667 0 44.667 6.83301 66 20.5s41.666 33.5 60.999 59.5l151 207l-161 243
c-17.333 26 -34.666 44.333 -51.999 55s-38 16 -62 16c-1.33301 0 -2 2 -2 6s0.666992 6 2 6c8 0 20.667 -0.666992 38 -2l36 -1c21.333 0 48 0.666992 80 2l52 1c2 0 3 -2 3 -6s-1 -6 -3 -6c-20 0 -34.333 -1.5 -43 -4.5s-13 -7.83301 -13 -14.5
c0 -4.66699 3 -11.667 9 -21l152 -228l127 179c16 23.333 24 41.666 24 54.999c0 22.667 -19.333 34 -58 34c-2 0 -3 2 -3 6s1 6 3 6l45 -1c25.333 -1.33301 47.666 -2 66.999 -2c11.333 0 25 0.666992 41 2l36 1c2 0 3 -2 3 -6s-1 -6 -3 -6c-45.333 0 -90 -30 -134 -90
l-140 -191l166 -249c17.333 -26.667 35.166 -45.167 53.499 -55.5s42.166 -15.5 71.499 -15.5c1.33301 0 2 -2 2 -6z" />
    <glyph glyph-name="Y" unicode="Y" horiz-adv-x="607" 
d="M613 619c0 -4 -0.665039 -6 -1.99805 -6c-24.667 0 -48.667 -7.83301 -72 -23.5s-44.333 -37.834 -63 -66.501l-141 -214v-228c0 -20.667 2 -35.667 6 -45s12 -15.666 24 -18.999s31.333 -5 58 -5c2 0 3 -2 3 -6s-1 -6 -3 -6c-20 -0 -35.667 0.333008 -47 1l-68 1l-68 -1
c-12 -0.666992 -28 -1 -48 -1c-2 0 -3 2 -3 6s1 6 3 6c26 0 45.167 1.66699 57.5 5s20.833 9.83301 25.5 19.5s7 24.5 7 44.5v213l-171 248c-17.333 26 -34.333 44.333 -51 55s-37.334 16 -62.001 16c-2 0 -3 2 -3 6s1 6 3 6l37 -1c16 -1.33301 28 -2 36 -2
c22 0 49 0.666992 81 2l52 1c1.33301 0 2 -2 2 -6s-0.666992 -6 -2 -6c-20 0 -34.5 -1.5 -43.5 -4.5s-13.5 -7.83301 -13.5 -14.5c0 -4 3.33301 -11 10 -21l168 -241l128 194c14.667 24 22 42.333 22 55c0 21.333 -18 32 -54 32c-1.33301 0 -2 2 -2 6s0.666992 6 2 6l45 -1
c25.333 -1.33301 47.666 -2 66.999 -2c11.333 0 25 0.666992 41 2l37 1c1.33301 0 2 -2 2 -6z" />
    <glyph glyph-name="Z" unicode="Z" horiz-adv-x="593" 
d="M460 600c2 3.33301 2.83105 5.5 2.49805 6.5s-2.83301 1.5 -7.5 1.5c-130.667 0 -218 -1.66699 -262 -5s-73.5 -11.333 -88.5 -24s-28.833 -38.334 -41.5 -77.001c0 -1.33301 -1.33301 -2 -4 -2c-2 0 -4 0.5 -6 1.5s-2.66699 1.83301 -2 2.5l40 151
c0 0.666992 1.33301 1 4 1c6.66699 0 9.33398 -1 8.00098 -3c-0.666992 -2 -1 -4.66699 -1 -8c0 -8 3.83301 -13.333 11.5 -16s23.167 -4 46.5 -4h365c3.33301 0 5.83301 -1.66699 7.5 -5s1.5 -6 -0.5 -8l-401 -585l-3 -6c0 -1.33301 2.66699 -2 8 -2h268
c46.667 0 81 8.33301 103 25s36.333 45.334 43 86.001c0.666992 1.33301 2.66699 2 6 2s5 -0.666992 5 -2l-14 -122c0 -2 -0.833008 -4.16699 -2.5 -6.5s-3.83398 -3.5 -6.50098 -3.5c-99.333 1.33301 -258.666 2 -477.999 2c-3.33301 0 -5.66602 1.5 -6.99902 4.5
s-1 5.83301 1 8.5z" />
    <glyph glyph-name="bracketleft" unicode="[" horiz-adv-x="274" 
d="M94 715c0 4.66699 0.5 7.5 1.5 8.5s3.5 1.5 7.5 1.5h133c2 0 3 -2 3 -6s-1 -6 -3 -6c-27.333 0 -47.5 -2 -60.5 -6s-21.833 -10.833 -26.5 -20.5s-7 -24.5 -7 -44.5v-676c0 -20 2.33301 -34.833 7 -44.5s13.5 -16.5 26.5 -20.5s33.167 -6 60.5 -6c2 0 3 -2 3 -6
s-1 -6 -3 -6h-133c-4 0 -6.5 0.666992 -7.5 2s-1.5 4.33301 -1.5 9v821z" />
    <glyph glyph-name="backslash" unicode="\" horiz-adv-x="339" 
d="M26 718c-1.33301 3.33301 3.83301 7.00098 15.5 11.001s18.167 4.33301 19.5 1l252 -882c1.33301 -2.66699 -4 -5.83398 -16 -9.50098s-18.667 -4.16699 -20 -1.5z" />
    <glyph glyph-name="bracketright" unicode="]" horiz-adv-x="274" 
d="M178.5 -115c-1 -1.33301 -3.5 -2 -7.5 -2h-133c-2 0 -3 2 -3 6s1 6 3 6c27.333 0 47.5 2 60.5 6s21.833 10.833 26.5 20.5s7 24.5 7 44.5v676c0 20 -2.33301 34.833 -7 44.5s-13.5 16.5 -26.5 20.5s-33.167 6 -60.5 6c-2 0 -3 2 -3 6s1 6 3 6h133c4 0 6.5 -0.5 7.5 -1.5
s1.5 -3.83301 1.5 -8.5v-821c0 -4.66699 -0.5 -7.66699 -1.5 -9z" />
    <glyph glyph-name="asciicircum" unicode="^" horiz-adv-x="392" 
d="M333 379c0 -1.33301 -1.33398 -2.66797 -4.00098 -4.00098s-4.33398 -1.33301 -5.00098 0l-128 182l-128 -182c-0.666992 -0.666992 -1.66699 -1 -3 -1s-3 0.833008 -5 2.5s-2.66699 2.83398 -2 3.50098l127 249c0.666992 3.33301 4.33398 5 11.001 5
s10.334 -1.66699 11.001 -5l126 -249v-1z" />
    <glyph glyph-name="underscore" unicode="_" horiz-adv-x="398" 
d="M30.5 -68.5c-1 4.33301 -1.5 8.83203 -1.5 13.499s0.5 8.83398 1.5 12.501s1.83301 5.5 2.5 5.5h331c1.33301 0 2.5 -2 3.5 -6s1.5 -8.33301 1.5 -13s-0.5 -9 -1.5 -13s-2.16699 -6 -3.5 -6h-330c-1.33301 0 -2.5 2.16699 -3.5 6.5z" />
    <glyph glyph-name="grave" unicode="`" horiz-adv-x="213" 
d="M57.5 730.5c8.33301 -1 17.1689 -3 26.502 -6s14 -5.83301 14 -8.5l56 -240c1.33301 -1.33301 0.166016 -2.5 -3.50098 -3.5s-5.83398 -0.5 -6.50098 1.5l-97 253c-1.33301 3.33301 2.16699 4.5 10.5 3.5z" />
    <glyph glyph-name="a" unicode="a" horiz-adv-x="490" 
d="M483 56c2.66699 0 4.33008 -1.50098 4.99707 -4.50098s-0.333008 -4.83301 -3 -5.5l-111 -53l-4 -1c-6 0 -12.167 8.5 -18.5 25.5s-9.5 37.5 -9.5 61.5c-24 -26.667 -49.167 -48 -75.5 -64s-55.166 -24 -86.499 -24c-40.667 0 -74.667 14.833 -102 44.5
s-41 71.167 -41 124.5c0 48 11.333 90.167 34 126.5s51.167 64.166 85.5 83.499s67.833 29 100.5 29c18 0 35.5 -2.83301 52.5 -8.5s32.167 -13.167 45.5 -22.5c10.667 6 18.667 14.667 24 26c0.666992 0.666992 2.33398 0.833984 5.00098 0.500977s4 -1.16602 4 -2.49902
v-286c0 -22.667 2.83301 -39.167 8.5 -49.5s15.167 -15.5 28.5 -15.5c6.66699 0 14.834 1.5 24.501 4.5s20.167 6.5 31.5 10.5h2zM341.996 94.999l0.000976562 200.001c0 24 -11.333 44.167 -34 60.5s-48 24.5 -76 24.5c-40.667 0 -73.834 -17.833 -99.501 -53.5
s-38.5 -81.834 -38.5 -138.501c0 -50 10.333 -90.667 31 -122s48.667 -47 84 -47c42 0 86.333 25.333 133 76z" />
    <glyph glyph-name="b" unicode="b" horiz-adv-x="508" 
d="M390 378c24 -14 43.334 -34.835 58.001 -62.502s22 -61.5 22 -101.5c0 -48 -10.5 -89.167 -31.5 -123.5s-48.5 -60.166 -82.5 -77.499s-69.667 -26 -107 -26c-50.667 0 -95.334 14.333 -134.001 43l-73 -34h-2c-2.66699 0 -4.33398 1.16699 -5.00098 3.5s0 4.5 2 6.5
c22.667 16 38.334 30 47.001 42s13 30.333 13 55v496c0 24.667 -2.5 42.334 -7.5 53.001s-13.5 16 -25.5 16c-11.333 0 -27.333 -4.66699 -48 -14h-2c-2 0 -3.5 1.66699 -4.5 5s-0.166992 5.33301 2.5 6l120 59l5 1c1.33301 0 2.83301 -0.666992 4.5 -2s2.5 -3 2.5 -5v-411
c24.667 27.333 50.5 49.5 77.5 66.5s56.833 25.5 89.5 25.5c28.667 0 55 -7 79 -21zM379.001 51.498c23.333 30.333 35.001 73.834 35.001 130.501c0 60 -12.333 106.5 -37 139.5s-56.667 49.5 -96 49.5c-24.667 0 -48 -7.16699 -70 -21.5s-44.333 -33.833 -67 -58.5v-168
c0 -26.667 7.5 -48.834 22.5 -66.501s33 -30.5 54 -38.5s41.5 -12 61.5 -12c41.333 0 73.666 15.167 96.999 45.5z" />
    <glyph glyph-name="c" unicode="c" horiz-adv-x="407" 
d="M122.5 16.5c-29 19 -50.5029 43.498 -64.5029 73.498s-21 61.667 -21 95c0 42.667 10.5 79.834 31.5 111.501s48 56 81 73s66.833 25.5 101.5 25.5c28.667 0 54.834 -5.66699 78.501 -17s35.5 -24.666 35.5 -39.999c0 -8 -2.66699 -14.833 -8 -20.5
s-12.333 -8.5 -21 -8.5c-15.333 0 -28.666 9.33301 -39.999 28c-8.66699 12.667 -18.834 22.167 -30.501 28.5s-27.167 9.5 -46.5 9.5c-40 0 -70.833 -14.5 -92.5 -43.5s-32.5 -68.167 -32.5 -117.5c0 -56 14.333 -102.5 43 -139.5s71.334 -55.5 128.001 -55.5
c42.667 0 77 11.667 103 35h2c2 0 3.83301 -1 5.5 -3s1.5 -3.66699 -0.5 -5c-22.667 -20 -45.667 -34.667 -69 -44s-48.666 -14 -75.999 -14c-42.667 0 -78.5 9.5 -107.5 28.5z" />
    <glyph glyph-name="d" unicode="d" horiz-adv-x="513" 
d="M507 55c2.66699 0 4.50195 -1.66895 5.50195 -5.00195s0.166992 -5.66602 -2.5 -6.99902l-103 -49c-2.66699 -1.33301 -5.33398 -2 -8.00098 -2c-9.33301 0 -17.166 7.5 -23.499 22.5s-9.83301 36.167 -10.5 63.5c-25.333 -27.333 -51.833 -49.333 -79.5 -66
s-58.5 -25 -92.5 -25c-28 0 -53.833 8 -77.5 24s-42.667 38.5 -57 67.5s-21.5 61.833 -21.5 98.5c0 46.667 11.667 86.834 35 120.501s52.666 59 87.999 76s70.333 25.5 105 25.5c35.333 0 68.666 -10.333 99.999 -31v231c0 24.667 -2.5 42.334 -7.5 53.001
s-13.833 16 -26.5 16c-5.33301 0 -12.166 -1.5 -20.499 -4.5s-17.5 -6.5 -27.5 -10.5h-2c-2.66699 0 -4.33398 1.5 -5.00098 4.5s0 5.16699 2 6.5l122 60c1.33301 0.666992 3 1 5 1c1.33301 0 2.83301 -0.666992 4.5 -2s2.5 -3 2.5 -5v-610
c0 -24.667 2.83301 -42.334 8.5 -53.001s15.5 -16 29.5 -16c20.667 0 39 5 55 15zM299.002 39.498c22 13 43.999 31.168 65.999 54.501v212c-17.333 23.333 -36.166 41.5 -56.499 54.5s-44.833 19.5 -73.5 19.5c-43.333 0 -78 -15.333 -104 -46s-39 -73.334 -39 -128.001
c0 -36.667 6 -69 18 -97s28.333 -49.833 49 -65.5s43.667 -23.5 69 -23.5s49 6.5 71 19.5z" />
    <glyph glyph-name="e" unicode="e" horiz-adv-x="405" 
d="M358 54c2 0 3.83496 -1.16504 5.50195 -3.49805s1.83398 -4.5 0.500977 -6.5c-44 -37.333 -91.667 -56 -143 -56c-38.667 0 -72 9 -100 27s-49 41.5 -63 70.5s-21 60.5 -21 94.5c0 40 9.33301 76.333 28 109s44.167 58.5 76.5 77.5s68.166 28.5 107.499 28.5
c34.667 0 61.667 -8.83301 81 -26.5s29 -41.834 29 -72.501c0 -8 -0.833008 -13.667 -2.5 -17s-4.83398 -5 -9.50098 -5l-248 -1c-3.33301 -18.667 -5 -37 -5 -55c0 -58.667 14.167 -106.334 42.5 -143.001s67.166 -55 116.499 -55c39.333 0 74 11.333 104 34h1z
M142.502 351.502c-19 -15.667 -32.501 -38.167 -40.501 -67.5l197 5c0 27.333 -7.66699 48.5 -23 63.5s-35.666 22.5 -60.999 22.5c-29.333 0 -53.5 -7.83301 -72.5 -23.5z" />
    <glyph glyph-name="f" unicode="f" horiz-adv-x="305" 
d="M402 710.5c22 -10.333 32.998 -22.1689 32.998 -35.502c0 -8.66699 -3 -15.5 -9 -20.5s-13.333 -7.5 -22 -7.5c-6.66699 0 -12.667 1.5 -18 4.5s-11.333 8.83301 -18 17.5c-11.333 14 -23.5 24.333 -36.5 31s-28.5 10 -46.5 10c-40.667 0 -73 -22.5 -97 -67.5
s-36 -112.833 -36 -203.5v-65c31.333 0.666992 75.666 4 132.999 10c2 0 3.66699 -2.16699 5 -6.5s2 -9.83301 2 -16.5c0 -5.33301 -1 -10.666 -3 -15.999s-4.33301 -7.66602 -7 -6.99902c-36.667 8.66699 -80 13.667 -130 15v-272c0 -20.667 2.33301 -35.667 7 -45
s13.834 -15.666 27.501 -18.999s35.834 -5 66.501 -5c1.33301 0 2 -2 2 -6s-0.666992 -6 -2 -6l-64 1c-13.333 0.666992 -34 1 -62 1l-55 -1c-9.33301 -0.666992 -22.333 -1 -39 -1c-2 0 -3 2 -3 6s1 6 3 6c20.667 0 35.834 1.83301 45.501 5.5s16.334 10.167 20.001 19.5
s5.5 24 5.5 44v225c0 18 -1.5 30.5 -4.5 37.5s-9.33301 11.667 -19 14s-26.834 3.5 -51.501 3.5c-2 0 -3 2 -3 6s1 6 3 6c28.667 0 48 3.16699 58 9.5s15.333 18.166 16 35.499c3.33301 108 22.833 186.333 58.5 235s88.167 73 157.5 73c33.333 0 61 -5.16699 83 -15.5z" />
    <glyph glyph-name="g" unicode="g" horiz-adv-x="465" 
d="M384 394.5c2.66699 -0.333008 3.99805 -1.16895 3.99805 -2.50195v-462c0 -64 -17.333 -115.167 -52 -153.5s-82.667 -57.5 -144 -57.5c-39.333 0 -71.166 7.33301 -95.499 22s-36.5 32.334 -36.5 53.001c0 9.33301 2.5 16.333 7.5 21s10.833 7 17.5 7
c7.33301 0 13.666 -2.16699 18.999 -6.5s11.333 -11.166 18 -20.499c14 -17.333 28.333 -30.833 43 -40.5s36 -14.5 64 -14.5c34.667 0 62.167 11.667 82.5 35s30.5 67 30.5 131v173c-24 -26.667 -49.167 -48 -75.5 -64s-55.166 -24 -86.499 -24
c-40.667 0 -74.667 14.833 -102 44.5s-41 71.167 -41 124.5c0 48 11.333 90.167 34 126.5s51.167 64.166 85.5 83.499s67.833 29 100.5 29c18 0 35.5 -2.83301 52.5 -8.5s32.167 -13.167 45.5 -22.5c10.667 6 18.667 14.667 24 26
c0.666992 0.666992 2.33398 0.833984 5.00098 0.500977zM341.998 94.9971l0.000976562 200.001c0 24 -11.333 44.167 -34 60.5s-48 24.5 -76 24.5c-40.667 0 -73.834 -17.833 -99.501 -53.5s-38.5 -81.834 -38.5 -138.501c0 -50 10.333 -90.667 31 -122s48.667 -47 84 -47
c42 0 86.333 25.333 133 76z" />
    <glyph glyph-name="h" unicode="h" horiz-adv-x="496" 
d="M476 6c0 -4 -0.668945 -6.00293 -2.00195 -6.00293c-15.333 0 -27.666 0.333008 -36.999 1l-52 1l-53 -1c-8.66699 -0.666992 -20.667 -1 -36 -1c-2 0 -3 2 -3 6s1 6 3 6c19.333 0 33.333 1.66699 42 5s14.667 9.83301 18 19.5s5 24.5 5 44.5v163
c0 40.667 -7.66699 70.667 -23 90s-39 29 -71 29c-21.333 0 -43.333 -6.16699 -66 -18.5s-43.334 -29.166 -62.001 -50.499v-213c0 -20 1.66699 -34.833 5 -44.5s9.5 -16.167 18.5 -19.5s23.167 -5 42.5 -5c1.33301 0 2 -2 2 -6s-0.666992 -6 -2 -6
c-15.333 0 -27.666 0.333008 -36.999 1l-52 1l-53 -1c-8.66699 -0.666992 -20.667 -1 -36 -1c-2 0 -3 2 -3 6s1 6 3 6c19.333 0 33.333 1.66699 42 5s14.667 9.83301 18 19.5s5 24.5 5 44.5v519c0 24.667 -2.33301 42.334 -7 53.001s-13 16 -25 16
c-11.333 0 -27.333 -5 -48 -15h-2c-2.66699 0 -4.5 1.66699 -5.5 5s-0.166992 5.33301 2.5 6l123 60h2c4.66699 0 7 -2.33301 7 -7v-409c26.667 30.667 52.5 52.834 77.5 66.501s50.833 20.5 77.5 20.5c36.667 0 64.834 -10.167 84.501 -30.5s29.5 -50.5 29.5 -90.5v-194
c0 -20 1.66699 -34.833 5 -44.5s9.5 -16.167 18.5 -19.5s23.167 -5 42.5 -5c1.33301 0 2 -2 2 -6z" />
    <glyph glyph-name="i" unicode="i" horiz-adv-x="275" 
d="M108.5 526c-7 6.66699 -10.5 16 -10.5 28s3.5 21.333 10.5 28s16.833 10 29.5 10c12 0 21.333 -3.33301 28 -10s10 -16 10 -28s-3.33301 -21.333 -10 -28s-16 -10 -28 -10c-12.667 0 -22.5 3.33301 -29.5 10zM55 6c0 4 0.665039 5.99902 1.99805 5.99902
c19.333 0 33.5 1.66699 42.5 5s15.167 9.83301 18.5 19.5s5 24.5 5 44.5v189c0 24.667 -2.5 42.334 -7.5 53.001s-13.5 16 -25.5 16c-12.667 0 -28.667 -5 -48 -15h-1c-2.66699 0 -4.66699 1.66699 -6 5s-0.666016 5.66602 2.00098 6.99902l124 58l4 1
c1.33301 0 2.83301 -0.666992 4.5 -2s2.5 -3 2.5 -5c0 -4 -0.333008 -17.167 -1 -39.5s-1 -48.166 -1 -77.499v-190c0 -20 1.5 -34.833 4.5 -44.5s9 -16.167 18 -19.5s23.167 -5 42.5 -5c2 0 3 -2 3 -6s-1 -6 -3 -6c-15.333 -0 -27.333 0.333008 -36 1l-53 1l-52 -1
c-9.33301 -0.666992 -21.666 -1 -36.999 -1c-1.33301 0 -2 2 -2 6z" />
    <glyph glyph-name="j" unicode="j" horiz-adv-x="255" 
d="M97.5 526c-7 6.66699 -10.5 16 -10.5 28s3.5 21.333 10.5 28s16.833 10 29.5 10c12 0 21.333 -3.33301 28 -10s10 -16 10 -28s-3.33301 -21.333 -10 -28s-16 -10 -28 -10c-12.667 0 -22.5 3.33301 -29.5 10zM160 348.5
c-0.666992 -22.333 -0.999023 -48.168 -0.999023 -77.501v-319c0 -45.333 -4 -82.5 -12 -111.5s-21.5 -53.167 -40.5 -72.5s-45.167 -36 -78.5 -50c-1.33301 -0.666992 -2.83301 0.833008 -4.5 4.5s-1.83398 5.83398 -0.500977 6.50098c32.667 14 55.667 36.333 69 67
s20 75 20 133v341c0 24.667 -2.33301 42.334 -7 53.001s-13 16 -25 16c-12.667 0 -28.667 -5 -48 -15h-1c-3.33301 0 -5.5 1.66699 -6.5 5s-0.166992 5.66602 2.5 6.99902l124 58l3 1c4.66699 0 7 -2.33301 7 -7c0 -4 -0.333008 -17.167 -1 -39.5z" />
    <glyph glyph-name="k" unicode="k" horiz-adv-x="491" 
d="M482 6c0 -4 -0.668945 -6.00098 -2.00195 -6.00098c-15.333 0 -27.666 0.333008 -36.999 1l-52 1l-70 -1c-10.667 -0.666992 -25 -1 -43 -1c-1.33301 0 -2 2 -2 6s0.666992 6 2 6c18.667 0 32.167 1.5 40.5 4.5s12.5 7.83301 12.5 14.5c0 6 -3 13.333 -9 22l-125 173
l-58 -44v-101c0 -20 1.66699 -34.833 5 -44.5s9.5 -16.167 18.5 -19.5s23.167 -5 42.5 -5c1.33301 0 2 -2 2 -6s-0.666992 -6 -2 -6c-15.333 0 -27.666 0.333008 -36.999 1l-52 1l-53 -1c-8.66699 -0.666992 -20.667 -1 -36 -1c-2 0 -3 2 -3 6s1 6 3 6
c19.333 0 33.333 1.66699 42 5s14.667 9.83301 18 19.5s5 24.5 5 44.5v519c0 24.667 -2.33301 42.334 -7 53.001s-13 16 -25 16c-11.333 0 -27.333 -5 -48 -15h-2c-2.66699 0 -4.5 1.66699 -5.5 5s-0.166992 5.33301 2.5 6l120 59l5 1c1.33301 0 2.83301 -0.666992 4.5 -2
s2.5 -3 2.5 -5v-523l145 113c22.667 16.667 34 31 34 43c0 15.333 -21 23 -63 23c-2 0 -3 2 -3 6s1 6 3 6c18 0 31.667 -0.333008 41 -1l71 -1l66 1c8 0.666992 19.667 1 35 1c1.33301 0 2 -2 2 -6s-0.666992 -6 -2 -6c-50 0 -105.333 -23 -166 -69l-64 -49l125 -175
c32 -46 71 -69 117 -69c1.33301 0 2 -2 2 -6z" />
    <glyph glyph-name="l" unicode="l" horiz-adv-x="256" 
d="M38 6c0 4 1 5.99902 3 5.99902c19.333 0 33.333 1.66699 42 5s14.667 9.83301 18 19.5s5 24.5 5 44.5v519c0 24.667 -2.33301 42.334 -7 53.001s-13 16 -25 16c-10.667 0 -26.667 -5 -48 -15h-2c-2.66699 0 -4.5 1.66699 -5.5 5s-0.166992 5.33301 2.5 6l123 59
c1.33301 0.666992 3 1 5 1c1.33301 0 2.83301 -0.666992 4.5 -2s2.5 -3 2.5 -5v-637c0 -20 1.5 -34.667 4.5 -44s9 -15.833 18 -19.5s23.167 -5.5 42.5 -5.5c2 0 3 -2 3 -6s-1 -6 -3 -6c-14.667 -0 -26.667 0.333008 -36 1l-54 1l-54 -1
c-8.66699 -0.666992 -20.667 -1 -36 -1c-2 0 -3 2 -3 6z" />
    <glyph glyph-name="m" unicode="m" horiz-adv-x="760" 
d="M741 6c0 -4 -1.00098 -6 -3.00098 -6c-15.333 -0 -27.333 0.333008 -36 1l-53 1l-52 -1c-9.33301 -0.666992 -21.666 -1 -36.999 -1c-1.33301 0 -2 2 -2 6s0.666992 6 2 6c19.333 0 33.5 1.66699 42.5 5s15.167 9.83301 18.5 19.5s5 24.5 5 44.5v163
c0 40.667 -7.16699 70.667 -21.5 90s-36.833 29 -67.5 29c-20.667 0 -41.834 -6.16699 -63.501 -18.5s-41.5 -29.5 -59.5 -51.5c0.666992 -3.33301 1 -9.33301 1 -18v-194c0 -20 1.66699 -34.833 5 -44.5s9.5 -16.167 18.5 -19.5s23.167 -5 42.5 -5c1.33301 0 2 -2 2 -6
s-0.666992 -6 -2 -6c-15.333 -0 -27.666 0.333008 -36.999 1l-52 1l-53 -1c-8.66699 -0.666992 -20.667 -1 -36 -1c-2 0 -3 2 -3 6s1 6 3 6c19.333 0 33.333 1.66699 42 5s14.667 9.83301 18 19.5s5 24.5 5 44.5v163c0 40.667 -7.16699 70.667 -21.5 90s-36.5 29 -66.5 29
c-20.667 0 -41.667 -6 -63 -18s-41 -29 -59 -51v-213c0 -20 1.5 -34.833 4.5 -44.5s9 -16.167 18 -19.5s23.167 -5 42.5 -5c2 0 3 -2 3 -6s-1 -6 -3 -6c-15.333 -0 -27.333 0.333008 -36 1l-52 1l-53 -1c-8.66699 -0.666992 -20.667 -1 -36 -1c-2 0 -3 2 -3 6s1 6 3 6
c19.333 0 33.333 1.66699 42 5s14.667 9.83301 18 19.5s5 24.5 5 44.5v200c0 23.333 -2.66699 40 -8 50s-14.666 15 -27.999 15c-10.667 0 -29.334 -5 -56.001 -15h-2c-2.66699 0 -4.5 1.5 -5.5 4.5s-0.166992 5.16699 2.5 6.5l111 52c1.33301 0.666992 3 1 5 1
c5.33301 0 11.333 -7.5 18 -22.5s10 -34.167 10 -57.5v-4c24.667 30 49 51.667 73 65s49 20 75 20c30 0 54.167 -7.5 72.5 -22.5s29.833 -37.167 34.5 -66.5c25.333 31.333 50.333 54 75 68s50 21 76 21c35.333 0 62.333 -10 81 -30s28 -50.333 28 -91v-194
c0 -20 1.5 -34.833 4.5 -44.5s9 -16.167 18 -19.5s23.167 -5 42.5 -5c2 0 3 -2 3 -6z" />
    <glyph glyph-name="n" unicode="n" horiz-adv-x="515" 
d="M495 6c0 -4 -1.00293 -6.00195 -3.00293 -6.00195c-15.333 0 -27.333 0.333008 -36 1l-52 1l-53 -1c-8.66699 -0.666992 -20.667 -1 -36 -1c-2 0 -3 2 -3 6s1 6 3 6c19.333 0 33.333 1.66699 42 5s14.667 9.83301 18 19.5s5 24.5 5 44.5v167
c0 40.667 -7.66699 70.334 -23 89.001s-39.333 28 -72 28c-21.333 0 -43.166 -6.16699 -65.499 -18.5s-42.833 -29.166 -61.5 -50.499v-215c0 -20 1.5 -34.833 4.5 -44.5s9 -16.167 18 -19.5s23.167 -5 42.5 -5c2 0 3 -2 3 -6s-1 -6 -3 -6
c-15.333 -0 -27.333 0.333008 -36 1l-52 1l-53 -1c-8.66699 -0.666992 -20.667 -1 -36 -1c-2 0 -3 2 -3 6s1 6 3 6c19.333 0 33.333 1.66699 42 5s14.667 9.83301 18 19.5s5 24.5 5 44.5v200c0 23.333 -2.66699 40 -8 50s-14.666 15 -27.999 15
c-10.667 0 -29.334 -5 -56.001 -15h-2c-2.66699 0 -4.5 1.5 -5.5 4.5s-0.166992 5.16699 2.5 6.5l111 52c1.33301 0.666992 3 1 5 1c5.33301 0 11.333 -7.5 18 -22.5s10 -34.167 10 -57.5v-4c26.667 30.667 52.334 53 77.001 67s50.334 21 77.001 21
c37.333 0 65.833 -10 85.5 -30s29.5 -50.333 29.5 -91v-197c0 -20 1.5 -34.833 4.5 -44.5s9 -16.167 18 -19.5s23.167 -5 42.5 -5c2 0 3 -2 3 -6z" />
    <glyph glyph-name="o" unicode="o" horiz-adv-x="477" 
d="M129 15.5c-29.333 19 -52 44.667 -68 77s-24 67.5 -24 105.5c0 43.333 10.5 80.166 31.5 110.499s47.667 53 80 68s65.5 22.5 99.5 22.5c38.667 0 72.5 -9.66699 101.5 -29s51.333 -44.833 67 -76.5s23.5 -65.167 23.5 -100.5c0 -41.333 -9.5 -77.666 -28.5 -108.999
s-44.5 -55.333 -76.5 -72s-67 -25 -105 -25s-71.667 9.5 -101 28.5zM349 44c22 26 33 66.999 33 122.999c0 40 -7 76.167 -21 108.5s-33.667 57.833 -59 76.5s-54.333 28 -87 28c-38 0 -67.667 -13.167 -89 -39.5s-32 -64.166 -32 -113.499c0 -40 7 -76.833 21 -110.5
s33.333 -60.667 58 -81s53 -30.5 85 -30.5c38.667 0 69 13 91 39z" />
    <glyph glyph-name="p" unicode="p" horiz-adv-x="510" 
d="M394 377c23.333 -14.667 41.834 -35.835 55.501 -63.502s20.5 -60.5 20.5 -98.5c0 -49.333 -11.333 -91.166 -34 -125.499s-50.667 -60 -84 -77s-65.333 -25.5 -96 -25.5c-22 0 -41.667 2.33301 -59 7s-34.666 13 -51.999 25v-213c0 -20 2.66699 -34.667 8 -44
s15 -15.833 29 -19.5s36 -5.5 66 -5.5c1.33301 0 2 -2 2 -6s-0.666992 -6 -2 -6c-22.667 0 -40.334 0.333008 -53.001 1l-72 1l-54 -1c-8.66699 -0.666992 -20.667 -1 -36 -1c-2 0 -3 2 -3 6s1 6 3 6c18.667 0 32.5 1.83301 41.5 5.5s15.167 10.167 18.5 19.5s5 24 5 44v472
c0 24.667 -2.66699 42.334 -8 53.001s-15 16 -29 16c-16 0 -34.333 -5 -55 -15h-2c-2.66699 0 -4.5 1.5 -5.5 4.5s-0.166992 5.16699 2.5 6.5l103 49l8 2c10 0 18 -7.5 24 -22.5s9 -36.5 9 -64.5c30 32 59 55.333 87 70s56.667 22 86 22
c27.333 0 52.666 -7.33301 75.999 -22zM353.001 28.499c19.333 14.333 34.5029 34.833 45.5029 61.5s16.5 58 16.5 94c0 57.333 -12.5 102 -37.5 134s-56.833 48 -95.5 48c-25.333 0 -48.833 -6.5 -70.5 -19.5s-43.834 -31.5 -66.501 -55.5v-217
c19.333 -22 40.166 -38.667 62.499 -50s49.5 -17 81.5 -17c23.333 0 44.666 7.16699 63.999 21.5z" />
    <glyph glyph-name="q" unicode="q" horiz-adv-x="484" 
d="M470 -269c0 -4 -0.666992 -5.99902 -2 -5.99902c-16 0 -28.333 0.333008 -37 1l-53 1l-57 -1c-10.667 -0.666992 -25.667 -1 -45 -1c-1.33301 0 -2 2 -2 6s0.666992 6 2 6c23.333 0 40.5 1.83301 51.5 5.5s18.5 10.167 22.5 19.5s6 24 6 44v270
c-24.667 -26.667 -50.167 -48.167 -76.5 -64.5s-55.833 -24.5 -88.5 -24.5c-28 0 -53.667 7.33301 -77 22s-42 35.834 -56 63.501s-21 60.5 -21 98.5c0 53.333 10.833 97.166 32.5 131.499s48.834 59 81.501 74s66.667 22.5 102 22.5c42 0 85 -11.333 129 -34l64 23l2 1
c2 0 3.33301 -1.5 4 -4.5s0 -4.83301 -2 -5.5c-16 -10 -28 -21.333 -36 -34s-12 -29.334 -12 -50.001v-489c0 -20 1.66699 -34.667 5 -44s9.66602 -15.833 18.999 -19.5s23.333 -5.5 42 -5.5c1.33301 0 2 -2 2 -6zM289.5 35.501c21.667 13.667 43.833 32.833 66.5 57.5v177
c0 33.333 -12.333 60 -37 80s-57.667 30 -99 30c-84 0 -126 -59.333 -126 -178c0 -58 11.667 -103.667 35 -137s54 -50 92 -50c24 0 46.833 6.83301 68.5 20.5z" />
    <glyph glyph-name="r" unicode="r" horiz-adv-x="360" 
d="M310.5 383.5c13 -7.66699 19.4971 -16.501 19.4971 -26.501c0 -6.66699 -2.5 -12.667 -7.5 -18s-12.167 -8 -21.5 -8c-6.66699 0 -12.667 1.83301 -18 5.5s-8.66602 5.83398 -9.99902 6.50098c-12.667 10 -25.334 15 -38.001 15c-9.33301 0 -19.166 -4 -29.499 -12
s-26.166 -25 -47.499 -51v-214c0 -20 2.33301 -34.833 7 -44.5s13.834 -16.167 27.501 -19.5s35.5 -5 65.5 -5c2 0 3 -2 3 -6s-1 -6 -3 -6c-21.333 -0 -38.333 0.333008 -51 1l-72 1l-53 -1c-8.66699 -0.666992 -20.667 -1 -36 -1c-2 0 -3 2 -3 6s1 6 3 6
c19.333 0 33.333 1.66699 42 5s14.667 9.83301 18 19.5s5 24.5 5 44.5v200c0 23.333 -2.66699 40 -8 50s-14.666 15 -27.999 15c-10.667 0 -29.334 -5 -56.001 -15h-2c-2.66699 0 -4.5 1.5 -5.5 4.5s-0.166992 5.16699 2.5 6.5l111 52c1.33301 0.666992 3 1 5 1
c5.33301 0 11.333 -7.5 18 -22.5s10 -34.167 10 -57.5v-6c27.333 33.333 49 56 65 68s31.333 18 46 18s28.5 -3.83301 41.5 -11.5z" />
    <glyph glyph-name="s" unicode="s" horiz-adv-x="338" 
d="M119 264.5c15.333 -13.667 38.6621 -28.1621 69.9951 -43.4951c22.667 -11.333 40.667 -21.333 54 -30s24.666 -19.834 33.999 -33.501s14 -30.167 14 -49.5c0 -33.333 -12.5 -61.5 -37.5 -84.5s-59.167 -34.5 -102.5 -34.5c-35.333 0 -66.666 10.333 -93.999 31
c-4 2.66699 -6 6.66699 -6 12l-2 72c0 2 1.83301 3.16699 5.5 3.5s5.83398 -0.5 6.50098 -2.5c12.667 -33.333 28.834 -57.833 48.501 -73.5s43.167 -23.5 70.5 -23.5c22.667 0 40 5 52 15s18 24.667 18 44s-4.16699 35.5 -12.5 48.5s-18.666 23.5 -30.999 31.5
s-29.166 17 -50.499 27c-22 10.667 -39.5 20.167 -52.5 28.5s-24 19.5 -33 33.5s-13.5 31.333 -13.5 52c0 35.333 13.333 62.666 40 81.999s58 29 94 29c24.667 0 48.334 -5 71.001 -15c4 -2 6.5 -3.66699 7.5 -5s1.5 -3.33301 1.5 -6c0 -12.667 -0.333008 -22.667 -1 -30
l-1 -39c0 -1.33301 -2 -2 -6 -2s-6 0.666992 -6 2c0 21.333 -11 39.166 -33 53.499s-45.333 21.5 -70 21.5c-18 0 -32.167 -4.83301 -42.5 -14.5s-15.5 -23.834 -15.5 -42.501c0 -24.667 7.66699 -43.834 23 -57.501z" />
    <glyph glyph-name="t" unicode="t" horiz-adv-x="339" 
d="M308 47c2 0 3.66797 -1.50293 5.00098 -4.50293s1 -5.16699 -1 -6.5c-24.667 -17.333 -46.334 -29.666 -65.001 -36.999s-38 -11 -58 -11c-27.333 0 -49.666 6.16699 -66.999 18.5s-26 32.833 -26 61.5v238c0 18 -1.16699 30.5 -3.5 37.5s-6.83301 11.667 -13.5 14
s-18.334 3.5 -35.001 3.5c-2 0 -3 2 -3 6s1 6 3 6c25.333 0 45.833 7 61.5 21s23.5 31.667 23.5 53c0 2 2.66699 3 8 3c4.66699 0 7 -1 7 -3v-73c45.333 0.666992 92.333 4 141 10c2 0 3.66699 -2.16699 5 -6.5s2 -9.83301 2 -16.5c0 -5.33301 -1 -10.666 -3 -15.999
s-4.33301 -7.66602 -7 -6.99902c-40 10 -86 15 -138 15v-251c0 -55.333 27 -83 81 -83c30.667 0 57.667 9 81 27z" />
    <glyph glyph-name="u" unicode="u" horiz-adv-x="490" 
d="M484 55c2.66699 0 4.49902 -1.49902 5.49902 -4.49902s0.166992 -5.16699 -2.5 -6.5l-112 -52l-4 -1c-6 0 -12.167 7.5 -18.5 22.5s-9.5 34.167 -9.5 57.5v9c-27.333 -30.667 -54.333 -52.834 -81 -66.501s-54 -20.5 -82 -20.5c-32.667 0 -58.167 10.333 -76.5 31
s-27.5 51 -27.5 91v155c0 27.333 -2.16699 46.833 -6.5 58.5s-11.833 17.5 -22.5 17.5c-10 0 -22 -3.33301 -36 -10h-2c-2.66699 0 -4.5 1.66699 -5.5 5s-0.166992 5.33301 2.5 6l105 47l4 1c1.33301 0 3 -0.666992 5 -2s3 -3 3 -5v-243c0 -40 7 -69.667 21 -89
s35 -29 63 -29c23.333 0 47 6.16699 71 18.5s45.667 29.5 65 51.5v173c0 27.333 -2.16699 46.833 -6.5 58.5s-12.166 17.5 -23.499 17.5c-10 0 -22 -3.33301 -36 -10h-2c-2.66699 0 -4.33398 1.66699 -5.00098 5s0.333008 5.33301 3 6l105 47l3 1
c2 0 3.83301 -0.666992 5.5 -2s2.5 -3 2.5 -5v-283c0 -22.667 2.83301 -39.167 8.5 -49.5s15.167 -15.5 28.5 -15.5c6.66699 0 14.834 1.5 24.501 4.5s20.167 6.5 31.5 10.5h2z" />
    <glyph glyph-name="v" unicode="v" horiz-adv-x="433" 
d="M427 380c0 -4 -0.663086 -6 -1.99609 -6c-16.667 0 -30.334 -4.83301 -41.001 -14.5s-21.334 -27.834 -32.001 -54.501l-125 -304c-0.666992 -2.66699 -4.33398 -4 -11.001 -4s-10.334 1.33301 -11.001 4l-137 302c-13.333 29.333 -24.166 48.5 -32.499 57.5
s-18.833 13.5 -31.5 13.5c-2 0 -3 2 -3 6s1 6 3 6c13.333 0 23.666 -0.333008 30.999 -1l30 -1l63 1c9.33301 0.666992 22 1 38 1c2 0 3 -2 3 -6s-1 -6 -3 -6c-40.667 0 -61 -8 -61 -24c0 -4.66699 1.33301 -9.66699 4 -15l124 -271l102 247c4 11.333 6 20.333 6 27
c0 12.667 -6.5 21.834 -19.5 27.501s-34.167 8.5 -63.5 8.5c-1.33301 0 -2 2 -2 6s0.666992 6 2 6c18 0 31.667 -0.333008 41 -1l60 -1l35 1c6.66699 0.666992 17 1 31 1c1.33301 0 2 -2 2 -6z" />
    <glyph glyph-name="w" unicode="w" horiz-adv-x="667" 
d="M661 380c0 -4 -0.999023 -5.99805 -2.99902 -5.99805c-16.667 0 -30.5 -5 -41.5 -15s-21.167 -28 -30.5 -54l-112 -304c0 -2.66699 -3.66699 -4 -11 -4c-6 0 -10 1.33301 -12 4l-134 315l-106 -315c-0.666992 -2.66699 -4.33398 -4 -11.001 -4c-6 0 -10 1.33301 -12 4
l-120 302c-12 28.667 -22.5 47.667 -31.5 57s-19.833 14 -32.5 14c-2 0 -3 2 -3 6s1 6 3 6c13.333 0 23.666 -0.333008 30.999 -1l30 -1l58 1c10 0.666992 24.333 1 43 1c2 0 3 -2 3 -6s-1 -6 -3 -6c-19.333 0 -34 -1.83301 -44 -5.5s-15 -9.83398 -15 -18.501
c0 -4 1 -9 3 -15l105 -264l105 315c2 2.66699 6 4 12 4c6.66699 0 10.334 -1.33301 11.001 -4l136 -321l89 246c4 11.333 6 20.666 6 27.999c0 12.667 -6.33301 21.667 -19 27s-33.667 8 -63 8c-1.33301 0 -2 2 -2 6s0.666992 6 2 6c18 0 31.667 -0.333008 41 -1l60 -1l35 1
c6 0.666992 16 1 30 1c2 0 3 -2 3 -6z" />
    <glyph glyph-name="x" unicode="x" horiz-adv-x="439" 
d="M427 6c0 -4 -0.667969 -6 -2.00098 -6l-32 1c-6.66699 0.666992 -16.667 1 -30 1l-63 -1c-9.33301 -0.666992 -22 -1 -38 -1c-2 0 -3 2 -3 6s1 6 3 6c12.667 0 21.834 0.833008 27.501 2.5s8.5 4.83398 8.5 9.50098c0 4 -4.33301 13 -13 27l-79 119l-66 -95
c-5.33301 -8 -9.83301 -15.5 -13.5 -22.5s-5.5 -13.167 -5.5 -18.5c0 -14.667 20 -22 60 -22c2 0 3 -2 3 -6s-1 -6 -3 -6c-18 0 -31.333 0.333008 -40 1l-60 1l-35 -1c-6.66699 -0.666992 -17 -1 -31 -1c-1.33301 0 -2 2 -2 6s0.666992 6 2 6
c16.667 0 34.834 5.83301 54.501 17.5s37.5 28.834 53.5 51.501l74 103l-79 119c-16.667 25.333 -34 43.5 -52 54.5s-34.667 16.5 -50 16.5c-1.33301 0 -2 2 -2 6s0.666992 6 2 6c14 0 24.333 -0.333008 31 -1l31 -1l63 1c9.33301 0.666992 22 1 38 1c1.33301 0 2 -2 2 -6
s-0.666992 -6 -2 -6c-12.667 0 -21.834 -0.833008 -27.501 -2.5s-8.5 -4.83398 -8.5 -9.50098c0 -4 4.33301 -13 13 -27l72 -109l57 85c14 19.333 21 33.333 21 42c0 7.33301 -4.66699 12.666 -14 15.999s-25.333 5 -48 5c-1.33301 0 -2 2 -2 6s0.666992 6 2 6
c18 0 31.667 -0.333008 41 -1l60 -1l35 1c6.66699 0.666992 17 1 31 1c1.33301 0 2 -2 2 -6s-0.666992 -6 -2 -6c-17.333 0 -35.333 -5.5 -54 -16.5s-36.667 -28.5 -54 -52.5l-67 -91l87 -131c16.667 -25.333 34 -43.5 52 -54.5s34.667 -16.5 50 -16.5c1.33301 0 2 -2 2 -6z
" />
    <glyph glyph-name="y" unicode="y" horiz-adv-x="481" 
d="M398 393c2 -1.33301 3 -2.99902 3 -4.99902v-458c0 -62.667 -17.167 -113.5 -51.5 -152.5s-82.5 -58.5 -144.5 -58.5c-36 0 -66.167 7.33301 -90.5 22s-36.5 32.667 -36.5 54c0 9.33301 2.66699 16.166 8 20.499s11.666 6.5 18.999 6.5
c6.66699 0 12.667 -2.16699 18 -6.5s11.333 -11.166 18 -20.499c14 -17.333 28.167 -30.833 42.5 -40.5s35.5 -14.5 63.5 -14.5c32.667 0 58.667 12 78 36s29 67.333 29 130v174c-27.333 -30 -54.166 -52 -80.499 -66s-53.5 -21 -81.5 -21c-33.333 0 -59 10.333 -77 31
s-27 51 -27 91v155c0 27.333 -2.16699 46.833 -6.5 58.5s-12.166 17.5 -23.499 17.5c-10 0 -22 -3.33301 -36 -10h-2c-2.66699 0 -4.33398 1.66699 -5.00098 5s0.333008 5.33301 3 6l105 47l3 1c2 0 4 -0.666992 6 -2s3 -3 3 -5v-243c0 -40 7 -69.667 21 -89s35 -29 63 -29
c22.667 0 46 6.16699 70 18.5s45.667 29.166 65 50.499v174c0 27.333 -2.16699 46.833 -6.5 58.5s-11.833 17.5 -22.5 17.5c-10 0 -22 -3.33301 -36 -10h-2c-2.66699 0 -4.5 1.66699 -5.5 5s-0.166992 5.33301 2.5 6l105 47l4 1c1.33301 0 3 -0.666992 5 -2z" />
    <glyph glyph-name="z" unicode="z" horiz-adv-x="405" 
d="M288 367c2.66699 4.66699 1.00293 6.99902 -4.99707 6.99902c-56.667 0 -99.167 -1.83301 -127.5 -5.5s-50.166 -11.5 -65.499 -23.5s-26.666 -30.667 -33.999 -56c0 -1.33301 -1.33301 -2 -4 -2c-2 0 -4 0.5 -6 1.5s-2.66699 1.83301 -2 2.5l32 122
c0.666992 1.33301 3 1.83301 7 1.5s5.66699 -1.16602 5 -2.49902c-2.66699 -10 -0.5 -16.833 6.5 -20.5s20.5 -5.5 40.5 -5.5h207c2.66699 0 5 -1.33301 7 -4s2.33301 -5.33398 1 -8.00098l-238 -353c-2.66699 -4.66699 -1 -7 5 -7c72.667 0 122.167 1.5 148.5 4.5
s45.166 10.5 56.499 22.5s22.666 34.667 33.999 68c0.666992 1.33301 2.66699 2 6 2s5 -0.666992 5 -2l-2 -98c0 -2.66699 -0.833008 -5.16699 -2.5 -7.5s-3.83398 -3.5 -6.50098 -3.5h-305c-2.66699 0 -4.83398 1.33301 -6.50098 4s-1.83398 5.33398 -0.500977 8.00098z
" />
    <glyph glyph-name="braceleft" unicode="{" horiz-adv-x="289" 
d="M29 304.5c0 4.33301 1.00098 6.50098 3.00098 6.50098c34 4 56.667 25.667 68 65s17 90.333 17 153c0 57.333 3.66699 99.5 11 126.5s20 45.333 38 55s46 14.5 84 14.5c2.66699 0 4 -2 4 -6s-1.33301 -6 -4 -6c-25.333 0 -45 -9.16699 -59 -27.5s-21.667 -44.5 -23 -78.5
c-1.33301 -82 -4 -139.5 -8 -172.5s-12.833 -59 -26.5 -78s-37.834 -36.167 -72.501 -51.5c34 -16 58 -33.833 72 -53.5s23 -46 27 -79s6.66699 -90.167 8 -171.5c1.33301 -34 9 -60.167 23 -78.5s33.667 -27.5 59 -27.5c2.66699 0 4 -2 4 -6s-1.33301 -6 -4 -6
c-38.667 0 -67.167 4.83301 -85.5 14.5s-30.833 28.167 -37.5 55.5s-10 69.666 -10 126.999c0 63.333 -5.66699 114.5 -17 153.5s-34 60.5 -68 64.5c-2 0 -3 2.16699 -3 6.5z" />
    <glyph glyph-name="bar" unicode="|" horiz-adv-x="168" 
d="M67 731c0 4.66699 6.33398 7 19.001 7c12 0 18 -2.33301 18 -7v-885c0 -2.66699 -1.83301 -4.66699 -5.5 -6s-7.83398 -2 -12.501 -2c-5.33301 0 -9.83301 0.666992 -13.5 2s-5.5 3.33301 -5.5 6v885z" />
    <glyph glyph-name="braceright" unicode="}" horiz-adv-x="283" 
d="M183 233.5c-11.333 -39 -16.999 -90.168 -16.999 -153.501c0 -57.333 -3.33301 -99.666 -10 -126.999s-19.167 -45.833 -37.5 -55.5s-46.833 -14.5 -85.5 -14.5c-2.66699 0 -4 2 -4 6s1.33301 6 4 6c25.333 0 45 9.16699 59 27.5s21.667 44.5 23 78.5
c1.33301 81.333 4 138.5 8 171.5s13 59.333 27 79s38 37.5 72 53.5c-34.667 15.333 -58.834 32.5 -72.501 51.5s-22.5 45 -26.5 78s-6.66699 90.5 -8 172.5c-1.33301 34 -9 60.167 -23 78.5s-33.667 27.5 -59 27.5c-2.66699 0 -4 2 -4 6s1.33301 6 4 6
c38 0 66 -4.83301 84 -14.5s30.667 -28 38 -55s11 -69.167 11 -126.5c0 -62.667 5.66699 -113.667 17 -153s34 -61 68 -65c2 0 3 -2.16699 3 -6.5s-1 -6.5 -3 -6.5c-34 -4 -56.667 -25.5 -68 -64.5z" />
    <glyph glyph-name="asciitilde" unicode="~" horiz-adv-x="443" 
d="M357.5 204c10.333 6.66699 20.8369 16.332 31.5039 28.999h1c2 0 3.83301 -0.833008 5.5 -2.5s1.83398 -3.16699 0.500977 -4.5c-22.667 -27.333 -41.334 -45.666 -56.001 -54.999s-30.667 -14 -48 -14c-12.667 0 -24.834 1.5 -36.501 4.5s-25.834 7.5 -42.501 13.5
c-17.333 6 -32 10.5 -44 13.5s-25 4.5 -39 4.5c-16 0 -28.167 -2.33301 -36.5 -7s-16.166 -10.5 -23.499 -17.5l-15 -14.5h-1c-1.33301 0 -2.83301 0.833008 -4.5 2.5s-2.16699 3.16699 -1.5 4.5c37.333 46 74.333 69 111 69c9.33301 0 20 -1.66699 32 -5s24 -7 36 -11
c17.333 -6.66699 32.666 -11.667 45.999 -15s26.666 -5 39.999 -5c19.333 0 34.166 3.33301 44.499 10z" />
    <glyph glyph-name="uni00A0" unicode="&#xa0;" horiz-adv-x="234" 
 />
    <glyph glyph-name="exclamdown" unicode="&#xa1;" horiz-adv-x="243" 
d="M154 354.5c7.33301 -7 11 -16.5 11 -28.5c0 -11.333 -3.66699 -20.333 -11 -27s-17 -10 -29 -10c-12.667 0 -22.334 3.33301 -29.001 10s-10 15.667 -10 27c0 12 3.33301 21.5 10 28.5s16.334 10.5 29.001 10.5c12 0 21.667 -3.5 29 -10.5zM148.5 -272.5
c-8.33301 -1.66699 -17.501 -2.5 -27.501 -2.5s-19.167 0.833008 -27.5 2.5s-12.166 3.5 -11.499 5.5c10 58 17.333 120 22 186s9.33398 148 14.001 246c0 1.33301 1.66699 2 5 2s5 -0.666992 5 -2c3.33301 -96 7.16602 -177.5 11.499 -244.5s11.5 -129.5 21.5 -187.5
c0 -2 -4.16699 -3.83301 -12.5 -5.5z" />
    <glyph glyph-name="cent" unicode="&#xa2;" horiz-adv-x="540" 
d="M489 143c1.33301 0 2.83105 -0.499023 4.49805 -1.49902s2.5 -1.83301 2.5 -2.5l-14 -106c-0.666992 -5.33301 -1.66699 -9 -3 -11s-5 -4.33301 -11 -7c-51.333 -18 -104.666 -27 -159.999 -27h-11v-90c0 -4.66699 -3.33301 -7 -10 -7s-10 2.33301 -10 7v91
c-55.333 4.66699 -101 19.834 -137 45.501s-62.167 56.5 -78.5 92.5s-24.5 72.333 -24.5 109c0 42 10.333 80.5 31 115.5s49.334 63.667 86.001 86s77.667 35.833 123 40.5v83c0 2.66699 1 4.66699 3 6s4.33301 2 7 2s5 -0.666992 7 -2s3 -3.33301 3 -6v-81h15
c25.333 0 52.5 -2.5 81.5 -7.5s52.5 -12.167 70.5 -21.5c4.66699 -2 7.66699 -4 9 -6s2.33301 -5.66699 3 -11l11 -103c0 -2 -1.83301 -3.33301 -5.5 -4s-5.83398 0.333008 -6.50098 3c-8.66699 45.333 -28.5 79.166 -59.5 101.499s-70.5 34.166 -118.5 35.499v-466
c4.66699 -0.666992 11.334 -1 20.001 -1c42 0 77.667 11.5 107 34.5s49.333 58.167 60 105.5c0 2 1.66699 3 5 3zM117.498 142.001c13.667 -35.333 34.167 -65.501 61.5 -90.501s60 -41.167 98 -48.5v464c-34 -2 -64.667 -12.667 -92 -32s-48.833 -45 -64.5 -77
s-23.5 -67.667 -23.5 -107c0 -37.333 6.83301 -73.666 20.5 -108.999z" />
    <glyph glyph-name="sterling" unicode="&#xa3;" horiz-adv-x="502" 
d="M444.5 124.5c3.66699 -0.333008 5.50293 -1.16895 5.50293 -2.50195c-6 -42 -9 -77.667 -9 -107c0 -5.33301 -1.16699 -9.16602 -3.5 -11.499s-6.16602 -3.5 -11.499 -3.5h-378c-2 0 -3 1.83301 -3 5.5s1 5.83398 3 6.50098c34 14 57.167 30.833 69.5 50.5
s18.5 49.834 18.5 90.501c0 26 -1.66699 49.167 -5 69.5s-8.33301 42.833 -15 67.5h-61c-2 0 -3.66699 1 -5 3s-2 4.33301 -2 7s0.666992 5 2 7s3 3 5 3h56c-6 22.667 -10.667 42.667 -14 60s-5 36.333 -5 57c0 47.333 8.66699 86.666 26 117.999s40.333 54.333 69 69
s60 22 94 22c36 0 73.667 -8 113 -24c10 -4 15 -9.66699 15 -17l9 -106c0 -2.66699 -1.83301 -4 -5.5 -4s-5.83398 1.33301 -6.50098 4c-2 21.333 -8.16699 42.166 -18.5 62.499s-25.5 37.333 -45.5 51s-44 20.5 -72 20.5c-44 0 -76 -16.167 -96 -48.5s-30 -71.5 -30 -117.5
c0 -21.333 2 -41.5 6 -60.5s9.66699 -40.833 17 -65.5l6 -21h147c2.66699 0 4.66699 -1 6 -3s2 -4.33301 2 -7s-0.666992 -5 -2 -7s-3.33301 -3 -6 -3h-142c8.66699 -30 13 -60 13 -90c0 -39.333 -6.33301 -70.166 -19 -92.499s-30.667 -44.833 -54 -67.5h204
c29.333 0 51.166 2 65.499 6s25.166 11.667 32.499 23s13.666 29.333 18.999 54c0 1.33301 1.83301 1.83301 5.5 1.5z" />
    <glyph glyph-name="currency" unicode="&#xa4;" horiz-adv-x="414" 
d="M335 37l-48.001 53.999c-27.333 -17.333 -57.666 -26 -90.999 -26c-29.333 0 -54.333 7.33301 -75 22l-44 -50l-21 21l44 46c-12.667 12.667 -22.334 27.667 -29.001 45s-10 35 -10 53c0 36.667 13.333 67.334 40 92.001l-50 50l26 23l50 -54
c26.667 14.667 54.667 22 84 22c28.667 0 55.334 -8 80.001 -24l49 53l20 -20l-49 -50c25.333 -25.333 38 -56.333 38 -93c0 -34 -12.333 -64 -37 -90l49 -49zM274.499 106.999c15 17.333 22.5 41.666 22.5 72.999c0 37.333 -9.83301 69.833 -29.5 97.5
s-46.167 41.5 -79.5 41.5c-24 0 -43 -8.16699 -57 -24.5s-21 -40.166 -21 -71.499c0 -36.667 9 -69.5 27 -98.5s44 -43.5 78 -43.5c24.667 0 44.5 8.66699 59.5 26z" />
    <glyph glyph-name="yen" unicode="&#xa5;" horiz-adv-x="607" 
d="M613 619c0 -4 -0.666016 -5.99902 -1.99902 -5.99902c-24.667 0 -48.667 -7.83301 -72 -23.5s-44.333 -37.834 -63 -66.501l-141 -214v-13h104c4.66699 0 7 -3.33301 7 -10s-2.33301 -10 -7 -10h-266c-2 0 -3.66699 1 -5 3s-2 4.33301 -2 7s0.666992 5 2 7s3 3 5 3h108
l-170 246c-18.667 26 -36.167 44.333 -52.5 55s-36.5 16 -60.5 16c-2 0 -3 2 -3 6s1 6 3 6l37 -1c16 -1.33301 28 -2 36 -2c22 0 49 0.666992 81 2l52 1c1.33301 0 2 -2 2 -6s-0.666992 -6 -2 -6c-20 0 -34.5 -1.5 -43.5 -4.5s-13.5 -7.83301 -13.5 -14.5
c0 -4 3.33301 -11 10 -21l168 -241l128 194c14.667 24 22 42.333 22 55c0 21.333 -18 32 -54 32c-1.33301 0 -2 2 -2 6s0.666992 6 2 6l45 -1c25.333 -1.33301 47.666 -2 66.999 -2c11.333 0 25 0.666992 41 2l37 1c1.33301 0 2 -2 2 -6zM446.001 216.001
c0 -6.66699 -2.33301 -10.001 -7 -10.001h-104v-125c0 -20.667 2 -35.667 6 -45s12 -15.666 24 -18.999s31.333 -5 58 -5c2 0 3 -2 3 -6s-1 -6 -3 -6c-20 0 -35.667 0.333008 -47 1l-68 1l-68 -1c-12 -0.666992 -28 -1 -48 -1c-2 0 -3 2 -3 6s1 6 3 6
c26 0 45.167 1.66699 57.5 5s20.833 9.83301 25.5 19.5s7 24.5 7 44.5v125h-109c-2 0 -3.66699 1 -5 3s-2 4.33301 -2 7s0.666992 5 2 7s3 3 5 3h266c4.66699 0 7 -3.33301 7 -10z" />
    <glyph glyph-name="brokenbar" unicode="&#xa6;" horiz-adv-x="168" 
d="M67 731c0 4.66699 6.33398 7 19.001 7c12 0 18 -2.33301 18 -7v-371c0 -2 -1.83301 -3.66699 -5.5 -5s-7.83398 -2 -12.501 -2c-5.33301 0 -9.83301 0.666992 -13.5 2s-5.5 3 -5.5 5v371zM67.001 216c0 2.66699 1.83301 4.66699 5.5 6s8.16699 2 13.5 2
c4.66699 0 8.83398 -0.666992 12.501 -2s5.5 -3.33301 5.5 -6v-370c0 -2.66699 -1.83301 -4.66699 -5.5 -6s-7.83398 -2 -12.501 -2c-5.33301 0 -9.83301 0.666992 -13.5 2s-5.5 3.33301 -5.5 6v370z" />
    <glyph glyph-name="section" unicode="&#xa7;" horiz-adv-x="429" 
d="M351 -56c0 -43.333 -14.4961 -76.1709 -43.4961 -98.5039s-63.5 -33.5 -103.5 -33.5c-34.667 0 -64 6 -88 18c-7.33301 4.66699 -11.333 10.334 -12 17.001l-7 93c0 2 2 3 6 3s6 -1 6 -3c2 -15.333 9.33301 -31.166 22 -47.499s28.667 -30 48 -41s40 -16.5 62 -16.5
c20.667 0 37.667 6 51 18s20 31 20 57c0 20 -4.83301 37.833 -14.5 53.5s-21.334 28.834 -35.001 39.501s-33.5 24.667 -59.5 42c-28.667 18.667 -51.834 35.167 -69.501 49.5s-32.667 32.333 -45 54s-18.5 47.167 -18.5 76.5c0 26 4.5 48.5 13.5 67.5
s26.167 40.5 51.5 64.5c-24 24 -36 51.667 -36 83c0 42.667 14.333 75.334 43 98.001s62.667 34 102 34c35.333 0 64.666 -6.33301 87.999 -19c7.33301 -3.33301 11 -8.66602 11 -15.999l8 -94c0 -1.33301 -2 -2 -6 -2s-6 0.666992 -6 2c-2 16 -9.33301 32.167 -22 48.5
s-28.667 30 -48 41s-40 16.5 -62 16.5c-20 0 -36.5 -6 -49.5 -18s-19.5 -31 -19.5 -57c0 -20 4.66699 -37.833 14 -53.5s20.833 -28.834 34.5 -39.501s33.167 -24.667 58.5 -42c28 -18.667 50.5 -35.167 67.5 -49.5s31.5 -32.333 43.5 -54s18 -47.167 18 -76.5
c0 -25.333 -4.33301 -47.333 -13 -66s-25.334 -40 -50.001 -64c26.667 -24.667 40 -53 40 -85zM129.004 181.495c12 -21 26.335 -38.499 43.002 -52.499s39.667 -30.333 69 -49c31.333 -20.667 51.666 -35 60.999 -43c20.667 22 31 52 31 90
c0 28.667 -5.83301 53.667 -17.5 75s-26 39.166 -43 53.499s-39.167 30.5 -66.5 48.5l-26.5 18c-13.667 9.33301 -25.5 18.333 -35.5 27c-12.667 -13.333 -21.334 -27.5 -26.001 -42.5s-7 -31.833 -7 -50.5c0 -28.667 6 -53.5 18 -74.5z" />
    <glyph glyph-name="dieresis" unicode="&#xa8;" horiz-adv-x="322" 
d="M44.5 491c-7 6.66699 -10.5 16 -10.5 28s3.5 21.333 10.5 28s16.833 10 29.5 10c12 0 21.333 -3.33301 28 -10s10 -16 10 -28s-3.33301 -21.333 -10 -28s-16 -10 -28 -10c-12.667 0 -22.5 3.33301 -29.5 10zM220 491c-7.33301 6.66699 -11 16 -11 28
s3.66699 21.333 11 28s17 10 29 10c12.667 0 22.334 -3.33301 29.001 -10s10 -16 10 -28s-3.33301 -21.333 -10 -28s-16.334 -10 -29.001 -10c-12 0 -21.667 3.33301 -29 10z" />
    <glyph glyph-name="copyright" unicode="&#xa9;" horiz-adv-x="717" 
d="M232 -68c-44.667 22 -81.834 54.9951 -111.501 98.9951s-44.5 97.333 -44.5 160c0 58.667 14.667 111.334 44 158.001s68.5 83 117.5 109s101.167 39 156.5 39c49.333 0 92.666 -10.167 129.999 -30.5s66.166 -47.833 86.499 -82.5s30.5 -72.667 30.5 -114
s-10.667 -79.666 -32 -114.999s-50.333 -63.5 -87 -84.5s-77.334 -31.5 -122.001 -31.5c-40 0 -73.333 7.5 -100 22.5s-46.334 34.333 -59.001 58s-19 48.834 -19 75.501c0 34 8.33301 63.833 25 89.5s38.167 45.334 64.5 59.001s53.5 20.5 81.5 20.5
c22.667 0 43.5 -4.5 62.5 -13.5s28.833 -20.167 29.5 -33.5c0 -6.66699 -2.5 -12.667 -7.5 -18s-10.833 -8 -17.5 -8c-11.333 0 -22.666 8 -33.999 24c-8 11.333 -16.167 19.833 -24.5 25.5s-19.833 8.5 -34.5 8.5c-59.333 0 -89 -43.333 -89 -130
c0 -45.333 11.833 -82.333 35.5 -111s61.834 -43 114.501 -43c32 0 61.667 6.33301 89 19s49.5 32.167 66.5 58.5s25.5 59.5 25.5 99.5c0 42 -10.833 80.833 -32.5 116.5s-51.167 63.834 -88.5 84.501s-78.666 31 -123.999 31c-52.667 0 -97.667 -11.5 -135 -34.5
s-65.666 -54.333 -84.999 -94s-29 -83.834 -29 -132.501c0 -61.333 14.667 -113.5 44 -156.5s65.333 -75 108 -96s84 -31.5 124 -31.5c40.667 0 75.334 2.83301 104.001 8.5s61 17.834 97 36.501c1.33301 0.666992 2.66602 0 3.99902 -2s1.33301 -3.66699 0 -5
c-35.333 -26.667 -71.166 -44.667 -107.499 -54s-77.166 -14 -122.499 -14c-44.667 0 -89.334 11 -134.001 33z" />
    <glyph glyph-name="ordfeminine" unicode="&#xaa;" horiz-adv-x="276" 
d="M270 407c2.66699 0 4.49902 -1.16602 5.49902 -3.49902s0.833008 -4.16602 -0.5 -5.49902l-68 -32c-6.66699 -2.66699 -12.667 -0.166992 -18 7.5s-8.33301 19.5 -9 35.5l-44 -24c-14.667 -8 -25.5 -13.333 -32.5 -16s-14.5 -4 -22.5 -4c-13.333 0 -24 3.66699 -32 11
s-12 16.666 -12 27.999c0 10.667 4.16699 19 12.5 25s24.166 13.333 47.499 22l83 30v57c0 30.667 -4.33301 50.667 -13 60s-21 14 -37 14c-14 0 -25.333 -4.66699 -34 -14s-14.667 -21.666 -18 -36.999c-1.33301 -6.66699 -3.16602 -11.834 -5.49902 -15.501
s-7.16602 -5.5 -14.499 -5.5c-6 0 -11 2 -15 6s-6 8 -6 12c0 9.33301 7 19.666 21 30.999s30.5 21 49.5 29s35.5 12 49.5 12c16 0 29 -6 39 -18s15 -30 15 -54v-117c0 -15.333 1.66699 -26.333 5 -33s9.33301 -10 18 -10c5.33301 0 17 3 35 9h1zM179.999 420.001
l0.000976562 50.999l-77 -30c-10.667 -4 -17.834 -7.66699 -21.501 -11s-5.5 -8 -5.5 -14c0 -7.33301 2.66699 -13.666 8 -18.999s12.333 -8 21 -8c8 0 16.667 2 26 6zM261.5 309c1 -2.66699 1.5 -5.33398 1.5 -8.00098c0 -8.66699 -1.66699 -13 -5 -13h-224
c-1.33301 0 -2.5 1.33301 -3.5 4s-1.5 5.66699 -1.5 9c0 2.66699 0.5 5.33398 1.5 8.00098s1.83301 4 2.5 4h225c1.33301 0 2.5 -1.33301 3.5 -4z" />
    <glyph glyph-name="guillemotleft" unicode="&#xab;" horiz-adv-x="451" 
d="M61 189c-2.66699 2.66699 -3.99902 6.66602 -3.99902 11.999c0 4.66699 1.33301 8.33398 4 11.001l174 149c0 0.666992 0.666992 1 2 1s2.66602 -0.833008 3.99902 -2.5s1.66602 -2.83398 0.999023 -3.50098l-130 -155l130 -155
c0.666992 -1.33301 -0.166016 -3.16602 -2.49902 -5.49902s-3.83301 -2.5 -4.5 -0.5zM208.001 188.999c-2.66699 2.66699 -3.99902 6.66602 -3.99902 11.999c0 4.66699 1.33301 8.33398 4 11.001l174 149c1.33301 2 3.16602 2 5.49902 0s2.83301 -3.66699 1.5 -5l-129 -155
l129 -155v-1c0 -2 -0.833008 -3.66699 -2.5 -5s-3.16699 -1.33301 -4.5 0z" />
    <glyph glyph-name="logicalnot" unicode="&#xac;" horiz-adv-x="395" 
d="M364 77c0 -1.33301 -2.16602 -2.50098 -6.49902 -3.50098s-8.83301 -1.5 -13.5 -1.5s-8.83398 0.5 -12.501 1.5s-5.5 1.83301 -5.5 2.5v153h-292c-1.33301 0 -2.5 2.16699 -3.5 6.5s-1.5 8.83301 -1.5 13.5s0.5 8.83398 1.5 12.501s1.83301 5.5 2.5 5.5h331v-190z" />
    <glyph glyph-name="uni00AD" unicode="&#xad;" horiz-adv-x="323" 
d="M28.5 174.5c-1 5 -1.5 10.166 -1.5 15.499c0 11.333 1 17 3 17l261 47c1.33301 0.666992 2.5 -1.16602 3.5 -5.49902s1.5 -8.83301 1.5 -13.5s-0.5 -9 -1.5 -13s-2.16699 -6.33301 -3.5 -7l-259 -47c-1.33301 -0.666992 -2.5 1.5 -3.5 6.5z" />
    <glyph glyph-name="registered" unicode="&#xae;" horiz-adv-x="752" 
d="M542 687.5c42.667 -25 75.666 -58.333 98.999 -100s35 -87.167 35 -136.5c0 -57.333 -14 -110 -42 -158s-65.5 -85.833 -112.5 -113.5s-98.167 -41.5 -153.5 -41.5c-48 0 -94.5 11.5 -139.5 34.5s-81.667 56.5 -110 100.5s-42.5 96.333 -42.5 157
c0 55.333 14.833 105.5 44.5 150.5s68.834 80.333 117.501 106s100.667 38.5 156 38.5c56 0 105.333 -12.5 148 -37.5zM524.499 198c37.667 20.667 67.001 50.332 88.001 88.999s31.5 84 31.5 136c0 51.333 -12.167 98.333 -36.5 141s-57.833 76.334 -100.5 101.001
s-90.334 37 -143.001 37c-52 0 -96.833 -11.333 -134.5 -34s-66.167 -53 -85.5 -91s-29 -79.333 -29 -124c0 -60 14 -111.667 42 -155s63.5 -76 106.5 -98s86.167 -33 129.5 -33c50 0 93.833 10.333 131.5 31zM567 275.498c0 -3 -0.664062 -4.5 -1.99707 -4.5h-74
c-6.66699 0 -18.334 13.667 -35.001 41s-39.334 68.333 -68.001 123c-18 -4 -37.667 -5.66699 -59 -5v-103c0 -13.333 1.16699 -23 3.5 -29s7.16602 -10 14.499 -12s19 -3 35 -3c1.33301 0 2 -2 2 -6s-0.666992 -6 -2 -6c-12 0 -21.667 0.333008 -29 1l-43 1l-42 -1
c-7.33301 -0.666992 -17 -1 -29 -1c-1.33301 0 -2 2 -2 6s0.666992 6 2 6c16.667 0 28.667 1 36 3s12.333 6 15 12s4 15.667 4 29v216c0 12.667 -1.33301 22 -4 28s-7.66699 10.167 -15 12.5s-19.333 3.5 -36 3.5c-1.33301 0 -2 2 -2 6s0.666992 6 2 6l71 -1
c8 0 22.667 0.666992 44 2l38 1c59.333 0 89 -21.667 89 -65c0 -40 -18.333 -69.667 -55 -89c26 -50 45 -85 57 -105s24.333 -35.333 37 -46s27.667 -16 45 -16c1.33301 0 2 -1.5 2 -4.5zM369.003 444.998c49.333 0 74 22.334 74 67.001c0 50.667 -22.667 76 -68 76
c-13.333 0 -23 -0.833008 -29 -2.5s-10.333 -5.83398 -13 -12.501s-4 -17.667 -4 -33v-91c20 -2.66699 33.333 -4 40 -4z" />
    <glyph glyph-name="macron" unicode="&#xaf;" horiz-adv-x="345" 
d="M43.5 489c-1 2.66699 -1.5 5.66699 -1.5 9c0 8.66699 1.66699 13 5 13h251c3.33301 0 5 -4.33301 5 -13s-1.66699 -13 -5 -13h-251c-1.33301 0 -2.5 1.33301 -3.5 4z" />
    <glyph glyph-name="degree" unicode="&#xb0;" horiz-adv-x="332" 
d="M67.5 410c-25.667 24.667 -38.5 55.668 -38.5 93.001c0 35.333 12.833 65.333 38.5 90s58.834 37 99.501 37s73.5 -12.333 98.5 -37s37.5 -55.334 37.5 -92.001s-12.5 -67.167 -37.5 -91.5s-57.833 -36.5 -98.5 -36.5s-73.834 12.333 -99.501 37zM235.5 411.001
c9.66699 18 14.501 45.668 14.501 83.001c0 84 -29.667 126 -89 126c-30.667 0 -51.334 -9.83301 -62.001 -29.5s-16 -47.834 -16 -84.501c0 -38 6.83301 -67.833 20.5 -89.5s37.167 -32.5 70.5 -32.5c31.333 0 51.833 9 61.5 27z" />
    <glyph glyph-name="plusminus" unicode="&#xb1;" horiz-adv-x="398" 
d="M30.5 240.5c-1 4.33301 -1.49902 8.83398 -1.49902 13.501c0 4 0.333008 7.83301 1 11.5s1.66699 5.5 3 5.5h147v147c0 2.66699 6.33301 4 19 4s19 -1.33301 19 -4v-147h146c1.33301 0 2.5 -1.83301 3.5 -5.5s1.5 -7.83398 1.5 -12.501s-0.5 -9 -1.5 -13
s-2.16699 -6 -3.5 -6h-146v-146c0 -1.33301 -2.16699 -2.5 -6.5 -3.5s-8.83301 -1.5 -13.5 -1.5s-8.83398 0.5 -12.501 1.5s-5.5 1.83301 -5.5 2.5v147h-146c-1.33301 0 -2.5 2.16699 -3.5 6.5zM367.501 29.501c1 -3.66699 1.5 -7.50098 1.5 -11.501
s-0.5 -7.83301 -1.5 -11.5s-2.16699 -5.5 -3.5 -5.5h-330c-1.33301 0 -2.5 1.83301 -3.5 5.5s-1.5 7.83398 -1.5 12.501c0 4 0.5 7.66699 1.5 11s1.83301 5 2.5 5h331c1.33301 0 2.5 -1.83301 3.5 -5.5z" />
    <glyph glyph-name="uni00B2" unicode="&#xb2;" horiz-adv-x="250" 
d="M53 445l29.999 44.999c24.667 36 43.667 66.333 57 91s20 47.667 20 69c0 18 -4.66699 32.333 -14 43s-22 16 -38 16c-16.667 0 -31 -5.5 -43 -16.5s-20 -25.167 -24 -42.5c0 -1.33301 -1.33301 -2 -4 -2c-2 0 -4 0.5 -6 1.5s-2.66699 2.16699 -2 3.5
c14.667 50.667 46 76 94 76c24.667 0 43.834 -6.66699 57.501 -20s20.5 -30.333 20.5 -51c0 -19.333 -7.16699 -40.166 -21.5 -62.499s-34.5 -49.166 -60.5 -80.499c-15.333 -18.667 -27.5 -34 -36.5 -46s-15.167 -22.667 -18.5 -32c0 -2 1 -3 3 -3c46 0 77 0.833008 93 2.5
s26.833 6 32.5 13s11.834 20.833 18.501 41.5c0 1.33301 0.833008 2 2.5 2s2.5 -0.666992 2.5 -2l-1 -84c0 -1.33301 -0.333008 -2.5 -1 -3.5s-1.66699 -1.5 -3 -1.5h-174c-1.33301 0 -2.33301 0.666992 -3 2s-0.666992 2.66602 0 3.99902
c3.33301 10 9.66602 22.333 18.999 37z" />
    <glyph glyph-name="uni00B3" unicode="&#xb3;" horiz-adv-x="251" 
d="M193 546c14 -12 21 -29.333 21 -52c0 -27.333 -8.83301 -50.5 -26.5 -69.5s-41.834 -28.5 -72.501 -28.5c-25.333 0 -45.666 6.33301 -60.999 19s-25.666 29.334 -30.999 50.001c-0.666992 2.66699 1 4.5 5 5.5s6.33301 0.166992 7 -2.5c4 -14 12.167 -26.667 24.5 -38
s29.166 -17 50.499 -17c42 0 63 22.667 63 68c0 25.333 -7.16699 45.666 -21.5 60.999s-32.166 23 -53.499 23c-1.33301 0 -2 2 -2 6s0.666992 6 2 6c19.333 0 34.5 7.83301 45.5 23.5s16.5 32.167 16.5 49.5c0 16.667 -5 30.667 -15 42s-23 17 -39 17
c-15.333 0 -29 -5.66699 -41 -17s-20 -25.333 -24 -42c0 -1.33301 -1.33301 -2 -4 -2c-2 0 -4 0.5 -6 1.5s-2.66699 2.16699 -2 3.5c6 22.667 16.667 41 32 55s35.666 21 60.999 21c24 0 43.167 -6.83301 57.5 -20.5s21.5 -30.834 21.5 -51.501
c0 -18.667 -6 -35.667 -18 -51s-28 -26.666 -48 -33.999c24.667 -5.33301 44 -14 58 -26z" />
    <glyph glyph-name="acute" unicode="&#xb4;" horiz-adv-x="212" 
d="M65 472c-2 0 -3.83301 0.5 -5.5 1.5s-2.16699 1.83301 -1.5 2.5l57 240c0.666992 2.66699 5.5 5.5 14.5 8.5s17.667 5 26 6s11.833 -0.166992 10.5 -3.5l-97 -253c0 -1.33301 -1.33301 -2 -4 -2z" />
    <glyph glyph-name="paragraph" unicode="&#xb6;" horiz-adv-x="634" 
d="M290.5 -181.5c-9.66699 7.66699 -14.501 16.834 -14.501 27.501c0 9.33301 2.5 16.833 7.5 22.5s11.5 8.5 19.5 8.5c8.66699 0 15.167 -1.83301 19.5 -5.5s8.83301 -9.16699 13.5 -16.5c4.66699 -8 9.83398 -14.167 15.501 -18.5s14.5 -6.5 26.5 -6.5
c20 0 34.167 13.667 42.5 41s12.5 73 12.5 137v117c-26.667 -2 -56 -3 -88 -3c-49.333 0 -96 8.66699 -140 26s-80.167 45.666 -108.5 84.999s-42.5 90.333 -42.5 153c0 78.667 23.333 138.667 70 180s111.334 62 194.001 62c20.667 0 42 -1 64 -3c8 0 20.5 -0.5 37.5 -1.5
s32.833 -1.5 47.5 -1.5c13.333 0 32.666 0.666992 57.999 2l52 1c1.33301 0 2 -2 2 -6s-0.666992 -6 -2 -6c-28.667 0 -50.667 -7 -66 -21s-23 -34 -23 -60l1 -477c0 -86.667 -12.667 -149.667 -38 -189s-66.666 -59 -123.999 -59c-14.667 0 -26.834 3.83301 -36.501 11.5z
" />
    <glyph glyph-name="periodcentered" unicode="&#xb7;" horiz-adv-x="195" 
d="M69 171.5c-7.33301 7 -11 16.5 -11 28.5c0 11.333 3.66699 20.333 11 27s17 10 29 10c12.667 0 22.334 -3.33301 29.001 -10s10 -15.667 10 -27c0 -12 -3.33301 -21.5 -10 -28.5s-16.334 -10.5 -29.001 -10.5c-12 0 -21.667 3.5 -29 10.5z" />
    <glyph glyph-name="cedilla" unicode="&#xb8;" horiz-adv-x="232" 
d="M101.5 -39c-3 -10.667 -4.50098 -18.666 -4.50098 -23.999c0 -7.33301 2.16699 -13 6.5 -17s10.666 -8.33301 18.999 -13l19.5 -11c16.667 -9.33301 29.834 -20 39.501 -32s14.5 -27 14.5 -45c0 -24 -8.5 -45.667 -25.5 -65s-41.5 -29 -73.5 -29
c-17.333 0 -32 3.16699 -44 9.5s-18 15.166 -18 26.499c0 8 2.66699 14.5 8 19.5s12 7.5 20 7.5c6.66699 0 11.834 -1.66699 15.501 -5s7.16699 -8.33301 10.5 -15c5.33301 -8 10.333 -14 15 -18s12 -6 22 -6c24.667 0 37 13.667 37 41c0 17.333 -6.16699 32.833 -18.5 46.5
s-34.833 29.167 -67.5 46.5c-5.33301 2.66699 -9.33301 5 -12 7s-4 4.33301 -4 7c0 3.33301 2 9 6 17l24 62l10 28l12 -1c-4.66699 -14 -8.5 -26.333 -11.5 -37z" />
    <glyph glyph-name="uni00B9" unicode="&#xb9;" horiz-adv-x="262" 
d="M47 408c0 4 0.666992 6.00098 2 6.00098c22.667 0 38.5 1.33301 47.5 4s14.833 8.5 17.5 17.5s4 24.833 4 47.5v118v41c0 15.333 -1 26.166 -3 32.499s-6.33301 9.5 -13 9.5c-5.33301 0 -13.166 -2 -23.499 -6s-22.5 -9.33301 -36.5 -16h-1
c-2.66699 0 -4.83398 1.5 -6.50098 4.5s-1.16699 5.16699 1.5 6.5l110 54c0.666992 0.666992 1.66699 1 3 1c2 0 3.66699 -0.833008 5 -2.5s2 -3.5 2 -5.5v-237c0 -22.667 1.16699 -38.5 3.5 -47.5s7.83301 -14.833 16.5 -17.5s23.667 -4 45 -4c2 0 3 -2 3 -6s-1 -6 -3 -6
l-35 1c-20 1.33301 -36 2 -48 2c-12.667 0 -29.667 -0.666992 -51 -2l-38 -1c-1.33301 0 -2 2 -2 6z" />
    <glyph glyph-name="ordmasculine" unicode="&#xba;" horiz-adv-x="313" 
d="M60 399.5c-23.333 27 -35 59.833 -35 98.5c0 28.667 7 52.834 21 72.501s31.667 34.5 53 44.5s43 15 65 15c25.333 0 47.5 -6.33301 66.5 -19s33.667 -29.334 44 -50.001s15.5 -42.667 15.5 -66c0 -24.667 -6.33301 -47.5 -19 -68.5s-29.5 -37.5 -50.5 -49.5
s-43.833 -18 -68.5 -18c-38 0 -68.667 13.5 -92 40.5zM229.5 401.5c15.667 18.333 23.499 43.5 23.499 75.5c0 38.667 -10.167 71.167 -30.5 97.5s-46.166 39.5 -77.499 39.5c-26.667 0 -47.167 -8.5 -61.5 -25.5s-21.5 -40.833 -21.5 -71.5c0 -38.667 10 -72.167 30 -100.5
s45 -42.5 75 -42.5c26 0 46.833 9.16699 62.5 27.5zM32.499 292c-1 2.66699 -1.5 5.66699 -1.5 9c0 2.66699 0.5 5.33398 1.5 8.00098s1.83301 4 2.5 4h243c1.33301 0 2.5 -1.33301 3.5 -4s1.5 -5.33398 1.5 -8.00098c0 -8.66699 -1.66699 -13 -5 -13h-242
c-1.33301 0 -2.5 1.33301 -3.5 4z" />
    <glyph glyph-name="guillemotright" unicode="&#xbb;" horiz-adv-x="451" 
d="M243 212c3.33301 -3.33301 4.99902 -7 4.99902 -11c0 -4.66699 -1.66699 -8.66699 -5 -12l-174 -149c0 -0.666992 -0.666992 -1 -2 -1s-2.66602 0.833008 -3.99902 2.5s-1.66602 3.16699 -0.999023 4.5l130 154l-130 156c-0.666992 1.33301 0.166016 3 2.49902 5
s3.83301 2 4.5 0zM390.999 212c2.66699 -2.66699 3.99902 -6.33301 3.99902 -11c0 -5.33301 -1.33301 -9.33301 -4 -12l-175 -149c0 -0.666992 -0.666992 -1 -2 -1s-2.66602 0.833008 -3.99902 2.5s-1.66602 3.16699 -0.999023 4.5l130 154l-130 156
c-0.666992 1.33301 0.166016 3 2.49902 5s3.83301 2 4.5 0z" />
    <glyph glyph-name="onequarter" unicode="&#xbc;" horiz-adv-x="598" 
d="M224 314.5c0 -3.66699 -0.998047 -5.5 -2.99805 -5.5c-14.667 0 -26.334 0.333008 -35.001 1l-48 1l-51 -1c-9.33301 -0.666992 -22 -1 -38 -1c-1.33301 0 -2 1.83301 -2 5.5s0.666992 5.5 2 5.5c22.667 0 38.5 1.33301 47.5 4s14.833 8.5 17.5 17.5s4 24.833 4 47.5v119
v41c0 15.333 -1 26 -3 32s-6 9 -12 9c-8 0 -28.333 -7.33301 -61 -22h-1c-2.66699 0 -4.83398 1.66699 -6.50098 5s-1.16699 5.33301 1.5 6l110 55h2c2 0 3.83301 -0.833008 5.5 -2.5s2.5 -3.16699 2.5 -4.5v-238c0 -22.667 1.16699 -38.5 3.5 -47.5
s7.83301 -14.833 16.5 -17.5s23.667 -4 45 -4c2 0 3 -1.83301 3 -5.5zM443.002 627c2.66699 0 6.66602 -1.16797 11.999 -3.50098s7.66602 -4.16602 6.99902 -5.49902l-280 -618c0 -0.666992 -0.666992 -1 -2 -1c-3.33301 0 -7.66602 1.33301 -12.999 4
s-7.66602 4.66699 -6.99902 6l280 617c0 0.666992 1 1 3 1zM570.001 4.99902c0 -2.66699 -0.333008 -4.66504 -1 -5.99805l-59 1l-76 -1c-0.666992 0 -1 2 -1 6s0.333008 6 1 6c17.333 0 29.5 0.666992 36.5 2s11.833 4 14.5 8s4 10.667 4 20v51
c-45.333 1.33301 -87 2 -125 2c-1.33301 0 -2.5 0.666992 -3.5 2s-0.833008 2.33301 0.5 3l154 225c1.33301 1.33301 3 1.66602 5 0.999023s3 -1.66699 3 -3v-210l46 3c1.33301 0 2 -4.33301 2 -13c0 -9.33301 -0.666992 -14 -2 -14c-20 1.33301 -35.333 2 -46 2v-49
c0 -9.33301 0.833008 -15.833 2.5 -19.5s5.5 -6.33398 11.5 -8.00098s16.667 -2.5 32 -2.5c0.666992 -1.33301 1 -3.33301 1 -6zM489.001 111.001v154l-90 -153c-0.666992 -2 0 -3 2 -3c26.667 0 56 0.666992 88 2z" />
    <glyph glyph-name="onehalf" unicode="&#xbd;" horiz-adv-x="609" 
d="M47 314.5c0 3.66699 0.668945 5.5 2.00195 5.5c22.667 0 38.5 1.33301 47.5 4s14.833 8.5 17.5 17.5s4 24.833 4 47.5v119v41c0 15.333 -1 26 -3 32s-6 9 -12 9c-8 0 -28.333 -7.33301 -61 -22h-1c-2.66699 0 -4.83398 1.66699 -6.50098 5s-1.16699 5.33301 1.5 6l110 55
h2c2 0 3.83301 -0.833008 5.5 -2.5s2.5 -3.16699 2.5 -4.5v-238c0 -22.667 1.16699 -38.5 3.5 -47.5s7.83301 -14.833 16.5 -17.5s23.667 -4 45 -4c2 0 3 -1.83301 3 -5.5s-1 -5.5 -3 -5.5c-14.667 0 -26.334 0.333008 -35.001 1l-48 1l-51 -1
c-9.33301 -0.666992 -22 -1 -38 -1c-1.33301 0 -2 1.83301 -2 5.5zM180.002 -1c-3.33301 0 -7.66699 1.33203 -13 3.99902s-7.66602 4.66699 -6.99902 6l280 617c0 0.666992 1 1 3 1c2.66699 0 6.66699 -1.16699 12 -3.5s7.66602 -4.16602 6.99902 -5.49902l-280 -618
c0 -0.666992 -0.666992 -1 -2 -1zM409.001 38.499c7.33301 11.667 18.334 27.8311 33.001 48.498c24.667 36 43.667 66.333 57 91s20 48 20 70c0 18 -4.83301 32.167 -14.5 42.5s-22.167 15.5 -37.5 15.5c-16.667 0 -31 -5.33301 -43 -16s-20 -24.667 -24 -42
c0 -2 -1.33301 -3 -4 -3c-2 0 -4 0.5 -6 1.5s-2.66699 2.16699 -2 3.5c14.667 50.667 46 76 94 76c25.333 0 44.666 -6.5 57.999 -19.5s20 -29.833 20 -50.5c0 -19.333 -7.16699 -40.166 -21.5 -62.499s-34.5 -49.166 -60.5 -80.499c-15.333 -18.667 -27.5 -34 -36.5 -46
s-15.167 -22.667 -18.5 -32c0 -2 1 -3 3 -3c46 0 77 0.833008 93 2.5s26.833 6 32.5 13s11.834 20.833 18.501 41.5c0 1.33301 0.833008 2 2.5 2s2.5 -0.666992 2.5 -2l-1 -84c0 -3.33301 -1.33301 -5 -4 -5h-174c-2.66699 0 -3.66699 2 -3 6
c3.33301 10 8.66602 20.833 15.999 32.5z" />
    <glyph glyph-name="threequarters" unicode="&#xbe;" horiz-adv-x="587" 
d="M187.5 331.5c-17.667 -19 -41.8359 -28.5029 -72.5029 -28.5029c-25.333 0 -45.666 6.33301 -60.999 19s-25.666 29.334 -30.999 50.001c-0.666992 2.66699 1 4.33398 5 5.00098s6.33301 -0.333008 7 -3c4 -14 12.167 -26.667 24.5 -38s29.166 -17 50.499 -17
c18.667 0 33.834 5.33301 45.501 16s17.5 28 17.5 52c0 25.333 -7.16699 45.666 -21.5 60.999s-32.166 23 -53.499 23c-1.33301 0 -2 2 -2 6s0.666992 6 2 6c19.333 0 34.5 8 45.5 24s16.5 32.667 16.5 50c0 16 -5 29.667 -15 41s-23 17 -39 17
c-15.333 0 -29 -5.5 -41 -16.5s-20 -24.833 -24 -41.5c0 -2 -1.66699 -3 -5 -3c-2 0 -3.83301 0.5 -5.5 1.5s-2.16699 2.16699 -1.5 3.5c6 22.667 16.667 41 32 55s35.666 21 60.999 21c24 0 43.167 -6.66699 57.5 -20s21.5 -30.333 21.5 -51c0 -18.667 -6 -35.667 -18 -51
s-27.667 -26.666 -47 -33.999c24.667 -5.33301 43.834 -14.166 57.501 -26.499s20.5 -29.833 20.5 -52.5c0 -26.667 -8.83301 -49.5 -26.5 -68.5zM431.998 626.997c2.66699 0 6.66602 -1.16797 11.999 -3.50098s7.66602 -4.16602 6.99902 -5.49902l-280 -618
c0 -0.666992 -0.666992 -1 -2 -1c-3.33301 0 -7.66602 1.33301 -12.999 4s-7.66602 4.66699 -6.99902 6l280 617c0 0.666992 1 1 3 1zM558.997 4.99609c0 -2.66699 -0.333008 -4.66504 -1 -5.99805l-59 1l-76 -1c-0.666992 0 -1 2 -1 6s0.333008 6 1 6
c17.333 0 29.5 0.666992 36.5 2s11.833 4 14.5 8s4 10.667 4 20v51c-45.333 1.33301 -87 2 -125 2c-1.33301 0 -2.5 0.666992 -3.5 2s-0.833008 2.33301 0.5 3l154 225c1.33301 1.33301 3 1.66602 5 0.999023s3 -1.66699 3 -3v-210l46 3c1.33301 0 2 -4.33301 2 -13
c0 -9.33301 -0.666992 -14 -2 -14c-20 1.33301 -35.333 2 -46 2v-49c0 -9.33301 0.833008 -15.833 2.5 -19.5s5.5 -6.33398 11.5 -8.00098s16.667 -2.5 32 -2.5c0.666992 -1.33301 1 -3.33301 1 -6zM477.997 110.998v154l-90 -153c-0.666992 -2 0 -3 2 -3
c26.667 0 56 0.666992 88 2z" />
    <glyph glyph-name="questiondown" unicode="&#xbf;" horiz-adv-x="327" 
d="M210 350.5c7.33301 -7 11 -16.5 11 -28.5c0 -11.333 -3.66699 -20.333 -11 -27s-17 -10 -29 -10c-12.667 0 -22.334 3.33301 -29.001 10s-10 15.667 -10 27c0 12 3.33301 21.5 10 28.5s16.334 10.5 29.001 10.5c12 0 21.667 -3.5 29 -10.5zM205 -250
c6 8.66699 9.99805 20.3359 11.998 35.0029c2.66699 12 6.33398 21.333 11.001 28s12.334 10 23.001 10c9.33301 0 16.666 -3.16699 21.999 -9.5s8 -13.5 8 -21.5c0 -18 -11.333 -33.667 -34 -47s-49.667 -20 -81 -20c-38 0 -69.333 10.333 -94 31s-37 50.334 -37 89.001
c0 28 5.83301 51.167 17.5 69.5s29.5 39.5 53.5 63.5s40.667 45 50 63s14 38.333 14 61c0 16 -2 34.333 -6 55c-0.666992 2 0.833008 3.33301 4.5 4s5.83398 0 6.50098 -2c7.33301 -17.333 13.5 -37.833 18.5 -61.5s7.5 -42.834 7.5 -57.501
c0 -20.667 -4.33301 -37.834 -13 -51.501s-21.667 -28.834 -39 -45.501c-18.667 -18 -32.834 -34.667 -42.501 -50s-14.5 -35.333 -14.5 -60c0 -28.667 7.33301 -51.834 22 -69.501s33.334 -26.5 56.001 -26.5c17.333 0 29 4.33301 35 13z" />
    <glyph glyph-name="Agrave" unicode="&#xc0;" horiz-adv-x="698" 
d="M219.5 764.5c8.33301 5 17.998 9.49902 28.998 13.499s17.833 5.33301 20.5 4l84.5 -48c29.667 -16.667 58.834 -31.667 87.501 -45c1.33301 -0.666992 2 -2 2 -4s-0.666992 -3.66699 -2 -5s-2.66602 -1.66602 -3.99902 -0.999023
c-75.333 33.333 -149.666 59 -222.999 77c-4.66699 0.666992 -2.83398 3.5 5.49902 8.5zM697.998 5.99902c0 -4 -1.33203 -5.99902 -3.99902 -5.99902c-12 0 -31.333 0.666992 -58 2c-25.333 1.33301 -44 2 -56 2c-14 0 -32.333 -0.666992 -55 -2
c-21.333 -1.33301 -37.333 -2 -48 -2c-2.66699 0 -4 2 -4 6s1.33301 6 4 6c27.333 0 47 2.5 59 7.5s18 13.5 18 25.5c0 9.33301 -3.66699 22.333 -11 39l-119 255h-191l-90 -216c-9.33301 -22.667 -14 -41.334 -14 -56.001c0 -19.333 8 -33.333 24 -42s41 -13 75 -13
c3.33301 0 5 -2 5 -6s-1.66699 -6 -5 -6c-12 0 -29.333 0.666992 -52 2c-25.333 1.33301 -47.333 2 -66 2c-16.667 0 -36.334 -0.666992 -59.001 -2c-20 -1.33301 -36.333 -2 -49 -2c-3.33301 0 -5 2 -5 6s1.66699 6 5 6c18.667 0 34.5 3.33301 47.5 10s25.333 18.667 37 36
s24.167 42 37.5 74l209 503c1.33301 2 3.5 3 6.5 3s4.83301 -1 5.5 -3l232 -498c15.333 -34 29 -59.833 41 -77.5s23.833 -30 35.5 -37s25.167 -10.5 40.5 -10.5c2.66699 0 4 -2 4 -6zM240.999 358h175l-93 198z" />
    <glyph glyph-name="Aacute" unicode="&#xc1;" horiz-adv-x="698" 
d="M239 678c-2.66699 0 -4.33398 1.5 -5.00098 4.5s0 5.16699 2 6.5c30.667 14 71.334 35.667 122.001 65l50 28c2.66699 1.33301 9.5 0 20.5 -4s20.667 -8.5 29 -13.5s10.166 -7.83301 5.49902 -8.5c-41.333 -10 -79.166 -21.167 -113.499 -33.5
s-70.5 -26.833 -108.5 -43.5zM698 6c0 -4 -1.33203 -5.99902 -3.99902 -5.99902c-12 0 -31.333 0.666992 -58 2c-25.333 1.33301 -44 2 -56 2c-14 0 -32.333 -0.666992 -55 -2c-21.333 -1.33301 -37.333 -2 -48 -2c-2.66699 0 -4 2 -4 6s1.33301 6 4 6
c27.333 0 47 2.5 59 7.5s18 13.5 18 25.5c0 9.33301 -3.66699 22.333 -11 39l-119 255h-191l-90 -216c-9.33301 -22.667 -14 -41.334 -14 -56.001c0 -19.333 8 -33.333 24 -42s41 -13 75 -13c3.33301 0 5 -2 5 -6s-1.66699 -6 -5 -6c-12 0 -29.333 0.666992 -52 2
c-25.333 1.33301 -47.333 2 -66 2c-16.667 0 -36.334 -0.666992 -59.001 -2c-20 -1.33301 -36.333 -2 -49 -2c-3.33301 0 -5 2 -5 6s1.66699 6 5 6c18.667 0 34.5 3.33301 47.5 10s25.333 18.667 37 36s24.167 42 37.5 74l209 503c1.33301 2 3.5 3 6.5 3s4.83301 -1 5.5 -3
l232 -498c15.333 -34 29 -59.833 41 -77.5s23.833 -30 35.5 -37s25.167 -10.5 40.5 -10.5c2.66699 0 4 -2 4 -6zM241.001 358.001h175l-93 198z" />
    <glyph glyph-name="Acircumflex" unicode="&#xc2;" horiz-adv-x="698" 
d="M224 650.5c-2 2.33301 -2.33203 3.83203 -0.999023 4.49902l103 92c3.33301 3.33301 7.33301 5 12 5c4 0 7.66699 -1.66699 11 -5l102 -92c0.666992 0 1 -0.666992 1 -2s-0.833008 -2.66602 -2.5 -3.99902s-2.83398 -1.66602 -3.50098 -0.999023l-108 62l-109 -62
c-1.33301 -0.666992 -3 0.166016 -5 2.49902zM698.001 5.99902c0 -4 -1.33203 -5.99902 -3.99902 -5.99902c-12 0 -31.333 0.666992 -58 2c-25.333 1.33301 -44 2 -56 2c-14 0 -32.333 -0.666992 -55 -2c-21.333 -1.33301 -37.333 -2 -48 -2c-2.66699 0 -4 2 -4 6
s1.33301 6 4 6c27.333 0 47 2.5 59 7.5s18 13.5 18 25.5c0 9.33301 -3.66699 22.333 -11 39l-119 255h-191l-90 -216c-9.33301 -22.667 -14 -41.334 -14 -56.001c0 -19.333 8 -33.333 24 -42s41 -13 75 -13c3.33301 0 5 -2 5 -6s-1.66699 -6 -5 -6
c-12 0 -29.333 0.666992 -52 2c-25.333 1.33301 -47.333 2 -66 2c-16.667 0 -36.334 -0.666992 -59.001 -2c-20 -1.33301 -36.333 -2 -49 -2c-3.33301 0 -5 2 -5 6s1.66699 6 5 6c18.667 0 34.5 3.33301 47.5 10s25.333 18.667 37 36s24.167 42 37.5 74l209 503
c1.33301 2 3.5 3 6.5 3s4.83301 -1 5.5 -3l232 -498c15.333 -34 29 -59.833 41 -77.5s23.833 -30 35.5 -37s25.167 -10.5 40.5 -10.5c2.66699 0 4 -2 4 -6zM241.002 358h175l-93 198z" />
    <glyph glyph-name="Atilde" unicode="&#xc3;" horiz-adv-x="698" 
d="M211 697c-2 0 -3.83008 0.833984 -5.49707 2.50098s-1.83398 3.16699 -0.500977 4.5c10.667 14.667 23.5 28 38.5 40s30.167 18 45.5 18c11.333 0 28.666 -3.66699 51.999 -11c29.333 -9.33301 54 -14 74 -14c11.333 0 20.5 2.33301 27.5 7s14.167 11.334 21.5 20.001h2
c2 0 3.66699 -0.833008 5 -2.5s1.33301 -3.16699 0 -4.5c-17.333 -22.667 -31.666 -37.834 -42.999 -45.501s-23 -11.5 -35 -11.5c-10 0 -20.333 1.16699 -31 3.5s-21.334 5.16602 -32.001 8.49902c-28 8 -51 12 -69 12c-10.667 0 -18.834 -1.83301 -24.501 -5.5
s-10.667 -7.66699 -15 -12l-9.5 -9.5h-1zM698.003 6.00098c0 -4 -1.33203 -5.99902 -3.99902 -5.99902c-12 0 -31.333 0.666992 -58 2c-25.333 1.33301 -44 2 -56 2c-14 0 -32.333 -0.666992 -55 -2c-21.333 -1.33301 -37.333 -2 -48 -2c-2.66699 0 -4 2 -4 6s1.33301 6 4 6
c27.333 0 47 2.5 59 7.5s18 13.5 18 25.5c0 9.33301 -3.66699 22.333 -11 39l-119 255h-191l-90 -216c-9.33301 -22.667 -14 -41.334 -14 -56.001c0 -19.333 8 -33.333 24 -42s41 -13 75 -13c3.33301 0 5 -2 5 -6s-1.66699 -6 -5 -6c-12 0 -29.333 0.666992 -52 2
c-25.333 1.33301 -47.333 2 -66 2c-16.667 0 -36.334 -0.666992 -59.001 -2c-20 -1.33301 -36.333 -2 -49 -2c-3.33301 0 -5 2 -5 6s1.66699 6 5 6c18.667 0 34.5 3.33301 47.5 10s25.333 18.667 37 36s24.167 42 37.5 74l209 503c1.33301 2 3.5 3 6.5 3s4.83301 -1 5.5 -3
l232 -498c15.333 -34 29 -59.833 41 -77.5s23.833 -30 35.5 -37s25.167 -10.5 40.5 -10.5c2.66699 0 4 -2 4 -6zM241.004 358.002h175l-93 198z" />
    <glyph glyph-name="Adieresis" unicode="&#xc4;" horiz-adv-x="698" 
d="M221.5 730c-7 6.66699 -10.5 16 -10.5 28s3.5 21.333 10.5 28s16.833 10 29.5 10c12 0 21.333 -3.33301 28 -10s10 -16 10 -28s-3.33301 -21.333 -10 -28s-16 -10 -28 -10c-12.667 0 -22.5 3.33301 -29.5 10zM397 730c-7.33301 6.66699 -11 16 -11 28
s3.66699 21.333 11 28s17 10 29 10c12.667 0 22.334 -3.33301 29.001 -10s10 -16 10 -28s-3.33301 -21.333 -10 -28s-16.334 -10 -29.001 -10c-12 0 -21.667 3.33301 -29 10zM698 6c0 -4 -1.33203 -5.99902 -3.99902 -5.99902c-12 0 -31.333 0.666992 -58 2
c-25.333 1.33301 -44 2 -56 2c-14 0 -32.333 -0.666992 -55 -2c-21.333 -1.33301 -37.333 -2 -48 -2c-2.66699 0 -4 2 -4 6s1.33301 6 4 6c27.333 0 47 2.5 59 7.5s18 13.5 18 25.5c0 9.33301 -3.66699 22.333 -11 39l-119 255h-191l-90 -216
c-9.33301 -22.667 -14 -41.334 -14 -56.001c0 -19.333 8 -33.333 24 -42s41 -13 75 -13c3.33301 0 5 -2 5 -6s-1.66699 -6 -5 -6c-12 0 -29.333 0.666992 -52 2c-25.333 1.33301 -47.333 2 -66 2c-16.667 0 -36.334 -0.666992 -59.001 -2c-20 -1.33301 -36.333 -2 -49 -2
c-3.33301 0 -5 2 -5 6s1.66699 6 5 6c18.667 0 34.5 3.33301 47.5 10s25.333 18.667 37 36s24.167 42 37.5 74l209 503c1.33301 2 3.5 3 6.5 3s4.83301 -1 5.5 -3l232 -498c15.333 -34 29 -59.833 41 -77.5s23.833 -30 35.5 -37s25.167 -10.5 40.5 -10.5
c2.66699 0 4 -2 4 -6zM241.001 358.001h175l-93 198z" />
    <glyph glyph-name="Aring" unicode="&#xc5;" horiz-adv-x="698" 
d="M274 689c-15.333 16 -23 34.666 -23 55.999c0 24 9.5 42.833 28.5 56.5s40.5 20.5 64.5 20.5c22.667 0 42.167 -7.66699 58.5 -23s24.5 -34 24.5 -56c0 -23.333 -9.5 -42.166 -28.5 -56.499s-40.5 -21.5 -64.5 -21.5c-24.667 0 -44.667 8 -60 24zM297 801.499
c-5.33301 -7.66699 -7.99902 -19.832 -7.99902 -36.499c0 -22.667 5.5 -43.334 16.5 -62.001s25.5 -28 43.5 -28c13.333 0 23.166 4 29.499 12s9.5 20.667 9.5 38c0 24 -6.16699 44.667 -18.5 62s-27.5 26 -45.5 26c-12.667 0 -21.667 -3.83301 -27 -11.5zM698.001 6.00098
c0 -4 -1.33203 -5.99902 -3.99902 -5.99902c-12 0 -31.333 0.666992 -58 2c-25.333 1.33301 -44 2 -56 2c-14 0 -32.333 -0.666992 -55 -2c-21.333 -1.33301 -37.333 -2 -48 -2c-2.66699 0 -4 2 -4 6s1.33301 6 4 6c27.333 0 47 2.5 59 7.5s18 13.5 18 25.5
c0 9.33301 -3.66699 22.333 -11 39l-119 255h-191l-90 -216c-9.33301 -22.667 -14 -41.334 -14 -56.001c0 -19.333 8 -33.333 24 -42s41 -13 75 -13c3.33301 0 5 -2 5 -6s-1.66699 -6 -5 -6c-12 0 -29.333 0.666992 -52 2c-25.333 1.33301 -47.333 2 -66 2
c-16.667 0 -36.334 -0.666992 -59.001 -2c-20 -1.33301 -36.333 -2 -49 -2c-3.33301 0 -5 2 -5 6s1.66699 6 5 6c18.667 0 34.5 3.33301 47.5 10s25.333 18.667 37 36s24.167 42 37.5 74l209 503c1.33301 2 3.5 3 6.5 3s4.83301 -1 5.5 -3l232 -498
c15.333 -34 29 -59.833 41 -77.5s23.833 -30 35.5 -37s25.167 -10.5 40.5 -10.5c2.66699 0 4 -2 4 -6zM241.002 358.002h175l-93 198z" />
    <glyph glyph-name="AE" unicode="&#xc6;" horiz-adv-x="871" 
d="M814 148.5c4 -0.333008 6.00098 -1.50391 6.00098 -3.50391c-6 -42 -9 -85.333 -9 -130c0 -5.33301 -1.16699 -9.16602 -3.5 -11.499s-6.5 -3.5 -12.5 -3.5h-401c-1.33301 0 -2 2 -2 6s0.666992 6 2 6c26 0 45.167 1.66699 57.5 5s20.666 9.83301 24.999 19.5
s6.5 24.5 6.5 44.5v235h-178l-134 -193c-20.667 -30 -31 -53.333 -31 -70c0 -27.333 26.333 -41 79 -41c3.33301 0 5 -2 5 -6s-1.66699 -6 -5 -6c-12 0 -29.333 0.666992 -52 2c-25.333 1.33301 -47.333 2 -66 2c-15.333 0 -33 -0.666992 -53 -2
c-18.667 -1.33301 -33 -2 -43 -2c-2.66699 0 -4 2 -4 6s1.33301 6 4 6c19.333 0 42 10.833 68 32.5s52 50.834 78 87.501l307 442c8.66699 12 13 20.333 13 25c0 6 -5.5 9.83301 -16.5 11.5s-31.167 2.5 -60.5 2.5c-1.33301 0 -2 2 -2 6s0.666992 6 2 6h384c6 0 9 -3 9 -9
l2 -121c0 -2 -1.83301 -3 -5.5 -3s-5.5 1 -5.5 3c0 32.667 -9 59.334 -27 80.001s-41.667 31 -71 31h-58c-25.333 0 -43.833 -1.66699 -55.5 -5s-19.667 -9.16602 -24 -17.499s-6.5 -21.833 -6.5 -40.5v-208h120c30.667 0 52 5.16699 64 15.5s18 28.166 18 53.499
c0 1.33301 2 2 6 2s6 -0.666992 6 -2l-1 -79c0 -19.333 0.333008 -33.666 1 -42.999l1 -47c0 -1.33301 -2 -2 -6 -2s-6 0.666992 -6 2c0 30 -6.33301 51 -19 63s-35 18 -67 18h-117v-231c0 -19.333 2.16699 -33.5 6.5 -42.5s12.333 -15.167 24 -18.5s30.167 -5 55.5 -5h81
c26.667 0 49.5 11.667 68.5 35s31.167 54 36.5 92c0 2 2 2.83301 6 2.5zM318.001 334.996h165v237z" />
    <glyph glyph-name="Ccedilla" unicode="&#xc7;" horiz-adv-x="669" 
d="M618 161c2 0 3.83105 -0.334961 5.49805 -1.00195s2.5 -1.66699 2.5 -3l-14 -107c-1.33301 -8 -2.83301 -13.167 -4.5 -15.5s-5.5 -4.83301 -11.5 -7.5c-59.333 -26 -123 -39 -191 -39h-20c-8.66699 -27.333 -13 -44.333 -13 -51c0 -7.33301 2.16699 -13 6.5 -17
s10.666 -8.33301 18.999 -13l19.5 -11c16.667 -9.33301 29.834 -20 39.501 -32s14.5 -27 14.5 -45c0 -24 -8.5 -45.667 -25.5 -65s-41.5 -29 -73.5 -29c-17.333 0 -32 3.16699 -44 9.5s-18 15.166 -18 26.499c0 8 2.66699 14.5 8 19.5s12 7.5 20 7.5
c6.66699 0 11.834 -1.66699 15.501 -5s7.16699 -8.33301 10.5 -15c5.33301 -8 10.333 -14 15 -18s12 -6 22 -6c24.667 0 37 13.667 37 41c0 17.333 -6.16699 32.833 -18.5 46.5s-34.833 29.167 -67.5 46.5c-5.33301 2.66699 -9.33301 5 -12 7s-4 4.33301 -4 7
c0 3.33301 2 9 6 17c10 24 20 50.667 30 80c-72.667 4.66699 -133.167 23.334 -181.5 56.001s-84 73.334 -107 122.001s-34.5 99.334 -34.5 152.001c0 60.667 17 115.167 51 163.5s79 86 135 113s115.333 40.5 178 40.5c32.667 0 65.5 -3.33301 98.5 -10
s59.5 -15.667 79.5 -27c5.33301 -3.33301 8.83301 -6.5 10.5 -9.5s2.83398 -7.83301 3.50098 -14.5l11 -105c0 -2 -1.66699 -3.16699 -5 -3.5s-5.33301 0.5 -6 2.5c-24 97.333 -101 146 -231 146c-52 0 -97.833 -11.167 -137.5 -33.5s-70.5 -53.833 -92.5 -94.5
s-33 -87.667 -33 -141c0 -62.667 13.667 -120.5 41 -173.5s63.666 -95 108.999 -126s94.333 -46.5 147 -46.5c49.333 0 91.833 13 127.5 39s61.834 65.667 78.501 119c0 2 1.33301 3 4 3z" />
    <glyph glyph-name="Egrave" unicode="&#xc8;" horiz-adv-x="533" 
d="M171.5 764.5c8.33301 5 17.998 9.49902 28.998 13.499s17.833 5.33301 20.5 4l84.5 -48c29.667 -16.667 58.834 -31.667 87.501 -45c1.33301 -0.666992 2 -2 2 -4s-0.666992 -3.66699 -2 -5s-2.66602 -1.66602 -3.99902 -0.999023
c-75.333 33.333 -149.666 59 -222.999 77c-4.66699 0.666992 -2.83398 3.5 5.49902 8.5zM475.998 148.499c4 -0.333008 6 -1.50195 6 -3.50195c-6 -42 -9 -85.333 -9 -130c0 -5.33301 -1.16699 -9.16602 -3.5 -11.499s-6.5 -3.5 -12.5 -3.5h-413c-1.33301 0 -2 2 -2 6
s0.666992 6 2 6c26 0 45.167 1.66699 57.5 5s20.666 9.83301 24.999 19.5s6.5 24.5 6.5 44.5v463c0 20 -2.16699 34.667 -6.5 44s-12.666 15.833 -24.999 19.5s-31.5 5.5 -57.5 5.5c-1.33301 0 -2 2 -2 6s0.666992 6 2 6h396c6 0 9 -3 9 -9l2 -121c0 -2 -1.83301 -3 -5.5 -3
s-5.5 1 -5.5 3c0 34 -9 61 -27 81s-41.667 30 -71 30h-69c-25.333 0 -44 -1.66699 -56 -5s-20.167 -9.66602 -24.5 -18.999s-6.5 -24 -6.5 -44v-203h132c30.667 0 52 5.16699 64 15.5s18 28.166 18 53.499c0 1.33301 2 2 6 2s6 -0.666992 6 -2l-1 -79
c0 -19.333 0.333008 -33.666 1 -42.999l1 -47c0 -1.33301 -2 -2 -6 -2s-6 0.666992 -6 2c0 30 -6.33301 51 -19 63s-35 18 -67 18h-129v-231c0 -19.333 2.16699 -33.5 6.5 -42.5s12.333 -15.167 24 -18.5s30.5 -5 56.5 -5h92c26.667 0 49.5 11.667 68.5 35
s31.167 54 36.5 92c0 2 2 2.83301 6 2.5z" />
    <glyph glyph-name="Eacute" unicode="&#xc9;" horiz-adv-x="533" 
d="M191 678c-2.66699 0 -4.33398 1.5 -5.00098 4.5s0 5.16699 2 6.5c30.667 14 71.334 35.667 122.001 65l50 28c2.66699 1.33301 9.5 0 20.5 -4s20.667 -8.5 29 -13.5s10.166 -7.83301 5.49902 -8.5c-41.333 -10 -79.166 -21.167 -113.499 -33.5
s-70.5 -26.833 -108.5 -43.5zM476 148.5c4 -0.333008 6 -1.50195 6 -3.50195c-6 -42 -9 -85.333 -9 -130c0 -5.33301 -1.16699 -9.16602 -3.5 -11.499s-6.5 -3.5 -12.5 -3.5h-413c-1.33301 0 -2 2 -2 6s0.666992 6 2 6c26 0 45.167 1.66699 57.5 5
s20.666 9.83301 24.999 19.5s6.5 24.5 6.5 44.5v463c0 20 -2.16699 34.667 -6.5 44s-12.666 15.833 -24.999 19.5s-31.5 5.5 -57.5 5.5c-1.33301 0 -2 2 -2 6s0.666992 6 2 6h396c6 0 9 -3 9 -9l2 -121c0 -2 -1.83301 -3 -5.5 -3s-5.5 1 -5.5 3c0 34 -9 61 -27 81
s-41.667 30 -71 30h-69c-25.333 0 -44 -1.66699 -56 -5s-20.167 -9.66602 -24.5 -18.999s-6.5 -24 -6.5 -44v-203h132c30.667 0 52 5.16699 64 15.5s18 28.166 18 53.499c0 1.33301 2 2 6 2s6 -0.666992 6 -2l-1 -79c0 -19.333 0.333008 -33.666 1 -42.999l1 -47
c0 -1.33301 -2 -2 -6 -2s-6 0.666992 -6 2c0 30 -6.33301 51 -19 63s-35 18 -67 18h-129v-231c0 -19.333 2.16699 -33.5 6.5 -42.5s12.333 -15.167 24 -18.5s30.5 -5 56.5 -5h92c26.667 0 49.5 11.667 68.5 35s31.167 54 36.5 92c0 2 2 2.83301 6 2.5z" />
    </font>
</defs>
</svg>
