<?xml version="1.0" standalone="no"?>
<!DOCTYPE svg PUBLIC "-//W3C//DTD SVG 1.1//EN" "http://www.w3.org/Graphics/SVG/1.1/DTD/svg11.dtd" >
<svg>
<metadata>
Created by FontForge 20090914 at Fri Jan 13 15:42:29 2023
 By www-data
Copyright 2015 The Cormorant Project Authors (github.com/CatharsisFonts/Cormorant)
</metadata>
<defs>
<font id="CormorantInfant-Bold" horiz-adv-x="567" >
  <font-face 
    font-family="Cormorant Infant"
    font-weight="700"
    font-stretch="normal"
    units-per-em="1000"
    panose-1="0 0 0 0 0 0 0 0 0 0"
    ascent="800"
    descent="-200"
    x-height="386"
    cap-height="625"
    bbox="-105.058 -282.166 1451.8 937"
    underline-thickness="50"
    underline-position="-75"
    unicode-range="U+0020-U+FFFB"
  />
<missing-glyph horiz-adv-x="501" 
d="M94 725h317v-1000h-317v1000zM233 626v-38h-66v-32h166v32h-66v38h66v32h-165v-32h65zM333 426v34h-66v69h-100v-103h166zM200 495h33v-35h-33v35zM233 365v-36h-66v-34h100v70h66v33h-166v-33h66zM167 273v-34h166v99h-32v-65h-134zM267 160v24h34v-48h-101v80h-33v-113
h166v113h-100v-56h34zM333 -70v113h-166v-113h166zM200 11h101v-48h-101v48zM237 -126l-70 -47v-33h166v33h-101l69 47h32v34h-166v-34h70z" />
    <glyph glyph-name="T_T.liga" unicode="TT" horiz-adv-x="1159" 
d="M1116.5 654c3.66699 0 5.50391 -1.33105 5.50391 -3.99805c-2 -20 -4 -52 -6 -96s-3 -79.333 -3 -106c0 -2 -1.66699 -3 -5 -3s-5.33301 1 -6 3c-12.667 52.667 -31.834 91.5 -57.501 116.5s-59.167 37.5 -100.5 37.5c-20 0 -33 -3.66699 -39 -11s-9 -23.666 -9 -48.999
v-461c0 -20.667 1.83301 -35.667 5.5 -45s11.167 -15.666 22.5 -18.999s29.666 -5 54.999 -5c1.33301 0 2 -2 2 -6s-0.666992 -6 -2 -6c-24.667 0 -43.667 0.333008 -57 1l-83 1l-81 -1c-14 -0.666992 -33.667 -1 -59 -1c-1.33301 0 -2 2 -2 6s0.666992 6 2 6
c24.667 0 42.834 1.66699 54.501 5s19.667 9.83301 24 19.5s6.5 24.5 6.5 44.5v463c0 24 -3 39.667 -9 47s-18.333 11 -37 11c-33.333 0 -60.166 -4.66699 -80.499 -14s-36.166 -25.166 -47.499 -47.499s-19.666 -53.166 -24.999 -92.499c0 -2 -2 -3 -6 -3s-6 1 -6 3
c-3.33301 39.333 -10.166 70.166 -20.499 92.499s-25.833 38.166 -46.5 47.499s-48.667 14 -84 14c-15.333 0 -26 -4.33301 -32 -13s-9 -24.334 -9 -47.001v-461c0 -20 1.66699 -34.833 5 -44.5s10 -16.167 20 -19.5s25.667 -5 47 -5c1.33301 0 2 -2 2 -6
s-0.666992 -6 -2 -6c-22 0 -39.333 0.333008 -52 1l-77 1l-81 -1c-14 -0.666992 -33.333 -1 -58 -1c-2 0 -3 2 -3 6s1 6 3 6c24 0 41.833 1.66699 53.5 5s19.667 9.83301 24 19.5s6.5 24.5 6.5 44.5v463c0 22 -3.5 37.167 -10.5 45.5s-19.167 12.5 -36.5 12.5
c-38.667 0 -71.834 -12.5 -99.501 -37.5s-51.5 -64.167 -71.5 -117.5c-0.666992 -2 -2.66699 -2.83301 -6 -2.5s-5 1.5 -5 3.5c3.33301 21.333 7.16602 54.166 11.499 98.499s6.5 77.833 6.5 100.5c0 3.33301 2 5 6 5s6 -1.66699 6 -5c0 -14.667 17.667 -22 53 -22
c57.333 -2 124.333 -3 201 -3c37.333 0 76.666 0.666992 117.999 2l63 1c28 0 46.667 0.333008 56 1s15.166 2.66699 17.499 6s4.16602 9.66602 5.49902 18.999c0 2.66699 1.83301 4 5.5 4s5.5 -1.33301 5.5 -4c-0.666992 -9.33301 -0.333984 -15.5 0.999023 -18.5
s5.16602 -4.83301 11.499 -5.5s20.166 -1.33398 41.499 -2.00098c54 -2 117.333 -3 190 -3c39.333 0 81 0.666992 125 2l68 1c24.667 0 43 1.66699 55 5s19.667 10 23 20c0.666992 2.66699 2.83398 4 6.50098 4z" />
    <glyph glyph-name="T_h.liga" unicode="Th" horiz-adv-x="1048" 
d="M181 6c0 4 0.996094 5.99902 2.99609 5.99902c24 0 41.833 1.66699 53.5 5s19.667 9.83301 24 19.5s6.5 24.5 6.5 44.5v463c0 22.667 -3 38 -9 46s-18.333 12 -37 12c-79.333 0 -136.333 -51.667 -171 -155c-0.666992 -2 -2.66699 -2.83301 -6 -2.5s-5 1.5 -5 3.5
c2.66699 26.667 5.66699 61.167 9 103.5s5 74.166 5 95.499c0 3.33301 1.83301 5 5.5 5s5.5 -1.66699 5.5 -5c0 -14.667 19 -22 57 -22c57.333 -2 124.333 -3 201 -3c102 0 166.667 1 194 3c40.667 2 75.834 12.333 105.501 31s51.834 41.667 66.501 69c1.33301 2 4 3 8 3
c7.33301 0 11 -1.66699 11 -5v-642c0 -26.667 3.66699 -44.834 11 -54.501s21.333 -14.5 42 -14.5c2.66699 0 4 -2 4 -6s-1.33301 -6 -4 -6c-17.333 0 -31 0.333008 -41 1l-59 1l-60 -1c-10 -0.666992 -23.667 -1 -41 -1c-1.33301 0 -2 2 -2 6s0.666992 6 2 6
c20.667 0 34.834 4.83301 42.501 14.5s11.5 27.834 11.5 54.501v504c0 6.66699 -1.5 11.167 -4.5 13.5s-8.5 3.5 -16.5 3.5h-165c-19.333 0 -32.166 -4.16699 -38.499 -12.5s-9.5 -24.166 -9.5 -47.499v-461c0 -20.667 2 -35.667 6 -45s11.667 -15.666 23 -18.999
s29.333 -5 54 -5c2 0 3 -2 3 -6s-1 -6 -3 -6c-24 -0 -43 0.333008 -57 1l-83 1l-81 -1c-14 -0.666992 -33.333 -1 -58 -1c-2 0 -3 2 -3 6zM826.996 5.99902c0 4 0.666016 6 1.99902 6c20.667 0 34.834 4.83301 42.501 14.5s11.5 27.834 11.5 54.501v144
c0 36 -6.66699 62.667 -20 80s-34 26 -62 26c-20.667 0 -41.5 -5.33301 -62.5 -16s-37.5 -24.667 -49.5 -42v19c22.667 33.333 48.667 59.333 78 78s60.333 28 93 28c36 0 64.5 -11.5 85.5 -34.5s31.5 -53.167 31.5 -90.5v-192c0 -26.667 3.66699 -44.834 11 -54.501
s21.333 -14.5 42 -14.5c2.66699 0 4 -2 4 -6s-1.33301 -6 -4 -6c-17.333 0 -31 0.333008 -41 1l-59 1l-60 -1c-10 -0.666992 -23.667 -1 -41 -1c-1.33301 0 -2 2 -2 6z" />
    <glyph glyph-name="f_b.liga" unicode="fb" horiz-adv-x="830" 
d="M23 6c0 4 1.33203 5.99902 3.99902 5.99902c17.333 0 30.166 1.66699 38.499 5s14 9.83301 17 19.5s4.5 24.5 4.5 44.5v225c0 20.667 -4.33301 34.167 -13 40.5s-25.667 9.5 -51 9.5c-2 0 -3 3 -3 9s1 9 3 9c23.333 0 39.333 3.16699 48 9.5s13.334 17.833 14.001 34.5
c4 103.333 22 178.333 54 225c19.333 28.667 43.833 49.667 73.5 63s65.167 20 106.5 20c64 0 114.667 -16.667 152 -50l-66 -67c-14 30 -31.167 54 -51.5 72s-41.166 27 -62.499 27c-38.667 0 -67 -26.333 -85 -79c-16.667 -48 -25 -111.333 -25 -190v-358
c0 -20.667 2 -35.667 6 -45s12.167 -15.666 24.5 -18.999s31.833 -5 58.5 -5c2.66699 0 4 -2 4 -6s-1.33301 -6 -4 -6l-69 1c-15.333 0.666992 -38 1 -68 1l-61 -1c-10.667 -0.666992 -25.667 -1 -45 -1c-2.66699 0 -4 2 -4 6zM137.999 350.999v25.999
c40.667 0 91.667 3.33301 153 10c2 0 3.66699 -2.5 5 -7.5s2 -10.5 2 -16.5c0 -6.66699 -1.16699 -13.167 -3.5 -19.5s-4.5 -9.16602 -6.5 -8.49902c-46 10.667 -96 16 -150 16zM348.999 -7.00195c-2.66699 0 -4.33398 1.16797 -5.00098 3.50098s0 4.16602 2 5.49902
c16.667 9.33301 29 22 37 38s12 37 12 63v551c16 0 30.333 4 43 12s22.334 18 29.001 30s10 23.667 10 35c0 2 2 3 6 3s6 -1 6 -3v-675l-138 -63h-2zM424.999 47.999l57.0039 83c14 -42 32 -73.333 54 -94s45.667 -31 71 -31c29.333 0 51.5 14.5 66.5 43.5
s22.5 70.5 22.5 124.5c0 58 -9.83301 101.167 -29.5 129.5s-46.5 42.5 -80.5 42.5c-36.667 0 -73.334 -14.667 -110.001 -44l-9 8c27.333 28 53.333 49.833 78 65.5s54 23.5 88 23.5c29.333 0 56.666 -7 81.999 -21s45.666 -35 60.999 -63s23 -62 23 -102
c0 -48 -10.167 -89 -30.5 -123s-46.833 -59.667 -79.5 -77s-67 -26 -103 -26c-62.667 0 -116.334 20.333 -161.001 61z" />
    <glyph glyph-name="f_f.liga" unicode="ff" horiz-adv-x="605" 
d="M23 6c0 4 1.33594 5.99902 4.00293 5.99902c17.333 0 30.166 1.66699 38.499 5s14 9.83301 17 19.5s4.5 24.5 4.5 44.5v225c0 20.667 -4.33301 34.167 -13 40.5s-25.667 9.5 -51 9.5c-2 0 -3 3 -3 9s1 9 3 9c23.333 0 39.333 3.16699 48 9.5s13.334 17.833 14.001 34.5
c4.66699 95.333 28 164.666 70 207.999s100.667 65 176 65c31.333 0 60.166 -3.66699 86.499 -11s46.166 -15.666 59.499 -24.999l-43 -77c-14.667 28 -34.334 50.5 -59.001 67.5s-50 25.5 -76 25.5c-36 0 -64.667 -19 -86 -57s-32 -96.333 -32 -175v-358
c0 -20.667 2 -35.667 6 -45s12.167 -15.666 24.5 -18.999s31.833 -5 58.5 -5c2.66699 0 4 -2 4 -6s-1.33301 -6 -4 -6l-69 1c-15.333 0.666992 -38 1 -68 1l-61 -1c-10.667 -0.666992 -25.667 -1 -45 -1c-2.66699 0 -4 2 -4 6zM374.503 342.499
c-7.66699 5.66699 -23.499 9.16602 -47.499 10.499c-25.333 0.666992 -84.333 1 -177 1v23c83.333 0 140.666 0.333008 171.999 1c25.333 0.666992 42 3.5 50 8.5s12.333 15.5 13 31.5l23 -47l-22 -65c0 18.667 -3.83301 30.834 -11.5 36.501zM322.004 5.99805
c0 4 1.33398 6 4.00098 6c17.333 0 30.166 1.66699 38.499 5s14 9.83301 17 19.5s4.5 24.5 4.5 44.5v225c0 20.667 -4.33301 34.167 -13 40.5s-25.667 9.5 -51 9.5c-2 0 -3 3 -3 9s1 9 3 9c23.333 0 39.333 3.16699 48 9.5s13.334 17.833 14.001 34.5
c3.33301 108.667 24 187.167 62 235.5s95.333 72.5 172 72.5c37.333 0 66.333 -5.16699 87 -15.5s31 -24.833 31 -43.5c0 -15.333 -5.16699 -27.333 -15.5 -36s-22.166 -13 -35.499 -13c-16 0 -27.667 3.66699 -35 11s-14 18 -20 32s-12.333 24.5 -19 31.5
s-17.334 10.5 -32.001 10.5c-30.667 0 -54.834 -21.333 -72.501 -64s-26.5 -109.334 -26.5 -200.001v-358c0 -20.667 2 -35.667 6 -45s12.167 -15.666 24.5 -18.999s31.833 -5 58.5 -5c2.66699 0 4 -2 4 -6s-1.33301 -6 -4 -6l-69 1c-15.333 0.666992 -38 1 -68 1l-61 -1
c-10.667 -0.666992 -25.667 -1 -45 -1c-2.66699 0 -4 2 -4 6zM437.005 350.998v25.999c40.667 0 91.667 3.33301 153 10c2 0 3.66699 -2.5 5 -7.5s2 -10.5 2 -16.5c0 -6.66699 -1.16699 -13.167 -3.5 -19.5s-4.5 -9.16602 -6.5 -8.49902c-46 10.667 -96 16 -150 16z" />
    <glyph glyph-name="f_f_b.liga" unicode="ffb" horiz-adv-x="1130" 
d="M23 6c0 4 1.33594 5.99902 4.00293 5.99902c17.333 0 30.166 1.66699 38.499 5s14 9.83301 17 19.5s4.5 24.5 4.5 44.5v225c0 20.667 -4.33301 34.167 -13 40.5s-25.667 9.5 -51 9.5c-2 0 -3 3 -3 9s1 9 3 9c23.333 0 39.333 3.16699 48 9.5s13.334 17.833 14.001 34.5
c4.66699 95.333 28 164.666 70 207.999s100.667 65 176 65c31.333 0 60.166 -3.66699 86.499 -11s46.166 -15.666 59.499 -24.999l-43 -77c-14.667 28 -34.334 50.5 -59.001 67.5s-50 25.5 -76 25.5c-36 0 -64.667 -19 -86 -57s-32 -96.333 -32 -175v-358
c0 -20.667 2 -35.667 6 -45s12.167 -15.666 24.5 -18.999s31.833 -5 58.5 -5c2.66699 0 4 -2 4 -6s-1.33301 -6 -4 -6l-69 1c-15.333 0.666992 -38 1 -68 1l-61 -1c-10.667 -0.666992 -25.667 -1 -45 -1c-2.66699 0 -4 2 -4 6zM374.503 342.499
c-7.66699 5.66699 -23.499 9.16602 -47.499 10.499c-25.333 0.666992 -84.333 1 -177 1v23c83.333 0 140.666 0.333008 171.999 1c25.333 0.666992 42 3.5 50 8.5s12.333 15.5 13 31.5l23 -47l-22 -65c0 18.667 -3.83301 30.834 -11.5 36.501zM322.004 5.99805
c0 4 1.33203 5.99902 3.99902 5.99902c17.333 0 30.166 1.66699 38.499 5s14 9.83301 17 19.5s4.5 24.5 4.5 44.5v225c0 20.667 -4.33301 34.167 -13 40.5s-25.667 9.5 -51 9.5c-2 0 -3 3 -3 9s1 9 3 9c23.333 0 39.333 3.16699 48 9.5s13.334 17.833 14.001 34.5
c4 103.333 22 178.333 54 225c19.333 28.667 43.833 49.667 73.5 63s65.167 20 106.5 20c64 0 114.667 -16.667 152 -50l-66 -67c-14 30 -31.167 54 -51.5 72s-41.166 27 -62.499 27c-38.667 0 -67 -26.333 -85 -79c-16.667 -48 -25 -111.333 -25 -190v-358
c0 -20.667 2 -35.667 6 -45s12.167 -15.666 24.5 -18.999s31.833 -5 58.5 -5c2.66699 0 4 -2 4 -6s-1.33301 -6 -4 -6l-69 1c-15.333 0.666992 -38 1 -68 1l-61 -1c-10.667 -0.666992 -25.667 -1 -45 -1c-2.66699 0 -4 2 -4 6zM437.003 350.997v25.999
c40.667 0 91.667 3.33301 153 10c2 0 3.66699 -2.5 5 -7.5s2 -10.5 2 -16.5c0 -6.66699 -1.16699 -13.167 -3.5 -19.5s-4.5 -9.16602 -6.5 -8.49902c-46 10.667 -96 16 -150 16zM648.003 -7.00391c-2.66699 0 -4.33398 1.16797 -5.00098 3.50098s0 4.16602 2 5.49902
c16.667 9.33301 29 22 37 38s12 37 12 63v551c16 0 30.333 4 43 12s22.334 18 29.001 30s10 23.667 10 35c0 2 2 3 6 3s6 -1 6 -3v-675l-138 -63h-2zM724.003 47.9971l57.0039 83c14 -42 32 -73.333 54 -94s45.667 -31 71 -31c29.333 0 51.5 14.5 66.5 43.5
s22.5 70.5 22.5 124.5c0 58 -9.83301 101.167 -29.5 129.5s-46.5 42.5 -80.5 42.5c-36.667 0 -73.334 -14.667 -110.001 -44l-9 8c27.333 28 53.333 49.833 78 65.5s54 23.5 88 23.5c29.333 0 56.666 -7 81.999 -21s45.666 -35 60.999 -63s23 -62 23 -102
c0 -48 -10.167 -89 -30.5 -123s-46.833 -59.667 -79.5 -77s-67 -26 -103 -26c-62.667 0 -116.334 20.333 -161.001 61z" />
    <glyph glyph-name="f_f_f.liga" unicode="fff" horiz-adv-x="904" 
d="M323 6c0 4 1.00293 5.99902 3.00293 5.99902c17.333 0 30.166 1.66699 38.499 5s14 9.83301 17 19.5s4.5 24.5 4.5 44.5v225c0 20.667 -4.33301 34.167 -13 40.5s-25.334 9.5 -50.001 9.5c-0.666992 0 -1.5 1 -2.5 3s-1.5 4 -1.5 6c0 2.66699 0.333008 4.83398 1 6.50098
s1.66699 2.5 3 2.5c22.667 0 38.5 3.16699 47.5 9.5s13.833 17.833 14.5 34.5c7.33301 198 89 297 245 297c31.333 0 60.166 -6 86.499 -18s46.5 -26 60.5 -42l-44 -77c-14.667 35.333 -34.334 63.666 -59.001 84.999s-49.667 32 -75 32c-36 0 -64.667 -21 -86 -63
s-32 -106.333 -32 -193v-358c0 -20.667 2 -35.667 6 -45s12 -15.666 24 -18.999s31.667 -5 59 -5c2 0 3 -2 3 -6s-1 -6 -3 -6l-70 1c-14.667 0.666992 -37 1 -67 1l-61 -1c-11.333 -0.666992 -26.666 -1 -45.999 -1c-2 0 -3 2 -3 6zM23.0029 5.99902
c0 4 1.33594 5.99902 4.00293 5.99902c17.333 0 30.166 1.66699 38.499 5s14 9.83301 17 19.5s4.5 24.5 4.5 44.5v225c0 20.667 -4.33301 34.167 -13 40.5s-25.667 9.5 -51 9.5c-2 0 -3 3 -3 9s1 9 3 9c23.333 0 39.333 3.16699 48 9.5s13.334 17.833 14.001 34.5
c4.66699 95.333 28 164.666 70 207.999s100.667 65 176 65c31.333 0 60.166 -3.66699 86.499 -11s46.166 -15.666 59.499 -24.999l-43 -77c-14.667 28 -34.334 50.5 -59.001 67.5s-50 25.5 -76 25.5c-36 0 -64.667 -19 -86 -57s-32 -96.333 -32 -175v-358
c0 -20.667 2 -35.667 6 -45s12.167 -15.666 24.5 -18.999s31.833 -5 58.5 -5c2.66699 0 4 -2 4 -6s-1.33301 -6 -4 -6l-69 1c-15.333 0.666992 -38 1 -68 1l-61 -1c-10.667 -0.666992 -25.667 -1 -45 -1c-2.66699 0 -4 2 -4 6zM374.506 342.498
c-7.66699 5.66699 -23.499 9.16602 -47.499 10.499c-25.333 0.666992 -84.333 1 -177 1v23c83.333 0 140.666 0.333008 171.999 1c25.333 0.666992 42 3.5 50 8.5s12.333 15.5 13 31.5l23 -47l-22 -65c0 18.667 -3.83301 30.834 -11.5 36.501zM674.507 342.497
c-7.66699 5.66699 -23.5 9.16602 -47.5 10.499c-26 0.666992 -85.333 1 -178 1v23c83.333 0 140.666 0.333008 171.999 1c26 0.666992 42.833 3.5 50.5 8.5s11.834 15.5 12.501 31.5l24 -47l-22 -65c0 18.667 -3.83301 30.834 -11.5 36.501zM737.007 350.996v25.999
c40.667 0 91.667 3.33301 153 10c2 0 3.66699 -2.5 5 -7.5s2 -10.5 2 -16.5c0 -6.66699 -1.16699 -13.167 -3.5 -19.5s-4.5 -9.16602 -6.5 -8.49902c-46 10.667 -96 16 -150 16zM622.007 5.99512c0 4 1.33398 6 4.00098 6c17.333 0 30.166 1.66699 38.499 5
s14 9.83301 17 19.5s4.5 24.5 4.5 44.5v225c0 18.667 -1.16699 31.167 -3.5 37.5s-7 10 -14 11s-22.5 1.5 -46.5 1.5c-2 0 -3 3 -3 9s1 9 3 9c23.333 0 39.333 3.16699 48 9.5s13.334 17.833 14.001 34.5c3.33301 108.667 24 187.167 62 235.5s95.333 72.5 172 72.5
c37.333 0 66.333 -5.16699 87 -15.5s31 -24.833 31 -43.5c0 -15.333 -5.16699 -27.333 -15.5 -36s-22.166 -13 -35.499 -13c-16 0 -27.667 3.66699 -35 11s-14 18 -20 32s-12.333 24.5 -19 31.5s-17.334 10.5 -32.001 10.5c-30.667 0 -54.834 -21.333 -72.501 -64
s-26.5 -109.334 -26.5 -200.001v-358c0 -20.667 2 -35.667 6 -45s12.167 -15.666 24.5 -18.999s31.833 -5 58.5 -5c2.66699 0 4 -2 4 -6s-1.33301 -6 -4 -6l-69 1c-15.333 0.666992 -38 1 -68 1l-61 -1c-10.667 -0.666992 -25.667 -1 -45 -1c-2.66699 0 -4 2 -4 6z" />
    <glyph glyph-name="f_f_h.liga" unicode="ffh" horiz-adv-x="1129" 
d="M23 6c0 4 1.33594 5.99902 4.00293 5.99902c17.333 0 30.166 1.66699 38.499 5s14 9.83301 17 19.5s4.5 24.5 4.5 44.5v225c0 20.667 -4.33301 34.167 -13 40.5s-25.667 9.5 -51 9.5c-2 0 -3 3 -3 9s1 9 3 9c23.333 0 39.333 3.16699 48 9.5s13.334 17.833 14.001 34.5
c4.66699 95.333 28 164.666 70 207.999s100.667 65 176 65c31.333 0 60.166 -3.66699 86.499 -11s46.166 -15.666 59.499 -24.999l-43 -77c-14.667 28 -34.334 50.5 -59.001 67.5s-50 25.5 -76 25.5c-36 0 -64.667 -19 -86 -57s-32 -96.333 -32 -175v-358
c0 -20.667 2 -35.667 6 -45s12.167 -15.666 24.5 -18.999s31.833 -5 58.5 -5c2.66699 0 4 -2 4 -6s-1.33301 -6 -4 -6l-69 1c-15.333 0.666992 -38 1 -68 1l-61 -1c-10.667 -0.666992 -25.667 -1 -45 -1c-2.66699 0 -4 2 -4 6zM374.503 342.499
c-7.66699 5.66699 -23.499 9.16602 -47.499 10.499c-25.333 0.666992 -84.333 1 -177 1v23c83.333 0 140.666 0.333008 171.999 1c25.333 0.666992 42 3.5 50 8.5s12.333 15.5 13 31.5l23 -47l-22 -65c0 18.667 -3.83301 30.834 -11.5 36.501zM322.004 5.99805
c0 4 1.33203 5.99902 3.99902 5.99902c17.333 0 30.166 1.66699 38.499 5s14 9.83301 17 19.5s4.5 24.5 4.5 44.5v225c0 20.667 -4.33301 34.167 -13 40.5s-25.667 9.5 -51 9.5c-2 0 -3 3 -3 9s1 9 3 9c23.333 0 39.333 3.16699 48 9.5s13.334 17.833 14.001 34.5
c3.33301 108.667 23.833 187.167 61.5 235.5s95.167 72.5 172.5 72.5c64 0 114.667 -16.667 152 -50l-66 -67c-14 30 -31.167 54 -51.5 72s-41.166 27 -62.499 27c-34 0 -60.833 -21.667 -80.5 -65s-29.5 -111.333 -29.5 -204v-358c0 -20.667 2 -35.667 6 -45
s12.167 -15.666 24.5 -18.999s31.833 -5 58.5 -5c2.66699 0 4 -2 4 -6s-1.33301 -6 -4 -6l-69 1c-15.333 0.666992 -38 1 -68 1l-61 -1c-10.667 -0.666992 -25.667 -1 -45 -1c-2.66699 0 -4 2 -4 6zM437.003 350.997v25.999c40.667 0 91.667 3.33301 153 10
c2 0 3.66699 -2.5 5 -7.5s2 -10.5 2 -16.5c0 -6.66699 -1.16699 -13.167 -3.5 -19.5s-4.5 -9.16602 -6.5 -8.49902c-46 10.667 -96 16 -150 16zM638.003 5.99609c0 4 0.998047 6 2.99805 6c20 0 33.833 4.83301 41.5 14.5s11.5 27.834 11.5 54.501v573c16 0 30.333 4 43 12
s22.334 18 29.001 30s10 23.667 10 35c0 2 2 3 6 3s6 -1 6 -3v-650c0 -26.667 3.83301 -44.834 11.5 -54.501s21.834 -14.5 42.501 -14.5c2 0 3 -2 3 -6s-1 -6 -3 -6c-17.333 0 -31 0.333008 -41 1l-60 1l-59 -1c-10 -0.666992 -23.667 -1 -41 -1c-2 0 -3 2 -3 6z
M907.001 5.99609c0 4 0.998047 5.99902 2.99805 5.99902c20 0 33.833 4.83301 41.5 14.5s11.5 27.834 11.5 54.501v144c0 36 -6.5 62.667 -19.5 80s-33.833 26 -62.5 26c-20 0 -40.5 -5.16699 -61.5 -15.5s-37.5 -23.833 -49.5 -40.5l-6 12
c24.667 34.667 51.834 61.834 81.501 81.501s61.167 29.5 94.5 29.5c36 0 64.5 -11.5 85.5 -34.5s31.5 -53.167 31.5 -90.5v-192c0 -26.667 3.83301 -44.834 11.5 -54.501s21.834 -14.5 42.501 -14.5c2 0 3 -2 3 -6s-1 -6 -3 -6c-17.333 0 -31 0.333008 -41 1l-60 1l-59 -1
c-10 -0.666992 -23.667 -1 -41 -1c-2 0 -3 2 -3 6z" />
    <glyph glyph-name="f_f_i.liga" unicode="ffi" horiz-adv-x="869" 
d="M23 6c0 4 1.33594 5.99902 4.00293 5.99902c17.333 0 30.166 1.66699 38.499 5s14 9.83301 17 19.5s4.5 24.5 4.5 44.5v225c0 20.667 -4.33301 34.167 -13 40.5s-25.667 9.5 -51 9.5c-2 0 -3 3 -3 9s1 9 3 9c23.333 0 39.333 3.16699 48 9.5s13.334 17.833 14.001 34.5
c4.66699 95.333 28 164.666 70 207.999s100.667 65 176 65c31.333 0 60.166 -3.66699 86.499 -11s46.166 -15.666 59.499 -24.999l-43 -77c-14.667 28 -34.334 50.5 -59.001 67.5s-50 25.5 -76 25.5c-36 0 -64.667 -19 -86 -57s-32 -96.333 -32 -175v-358
c0 -20.667 2 -35.667 6 -45s12.167 -15.666 24.5 -18.999s31.833 -5 58.5 -5c2.66699 0 4 -2 4 -6s-1.33301 -6 -4 -6l-69 1c-15.333 0.666992 -38 1 -68 1l-61 -1c-10.667 -0.666992 -25.667 -1 -45 -1c-2.66699 0 -4 2 -4 6zM374.503 342.499
c-7.66699 5.66699 -23.499 9.16602 -47.499 10.499c-25.333 0.666992 -84.333 1 -177 1v23c83.333 0 140.666 0.333008 171.999 1c25.333 0.666992 42 3.5 50 8.5s12.333 15.5 13 31.5l23 -47l-22 -65c0 18.667 -3.83301 30.834 -11.5 36.501zM322.004 5.99805
c0 4 1.33301 5.99805 4 5.99805c17.333 0 30.166 1.66699 38.499 5s14 9.83301 17 19.5s4.5 24.5 4.5 44.5v225c0 20.667 -4.33301 34.167 -13 40.5s-25.667 9.5 -51 9.5c-2 0 -3 3 -3 9s1 9 3 9c23.333 0 39.333 3.16699 48 9.5s13.334 17.833 14.001 34.5
c4.66699 108 28 186.333 70 235s103 73 183 73c45.333 0 81 -7 107 -21s39 -32.667 39 -56c0 -12.667 -4.16699 -23 -12.5 -31s-20.5 -12 -36.5 -12c-15.333 0 -27 3.83301 -35 11.5s-16.667 19.834 -26 36.501c-10 17.333 -19.667 30.333 -29 39s-22.333 13 -39 13
c-22.667 0 -43.5 -9.33301 -62.5 -28s-34.167 -48 -45.5 -88s-17 -90.333 -17 -151v-358c0 -20.667 2 -35.667 6 -45s12.167 -15.666 24.5 -18.999s31.833 -5 58.5 -5c2.66699 0 4 -2 4 -6s-1.33301 -6 -4 -6l-69 1c-15.333 0.666992 -38 1 -68 1l-61 -1
c-10.667 -0.666992 -25.667 -1 -45 -1c-2.66699 0 -4 2 -4 6zM437.004 350.996v25.999c40.667 0 91.667 3.33301 153 10c2 0 3.66699 -2.5 5 -7.5s2 -10.5 2 -16.5c0 -6.66699 -1.16699 -13.167 -3.5 -19.5s-4.5 -9.16602 -6.5 -8.49902c-46 10.667 -96 16 -150 16z
M642.004 5.99512c0 4 0.666016 6 1.99902 6c20.667 0 34.834 4.83301 42.501 14.5s11.5 27.834 11.5 54.501v179c0 22.667 -2.16699 39 -6.5 49s-11.833 15 -22.5 15c-8.66699 0 -21.334 -3.66699 -38.001 -11h-1c-2.66699 0 -4.66699 1.83301 -6 5.5
s-1.33301 5.83398 0 6.50098l151 70c0.666992 0.666992 1.66699 1 3 1c3.33301 0 6.83301 -1.66699 10.5 -5s5.5 -6.33301 5.5 -9c0 -8 -0.333008 -15.333 -1 -22c-1.33301 -26.667 -2 -59.334 -2 -98.001v-181c0 -26.667 3.83301 -44.834 11.5 -54.501
s21.834 -14.5 42.501 -14.5c2.66699 0 4 -2 4 -6s-1.33301 -6 -4 -6c-17.333 0 -31.333 0.333008 -42 1l-58 1l-60 -1c-10 -0.666992 -23.667 -1 -41 -1c-1.33301 0 -2 2 -2 6z" />
    <glyph glyph-name="f_f_j.liga" unicode="ffj" horiz-adv-x="877" 
d="M23 6c0 4 1.33594 5.99902 4.00293 5.99902c17.333 0 30.166 1.66699 38.499 5s14 9.83301 17 19.5s4.5 24.5 4.5 44.5v225c0 20.667 -4.33301 34.167 -13 40.5s-25.667 9.5 -51 9.5c-2 0 -3 3 -3 9s1 9 3 9c23.333 0 39.333 3.16699 48 9.5s13.334 17.833 14.001 34.5
c4.66699 95.333 28 164.666 70 207.999s100.667 65 176 65c31.333 0 60.166 -3.66699 86.499 -11s46.166 -15.666 59.499 -24.999l-43 -77c-14.667 28 -34.334 50.5 -59.001 67.5s-50 25.5 -76 25.5c-36 0 -64.667 -19 -86 -57s-32 -96.333 -32 -175v-358
c0 -20.667 2 -35.667 6 -45s12.167 -15.666 24.5 -18.999s31.833 -5 58.5 -5c2.66699 0 4 -2 4 -6s-1.33301 -6 -4 -6l-69 1c-15.333 0.666992 -38 1 -68 1l-61 -1c-10.667 -0.666992 -25.667 -1 -45 -1c-2.66699 0 -4 2 -4 6zM374.503 342.499
c-7.66699 5.66699 -23.499 9.16602 -47.499 10.499c-25.333 0.666992 -84.333 1 -177 1v23c83.333 0 140.666 0.333008 171.999 1c25.333 0.666992 42 3.5 50 8.5s12.333 15.5 13 31.5l23 -47l-22 -65c0 18.667 -3.83301 30.834 -11.5 36.501zM322.004 5.99805
c0 4 1.33496 6 4.00195 6c17.333 0 30.166 1.66699 38.499 5s14 9.83301 17 19.5s4.5 24.5 4.5 44.5v225c0 20.667 -4.33301 34.167 -13 40.5s-25.667 9.5 -51 9.5c-2 0 -3 3 -3 9s1 9 3 9c23.333 0 39.333 3.16699 48 9.5s13.334 17.833 14.001 34.5
c4.66699 107.333 28 185.5 70 234.5s101 73.5 177 73.5c52.667 0 93.167 -7 121.5 -21s42.5 -32.667 42.5 -56c0 -12.667 -4.16699 -23 -12.5 -31s-20.5 -12 -36.5 -12c-16.667 0 -29.834 4.16699 -39.501 12.5s-19.834 21.166 -30.501 38.499
c-10.667 16.667 -20.5 29 -29.5 37s-21.167 12 -36.5 12c-38.667 0 -70 -22 -94 -66s-36 -111 -36 -201v-358c0 -20.667 2 -35.667 6 -45s12.167 -15.666 24.5 -18.999s31.833 -5 58.5 -5c2.66699 0 4 -2 4 -6s-1.33301 -6 -4 -6l-69 1c-15.333 0.666992 -38 1 -68 1l-61 -1
c-10.667 -0.666992 -25.667 -1 -45 -1c-2.66699 0 -4 2 -4 6zM620.506 -277.502c-1.66699 3.66699 -1.49707 5.83301 0.50293 6.5c32 14 54.833 36.5 68.5 67.5s20.5 75.167 20.5 132.5v331c0 22 -2.16699 38.167 -6.5 48.5s-11.833 15.5 -22.5 15.5
c-8.66699 0 -21.334 -3.66699 -38.001 -11h-1c-2.66699 0 -4.83398 1.83301 -6.50098 5.5s-1.5 5.83398 0.5 6.50098l151 70c0.666992 0.666992 1.66699 1 3 1c3.33301 0 6.66602 -1.66699 9.99902 -5s5 -6.33301 5 -9v-22c-1.33301 -26.667 -2 -59.334 -2 -98.001v-310
c0 -45.333 -5.5 -82.5 -16.5 -111.5s-29.333 -53.167 -55 -72.5s-61.167 -36 -106.5 -50c-1.33301 -0.666992 -2.83301 0.833008 -4.5 4.5zM437.009 350.997v25.999c40.667 0 91.667 3.33301 153 10c2 0 3.66699 -2.5 5 -7.5s2 -10.5 2 -16.5
c0 -6.66699 -1.16699 -13.167 -3.5 -19.5s-4.5 -9.16602 -6.5 -8.49902c-46 10.667 -96 16 -150 16z" />
    <glyph glyph-name="f_f_k.liga" unicode="ffk" horiz-adv-x="1111" 
d="M23 6c0 4 1.33594 5.99902 4.00293 5.99902c17.333 0 30.166 1.66699 38.499 5s14 9.83301 17 19.5s4.5 24.5 4.5 44.5v225c0 20.667 -4.33301 34.167 -13 40.5s-25.667 9.5 -51 9.5c-2 0 -3 3 -3 9s1 9 3 9c23.333 0 39.333 3.16699 48 9.5s13.334 17.833 14.001 34.5
c4.66699 95.333 28 164.666 70 207.999s100.667 65 176 65c31.333 0 60.166 -3.66699 86.499 -11s46.166 -15.666 59.499 -24.999l-43 -77c-14.667 28 -34.334 50.5 -59.001 67.5s-50 25.5 -76 25.5c-36 0 -64.667 -19 -86 -57s-32 -96.333 -32 -175v-358
c0 -20.667 2 -35.667 6 -45s12.167 -15.666 24.5 -18.999s31.833 -5 58.5 -5c2.66699 0 4 -2 4 -6s-1.33301 -6 -4 -6l-69 1c-15.333 0.666992 -38 1 -68 1l-61 -1c-10.667 -0.666992 -25.667 -1 -45 -1c-2.66699 0 -4 2 -4 6zM374.503 342.499
c-7.66699 5.66699 -23.499 9.16602 -47.499 10.499c-25.333 0.666992 -84.333 1 -177 1v23c83.333 0 140.666 0.333008 171.999 1c25.333 0.666992 42 3.5 50 8.5s12.333 15.5 13 31.5l23 -47l-22 -65c0 18.667 -3.83301 30.834 -11.5 36.501zM322.004 5.99805
c0 4 1.33203 5.99902 3.99902 5.99902c17.333 0 30.166 1.66699 38.499 5s14 9.83301 17 19.5s4.5 24.5 4.5 44.5v225c0 20.667 -4.33301 34.167 -13 40.5s-25.667 9.5 -51 9.5c-2 0 -3 3 -3 9s1 9 3 9c23.333 0 39.333 3.16699 48 9.5s13.334 17.833 14.001 34.5
c3.33301 108.667 23.833 187.167 61.5 235.5s95.167 72.5 172.5 72.5c64 0 114.667 -16.667 152 -50l-66 -67c-14 30 -31.167 54 -51.5 72s-41.166 27 -62.499 27c-34 0 -60.833 -21.667 -80.5 -65s-29.5 -111.333 -29.5 -204v-358c0 -20.667 2 -35.667 6 -45
s12.167 -15.666 24.5 -18.999s31.833 -5 58.5 -5c2.66699 0 4 -2 4 -6s-1.33301 -6 -4 -6l-69 1c-15.333 0.666992 -38 1 -68 1l-61 -1c-10.667 -0.666992 -25.667 -1 -45 -1c-2.66699 0 -4 2 -4 6zM437.003 350.997v25.999c40.667 0 91.667 3.33301 153 10
c2 0 3.66699 -2.5 5 -7.5s2 -10.5 2 -16.5c0 -6.66699 -1.16699 -13.167 -3.5 -19.5s-4.5 -9.16602 -6.5 -8.49902c-46 10.667 -96 16 -150 16zM889.003 5.99609c0 4 0.998047 5.99805 2.99805 5.99805c12 0 21.167 1.83301 27.5 5.5s9.5 8.83398 9.5 15.501
s-3 13.334 -9 20.001l-120 155l67 52l141 -179c18.667 -24 36.834 -41.5 54.501 -52.5s35.834 -16.5 54.501 -16.5c1.33301 0 2 -2 2 -6s-0.666992 -6 -2 -6c-17.333 0 -31 0.333008 -41 1l-60 1l-77 -1c-11.333 -0.666992 -27 -1 -47 -1c-2 0 -3 2 -3 6zM638.001 5.99414
c0 4 0.998047 6 2.99805 6c20 0 33.833 4.83301 41.5 14.5s11.5 27.834 11.5 54.501v573c16 0 30.333 4 43 12s22.334 18 29.001 30s10 23.667 10 35c0 2 2 3 6 3s6 -1 6 -3v-650c0 -26.667 3.83301 -44.834 11.5 -54.501s21.834 -14.5 42.501 -14.5c2 0 3 -2 3 -6
s-1 -6 -3 -6c-17.333 0 -31 0.333008 -41 1l-60 1l-59 -1c-10 -0.666992 -23.667 -1 -41 -1c-2 0 -3 2 -3 6zM745.999 164.994l134 130c17.333 16 26 32.333 26 49c0 8.66699 -3.16699 15.834 -9.5 21.501s-15.5 8.5 -27.5 8.5c-2 0 -3 2 -3 6s1 6 3 6
c19.333 0 34.333 -0.333008 45 -1l79 -1l72 1c9.33301 0.666992 22.666 1 39.999 1c1.33301 0 2 -2 2 -6s-0.666992 -6 -2 -6c-28.667 0 -61.667 -7.33301 -99 -22s-70.666 -35.334 -99.999 -62.001l-154 -141z" />
    <glyph glyph-name="f_f_l.liga" unicode="ffl" horiz-adv-x="867" 
d="M23 6c0 4 1.33594 5.99902 4.00293 5.99902c17.333 0 30.166 1.66699 38.499 5s14 9.83301 17 19.5s4.5 24.5 4.5 44.5v225c0 20.667 -4.33301 34.167 -13 40.5s-25.667 9.5 -51 9.5c-2 0 -3 3 -3 9s1 9 3 9c23.333 0 39.333 3.16699 48 9.5s13.334 17.833 14.001 34.5
c4.66699 95.333 28 164.666 70 207.999s100.667 65 176 65c31.333 0 60.166 -3.66699 86.499 -11s46.166 -15.666 59.499 -24.999l-43 -77c-14.667 28 -34.334 50.5 -59.001 67.5s-50 25.5 -76 25.5c-36 0 -64.667 -19 -86 -57s-32 -96.333 -32 -175v-358
c0 -20.667 2 -35.667 6 -45s12.167 -15.666 24.5 -18.999s31.833 -5 58.5 -5c2.66699 0 4 -2 4 -6s-1.33301 -6 -4 -6l-69 1c-15.333 0.666992 -38 1 -68 1l-61 -1c-10.667 -0.666992 -25.667 -1 -45 -1c-2.66699 0 -4 2 -4 6zM374.503 342.499
c-7.66699 5.66699 -23.499 9.16602 -47.499 10.499c-25.333 0.666992 -84.333 1 -177 1v23c83.333 0 140.666 0.333008 171.999 1c25.333 0.666992 42 3.5 50 8.5s12.333 15.5 13 31.5l23 -47l-22 -65c0 18.667 -3.83301 30.834 -11.5 36.501zM322.004 5.99805
c0 4 1.33203 5.99902 3.99902 5.99902c17.333 0 30.166 1.66699 38.499 5s14 9.83301 17 19.5s4.5 24.5 4.5 44.5v225c0 20.667 -4.33301 34.167 -13 40.5s-25.667 9.5 -51 9.5c-2 0 -3 3 -3 9s1 9 3 9c23.333 0 39.333 3.16699 48 9.5s13.334 17.833 14.001 34.5
c3.33301 108.667 23.833 187.167 61.5 235.5s95.167 72.5 172.5 72.5c64 0 114.667 -16.667 152 -50l-66 -67c-14 30 -31.167 54 -51.5 72s-41.166 27 -62.499 27c-34 0 -60.833 -21.667 -80.5 -65s-29.5 -111.333 -29.5 -204v-358c0 -20.667 2 -35.667 6 -45
s12.167 -15.666 24.5 -18.999s31.833 -5 58.5 -5c2.66699 0 4 -2 4 -6s-1.33301 -6 -4 -6l-69 1c-15.333 0.666992 -38 1 -68 1l-61 -1c-10.667 -0.666992 -25.667 -1 -45 -1c-2.66699 0 -4 2 -4 6zM437.003 350.997v25.999c40.667 0 91.667 3.33301 153 10
c2 0 3.66699 -2.5 5 -7.5s2 -10.5 2 -16.5c0 -6.66699 -1.16699 -13.167 -3.5 -19.5s-4.5 -9.16602 -6.5 -8.49902c-46 10.667 -96 16 -150 16zM638.003 5.99609c0 4 0.998047 6 2.99805 6c20 0 33.833 4.83301 41.5 14.5s11.5 27.834 11.5 54.501v573c16 0 30.333 4 43 12
s22.334 18 29.001 30s10 23.667 10 35c0 2 2 3 6 3s6 -1 6 -3v-650c0 -26.667 3.83301 -44.834 11.5 -54.501s21.834 -14.5 42.501 -14.5c2 0 3 -2 3 -6s-1 -6 -3 -6c-17.333 0 -31 0.333008 -41 1l-61 1l-58 -1c-10 -0.666992 -23.667 -1 -41 -1c-2 0 -3 2 -3 6z" />
    <glyph glyph-name="f_f_thorn.liga" unicode="ff&#xfe;" horiz-adv-x="1123" 
d="M23 6c0 4 1.33594 5.99902 4.00293 5.99902c17.333 0 30.166 1.66699 38.499 5s14 9.83301 17 19.5s4.5 24.5 4.5 44.5v225c0 20.667 -4.33301 34.167 -13 40.5s-25.667 9.5 -51 9.5c-2 0 -3 3 -3 9s1 9 3 9c23.333 0 39.333 3.16699 48 9.5s13.334 17.833 14.001 34.5
c4.66699 95.333 28 164.666 70 207.999s100.667 65 176 65c31.333 0 60.166 -3.66699 86.499 -11s46.166 -15.666 59.499 -24.999l-43 -77c-14.667 28 -34.334 50.5 -59.001 67.5s-50 25.5 -76 25.5c-36 0 -64.667 -19 -86 -57s-32 -96.333 -32 -175v-358
c0 -20.667 2 -35.667 6 -45s12.167 -15.666 24.5 -18.999s31.833 -5 58.5 -5c2.66699 0 4 -2 4 -6s-1.33301 -6 -4 -6l-69 1c-15.333 0.666992 -38 1 -68 1l-61 -1c-10.667 -0.666992 -25.667 -1 -45 -1c-2.66699 0 -4 2 -4 6zM374.503 342.499
c-7.66699 5.66699 -23.499 9.16602 -47.499 10.499c-25.333 0.666992 -84.333 1 -177 1v23c83.333 0 140.666 0.333008 171.999 1c25.333 0.666992 42 3.5 50 8.5s12.333 15.5 13 31.5l23 -47l-22 -65c0 18.667 -3.83301 30.834 -11.5 36.501zM322.004 5.99805
c0 4 1.33203 5.99902 3.99902 5.99902c17.333 0 30.166 1.66699 38.499 5s14 9.83301 17 19.5s4.5 24.5 4.5 44.5v225c0 20.667 -4.33301 34.167 -13 40.5s-25.667 9.5 -51 9.5c-2 0 -3 3 -3 9s1 9 3 9c23.333 0 39.333 3.16699 48 9.5s13.334 17.833 14.001 34.5
c3.33301 108.667 23.833 187.167 61.5 235.5s95.167 72.5 172.5 72.5c64 0 114.667 -16.667 152 -50l-66 -67c-14 30 -31.167 54 -51.5 72s-41.166 27 -62.499 27c-34 0 -60.833 -21.667 -80.5 -65s-29.5 -111.333 -29.5 -204v-358c0 -20.667 2 -35.667 6 -45
s12.167 -15.666 24.5 -18.999s31.833 -5 58.5 -5c2.66699 0 4 -2 4 -6s-1.33301 -6 -4 -6l-69 1c-15.333 0.666992 -38 1 -68 1l-61 -1c-10.667 -0.666992 -25.667 -1 -45 -1c-2.66699 0 -4 2 -4 6zM437.003 350.997v25.999c40.667 0 91.667 3.33301 153 10
c2 0 3.66699 -2.5 5 -7.5s2 -10.5 2 -16.5c0 -6.66699 -1.16699 -13.167 -3.5 -19.5s-4.5 -9.16602 -6.5 -8.49902c-46 10.667 -96 16 -150 16zM636.003 -269.004c0 4 0.666992 6 2 6c16 0 27.833 1.83301 35.5 5.5s13 10.167 16 19.5s4.5 24 4.5 44v848
c16 0 30.333 4 43 12s22.334 18 29.001 30s10 23.667 10 35c0 2 2 3 6 3s6 -1 6 -3v-925c0 -20 2.16699 -34.667 6.5 -44s12.666 -15.833 24.999 -19.5s31.5 -5.5 57.5 -5.5c1.33301 0 2 -2 2 -6s-0.666992 -6 -2 -6c-25.333 0 -45 0.333008 -59 1l-78 1l-60 -1
c-10.667 -0.666992 -24.667 -1 -42 -1c-1.33301 0 -2 2 -2 6zM807.003 -7.50391c-18 3.66699 -41.001 10.165 -69.001 19.498l35 63c16.667 -20.667 33.5 -36.334 50.5 -47.001s38.5 -16 64.5 -16c68 0 102 57.333 102 172c0 50.667 -11.833 89.834 -35.5 117.501
s-53.167 41.5 -88.5 41.5c-23.333 0 -43.666 -5.5 -60.999 -16.5s-36 -27.833 -56 -50.5l-10 12c34 38.667 66.5 66.834 97.5 84.501s62.833 26.5 95.5 26.5c28 0 54.167 -7.33301 78.5 -22s43.833 -36 58.5 -64s22 -60.667 22 -98c0 -53.333 -11 -97.166 -33 -131.499
s-49.833 -59 -83.5 -74s-68.5 -22.5 -104.5 -22.5c-24 0 -45 1.83301 -63 5.5z" />
    <glyph glyph-name="f_f_t.liga" unicode="fft" horiz-adv-x="929" 
d="M23 6c0 4 1.33594 5.99902 4.00293 5.99902c17.333 0 30.166 1.66699 38.499 5s14 9.83301 17 19.5s4.5 24.5 4.5 44.5v225c0 20.667 -4.33301 34.167 -13 40.5s-25.667 9.5 -51 9.5c-2 0 -3 3 -3 9s1 9 3 9c23.333 0 39.333 3.16699 48 9.5s13.334 17.833 14.001 34.5
c4.66699 95.333 28 164.666 70 207.999s100.667 65 176 65c31.333 0 60.166 -3.66699 86.499 -11s46.166 -15.666 59.499 -24.999l-43 -77c-14.667 28 -34.334 50.5 -59.001 67.5s-50 25.5 -76 25.5c-36 0 -64.667 -19 -86 -57s-32 -96.333 -32 -175v-358
c0 -20.667 2 -35.667 6 -45s12.167 -15.666 24.5 -18.999s31.833 -5 58.5 -5c2.66699 0 4 -2 4 -6s-1.33301 -6 -4 -6l-69 1c-15.333 0.666992 -38 1 -68 1l-61 -1c-10.667 -0.666992 -25.667 -1 -45 -1c-2.66699 0 -4 2 -4 6zM374.503 342.499
c-7.66699 5.66699 -23.499 9.16602 -47.499 10.499c-25.333 0.666992 -84.333 1 -177 1v23c83.333 0 140.666 0.333008 171.999 1c25.333 0.666992 42 3.5 50 8.5s12.333 15.5 13 31.5l23 -47l-22 -65c0 18.667 -3.83301 30.834 -11.5 36.501zM322.004 5.99805
c0 4 1.33203 6.00098 3.99902 6.00098c17.333 0 30.166 1.66699 38.499 5s14 9.83301 17 19.5s4.5 24.5 4.5 44.5v225c0 20.667 -4.33301 34.167 -13 40.5s-25.667 9.5 -51 9.5c-2 0 -3 3 -3 9s1 9 3 9c23.333 0 39.333 3.16699 48 9.5s13.334 17.833 14.001 34.5
c3.33301 108.667 23.833 187.167 61.5 235.5s95.167 72.5 172.5 72.5c37.333 0 66.333 -5.16699 87 -15.5s31 -24.833 31 -43.5c0 -15.333 -5.16699 -27.333 -15.5 -36s-22.833 -13 -37.5 -13c-15.333 0 -27.166 4.16699 -35.499 12.5s-15.833 20.5 -22.5 36.5
c-5.33301 13.333 -11.166 23.166 -17.499 29.499s-15.833 9.5 -28.5 9.5c-30.667 0 -54.834 -21.833 -72.501 -65.5s-26.5 -110.834 -26.5 -201.501v-358c0 -20.667 2 -35.667 6 -45s12.167 -15.666 24.5 -18.999s31.833 -5 58.5 -5c2.66699 0 4 -2 4 -6s-1.33301 -6 -4 -6
l-69 1c-15.333 0.666992 -38 1 -68 1l-61 -1c-10.667 -0.666992 -25.667 -1 -45 -1c-2.66699 0 -4 2 -4 6zM701.503 8.99902c-20.333 14 -30.498 37.667 -30.498 71v226c0 16 -4.83301 27.333 -14.5 34s-29.334 11 -59.001 13s-80.834 3 -153.501 3v22c84 0 143 1 177 3
c31.333 2 55.666 8.83301 72.999 20.5s36 30.5 56 56.5c0.666992 2.66699 3.66699 4 9 4c4.66699 0 7 -1.33301 7 -4v-345c0 -25.333 6.33301 -44 19 -56s30 -18 52 -18c14.667 0 28.667 2.5 42 7.5s24.666 12.167 33.999 21.5c0.666992 0.666992 1.66699 1 3 1
c2.66699 0 4.83398 -1.16699 6.50098 -3.5s1.5 -4.16602 -0.5 -5.49902c-24.667 -24.667 -48.5 -42.834 -71.5 -54.501s-47.833 -17.5 -74.5 -17.5c-29.333 0 -54.166 7 -74.499 21zM731.005 350.999l0.000976562 25.999c44 0 98.667 3.33301 164 10
c2 0 3.83301 -2.5 5.5 -7.5s2.5 -10.5 2.5 -16.5c0 -6.66699 -1.16699 -13.167 -3.5 -19.5s-4.83301 -9.16602 -7.5 -8.49902c-48.667 10.667 -102.334 16 -161.001 16z" />
    <glyph glyph-name="f_h.liga" unicode="fh" horiz-adv-x="829" 
d="M23 6c0 4 1.33203 5.99902 3.99902 5.99902c17.333 0 30.166 1.66699 38.499 5s14 9.83301 17 19.5s4.5 24.5 4.5 44.5v225c0 20.667 -4.33301 34.167 -13 40.5s-25.667 9.5 -51 9.5c-2 0 -3 3 -3 9s1 9 3 9c23.333 0 39.333 3.16699 48 9.5s13.334 17.833 14.001 34.5
c3.33301 108.667 23.833 187.167 61.5 235.5s95.167 72.5 172.5 72.5c64 0 114.667 -16.667 152 -50l-66 -67c-14 30 -31.167 54 -51.5 72s-41.166 27 -62.499 27c-34 0 -60.833 -21.667 -80.5 -65s-29.5 -111.333 -29.5 -204v-358c0 -20.667 2 -35.667 6 -45
s12.167 -15.666 24.5 -18.999s31.833 -5 58.5 -5c2.66699 0 4 -2 4 -6s-1.33301 -6 -4 -6l-69 1c-15.333 0.666992 -38 1 -68 1l-61 -1c-10.667 -0.666992 -25.667 -1 -45 -1c-2.66699 0 -4 2 -4 6zM137.999 350.999v25.999c40.667 0 91.667 3.33301 153 10
c2 0 3.66699 -2.5 5 -7.5s2 -10.5 2 -16.5c0 -6.66699 -1.16699 -13.167 -3.5 -19.5s-4.5 -9.16602 -6.5 -8.49902c-46 10.667 -96 16 -150 16zM338.999 5.99805c0 4 0.998047 6 2.99805 6c20 0 33.833 4.83301 41.5 14.5s11.5 27.834 11.5 54.501v573c16 0 30.333 4 43 12
s22.334 18 29.001 30s10 23.667 10 35c0 2 2 3 6 3s6 -1 6 -3v-650c0 -26.667 3.83301 -44.834 11.5 -54.501s21.834 -14.5 42.501 -14.5c2 0 3 -2 3 -6s-1 -6 -3 -6c-17.333 0 -31 0.333008 -41 1l-60 1l-59 -1c-10 -0.666992 -23.667 -1 -41 -1c-2 0 -3 2 -3 6z
M607.997 5.99805c0 4 0.998047 5.99902 2.99805 5.99902c20 0 33.833 4.83301 41.5 14.5s11.5 27.834 11.5 54.501v144c0 36 -6.5 62.667 -19.5 80s-33.833 26 -62.5 26c-20 0 -40.5 -5.16699 -61.5 -15.5s-37.5 -23.833 -49.5 -40.5l-6 12
c24.667 34.667 51.834 61.834 81.501 81.501s61.167 29.5 94.5 29.5c36 0 64.5 -11.5 85.5 -34.5s31.5 -53.167 31.5 -90.5v-192c0 -26.667 3.83301 -44.834 11.5 -54.501s21.834 -14.5 42.501 -14.5c2 0 3 -2 3 -6s-1 -6 -3 -6c-17.333 0 -31 0.333008 -41 1l-60 1l-59 -1
c-10 -0.666992 -23.667 -1 -41 -1c-2 0 -3 2 -3 6z" />
    <glyph glyph-name="f_j.liga" unicode="fj" horiz-adv-x="578" 
d="M23 6c0 4 1.33496 6 4.00195 6c17.333 0 30.166 1.66699 38.499 5s14 9.83301 17 19.5s4.5 24.5 4.5 44.5v225c0 20.667 -4.33301 34.167 -13 40.5s-25.667 9.5 -51 9.5c-2 0 -3 3 -3 9s1 9 3 9c23.333 0 39.333 3.16699 48 9.5s13.334 17.833 14.001 34.5
c4.66699 107.333 28 185.5 70 234.5s101 73.5 177 73.5c52.667 0 93.167 -7 121.5 -21s42.5 -32.667 42.5 -56c0 -12.667 -4.16699 -23 -12.5 -31s-20.5 -12 -36.5 -12c-16.667 0 -29.834 4.16699 -39.501 12.5s-19.834 21.166 -30.501 38.499
c-10.667 16.667 -20.5 29 -29.5 37s-21.167 12 -36.5 12c-38.667 0 -70 -22 -94 -66s-36 -111 -36 -201v-358c0 -20.667 2 -35.667 6 -45s12.167 -15.666 24.5 -18.999s31.833 -5 58.5 -5c2.66699 0 4 -2 4 -6s-1.33301 -6 -4 -6l-69 1c-15.333 0.666992 -38 1 -68 1l-61 -1
c-10.667 -0.666992 -25.667 -1 -45 -1c-2.66699 0 -4 2 -4 6zM321.502 -277.5c-1.66699 3.66699 -1.49707 5.83301 0.50293 6.5c32 14 54.833 36.5 68.5 67.5s20.5 75.167 20.5 132.5v331c0 22 -2.16699 38.167 -6.5 48.5s-11.833 15.5 -22.5 15.5
c-8.66699 0 -21.334 -3.66699 -38.001 -11h-1c-2.66699 0 -4.83398 1.83301 -6.50098 5.5s-1.5 5.83398 0.5 6.50098l151 70c0.666992 0.666992 1.66699 1 3 1c3.33301 0 6.66602 -1.66699 9.99902 -5s5 -6.33301 5 -9v-22c-1.33301 -26.667 -2 -59.334 -2 -98.001v-310
c0 -45.333 -5.5 -82.5 -16.5 -111.5s-29.333 -53.167 -55 -72.5s-61.167 -36 -106.5 -50c-1.33301 -0.666992 -2.83301 0.833008 -4.5 4.5zM138.005 350.999v25.999c40.667 0 91.667 3.33301 153 10c2 0 3.66699 -2.5 5 -7.5s2 -10.5 2 -16.5
c0 -6.66699 -1.16699 -13.167 -3.5 -19.5s-4.5 -9.16602 -6.5 -8.49902c-46 10.667 -96 16 -150 16z" />
    <glyph glyph-name="f_k.liga" unicode="fk" horiz-adv-x="812" 
d="M23 6c0 4 1.33203 5.99902 3.99902 5.99902c17.333 0 30.166 1.66699 38.499 5s14 9.83301 17 19.5s4.5 24.5 4.5 44.5v225c0 20.667 -4.33301 34.167 -13 40.5s-25.667 9.5 -51 9.5c-2 0 -3 3 -3 9s1 9 3 9c23.333 0 39.333 3.16699 48 9.5s13.334 17.833 14.001 34.5
c3.33301 108.667 23.833 187.167 61.5 235.5s95.167 72.5 172.5 72.5c64 0 114.667 -16.667 152 -50l-66 -67c-14 30 -31.167 54 -51.5 72s-41.166 27 -62.499 27c-34 0 -60.833 -21.667 -80.5 -65s-29.5 -111.333 -29.5 -204v-358c0 -20.667 2 -35.667 6 -45
s12.167 -15.666 24.5 -18.999s31.833 -5 58.5 -5c2.66699 0 4 -2 4 -6s-1.33301 -6 -4 -6l-69 1c-15.333 0.666992 -38 1 -68 1l-61 -1c-10.667 -0.666992 -25.667 -1 -45 -1c-2.66699 0 -4 2 -4 6zM137.999 350.999v25.999c40.667 0 91.667 3.33301 153 10
c2 0 3.66699 -2.5 5 -7.5s2 -10.5 2 -16.5c0 -6.66699 -1.16699 -13.167 -3.5 -19.5s-4.5 -9.16602 -6.5 -8.49902c-46 10.667 -96 16 -150 16zM589.999 5.99805c0 4 0.998047 5.99805 2.99805 5.99805c12 0 21.167 1.83301 27.5 5.5s9.5 8.83398 9.5 15.501
s-3 13.334 -9 20.001l-120 155l67 52l141 -179c18.667 -24 36.834 -41.5 54.501 -52.5s35.834 -16.5 54.501 -16.5c1.33301 0 2 -2 2 -6s-0.666992 -6 -2 -6c-17.333 0 -31 0.333008 -41 1l-60 1l-77 -1c-11.333 -0.666992 -27 -1 -47 -1c-2 0 -3 2 -3 6zM338.997 5.99609
c0 4 0.998047 6 2.99805 6c20 0 33.833 4.83301 41.5 14.5s11.5 27.834 11.5 54.501v573c16 0 30.333 4 43 12s22.334 18 29.001 30s10 23.667 10 35c0 2 2 3 6 3s6 -1 6 -3v-650c0 -26.667 3.83301 -44.834 11.5 -54.501s21.834 -14.5 42.501 -14.5c2 0 3 -2 3 -6
s-1 -6 -3 -6c-17.333 0 -31 0.333008 -41 1l-60 1l-59 -1c-10 -0.666992 -23.667 -1 -41 -1c-2 0 -3 2 -3 6zM446.995 164.996l134 130c17.333 16 26 32.333 26 49c0 8.66699 -3.16699 15.834 -9.5 21.501s-15.5 8.5 -27.5 8.5c-2 0 -3 2 -3 6s1 6 3 6
c19.333 0 34.333 -0.333008 45 -1l79 -1l72 1c9.33301 0.666992 22.666 1 39.999 1c1.33301 0 2 -2 2 -6s-0.666992 -6 -2 -6c-28.667 0 -61.667 -7.33301 -99 -22s-70.666 -35.334 -99.999 -62.001l-154 -141z" />
    <glyph glyph-name="f_thorn.liga" unicode="f&#xfe;" horiz-adv-x="823" 
d="M23 6c0 4 1.33203 5.99902 3.99902 5.99902c17.333 0 30.166 1.66699 38.499 5s14 9.83301 17 19.5s4.5 24.5 4.5 44.5v225c0 20.667 -4.33301 34.167 -13 40.5s-25.667 9.5 -51 9.5c-2 0 -3 3 -3 9s1 9 3 9c23.333 0 39.333 3.16699 48 9.5s13.334 17.833 14.001 34.5
c3.33301 108.667 23.833 187.167 61.5 235.5s95.167 72.5 172.5 72.5c64 0 114.667 -16.667 152 -50l-66 -67c-14 30 -31.167 54 -51.5 72s-41.166 27 -62.499 27c-34 0 -60.833 -21.667 -80.5 -65s-29.5 -111.333 -29.5 -204v-358c0 -20.667 2 -35.667 6 -45
s12.167 -15.666 24.5 -18.999s31.833 -5 58.5 -5c2.66699 0 4 -2 4 -6s-1.33301 -6 -4 -6l-69 1c-15.333 0.666992 -38 1 -68 1l-61 -1c-10.667 -0.666992 -25.667 -1 -45 -1c-2.66699 0 -4 2 -4 6zM137.999 350.999v25.999c40.667 0 91.667 3.33301 153 10
c2 0 3.66699 -2.5 5 -7.5s2 -10.5 2 -16.5c0 -6.66699 -1.16699 -13.167 -3.5 -19.5s-4.5 -9.16602 -6.5 -8.49902c-46 10.667 -96 16 -150 16zM336.999 -269.002c0 4 0.666992 6 2 6c16 0 27.833 1.83301 35.5 5.5s13 10.167 16 19.5s4.5 24 4.5 44v848
c16 0 30.333 4 43 12s22.334 18 29.001 30s10 23.667 10 35c0 2 2 3 6 3s6 -1 6 -3v-925c0 -20 2.16699 -34.667 6.5 -44s12.666 -15.833 24.999 -19.5s31.5 -5.5 57.5 -5.5c1.33301 0 2 -2 2 -6s-0.666992 -6 -2 -6c-25.333 0 -45 0.333008 -59 1l-78 1l-60 -1
c-10.667 -0.666992 -24.667 -1 -42 -1c-1.33301 0 -2 2 -2 6zM507.999 -7.50195c-18 3.66699 -41.001 10.165 -69.001 19.498l35 63c16.667 -20.667 33.5 -36.334 50.5 -47.001s38.5 -16 64.5 -16c68 0 102 57.333 102 172c0 50.667 -11.833 89.834 -35.5 117.501
s-53.167 41.5 -88.5 41.5c-23.333 0 -43.666 -5.5 -60.999 -16.5s-36 -27.833 -56 -50.5l-10 12c34 38.667 66.5 66.834 97.5 84.501s62.833 26.5 95.5 26.5c28 0 54.167 -7.33301 78.5 -22s43.833 -36 58.5 -64s22 -60.667 22 -98c0 -53.333 -11 -97.166 -33 -131.499
s-49.833 -59 -83.5 -74s-68.5 -22.5 -104.5 -22.5c-24 0 -45 1.83301 -63 5.5z" />
    <glyph glyph-name="f_t.liga" unicode="ft" horiz-adv-x="629" 
d="M23 6c0 4 1.33203 6.00098 3.99902 6.00098c17.333 0 30.166 1.66699 38.499 5s14 9.83301 17 19.5s4.5 24.5 4.5 44.5v225c0 20.667 -4.33301 34.167 -13 40.5s-25.667 9.5 -51 9.5c-2 0 -3 3 -3 9s1 9 3 9c23.333 0 39.333 3.16699 48 9.5s13.334 17.833 14.001 34.5
c3.33301 108.667 23.833 187.167 61.5 235.5s95.167 72.5 172.5 72.5c37.333 0 66.333 -5.16699 87 -15.5s31 -24.833 31 -43.5c0 -15.333 -5.16699 -27.333 -15.5 -36s-22.833 -13 -37.5 -13c-15.333 0 -27.166 4.16699 -35.499 12.5s-15.833 20.5 -22.5 36.5
c-5.33301 13.333 -11.166 23.166 -17.499 29.499s-15.833 9.5 -28.5 9.5c-30.667 0 -54.834 -21.833 -72.501 -65.5s-26.5 -110.834 -26.5 -201.501v-358c0 -20.667 2 -35.667 6 -45s12.167 -15.666 24.5 -18.999s31.833 -5 58.5 -5c2.66699 0 4 -2 4 -6s-1.33301 -6 -4 -6
l-69 1c-15.333 0.666992 -38 1 -68 1l-61 -1c-10.667 -0.666992 -25.667 -1 -45 -1c-2.66699 0 -4 2 -4 6zM402.499 9.00098c-20.333 14 -30.498 37.667 -30.498 71v226c0 16 -4.83301 27.333 -14.5 34s-29.334 11 -59.001 13s-80.834 3 -153.501 3v22c84 0 143 1 177 3
c31.333 2 55.666 8.83301 72.999 20.5s36 30.5 56 56.5c0.666992 2.66699 3.66699 4 9 4c4.66699 0 7 -1.33301 7 -4v-345c0 -25.333 6.33301 -44 19 -56s30 -18 52 -18c14.667 0 28.667 2.5 42 7.5s24.666 12.167 33.999 21.5c0.666992 0.666992 1.66699 1 3 1
c2.66699 0 4.83398 -1.16699 6.50098 -3.5s1.5 -4.16602 -0.5 -5.49902c-24.667 -24.667 -48.5 -42.834 -71.5 -54.501s-47.833 -17.5 -74.5 -17.5c-29.333 0 -54.166 7 -74.499 21zM432.001 351.001l0.000976562 25.999c44 0 98.667 3.33301 164 10
c2 0 3.83301 -2.5 5.5 -7.5s2.5 -10.5 2.5 -16.5c0 -6.66699 -1.16699 -13.167 -3.5 -19.5s-4.83301 -9.16602 -7.5 -8.49902c-48.667 10.667 -102.334 16 -161.001 16z" />
    <glyph glyph-name="g_g.liga" unicode="gg" horiz-adv-x="938" 
d="M93 -261.5c-28 13 -42.0039 31.834 -42.0039 56.501c0 17.333 5 30.166 15 38.499s22 12.5 36 12.5c18.667 0 32.5 -4.33301 41.5 -13s17.833 -21.667 26.5 -39c8.66699 -18 17.834 -31.5 27.501 -40.5s24.834 -13.5 45.501 -13.5c23.333 0 42 12 56 36s21 67.333 21 130
v453c22 5.33301 38.833 10.5 50.5 15.5s22.834 12.833 33.501 23.5c0.666992 0.666992 1.66699 1 3 1s2.83301 -0.5 4.5 -1.5s2.5 -2.16699 2.5 -3.5v-464c0 -62.667 -18.667 -113.5 -56 -152.5s-89.666 -58.5 -156.999 -58.5c-44 0 -80 6.5 -108 19.5zM106.496 7.50098
c-23 13.667 -41.1689 33.833 -54.502 60.5s-20 58.667 -20 96c0 47.333 11 88.833 33 124.5s51 62.834 87 81.501s74.667 28 116 28c48.667 0 90.334 -15.333 125.001 -46l-73 -64c0 26 -7.16699 47.333 -21.5 64s-33.166 25 -56.499 25c-33.333 0 -59.5 -16.667 -78.5 -50
s-28.5 -76.333 -28.5 -129c0 -50 8.5 -88.833 25.5 -116.5s41.167 -41.5 72.5 -41.5s66 14.667 104 44l8 -7c-28 -28.667 -54.167 -50.834 -78.5 -66.501s-52.5 -23.5 -84.5 -23.5c-27.333 0 -52.5 6.83301 -75.5 20.5zM561.994 -261.5
c-28 13 -42.0039 31.834 -42.0039 56.501c0 17.333 5 30.166 15 38.499s22 12.5 36 12.5c18.667 0 32.5 -4.33301 41.5 -13s17.833 -21.667 26.5 -39c8.66699 -18 17.834 -31.5 27.501 -40.5s24.834 -13.5 45.501 -13.5c23.333 0 42 12 56 36s21 67.333 21 130v453
c22 5.33301 38.833 10.5 50.5 15.5s22.834 12.833 33.501 23.5c0.666992 0.666992 1.66699 1 3 1s2.83301 -0.5 4.5 -1.5s2.5 -2.16699 2.5 -3.5v-464c0 -62.667 -18.667 -113.5 -56 -152.5s-89.666 -58.5 -156.999 -58.5c-44 0 -80 6.5 -108 19.5zM575.49 7.50098
c-23 13.667 -41.1689 33.833 -54.502 60.5s-20 58.667 -20 96c0 47.333 11 88.833 33 124.5s51 62.834 87 81.501s74.667 28 116 28c48.667 0 90.334 -15.333 125.001 -46l-73 -64c0 26 -7.16699 47.333 -21.5 64s-33.166 25 -56.499 25c-33.333 0 -59.5 -16.667 -78.5 -50
s-28.5 -76.333 -28.5 -129c0 -50 8.5 -88.833 25.5 -116.5s41.167 -41.5 72.5 -41.5s66 14.667 104 44l8 -7c-28 -28.667 -54.167 -50.834 -78.5 -66.501s-52.5 -23.5 -84.5 -23.5c-27.333 0 -52.5 6.83301 -75.5 20.5z" />
    <glyph glyph-name="longs_b.liga" unicode="&#x17f;b" horiz-adv-x="819" 
d="M23 6c0 4 1.33398 5.99805 4.00098 5.99805c17.333 0 30.166 1.66699 38.499 5s14 9.83301 17 19.5s4.5 24.5 4.5 44.5v225c0 20.667 -4.33301 34.167 -13 40.5s-25.667 9.5 -51 9.5c-2 0 -3 3 -3 9s1 9 3 9c23.333 0 39.5 3.16699 48.5 9.5s13.5 17.833 13.5 34.5
c4 205.333 80.667 308 230 308c62 0 110.333 -16.667 145 -50l-67 -67c-12.667 30.667 -28.167 54.834 -46.5 72.501s-37.833 26.5 -58.5 26.5c-32 0 -57.833 -21.833 -77.5 -65.5s-29.5 -111.5 -29.5 -203.5v-358c0 -20.667 2 -35.667 6 -45s12.167 -15.666 24.5 -18.999
s31.833 -5 58.5 -5c2.66699 0 4 -2 4 -6s-1.33301 -6 -4 -6l-69 1c-15.333 0.666992 -38 1 -68 1l-61 -1c-10.667 -0.666992 -25.667 -1 -45 -1c-2.66699 0 -4 2 -4 6zM337.001 -7.00195c-2.66699 0 -4.33301 1.33398 -5 4.00098s0.333008 4.33398 3 5.00098
c16 9.33301 28.167 22.166 36.5 38.499s12.5 37.166 12.5 62.499v551c24 0 43.5 8.33301 58.5 25s22.5 34 22.5 52c0 2 2 3 6 3s6 -1 6 -3v-675l-138 -63h-2zM413.002 47.999l57.001 83c14 -42 32.167 -73.333 54.5 -94s45.833 -31 70.5 -31c29.333 0 51.5 14.5 66.5 43.5
s22.5 70.5 22.5 124.5c0 58 -9.66699 101.167 -29 129.5s-46.333 42.5 -81 42.5c-35.333 0 -72 -14.667 -110 -44l-9 8c27.333 28 53.333 49.833 78 65.5s54 23.5 88 23.5c30 0 57.667 -7 83 -21s45.5 -35 60.5 -63s22.5 -62 22.5 -102c0 -48 -10.167 -89 -30.5 -123
s-46.833 -59.667 -79.5 -77s-67 -26 -103 -26c-62.667 0 -116.334 20.333 -161.001 61z" />
    <glyph glyph-name="longs_h.liga" unicode="&#x17f;h" horiz-adv-x="818" 
d="M23 6c0 4 1.33398 5.99805 4.00098 5.99805c17.333 0 30.166 1.66699 38.499 5s14 9.83301 17 19.5s4.5 24.5 4.5 44.5v225c0 20.667 -4.33301 34.167 -13 40.5s-25.667 9.5 -51 9.5c-2 0 -3 3 -3 9s1 9 3 9c23.333 0 39.5 3.16699 48.5 9.5s13.5 17.833 13.5 34.5
c4 205.333 80.667 308 230 308c62 0 110.333 -16.667 145 -50l-67 -67c-12.667 30.667 -28.167 54.834 -46.5 72.501s-37.833 26.5 -58.5 26.5c-32 0 -57.833 -21.833 -77.5 -65.5s-29.5 -111.5 -29.5 -203.5v-358c0 -20.667 2 -35.667 6 -45s12.167 -15.666 24.5 -18.999
s31.833 -5 58.5 -5c2.66699 0 4 -2 4 -6s-1.33301 -6 -4 -6l-69 1c-15.333 0.666992 -38 1 -68 1l-61 -1c-10.667 -0.666992 -25.667 -1 -45 -1c-2.66699 0 -4 2 -4 6zM327.001 5.99805c0 4 0.998047 6 2.99805 6c20.667 0 34.834 4.83301 42.501 14.5
s11.5 27.834 11.5 54.501v573c24 0 43.5 8.33301 58.5 25s22.5 34 22.5 52c0 2 2 3 6 3s6 -1 6 -3v-650c0 -26.667 3.83301 -44.834 11.5 -54.501s21.834 -14.5 42.501 -14.5c2.66699 0 4 -2 4 -6s-1.33301 -6 -4 -6c-17.333 0 -31 0.333008 -41 1l-60 1l-58 -1
c-10.667 -0.666992 -24.667 -1 -42 -1c-2 0 -3 2 -3 6zM595.999 5.99805c0 4 0.999023 6 2.99902 6c20.667 0 34.834 4.83301 42.501 14.5s11.5 27.834 11.5 54.501v144c0 36 -6.66699 62.667 -20 80s-34 26 -62 26c-20.667 0 -41.334 -5.16699 -62.001 -15.5
s-37 -23.833 -49 -40.5l-6 12c52.667 74 111 111 175 111c36 0 64.5 -11.5 85.5 -34.5s31.5 -53.167 31.5 -90.5v-192c0 -26.667 3.83301 -44.834 11.5 -54.501s21.834 -14.5 42.501 -14.5c2.66699 0 4 -2 4 -6s-1.33301 -6 -4 -6c-17.333 0 -31 0.333008 -41 1l-60 1
l-58 -1c-10.667 -0.666992 -24.667 -1 -42 -1c-2 0 -3 2 -3 6z" />
    <glyph glyph-name="longs_i.liga" unicode="&#x17f;i" horiz-adv-x="563" 
d="M22 6c0 4 1.33691 5.99707 4.00391 5.99707c17.333 0 30.166 1.83301 38.499 5.5s14.166 10.167 17.499 19.5s5 24 5 44v225c0 20.667 -4.33301 34.167 -13 40.5s-25.667 9.5 -51 9.5c-2 0 -3 3 -3 9s1 9 3 9c23.333 0 39.5 3.16699 48.5 9.5s13.5 17.833 13.5 34.5
c0 104.667 20.667 182.167 62 232.5s100.666 75.5 177.999 75.5c43.333 0 77.5 -7 102.5 -21s37.5 -32.667 37.5 -56c0 -12.667 -4.16699 -23 -12.5 -31s-20.5 -12 -36.5 -12c-14.667 0 -26 4.16699 -34 12.5s-16.333 20.5 -25 36.5
c-8.66699 16.667 -17.334 29.334 -26.001 38.001s-20.667 13 -36 13c-33.333 0 -60.833 -22.167 -82.5 -66.5s-32.5 -111.166 -32.5 -200.499v-358c0 -20.667 2 -35.667 6 -45s12.167 -15.666 24.5 -18.999s31.833 -5 58.5 -5c2.66699 0 4 -2 4 -6s-1.33301 -6 -4 -6l-69 1
c-15.333 0.666992 -38 1 -68 1l-61 -1c-11.333 -0.666992 -26.333 -1 -45 -1c-2.66699 0 -4 2 -4 6zM324.004 5.99707c0 4 0.667969 6 2.00098 6c20.667 0 34.834 4.83301 42.501 14.5s11.5 27.834 11.5 54.501v179c0 22.667 -2.16699 39 -6.5 49s-11.833 15 -22.5 15
c-8.66699 0 -21.334 -3.66699 -38.001 -11h-1c-2 0 -3.83301 1.83301 -5.5 5.5s-1.83398 5.83398 -0.500977 6.50098l151 70c0.666992 0.666992 1.66699 1 3 1c3.33301 0 6.83301 -1.66699 10.5 -5s5.5 -6.33301 5.5 -9v-22c-1.33301 -26.667 -2 -59.334 -2 -98.001v-181
c0 -26.667 3.83301 -44.834 11.5 -54.501s21.5 -14.5 41.5 -14.5c2.66699 0 4 -2 4 -6s-1.33301 -6 -4 -6c-17.333 0 -31 0.333008 -41 1l-59 1l-60 -1c-10 -0.666992 -23.667 -1 -41 -1c-1.33301 0 -2 2 -2 6z" />
    <glyph glyph-name="longs_j.liga" unicode="&#x17f;j" horiz-adv-x="545" 
d="M22 6c0 4 1.33691 5.99707 4.00391 5.99707c17.333 0 30.166 1.83301 38.499 5.5s14.166 10.167 17.499 19.5s5 24 5 44v225c0 20.667 -4.33301 34.167 -13 40.5s-25.667 9.5 -51 9.5c-2 0 -3 3 -3 9s1 9 3 9c23.333 0 39.5 3.16699 48.5 9.5s13.5 17.833 13.5 34.5
c0 104.667 20.667 182.167 62 232.5s100.666 75.5 177.999 75.5c43.333 0 77.5 -7 102.5 -21s37.5 -32.667 37.5 -56c0 -12.667 -4.16699 -23 -12.5 -31s-20.5 -12 -36.5 -12c-14.667 0 -26 4.16699 -34 12.5s-16.333 20.5 -25 36.5
c-8.66699 16.667 -17.334 29.334 -26.001 38.001s-20.667 13 -36 13c-33.333 0 -60.833 -22.167 -82.5 -66.5s-32.5 -111.166 -32.5 -200.499v-358c0 -20.667 2 -35.667 6 -45s12.167 -15.666 24.5 -18.999s31.833 -5 58.5 -5c2.66699 0 4 -2 4 -6s-1.33301 -6 -4 -6l-69 1
c-15.333 0.666992 -38 1 -68 1l-61 -1c-11.333 -0.666992 -26.333 -1 -45 -1c-2.66699 0 -4 2 -4 6zM288.504 -277.503c-1.66699 3.66699 -1.5 5.83301 0.5 6.5c32 14 54.833 36.5 68.5 67.5s20.5 75.167 20.5 132.5v331c0 22.667 -2.16699 39 -6.5 49s-11.833 15 -22.5 15
c-8.66699 0 -21.334 -3.66699 -38.001 -11h-1c-2.66699 0 -4.66699 1.83301 -6 5.5s-1.33301 5.83398 0 6.50098l151 70c0.666992 0.666992 1.66699 1 3 1c3.33301 0 6.83301 -1.66699 10.5 -5s5.5 -6.33301 5.5 -9c0 -8 -0.333008 -15.333 -1 -22
c-1.33301 -26.667 -2 -59.334 -2 -98.001v-310c0 -45.333 -5.5 -82.5 -16.5 -111.5s-29.167 -53.167 -54.5 -72.5s-60.666 -36 -105.999 -50c-2 -0.666992 -3.83301 0.833008 -5.5 4.5z" />
    <glyph glyph-name="longs_k.liga" unicode="&#x17f;k" horiz-adv-x="800" 
d="M23 6c0 4 1.33398 5.99805 4.00098 5.99805c17.333 0 30.166 1.66699 38.499 5s14 9.83301 17 19.5s4.5 24.5 4.5 44.5v225c0 20.667 -4.33301 34.167 -13 40.5s-25.667 9.5 -51 9.5c-2 0 -3 3 -3 9s1 9 3 9c23.333 0 39.5 3.16699 48.5 9.5s13.5 17.833 13.5 34.5
c4 205.333 80.667 308 230 308c62 0 110.333 -16.667 145 -50l-67 -67c-12.667 30.667 -28.167 54.834 -46.5 72.501s-37.833 26.5 -58.5 26.5c-32 0 -57.833 -21.833 -77.5 -65.5s-29.5 -111.5 -29.5 -203.5v-358c0 -20.667 2 -35.667 6 -45s12.167 -15.666 24.5 -18.999
s31.833 -5 58.5 -5c2.66699 0 4 -2 4 -6s-1.33301 -6 -4 -6l-69 1c-15.333 0.666992 -38 1 -68 1l-61 -1c-10.667 -0.666992 -25.667 -1 -45 -1c-2.66699 0 -4 2 -4 6zM579.001 5.99805c0 4 0.666992 6 2 6c12 0 21.167 1.83301 27.5 5.5s9.5 8.5 9.5 14.5s-3 13 -9 21
l-120 155l68 52l140 -179c19.333 -24 37.833 -41.5 55.5 -52.5s35.5 -16.5 53.5 -16.5c1.33301 0 2 -2 2 -6s-0.666992 -6 -2 -6c-17.333 0 -31 0.333008 -41 1l-60 1l-77 -1c-11.333 -0.666992 -27 -1 -47 -1c-1.33301 0 -2 2 -2 6zM327.001 5.99805
c0 4 0.998047 6 2.99805 6c20.667 0 34.834 4.83301 42.501 14.5s11.5 27.834 11.5 54.501v573c24 0 43.5 8.33301 58.5 25s22.5 34 22.5 52c0 2 2 3 6 3s6 -1 6 -3v-650c0 -26.667 3.83301 -44.834 11.5 -54.501s21.834 -14.5 42.501 -14.5c2.66699 0 4 -2 4 -6
s-1.33301 -6 -4 -6c-17.333 0 -31 0.333008 -41 1l-60 1l-58 -1c-10.667 -0.666992 -24.667 -1 -42 -1c-2 0 -3 2 -3 6zM434.999 164.998l134.999 129.998c17.333 16 26 32.333 26 49c0 8.66699 -3.33301 15.834 -10 21.501s-16 8.5 -28 8.5c-2 0 -3 2 -3 6s1 6 3 6
c19.333 0 34.333 -0.333008 45 -1l79 -1l73 1c9.33301 0.666992 22.333 1 39 1c2 0 3 -2 3 -6s-1 -6 -3 -6c-28.667 0 -61.667 -7.16699 -99 -21.5s-70.666 -35.166 -99.999 -62.499l-154 -141z" />
    <glyph glyph-name="longs_l.liga" unicode="&#x17f;l" horiz-adv-x="556" 
d="M23 6c0 4 1.33398 5.99805 4.00098 5.99805c17.333 0 30.166 1.66699 38.499 5s14 9.83301 17 19.5s4.5 24.5 4.5 44.5v225c0 20.667 -4.33301 34.167 -13 40.5s-25.667 9.5 -51 9.5c-2 0 -3 3 -3 9s1 9 3 9c23.333 0 39.5 3.16699 48.5 9.5s13.5 17.833 13.5 34.5
c4 205.333 80.667 308 230 308c62 0 110.333 -16.667 145 -50l-67 -67c-12.667 30.667 -28.167 54.834 -46.5 72.501s-37.833 26.5 -58.5 26.5c-32 0 -57.833 -21.833 -77.5 -65.5s-29.5 -111.5 -29.5 -203.5v-358c0 -20.667 2 -35.667 6 -45s12.167 -15.666 24.5 -18.999
s31.833 -5 58.5 -5c2.66699 0 4 -2 4 -6s-1.33301 -6 -4 -6l-69 1c-15.333 0.666992 -38 1 -68 1l-61 -1c-10.667 -0.666992 -25.667 -1 -45 -1c-2.66699 0 -4 2 -4 6zM327.001 5.99805c0 4 0.998047 6 2.99805 6c20.667 0 34.834 4.83301 42.501 14.5
s11.5 27.834 11.5 54.501v573c24 0 43.5 8.33301 58.5 25s22.5 34 22.5 52c0 2 2 3 6 3s6 -1 6 -3v-650c0 -26.667 3.83301 -44.834 11.5 -54.501s21.834 -14.5 42.501 -14.5c2.66699 0 4 -2 4 -6s-1.33301 -6 -4 -6c-17.333 0 -31 0.333008 -41 1l-60 1l-58 -1
c-10.667 -0.666992 -24.667 -1 -42 -1c-2 0 -3 2 -3 6z" />
    <glyph glyph-name="longs_thorn.liga" unicode="&#x17f;&#xfe;" horiz-adv-x="812" 
d="M21 6c0 4 1.33301 5.99707 4 5.99707c17.333 0 30 1.66699 38 5s13.5 9.83301 16.5 19.5s4.5 24.5 4.5 44.5v225c0 20.667 -4.33301 34.167 -13 40.5s-25.334 9.5 -50.001 9.5c-0.666992 0 -1.5 1 -2.5 3s-1.5 4 -1.5 6c0 2.66699 0.333008 4.83398 1 6.50098
s1.66699 2.5 3 2.5c23.333 0 39.5 3.16699 48.5 9.5s13.5 17.833 13.5 34.5c4 205.333 80.333 308 229 308c62 0 110.333 -16.667 145 -50l-66 -67c-12.667 30.667 -28.167 54.834 -46.5 72.501s-38.166 26.5 -59.499 26.5c-32 0 -57.667 -21.833 -77 -65.5
s-29 -111.5 -29 -203.5v-358c0 -20.667 2 -35.667 6 -45s12 -15.666 24 -18.999s31.667 -5 59 -5c2.66699 0 4 -2 4 -6s-1.33301 -6 -4 -6l-69 1c-15.333 0.666992 -38 1 -68 1l-61 -1c-11.333 -0.666992 -26.333 -1 -45 -1c-2.66699 0 -4 2 -4 6zM323 -269.003
c0 4 0.666992 6 2 6c16 0 27.833 1.83301 35.5 5.5s13 10.167 16 19.5s4.5 24 4.5 44v848c16 0 30.333 4 43 12s22.334 18 29.001 30s10 23.667 10 35c0 2 2 3 6 3s6 -1 6 -3v-925c0 -20 2.16699 -34.667 6.5 -44s12.666 -15.833 24.999 -19.5s31.5 -5.5 57.5 -5.5
c1.33301 0 2 -2 2 -6s-0.666992 -6 -2 -6c-25.333 0 -45 0.333008 -59 1l-78 1l-60 -1c-10.667 -0.666992 -24.667 -1 -42 -1c-1.33301 0 -2 2 -2 6zM496 -7.50293c-18 3.66699 -41 10.165 -69 19.498l35 63c16.667 -20.667 33.5 -36.334 50.5 -47.001s38.833 -16 65.5 -16
c32.667 0 57.834 14 75.501 42s26.5 71.333 26.5 130c0 50.667 -11.833 89.834 -35.5 117.501s-53.167 41.5 -88.5 41.5c-23.333 0 -43.5 -5.5 -60.5 -16.5s-35.833 -27.833 -56.5 -50.5l-11 12c33.333 38.667 65.666 66.834 96.999 84.501s63.333 26.5 96 26.5
c28 0 54.167 -7.33301 78.5 -22s43.833 -36 58.5 -64s22 -60.667 22 -98c0 -53.333 -11 -97.166 -33 -131.499s-49.833 -59 -83.5 -74s-68.5 -22.5 -104.5 -22.5c-24 0 -45 1.83301 -63 5.5z" />
    <glyph glyph-name="longs_longs.liga" unicode="&#x17f;&#x17f;" horiz-adv-x="538" 
d="M23 6c0 4 1.33398 5.99707 4.00098 5.99707c17.333 0 30.166 1.66699 38.499 5s14 9.83301 17 19.5s4.5 24.5 4.5 44.5v225c0 20.667 -4.16699 34.167 -12.5 40.5s-24.833 9.5 -49.5 9.5c-0.666992 0 -1.5 1 -2.5 3s-1.5 4 -1.5 6c0 2.66699 0.333008 4.83398 1 6.50098
s1.66699 2.5 3 2.5c22.667 0 38.667 3.16699 48 9.5s14 17.833 14 34.5c0 90 22 158 66 204s103.333 69 178 69c26.667 0 51 -3 73 -9s38.667 -13 50 -21l-49 -83c-12 28.667 -27.667 51.334 -47 68.001s-39 25 -59 25c-36 0 -64.667 -19 -86 -57s-32 -96.333 -32 -175v-358
c0 -20.667 1.5 -35.667 4.5 -45s9 -15.666 18 -18.999s23.5 -5 43.5 -5c2 0 3 -2 3 -6s-1 -6 -3 -6l-58 1c-12 0.666992 -30.667 1 -56 1l-61 -1c-10.667 -0.666992 -25.667 -1 -45 -1c-2.66699 0 -4 2 -4 6zM298.001 5.99707c0 4 1.33789 5.99805 4.00488 5.99805
c17.333 0 30 1.66699 38 5s13.5 9.83301 16.5 19.5s4.5 24.5 4.5 44.5v225c0 20.667 -4.33301 34.167 -13 40.5s-25.334 9.5 -50.001 9.5c-0.666992 0 -1.5 1 -2.5 3s-1.5 4 -1.5 6c0 2.66699 0.333008 4.83398 1 6.50098s1.66699 2.5 3 2.5
c23.333 0 39.666 3.16699 48.999 9.5s14.333 17.833 15 34.5c3.33301 109.333 23.166 188 59.499 236s90.833 72 163.5 72c35.333 0 62.5 -5.16699 81.5 -15.5s28.5 -24.833 28.5 -43.5c0 -15.333 -5.33301 -27.333 -16 -36s-23.334 -13 -38.001 -13
s-25.334 3.83301 -32.001 11.5s-13 19.167 -19 34.5c-6 14 -11.833 24.333 -17.5 31s-14.5 10 -26.5 10c-28 0 -50 -21.667 -66 -65s-24 -110.333 -24 -201v-358c0 -20.667 1.66699 -35.667 5 -45s10.333 -15.666 21 -18.999s27.667 -5 51 -5c2.66699 0 4 -2 4 -6
s-1.33301 -6 -4 -6l-63 1c-14 0.666992 -34.667 1 -62 1l-61 -1c-11.333 -0.666992 -26.333 -1 -45 -1c-2.66699 0 -4 2 -4 6z" />
    <glyph glyph-name="longs_longs_b.liga" unicode="&#x17f;&#x17f;b" horiz-adv-x="1105" 
d="M23 6c0 4 1.33398 5.99707 4.00098 5.99707c17.333 0 30.166 1.66699 38.499 5s14 9.83301 17 19.5s4.5 24.5 4.5 44.5v225c0 20.667 -4.16699 34.167 -12.5 40.5s-24.833 9.5 -49.5 9.5c-0.666992 0 -1.5 1 -2.5 3s-1.5 4 -1.5 6c0 2.66699 0.333008 4.83398 1 6.50098
s1.66699 2.5 3 2.5c22.667 0 38.667 3.16699 48 9.5s14 17.833 14 34.5c0 90 22 158 66 204s103.333 69 178 69c26.667 0 51 -3 73 -9s38.667 -13 50 -21l-49 -83c-12 28.667 -27.667 51.334 -47 68.001s-39 25 -59 25c-36 0 -64.667 -19 -86 -57s-32 -96.333 -32 -175v-358
c0 -20.667 1.5 -35.667 4.5 -45s9 -15.666 18 -18.999s23.5 -5 43.5 -5c2 0 3 -2 3 -6s-1 -6 -3 -6l-58 1c-12 0.666992 -30.667 1 -56 1l-61 -1c-10.667 -0.666992 -25.667 -1 -45 -1c-2.66699 0 -4 2 -4 6zM310.001 5.99707c0 4 1.33398 5.99805 4.00098 5.99805
c17.333 0 30.166 1.66699 38.499 5s14 9.83301 17 19.5s4.5 24.5 4.5 44.5v225c0 20.667 -4.33301 34.167 -13 40.5s-25.667 9.5 -51 9.5c-2 0 -3 3 -3 9s1 9 3 9c23.333 0 39.5 3.16699 48.5 9.5s13.5 17.833 13.5 34.5c4 205.333 80.667 308 230 308
c62 0 110.333 -16.667 145 -50l-67 -67c-12.667 30.667 -28.167 54.834 -46.5 72.501s-37.833 26.5 -58.5 26.5c-32 0 -57.833 -21.833 -77.5 -65.5s-29.5 -111.5 -29.5 -203.5v-358c0 -20.667 2 -35.667 6 -45s12.167 -15.666 24.5 -18.999s31.833 -5 58.5 -5
c2.66699 0 4 -2 4 -6s-1.33301 -6 -4 -6l-69 1c-15.333 0.666992 -38 1 -68 1l-61 -1c-10.667 -0.666992 -25.667 -1 -45 -1c-2.66699 0 -4 2 -4 6zM624.002 -7.00488c-2.66699 0 -4.33301 1.33398 -5 4.00098s0.333008 4.33398 3 5.00098
c16 9.33301 28.167 22.166 36.5 38.499s12.5 37.166 12.5 62.499v551c24 0 43.5 8.33301 58.5 25s22.5 34 22.5 52c0 2 2 3 6 3s6 -1 6 -3v-675l-138 -63h-2zM700.003 47.9961l57.001 83c14 -42 32.167 -73.333 54.5 -94s45.833 -31 70.5 -31c29.333 0 51.5 14.5 66.5 43.5
s22.5 70.5 22.5 124.5c0 58 -9.66699 101.167 -29 129.5s-46.333 42.5 -81 42.5c-35.333 0 -72 -14.667 -110 -44l-9 8c27.333 28 53.333 49.833 78 65.5s54 23.5 88 23.5c30 0 57.667 -7 83 -21s45.5 -35 60.5 -63s22.5 -62 22.5 -102c0 -48 -10.167 -89 -30.5 -123
s-46.833 -59.667 -79.5 -77s-67 -26 -103 -26c-62.667 0 -116.334 20.333 -161.001 61z" />
    <glyph glyph-name="longs_longs_h.liga" unicode="&#x17f;&#x17f;h" horiz-adv-x="1104" 
d="M23 6c0 4 1.33398 5.99707 4.00098 5.99707c17.333 0 30.166 1.66699 38.499 5s14 9.83301 17 19.5s4.5 24.5 4.5 44.5v225c0 20.667 -4.16699 34.167 -12.5 40.5s-24.833 9.5 -49.5 9.5c-0.666992 0 -1.5 1 -2.5 3s-1.5 4 -1.5 6c0 2.66699 0.333008 4.83398 1 6.50098
s1.66699 2.5 3 2.5c22.667 0 38.667 3.16699 48 9.5s14 17.833 14 34.5c0 90 22 158 66 204s103.333 69 178 69c26.667 0 51 -3 73 -9s38.667 -13 50 -21l-49 -83c-12 28.667 -27.667 51.334 -47 68.001s-39 25 -59 25c-36 0 -64.667 -19 -86 -57s-32 -96.333 -32 -175v-358
c0 -20.667 1.5 -35.667 4.5 -45s9 -15.666 18 -18.999s23.5 -5 43.5 -5c2 0 3 -2 3 -6s-1 -6 -3 -6l-58 1c-12 0.666992 -30.667 1 -56 1l-61 -1c-10.667 -0.666992 -25.667 -1 -45 -1c-2.66699 0 -4 2 -4 6zM310.001 5.99707c0 4 1.33398 5.99805 4.00098 5.99805
c17.333 0 30.166 1.66699 38.499 5s14 9.83301 17 19.5s4.5 24.5 4.5 44.5v225c0 20.667 -4.33301 34.167 -13 40.5s-25.667 9.5 -51 9.5c-2 0 -3 3 -3 9s1 9 3 9c23.333 0 39.5 3.16699 48.5 9.5s13.5 17.833 13.5 34.5c4 205.333 80.667 308 230 308
c62 0 110.333 -16.667 145 -50l-67 -67c-12.667 30.667 -28.167 54.834 -46.5 72.501s-37.833 26.5 -58.5 26.5c-32 0 -57.833 -21.833 -77.5 -65.5s-29.5 -111.5 -29.5 -203.5v-358c0 -20.667 2 -35.667 6 -45s12.167 -15.666 24.5 -18.999s31.833 -5 58.5 -5
c2.66699 0 4 -2 4 -6s-1.33301 -6 -4 -6l-69 1c-15.333 0.666992 -38 1 -68 1l-61 -1c-10.667 -0.666992 -25.667 -1 -45 -1c-2.66699 0 -4 2 -4 6zM614.002 5.99512c0 4 0.998047 6 2.99805 6c20.667 0 34.834 4.83301 42.501 14.5s11.5 27.834 11.5 54.501v573
c24 0 43.5 8.33301 58.5 25s22.5 34 22.5 52c0 2 2 3 6 3s6 -1 6 -3v-650c0 -26.667 3.83301 -44.834 11.5 -54.501s21.834 -14.5 42.501 -14.5c2.66699 0 4 -2 4 -6s-1.33301 -6 -4 -6c-17.333 0 -31 0.333008 -41 1l-60 1l-58 -1c-10.667 -0.666992 -24.667 -1 -42 -1
c-2 0 -3 2 -3 6zM883 5.99512c0 4 0.999023 6 2.99902 6c20.667 0 34.834 4.83301 42.501 14.5s11.5 27.834 11.5 54.501v144c0 36 -6.66699 62.667 -20 80s-34 26 -62 26c-20.667 0 -41.334 -5.16699 -62.001 -15.5s-37 -23.833 -49 -40.5l-6 12c52.667 74 111 111 175 111
c36 0 64.5 -11.5 85.5 -34.5s31.5 -53.167 31.5 -90.5v-192c0 -26.667 3.83301 -44.834 11.5 -54.501s21.834 -14.5 42.501 -14.5c2.66699 0 4 -2 4 -6s-1.33301 -6 -4 -6c-17.333 0 -31 0.333008 -41 1l-60 1l-58 -1c-10.667 -0.666992 -24.667 -1 -42 -1c-2 0 -3 2 -3 6z
" />
    <glyph glyph-name="longs_longs_i.liga" unicode="&#x17f;&#x17f;i" horiz-adv-x="843" 
d="M23 6c0 4 1.33398 5.99707 4.00098 5.99707c17.333 0 30.166 1.66699 38.499 5s14 9.83301 17 19.5s4.5 24.5 4.5 44.5v225c0 20.667 -4.16699 34.167 -12.5 40.5s-24.833 9.5 -49.5 9.5c-0.666992 0 -1.5 1 -2.5 3s-1.5 4 -1.5 6c0 2.66699 0.333008 4.83398 1 6.50098
s1.66699 2.5 3 2.5c22.667 0 38.667 3.16699 48 9.5s14 17.833 14 34.5c0 90 22 158 66 204s103.333 69 178 69c26.667 0 51 -3 73 -9s38.667 -13 50 -21l-49 -83c-12 28.667 -27.667 51.334 -47 68.001s-39 25 -59 25c-36 0 -64.667 -19 -86 -57s-32 -96.333 -32 -175v-358
c0 -20.667 1.5 -35.667 4.5 -45s9 -15.666 18 -18.999s23.5 -5 43.5 -5c2 0 3 -2 3 -6s-1 -6 -3 -6l-58 1c-12 0.666992 -30.667 1 -56 1l-61 -1c-10.667 -0.666992 -25.667 -1 -45 -1c-2.66699 0 -4 2 -4 6zM303.001 5.99707c0 4 1.33691 5.99707 4.00391 5.99707
c17.333 0 30.166 1.83301 38.499 5.5s14.166 10.167 17.499 19.5s5 24 5 44v225c0 20.667 -4.33301 34.167 -13 40.5s-25.667 9.5 -51 9.5c-2 0 -3 3 -3 9s1 9 3 9c23.333 0 39.5 3.16699 48.5 9.5s13.5 17.833 13.5 34.5c0 104.667 20.667 182.167 62 232.5
s100.666 75.5 177.999 75.5c43.333 0 77.5 -7 102.5 -21s37.5 -32.667 37.5 -56c0 -12.667 -4.16699 -23 -12.5 -31s-20.5 -12 -36.5 -12c-14.667 0 -26 4.16699 -34 12.5s-16.333 20.5 -25 36.5c-8.66699 16.667 -17.334 29.334 -26.001 38.001s-20.667 13 -36 13
c-33.333 0 -60.833 -22.167 -82.5 -66.5s-32.5 -111.166 -32.5 -200.499v-358c0 -20.667 2 -35.667 6 -45s12.167 -15.666 24.5 -18.999s31.833 -5 58.5 -5c2.66699 0 4 -2 4 -6s-1.33301 -6 -4 -6l-69 1c-15.333 0.666992 -38 1 -68 1l-61 -1
c-11.333 -0.666992 -26.333 -1 -45 -1c-2.66699 0 -4 2 -4 6zM605.005 5.99414c0 4 0.667969 6 2.00098 6c20.667 0 34.834 4.83301 42.501 14.5s11.5 27.834 11.5 54.501v179c0 22.667 -2.16699 39 -6.5 49s-11.833 15 -22.5 15c-8.66699 0 -21.334 -3.66699 -38.001 -11
h-1c-2 0 -3.83301 1.83301 -5.5 5.5s-1.83398 5.83398 -0.500977 6.50098l151 70c0.666992 0.666992 1.66699 1 3 1c3.33301 0 6.83301 -1.66699 10.5 -5s5.5 -6.33301 5.5 -9v-22c-1.33301 -26.667 -2 -59.334 -2 -98.001v-181c0 -26.667 3.83301 -44.834 11.5 -54.501
s21.5 -14.5 41.5 -14.5c2.66699 0 4 -2 4 -6s-1.33301 -6 -4 -6c-17.333 0 -31 0.333008 -41 1l-59 1l-60 -1c-10 -0.666992 -23.667 -1 -41 -1c-1.33301 0 -2 2 -2 6z" />
    <glyph glyph-name="longs_longs_j.liga" unicode="&#x17f;&#x17f;j" horiz-adv-x="826" 
d="M23 6c0 4 1.33398 5.99707 4.00098 5.99707c17.333 0 30.166 1.66699 38.499 5s14 9.83301 17 19.5s4.5 24.5 4.5 44.5v225c0 20.667 -4.16699 34.167 -12.5 40.5s-24.833 9.5 -49.5 9.5c-0.666992 0 -1.5 1 -2.5 3s-1.5 4 -1.5 6c0 2.66699 0.333008 4.83398 1 6.50098
s1.66699 2.5 3 2.5c22.667 0 38.667 3.16699 48 9.5s14 17.833 14 34.5c0 90 22 158 66 204s103.333 69 178 69c26.667 0 51 -3 73 -9s38.667 -13 50 -21l-49 -83c-12 28.667 -27.667 51.334 -47 68.001s-39 25 -59 25c-36 0 -64.667 -19 -86 -57s-32 -96.333 -32 -175v-358
c0 -20.667 1.5 -35.667 4.5 -45s9 -15.666 18 -18.999s23.5 -5 43.5 -5c2 0 3 -2 3 -6s-1 -6 -3 -6l-58 1c-12 0.666992 -30.667 1 -56 1l-61 -1c-10.667 -0.666992 -25.667 -1 -45 -1c-2.66699 0 -4 2 -4 6zM303.001 5.99707c0 4 1.33691 5.99707 4.00391 5.99707
c17.333 0 30.166 1.83301 38.499 5.5s14.166 10.167 17.499 19.5s5 24 5 44v225c0 20.667 -4.33301 34.167 -13 40.5s-25.667 9.5 -51 9.5c-2 0 -3 3 -3 9s1 9 3 9c23.333 0 39.5 3.16699 48.5 9.5s13.5 17.833 13.5 34.5c0 104.667 20.667 182.167 62 232.5
s100.666 75.5 177.999 75.5c43.333 0 77.5 -7 102.5 -21s37.5 -32.667 37.5 -56c0 -12.667 -4.16699 -23 -12.5 -31s-20.5 -12 -36.5 -12c-14.667 0 -26 4.16699 -34 12.5s-16.333 20.5 -25 36.5c-8.66699 16.667 -17.334 29.334 -26.001 38.001s-20.667 13 -36 13
c-33.333 0 -60.833 -22.167 -82.5 -66.5s-32.5 -111.166 -32.5 -200.499v-358c0 -20.667 2 -35.667 6 -45s12.167 -15.666 24.5 -18.999s31.833 -5 58.5 -5c2.66699 0 4 -2 4 -6s-1.33301 -6 -4 -6l-69 1c-15.333 0.666992 -38 1 -68 1l-61 -1
c-11.333 -0.666992 -26.333 -1 -45 -1c-2.66699 0 -4 2 -4 6zM569.505 -277.506c-1.66699 3.66699 -1.5 5.83301 0.5 6.5c32 14 54.833 36.5 68.5 67.5s20.5 75.167 20.5 132.5v331c0 22.667 -2.16699 39 -6.5 49s-11.833 15 -22.5 15
c-8.66699 0 -21.334 -3.66699 -38.001 -11h-1c-2.66699 0 -4.66699 1.83301 -6 5.5s-1.33301 5.83398 0 6.50098l151 70c0.666992 0.666992 1.66699 1 3 1c3.33301 0 6.83301 -1.66699 10.5 -5s5.5 -6.33301 5.5 -9c0 -8 -0.333008 -15.333 -1 -22
c-1.33301 -26.667 -2 -59.334 -2 -98.001v-310c0 -45.333 -5.5 -82.5 -16.5 -111.5s-29.167 -53.167 -54.5 -72.5s-60.666 -36 -105.999 -50c-2 -0.666992 -3.83301 0.833008 -5.5 4.5z" />
    <glyph glyph-name="longs_longs_k.liga" unicode="&#x17f;&#x17f;k" horiz-adv-x="1081" 
d="M23 6c0 4 1.33398 5.99707 4.00098 5.99707c17.333 0 30.166 1.66699 38.499 5s14 9.83301 17 19.5s4.5 24.5 4.5 44.5v225c0 20.667 -4.16699 34.167 -12.5 40.5s-24.833 9.5 -49.5 9.5c-0.666992 0 -1.5 1 -2.5 3s-1.5 4 -1.5 6c0 2.66699 0.333008 4.83398 1 6.50098
s1.66699 2.5 3 2.5c22.667 0 38.667 3.16699 48 9.5s14 17.833 14 34.5c0 90 22 158 66 204s103.333 69 178 69c26.667 0 51 -3 73 -9s38.667 -13 50 -21l-49 -83c-12 28.667 -27.667 51.334 -47 68.001s-39 25 -59 25c-36 0 -64.667 -19 -86 -57s-32 -96.333 -32 -175v-358
c0 -20.667 1.5 -35.667 4.5 -45s9 -15.666 18 -18.999s23.5 -5 43.5 -5c2 0 3 -2 3 -6s-1 -6 -3 -6l-58 1c-12 0.666992 -30.667 1 -56 1l-61 -1c-10.667 -0.666992 -25.667 -1 -45 -1c-2.66699 0 -4 2 -4 6zM304.001 5.99707c0 4 1.33398 5.99805 4.00098 5.99805
c17.333 0 30.166 1.66699 38.499 5s14 9.83301 17 19.5s4.5 24.5 4.5 44.5v225c0 20.667 -4.33301 34.167 -13 40.5s-25.667 9.5 -51 9.5c-2 0 -3 3 -3 9s1 9 3 9c23.333 0 39.5 3.16699 48.5 9.5s13.5 17.833 13.5 34.5c4 205.333 80.667 308 230 308
c62 0 110.333 -16.667 145 -50l-67 -67c-12.667 30.667 -28.167 54.834 -46.5 72.501s-37.833 26.5 -58.5 26.5c-32 0 -57.833 -21.833 -77.5 -65.5s-29.5 -111.5 -29.5 -203.5v-358c0 -20.667 2 -35.667 6 -45s12.167 -15.666 24.5 -18.999s31.833 -5 58.5 -5
c2.66699 0 4 -2 4 -6s-1.33301 -6 -4 -6l-69 1c-15.333 0.666992 -38 1 -68 1l-61 -1c-10.667 -0.666992 -25.667 -1 -45 -1c-2.66699 0 -4 2 -4 6zM860.002 5.99512c0 4 0.666992 6 2 6c12 0 21.167 1.83301 27.5 5.5s9.5 8.5 9.5 14.5s-3 13 -9 21l-120 155l68 52
l140 -179c19.333 -24 37.833 -41.5 55.5 -52.5s35.5 -16.5 53.5 -16.5c1.33301 0 2 -2 2 -6s-0.666992 -6 -2 -6c-17.333 0 -31 0.333008 -41 1l-60 1l-77 -1c-11.333 -0.666992 -27 -1 -47 -1c-1.33301 0 -2 2 -2 6zM608.002 5.99512c0 4 0.998047 6 2.99805 6
c20.667 0 34.834 4.83301 42.501 14.5s11.5 27.834 11.5 54.501v573c24 0 43.5 8.33301 58.5 25s22.5 34 22.5 52c0 2 2 3 6 3s6 -1 6 -3v-650c0 -26.667 3.83301 -44.834 11.5 -54.501s21.834 -14.5 42.501 -14.5c2.66699 0 4 -2 4 -6s-1.33301 -6 -4 -6
c-17.333 0 -31 0.333008 -41 1l-60 1l-58 -1c-10.667 -0.666992 -24.667 -1 -42 -1c-2 0 -3 2 -3 6zM716 164.995l134.999 129.998c17.333 16 26 32.333 26 49c0 8.66699 -3.33301 15.834 -10 21.501s-16 8.5 -28 8.5c-2 0 -3 2 -3 6s1 6 3 6
c19.333 0 34.333 -0.333008 45 -1l79 -1l73 1c9.33301 0.666992 22.333 1 39 1c2 0 3 -2 3 -6s-1 -6 -3 -6c-28.667 0 -61.667 -7.16699 -99 -21.5s-70.666 -35.166 -99.999 -62.499l-154 -141z" />
    <glyph glyph-name="longs_longs_l.liga" unicode="&#x17f;&#x17f;l" horiz-adv-x="836" 
d="M23 6c0 4 1.33398 5.99707 4.00098 5.99707c17.333 0 30.166 1.66699 38.499 5s14 9.83301 17 19.5s4.5 24.5 4.5 44.5v225c0 20.667 -4.16699 34.167 -12.5 40.5s-24.833 9.5 -49.5 9.5c-0.666992 0 -1.5 1 -2.5 3s-1.5 4 -1.5 6c0 2.66699 0.333008 4.83398 1 6.50098
s1.66699 2.5 3 2.5c22.667 0 38.667 3.16699 48 9.5s14 17.833 14 34.5c0 90 22 158 66 204s103.333 69 178 69c26.667 0 51 -3 73 -9s38.667 -13 50 -21l-49 -83c-12 28.667 -27.667 51.334 -47 68.001s-39 25 -59 25c-36 0 -64.667 -19 -86 -57s-32 -96.333 -32 -175v-358
c0 -20.667 1.5 -35.667 4.5 -45s9 -15.666 18 -18.999s23.5 -5 43.5 -5c2 0 3 -2 3 -6s-1 -6 -3 -6l-58 1c-12 0.666992 -30.667 1 -56 1l-61 -1c-10.667 -0.666992 -25.667 -1 -45 -1c-2.66699 0 -4 2 -4 6zM304.001 5.99707c0 4 1.33398 5.99805 4.00098 5.99805
c17.333 0 30.166 1.66699 38.499 5s14 9.83301 17 19.5s4.5 24.5 4.5 44.5v225c0 20.667 -4.33301 34.167 -13 40.5s-25.667 9.5 -51 9.5c-2 0 -3 3 -3 9s1 9 3 9c23.333 0 39.5 3.16699 48.5 9.5s13.5 17.833 13.5 34.5c4 205.333 80.667 308 230 308
c62 0 110.333 -16.667 145 -50l-67 -67c-12.667 30.667 -28.167 54.834 -46.5 72.501s-37.833 26.5 -58.5 26.5c-32 0 -57.833 -21.833 -77.5 -65.5s-29.5 -111.5 -29.5 -203.5v-358c0 -20.667 2 -35.667 6 -45s12.167 -15.666 24.5 -18.999s31.833 -5 58.5 -5
c2.66699 0 4 -2 4 -6s-1.33301 -6 -4 -6l-69 1c-15.333 0.666992 -38 1 -68 1l-61 -1c-10.667 -0.666992 -25.667 -1 -45 -1c-2.66699 0 -4 2 -4 6zM608.002 5.99512c0 4 0.998047 6 2.99805 6c20.667 0 34.834 4.83301 42.501 14.5s11.5 27.834 11.5 54.501v573
c24 0 43.5 8.33301 58.5 25s22.5 34 22.5 52c0 2 2 3 6 3s6 -1 6 -3v-650c0 -26.667 3.83301 -44.834 11.5 -54.501s21.834 -14.5 42.501 -14.5c2.66699 0 4 -2 4 -6s-1.33301 -6 -4 -6c-17.333 0 -31 0.333008 -41 1l-60 1l-58 -1c-10.667 -0.666992 -24.667 -1 -42 -1
c-2 0 -3 2 -3 6z" />
    <glyph glyph-name="longs_longs_thorn.liga" unicode="&#x17f;&#x17f;&#xfe;" horiz-adv-x="1089" 
d="M19 6c0 4 1.33398 5.99707 4.00098 5.99707c17.333 0 30.166 1.66699 38.499 5s14 9.83301 17 19.5s4.5 24.5 4.5 44.5v225c0 20.667 -4.16699 34.167 -12.5 40.5s-24.833 9.5 -49.5 9.5c-0.666992 0 -1.5 1 -2.5 3s-1.5 4 -1.5 6c0 2.66699 0.333008 4.83398 1 6.50098
s1.66699 2.5 3 2.5c22.667 0 38.667 3.16699 48 9.5s14 17.833 14 34.5c0 90 22 158 66 204s103.333 69 178 69c26.667 0 51 -3 73 -9s38.667 -13 50 -21l-49 -83c-12 28.667 -27.667 51.334 -47 68.001s-39 25 -59 25c-36 0 -64.667 -19 -86 -57s-32 -96.333 -32 -175v-358
c0 -20.667 1.5 -35.667 4.5 -45s9 -15.666 18 -18.999s23.5 -5 43.5 -5c2 0 3 -2 3 -6s-1 -6 -3 -6l-58 1c-12 0.666992 -30.667 1 -56 1l-61 -1c-10.667 -0.666992 -25.667 -1 -45 -1c-2.66699 0 -4 2 -4 6zM298.001 5.99707c0 4 1.33301 5.99707 4 5.99707
c17.333 0 30 1.66699 38 5s13.5 9.83301 16.5 19.5s4.5 24.5 4.5 44.5v225c0 20.667 -4.33301 34.167 -13 40.5s-25.334 9.5 -50.001 9.5c-0.666992 0 -1.5 1 -2.5 3s-1.5 4 -1.5 6c0 2.66699 0.333008 4.83398 1 6.50098s1.66699 2.5 3 2.5c23.333 0 39.5 3.16699 48.5 9.5
s13.5 17.833 13.5 34.5c4 205.333 80.333 308 229 308c62 0 110.333 -16.667 145 -50l-66 -67c-12.667 30.667 -28.167 54.834 -46.5 72.501s-38.166 26.5 -59.499 26.5c-32 0 -57.667 -21.833 -77 -65.5s-29 -111.5 -29 -203.5v-358c0 -20.667 2 -35.667 6 -45
s12 -15.666 24 -18.999s31.667 -5 59 -5c2.66699 0 4 -2 4 -6s-1.33301 -6 -4 -6l-69 1c-15.333 0.666992 -38 1 -68 1l-61 -1c-11.333 -0.666992 -26.333 -1 -45 -1c-2.66699 0 -4 2 -4 6zM600.001 -269.006c0 4 0.666992 6 2 6c16 0 27.833 1.83301 35.5 5.5
s13 10.167 16 19.5s4.5 24 4.5 44v848c16 0 30.333 4 43 12s22.334 18 29.001 30s10 23.667 10 35c0 2 2 3 6 3s6 -1 6 -3v-925c0 -20 2.16699 -34.667 6.5 -44s12.666 -15.833 24.999 -19.5s31.5 -5.5 57.5 -5.5c1.33301 0 2 -2 2 -6s-0.666992 -6 -2 -6
c-25.333 0 -45 0.333008 -59 1l-78 1l-60 -1c-10.667 -0.666992 -24.667 -1 -42 -1c-1.33301 0 -2 2 -2 6zM773.001 -7.50586c-18 3.66699 -41 10.165 -69 19.498l35 63c16.667 -20.667 33.5 -36.334 50.5 -47.001s38.833 -16 65.5 -16c32.667 0 57.834 14 75.501 42
s26.5 71.333 26.5 130c0 50.667 -11.833 89.834 -35.5 117.501s-53.167 41.5 -88.5 41.5c-23.333 0 -43.5 -5.5 -60.5 -16.5s-35.833 -27.833 -56.5 -50.5l-11 12c33.333 38.667 65.666 66.834 96.999 84.501s63.333 26.5 96 26.5c28 0 54.167 -7.33301 78.5 -22
s43.833 -36 58.5 -64s22 -60.667 22 -98c0 -53.333 -11 -97.166 -33 -131.499s-49.833 -59 -83.5 -74s-68.5 -22.5 -104.5 -22.5c-24 0 -45 1.83301 -63 5.5z" />
    <glyph glyph-name="fi.liga" unicode="fi" horiz-adv-x="570" 
d="M23 6c0 4 1.33301 5.99805 4 5.99805c17.333 0 30.166 1.66699 38.499 5s14 9.83301 17 19.5s4.5 24.5 4.5 44.5v225c0 20.667 -4.33301 34.167 -13 40.5s-25.667 9.5 -51 9.5c-2 0 -3 3 -3 9s1 9 3 9c23.333 0 39.333 3.16699 48 9.5s13.334 17.833 14.001 34.5
c4.66699 108 28 186.333 70 235s103 73 183 73c45.333 0 81 -7 107 -21s39 -32.667 39 -56c0 -12.667 -4.16699 -23 -12.5 -31s-20.5 -12 -36.5 -12c-15.333 0 -27 3.83301 -35 11.5s-16.667 19.834 -26 36.501c-10 17.333 -19.667 30.333 -29 39s-22.333 13 -39 13
c-22.667 0 -43.5 -9.33301 -62.5 -28s-34.167 -48 -45.5 -88s-17 -90.333 -17 -151v-358c0 -20.667 2 -35.667 6 -45s12.167 -15.666 24.5 -18.999s31.833 -5 58.5 -5c2.66699 0 4 -2 4 -6s-1.33301 -6 -4 -6l-69 1c-15.333 0.666992 -38 1 -68 1l-61 -1
c-10.667 -0.666992 -25.667 -1 -45 -1c-2.66699 0 -4 2 -4 6zM138 350.998v25.999c40.667 0 91.667 3.33301 153 10c2 0 3.66699 -2.5 5 -7.5s2 -10.5 2 -16.5c0 -6.66699 -1.16699 -13.167 -3.5 -19.5s-4.5 -9.16602 -6.5 -8.49902c-46 10.667 -96 16 -150 16zM343 5.99707
c0 4 0.666016 6 1.99902 6c20.667 0 34.834 4.83301 42.501 14.5s11.5 27.834 11.5 54.501v179c0 22.667 -2.16699 39 -6.5 49s-11.833 15 -22.5 15c-8.66699 0 -21.334 -3.66699 -38.001 -11h-1c-2.66699 0 -4.66699 1.83301 -6 5.5s-1.33301 5.83398 0 6.50098l151 70
c0.666992 0.666992 1.66699 1 3 1c3.33301 0 6.83301 -1.66699 10.5 -5s5.5 -6.33301 5.5 -9c0 -8 -0.333008 -15.333 -1 -22c-1.33301 -26.667 -2 -59.334 -2 -98.001v-181c0 -26.667 3.83301 -44.834 11.5 -54.501s21.834 -14.5 42.501 -14.5c2.66699 0 4 -2 4 -6
s-1.33301 -6 -4 -6c-17.333 0 -31.333 0.333008 -42 1l-58 1l-60 -1c-10 -0.666992 -23.667 -1 -41 -1c-1.33301 0 -2 2 -2 6z" />
    <glyph glyph-name="fl.liga" unicode="fl" 
d="M23 6c0 4 1.33203 5.99902 3.99902 5.99902c17.333 0 30.166 1.66699 38.499 5s14 9.83301 17 19.5s4.5 24.5 4.5 44.5v225c0 20.667 -4.33301 34.167 -13 40.5s-25.667 9.5 -51 9.5c-2 0 -3 3 -3 9s1 9 3 9c23.333 0 39.333 3.16699 48 9.5s13.334 17.833 14.001 34.5
c3.33301 108.667 23.833 187.167 61.5 235.5s95.167 72.5 172.5 72.5c64 0 114.667 -16.667 152 -50l-66 -67c-14 30 -31.167 54 -51.5 72s-41.166 27 -62.499 27c-34 0 -60.833 -21.667 -80.5 -65s-29.5 -111.333 -29.5 -204v-358c0 -20.667 2 -35.667 6 -45
s12.167 -15.666 24.5 -18.999s31.833 -5 58.5 -5c2.66699 0 4 -2 4 -6s-1.33301 -6 -4 -6l-69 1c-15.333 0.666992 -38 1 -68 1l-61 -1c-10.667 -0.666992 -25.667 -1 -45 -1c-2.66699 0 -4 2 -4 6zM137.999 350.999v25.999c40.667 0 91.667 3.33301 153 10
c2 0 3.66699 -2.5 5 -7.5s2 -10.5 2 -16.5c0 -6.66699 -1.16699 -13.167 -3.5 -19.5s-4.5 -9.16602 -6.5 -8.49902c-46 10.667 -96 16 -150 16zM338.999 5.99805c0 4 0.998047 6 2.99805 6c20 0 33.833 4.83301 41.5 14.5s11.5 27.834 11.5 54.501v573c16 0 30.333 4 43 12
s22.334 18 29.001 30s10 23.667 10 35c0 2 2 3 6 3s6 -1 6 -3v-650c0 -26.667 3.83301 -44.834 11.5 -54.501s21.834 -14.5 42.501 -14.5c2 0 3 -2 3 -6s-1 -6 -3 -6c-17.333 0 -31 0.333008 -41 1l-61 1l-58 -1c-10 -0.666992 -23.667 -1 -41 -1c-2 0 -3 2 -3 6z" />
    <glyph glyph-name=".notdef" horiz-adv-x="501" 
d="M94 725h317v-1000h-317v1000zM233 626v-38h-66v-32h166v32h-66v38h66v32h-165v-32h65zM333 426v34h-66v69h-100v-103h166zM200 495h33v-35h-33v35zM233 365v-36h-66v-34h100v70h66v33h-166v-33h66zM167 273v-34h166v99h-32v-65h-134zM267 160v24h34v-48h-101v80h-33v-113
h166v113h-100v-56h34zM333 -70v113h-166v-113h166zM200 11h101v-48h-101v48zM237 -126l-70 -47v-33h166v33h-101l69 47h32v34h-166v-34h70z" />
    <glyph glyph-name="space" unicode=" " horiz-adv-x="234" 
 />
    <glyph glyph-name="exclam" unicode="!" horiz-adv-x="263" 
d="M82 625.5c15.333 2.33301 31.667 3.50098 49 3.50098s33.833 -1.16699 49.5 -3.5s22.834 -5.83301 21.501 -10.5c-14.667 -50.667 -25.5 -106 -32.5 -166s-14.167 -136 -21.5 -228c0 -6.66699 -0.666992 -17.334 -2 -32.001c0 -1.33301 -1.83301 -2.5 -5.5 -3.5
s-7.5 -1.5 -11.5 -1.5s-7.83301 0.5 -11.5 1.5s-5.5 2.16699 -5.5 3.5c-6 98.667 -12.333 180.5 -19 245.5s-17.334 125.167 -32.001 180.5c-1.33301 4.66699 5.66699 8.16699 21 10.5zM80.501 5.50098c-11 11 -16.5 25.833 -16.5 44.5c0 17.333 5.5 31.333 16.5 42
s25.833 16 44.5 16s33.167 -5.16699 43.5 -15.5s15.5 -24.5 15.5 -42.5c0 -19.333 -5.16699 -34.333 -15.5 -45s-24.833 -16 -43.5 -16s-33.5 5.5 -44.5 16.5z" />
    <glyph glyph-name="quotedbl" unicode="&#x22;" horiz-adv-x="302" 
d="M60 629.5c22 7.66699 41.667 11.501 59 11.501c6 0 10.5 -0.833008 13.5 -2.5s4.16699 -3.83398 3.5 -6.50098l-63 -266c-1.33301 -1.33301 -4.33301 -2.33301 -9 -3s-7 0 -7 2l-29 241c-0.666992 8 10 15.833 32 23.5zM212 629.501c22 7.66699 41.667 11.501 59 11.501
c6 0 10.5 -0.833008 13.5 -2.5s4.16699 -3.83398 3.5 -6.50098l-63 -266c-1.33301 -1.33301 -4.33301 -2.33301 -9 -3s-7 0 -7 2l-29 241c-0.666992 8 10 15.833 32 23.5z" />
    <glyph glyph-name="numbersign" unicode="#" horiz-adv-x="526" 
d="M123.5 -83c-17.667 2.66699 -25.833 5.33301 -24.5 8l99 557c0 3.33301 8.5 3 25.5 -1s25.167 -7.33301 24.5 -10l-98 -554c0 -2.66699 -8.83301 -2.66699 -26.5 0zM311.001 -83.001c-17.333 2.66699 -25.333 5.33301 -24 8l98 557c0 3.33301 8.5 3 25.5 -1
s25.167 -7.33301 24.5 -10l-98 -554c0 -2.66699 -8.66699 -2.66699 -26 0zM59.501 81.998c-1 5.33301 -1.5 11.333 -1.5 18c0 5.33301 0.5 10.333 1.5 15s1.83301 7 2.5 7h366c1.33301 0 2.5 -2.5 3.5 -7.5s1.5 -10.5 1.5 -16.5s-0.5 -11.5 -1.5 -16.5
s-2.16699 -7.5 -3.5 -7.5h-365c-1.33301 0 -2.5 2.66699 -3.5 8zM94.501 280.998c-1 5.33301 -1.5 11 -1.5 17c0 5.33301 0.5 10.333 1.5 15s1.83301 7 2.5 7h366c1.33301 0 2.5 -2.5 3.5 -7.5s1.5 -10.167 1.5 -15.5c0 -6 -0.5 -11.5 -1.5 -16.5s-2.16699 -7.5 -3.5 -7.5
h-365c-1.33301 0 -2.5 2.66699 -3.5 8z" />
    <glyph glyph-name="dollar" unicode="$" horiz-adv-x="526" 
d="M266.5 725c3 1.33301 6.5 2 10.5 2s7.33301 -0.666992 10 -2s4 -3.33301 4 -6v-827c0 -4.66699 -4.66699 -7 -14 -7c-10 0 -15 2.33301 -15 7v827c0 2.66699 1.5 4.66699 4.5 6zM192.5 460c12.333 -18.667 27.502 -35 45.502 -49s42.333 -31 73 -51
c33.333 -21.333 60 -40 80 -56s37 -35.5 51 -58.5s21 -49.5 21 -79.5c0 -34.667 -9.33301 -65.5 -28 -92.5s-44.5 -48 -77.5 -63s-69.833 -22.5 -110.5 -22.5c-29.333 0 -60.5 4.16699 -93.5 12.5s-55.167 17.5 -66.5 27.5c-3.33301 2.66699 -5.83301 5.16699 -7.5 7.5
s-2.5 6.16602 -2.5 11.499l-3 159v1c0 2.66699 1.66699 4.16699 5 4.5s5.33301 -0.833984 6 -3.50098c20 -40.667 37.5 -73.667 52.5 -99s34 -47.666 57 -66.999s49.167 -29 78.5 -29c26.667 0 48.667 7.16699 66 21.5s26 38.833 26 73.5c0 29.333 -6.5 55 -19.5 77
s-28.833 40.667 -47.5 56s-44.334 33.666 -77.001 54.999c-32 20.667 -56.833 38.334 -74.5 53.001s-32.834 32.334 -45.501 53.001s-19 45 -19 73c0 35.333 10.167 65.166 30.5 89.499s46.5 42.333 78.5 54s65.667 17.5 101 17.5c23.333 0 47 -2.16699 71 -6.5
s43.333 -9.5 58 -15.5c6 -2.66699 10 -5.5 12 -8.5s3 -6.83301 3 -11.5v-147c0 -2 -1.66699 -3.5 -5 -4.5s-5.33301 -0.5 -6 1.5l-8 19c-16.667 42 -36.167 77.667 -58.5 107s-53.5 44 -93.5 44c-26.667 0 -48.5 -7.66699 -65.5 -23s-25.5 -37.666 -25.5 -66.999
c0 -24 6.16699 -45.333 18.5 -64z" />
    <glyph glyph-name="percent" unicode="%" horiz-adv-x="574" 
d="M55.5 340.5c-25 25 -37.5 55.833 -37.5 92.5c0 35.333 12.5 65.333 37.5 90s56.5 37 94.5 37s69.167 -12.5 93.5 -37.5s36.5 -55.833 36.5 -92.5c0 -36 -12.333 -66.167 -37 -90.5s-55.667 -36.5 -93 -36.5c-38 0 -69.5 12.5 -94.5 37.5zM190 345.5
c5.33301 17.667 7.99805 43.5 7.99805 77.5c0 40 -4.66699 70.167 -14 90.5s-22.666 30.5 -39.999 30.5s-29.166 -9.5 -35.499 -28.5s-9.5 -45.5 -9.5 -79.5c0 -78 19.333 -117 58 -117c16.667 0 27.667 8.83301 33 26.5zM332.498 32.5c-25 25 -37.5 55.833 -37.5 92.5
c0 35.333 12.5 65.5 37.5 90.5s56.5 37.5 94.5 37.5s69.167 -12.667 93.5 -38s36.5 -56 36.5 -92s-12.167 -66.333 -36.5 -91s-55.5 -37 -93.5 -37s-69.5 12.5 -94.5 37.5zM466.998 38c5.33301 17.333 8 43.335 8 78.002c0 39.333 -4.66699 69.166 -14 89.499
s-22.666 30.5 -39.999 30.5c-16.667 0 -28.167 -9.5 -34.5 -28.5s-9.5 -45.167 -9.5 -78.5c0 -36.667 4.16699 -65.334 12.5 -86.001s23.166 -31 44.499 -31c16.667 0 27.667 8.66699 33 26zM92.998 -0.498047c-10 7 -14.333 11.5 -13 13.5l370 544c2 2 8 -0.833008 18 -8.5
s14.333 -12.167 13 -13.5l-371 -543c-1.33301 -2 -7 0.5 -17 7.5z" />
    <glyph glyph-name="ampersand" unicode="&#x26;" horiz-adv-x="716" 
d="M337.5 594c-13.667 16.667 -31.5 24.9971 -53.5 24.9971c-18.667 0 -32 -6 -40 -18s-12 -30 -12 -54c0 -68 28.667 -139.5 86 -214.5s127 -143.5 209 -205.5c44 -32.667 83.167 -58.667 117.5 -78s61.166 -31.666 80.499 -36.999
c2.66699 -0.666992 3.83398 -2.83398 3.50098 -6.50098s-1.5 -5.5 -3.5 -5.5h-164c-12 0 -29.833 6.83301 -53.5 20.5s-58.167 38.834 -103.5 75.501c-48 38.667 -94 81 -138 127s-77 89.333 -99 130c-9.33301 18.667 -16.5 36.334 -21.5 53.001s-7.5 35 -7.5 55
c0 54 17.167 98.333 51.5 133s81.166 52 140.499 52c41.333 0 74 -8.83301 98 -26.5s36 -42.167 36 -73.5c0 -24.667 -6.66699 -47.167 -20 -67.5s-30 -38.5 -50 -54.5s-46.333 -35 -79 -57c-34 -22.667 -60.5 -41.667 -79.5 -57s-35.333 -33.333 -49 -54
s-20.5 -43.334 -20.5 -68.001c0 -26 7.5 -50.5 22.5 -73.5s36.5 -41.667 64.5 -56s60.667 -21.5 98 -21.5c106 0 159 63 159 189c0 38.667 -6.33301 66.834 -19 84.501s-33.334 26.5 -62.001 26.5c-1.33301 0 -2.16602 2 -2.49902 6s0.5 6 2.5 6l238 1c2 0 3 -2 3 -6
s-1 -6 -3 -6c-20 0 -34.833 -2.16699 -44.5 -6.5s-17 -11.5 -22 -21.5s-10.5 -26 -16.5 -48c-14 -48 -30.5 -91 -49.5 -129s-49.833 -71.667 -92.5 -101s-98.667 -44 -168 -44c-46 0 -84.667 6.66699 -116 20s-54.666 31 -69.999 53s-23 45.333 -23 70
c0 22.667 6 43.834 18 63.501s27 37.5 45 53.5s42 35.333 72 58c34 25.333 61.5 47.666 82.5 66.999s38.833 41.833 53.5 67.5s22 53.834 22 84.501c0 29.333 -6.83301 52.333 -20.5 69z" />
    <glyph glyph-name="quotesingle" unicode="'" horiz-adv-x="150" 
d="M60 629.5c22 7.66699 41.667 11.501 59 11.501c6 0 10.5 -0.833008 13.5 -2.5s4.16699 -3.83398 3.5 -6.50098l-63 -266c-1.33301 -1.33301 -4.33301 -2.33301 -9 -3s-7 0 -7 2l-29 241c-0.666992 8 10 15.833 32 23.5z" />
    <glyph glyph-name="parenleft" unicode="(" horiz-adv-x="309" 
d="M104.5 559c40.333 75.333 96.833 130.667 169.5 166c1.33301 0.666992 2.66602 0.166992 3.99902 -1.5s1.33301 -3.16699 0 -4.5c-42 -47.333 -72.833 -105.333 -92.5 -174s-29.5 -149 -29.5 -241s9.83301 -172.333 29.5 -241s50.5 -126.667 92.5 -174
c1.33301 -0.666992 1.33301 -2 0 -4s-2.66602 -2.66699 -3.99902 -2c-72.667 36 -129.167 91.5 -169.5 166.5s-60.5 159.833 -60.5 254.5s20.167 179.667 60.5 255z" />
    <glyph glyph-name="parenright" unicode=")" horiz-adv-x="309" 
d="M204.5 49c-40.333 -75.333 -96.833 -130.667 -169.5 -166c-1.33301 -0.666992 -2.66602 -0.166992 -3.99902 1.5s-1.33301 3.16699 0 4.5c42 47.333 72.833 105.333 92.5 174s29.5 149 29.5 241s-9.83301 172.333 -29.5 241s-50.5 126.667 -92.5 174
c-1.33301 0.666992 -1.33301 2 0 4s2.66602 2.66699 3.99902 2c72.667 -36 129.167 -91.5 169.5 -166.5s60.5 -159.833 60.5 -254.5s-20.167 -179.667 -60.5 -255z" />
    <glyph glyph-name="asterisk" unicode="*" horiz-adv-x="448" 
d="M152 363c-8.66699 0 -21.8301 3.50098 -39.4971 10.501s-33.334 14.667 -47.001 23s-18.834 13.166 -15.501 14.499l156 80l2 1c2 0 3.83301 -0.833008 5.5 -2.5s2.16699 -3.16699 1.5 -4.5l-55 -119c-0.666992 -2 -3.33398 -3 -8.00098 -3zM232.004 482.001
c0 1.33301 1.33203 2.83301 3.99902 4.5s4.33398 2.16699 5.00098 1.5l96 -89c4.66699 -4 1 -14.167 -11 -30.5s-25.667 -31.333 -41 -45s-23.333 -18.5 -24 -14.5l-29 172v1zM64.0029 556.001c0 18.667 2.16797 38.832 6.50098 60.499s8.16602 30.834 11.499 27.501
l125 -124c1.33301 -1.33301 1.5 -3.33301 0.5 -6s-2.16699 -3.66699 -3.5 -3l-131 15c-6 1.33301 -9 11.333 -9 30zM246.504 507.999c-1 2.66699 -0.500977 4.33203 1.49902 4.99902l113 65c6 2.66699 14.833 -4.16602 26.5 -20.499s21.834 -34 30.501 -53
s11 -28.167 7 -27.5l-175 27c-1.33301 0 -2.5 1.33301 -3.5 4zM237.503 678.497c26.333 7 48.5 10.5 66.5 10.5c8 0 11.667 -1.33301 11 -4l-79 -156c-0.666992 -2 -2.5 -3 -5.5 -3s-4.5 1 -4.5 3l-26 128c-1.33301 7.33301 11.167 14.5 37.5 21.5z" />
    <glyph glyph-name="plus" unicode="+" horiz-adv-x="398" 
d="M30.5 173c-1 5.33301 -1.5 11.333 -1.5 18c0 6 0.333008 11.333 1 16s1.66699 7 3 7h331c1.33301 0 2.5 -2.5 3.5 -7.5s1.5 -10.5 1.5 -16.5s-0.5 -11.667 -1.5 -17s-2.16699 -8 -3.5 -8h-330c-1.33301 0 -2.5 2.66699 -3.5 8zM214 21.5c-6 -1 -12.333 -1.5 -19 -1.5
c-14 0 -21 1 -21 3v331c0 1.33301 2.66699 2.5 8 3.5s11 1.5 17 1.5s11.5 -0.5 16.5 -1.5s7.5 -2.16699 7.5 -3.5v-329c0 -1.33301 -3 -2.5 -9 -3.5z" />
    <glyph glyph-name="comma" unicode="," horiz-adv-x="222" 
d="M155.5 82c13 -16 19.498 -40.335 19.498 -73.002c0 -35.333 -8.5 -69.166 -25.5 -101.499s-41.833 -64.5 -74.5 -96.5c-0.666992 -0.666992 -1.66699 -1 -3 -1c-2 0 -3.5 0.833008 -4.5 2.5s-1.16699 3.5 -0.5 5.5c18 22 30.5 43.833 37.5 65.5s10.5 45.834 10.5 72.501
c0 18.667 -1.66699 32.5 -5 41.5s-8.66602 16.5 -15.999 22.5l37 7c0.666992 -11.333 -2.66602 -20 -9.99902 -26s-17.333 -9 -30 -9c-17.333 0 -30.833 5 -40.5 15s-14.5 23.667 -14.5 41c0 18 5.83301 32.167 17.5 42.5s27.5 15.5 47.5 15.5c23.333 0 41.5 -8 54.5 -24z
" />
    <glyph glyph-name="hyphen" unicode="-" horiz-adv-x="323" 
d="M28.5 163c-1 6.66699 -1.5 13.6699 -1.5 21.0029c0 16 1 24 3 24l261 47c1.33301 0.666992 2.5 -1.83301 3.5 -7.5s1.5 -11.834 1.5 -18.501s-0.5 -12.834 -1.5 -18.501s-2.16699 -8.83398 -3.5 -9.50098l-259 -47c-1.33301 -0.666992 -2.5 2.33301 -3.5 9z" />
    <glyph glyph-name="period" unicode="." horiz-adv-x="207" 
d="M60.5 5.5c-11 11 -16.5 25.833 -16.5 44.5c0 17.333 5.5 31.333 16.5 42s25.833 16 44.5 16s33.167 -5.16699 43.5 -15.5s15.5 -24.5 15.5 -42.5c0 -19.333 -5.16699 -34.333 -15.5 -45s-24.833 -16 -43.5 -16s-33.5 5.5 -44.5 16.5z" />
    <glyph glyph-name="slash" unicode="/" horiz-adv-x="351" 
d="M48.5 -162.5c-15.667 4.33301 -23.165 7.83203 -22.498 10.499l252 882c1.33301 2.66699 9.66602 1.83398 24.999 -2.49902s22.666 -8.16602 21.999 -11.499l-251 -881c-1.33301 -2.66699 -9.83301 -1.83398 -25.5 2.49902z" />
    <glyph glyph-name="zero" unicode="0" horiz-adv-x="501" 
d="M94 73.5c-38 57.667 -57 137.501 -57 239.501s19 181.5 57 238.5s91 85.5 159 85.5c66 0 117.5 -28.833 154.5 -86.5s55.5 -137.834 55.5 -240.501c0 -101.333 -18.667 -180.5 -56 -237.5s-89.333 -85.5 -156 -85.5s-119 28.833 -157 86.5zM326 75.001
c12.667 44.667 19 118.999 19 222.999c0 76.667 -3.5 138 -10.5 184s-18 79.833 -33 101.5s-34.833 32.5 -59.5 32.5c-31.333 0 -53.833 -22.833 -67.5 -68.5s-20.5 -121.5 -20.5 -227.5c0 -111.333 8.5 -191.166 25.5 -239.499s44.833 -72.5 83.5 -72.5
c29.333 0 50.333 22.333 63 67z" />
    <glyph glyph-name="one" unicode="1" horiz-adv-x="391" 
d="M41 6c0 4 0.667969 6 2.00098 6c28 0 49.5 1.83301 64.5 5.5s25.833 10.334 32.5 20.001s10 24.167 10 43.5v352c0 50 -11.667 75 -35 75c-16 0 -39.667 -10.667 -71 -32l-2 -1c-2 0 -3.83301 1.5 -5.5 4.5s-1.83398 4.83301 -0.500977 5.5l205 147
c2.66699 1.33301 5 2 7 2c1.33301 0 2.83301 -0.833008 4.5 -2.5s2.5 -3.16699 2.5 -4.5v-546c0 -19.333 3 -33.833 9 -43.5s16.333 -16.334 31 -20.001s36.667 -5.5 66 -5.5c2 0 3 -2 3 -6s-1 -6 -3 -6c-27.333 -0 -49.333 0.333008 -66 1l-93 1l-92 -1
c-16.667 -0.666992 -39 -1 -67 -1c-1.33301 0 -2 2 -2 6z" />
    <glyph glyph-name="two" unicode="2" horiz-adv-x="443" 
d="M28 12c-4 8 -4.66797 13.335 -2.00098 16.002c66.667 83.333 115.167 146.166 145.5 188.499s53.333 81.666 69 117.999s23.5 73.833 23.5 112.5c0 83.333 -34.333 125 -103 125c-31.333 0 -57.166 -7.83301 -77.499 -23.5s-33.5 -37.167 -39.5 -64.5
c0 -0.666992 -1.33301 -1 -4 -1c-5.33301 0 -7.66602 1.33301 -6.99902 4c7.33301 45.333 27.333 81.5 60 108.5s73.667 40.5 123 40.5c50 0 88.667 -14.167 116 -42.5s41 -65.833 41 -112.5c0 -35.333 -7.66699 -69.5 -23 -102.5s-34 -62.833 -56 -89.5
s-50.333 -58 -85 -94c-40 -41.333 -67.333 -72 -82 -92c-2.66699 -4.66699 -1 -7 5 -7c71.333 0 123.5 1.66699 156.5 5s55.667 9.83301 68 19.5s18.5 25.167 18.5 46.5c0 2 2 3 6 3s6 -1 6 -3v-156c0 -2.66699 -0.833008 -5.16699 -2.5 -7.5s-3.83398 -3.5 -6.50098 -3.5
h-339c-3.33301 0 -7 4 -11 12z" />
    <glyph glyph-name="three" unicode="3" horiz-adv-x="435" 
d="M37 63l-1 1.99805c0 2.66699 1.5 4.83398 4.5 6.50098s5.16699 1.5 6.5 -0.5c14 -13.333 31.333 -23.666 52 -30.999s40.334 -11 59.001 -11c45.333 0 78.166 12.667 98.499 38s30.5 58.333 30.5 99c0 99.333 -51.667 149 -155 149
c-2.66699 0 -4.33398 1.83301 -5.00098 5.5s1 5.5 5 5.5c50 0 85.167 11.667 105.5 35s30.5 56.666 30.5 99.999c0 82 -31.667 123 -95 123c-25.333 0 -49.833 -6.5 -73.5 -19.5s-40.834 -31.833 -51.501 -56.5c0 -0.666992 -1 -1 -3 -1s-4.16699 0.666992 -6.5 2
s-3.16602 2.33301 -2.49902 3c14 38 37.333 68.167 70 90.5s70.334 33.5 113.001 33.5c46 0 83.833 -13 113.5 -39s44.5 -59.667 44.5 -101s-15 -78.833 -45 -112.5s-69.667 -55.5 -119 -65.5l2 8l18 1c34.667 0 64.5 -7.16699 89.5 -21.5s44 -33.166 57 -56.499
s19.5 -48 19.5 -74c0 -56 -18.167 -101.167 -54.5 -135.5s-83.833 -51.5 -142.5 -51.5c-64 0 -119 25 -165 75z" />
    <glyph glyph-name="four" unicode="4" horiz-adv-x="474" 
d="M362.5 36c3 -9.33301 8.5 -15.667 16.5 -19s21 -5 39 -5c1.33301 0 2 -2 2 -6s-0.666992 -6 -2 -6c-20 -0 -35.667 0.333008 -47 1l-67 1l-80 -1c-13.333 -0.666992 -32.333 -1 -57 -1c-1.33301 0 -2 2 -2 6s0.666992 6 2 6c27.333 0 46.5 1.5 57.5 4.5s18.5 9 22.5 18
s6 24.5 6 46.5v408l46 36l-224 -305c-4 -4.66699 -2.33301 -7 5 -7c113.333 0 226 2 338 6c2.66699 0 4 -7 4 -21s-1.33301 -21 -4 -21c-98 4.66699 -230 7 -396 7c-3.33301 0 -5.83301 1.16699 -7.5 3.5s-1.5 4.83301 0.5 7.5l328 435c1.33301 1.33301 3.33301 2 6 2
c2 0 4 -0.5 6 -1.5s3 -2.5 3 -4.5v-545c0 -20.667 1.5 -35.667 4.5 -45z" />
    <glyph glyph-name="five" unicode="5" horiz-adv-x="450" 
d="M72 336.5c-2 2.33301 -2.66406 5.16602 -1.99707 8.49902l32 268c0.666992 4.66699 1.66699 7.83398 3 9.50098s4.66602 2.5 9.99902 2.5c90.667 0 151 0.5 181 1.5s49.667 3.16699 59 6.5s16.666 10.333 21.999 21c0.666992 1.33301 2.66699 1.83301 6 1.5
s4.66602 -1.83301 3.99902 -4.5l-17 -111c-1.33301 -8 -3.5 -13.333 -6.5 -16s-8.5 -4 -16.5 -4l-211 5c-8.66699 0 -14 -4.66699 -16 -14l-21 -165l-19 -13c-3.33301 0 -6 1.16699 -8 3.5zM106.003 39.5c19.333 -7 39.334 -10.5 60.001 -10.5
c43.333 0 75.666 13.5 96.999 40.5s32 62.833 32 107.5c0 50.667 -11.667 91.5 -35 122.5s-57 46.5 -101 46.5c-19.333 0 -36.5 -2 -51.5 -6s-24.167 -6.33301 -27.5 -7c-0.666992 0 -1 1 -1 3c0 3.33301 0.5 7 1.5 11s1.83301 7 2.5 9c14.667 5.33301 33 10.666 55 15.999
s45.333 8 70 8c62 0 110.667 -16.667 146 -50s53 -80.666 53 -141.999c0 -63.333 -19.167 -112.5 -57.5 -147.5s-87.5 -52.5 -147.5 -52.5c-31.333 0 -59.333 6.16699 -84 18.5s-47.667 31.166 -69 56.499l-1 2c0 2.66699 1.33301 4.83398 4 6.50098s4.66699 1.5 6 -0.5
c12.667 -14 28.667 -24.5 48 -31.5z" />
    <glyph glyph-name="six" unicode="6" horiz-adv-x="495" 
d="M414.5 295c28.333 -30 42.502 -68.998 42.502 -116.998c0 -37.333 -8.66699 -70.5 -26 -99.5s-41.333 -51.5 -72 -67.5s-65 -24 -103 -24c-62.667 0 -111.834 21.667 -147.501 65s-53.5 102.333 -53.5 177c0 64.667 13.167 127.667 39.5 189s64.333 112.166 114 152.499
s107.5 62.166 173.5 65.499c2.66699 0 4.33398 -1.5 5.00098 -4.5s0 -4.83301 -2 -5.5c-69.333 -22.667 -122.833 -70 -160.5 -142s-56.5 -154.667 -56.5 -248c0 -67.333 9.66699 -122 29 -164s45.333 -63 78 -63c46 0 69 47.333 69 142c0 52 -6.83301 90.667 -20.5 116
s-34.5 38 -62.5 38c-20 0 -36.667 -3.66699 -50 -11l-2 -1c-2.66699 0 -4.83398 1.33301 -6.50098 4s-1.83398 4.66699 -0.500977 6c26 24.667 59.333 37 100 37c46.667 0 84.167 -15 112.5 -45z" />
    <glyph glyph-name="seven" unicode="7" horiz-adv-x="429" 
d="M212.5 5c-3 -3.33301 -7.83301 -4.99805 -14.5 -4.99805h-86c-5.33301 0 -9.33301 1.5 -12 4.5s-3 6.83301 -1 11.5l228 502c2.66699 4.66699 1.33398 7 -3.99902 7c-98.667 0 -165.667 -1.33301 -201 -4s-57.333 -7.83398 -66 -15.501s-16.667 -23.834 -24 -48.501
c-1.33301 -1.33301 -3 -2 -5 -2s-3.83301 0.5 -5.5 1.5s-2.16699 2.16699 -1.5 3.5l44 191c0.666992 2 3 2.83301 7 2.5s5.66699 -1.5 5 -3.5c-0.666992 -2.66699 -1 -6 -1 -10c0 -6 3.16699 -10 9.5 -12s19.166 -3 38.499 -3h265c2.66699 0 5 -1.66699 7 -5
s2.33301 -6 1 -8l-175 -589c-2.66699 -8.66699 -5.5 -14.667 -8.5 -18z" />
    <glyph glyph-name="eight" unicode="8" horiz-adv-x="495" 
d="M301.5 410c6.33301 27.333 9.49805 56.335 9.49805 87.002c0 40 -5.66699 69.667 -17 89s-29.333 29 -54 29c-21.333 0 -36.833 -6.83301 -46.5 -20.5s-14.5 -31.834 -14.5 -54.501c0 -26 5.83301 -48.833 17.5 -68.5s27 -36.667 46 -51s43.833 -30.833 74.5 -49.5
c30 -19.333 54.833 -37.5 74.5 -54.5s36.167 -38 49.5 -63s20 -54.5 20 -88.5c0 -34.667 -9.33301 -65.5 -28 -92.5s-44.334 -48 -77.001 -63s-69.334 -22.5 -110.001 -22.5c-43.333 0 -80.666 8 -111.999 24s-55.333 37.667 -72 65s-25 57 -25 89
c0 52.667 18.333 96.334 55 131.001s80.334 60 131.001 76l6 -8c-26 -18 -45.333 -40.333 -58 -67s-19 -63 -19 -109c0 -56 10.333 -99.833 31 -131.5s49.334 -47.5 86.001 -47.5c30 0 52.333 10.667 67 32s22 49 22 83c0 31.333 -6.16699 58.166 -18.5 80.499
s-27.666 40.833 -45.999 55.5s-42.833 31.667 -73.5 51c-28 16.667 -51 32.5 -69 47.5s-32.667 33 -44 54s-17 46.167 -17 75.5c0 48.667 16 85.5 48 110.5s70.667 37.5 116 37.5c44.667 0 81.5 -11.667 110.5 -35s43.5 -54 43.5 -92c0 -35.333 -12.167 -68.333 -36.5 -99
s-55.5 -56.334 -93.5 -77.001l-5 6c12.667 20 22.167 43.667 28.5 71z" />
    <glyph glyph-name="nine" unicode="9" horiz-adv-x="489" 
d="M80 331.5c-28.667 32.333 -43.001 74.1641 -43.001 125.497c0 34.667 8.66699 65.667 26 93s41.333 48.5 72 63.5s65.334 22.5 104.001 22.5c62.667 0 111.834 -21.5 147.501 -64.5s53.5 -102.167 53.5 -177.5c0 -64.667 -13.667 -127.5 -41 -188.5
s-66.666 -111.667 -117.999 -152s-111.333 -62.5 -180 -66.5c-2.66699 0 -4.33398 1.5 -5.00098 4.5s0 5.16699 2 6.5c49.333 14.667 91.166 41.334 125.499 80.001s60 84.834 77 138.501s25.5 110.5 25.5 170.5c0 67.333 -9.66699 122 -29 164s-45 63 -77 63
c-24.667 0 -42.334 -12.167 -53.001 -36.5s-16 -59.166 -16 -104.499c0 -52 6.83301 -90.833 20.5 -116.5s34.5 -38.5 62.5 -38.5c20.667 0 37.334 4 50.001 12h2c2 0 3.83301 -1.16699 5.5 -3.5s1.83398 -4.5 0.500977 -6.5c-24.667 -24.667 -57.667 -37 -99 -37
c-46.667 0 -84.334 16.167 -113.001 48.5z" />
    <glyph glyph-name="colon" unicode=":" horiz-adv-x="207" 
d="M60.5 5.5c-11 11 -16.5 25.833 -16.5 44.5c0 17.333 5.5 31.333 16.5 42s25.833 16 44.5 16s33.167 -5.16699 43.5 -15.5s15.5 -24.5 15.5 -42.5c0 -19.333 -5.16699 -34.333 -15.5 -45s-24.833 -16 -43.5 -16s-33.5 5.5 -44.5 16.5zM60.5 286.5
c-11 11 -16.5 25.833 -16.5 44.5c0 17.333 5.5 31.333 16.5 42s25.833 16 44.5 16s33.167 -5.16699 43.5 -15.5s15.5 -24.5 15.5 -42.5c0 -19.333 -5.16699 -34.333 -15.5 -45s-24.833 -16 -43.5 -16s-33.5 5.5 -44.5 16.5z" />
    <glyph glyph-name="semicolon" unicode=";" horiz-adv-x="232" 
d="M164.5 82c13 -16 19.498 -40.335 19.498 -73.002c0 -35.333 -8.5 -69.166 -25.5 -101.499s-41.833 -64.5 -74.5 -96.5c-0.666992 -0.666992 -1.66699 -1 -3 -1c-2 0 -3.5 0.833008 -4.5 2.5s-1.16699 3.5 -0.5 5.5c18 22 30.5 43.833 37.5 65.5s10.5 45.834 10.5 72.501
c0 18.667 -1.66699 32.5 -5 41.5s-8.66602 16.5 -15.999 22.5l37 7c0.666992 -11.333 -2.66602 -20 -9.99902 -26s-17.333 -9 -30 -9c-17.333 0 -30.833 5 -40.5 15s-14.5 23.667 -14.5 41c0 18 5.83301 32.167 17.5 42.5s27.5 15.5 47.5 15.5c23.333 0 41.5 -8 54.5 -24z
M62.498 286.498c-11 11 -16.5 25.833 -16.5 44.5c0 17.333 5.5 31.333 16.5 42s25.833 16 44.5 16s33.167 -5.16699 43.5 -15.5s15.5 -24.5 15.5 -42.5c0 -19.333 -5.16699 -34.333 -15.5 -45s-24.833 -16 -43.5 -16s-33.5 5.5 -44.5 16.5z" />
    <glyph glyph-name="less" unicode="&#x3c;" horiz-adv-x="407" 
d="M31 190c0 10 1.66699 15.667 5 17l334 147c2 1.33301 3.66699 0 5 -4s2 -9.33301 2 -16c0 -16 -2.33301 -25.333 -7 -28l-316 -135v38l316 -135c4.66699 -2 7 -11.333 7 -28c0 -16 -2.33301 -23 -7 -21l-334 148c-3.33301 2 -5 7.66699 -5 17z" />
    <glyph glyph-name="equal" unicode="=" horiz-adv-x="468" 
d="M30.5 104c-1 5.33301 -1.5 11 -1.5 17c0 5.33301 0.5 10.333 1.5 15s1.83301 7 2.5 7h401c1.33301 0 2.5 -2.5 3.5 -7.5s1.5 -10.167 1.5 -15.5c0 -6 -0.5 -11.5 -1.5 -16.5s-2.16699 -7.5 -3.5 -7.5h-400c-1.33301 0 -2.5 2.66699 -3.5 8zM30.5 244
c-1 5.33301 -1.5 11 -1.5 17c0 5.33301 0.5 10.333 1.5 15s1.83301 7 2.5 7h401c1.33301 0 2.5 -2.5 3.5 -7.5s1.5 -10.167 1.5 -15.5c0 -6 -0.5 -11.5 -1.5 -16.5s-2.16699 -7.5 -3.5 -7.5h-400c-1.33301 0 -2.5 2.66699 -3.5 8z" />
    <glyph glyph-name="greater" unicode="&#x3e;" horiz-adv-x="407" 
d="M376 189c0 -9.33301 -1.66699 -15 -5 -17l-334 -147c-2 -0.666992 -3.66699 1 -5 5s-2 9 -2 15s0.666992 12 2 18s3 9.33301 5 10l316 135v-38l-316 135c-2 1.33301 -3.66699 4.83301 -5 10.5s-2 11.5 -2 17.5c0 6.66699 0.666992 12.167 2 16.5s3 5.83301 5 4.5
l334 -148c3.33301 -1.33301 5 -7 5 -17z" />
    <glyph glyph-name="question" unicode="?" horiz-adv-x="339" 
d="M145 595c-4 -7.33301 -6.66797 -17.3301 -8.00098 -29.9971c-1.33301 -18.667 -5.83301 -34.834 -13.5 -48.501s-22.167 -20.5 -43.5 -20.5c-17.333 0 -30 4.66699 -38 14s-12 20.333 -12 33c0 23.333 12.833 42.833 38.5 58.5s57.834 23.5 96.501 23.5
c43.333 0 79.833 -10.333 109.5 -31s44.5 -50 44.5 -88c0 -25.333 -6.33301 -46.166 -19 -62.499s-31.334 -34.5 -56.001 -54.5l-22 -18c-20.667 -18 -35.667 -36.833 -45 -56.5s-14 -41.834 -14 -66.501c0 -10 1.66699 -27.667 5 -53c1.33301 -2 -0.666992 -3.66699 -6 -5
s-8.66602 -1 -9.99902 1c-8 18 -14.333 38.667 -19 62s-7 43 -7 59c0 20 3.16699 36.5 9.5 49.5s15.833 27.5 28.5 43.5c14 17.333 24.833 34.166 32.5 50.499s11.5 37.5 11.5 63.5c0 25.333 -3.83301 46.166 -11.5 62.499s-18.167 24.5 -31.5 24.5
c-9.33301 0 -16 -3.66699 -20 -11zM108.499 5.50293c-11 11 -16.5 25.833 -16.5 44.5c0 17.333 5.5 31.333 16.5 42s25.833 16 44.5 16s33.167 -5.16699 43.5 -15.5s15.5 -24.5 15.5 -42.5c0 -19.333 -5.16699 -34.333 -15.5 -45s-24.833 -16 -43.5 -16
s-33.5 5.5 -44.5 16.5z" />
    <glyph glyph-name="at" unicode="@" horiz-adv-x="729" 
d="M426 234l34.001 13.0029c-23.333 -55.333 -53.666 -101.333 -90.999 -138s-72.666 -55 -105.999 -55c-16.667 0 -30.5 5.33301 -41.5 16s-16.5 27.667 -16.5 51c0 4 0.666992 11.333 2 22c5.33301 36 19.5 70.667 42.5 104s50 60.5 81 81.5s60.167 31.5 87.5 31.5
c14.667 0 27.667 -4.16699 39 -12.5s17.666 -20.5 18.999 -36.5l-29 19c10.667 1.33301 21.834 5.5 33.501 12.5s18.834 15.167 21.501 24.5c1.33301 1.33301 3.33301 2 6 2s5 -0.333008 7 -1s3.33301 -1.33398 4 -2.00098l-41 -224c-1.33301 -5.33301 -2 -13 -2 -23
c0 -24.667 12.333 -37 37 -37c16 0 32.333 5.83301 49 17.5s30.667 29.167 42 52.5s17 51.333 17 84c0 44.667 -10.833 85.667 -32.5 123s-51.334 66.833 -89.001 88.5s-80.167 32.5 -127.5 32.5c-50.667 0 -94.5 -12.5 -131.5 -37.5s-65.333 -58.833 -85 -101.5
s-29.5 -89.334 -29.5 -140.001c0 -54.667 11.333 -102.5 34 -143.5s54.667 -72.667 96 -95s89.666 -33.5 144.999 -33.5c31.333 0 60.166 3.66699 86.499 11s53.166 20.666 80.499 39.999h1c2 0 3.83301 -1.16699 5.5 -3.5s1.5 -3.83301 -0.5 -4.5
c-34.667 -29.333 -69 -49.666 -103 -60.999s-69.333 -17 -106 -17c-56 0 -106.833 11.167 -152.5 33.5s-81.834 54.666 -108.501 96.999s-40 92.5 -40 150.5c0 63.333 15.833 120 47.5 170s73.834 88.833 126.501 116.5s109 41.5 169 41.5
c53.333 0 100.333 -10.833 141 -32.5s72.167 -50.334 94.5 -86.001s33.5 -74.5 33.5 -116.5c0 -38.667 -9.33301 -74.167 -28 -106.5s-44 -58 -76 -77s-67 -28.5 -105 -28.5c-43.333 0 -65 19.667 -65 59c0 10.667 1.33301 21.334 4 32.001zM356.501 141.503
c16.333 15.667 31.499 35.832 45.499 60.499s23.333 49 28 73c1.33301 9.33301 2 16 2 20c0 12.667 -2.16699 22.834 -6.5 30.501s-10.5 11.5 -18.5 11.5c-23.333 0 -45.666 -14.333 -66.999 -43s-36 -62 -44 -100c-3.33301 -14.667 -5 -27.667 -5 -39
c0 -10.667 1.83301 -19.5 5.5 -26.5s9.16699 -10.5 16.5 -10.5c12.667 0 27.167 7.83301 43.5 23.5z" />
    <glyph glyph-name="A" unicode="A" horiz-adv-x="716" 
d="M186 257h288l7 -28h-310zM722 6c0 -4 -1.66797 -6.00195 -5.00098 -6.00195c-13.333 0 -34 0.666992 -62 2c-29.333 1.33301 -50.333 2 -63 2c-16.667 0 -37 -0.666992 -61 -2c-22.667 -1.33301 -40.667 -2 -54 -2c-2.66699 0 -4 2 -4 6s1.33301 6 4 6
c17.333 0 29.833 1.83301 37.5 5.5s11.5 10.167 11.5 19.5c0 11.333 -6.66699 30.333 -20 57l-203 401l49 86l-199 -439c-8.66699 -19.333 -13 -37.333 -13 -54c0 -24 8.5 -42.667 25.5 -56s39.833 -20 68.5 -20c3.33301 0 5 -2 5 -6s-1.66699 -6 -5 -6
c-12 0 -29.333 0.666992 -52 2c-25.333 1.33301 -47.333 2 -66 2c-18 0 -39.667 -0.666992 -65 -2c-22.667 -1.33301 -41 -2 -55 -2c-2.66699 0 -4 2 -4 6s1.33301 6 4 6c18.667 0 34.334 3.83301 47.001 11.5s25.334 21.334 38.001 41.001s27.667 48.834 45 87.501l217 477
c1.33301 2 4.33301 3 9 3c5.33301 0 8.33301 -1 9 -3l250 -492c23.333 -47.333 42.666 -80 57.999 -98s31.333 -27 48 -27c3.33301 0 5 -2 5 -6z" />
    <glyph glyph-name="B" unicode="B" horiz-adv-x="595" 
d="M435.5 331c34.333 -14.667 60.833 -35.002 79.5 -61.002s28 -55.667 28 -89c0 -34.667 -10 -66 -30 -94s-47.667 -50.167 -83 -66.5s-74.666 -24.5 -117.999 -24.5c-18.667 0 -40 1 -64 3c-9.33301 0.666992 -20.833 1.33398 -34.5 2.00098s-28.834 1 -45.501 1l-73 -1
c-13.333 -0.666992 -31.333 -1 -54 -1c-2 0 -3 2 -3 6s1 6 3 6c19.333 0 34 1.83301 44 5.5s17.167 10.334 21.5 20.001s6.5 24.167 6.5 43.5v463c0 28 -4.66699 46.5 -14 55.5s-28.333 13.5 -57 13.5c-1.33301 0 -2 2 -2 6s0.666992 6 2 6l53 -1
c30.667 -1.33301 55 -2 73 -2c18.667 0 38 1 58 3c6.66699 0.666992 16.667 1.33398 30 2.00098s25 1 35 1c60.667 0 107.667 -11 141 -33s50 -54 50 -96c0 -38.667 -15.167 -72.834 -45.5 -102.501s-73.833 -50.167 -130.5 -61.5l11 18c44.667 0 84.167 -7.33301 118.5 -22
zM236 592.498c-7.33301 -9 -11.002 -25.833 -11.002 -50.5v-196l-37 7c29.333 -1.33301 55 -2 77 -2c34.667 0 61.334 13 80.001 39s28 59.333 28 100c0 38 -8.33301 66.833 -25 86.5s-40.667 29.5 -72 29.5c-19.333 0 -32.666 -4.5 -39.999 -13.5zM425.998 156.998
c0 51.333 -12.333 92 -37 122s-62 45 -112 45c-32.667 0 -61 -2 -85 -6l33 12v-249c0 -22 4.33301 -37.5 13 -46.5s27.667 -13.5 57 -13.5c87.333 0 131 45.333 131 136z" />
    <glyph glyph-name="C" unicode="C" horiz-adv-x="681" 
d="M522.5 628.5c32.333 -5 58.165 -11.502 77.498 -19.502c6 -2 9.83301 -4.5 11.5 -7.5s2.83398 -8.16699 3.50098 -15.5l13 -139c0 -2 -1.66699 -3.33301 -5 -4s-5.66602 0.333008 -6.99902 3c-18.667 54.667 -45.334 96.5 -80.001 125.5s-76.334 43.5 -125.001 43.5
c-45.333 0 -85.833 -12.167 -121.5 -36.5s-63.667 -59.166 -84 -104.499s-30.5 -98.333 -30.5 -159c0 -61.333 10.5 -115.166 31.5 -161.499s50 -82 87 -107s79.5 -37.5 127.5 -37.5c46 0 84.667 12.5 116 37.5s61 66.167 89 123.5c0.666992 2 2.66699 2.66699 6 2
s5 -2 5 -4l-15 -124c-1.33301 -8 -2.66602 -13.167 -3.99902 -15.5s-5 -4.83301 -11 -7.5c-61.333 -22 -123.333 -33 -186 -33c-71.333 0 -135.166 13.5 -191.499 40.5s-100.5 64.833 -132.5 113.5s-48 104 -48 166c0 63.333 16.5 119.833 49.5 169.5s78.333 88.5 136 116.5
s121.834 42 192.501 42c31.333 0 63.166 -2.5 95.499 -7.5z" />
    <glyph glyph-name="D" unicode="D" horiz-adv-x="705" 
d="M250 -1c-10.667 0.666992 -23.8311 1.33398 -39.498 2.00098s-33.167 1 -52.5 1l-74 -1c-13.333 -0.666992 -31.333 -1 -54 -1c-1.33301 0 -2 2 -2 6s0.666992 6 2 6c21.333 0 37 1.66699 47 5s16.833 9.83301 20.5 19.5s5.5 24.5 5.5 44.5v463
c0 20 -1.83301 34.667 -5.5 44s-10.334 15.833 -20.001 19.5s-24.834 5.5 -45.501 5.5c-2 0 -3 2 -3 6s1 6 3 6l53 -1c30.667 -1.33301 55 -2 73 -2c27.333 0 55.333 1 84 3c34.667 1.33301 58 2 70 2c67.333 0 127.166 -13.333 179.499 -40s92.833 -63 121.5 -109
s43 -97.667 43 -155c0 -64.667 -14.833 -121.834 -44.5 -171.501s-69.667 -88 -120 -115s-105.5 -40.5 -165.5 -40.5c-21.333 0 -46.666 1 -75.999 3zM429.003 51.5c32.667 21.667 58.165 53.833 76.498 96.5s27.5 93.667 27.5 153c0 56.667 -8.66699 108.167 -26 154.5
s-42 82.833 -74 109.5s-69 40 -111 40c-41.333 0 -69.666 -4 -84.999 -12s-23 -25 -23 -51v-450c0 -26.667 7 -45.5 21 -56.5s41 -16.5 81 -16.5c42.667 0 80.334 10.833 113.001 32.5z" />
    <glyph glyph-name="E" unicode="E" horiz-adv-x="552" 
d="M38 6c0 4 1 5.99707 3 5.99707c21.333 0 36.833 1.66699 46.5 5s16.167 9.83301 19.5 19.5s5 24.5 5 44.5v463c0 20 -1.66699 34.667 -5 44s-10 15.833 -20 19.5s-25.333 5.5 -46 5.5c-2 0 -3 2 -3 6s1 6 3 6h424c6.66699 0 10 -3 10 -9l2 -133
c0 -1.33301 -1.83301 -2.33301 -5.5 -3s-5.83398 0 -6.50098 2c-10.667 38.667 -28.667 67.334 -54 86.001s-58.666 28 -99.999 28h-30c-20 0 -34.667 -4.33301 -44 -13s-14 -22 -14 -40v-458c0 -19.333 3.66699 -33.666 11 -42.999s19 -14 35 -14h33
c52 0 93.667 10.667 125 32s54.333 54.333 69 99c0 1.33301 1.33301 2 4 2c2 0 3.83301 -0.5 5.5 -1.5s2.5 -1.83301 2.5 -2.5c-6.66699 -52 -10 -99.333 -10 -142c0 -5.33301 -1 -9.16602 -3 -11.499s-6 -3.5 -12 -3.5h-442c-2 0 -3 2 -3 6zM395.5 287.497
c-21 15.667 -51.168 23.5 -90.501 23.5h-135v28h136c38.667 0 68.334 6.66699 89.001 20s31 32 31 56c0 2 1.83301 3 5.5 3s5.5 -1 5.5 -3l-1 -90l1 -48c1.33301 -22.667 2 -40.667 2 -54c0 -1.33301 -2 -2 -6 -2s-6 0.666992 -6 2c0 27.333 -10.5 48.833 -31.5 64.5z" />
    <glyph glyph-name="F" unicode="F" horiz-adv-x="522" 
d="M31 6c0 4 0.99707 5.99902 2.99707 5.99902c23.333 0 40.333 1.66699 51 5s17.834 9.83301 21.501 19.5s5.5 24.5 5.5 44.5v463c0 20 -1.66699 34.667 -5 44s-10 15.833 -20 19.5s-25.333 5.5 -46 5.5c-2 0 -3 2 -3 6s1 6 3 6h424c6.66699 0 10 -3 10 -9l2 -133
c0 -1.33301 -1.83301 -2.33301 -5.5 -3s-5.83398 0 -6.50098 2c-10.667 38.667 -28.667 67.334 -54 86.001s-58.666 28 -99.999 28h-30c-20 0 -34.667 -4.33301 -44 -13s-14 -22 -14 -40v-458c0 -20.667 2.66699 -36 8 -46s15.333 -17 30 -21s37.667 -6 69 -6
c1.33301 0 2 -2 2 -6s-0.666992 -6 -2 -6c-27.333 -0 -48.666 0.333008 -63.999 1l-102 1l-75 -1c-13.333 -0.666992 -31.666 -1 -54.999 -1c-2 0 -3 2 -3 6zM383.497 275.499c-21 15.667 -50.833 23.499 -89.5 23.499h-124v28h125c38.667 0 68.167 6.83301 88.5 20.5
s30.5 32.5 30.5 56.5c0 1.33301 2 2 6 2s6 -0.666992 6 -2l-1 -91c0 -21.333 0.333008 -37.333 1 -48l1 -53c0 -2 -2 -3 -6 -3s-6 1 -6 3c0 26.667 -10.5 47.834 -31.5 63.501z" />
    <glyph glyph-name="G" unicode="G" horiz-adv-x="731" 
d="M223 30.5c-56 28.333 -99.0029 66.8281 -129.003 115.495s-45 102.667 -45 162c0 63.333 16.833 120 50.5 170s80.167 88.833 139.5 116.5s126 41.5 200 41.5c32 0 64 -2.5 96 -7.5s57.667 -11.5 77 -19.5c7.33301 -2.66699 11.5 -4.83398 12.5 -6.50098
s1.83301 -7.16699 2.5 -16.5l13 -139c0 -2 -1.83301 -3.33301 -5.5 -4s-5.83398 0.333008 -6.50098 3c-8.66699 22 -22.667 46 -42 72s-44.666 48.667 -75.999 68s-67.666 29 -108.999 29c-42.667 0 -81.667 -11.667 -117 -35s-63.166 -56.666 -83.499 -99.999
s-30.5 -93.666 -30.5 -150.999c0 -62.667 11.833 -118.667 35.5 -168s56.5 -87.666 98.5 -114.999s89.333 -41 142 -41c27.333 0 48.333 3 63 9s25.334 17.667 32.001 35s10 43 10 77c0 34.667 -2 58.834 -6 72.501s-12.5 22.834 -25.5 27.501s-35.833 7 -68.5 7
c-4 0 -6 2.66699 -6 8c0 2 0.5 3.83301 1.5 5.5s2.16699 2.5 3.5 2.5c56.667 -3.33301 102.667 -5 138 -5c34 0 69.333 1 106 3c2.66699 0 4.16699 -2.33301 4.5 -7s-1.16699 -7 -4.5 -7c-12 0.666992 -20.5 -1.5 -25.5 -6.5s-8.16699 -15.167 -9.5 -30.5s-2 -42 -2 -80
c0 -30 1.16699 -51.333 3.5 -64s3.5 -20.667 3.5 -24c0 -4 -0.666992 -6.66699 -2 -8s-4.33301 -2.66602 -9 -3.99902c-86 -18.667 -163.333 -28 -232 -28c-76 0 -142 14.167 -198 42.5z" />
    <glyph glyph-name="H" unicode="H" horiz-adv-x="764" 
d="M537 586.5c-4 9.66699 -11.668 16.501 -23.001 20.501s-29.333 6 -54 6c-2 0 -3 2 -3 6s1 6 3 6l49 -1c33.333 -1.33301 63.333 -2 90 -2c18 0 43.667 0.666992 77 2l56 1c2 0 3 -2 3 -6s-1 -6 -3 -6c-22.667 0 -39.5 -1.83301 -50.5 -5.5s-18.333 -10.167 -22 -19.5
s-5.5 -24 -5.5 -44v-463c0 -20 1.83301 -34.833 5.5 -44.5s10.834 -16.167 21.501 -19.5s27.667 -5 51 -5c2 0 3 -2 3 -6s-1 -6 -3 -6c-23.333 0 -42 0.333008 -56 1l-77 1l-90 -1c-12 -0.666992 -28.333 -1 -49 -1c-2 0 -3 2 -3 6s1 6 3 6c24.667 0 42.667 1.66699 54 5
s19 9.66602 23 18.999s6 24.333 6 45v461c0 20 -2 34.833 -6 44.5zM160.999 339.001h433v-28h-433v28zM102.999 588.001c-4 9.33301 -11.1689 15.833 -21.502 19.5s-26.833 5.5 -49.5 5.5c-2 0 -3 2 -3 6s1 6 3 6l54 -1c30.667 -1.33301 55.334 -2 74.001 -2
c25.333 0 54.666 0.666992 87.999 2l55 1c1.33301 0 2 -2 2 -6s-0.666992 -6 -2 -6c-24 0 -41.667 -2 -53 -6s-19.166 -10.833 -23.499 -20.5s-6.5 -24.5 -6.5 -44.5v-461c0 -20 2 -34.833 6 -44.5s11.667 -16.167 23 -19.5s29.333 -5 54 -5c1.33301 0 2 -2 2 -6
s-0.666992 -6 -2 -6c-23.333 0 -42 0.333008 -56 1l-87 1l-75 -1c-13.333 -0.666992 -31.666 -1 -54.999 -1c-1.33301 0 -2 2 -2 6s0.666992 6 2 6c23.333 0 40.333 1.66699 51 5s18 9.83301 22 19.5s6 24.5 6 44.5v463c0 20 -2 34.667 -6 44z" />
    <glyph glyph-name="I" unicode="I" horiz-adv-x="342" 
d="M232 36c3.33301 -9.33301 9.83105 -15.667 19.498 -19s25.167 -5 46.5 -5c2 0 3 -2 3 -6s-1 -6 -3 -6c-22 -0 -39.333 0.333008 -52 1l-76 1l-74 -1c-13.333 -0.666992 -31.333 -1 -54 -1c-1.33301 0 -2 2 -2 6s0.666992 6 2 6c21.333 0 37 1.66699 47 5
s16.833 9.83301 20.5 19.5s5.5 24.5 5.5 44.5v463c0 20 -1.83301 34.667 -5.5 44s-10.5 15.833 -20.5 19.5s-25.667 5.5 -47 5.5c-1.33301 0 -2 2 -2 6s0.666992 6 2 6l54 -1c30.667 -1.33301 55.334 -2 74.001 -2c20.667 0 46.334 0.666992 77.001 2l51 1c2 0 3 -2 3 -6
s-1 -6 -3 -6c-20.667 0 -36 -2 -46 -6s-16.667 -10.833 -20 -20.5s-5 -24.5 -5 -44.5v-461c0 -20.667 1.66699 -35.667 5 -45z" />
    <glyph glyph-name="J" unicode="J" horiz-adv-x="339" 
d="M301 619c0 -4 -1.00195 -6 -3.00195 -6c-17.333 0 -30.166 -2 -38.499 -6s-13.833 -10.833 -16.5 -20.5s-4 -24.5 -4 -44.5v-546c0 -74.667 -18.5 -133 -55.5 -175s-88.5 -63 -154.5 -63c-25.333 0 -46 5.33301 -62 16s-24 25.334 -24 44.001
c0 13.333 4.33301 25.166 13 35.499s21.667 15.5 39 15.5c16.667 0 29.5 -5 38.5 -15s17.167 -24 24.5 -42c4 -10.667 8 -18.834 12 -24.501s9 -8.5 15 -8.5c14 0 24.333 11.333 31 34s10 60.334 10 113.001v618c0 20 -2.16699 34.667 -6.5 44s-12.166 15.833 -23.499 19.5
s-29.333 5.5 -54 5.5c-1.33301 0 -2 2 -2 6s0.666992 6 2 6l62 -1c32 -1.33301 57.667 -2 77 -2c18.667 0 42 0.666992 70 2l47 1c2 0 3 -2 3 -6z" />
    <glyph glyph-name="K" unicode="K" horiz-adv-x="655" 
d="M97.5 588c-3.66699 9.33301 -10.3301 15.832 -19.9971 19.499s-24.834 5.5 -45.501 5.5c-2 0 -3 2 -3 6s1 6 3 6l53 -1c30.667 -1.33301 55 -2 73 -2c20 0 45.333 0.666992 76 2l51 1c2 0 3 -2 3 -6s-1 -6 -3 -6c-20.667 0 -35.834 -2 -45.501 -6
s-16.334 -10.833 -20.001 -20.5s-5.5 -24.5 -5.5 -44.5v-461c0 -20.667 1.66699 -35.667 5 -45s9.83301 -15.666 19.5 -18.999s25.167 -5 46.5 -5c2.66699 0 4 -2 4 -6s-1.33301 -6 -4 -6c-22 -0 -39.333 0.333008 -52 1l-75 1l-74 -1c-13.333 -0.666992 -31.333 -1 -54 -1
c-1.33301 0 -2 2 -2 6s0.666992 6 2 6c21.333 0 37 1.66699 47 5s16.833 9.83301 20.5 19.5s5.5 24.5 5.5 44.5v463c0 20 -1.83301 34.667 -5.5 44zM230.004 329.999l80.001 77l153 -206c43.333 -62 75.833 -105.833 97.5 -131.5s39.167 -41.667 52.5 -48
s30.333 -9.5 51 -9.5c2 0 3 -2 3 -6s-1 -6 -3 -6h-112c-10.667 0 -19.667 -0.333008 -27 -1s-13.333 -1 -18 -1c-10.667 0 -19.834 2.5 -27.501 7.5s-17 14.167 -28 27.5s-30.5 39 -58.5 77l-11.5 15.5l-14.5 19.5zM431.005 574.999c0 12 -5.33008 21.333 -15.9971 28
s-25.667 10 -45 10c-2 0 -3 2 -3 6s1 6 3 6l47 -1c29.333 -1.33301 56.666 -2 81.999 -2c27.333 0 55.666 0.666992 84.999 2l45 1c2 0 3 -2 3 -6s-1 -6 -3 -6c-30.667 0 -64.334 -8.83301 -101.001 -26.5s-70 -41.167 -100 -70.5l-257 -261l-27 3l258 264
c19.333 19.333 29 37 29 53z" />
    <glyph glyph-name="L" unicode="L" horiz-adv-x="545" 
d="M217 47.5c2.66699 -7.66699 7.83105 -12.833 15.498 -15.5s20.167 -4 37.5 -4h34c52 0 97 13.833 135 41.5s63.333 65.167 76 112.5c0 1.33301 1.33301 2 4 2c1.33301 0 2.83301 -0.5 4.5 -1.5s2.5 -1.83301 2.5 -2.5c-6 -66 -9 -121 -9 -165
c0 -5.33301 -1.16699 -9.16602 -3.5 -11.499s-6.16602 -3.5 -11.499 -3.5h-472c-1.33301 0 -2 2 -2 6s0.666992 6 2 6c21.333 0 36.833 1.66699 46.5 5s16.334 9.83301 20.001 19.5s5.5 24.5 5.5 44.5v463c0 20 -1.83301 34.667 -5.5 44s-10.5 15.833 -20.5 19.5
s-25.333 5.5 -46 5.5c-1.33301 0 -2 2 -2 6s0.666992 6 2 6l51 -1c30.667 -1.33301 56 -2 76 -2s45.333 0.666992 76 2l51 1c2 0 3 -2 3 -6s-1 -6 -3 -6c-20.667 0 -36 -1.83301 -46 -5.5s-16.667 -10.334 -20 -20.001s-5 -24.5 -5 -44.5v-458
c0 -17.333 1.33301 -29.833 4 -37.5z" />
    <glyph glyph-name="M" unicode="M" horiz-adv-x="857" 
d="M127 602l29 -2l-11 -473c-0.666992 -36 6.5 -64.167 21.5 -84.5s36.167 -30.5 63.5 -30.5c2 0 3 -2 3 -6s-1 -6 -3 -6c-18 -0 -32 0.333008 -42 1l-55 1l-63 -1c-10.667 -0.666992 -25 -1 -43 -1c-2 0 -3 2 -3 6s1 6 3 6c27.333 0 49 10.333 65 31s24.333 48.667 25 84z
M835 6c0 -4 -0.667969 -6 -2.00098 -6c-22.667 -0 -40.667 0.333008 -54 1l-74 1l-75 -1c-12.667 -0.666992 -30 -1 -52 -1c-2 0 -3 2 -3 6s1 6 3 6c21.333 0 37.166 1.83301 47.499 5.5s17.166 10.167 20.499 19.5s4.33301 24 3 44l-23 444l51 80l-255 -598
c-1.33301 -2.66699 -4 -4 -8 -4s-6.66699 1.33301 -8 4l-281 535c-13.333 24.667 -27.166 42.667 -41.499 54s-30.833 17 -49.5 17c-2 0 -3 2 -3 6s1 6 3 6l47 -1c9.33301 -0.666992 21.333 -1 36 -1l53 1c6 0.666992 13.667 1 23 1c8.66699 0 15.334 -3 20.001 -9
s13.334 -20.333 26.001 -43l224 -420l-50 -90l234 537c4 9.33301 8.16699 15.833 12.5 19.5s10.166 5.5 17.499 5.5c6 0 12.833 -0.333008 20.5 -1s16.5 -1 26.5 -1l59 1c9.33301 0.666992 22.666 1 39.999 1c2 0 3 -2 3 -6s-1 -6 -3 -6c-31.333 0 -54 -6.33301 -68 -19
s-20.333 -32.334 -19 -59.001l24 -454c1.33301 -20.667 3.83301 -35.667 7.5 -45s10.334 -15.666 20.001 -18.999s24.834 -5 45.501 -5c1.33301 0 2 -2 2 -6z" />
    <glyph glyph-name="N" unicode="N" horiz-adv-x="735" 
d="M127 602l29.999 -2v-473c0 -35.333 7.33301 -63.333 22 -84s35 -31 61 -31c1.33301 0 2 -2 2 -6s-0.666992 -6 -2 -6c-18.667 -0 -33 0.333008 -43 1l-54 1l-62 -1c-11.333 -0.666992 -27.666 -1 -48.999 -1c-2 0 -3 2 -3 6s1 6 3 6c29.333 0 52.5 10.333 69.5 31
s25.5 48.667 25.5 84v475zM632.499 -19c-3 -0.666992 -5.16797 -0.333008 -6.50098 1l-493 561c-23.333 26.667 -43.333 45 -60 55s-33.667 15 -51 15c-1.33301 0 -2 2 -2 6s0.666992 6 2 6l42 -1c8.66699 -0.666992 21.334 -1 38.001 -1l76 1
c9.33301 0.666992 20.666 1 33.999 1c5.33301 0 9.33301 -1.33301 12 -4s7.33398 -8.33398 14.001 -17.001c11.333 -15.333 19.333 -25.666 24 -30.999l367 -423l8 -165c0 -2 -1.5 -3.33301 -4.5 -4zM636.998 -14.999l-29 30v482c0 36 -7.33301 64.333 -22 85s-35 31 -61 31
c-1.33301 0 -2 2 -2 6s0.666992 6 2 6l43 -1c21.333 -1.33301 39.333 -2 54 -2c13.333 0 32 0.666992 56 2l45 1c1.33301 0 2 -2 2 -6s-0.666992 -6 -2 -6c-26.667 0 -47.667 -10.5 -63 -31.5s-23 -49.167 -23 -84.5v-512z" />
    <glyph glyph-name="O" unicode="O" horiz-adv-x="766" 
d="M200.5 31.5c-48.333 29 -85.666 68.335 -111.999 118.002s-39.5 103.834 -39.5 162.501c0 68.667 17.333 127.5 52 176.5s79.167 85.833 133.5 110.5s109.833 37 166.5 37c63.333 0 119 -14.833 167 -44.5s84.833 -68.834 110.5 -117.501s38.5 -100.334 38.5 -155.001
c0 -60.667 -16 -116.334 -48 -167.001s-74.833 -90.667 -128.5 -120s-111.834 -44 -174.501 -44c-62 0 -117.167 14.5 -165.5 43.5zM499.5 45.502c29.667 21.667 52.834 53.335 69.501 95.002s25 91.5 25 149.5c0 61.333 -9.33301 116.166 -28 164.499
s-45.667 86.166 -81 113.499s-76.666 41 -123.999 41c-60.667 0 -107.334 -22.833 -140.001 -68.5s-49 -109.5 -49 -191.5c0 -64.667 9.83301 -122.5 29.5 -173.5s46.667 -90.833 81 -119.5s73.166 -43 116.499 -43c37.333 0 70.833 10.833 100.5 32.5z" />
    <glyph glyph-name="P" unicode="P" horiz-adv-x="553" 
d="M223 38.5c4.66699 -9.66699 13.501 -16.5029 26.501 -20.5029s33.833 -6 62.5 -6c2 0 3 -2 3 -6s-1 -6 -3 -6c-27.333 0 -48.666 0.333008 -63.999 1l-87 1l-73 -1c-13.333 -0.666992 -31.333 -1 -54 -1c-2 0 -3 2 -3 6s1 6 3 6c21.333 0 36.833 1.66699 46.5 5
s16.167 9.83301 19.5 19.5s5 24.5 5 44.5v463c0 20 -1.66699 34.667 -5 44s-10 15.833 -20 19.5s-25.333 5.5 -46 5.5c-2 0 -3 2 -3 6s1 6 3 6l53 -1c30.667 -1.33301 55 -2 73 -2c16 0 35 1 57 3c8.66699 0.666992 19.667 1.33398 33 2.00098s28.666 1 45.999 1
c68 0 121.667 -14.167 161 -42.5s59 -72.166 59 -131.499c0 -41.333 -10.667 -76.333 -32 -105s-48.833 -50.334 -82.5 -65.001s-68.167 -22 -103.5 -22c-18 0 -33.667 1.66699 -47 5c-1.33301 0 -2 1.66699 -2 5c0 2 0.5 4 1.5 6s2.16699 2.66699 3.5 2
c10 -2.66699 21.333 -4 34 -4c30.667 0 56.167 14.333 76.5 43s30.5 69.334 30.5 122.001s-11.167 93.334 -33.5 122.001s-54.833 43 -97.5 43c-18.667 0 -31.334 -4.33301 -38.001 -13s-10 -25.667 -10 -51v-457c0 -21.333 2.33301 -36.833 7 -46.5z" />
    <glyph glyph-name="Q" unicode="Q" horiz-adv-x="766" 
d="M592 -127c41.333 -36 80.667 -54.001 118 -54.001c11.333 0 23 0.666992 35 2c2 0.666992 3.5 -0.666016 4.5 -3.99902s0.833008 -5.33301 -0.5 -6c-27.333 -8 -54.333 -12 -81 -12c-53.333 0 -108.333 17.833 -165 53.5s-104.667 85.5 -144 149.5l132 10
c26 -56.667 59.667 -103 101 -139zM200.501 31.499c-48.333 29 -85.666 68.335 -111.999 118.002s-39.5 103.834 -39.5 162.501c0 68.667 17.333 127.5 52 176.5s79.167 85.833 133.5 110.5s109.833 37 166.5 37c63.333 0 119 -14.833 167 -44.5
s84.833 -68.834 110.5 -117.501s38.5 -100.334 38.5 -155.001c0 -60.667 -16 -116.334 -48 -167.001s-74.833 -90.667 -128.5 -120s-111.834 -44 -174.501 -44c-62 0 -117.167 14.5 -165.5 43.5zM499.501 45.501c29.667 21.667 52.834 53.335 69.501 95.002
s25 91.5 25 149.5c0 61.333 -9.33301 116.166 -28 164.499s-45.667 86.166 -81 113.499s-76.666 41 -123.999 41c-60.667 0 -107.334 -22.833 -140.001 -68.5s-49 -109.5 -49 -191.5c0 -64.667 9.83301 -122.5 29.5 -173.5s46.667 -90.833 81 -119.5s73.166 -43 116.499 -43
c37.333 0 70.833 10.833 100.5 32.5z" />
    <glyph glyph-name="R" unicode="R" horiz-adv-x="698" 
d="M445 83.5c-41.333 55.667 -91.334 133.166 -150.001 232.499l92 28c55.333 -84 101.5 -149.667 138.5 -197s69.833 -81.666 98.5 -102.999s56.667 -32 84 -32c1.33301 0 2 -2 2 -6s-0.666992 -6 -2 -6h-178c-15.333 -0 -43.666 27.833 -84.999 83.5zM455.999 594.499
c33.333 -22.333 49.999 -53.502 49.999 -93.502c0 -38 -10.833 -72.333 -32.5 -103s-49.834 -54.5 -84.501 -71.5s-71 -25.5 -109 -25.5c-26 0 -44.333 0.333008 -55 1v-221c0 -20.667 1.66699 -35.667 5 -45s9.83301 -15.666 19.5 -18.999s25.167 -5 46.5 -5
c1.33301 0 2 -2 2 -6s-0.666992 -6 -2 -6c-22 0 -39.333 0.333008 -52 1l-76 1l-73 -1c-13.333 -0.666992 -31.333 -1 -54 -1c-2 0 -3 2 -3 6s1 6 3 6c21.333 0 36.833 1.66699 46.5 5s16.334 9.83301 20.001 19.5s5.5 24.5 5.5 44.5v463c0 20 -1.66699 34.667 -5 44
s-10 15.833 -20 19.5s-25.333 5.5 -46 5.5c-1.33301 0 -2 2 -2 6s0.666992 6 2 6l53 -1c30.667 -1.33301 55 -2 73 -2c22.667 0 46.334 1 71.001 3c8.66699 0.666992 19.5 1.33398 32.5 2.00098s27.5 1 43.5 1c60.667 0 107.667 -11.167 141 -33.5zM367.998 575.997
c-16 20.667 -39 30.999 -69 30.999c-26.667 0 -45.667 -5 -57 -15s-17 -26.667 -17 -50v-212c16 -2.66699 35.333 -4 58 -4c38.667 0 66.5 10.833 83.5 32.5s25.5 56.5 25.5 104.5c0 54.667 -8 92.334 -24 113.001z" />
    <glyph glyph-name="S" unicode="S" horiz-adv-x="515" 
d="M192.5 460c12.333 -18.667 27.502 -35 45.502 -49s42.333 -31 73 -51c33.333 -21.333 60 -40 80 -56s37 -35.5 51 -58.5s21 -49.5 21 -79.5c0 -34.667 -9.33301 -65.5 -28 -92.5s-44.5 -48 -77.5 -63s-69.833 -22.5 -110.5 -22.5c-29.333 0 -60.5 4.16699 -93.5 12.5
s-55.167 17.5 -66.5 27.5c-3.33301 2.66699 -5.83301 5.16699 -7.5 7.5s-2.5 6.16602 -2.5 11.499l-3 159v1c0 2.66699 1.66699 4.16699 5 4.5s5.33301 -0.833984 6 -3.50098c20 -40.667 37.5 -73.667 52.5 -99s34 -47.666 57 -66.999s49.167 -29 78.5 -29
c26.667 0 48.667 7.16699 66 21.5s26 38.833 26 73.5c0 29.333 -6.5 55 -19.5 77s-28.833 40.667 -47.5 56s-44.334 33.666 -77.001 54.999c-32 20.667 -56.833 38.334 -74.5 53.001s-32.834 32.334 -45.501 53.001s-19 45 -19 73c0 35.333 10.167 65.166 30.5 89.499
s46.5 42.333 78.5 54s65.667 17.5 101 17.5c23.333 0 47 -2.16699 71 -6.5s43.333 -9.5 58 -15.5c6 -2.66699 10 -5.5 12 -8.5s3 -6.83301 3 -11.5v-147c0 -2 -1.66699 -3.5 -5 -4.5s-5.33301 -0.5 -6 1.5l-8 19c-16.667 42 -36.167 77.667 -58.5 107s-53.5 44 -93.5 44
c-26.667 0 -48.5 -7.66699 -65.5 -23s-25.5 -37.666 -25.5 -66.999c0 -24 6.16699 -45.333 18.5 -64z" />
    <glyph glyph-name="T" unicode="T" horiz-adv-x="643" 
d="M51 447c-0.666992 -2 -2.66895 -2.83398 -6.00195 -2.50098s-5 1.5 -5 3.5c2.66699 26.667 5.66699 61.167 9 103.5s5 74.166 5 95.499c0 3.33301 1.83301 5 5.5 5s5.5 -1.66699 5.5 -5c0 -14.667 19 -22 57 -22c57.333 -2 124.333 -3 201 -3c39.333 0 81 0.666992 125 2
l68 1c25.333 0 43.833 1.66699 55.5 5s19.167 10 22.5 20c0.666992 2.66699 2.83398 4 6.50098 4s5.5 -1.33301 5.5 -4c-2 -20 -4.16699 -52 -6.5 -96s-3.5 -79.333 -3.5 -106c0 -2 -1.66699 -3 -5 -3s-5.33301 1 -6 3c-10 51.333 -28.667 89.833 -56 115.5
s-61 38.5 -101 38.5c-19.333 0 -32.166 -4.16699 -38.499 -12.5s-9.5 -24.166 -9.5 -47.499v-461c0 -20.667 2 -35.667 6 -45s11.667 -15.666 23 -18.999s29.333 -5 54 -5c2 0 3 -2 3 -6s-1 -6 -3 -6c-24 -0 -43 0.333008 -57 1l-83 1l-81 -1
c-14 -0.666992 -33.333 -1 -58 -1c-2 0 -3 2 -3 6s1 6 3 6c24 0 41.833 1.66699 53.5 5s19.667 9.83301 24 19.5s6.5 24.5 6.5 44.5v463c0 22.667 -3 38 -9 46s-18.333 12 -37 12c-79.333 0 -136.333 -51.667 -171 -155z" />
    <glyph glyph-name="U" unicode="U" horiz-adv-x="758" 
d="M542 586.5c-3.33301 9.66699 -9.83203 16.5 -19.499 20.5s-25.167 6 -46.5 6c-1.33301 0 -2 2 -2 6s0.666992 6 2 6l53 -1c29.333 -1.33301 52.666 -2 69.999 -2c19.333 0 43.666 0.666992 72.999 2l54 1c2 0 3 -2 3 -6s-1 -6 -3 -6c-20.667 0 -36 -1.83301 -46 -5.5
s-16.833 -10.167 -20.5 -19.5s-5.5 -24 -5.5 -44v-463c0 -20 1.83301 -34.833 5.5 -44.5s10.334 -16.167 20.001 -19.5s25.167 -5 46.5 -5c2 0 3 -2 3 -6s-1 -6 -3 -6l-89 1l-71 -1c-8 0 -13.167 1 -15.5 3s-3.5 7.33301 -3.5 16v523c0 20 -1.66699 34.833 -5 44.5z
M468.501 26.5c-43 -25.667 -90.834 -38.5 -143.501 -38.5c-43.333 0 -82.833 8.16699 -118.5 24.5s-63.834 39.5 -84.501 69.5s-31 64.667 -31 104v358c0 20 -1.66699 34.667 -5 44s-10 15.833 -20 19.5s-25.333 5.5 -46 5.5c-2 0 -3 2 -3 6s1 6 3 6l53 -1
c30.667 -1.33301 55 -2 73 -2c20 0 45.333 0.666992 76 2l52 1c1.33301 0 2 -2 2 -6s-0.666992 -6 -2 -6c-20.667 0 -36 -2 -46 -6s-16.833 -10.833 -20.5 -20.5s-5.5 -24.5 -5.5 -44.5v-321c0 -62 14.833 -109.667 44.5 -143s69.5 -50 119.5 -50
c38.667 0 75.334 10.5 110.001 31.5s73.334 54.833 116.001 101.5l14 -12c-48.667 -56 -94.5 -96.833 -137.5 -122.5z" />
    <glyph glyph-name="V" unicode="V" horiz-adv-x="660" 
d="M668 619c0 -4 -0.999023 -6.00098 -2.99902 -6.00098c-24 0 -47 -10.667 -69 -32s-39.667 -50 -53 -86l-185 -494c-0.666992 -2.66699 -4.33398 -4 -11.001 -4s-10.334 1.33301 -11.001 4l-255 541c-12 24 -24 41.833 -36 53.5s-25.333 17.5 -40 17.5c-2 0 -3 2 -3 6
s1 6 3 6c10 0 17 -0.333008 21 -1c13.333 -1.33301 30.666 -2 51.999 -2c57.333 0 106 0.666992 146 2c10.667 0.666992 24 1 40 1c2 0 3 -2 3 -6s-1 -6 -3 -6c-20 0 -35.5 -4.16699 -46.5 -12.5s-16.5 -20.166 -16.5 -35.499c0 -11.333 3.66699 -25 11 -41l182 -388
l-47 -82l168 444c6.66699 18.667 10 34.667 10 48c0 20.667 -6.16699 37 -18.5 49s-30.166 18 -53.499 18c-2 0 -3 2 -3 6s1 6 3 6l49 -1c28 -1.33301 53 -2 75 -2c12.667 0 28.334 0.666992 47.001 2l41 1c2 0 3 -2 3 -6z" />
    <glyph glyph-name="W" unicode="W" horiz-adv-x="904" 
d="M470 572l-181.998 -570.999c0 -2.66699 -3.66699 -4 -11 -4s-11.333 1.33301 -12 4l-184 541c-10 28.667 -20.333 47.667 -31 57s-25.667 14 -45 14c-2 0 -3 2 -3 6s1 6 3 6c10 0 17 -0.333008 21 -1c13.333 -1.33301 30.666 -2 51.999 -2c47.333 0 91 0.666992 131 2
c11.333 0.666992 24.666 1 39.999 1c2 0 3 -2 3 -6s-1 -6 -3 -6c-36 0 -54 -14.667 -54 -44c0 -12 3 -27 9 -45l122 -363l-50 -107l182 571c2 2 6 3 12 3c6.66699 0 10.334 -1 11.001 -3l200 -468l-45 -103l118 434c6 21.333 9 39.666 9 54.999c0 46.667 -26 70 -78 70
c-1.33301 0 -2 2 -2 6s0.666992 6 2 6l56 -1c33.333 -1.33301 60 -2 80 -2c13.333 0 28.666 0.666992 45.999 2l43 1c1.33301 0 2 -2 2 -6s-0.666992 -6 -2 -6c-25.333 0 -49.666 -10.5 -72.999 -31.5s-40 -49.833 -50 -86.5l-138 -494c0 -2.66699 -3.66699 -4 -11 -4
c-6.66699 0 -10.334 1.33301 -11.001 4l-202 476z" />
    <glyph glyph-name="X" unicode="X" horiz-adv-x="647" 
d="M401 6c0 4 1.00195 6 3.00195 6c22 0 33 5.66699 33 17c0 6 -3 13.333 -9 22l-311 482c-18 28.667 -35.333 49.167 -52 61.5s-34.334 18.5 -53.001 18.5c-2 0 -3 2 -3 6s1 6 3 6l43 -1c18.667 -1.33301 32.667 -2 42 -2c23.333 0 52.333 0.666992 87 2l57 1
c1.33301 0 2 -2 2 -6s-0.666992 -6 -2 -6c-22.667 0 -34 -5.66699 -34 -17c0 -5.33301 3 -13 9 -23l317 -490c16.667 -24.667 33.667 -42.667 51 -54s37.333 -17 60 -17c2 0 3 -2 3 -6s-1 -6 -3 -6c-19.333 -0 -34.333 0.333008 -45 1l-60 1l-82 -1
c-12.667 -0.666992 -30.334 -1 -53.001 -1c-2 0 -3 2 -3 6zM2.00195 6c0 4 1 6.00098 3 6.00098c20.667 0 46 11 76 33s61.333 55.667 94 101l123 166l18 -14l-111 -158c-26 -36.667 -39 -66.334 -39 -89.001c0 -26 17.333 -39 52 -39c1.33301 0 2 -2 2 -6
s-0.666992 -6 -2 -6c-22 -0 -38.667 0.333008 -50 1l-74 1l-47 -1c-8.66699 -0.666992 -22.667 -1 -42 -1c-2 0 -3 2 -3 6zM317.002 326.001l110.999 157.999c26 37.333 39 67.333 39 90c0 26 -17.333 39 -52 39c-1.33301 0 -2 2 -2 6s0.666992 6 2 6l50 -1
c26.667 -1.33301 51.334 -2 74.001 -2c14 0 29.667 0.666992 47 2l42 1c2 0 3 -2 3 -6s-1 -6 -3 -6c-21.333 0 -46.833 -11.167 -76.5 -33.5s-61.167 -56.166 -94.5 -101.499l-122 -166z" />
    <glyph glyph-name="Y" unicode="Y" horiz-adv-x="619" 
d="M468 564c0 16 -4.83301 28.168 -14.5 36.501s-23.5 12.5 -41.5 12.5c-2 0 -3 2 -3 6s1 6 3 6l53 -1c30.667 -1.33301 58 -2 82 -2c11.333 0 25 0.666992 41 2l37 1c1.33301 0 2 -2 2 -6s-0.666992 -6 -2 -6c-20.667 0 -46 -12.833 -76 -38.5s-56.667 -57.834 -80 -96.501
l-130 -217l-21 17l123 209c18 30 27 55.667 27 77zM46.5 590.501c-16.333 15 -30.168 22.501 -41.501 22.501c-2 0 -3 2 -3 6s1 6 3 6l31 -1c14.667 -1.33301 25 -2 31 -2c23.333 0 57 0.666992 101 2l66 1c1.33301 0 2 -2 2 -6s-0.666992 -6 -2 -6
c-11.333 0 -20.166 -2.66699 -26.499 -8s-9.5 -12.333 -9.5 -21c0 -10.667 4.66699 -23.334 14 -38.001l144 -227l-96 -45l-152 236c-24.667 38.667 -45.167 65.5 -61.5 80.5zM364.998 319.002v-238.001c0 -20.667 1.66699 -35.667 5 -45s9.83301 -15.666 19.5 -18.999
s25.167 -5 46.5 -5c2 0 3 -2 3 -6s-1 -6 -3 -6c-22 0 -39.333 0.333008 -52 1l-75 1l-74 -1c-13.333 -0.666992 -31.333 -1 -54 -1c-1.33301 0 -2 2 -2 6s0.666992 6 2 6c21.333 0 37 1.66699 47 5s16.833 9.83301 20.5 19.5s5.5 24.5 5.5 44.5v229z" />
    <glyph glyph-name="Z" unicode="Z" horiz-adv-x="605" 
d="M413.5 606.5c-0.333008 1 -2.83301 1.5 -7.5 1.5c-76 0 -133.833 -2.83301 -173.5 -8.5s-72.167 -17.667 -97.5 -36s-47.333 -46.833 -66 -85.5c-0.666992 -0.666992 -2 -1 -4 -1c-6 0 -8.66699 1.33301 -8 4l40 174c0 0.666992 1.33301 1 4 1
c6.66699 0 9.33398 -1 8.00098 -3c-0.666992 -2 -1 -4.66699 -1 -8c0 -8 3.83301 -13.333 11.5 -16s23.167 -4 46.5 -4h365c3.33301 0 5.83301 -1.66699 7.5 -5s1.5 -6 -0.5 -8l-346 -585c-2.66699 -3.33301 -3.66699 -5.5 -3 -6.5s3 -1.5 7 -1.5h202
c24 0 47.333 6.16699 70 18.5s42 28.833 58 49.5s26 42.667 30 66c0.666992 2 2.66699 3 6 3s5 -1 5 -3l-14 -145c0 -2 -0.833008 -4.16699 -2.5 -6.5s-3.83398 -3.5 -6.50098 -3.5c-99.333 1.33301 -259 2 -479 2c-2.66699 0 -4.66699 1.5 -6 4.5s-1 5.83301 1 8.5l351 587
c2 3.33301 2.83301 5.5 2.5 6.5z" />
    <glyph glyph-name="bracketleft" unicode="[" horiz-adv-x="274" 
d="M68.5 723.5c1 1 3.5 1.5 7.5 1.5h160c2 0 3 -2 3 -6s-1 -6 -3 -6c-20.667 0 -36 -2 -46 -6s-16.667 -10.833 -20 -20.5s-5 -24.5 -5 -44.5v-676c0 -20 1.66699 -34.833 5 -44.5s10 -16.5 20 -20.5s25.333 -6 46 -6c2 0 3 -2 3 -6s-1 -6 -3 -6h-160
c-4 0 -6.5 0.666992 -7.5 2s-1.5 4.33301 -1.5 9v821c0 4.66699 0.5 7.5 1.5 8.5z" />
    <glyph glyph-name="backslash" unicode="\" horiz-adv-x="351" 
d="M48 727.5c15.333 4.33301 23.668 5.16699 25.001 2.5l252 -882c0.666992 -2.66699 -6.83301 -6.16699 -22.5 -10.5s-24.167 -5.16602 -25.5 -2.49902l-251 881c-0.666992 3.33301 6.66602 7.16602 21.999 11.499z" />
    <glyph glyph-name="bracketright" unicode="]" horiz-adv-x="274" 
d="M205.5 -115c-1 -1.33301 -3.5 -2 -7.5 -2h-160c-2 0 -3 2 -3 6s1 6 3 6c20.667 0 36 2 46 6s16.667 10.833 20 20.5s5 24.5 5 44.5v676c0 20 -1.66699 34.833 -5 44.5s-10 16.5 -20 20.5s-25.333 6 -46 6c-2 0 -3 2 -3 6s1 6 3 6h160c4 0 6.5 -0.5 7.5 -1.5
s1.5 -3.83301 1.5 -8.5v-821c0 -4.66699 -0.5 -7.66699 -1.5 -9z" />
    <glyph glyph-name="asciicircum" unicode="^" horiz-adv-x="392" 
d="M333 379c0 -1.33301 -1.33398 -2.66602 -4.00098 -3.99902s-4.33398 -1.33301 -5.00098 0l-128 134l-128 -134c-0.666992 -0.666992 -1.66699 -1 -3 -1c-2 0 -3.83301 0.666992 -5.5 2s-2.16699 2.66602 -1.5 3.99902l127 249c0.666992 3.33301 4.33398 5 11.001 5
s10.334 -1.66699 11.001 -5l126 -249v-1z" />
    <glyph glyph-name="underscore" unicode="_" horiz-adv-x="398" 
d="M30.5 -73c-1 5.33301 -1.5 11.333 -1.5 18c0 6 0.333008 11.333 1 16s1.66699 7 3 7h331c1.33301 0 2.5 -2.66699 3.5 -8s1.5 -11 1.5 -17s-0.5 -11.5 -1.5 -16.5s-2.16699 -7.5 -3.5 -7.5h-330c-1.33301 0 -2.5 2.66699 -3.5 8z" />
    <glyph glyph-name="grave" unicode="`" horiz-adv-x="213" 
d="M37 731c14.667 0 32.332 -1.83203 52.999 -5.49902s31.334 -6.83398 32.001 -9.50098l32 -240c0 -1.33301 -1.5 -2.5 -4.5 -3.5s-4.83301 -0.5 -5.5 1.5l-121 253c-0.666992 2.66699 4 4 14 4z" />
    <glyph glyph-name="a" unicode="a" horiz-adv-x="490" 
d="M106.5 7.5c-23 13.667 -41.1689 33.833 -54.502 60.5s-20 58.667 -20 96c0 47.333 11 88.833 33 124.5s51 62.834 87 81.501s74.667 28 116 28c48.667 0 90.334 -15.333 125.001 -46l-73 -64c0 26 -7.16699 47.333 -21.5 64s-33.166 25 -56.499 25
c-33.333 0 -59.5 -16.667 -78.5 -50s-28.5 -76.333 -28.5 -129c0 -50 8.5 -88.833 25.5 -116.5s41.167 -41.5 72.5 -41.5s66 14.667 104 44l8 -7c-28 -28.667 -54.167 -50.834 -78.5 -66.501s-52.5 -23.5 -84.5 -23.5c-27.333 0 -52.5 6.83301 -75.5 20.5zM327.998 11.999
c-5.33301 17.333 -8.00293 40.667 -8.00293 70v277c22 5.33301 38.833 10.5 50.5 15.5s22.834 12.833 33.501 23.5c0.666992 0.666992 1.66699 1 3 1s2.83301 -0.5 4.5 -1.5s2.5 -2.16699 2.5 -3.5v-285c0 -20 2.16699 -34.167 6.5 -42.5s11.5 -12.5 21.5 -12.5
c8.66699 0 22.334 3.66699 41.001 11h2c2 0 3.83301 -1.66699 5.5 -5s1.5 -5.33301 -0.5 -6l-138 -67c-1.33301 -0.666992 -3 -1 -5 -1c-7.33301 0 -13.666 8.66699 -18.999 26z" />
    <glyph glyph-name="b" unicode="b" horiz-adv-x="516" 
d="M184 2.5c-27.333 10.333 -52 25.502 -74 45.502l64 117c0 -36.667 6.33301 -66.834 19 -90.501s28 -40.834 46 -51.501s35.667 -16 53 -16c28.667 0 50.667 14.667 66 44s23 70.333 23 123c0 58 -9.66699 101.167 -29 129.5s-46.333 42.5 -81 42.5
c-35.333 0 -72 -14.667 -110 -44l-9 8c27.333 28 53.333 49.833 78 65.5s54 23.5 88 23.5c30 0 57.667 -7 83 -21s45.5 -35 60.5 -63s22.5 -62 22.5 -102c0 -48 -10.167 -89 -30.5 -123s-47 -59.667 -80 -77s-68.167 -26 -105.5 -26c-28.667 0 -56.667 5.16699 -84 15.5z
M34 -6.99805c-2.66699 0 -4.33398 1.33301 -5.00098 4s0.333008 4.33398 3 5.00098c16 9.33301 28.167 22.166 36.5 38.499s12.5 37.166 12.5 62.499v486c0 23.333 -2.16699 40 -6.5 50s-12.166 15 -23.499 15c-8.66699 0 -21 -3.66699 -37 -11h-1
c-2.66699 0 -4.66699 1.83301 -6 5.5s-1.33301 5.83398 0 6.50098l146 69l5 1c3.33301 0 6.83301 -1.5 10.5 -4.5s5.5 -5.83301 5.5 -8.5v-656l-138 -63h-2z" />
    <glyph glyph-name="c" unicode="c" horiz-adv-x="425" 
d="M122.5 16.5c-30.333 19 -52.998 43.668 -67.998 74.001s-22.5 62.166 -22.5 95.499c0 42 11.667 78.833 35 110.5s53.166 56 89.499 73s73.5 25.5 111.5 25.5c32 0 60.833 -6.66699 86.5 -20s38.5 -31.666 38.5 -54.999c0 -12.667 -4.83301 -23.5 -14.5 -32.5
s-23.167 -13.5 -40.5 -13.5c-16 0 -28.667 4.16699 -38 12.5s-17 21.166 -23 38.499c-6 18.667 -11.833 31.5 -17.5 38.5s-15.834 10.5 -30.501 10.5c-28.667 0 -51.5 -14.167 -68.5 -42.5s-25.5 -65.833 -25.5 -112.5c0 -55.333 12.333 -99.5 37 -132.5s64 -49.5 118 -49.5
c18 0 33.5 2 46.5 6s29.5 10.667 49.5 20h1c2 0 3.83301 -1 5.5 -3s1.83398 -3.66699 0.500977 -5c-24.667 -22.667 -49.334 -39.5 -74.001 -50.5s-53 -16.5 -85 -16.5c-44 0 -81.167 9.5 -111.5 28.5z" />
    <glyph glyph-name="d" unicode="d" horiz-adv-x="510" 
d="M109.5 10c-23.667 15.333 -42.498 37.833 -56.498 67.5s-21 64.5 -21 104.5c0 50.667 11.833 92.167 35.5 124.5s53 55.833 88 70.5s70.167 22 105.5 22c40.667 0 81.667 -10.333 123 -31l-23 -81c-14 30 -30 51.833 -48 65.5s-40.333 20.5 -67 20.5
c-36 0 -63.5 -12.5 -82.5 -37.5s-28.5 -65.5 -28.5 -121.5s10 -99.833 30 -131.5s46.333 -47.5 79 -47.5c24 0 45.833 6.5 65.5 19.5s40.5 31.5 62.5 55.5l10 -9c-30.667 -34 -60.834 -61.5 -90.501 -82.5s-63.834 -31.5 -102.501 -31.5c-29.333 0 -55.833 7.66699 -79.5 23
zM439.502 68c4.33301 -9.33301 11.499 -14 21.499 -14c8.66699 0 22.334 3.66699 41.001 11h1c2 0 3.83301 -1.66699 5.5 -5s1.83398 -5.33301 0.500977 -6l-138 -67l-5 -1c-7.33301 0 -13.666 8.66699 -18.999 26s-8 40.666 -8 69.999v507c0 23.333 -2.16699 40 -6.5 50
s-11.833 15 -22.5 15c-8.66699 0 -21 -3.66699 -37 -11h-1c-2.66699 0 -4.83398 1.83301 -6.50098 5.5s-1.83398 5.83398 -0.500977 6.50098l147 69l4 1c3.33301 0 7 -1.5 11 -4.5s6 -5.83301 6 -8.5v-596c0 -22.667 2.16699 -38.667 6.5 -48z" />
    <glyph glyph-name="e" unicode="e" horiz-adv-x="418" 
d="M126 14.5c-30.667 17.667 -54 41.3291 -70 70.9961s-24 61.834 -24 96.501c0 38.667 9.66699 74.334 29 107.001s46.166 58.5 80.499 77.5s73.166 28.5 116.499 28.5c41.333 0 73.333 -9.33301 96 -28s34 -47.667 34 -87c0 -20.667 -3.66699 -31 -11 -31h-96
c1.33301 40.667 -2.66699 71.834 -12 93.501s-25.666 32.5 -48.999 32.5c-26.667 0 -47.834 -13.667 -63.501 -41s-23.5 -63.666 -23.5 -108.999c0 -58.667 13.5 -104.667 40.5 -138s65.833 -50 116.5 -50c18 0 33.333 2.16699 46 6.5s29.334 11.5 50.001 21.5l2 1
c1.33301 0 2.83301 -1.33301 4.5 -4s1.83398 -4.66699 0.500977 -6c-24.667 -24 -49.667 -41.333 -75 -52s-53 -16 -83 -16c-42 0 -78.333 8.83301 -109 26.5zM97 266.995l219 4v-22l-218 -1z" />
    <glyph glyph-name="f" unicode="f" horiz-adv-x="305" 
d="M23 6c0 4 1.33398 6 4.00098 6c17.333 0 30.166 1.66699 38.499 5s14 9.83301 17 19.5s4.5 24.5 4.5 44.5v225c0 20.667 -4.33301 34.167 -13 40.5s-25.667 9.5 -51 9.5c-2 0 -3 3 -3 9s1 9 3 9c23.333 0 39.333 3.16699 48 9.5s13.334 17.833 14.001 34.5
c3.33301 108.667 24 187.167 62 235.5s95.333 72.5 172 72.5c37.333 0 66.333 -5.16699 87 -15.5s31 -24.833 31 -43.5c0 -15.333 -5.16699 -27.333 -15.5 -36s-22.166 -13 -35.499 -13c-16 0 -27.667 3.66699 -35 11s-14 18 -20 32s-12.333 24.5 -19 31.5
s-17.334 10.5 -32.001 10.5c-30.667 0 -54.834 -21.333 -72.501 -64s-26.5 -109.334 -26.5 -200.001v-358c0 -20.667 2 -35.667 6 -45s12.167 -15.666 24.5 -18.999s31.833 -5 58.5 -5c2.66699 0 4 -2 4 -6s-1.33301 -6 -4 -6l-69 1c-15.333 0.666992 -38 1 -68 1l-61 -1
c-10.667 -0.666992 -25.667 -1 -45 -1c-2.66699 0 -4 2 -4 6zM138.001 351v25.999c40.667 0 91.667 3.33301 153 10c2 0 3.66699 -2.5 5 -7.5s2 -10.5 2 -16.5c0 -6.66699 -1.16699 -13.167 -3.5 -19.5s-4.5 -9.16602 -6.5 -8.49902c-46 10.667 -96 16 -150 16z" />
    <glyph glyph-name="g" unicode="g" horiz-adv-x="469" 
d="M93 -261.5c-28 13 -42.0039 31.834 -42.0039 56.501c0 17.333 5 30.166 15 38.499s22 12.5 36 12.5c18.667 0 32.5 -4.33301 41.5 -13s17.833 -21.667 26.5 -39c8.66699 -18 17.834 -31.5 27.501 -40.5s24.834 -13.5 45.501 -13.5c23.333 0 42 12 56 36s21 67.333 21 130
v453c22 5.33301 38.833 10.5 50.5 15.5s22.834 12.833 33.501 23.5c0.666992 0.666992 1.66699 1 3 1s2.83301 -0.5 4.5 -1.5s2.5 -2.16699 2.5 -3.5v-464c0 -62.667 -18.667 -113.5 -56 -152.5s-89.666 -58.5 -156.999 -58.5c-44 0 -80 6.5 -108 19.5zM106.496 7.50098
c-23 13.667 -41.1689 33.833 -54.502 60.5s-20 58.667 -20 96c0 47.333 11 88.833 33 124.5s51 62.834 87 81.501s74.667 28 116 28c48.667 0 90.334 -15.333 125.001 -46l-73 -64c0 26 -7.16699 47.333 -21.5 64s-33.166 25 -56.499 25c-33.333 0 -59.5 -16.667 -78.5 -50
s-28.5 -76.333 -28.5 -129c0 -50 8.5 -88.833 25.5 -116.5s41.167 -41.5 72.5 -41.5s66 14.667 104 44l8 -7c-28 -28.667 -54.167 -50.834 -78.5 -66.501s-52.5 -23.5 -84.5 -23.5c-27.333 0 -52.5 6.83301 -75.5 20.5z" />
    <glyph glyph-name="h" unicode="h" horiz-adv-x="509" 
d="M19 6c0 4 0.666016 5.99902 1.99902 5.99902c20.667 0 34.834 4.83301 42.501 14.5s11.5 27.834 11.5 54.501v508c0 23.333 -2.16699 40 -6.5 50s-11.833 15 -22.5 15c-9.33301 0 -22 -3.66699 -38 -11h-1c-2 0 -3.83301 1.83301 -5.5 5.5
s-1.83398 5.83398 -0.500977 6.50098l146 69l5 1c3.33301 0 6.83301 -1.5 10.5 -4.5s5.5 -5.83301 5.5 -8.5v-631c0 -26.667 3.83301 -44.834 11.5 -54.501s21.834 -14.5 42.501 -14.5c2.66699 0 4 -2 4 -6s-1.33301 -6 -4 -6c-17.333 -0 -31.333 0.333008 -42 1l-58 1
l-60 -1c-10 -0.666992 -23.667 -1 -41 -1c-1.33301 0 -2 2 -2 6zM287.999 5.99902c0 4 0.666016 6 1.99902 6c20.667 0 34.834 4.83301 42.501 14.5s11.5 27.834 11.5 54.501v144c0 36 -6.66699 62.667 -20 80s-34 26 -62 26c-20.667 0 -41.334 -5.16699 -62.001 -15.5
s-37 -23.833 -49 -40.5l-6 12c52.667 74 111 111 175 111c36 0 64.5 -11.5 85.5 -34.5s31.5 -53.167 31.5 -90.5v-192c0 -26.667 3.83301 -44.834 11.5 -54.501s21.834 -14.5 42.501 -14.5c2.66699 0 4 -2 4 -6s-1.33301 -6 -4 -6c-17.333 0 -31.333 0.333008 -42 1l-58 1
l-60 -1c-10 -0.666992 -23.667 -1 -41 -1c-1.33301 0 -2 2 -2 6z" />
    <glyph glyph-name="i" unicode="i" horiz-adv-x="263" 
d="M36 6c0 4 1.00098 6 3.00098 6c20.667 0 34.667 4.83301 42 14.5s11 27.834 11 54.501v179c0 22.667 -2.33301 39 -7 49s-12.334 15 -23.001 15c-8.66699 0 -21 -3.66699 -37 -11h-1c-2.66699 0 -4.66699 1.83301 -6 5.5s-1 5.83398 1 6.50098l151 70l3 1
c3.33301 0 6.66602 -1.66699 9.99902 -5s5 -6.33301 5 -9v-22c-1.33301 -26.667 -2 -59.334 -2 -98.001v-181c0 -26.667 3.83301 -44.834 11.5 -54.501s21.834 -14.5 42.501 -14.5c2 0 3 -2 3 -6s-1 -6 -3 -6c-17.333 -0 -31 0.333008 -41 1l-60 1l-59 -1
c-10 -0.666992 -23.667 -1 -41 -1c-2 0 -3 2 -3 6zM90.001 511c-10.667 10.667 -16 25.668 -16 45.001c0 17.333 5.5 31.166 16.5 41.499s25.833 15.5 44.5 15.5s33 -5 43 -15s15 -24 15 -42c0 -19.333 -5 -34.333 -15 -45s-24.333 -16 -43 -16
c-19.333 0 -34.333 5.33301 -45 16z" />
    <glyph glyph-name="j" unicode="j" horiz-adv-x="263" 
d="M188 360c-1.33301 -26.667 -1.99805 -59.335 -1.99805 -98.002v-310c0 -45.333 -5.5 -82.5 -16.5 -111.5s-29.333 -53.167 -55 -72.5s-61.167 -36 -106.5 -50c-1.33301 -0.666992 -2.83301 0.833008 -4.5 4.5s-1.5 5.83398 0.5 6.50098c32 14 54.667 36.333 68 67
s20 75 20 133v331c0 22.667 -2.16699 39 -6.5 49s-11.833 15 -22.5 15c-8.66699 0 -21 -3.66699 -37 -11h-1c-2.66699 0 -4.83398 1.83301 -6.50098 5.5s-1.5 5.83398 0.5 6.50098l151 70l3 1c3.33301 0 6.66602 -1.66699 9.99902 -5s5 -6.33301 5 -9v-22zM88.002 510.999
c-10.667 10.667 -16 25.668 -16 45.001c0 17.333 5.5 31.166 16.5 41.499s25.833 15.5 44.5 15.5s33 -5 43 -15s15 -24 15 -42c0 -19.333 -5 -34.333 -15 -45s-24.333 -16 -43 -16c-19.333 0 -34.333 5.33301 -45 16z" />
    <glyph glyph-name="k" unicode="k" horiz-adv-x="491" 
d="M19 6c0 4 0.666016 5.99902 1.99902 5.99902c20.667 0 34.834 4.83301 42.501 14.5s11.5 27.834 11.5 54.501v508c0 23.333 -2.16699 40 -6.5 50s-11.833 15 -22.5 15c-9.33301 0 -22 -3.66699 -38 -11h-1c-2 0 -3.83301 1.83301 -5.5 5.5
s-1.83398 5.83398 -0.500977 6.50098l146 69l5 1c3.33301 0 6.83301 -1.5 10.5 -4.5s5.5 -5.83301 5.5 -8.5v-631c0 -26.667 3.83301 -44.834 11.5 -54.501s21.834 -14.5 42.501 -14.5c2.66699 0 4 -2 4 -6s-1.33301 -6 -4 -6c-17.333 -0 -31.333 0.333008 -42 1l-58 1
l-60 -1c-10 -0.666992 -23.667 -1 -41 -1c-1.33301 0 -2 2 -2 6zM269.999 5.99902c0 4 0.999023 6 2.99902 6c24 0 36 7 36 21c0 7.33301 -2.66699 14 -8 20l-121 155l68 52l140 -179c19.333 -24 37.833 -41.5 55.5 -52.5s35.5 -16.5 53.5 -16.5c2 0 3 -2 3 -6s-1 -6 -3 -6
c-17.333 0 -31 0.333008 -41 1l-60 1l-77 -1c-11.333 -0.666992 -26.666 -1 -45.999 -1c-2 0 -3 2 -3 6zM125.998 164.999l135 129.998c17.333 16 26 32.333 26 49c0 8.66699 -3.33301 15.834 -10 21.501s-16 8.5 -28 8.5c-1.33301 0 -2 2 -2 6s0.666992 6 2 6
c19.333 0 34.333 -0.333008 45 -1l79 -1l73 1c9.33301 0.666992 22.333 1 39 1c2 0 3 -2 3 -6s-1 -6 -3 -6c-28.667 0 -61.5 -7.16699 -98.5 -21.5s-70.167 -35.166 -99.5 -62.499l-155 -141z" />
    <glyph glyph-name="l" unicode="l" horiz-adv-x="268" 
d="M33 6c0 4 0.667969 5.99902 2.00098 5.99902c20.667 0 34.834 4.83301 42.501 14.5s11.5 27.834 11.5 54.501l1 508c0 23.333 -2.16699 40 -6.5 50s-11.833 15 -22.5 15c-8.66699 0 -21.334 -3.66699 -38.001 -11h-1c-2 0 -3.83301 1.83301 -5.5 5.5
s-1.83398 5.83398 -0.500977 6.50098l147 69l4 1c3.33301 0 7 -1.5 11 -4.5s6 -5.83301 6 -8.5v-631c0 -26.667 3.66699 -44.834 11 -54.501s21.333 -14.5 42 -14.5c2.66699 0 4 -2 4 -6s-1.33301 -6 -4 -6c-16.667 -0 -30 0.333008 -40 1l-61 1l-60 -1
c-10 -0.666992 -23.667 -1 -41 -1c-1.33301 0 -2 2 -2 6z" />
    <glyph glyph-name="m" unicode="m" horiz-adv-x="777" 
d="M555 6c0 4 0.99707 6 2.99707 6c20.667 0 34.834 4.83301 42.501 14.5s11.5 27.834 11.5 54.501v144c0 36 -6.16699 62.667 -18.5 80s-31.166 26 -56.499 26c-20.667 0 -40.667 -5 -60 -15s-35 -23.667 -47 -41l-5 12c50.667 74 107 111 169 111
c36 0 63.5 -10.333 82.5 -31s28.5 -52 28.5 -94v-192c0 -26.667 3.83301 -44.834 11.5 -54.501s21.834 -14.5 42.501 -14.5c2.66699 0 4 -2 4 -6s-1.33301 -6 -4 -6c-17.333 -0 -31 0.333008 -41 1l-60 1l-58 -1c-10.667 -0.666992 -24.667 -1 -42 -1c-2 0 -3 2 -3 6z
M292.997 6c0 4 0.998047 6.00098 2.99805 6.00098c20.667 0 34.834 4.83301 42.501 14.5s11.5 27.834 11.5 54.501v144c0 36 -6.16699 62.667 -18.5 80s-31.166 26 -56.499 26c-20.667 0 -40.667 -5 -60 -15s-35 -23.667 -47 -41l-5 12c50.667 74 107 111 169 111
c35.333 0 62.666 -9.83301 81.999 -29.5s29 -47.834 29 -84.501v-203c0 -26.667 3.83301 -44.834 11.5 -54.501s21.834 -14.5 42.501 -14.5c2.66699 0 4 -2 4 -6s-1.33301 -6 -4 -6c-17.333 -0 -31 0.333008 -41 1l-60 1l-58 -1c-10.667 -0.666992 -24.667 -1 -42 -1
c-2 0 -3 2 -3 6zM35.9951 6.00098c0 4 0.999023 5.99902 2.99902 5.99902c20.667 0 34.667 4.83301 42 14.5s11 27.834 11 54.501v188c0 20.667 -2.5 35.834 -7.5 45.501s-12.833 14.5 -23.5 14.5c-11.333 0 -27.333 -4.66699 -48 -14h-2c-2 0 -3.5 1.66699 -4.5 5
s-0.833008 5.33301 0.5 6l139 68c4 1.33301 6.33301 2 7 2c8 0 15.5 -8.5 22.5 -25.5s10.5 -39.5 10.5 -67.5v-222c0 -26.667 3.83301 -44.834 11.5 -54.501s21.834 -14.5 42.501 -14.5c2 0 3 -2 3 -6s-1 -6 -3 -6c-17.333 0 -31 0.333008 -41 1l-60 1l-59 -1
c-10 -0.666992 -23.667 -1 -41 -1c-2 0 -3 2 -3 6z" />
    <glyph glyph-name="n" unicode="n" horiz-adv-x="526" 
d="M305 6c0 4 0.999023 5.99902 2.99902 5.99902c20.667 0 34.667 4.83301 42 14.5s11 27.834 11 54.501v144c0 36 -6.5 62.667 -19.5 80s-33.5 26 -61.5 26c-20.667 0 -41.5 -5.16699 -62.5 -15.5s-37.5 -23.833 -49.5 -40.5l-5 12c24 34.667 50.833 61.834 80.5 81.501
s61.167 29.5 94.5 29.5c36 0 64.5 -11.5 85.5 -34.5s31.5 -53.167 31.5 -90.5v-192c0 -26.667 3.83301 -44.834 11.5 -54.501s21.834 -14.5 42.501 -14.5c2 0 3 -2 3 -6s-1 -6 -3 -6c-17.333 -0 -31 0.333008 -41 1l-60 1l-58 -1c-10.667 -0.666992 -24.667 -1 -42 -1
c-2 0 -3 2 -3 6zM35.999 5.99902c0 4 0.999023 5.99902 2.99902 5.99902c20.667 0 34.667 4.83301 42 14.5s11 27.834 11 54.501v188c0 20.667 -2.5 35.834 -7.5 45.501s-12.833 14.5 -23.5 14.5c-11.333 0 -27.333 -4.66699 -48 -14h-2c-2 0 -3.5 1.66699 -4.5 5
s-0.833008 5.33301 0.5 6l139 68c4 1.33301 6.33301 2 7 2c8 0 15.5 -8.5 22.5 -25.5s10.5 -39.5 10.5 -67.5v-222c0 -26.667 3.83301 -44.834 11.5 -54.501s21.834 -14.5 42.501 -14.5c2 0 3 -2 3 -6s-1 -6 -3 -6c-17.333 0 -31 0.333008 -41 1l-60 1l-59 -1
c-10 -0.666992 -23.667 -1 -41 -1c-2 0 -3 2 -3 6z" />
    <glyph glyph-name="o" unicode="o" horiz-adv-x="489" 
d="M128.5 15.5c-31 19 -54.833 44.668 -71.5 77.001s-25 67.5 -25 105.5c0 43.333 11 80.166 33 110.499s50 53 84 68s69 22.5 105 22.5c41.333 0 77.333 -9.66699 108 -29s54.167 -44.833 70.5 -76.5s24.5 -65.5 24.5 -101.5c0 -40 -10 -75.5 -30 -106.5
s-46.833 -55.167 -80.5 -72.5s-70.167 -26 -109.5 -26c-41.333 0 -77.5 9.5 -108.5 28.5zM326.5 46.501c13.667 25.667 20.502 62.5 20.502 110.5c0 46.667 -6 86.667 -18 120s-27.667 58.5 -47 75.5s-40 25.5 -62 25.5c-53.333 0 -80 -47.667 -80 -143
c0 -44.667 5.66699 -84.167 17 -118.5s26.666 -61 45.999 -80s40.666 -28.5 63.999 -28.5c26 0 45.833 12.833 59.5 38.5z" />
    <glyph glyph-name="p" unicode="p" horiz-adv-x="513" 
d="M23 -269c0 4 1.00195 6.00098 3.00195 6.00098c16 0 27.833 1.83301 35.5 5.5s13 10.167 16 19.5s4.5 24 4.5 44v463c0 21.333 -2.33301 36.666 -7 45.999s-13 14 -25 14c-10.667 0 -26 -4.66699 -46 -14h-2c-2 0 -3.83301 1.66699 -5.5 5s-1.83398 5.33301 -0.500977 6
l142 69c1.33301 0.666992 3 1 5 1c8 0 15.333 -8.5 22 -25.5s10 -39.5 10 -67.5v-497c0 -20 2.16699 -34.667 6.5 -44s12.666 -15.833 24.999 -19.5s31.5 -5.5 57.5 -5.5c2 0 3 -2 3 -6s-1 -6 -3 -6c-24.667 0 -44 0.333008 -58 1l-79 1l-59 -1c-10 -0.666992 -24 -1 -42 -1
c-2 0 -3 2 -3 6zM198.002 -7.49902c-18 3.66699 -41.001 10.165 -69.001 19.498l35 63c16.667 -20.667 33.5 -36.334 50.5 -47.001s38.833 -16 65.5 -16c67.333 0 101 57.333 101 172c0 50.667 -11.833 89.834 -35.5 117.501s-53.167 41.5 -88.5 41.5
c-23.333 0 -43.666 -5.5 -60.999 -16.5s-36 -27.833 -56 -50.5l-10 12c34 38.667 66.5 66.834 97.5 84.501s62.833 26.5 95.5 26.5c28 0 54.167 -7.33301 78.5 -22s43.833 -36 58.5 -64s22 -60.667 22 -98c0 -53.333 -11 -97.166 -33 -131.499s-49.833 -59 -83.5 -74
s-68.5 -22.5 -104.5 -22.5c-24 0 -45 1.83301 -63 5.5z" />
    <glyph glyph-name="q" unicode="q" horiz-adv-x="502" 
d="M115 8c-25.333 14 -45.501 35.001 -60.501 63.001s-22.5 62 -22.5 102c0 48 10.667 89 32 123s49.166 59.667 83.499 77s70.5 26 108.5 26c56.667 0 105 -14 145 -42l-59 -94c0 26 -5.66699 47.667 -17 65s-25.333 30 -42 38s-32.667 12 -48 12
c-33.333 0 -58.333 -14.167 -75 -42.5s-25 -69.5 -25 -123.5c0 -58 9.66699 -101.167 29 -129.5s46 -42.5 80 -42.5c36.667 0 73.334 14.667 110.001 44l9 -7c-28 -28.667 -54.167 -50.834 -78.5 -66.501s-53.166 -23.5 -86.499 -23.5c-30 0 -57.667 7 -83 21z
M261.999 -268.999c0 4 0.666016 6 1.99902 6c22.667 0 39.334 1.83301 50.001 5.5s18 10.167 22 19.5s6 24 6 44v532l138 50l2 1c2 0 3.33301 -1.66699 4 -5s0 -5.33301 -2 -6c-16.667 -8.66699 -29 -19.667 -37 -33s-12 -30 -12 -50v-489c0 -20 1.5 -34.667 4.5 -44
s8.33301 -15.833 16 -19.5s19.5 -5.5 35.5 -5.5c2 0 3 -2 3 -6s-1 -6 -3 -6c-17.333 0 -31.333 0.333008 -42 1l-60 1l-71 -1c-12.667 -0.666992 -30.667 -1 -54 -1c-1.33301 0 -2 2 -2 6z" />
    <glyph glyph-name="r" unicode="r" horiz-adv-x="379" 
d="M241.5 371.5c22.333 16.333 41.501 24.5 57.501 24.5c15.333 0 30.166 -5.5 44.499 -16.5s21.5 -24.167 21.5 -39.5c0 -14 -4.33301 -25.5 -13 -34.5s-20 -13.5 -34 -13.5c-10 0 -18.167 2 -24.5 6s-12.833 10 -19.5 18c-6 6.66699 -11.167 11.5 -15.5 14.5
s-9.5 4.5 -15.5 4.5c-7.33301 0 -16.5 -4 -27.5 -12s-29.167 -25.333 -54.5 -52l-8 13c36.667 42 66.167 71.167 88.5 87.5zM36.001 6c0 4 0.999023 5.99902 2.99902 5.99902c20.667 0 34.667 4.83301 42 14.5s11 27.834 11 54.501v188c0 20.667 -2.5 35.834 -7.5 45.501
s-12.833 14.5 -23.5 14.5c-11.333 0 -27.333 -4.66699 -48 -14h-2c-2 0 -3.5 1.66699 -4.5 5s-0.833008 5.33301 0.5 6l139 68c4 1.33301 6.33301 2 7 2c8 0 15.5 -8.5 22.5 -25.5s10.5 -39.5 10.5 -67.5v-222c0 -26.667 6.33301 -44.834 19 -54.501s36 -14.5 70 -14.5
c2.66699 0 4 -2 4 -6s-1.33301 -6 -4 -6c-23.333 -0 -41.666 0.333008 -54.999 1l-81 1l-59 -1c-10 -0.666992 -23.667 -1 -41 -1c-2 0 -3 2 -3 6z" />
    <glyph glyph-name="s" unicode="s" horiz-adv-x="337" 
d="M138.5 288c13.667 -14 33.502 -28.667 59.502 -44c25.333 -14.667 44.166 -26.167 56.499 -34.5s23.5 -20 33.5 -35s15 -33.167 15 -54.5c0 -22.667 -5.66699 -44 -17 -64s-28.333 -36.167 -51 -48.5s-49.667 -18.5 -81 -18.5c-36.667 0 -71.334 9 -104.001 27
c-4 4 -6 8 -6 12l-2 99c0 2 1.83301 3.16699 5.5 3.5s5.83398 -0.166992 6.50098 -1.5c10.667 -33.333 28.334 -61.666 53.001 -84.999s49.667 -35 75 -35c14 0 25.167 4.33301 33.5 13s12.5 21.334 12.5 38.001c0 24.667 -7 44.167 -21 58.5s-34.667 29.166 -62 44.499
c-23.333 12.667 -41 23 -53 31s-22.667 19.333 -32 34s-14 32.667 -14 54c0 39.333 14 68.166 42 86.499s62.333 27.5 103 27.5c15.333 0 29.166 -1 41.499 -3s26.166 -6 41.499 -12c6 -2 9 -5.66699 9 -11c0 -16.667 -0.333008 -29.667 -1 -39l-1 -50c0 -2 -2 -3 -6 -3
s-6 1 -6 3c0 12.667 -5.33301 26.5 -16 41.5s-24.5 27.833 -41.5 38.5s-34.5 16 -52.5 16c-27.333 0 -41 -13 -41 -39c0 -19.333 6.83301 -36 20.5 -50z" />
    <glyph glyph-name="t" unicode="t" horiz-adv-x="336" 
d="M109 9c-20.667 14 -31.001 37.6689 -31.001 71.002v222c0 20.667 -3.66699 35 -11 43s-20.666 12 -39.999 12c-0.666992 0 -1.5 1 -2.5 3s-1.5 4 -1.5 6c0 2.66699 0.333008 4.83398 1 6.50098s1.66699 2.5 3 2.5c34 1.33301 61.5 8.66602 82.5 21.999
s37.167 33.666 48.5 60.999c1.33301 2.66699 4.16602 4 8.49902 4s6.5 -1.33301 6.5 -4v-345c0 -25.333 6.5 -44 19.5 -56s30.167 -18 51.5 -18c26.667 0 52.667 10 78 30l2 1c2.66699 0 4.83398 -1.33301 6.50098 -4s1.5 -4.66699 -0.5 -6
c-24.667 -24.667 -48.667 -42.834 -72 -54.501s-48 -17.5 -74 -17.5c-29.333 0 -54.333 7 -75 21zM137.999 351.002l0.000976562 25.999c43.333 0 98.333 3.33301 165 10c1.33301 0 2.83301 -2.5 4.5 -7.5s2.5 -10.5 2.5 -16.5c0 -6.66699 -1.16699 -13.167 -3.5 -19.5
s-4.83301 -9.16602 -7.5 -8.49902c-48.667 10.667 -102.334 16 -161.001 16z" />
    <glyph glyph-name="u" unicode="u" horiz-adv-x="505" 
d="M105.5 22.5c-21 23 -31.502 53.167 -31.502 90.5v147c0 43.333 -10.333 65 -31 65c-7.33301 0 -15.666 -2.33301 -24.999 -7h-1c-2.66699 0 -4.66699 1.83301 -6 5.5s-1 5.83398 1 6.50098l134 64l5 1c3.33301 0 6.83301 -1.5 10.5 -4.5s5.5 -5.83301 5.5 -8.5v-221
c0 -72 27.667 -108 83 -108c18.667 0 37.834 5.33301 57.501 16s35.167 24.667 46.5 42l6 -12c-24 -34.667 -50 -61.834 -78 -81.501s-58 -29.5 -90 -29.5c-36.667 0 -65.5 11.5 -86.5 34.5zM434.498 68c4.33301 -9.33301 11.5 -14 21.5 -14c9.33301 0 23 3.66699 41 11h2
c2 0 3.83301 -1.66699 5.5 -5s1.5 -5.33301 -0.5 -6l-138 -67c-1.33301 -0.666992 -3 -1 -5 -1c-7.33301 0 -13.5 8.66699 -18.5 26s-7.5 40.666 -7.5 69.999v178c0 43.333 -10.333 65 -31 65c-7.33301 0 -16 -2.33301 -26 -7h-1c-2 0 -3.66699 1.83301 -5 5.5
s-1 5.83398 1 6.50098l134 64c1.33301 0.666992 3 1 5 1c3.33301 0 6.83301 -1.5 10.5 -4.5s5.5 -5.83301 5.5 -8.5v-266c0 -22.667 2.16699 -38.667 6.5 -48z" />
    <glyph glyph-name="v" unicode="v" horiz-adv-x="440" 
d="M456 380c0 -4 -0.666016 -5.99902 -1.99902 -5.99902c-19.333 0 -36.5 -7.33301 -51.5 -22s-29.167 -37.334 -42.5 -68.001l-123 -284c-0.666992 -3.33301 -4.33398 -5 -11.001 -5c-5.33301 0 -9 1.66699 -11 5l-153 303c-14 29.333 -26.333 48.5 -37 57.5
s-23.667 13.5 -39 13.5c-2 0 -3 2 -3 6s1 6 3 6c12 0 22 -0.333008 30 -1l67 -1l77 1c11.333 0.666992 27 1 47 1c2 0 3 -2 3 -6s-1 -6 -3 -6c-38.667 0 -58 -7.66699 -58 -23c0 -4 1.66699 -9.33301 5 -16l120 -226l-51 -88l109 264c5.33301 14 8 26 8 36
c0 16.667 -5.66699 29.667 -17 39s-27 14 -47 14c-1.33301 0 -2 2 -2 6s0.666992 6 2 6c18 0 31.667 -0.333008 41 -1l60 -1l40 1c8 0.666992 20.333 1 37 1c1.33301 0 2 -2 2 -6z" />
    <glyph glyph-name="w" unicode="w" horiz-adv-x="675" 
d="M26 360c-10.667 9.33301 -23.998 13.999 -39.998 13.999c-2 0 -3 2 -3 6s1 6 3 6c12 0 22 -0.333008 30 -1l67 -1l71 1c10 0.666992 23.667 1 41 1c2 0 3 -2 3 -6s-1 -6 -3 -6c-33.333 0 -50 -7.33301 -50 -22c0 -5.33301 1.66699 -11 5 -17l112 -224l-50 -75l138 350
c0.666992 2.66699 4 4 10 4c7.33301 0 11.333 -1.33301 12 -4l143 -275l-51 -89l103 263c5.33301 14 8 26 8 36c0 16.667 -5.66699 29.667 -17 39s-27 14 -47 14c-1.33301 0 -2 2 -2 6s0.666992 6 2 6c18 0 31.667 -0.333008 41 -1l60 -1l40 1c8 0.666992 20.333 1 37 1
c1.33301 0 2 -2 2 -6s-0.666992 -6 -2 -6c-19.333 0 -36.5 -7.16699 -51.5 -21.5s-29.167 -37.166 -42.5 -68.499l-117 -283c-0.666992 -2.66699 -4 -4 -10 -4c-7.33301 0 -11.333 1.33301 -12 4l-143 275l51 75l-138 -350c-0.666992 -2.66699 -4.33398 -4 -11.001 -4
s-10.334 1.33301 -11.001 4l-142 302c-13.333 28.667 -25.333 47.667 -36 57z" />
    <glyph glyph-name="x" unicode="x" horiz-adv-x="440" 
d="M245 6c0 4 1 6.00098 3 6.00098c14.667 0 22 4.66699 22 14c0 7.33301 -3.33301 15.666 -10 24.999l-168 252c-31.333 47.333 -57.333 71 -78 71c-1.33301 0 -2 2 -2 6s0.666992 6 2 6c14 0 24.333 -0.333008 31 -1l31 -1l70 1c10.667 0.666992 25.667 1 45 1
c1.33301 0 2 -2 2 -6s-0.666992 -6 -2 -6c-14.667 0 -22 -5 -22 -15c0 -6.66699 3.33301 -14.667 10 -24l167 -252c16 -24 31.833 -41.833 47.5 -53.5s29.834 -17.5 42.501 -17.5c2 0 3 -2 3 -6s-1 -6 -3 -6l-36 1c-8.66699 0.666992 -21 1 -37 1l-71 -1
c-10.667 -0.666992 -25.334 -1 -44.001 -1c-2 0 -3 2 -3 6zM1 6.00098c0 4 1 5.99902 3 5.99902c20.667 0 42.667 8.33301 66 25s45.333 39.334 66 68.001l66 90l14 -14l-56 -83c-15.333 -22 -23 -40.667 -23 -56c0 -20 14.667 -30 44 -30c2 0 3 -2 3 -6s-1 -6 -3 -6
c-18 0 -31.333 0.333008 -40 1l-60 1l-41 -1c-7.33301 -0.666992 -19.333 -1 -36 -1c-2 0 -3 2 -3 6zM209 205l56 83.001c16 23.333 24 42 24 56c0 20 -15 30 -45 30c-1.33301 0 -2 2 -2 6s0.666992 6 2 6c18 0 31.667 -0.333008 41 -1l60 -1l41 1
c7.33301 0.666992 19.333 1 36 1c2 0 3 -2 3 -6s-1 -6 -3 -6c-20.667 0 -42.667 -8.33301 -66 -25s-45.333 -39.334 -66 -68.001l-67 -90z" />
    <glyph glyph-name="y" unicode="y" horiz-adv-x="499" 
d="M189.5 81c13 -17.333 33.501 -26 61.501 -26c20.667 0 41.5 5.16699 62.5 15.5s37.5 23.833 49.5 40.5l5 -12c-24 -34.667 -50.833 -61.834 -80.5 -81.501s-61.167 -29.5 -94.5 -29.5c-36 0 -64.5 11.5 -85.5 34.5s-31.5 53.167 -31.5 90.5v147
c0 22 -2.33301 38.333 -7 49s-12.334 16 -23.001 16c-8 0 -16.667 -2.33301 -26 -7h-1c-2.66699 0 -4.5 1.83301 -5.5 5.5s-0.833008 5.83398 0.5 6.50098l135 64l4 1c3.33301 0 7 -1.5 11 -4.5s6 -5.83301 6 -8.5v-221c0 -36 6.5 -62.667 19.5 -80zM382.501 -223.5
c-35.667 -38.333 -89.166 -57.5 -160.499 -57.5c-42 0 -77.667 6.83301 -107 20.5s-44 33.5 -44 59.5c0 14 4.66699 25.333 14 34s22 13 38 13c16.667 0 29.667 -4.33301 39 -13s19.333 -21.334 30 -38.001c11.333 -18.667 22.166 -32.5 32.499 -41.5
s25.166 -13.5 44.499 -13.5c23.333 0 41.5 11.5 54.5 34.5s19.5 66.833 19.5 131.5v354c0 43.333 -10.333 65 -31 65c-7.33301 0 -15.666 -2.33301 -24.999 -7h-1c-2.66699 0 -4.66699 1.83301 -6 5.5s-1 5.83398 1 6.50098l134 64l5 1c3.33301 0 6.83301 -1.5 10.5 -4.5
s5.5 -5.83301 5.5 -8.5v-452c0 -64 -17.833 -115.167 -53.5 -153.5z" />
    <glyph glyph-name="z" unicode="z" horiz-adv-x="405" 
d="M251 371c-54.667 0 -99.998 -8.83496 -135.998 -26.502s-60 -44.167 -72 -79.5c0 -0.666992 -1.33301 -1 -4 -1c-5.33301 0 -7.66602 1.33301 -6.99902 4l42 157c0 0.666992 1.33301 1 4 1c5.33301 0 7.66602 -1.33301 6.99902 -4c-1.33301 -5.33301 -2 -9.33301 -2 -12
c0 -9.33301 4 -15.666 12 -18.999s21.333 -5 40 -5h230c2.66699 0 5 -1.33301 7 -4s2.33301 -5.33398 1 -8.00098l-228 -349c-2 -4.66699 -0.333008 -7 5 -7c65.333 0 115.666 9.33301 150.999 28s57.333 47.334 66 86.001c0.666992 2 2.83398 3 6.50098 3s5.5 -1 5.5 -3
l-2 -121c0 -2.66699 -1 -5.16699 -3 -7.5s-4.33301 -3.5 -7 -3.5h-327c-2.66699 0 -4.83398 1.33301 -6.50098 4s-1.83398 5.33398 -0.500977 8.00098l223 352c2.66699 4.66699 1 7 -5 7z" />
    <glyph glyph-name="braceleft" unicode="{" horiz-adv-x="289" 
d="M29 304.5c0 4.33301 0.999023 6.5 2.99902 6.5c23.333 4 38.833 25.5 46.5 64.5s11.5 90.167 11.5 153.5c0 57.333 4.33301 99.5 13 126.5s23.834 45.333 45.501 55s55.5 14.5 101.5 14.5c2.66699 0 4 -2 4 -6s-1.33301 -6 -4 -6
c-17.333 0 -30.666 -9.16699 -39.999 -27.5s-14.333 -44.5 -15 -78.5c-1.33301 -81.333 -4.16602 -138.666 -8.49902 -171.999s-14.166 -59.5 -29.499 -78.5s-41.666 -36.167 -78.999 -51.5c37.333 -16 63.666 -33.833 78.999 -53.5s25.166 -46.167 29.499 -79.5
s7.16602 -90.333 8.49902 -171c0.666992 -34 5.66699 -60.167 15 -78.5s22.666 -27.5 39.999 -27.5c2.66699 0 4 -2 4 -6s-1.33301 -6 -4 -6c-46 0 -80 4.83301 -102 14.5s-37.167 28.167 -45.5 55.5s-12.5 69.666 -12.5 126.999c0 64 -3.83301 115.333 -11.5 154
s-23.167 60 -46.5 64c-2 0 -3 2.16699 -3 6.5z" />
    <glyph glyph-name="bar" unicode="|" horiz-adv-x="168" 
d="M86 738c15.333 0 23.001 -2.33301 23.001 -7v-885c0 -2.66699 -2.33301 -4.66699 -7 -6s-10 -2 -16 -2c-6.66699 0 -12.334 0.666992 -17.001 2s-7 3.33301 -7 6v885c0 4.66699 8 7 24 7z" />
    <glyph glyph-name="braceright" unicode="}" horiz-adv-x="283" 
d="M204.5 234c-7.66699 -38.667 -11.501 -90 -11.501 -154c0 -57.333 -4.16699 -99.666 -12.5 -126.999s-23.5 -45.833 -45.5 -55.5s-56 -14.5 -102 -14.5c-2.66699 0 -4 2 -4 6s1.33301 6 4 6c17.333 0 30.666 9.16699 39.999 27.5s14.333 44.5 15 78.5
c1.33301 80.667 4.16602 137.667 8.49902 171s14.166 59.833 29.499 79.5s41.666 37.5 78.999 53.5c-37.333 15.333 -63.666 32.5 -78.999 51.5s-25.166 45.167 -29.499 78.5s-7.16602 90.666 -8.49902 171.999c-0.666992 34 -5.66699 60.167 -15 78.5
s-22.666 27.5 -39.999 27.5c-2.66699 0 -4 2 -4 6s1.33301 6 4 6c46 0 79.833 -4.83301 101.5 -14.5s36.834 -28 45.501 -55s13 -69.167 13 -126.5c0 -63.333 3.83301 -114.5 11.5 -153.5s23.167 -60.5 46.5 -64.5c2 0 3 -2.16699 3 -6.5s-1 -6.5 -3 -6.5
c-23.333 -4 -38.833 -25.333 -46.5 -64z" />
    <glyph glyph-name="asciitilde" unicode="~" horiz-adv-x="443" 
d="M357.5 222c10.333 6.66699 20.832 16 31.499 28l2 1c1.33301 0 2.66602 -1 3.99902 -3s1.66602 -3.66699 0.999023 -5c-26 -41.333 -47 -69 -63 -83s-33.667 -21 -53 -21c-11.333 0 -21.833 1.33301 -31.5 4s-23.167 7 -40.5 13c-30.667 12.667 -57 19 -79 19
c-16 0 -28.333 -2.33301 -37 -7s-16.5 -10.5 -23.5 -17.5l-13.5 -13.5h-1c-1.33301 0 -2.83301 0.833008 -4.5 2.5s-2.16699 3.16699 -1.5 4.5c42 69.333 83 104 123 104c8.66699 0 18.334 -1.66699 29.001 -5s21.334 -7 32.001 -11
c16.667 -6.66699 31.334 -11.667 44.001 -15s25.667 -5 39 -5c18 0 32.167 3.33301 42.5 10z" />
    <glyph glyph-name="uni00A0" unicode="&#xa0;" horiz-adv-x="234" 
 />
    <glyph glyph-name="exclamdown" unicode="&#xa1;" horiz-adv-x="263" 
d="M181 -271.5c-15.333 -2.33301 -31.667 -3.50098 -49 -3.50098s-33.833 1.16699 -49.5 3.5s-22.834 5.83301 -21.501 10.5c14.667 50.667 25.5 106 32.5 166s14.167 136 21.5 228c0 6.66699 0.666992 17.334 2 32.001c0 3.33301 5.66699 5 17 5s17 -1.66699 17 -5
c6 -98.667 12.333 -180.5 19 -245.5s17.334 -125.167 32.001 -180.5c1.33301 -4.66699 -5.66699 -8.16699 -21 -10.5zM182.499 348.499c11 -11 16.5 -25.833 16.5 -44.5c0 -17.333 -5.5 -31.333 -16.5 -42s-25.833 -16 -44.5 -16s-33.167 5.16699 -43.5 15.5
s-15.5 24.5 -15.5 42.5c0 19.333 5.16699 34.333 15.5 45s24.833 16 43.5 16s33.5 -5.5 44.5 -16.5z" />
    <glyph glyph-name="cent" unicode="&#xa2;" horiz-adv-x="530" 
d="M277.5 567c3 1.33301 6.5 2 10.5 2s7.33301 -0.666992 10 -2s4 -3.33301 4 -6v-663c0 -4.66699 -4.66699 -7 -14 -7c-10 0 -15 2.33301 -15 7v663c0 2.66699 1.5 4.66699 4.5 6zM388.5 472c29 -5.33301 52.8291 -12.3301 71.4961 -20.9971
c4.66699 -2 7.66699 -4.16699 9 -6.5s2 -5.83301 2 -10.5l5 -103c0 -2 -1.66699 -3.33301 -5 -4s-5.66602 0.333008 -6.99902 3c-25.333 43.333 -51.166 75.5 -77.499 96.5s-56.5 31.5 -90.5 31.5c-47.333 0 -83.666 -18.833 -108.999 -56.5s-38 -87.834 -38 -150.501
c0 -41.333 5.83301 -80.333 17.5 -117s30.167 -66.667 55.5 -90s57.333 -35 96 -35c34 0 62.833 10.333 86.5 31s46.834 54 69.501 100c0.666992 2.66699 2.66699 3.66699 6 3s5 -2 5 -4l-8 -106c-0.666992 -5.33301 -1.66699 -9 -3 -11s-5 -4.33301 -11 -7
c-51.333 -18 -104.666 -27 -159.999 -27c-64 0 -116.333 12.667 -157 38s-70.167 57 -88.5 95s-27.5 76.333 -27.5 115c0 45.333 12.167 86.666 36.5 123.999s57.666 66.666 99.999 87.999s89.5 32 141.5 32c24.667 0 51.5 -2.66699 80.5 -8z" />
    <glyph glyph-name="sterling" unicode="&#xa3;" horiz-adv-x="506" 
d="M410 76.5c18.667 17 32.001 44.1641 40.001 81.4971c0 1.33301 2 1.83301 6 1.5s6 -1.16602 6 -2.49902c-2.66699 -14 -4.83398 -35.333 -6.50098 -64s-2.5 -54.667 -2.5 -78c0 -5.33301 -1.16699 -9.16602 -3.5 -11.499s-6.5 -3.5 -12.5 -3.5h-407
c-1.33301 0 -2 1.83301 -2 5.5s0.666992 5.83398 2 6.50098c34 14 57.167 30.833 69.5 50.5s18.5 49.834 18.5 90.501c0 28.667 -1.83301 53.667 -5.5 75s-9.5 46.666 -17.5 75.999c-6.66699 26 -11.667 47.667 -15 65s-5 36.666 -5 57.999
c0 47.333 10.5 86.666 31.5 117.999s48.833 54.333 83.5 69s72.667 22 114 22c38.667 0 76.667 -4.33301 114 -13c10 -3.33301 15 -8.66602 15 -15.999l8 -118c0 -2.66699 -1.66699 -4 -5 -4c-2.66699 0 -5 1.33301 -7 4c-20.667 38 -41.667 68.5 -63 91.5
s-47.333 34.5 -78 34.5c-36.667 0 -63 -15.167 -79 -45.5s-24 -67.833 -24 -112.5c0 -22 2 -42.5 6 -61.5s10 -41.167 18 -66.5c8 -29.333 13.833 -52.833 17.5 -70.5s5.5 -37.167 5.5 -58.5c0 -29.333 -3 -53.333 -9 -72s-13.167 -33.167 -21.5 -43.5
s-20.5 -23.166 -36.5 -38.499l-13 5h170c40 0 69.333 8.5 88 25.5zM338.001 314.997c1.33301 -2.66699 2 -6 2 -10s-0.666992 -7.5 -2 -10.5s-3.33301 -4.5 -6 -4.5h-289c-2 0 -3.66699 1.5 -5 4.5s-2 6.5 -2 10.5c0 3.33301 0.666992 6.5 2 9.5s3 4.5 5 4.5h289
c2.66699 0 4.66699 -1.33301 6 -4z" />
    <glyph glyph-name="currency" unicode="&#xa4;" horiz-adv-x="414" 
d="M83 32l-33 32l53 55l30 -31zM46 338l37 35l52 -56l-36 -33zM367 68l-38 -36l-52 58l35 33zM335 370l31 -32l-60 -60l-30 30zM124 84.5c-20.667 13 -36.333 30.167 -47 51.5s-16 43.333 -16 66c0 28 7.66699 52.167 23 72.5s34.5 35.5 57.5 45.5s46.167 15 69.5 15
c38.667 0 71.334 -12.833 98.001 -38.5s40 -57.5 40 -95.5c0 -27.333 -7.33301 -51.333 -22 -72s-33.834 -36.5 -57.501 -47.5s-48.167 -16.5 -73.5 -16.5c-27.333 0 -51.333 6.5 -72 19.5zM258.001 113c10.667 16 16 38.333 16 67c0 35.333 -7.83301 66 -23.5 92
s-36.5 39 -62.5 39c-16.667 0 -30 -7.5 -40 -22.5s-15 -36.833 -15 -65.5c0 -34.667 7 -65.667 21 -93s34.333 -41 61 -41c18 0 32.333 8 43 24z" />
    <glyph glyph-name="yen" unicode="&#xa5;" horiz-adv-x="619" 
d="M481 201c0 -10 -2.33301 -15 -7 -15h-324c-4.66699 0 -7 5 -7 15c0 9.33301 2.33301 14 7 14h324c4.66699 0 7 -4.66699 7 -14zM481 282c0 -10 -2.33301 -15 -7 -15h-324c-4.66699 0 -7 5 -7 15c0 9.33301 2.33301 14 7 14h324c4.66699 0 7 -4.66699 7 -14zM468 564
c0 16 -4.83301 28.168 -14.5 36.501s-23.5 12.5 -41.5 12.5c-2 0 -3 2 -3 6s1 6 3 6l53 -1c30.667 -1.33301 58 -2 82 -2c11.333 0 25 0.666992 41 2l37 1c1.33301 0 2 -2 2 -6s-0.666992 -6 -2 -6c-20.667 0 -46 -12.833 -76 -38.5s-56.667 -57.834 -80 -96.501l-123 -205
l-28 5l123 209c18 30 27 55.667 27 77zM46.5 590.501c-16.333 15 -30.168 22.501 -41.501 22.501c-2 0 -3 2 -3 6s1 6 3 6l31 -1c14.667 -1.33301 25 -2 31 -2c23.333 0 57 0.666992 101 2l66 1c1.33301 0 2 -2 2 -6s-0.666992 -6 -2 -6
c-11.333 0 -20.166 -2.66699 -26.499 -8s-9.5 -12.333 -9.5 -21c0 -10.667 4.66699 -23.334 14 -38.001l144 -227l-96 -45l-152 236c-24.667 38.667 -45.167 65.5 -61.5 80.5zM369.998 36.002c3.33301 -9.33301 9.83301 -15.667 19.5 -19s25.167 -5 46.5 -5c2 0 3 -2 3 -6
s-1 -6 -3 -6c-22 0 -39.333 0.333008 -52 1l-75 1l-74 -1c-13.333 -0.666992 -31.333 -1 -54 -1c-1.33301 0 -2 2 -2 6s0.666992 6 2 6c21.333 0 37 1.66699 47 5s16.833 9.83301 20.5 19.5s5.5 24.5 5.5 44.5v121h111v-121c0 -20.667 1.66699 -35.667 5 -45z
M253.998 310.001l111 9v-37h-111v28z" />
    <glyph glyph-name="brokenbar" unicode="&#xa6;" horiz-adv-x="168" 
d="M69 222c4.66699 1.33301 10.334 2 17.001 2c6 0 11.333 -0.666992 16 -2s7 -3.33301 7 -6v-370c0 -2.66699 -2.33301 -4.66699 -7 -6s-10 -2 -16 -2c-6.66699 0 -12.334 0.666992 -17.001 2s-7 3.33301 -7 6v370c0 2.66699 2.33301 4.66699 7 6zM86 738
c15.333 0 23 -2.33301 23 -7v-371c0 -2 -2.33301 -3.66699 -7 -5s-10 -2 -16 -2s-11.5 0.666992 -16.5 2s-7.5 3 -7.5 5v371c0 4.66699 8 7 24 7z" />
    <glyph glyph-name="section" unicode="&#xa7;" horiz-adv-x="488" 
d="M348.5 62.5c5.66699 15.667 8.5 33.4961 8.5 53.4961c0 30 -6 56 -18 78s-26.5 40.333 -43.5 55s-39.5 31 -67.5 49c-25.333 17.333 -45.166 31.833 -59.499 43.5s-26.5 25.834 -36.5 42.501s-15 36 -15 58c0 42 16.667 74.167 50 96.5s73.333 33.5 120 33.5
c34 0 62.667 -6.33301 86 -19c7.33301 -3.33301 11 -8.66602 11 -15.999l8 -117c0 -2 -1.83301 -3 -5.5 -3s-5.83398 1 -6.50098 3c-1.33301 2 -7.83301 14.833 -19.5 38.5s-27.334 44.667 -47.001 63s-39.5 27.5 -59.5 27.5c-16 0 -28.667 -5.66699 -38 -17
s-14 -28 -14 -50c0 -23.333 5 -43.5 15 -60.5s22.333 -31.667 37 -44s34 -26.166 58 -41.499c26.667 -18 48 -33.833 64 -47.5s29.5 -30.667 40.5 -51s16.5 -44.5 16.5 -72.5c0 -26.667 -7.5 -51.5 -22.5 -74.5s-43.167 -49.5 -84.5 -79.5l-8 9
c14.667 12.667 24.834 26.834 30.501 42.501zM142 -170.004c-7.33301 4.66699 -11.001 10.3301 -11.001 16.9971l-8 117c0 1.33301 1.83301 2 5.5 2s5.83398 -0.666992 6.50098 -2l19.5 -39c11.667 -23.333 27.334 -44.166 47.001 -62.499s39.5 -27.5 59.5 -27.5
c15.333 0 27.666 5.66699 36.999 17s14 28 14 50c0 23.333 -4.83301 43.5 -14.5 60.5s-21.667 31.333 -36 43s-33.833 25.834 -58.5 42.501c-26.667 17.333 -48 32.833 -64 46.5s-29.5 30.834 -40.5 51.501s-16.5 45 -16.5 73c0 26.667 7.33301 51.5 22 74.5
s42.667 49.5 84 79.5l8 -9c-14.667 -12.667 -24.667 -26.834 -30 -42.501s-8 -33.5 -8 -53.5c0 -30 6 -56 18 -78s26.5 -40.167 43.5 -54.5s39.833 -31.166 68.5 -50.499c24.667 -16 44.167 -30 58.5 -42s26.5 -26.333 36.5 -43s15 -36 15 -58
c0 -42 -16.667 -74.167 -50 -96.5s-73.333 -33.5 -120 -33.5c-33.333 0 -62 6 -86 18z" />
    <glyph glyph-name="dieresis" unicode="&#xa8;" horiz-adv-x="322" 
d="M34.5 478.5c-9.66699 9.66699 -14.5 23.167 -14.5 40.5c0 16 5 28.667 15 38s23.333 14 40 14s29.5 -4.66699 38.5 -14s13.5 -22 13.5 -38c0 -17.333 -4.5 -30.833 -13.5 -40.5s-21.833 -14.5 -38.5 -14.5c-17.333 0 -30.833 4.83301 -40.5 14.5zM209 478.5
c-9.33301 9.66699 -14.002 23.167 -14.002 40.5c0 16 4.83301 28.5 14.5 37.5s22.834 13.5 39.501 13.5s29.5 -4.5 38.5 -13.5s13.5 -21.5 13.5 -37.5c0 -17.333 -4.5 -30.833 -13.5 -40.5s-21.833 -14.5 -38.5 -14.5c-17.333 0 -30.666 4.83301 -39.999 14.5z" />
    <glyph glyph-name="copyright" unicode="&#xa9;" horiz-adv-x="727" 
d="M222.5 -71c-48.333 23.333 -86.8369 57.168 -115.504 101.501s-43 96.5 -43 156.5c0 60.667 16.333 115 49 163s75.834 85.5 129.501 112.5s110.167 40.5 169.5 40.5c52 0 98 -10.833 138 -32.5s70.833 -50.5 92.5 -86.5s32.5 -74.667 32.5 -116
c0 -39.333 -11.333 -76.5 -34 -111.5s-54.167 -63.333 -94.5 -85s-85.5 -32.5 -135.5 -32.5c-62.667 0 -109 15.333 -139 46s-45 67.334 -45 110.001c0 34.667 8.5 64.667 25.5 90s39 44.833 66 58.5s55.5 20.5 85.5 20.5c28 0 52.833 -5.16699 74.5 -15.5
s32.5 -25.5 32.5 -45.5c0 -28 -14.333 -42 -43 -42c-10 0 -18.333 3.16699 -25 9.5s-12.667 15.166 -18 26.499c-8 14.667 -15.667 25.5 -23 32.5s-17.666 10.5 -30.999 10.5c-20.667 0 -34.667 -8.66699 -42 -26s-11 -45.333 -11 -84c0 -47.333 12 -86.333 36 -117
s60.667 -46 110 -46c24.667 0 48.167 7 70.5 21s40.166 33.833 53.499 59.5s20 55.167 20 88.5c0 44.667 -10 85.667 -30 123s-47.667 66.833 -83 88.5s-74.666 32.5 -117.999 32.5c-49.333 0 -92.166 -12 -128.499 -36s-63.833 -56.333 -82.5 -97s-28 -85.334 -28 -134.001
c0 -57.333 11.5 -107.333 34.5 -150s55.5 -75.667 97.5 -99s91.333 -35 148 -35c34 0 65.5 3.66699 94.5 11s58.833 20.666 89.5 39.999h1c2 0 3.83301 -1.16699 5.5 -3.5s1.5 -3.83301 -0.5 -4.5c-37.333 -29.333 -74.5 -49.666 -111.5 -60.999s-75.5 -17 -115.5 -17
c-57.333 0 -110.166 11.667 -158.499 35z" />
    <glyph glyph-name="ordfeminine" unicode="&#xaa;" horiz-adv-x="288" 
d="M36.5 289c-1 4 -1.5 8.33398 -1.5 13.001c0 4 0.5 7.66699 1.5 11s1.83301 5 2.5 5h225c1.33301 0 2.5 -1.83301 3.5 -5.5s1.5 -7.5 1.5 -11.5c0 -4.66699 -0.5 -8.83398 -1.5 -12.501s-2.16699 -5.5 -3.5 -5.5h-224c-1.33301 0 -2.5 2 -3.5 6zM204 364.001
c-9.33301 0 -17.333 5 -24 15s-10 23.333 -10 40v119c0 30.667 -3 50.667 -9 60s-14.333 14 -25 14c-9.33301 0 -17 -4.83301 -23 -14.5s-9.66699 -21.834 -11 -36.501c-4.66699 -25.333 -17.334 -38 -38.001 -38c-11.333 0 -20.5 3.16699 -27.5 9.5
s-10.5 14.833 -10.5 25.5c0 12 7.83301 23.5 23.5 34.5s34.334 20 56.001 27s40.834 10.5 57.501 10.5c20.667 0 37.667 -6 51 -18s20 -30 20 -54v-117c0 -15.333 1.16699 -26.333 3.5 -33s6.5 -10 12.5 -10c3.33301 0 11.666 3 24.999 9h1c2.66699 0 4.5 -1.16699 5.5 -3.5
s0.833008 -4.16602 -0.5 -5.49902l-68 -32c-4 -1.33301 -7 -2 -9 -2zM39 376.001c-8.66699 7.33301 -13.001 16.667 -13.001 28c0 12 3.16699 22 9.5 30s17.833 15 34.5 21l123 42l1 -10l-67 -26c-18.667 -7.33301 -28 -19.333 -28 -36c0 -8.66699 2.5 -15.667 7.5 -21
s11.167 -8 18.5 -8c6.66699 0 14 1.66699 22 5l52 26l1 -11l-58 -31c-14.667 -8 -26.667 -13.333 -36 -16s-19.666 -4 -30.999 -4c-15.333 0 -27.333 3.66699 -36 11z" />
    <glyph glyph-name="guillemotleft" unicode="&#xab;" horiz-adv-x="475" 
d="M49 201c0 4.66699 1.33398 8.33301 4.00098 11l188 149c0 0.666992 0.666992 1 2 1s2.66602 -0.833008 3.99902 -2.5s1.66602 -2.83398 0.999023 -3.50098l-92 -155l92 -155c0.666992 -1.33301 -0.166016 -3.16602 -2.49902 -5.49902s-3.83301 -2.5 -4.5 -0.5l-188 149
c-2.66699 2.66699 -4 6.66699 -4 12zM219.001 200.999c0 3.33301 1.33398 7 4.00098 11l189 149c0 0.666992 0.666992 1 2 1s2.66602 -0.833008 3.99902 -2.5s1.66602 -2.83398 0.999023 -3.50098l-93 -155l93 -155c0.666992 -1.33301 -0.166016 -3.16602 -2.49902 -5.49902
s-3.83301 -2.5 -4.5 -0.5l-189 149c-2.66699 4 -4 8 -4 12z" />
    <glyph glyph-name="logicalnot" unicode="&#xac;" horiz-adv-x="395" 
d="M356 73.5c-5.33301 -1 -11 -1.5 -17 -1.5c-5.33301 0 -10.333 0.5 -15 1.5s-7 1.83301 -7 2.5v195h47v-194c0 -1.33301 -2.66699 -2.5 -8 -3.5zM30.5 233c-1 5.33301 -1.5 11.001 -1.5 17.001c0 5.33301 0.333008 10.166 1 14.499s1.66699 6.5 3 6.5h331v-46h-330
c-1.33301 0 -2.5 2.66699 -3.5 8z" />
    <glyph glyph-name="uni00AD" unicode="&#xad;" horiz-adv-x="0" 
 />
    <glyph glyph-name="registered" unicode="&#xae;" horiz-adv-x="740" 
d="M218 173c-46 23.333 -83.166 56.335 -111.499 99.002s-42.5 91.667 -42.5 147c0 61.333 15.333 115.166 46 161.499s71.5 82 122.5 107s106.167 37.5 165.5 37.5c57.333 0 108 -11.833 152 -35.5s78 -56.334 102 -98.001s36 -88.5 36 -140.5
c0 -57.333 -14.333 -109.833 -43 -157.5s-67.834 -85.5 -117.501 -113.5s-104.167 -42 -163.5 -42c-51.333 0 -100 11.667 -146 35zM233.001 279.502c0 3.66699 0.332031 5.50195 0.999023 5.50195c10 0 17 1 21 3s6.66699 6 8 12s2 16 2 30v215
c0 18.667 -1.83301 30.667 -5.5 36s-12.167 8 -25.5 8c-0.666992 0 -1 2 -1 6s0.333008 6 1 6l71 -1c8 0 22.667 0.666992 44 2c18.667 1.33301 31.334 2 38.001 2c34 0 59.333 -5.5 76 -16.5s25 -28.5 25 -52.5c0 -36.667 -16.667 -63.834 -50 -81.501
s-74 -24.5 -122 -20.5v16c9.33301 -1.33301 21.333 -2 36 -2c24 0 40.5 5 49.5 15s13.5 27.667 13.5 53c0 50.667 -14.667 76 -44 76c-10 0 -17.333 -0.833008 -22 -2.5s-8 -5.83398 -10 -12.501s-3 -17.667 -3 -33v-213c0 -20 2.5 -32.5 7.5 -37.5s16.5 -7.5 34.5 -7.5
c1.33301 0 2 -1.83301 2 -5.5s-0.666992 -5.5 -2 -5.5l-73 1l-71 -1c-0.666992 0 -1 1.83301 -1 5.5zM565.5 234.004c37 46.667 55.5 107.999 55.5 183.999c0 58.667 -11 109.334 -33 152.001s-52.833 75.167 -92.5 97.5s-85.167 33.5 -136.5 33.5
c-52.667 0 -96.5 -11.167 -131.5 -33.5s-60.667 -51.833 -77 -88.5s-24.5 -77.667 -24.5 -123c0 -56 12.167 -106.167 36.5 -150.5s57.5 -79 99.5 -104s88.667 -37.5 140 -37.5c72 0 126.5 23.333 163.5 70zM432.5 314.003c-14.333 26.667 -34.501 67.667 -60.501 123l60 14
c24 -50 45.333 -87.167 64 -111.5s40.334 -43.5 65.001 -57.5c1.33301 -0.666992 2 -2.16699 2 -4.5s-0.666992 -3.5 -2 -3.5h-98c-6 0 -16.167 13.333 -30.5 40z" />
    <glyph glyph-name="macron" unicode="&#xaf;" horiz-adv-x="345" 
d="M40 479.5c-2 3.66699 -3 8.16699 -3 13.5c0 4.66699 1 8.83398 3 12.501s4.33301 5.5 7 5.5h251c3.33301 0 6 -1.83301 8 -5.5s3 -7.83398 3 -12.501c0 -5.33301 -1 -9.83301 -3 -13.5s-4.66699 -5.5 -8 -5.5h-251c-2.66699 0 -5 1.83301 -7 5.5z" />
    <glyph glyph-name="degree" unicode="&#xb0;" horiz-adv-x="332" 
d="M67.5 410c-25.667 24.667 -38.5 55.668 -38.5 93.001c0 35.333 12.833 65.333 38.5 90s58.834 37 99.501 37s73.5 -12.333 98.5 -37s37.5 -55.334 37.5 -92.001s-12.5 -67.167 -37.5 -91.5s-57.833 -36.5 -98.5 -36.5s-73.834 12.333 -99.501 37zM217 413.001
c6.66699 17.333 10.001 44.333 10.001 81c0 41.333 -5.33301 72 -16 92s-27.334 30 -50.001 30c-21.333 0 -35.833 -9.33301 -43.5 -28s-11.5 -46 -11.5 -82c0 -38 5 -67.333 15 -88s27.667 -31 53 -31c22 0 36.333 8.66699 43 26z" />
    <glyph glyph-name="plusminus" unicode="&#xb1;" horiz-adv-x="398" 
d="M30.5 8.5c-1 5 -1.5 10.166 -1.5 15.499c0 4.66699 0.5 9.16699 1.5 13.5s1.83301 6.5 2.5 6.5h331c1.33301 0 2.5 -2.16699 3.5 -6.5s1.5 -9.16602 1.5 -14.499s-0.5 -10.333 -1.5 -15s-2.16699 -7 -3.5 -7h-330c-1.33301 0 -2.5 2.5 -3.5 7.5zM30.5 235.999
c-1 5.33301 -1.5 11.333 -1.5 18c0 6 0.333008 11.333 1 16s1.66699 7 3 7h331c1.33301 0 2.5 -2.5 3.5 -7.5s1.5 -10.5 1.5 -16.5s-0.5 -11.667 -1.5 -17s-2.16699 -8 -3.5 -8h-330c-1.33301 0 -2.5 2.66699 -3.5 8zM215 84.499c-5.33301 -1 -11.333 -1.5 -18 -1.5
c-6 0 -11.333 0.333008 -16 1s-7 1.66699 -7 3v331c0 2.66699 8.33301 4 25 4c16 0 24 -1.33301 24 -4v-330c0 -1.33301 -2.66699 -2.5 -8 -3.5z" />
    <glyph glyph-name="uni00B2" unicode="&#xb2;" horiz-adv-x="253" 
d="M50 488.5c12 19.667 27.0059 39.4971 45.0059 59.4971c16 18 27.5 33.333 34.5 46s10.5 29.334 10.5 50.001c0 38.667 -13.667 58 -41 58c-14.667 0 -27.5 -4.66699 -38.5 -14s-18.833 -21.666 -23.5 -36.999c0 -1.33301 -1.33301 -2 -4 -2c-2 0 -3.83301 0.5 -5.5 1.5
s-2.16699 2.16699 -1.5 3.5c7.33301 23.333 18.666 41.833 33.999 55.5s37.666 20.5 66.999 20.5s51.333 -6.83301 66 -20.5s22 -31.5 22 -53.5s-6.66699 -40.833 -20 -56.5s-33 -33.167 -59 -52.5c-20.667 -15.333 -36.834 -28.666 -48.501 -39.999
s-19.834 -24.333 -24.501 -39c-0.666992 -2.66699 0 -4 2 -4c41.333 0 72.166 1 92.499 3s34.666 5.83301 42.999 11.5s12.5 14.167 12.5 25.5c0 1.33301 2 2 6 2s6 -0.666992 6 -2l-2 -96c0 -2.66699 -1.33301 -4 -4 -4h-196c-3.33301 0 -4.33301 1.66699 -3 5
c8 33.333 18 59.833 30 79.5z" />
    <glyph glyph-name="uni00B3" unicode="&#xb3;" horiz-adv-x="251" 
d="M198.5 556.5c20.333 -14.333 30.5 -33.8311 30.5 -58.498c0 -16 -4.33301 -31.833 -13 -47.5s-21.5 -28.667 -38.5 -39s-37.5 -15.5 -61.5 -15.5c-26 0 -46.333 6 -61 18s-26 29 -34 51c-0.666992 2.66699 1 4.5 5 5.5s6.33301 0.166992 7 -2.5
c6.66699 -14 15.834 -25 27.501 -33s24.5 -12 38.5 -12c15.333 0 28.166 5.66699 38.499 17s15.5 29.333 15.5 54c0 46.667 -25 70 -75 70c-3.33301 0 -4.83301 1.83301 -4.5 5.5s1.83301 5.5 4.5 5.5c20 0 35.333 6.16699 46 18.5s16 28.833 16 49.5
c0 19.333 -3.83301 33.333 -11.5 42s-17.834 13 -30.501 13c-14.667 0 -27.5 -4.83301 -38.5 -14.5s-17.833 -20.834 -20.5 -33.501c-1.33301 -1.33301 -3 -2 -5 -2s-3.83301 0.5 -5.5 1.5s-2.16699 2.16699 -1.5 3.5c6.66699 23.333 18.167 41.833 34.5 55.5
s38.166 20.5 65.499 20.5c28.667 0 50.667 -7 66 -21s23 -31.667 23 -53c0 -16 -4.66699 -30.667 -14 -44s-21.166 -23.833 -35.499 -31.5s-28.166 -11.834 -41.499 -12.501v11c28.667 0 53.167 -7.16699 73.5 -21.5z" />
    <glyph glyph-name="acute" unicode="&#xb4;" horiz-adv-x="212" 
d="M65 472c-2 0 -3.83203 0.499023 -5.49902 1.49902s-2.16699 1.83301 -1.5 2.5l33 240c1.33301 2.66699 12.333 5.83398 33 9.50098s38 5.5 52 5.5c9.33301 0 13.666 -1.33301 12.999 -4l-120 -253c0 -1.33301 -1.33301 -2 -4 -2z" />
    <glyph glyph-name="paragraph" unicode="&#xb6;" horiz-adv-x="657" 
d="M284.5 -177.5c-16.333 10.333 -24.5 25.168 -24.5 44.501c0 13.333 4.16699 24.166 12.5 32.499s20.833 12.5 37.5 12.5c18.667 0 30.834 -4.5 36.501 -13.5s9.5 -22.167 11.5 -39.5c1.33301 -11.333 3.16602 -19.666 5.49902 -24.999s7.16602 -8 14.499 -8
c13.333 0 22.5 12.833 27.5 38.5s7.5 73.5 7.5 143.5v117c-12.667 -2 -27.667 -3 -45 -3c-53.333 0 -103.666 8.66699 -150.999 26s-86.333 45.666 -117 84.999s-46 90.333 -46 153c0 79.333 25.5 139.5 76.5 180.5s121.5 61.5 211.5 61.5c20 0 41.333 -1 64 -3
c50 -2 78 -3 84 -3c13.333 0 32.666 0.666992 57.999 2l52 1c2 0 3 -2 3 -6s-1 -6 -3 -6c-28.667 0 -50.667 -7 -66 -21s-23 -34 -23 -60l1 -477c0 -86 -12.5 -148.833 -37.5 -188.5s-65.5 -59.5 -121.5 -59.5c-29.333 0 -52.166 5.16699 -68.499 15.5z" />
    <glyph glyph-name="periodcentered" unicode="&#xb7;" horiz-adv-x="195" 
d="M52.5 157.5c-11 11 -16.5 25.833 -16.5 44.5c0 17.333 5.5 31.333 16.5 42s25.833 16 44.5 16s33.167 -5.16699 43.5 -15.5s15.5 -24.5 15.5 -42.5c0 -19.333 -5.16699 -34.333 -15.5 -45s-24.833 -16 -43.5 -16s-33.5 5.5 -44.5 16.5z" />
    <glyph glyph-name="cedilla" unicode="&#xb8;" horiz-adv-x="232" 
d="M116 -32c0 -12.667 3.16895 -23.8311 9.50195 -33.498s16.5 -18.5 30.5 -26.5c17.333 -10.667 30.833 -21.834 40.5 -33.501s14.5 -26.5 14.5 -44.5c0 -28 -10.167 -52.5 -30.5 -73.5s-50.833 -31.5 -91.5 -31.5c-50 0 -75 16 -75 48c0 10 4 19 12 27s17.333 12 28 12
c12.667 0 21.667 -2.83301 27 -8.5s9.66602 -13.834 12.999 -24.501c3.33301 -10 7.16602 -17.5 11.499 -22.5s12.166 -7.5 23.499 -7.5c14.667 0 22 8 22 24c0 17.333 -6.16699 33 -18.5 47s-33.833 29.667 -64.5 47c-6 2 -9 6 -9 12c0 4.66699 1.33301 10 4 16
c10 24 20.667 51.667 32 83c0.666992 0.666992 3.33398 7.66699 8.00098 21l17 -1c-2.66699 -10 -4 -20 -4 -30z" />
    <glyph glyph-name="uni00B9" unicode="&#xb9;" horiz-adv-x="262" 
d="M35 409.5c0 3.66699 0.666016 5.5 1.99902 5.5c20.667 0 35.167 1.5 43.5 4.5s13.833 9 16.5 18s4 24.5 4 46.5v118c0 27.333 -1.33301 46 -4 56s-8.66699 15 -18 15c-7.33301 0 -22.666 -5 -45.999 -15h-1c-2.66699 0 -4.66699 1.66699 -6 5s-1 5.33301 1 6l136 60h2
c2 0 3.83301 -0.833008 5.5 -2.5s2.5 -3.16699 2.5 -4.5v-238c0 -22.667 1.16699 -38.5 3.5 -47.5s7.5 -14.833 15.5 -17.5s21.667 -4 41 -4c1.33301 0 2 -1.83301 2 -5.5s-0.666992 -5.5 -2 -5.5c-17.333 0 -31 0.333008 -41 1l-54 1l-58 -1
c-10.667 -0.666992 -25 -1 -43 -1c-1.33301 0 -2 1.83301 -2 5.5z" />
    <glyph glyph-name="ordmasculine" unicode="&#xba;" horiz-adv-x="325" 
d="M38.5 289c-1 4 -1.5 8.33398 -1.5 13.001c0 4 0.5 7.66699 1.5 11s1.83301 5 2.5 5h243c1.33301 0 2.5 -1.83301 3.5 -5.5s1.5 -7.5 1.5 -11.5c0 -4.66699 -0.5 -8.83398 -1.5 -12.501s-2.16699 -5.5 -3.5 -5.5h-242c-1.33301 0 -2.5 2 -3.5 6zM65.5 399.501
c-23.667 27 -35.5 59.833 -35.5 98.5c0 28.667 7 52.834 21 72.501s31.667 34.5 53 44.5s43.333 15 66 15c25.333 0 47.5 -6.33301 66.5 -19s33.667 -29.334 44 -50.001s15.5 -42.667 15.5 -66c0 -24.667 -6.33301 -47.5 -19 -68.5s-29.5 -37.5 -50.5 -49.5
s-43.833 -18 -68.5 -18c-38 0 -68.833 13.5 -92.5 40.5zM209.5 401.501c9 18.333 13.5 43.5 13.5 75.5c0 38.667 -6.83301 71.167 -20.5 97.5s-30.834 39.5 -51.501 39.5c-15.333 0 -27.166 -8.33301 -35.499 -25s-12.5 -40.667 -12.5 -72
c0 -38.667 6.66699 -72.167 20 -100.5s30 -42.5 50 -42.5c15.333 0 27.5 9.16699 36.5 27.5z" />
    <glyph glyph-name="guillemotright" unicode="&#xbb;" horiz-adv-x="475" 
d="M427 201c0 -4.66699 -1.66797 -8.66699 -5.00098 -12l-188 -149c0 -0.666992 -0.666992 -1 -2 -1s-2.66602 0.833008 -3.99902 2.5s-1.66602 3.16699 -0.999023 4.5l92 154l-92 156c-0.666992 1.33301 0.166016 3 2.49902 5s3.83301 2 4.5 0l188 -149
c3.33301 -3.33301 5 -7 5 -11zM255.999 201c0 -4.66699 -1.66797 -8.66699 -5.00098 -12l-188 -149c0 -0.666992 -0.666992 -1 -2 -1s-2.66602 0.833008 -3.99902 2.5s-1.66602 3.16699 -0.999023 4.5l93 154l-93 156c-0.666992 1.33301 0.166016 3 2.49902 5
s3.83301 2 4.5 0l188 -149c3.33301 -3.33301 5 -7 5 -11z" />
    <glyph glyph-name="onequarter" unicode="&#xbc;" horiz-adv-x="607" 
d="M35 314.5c0 3.66699 0.666016 5.5 1.99902 5.5c20.667 0 35.167 1.5 43.5 4.5s13.833 9 16.5 18s4 24.5 4 46.5v119c0 27.333 -1.33301 46 -4 56s-8.66699 15 -18 15c-4.66699 0 -11.167 -1.5 -19.5 -4.5s-17.166 -6.5 -26.499 -10.5h-2c-2 0 -3.66699 1.5 -5 4.5
s-1 4.83301 1 5.5l136 60h2c2 0 3.83301 -0.833008 5.5 -2.5s2.5 -3.16699 2.5 -4.5v-238c0 -22.667 1.16699 -38.5 3.5 -47.5s7.5 -14.833 15.5 -17.5s21.667 -4 41 -4c1.33301 0 2 -1.83301 2 -5.5s-0.666992 -5.5 -2 -5.5c-17.333 0 -31 0.333008 -41 1l-54 1l-58 -1
c-10.667 -0.666992 -25 -1 -43 -1c-1.33301 0 -2 1.83301 -2 5.5zM171.999 4c-10.667 5.33301 -15.666 8.66699 -14.999 10l279 616c1.33301 2.66699 7.33301 1.5 18 -3.5s15.667 -8.5 15 -10.5l-280 -617c-0.666992 -2 -6.33398 -0.333008 -17.001 5zM549 21.501
c1.33301 -3.66699 4.66602 -6.33301 9.99902 -8s14.333 -2.5 27 -2.5c0.666992 -1.33301 1 -3.33301 1 -6s-0.333008 -4.66699 -1 -6l-70 1l-88 -1c-0.666992 0 -1 2 -1 6s0.333008 6 1 6c15.333 0 26.333 0.666992 33 2s11.167 4 13.5 8s3.5 10.667 3.5 20v213l18 9
l-114 -151c-2 -2 -1.33301 -3 2 -3c44.667 0 99 1.33301 163 4l39 2c2 0 3 -4.33301 3 -13c0 -9.33301 -1 -14 -3 -14c-84 4 -162 6 -234 6c-2.66699 0 -4.66699 1.33301 -6 4s-1 5 1 7l166 215c2 2.66699 7.33301 4 16 4c4.66699 0 8.83398 -0.5 12.501 -1.5
s5.5 -2.16699 5.5 -3.5v-278c0 -9.33301 0.666992 -15.833 2 -19.5z" />
    <glyph glyph-name="onehalf" unicode="&#xbd;" horiz-adv-x="612" 
d="M35 314.5c0 3.66699 0.666016 5.5 1.99902 5.5c20.667 0 35.167 1.5 43.5 4.5s13.833 9 16.5 18s4 24.5 4 46.5v119c0 27.333 -1.33301 46 -4 56s-8.66699 15 -18 15c-4.66699 0 -11.167 -1.5 -19.5 -4.5s-17.166 -6.5 -26.499 -10.5h-2c-2 0 -3.66699 1.5 -5 4.5
s-1 4.83301 1 5.5l136 60h2c2 0 3.83301 -0.833008 5.5 -2.5s2.5 -3.16699 2.5 -4.5v-238c0 -22.667 1.16699 -38.5 3.5 -47.5s7.5 -14.833 15.5 -17.5s21.667 -4 41 -4c1.33301 0 2 -1.83301 2 -5.5s-0.666992 -5.5 -2 -5.5c-17.333 0 -31 0.333008 -41 1l-54 1l-58 -1
c-10.667 -0.666992 -25 -1 -43 -1c-1.33301 0 -2 1.83301 -2 5.5zM171.999 4c-10.667 5.33301 -15.666 8.66699 -14.999 10l279 616c1.33301 2.66699 7.33301 1.5 18 -3.5s15.667 -8.5 15 -10.5l-280 -617c-0.666992 -2 -6.33398 -0.333008 -17.001 5zM408.5 84.001
c11.667 19.333 26.8369 39.667 45.5039 61c15.333 16.667 26.666 31.667 33.999 45s11 30.333 11 51c0 38 -13.667 57 -41 57c-14.667 0 -27.5 -4.66699 -38.5 -14s-18.833 -21.333 -23.5 -36c0 -2 -1.33301 -3 -4 -3c-2 0 -3.83301 0.5 -5.5 1.5s-2.16699 2.16699 -1.5 3.5
c7.33301 23.333 18.666 41.833 33.999 55.5s37.666 20.5 66.999 20.5s51.333 -6.66699 66 -20s22 -31 22 -53s-6.66699 -40.833 -20 -56.5s-33 -33.167 -59 -52.5c-21.333 -16.667 -37.666 -30.5 -48.999 -41.5s-19.333 -23.833 -24 -38.5c-0.666992 -2 0 -3 2 -3
c41.333 0 72.166 1 92.499 3s34.666 5.83301 42.999 11.5s12.5 14.167 12.5 25.5c0 1.33301 2 2 6 2s6 -0.666992 6 -2l-2 -96c0 -3.33301 -1.33301 -5 -4 -5h-196c-2.66699 0 -3.66699 2 -3 6c8 32.667 17.833 58.667 29.5 78z" />
    <glyph glyph-name="threequarters" unicode="&#xbe;" horiz-adv-x="596" 
d="M198.5 462c20.333 -14 30.5 -33.332 30.5 -57.999c0 -16 -4.16699 -31.833 -12.5 -47.5s-21.166 -28.667 -38.499 -39s-38 -15.5 -62 -15.5c-26 0 -46.333 6 -61 18s-26 29 -34 51c-0.666992 2 1 3.5 5 4.5s6.33301 0.166992 7 -2.5
c6.66699 -14 15.834 -24.833 27.501 -32.5s24.5 -11.5 38.5 -11.5c15.333 0 28.166 5.5 38.499 16.5s15.5 28.833 15.5 53.5c0 46.667 -25 70 -75 70c-1.33301 0 -2.5 0.5 -3.5 1.5s-1.5 2.16699 -1.5 3.5s0.5 2.83301 1.5 4.5s2.16699 2.5 3.5 2.5
c20 0 35.333 6.16699 46 18.5s16 28.833 16 49.5c0 18.667 -3.83301 32.5 -11.5 41.5s-17.834 13.5 -30.501 13.5c-14 0 -26.667 -5 -38 -15s-18.333 -21 -21 -33c-0.666992 -2 -2.33398 -3 -5.00098 -3c-2 0 -3.83301 0.5 -5.5 1.5s-2.16699 2.16699 -1.5 3.5
c6.66699 23.333 18.167 41.833 34.5 55.5s38.166 20.5 65.499 20.5c28.667 0 50.667 -7 66 -21s23 -31.667 23 -53c0 -16 -4.66699 -30.5 -14 -43.5s-21.166 -23.333 -35.499 -31s-28.166 -11.834 -41.499 -12.501v10c28.667 0 53.167 -7 73.5 -21zM161 4.00098
c-10.667 5.33301 -15.666 8.66699 -14.999 10l279 616c1.33301 2.66699 7.33301 1.5 18 -3.5s15.667 -8.5 15 -10.5l-280 -617c-0.666992 -2 -6.33398 -0.333008 -17.001 5zM538.001 21.502c1.33301 -3.66699 4.66602 -6.33301 9.99902 -8s14.333 -2.5 27 -2.5
c0.666992 -1.33301 1 -3.33301 1 -6s-0.333008 -4.66699 -1 -6l-70 1l-88 -1c-0.666992 0 -1 2 -1 6s0.333008 6 1 6c15.333 0 26.333 0.666992 33 2s11.167 4 13.5 8s3.5 10.667 3.5 20v213l18 9l-114 -151c-2 -2 -1.33301 -3 2 -3c44.667 0 99 1.33301 163 4l39 2
c2 0 3 -4.33301 3 -13c0 -9.33301 -1 -14 -3 -14c-84 4 -162 6 -234 6c-2.66699 0 -4.66699 1.33301 -6 4s-1 5 1 7l166 215c2 2.66699 7.33301 4 16 4c4.66699 0 8.83398 -0.5 12.501 -1.5s5.5 -2.16699 5.5 -3.5v-278c0 -9.33301 0.666992 -15.833 2 -19.5z" />
    <glyph glyph-name="questiondown" unicode="&#xbf;" horiz-adv-x="327" 
d="M182 -245c4 7.33301 6.66797 17.3301 8.00098 29.9971c1.33301 18.667 5.83301 34.834 13.5 48.501s22.167 20.5 43.5 20.5c17.333 0 30 -4.66699 38 -14s12 -20.333 12 -33c0 -23.333 -12.833 -42.833 -38.5 -58.5s-57.834 -23.5 -96.501 -23.5
c-43.333 0 -79.833 10.333 -109.5 31s-44.5 50 -44.5 88c0 25.333 6.33301 46.166 19 62.499s31.334 34.5 56.001 54.5l22 18c20.667 18 35.667 36.833 45 56.5s14 41.834 14 66.501c0 10 -1.66699 27.667 -5 53c-0.666992 2 1.66602 3.66699 6.99902 5s8.33301 1 9 -1
c8 -18 14.333 -38.667 19 -62s7 -43 7 -59c0 -20 -3.16699 -36.5 -9.5 -49.5s-15.833 -27.5 -28.5 -43.5c-14 -17.333 -24.833 -34.166 -32.5 -50.499s-11.5 -37.5 -11.5 -63.5c0 -25.333 3.83301 -46.166 11.5 -62.499s18.167 -24.5 31.5 -24.5c9.33301 0 16 3.66699 20 11
zM218.501 344.497c11 -11 16.5 -25.833 16.5 -44.5c0 -17.333 -5.5 -31.333 -16.5 -42s-25.833 -16 -44.5 -16s-33.167 5.16699 -43.5 15.5s-15.5 24.5 -15.5 42.5c0 19.333 5.16699 34.333 15.5 45s24.833 16 43.5 16s33.5 -5.5 44.5 -16.5z" />
    <glyph glyph-name="Agrave" unicode="&#xc0;" horiz-adv-x="716" 
d="M186 257h288l7 -28h-310zM722 6c0 -4 -1.66797 -6.00195 -5.00098 -6.00195c-13.333 0 -34 0.666992 -62 2c-29.333 1.33301 -50.333 2 -63 2c-16.667 0 -37 -0.666992 -61 -2c-22.667 -1.33301 -40.667 -2 -54 -2c-2.66699 0 -4 2 -4 6s1.33301 6 4 6
c17.333 0 29.833 1.83301 37.5 5.5s11.5 10.167 11.5 19.5c0 11.333 -6.66699 30.333 -20 57l-203 401l49 86l-199 -439c-8.66699 -19.333 -13 -37.333 -13 -54c0 -24 8.5 -42.667 25.5 -56s39.833 -20 68.5 -20c3.33301 0 5 -2 5 -6s-1.66699 -6 -5 -6
c-12 0 -29.333 0.666992 -52 2c-25.333 1.33301 -47.333 2 -66 2c-18 0 -39.667 -0.666992 -65 -2c-22.667 -1.33301 -41 -2 -55 -2c-2.66699 0 -4 2 -4 6s1.33301 6 4 6c18.667 0 34.334 3.83301 47.001 11.5s25.334 21.334 38.001 41.001s27.667 48.834 45 87.501l217 477
c1.33301 2 4.33301 3 9 3c5.33301 0 8.33301 -1 9 -3l250 -492c23.333 -47.333 42.666 -80 57.999 -98s31.333 -27 48 -27c3.33301 0 5 -2 5 -6zM231.999 755.998c-8 1.33301 -4.16602 5.8291 11.501 13.4961s33.667 14.334 54 20.001s32.166 6.83398 35.499 3.50098l47 -40
c29.333 -25.333 55.333 -46.666 78 -63.999c2 -0.666992 3 -2 3 -4s-0.666992 -3.66699 -2 -5s-3 -1.66602 -5 -0.999023c-74.667 33.333 -148.667 59 -222 77z" />
    <glyph glyph-name="Aacute" unicode="&#xc1;" horiz-adv-x="716" 
d="M186 257h288l7 -28h-310zM722 6c0 -4 -1.66797 -6.00195 -5.00098 -6.00195c-13.333 0 -34 0.666992 -62 2c-29.333 1.33301 -50.333 2 -63 2c-16.667 0 -37 -0.666992 -61 -2c-22.667 -1.33301 -40.667 -2 -54 -2c-2.66699 0 -4 2 -4 6s1.33301 6 4 6
c17.333 0 29.833 1.83301 37.5 5.5s11.5 10.167 11.5 19.5c0 11.333 -6.66699 30.333 -20 57l-203 401l49 86l-199 -439c-8.66699 -19.333 -13 -37.333 -13 -54c0 -24 8.5 -42.667 25.5 -56s39.833 -20 68.5 -20c3.33301 0 5 -2 5 -6s-1.66699 -6 -5 -6
c-12 0 -29.333 0.666992 -52 2c-25.333 1.33301 -47.333 2 -66 2c-18 0 -39.667 -0.666992 -65 -2c-22.667 -1.33301 -41 -2 -55 -2c-2.66699 0 -4 2 -4 6s1.33301 6 4 6c18.667 0 34.334 3.83301 47.001 11.5s25.334 21.334 38.001 41.001s27.667 48.834 45 87.501l217 477
c1.33301 2 4.33301 3 9 3c5.33301 0 8.33301 -1 9 -3l250 -492c23.333 -47.333 42.666 -80 57.999 -98s31.333 -27 48 -27c3.33301 0 5 -2 5 -6zM255.999 677.998c-2.66699 0 -4.49902 1.49902 -5.49902 4.49902s-0.5 5.16699 1.5 6.5c20.667 14.667 49.667 38 87 70
c8.66699 8 21.667 19.333 39 34c3.33301 2.66699 15.166 1.16699 35.499 -4.5s38.333 -12.167 54 -19.5s19.5 -11.666 11.5 -12.999c-78.667 -20 -152.667 -46 -222 -78h-1z" />
    <glyph glyph-name="Acircumflex" unicode="&#xc2;" horiz-adv-x="716" 
d="M186 257h288l7 -28h-310zM722 6c0 -4 -1.66797 -6.00195 -5.00098 -6.00195c-13.333 0 -34 0.666992 -62 2c-29.333 1.33301 -50.333 2 -63 2c-16.667 0 -37 -0.666992 -61 -2c-22.667 -1.33301 -40.667 -2 -54 -2c-2.66699 0 -4 2 -4 6s1.33301 6 4 6
c17.333 0 29.833 1.83301 37.5 5.5s11.5 10.167 11.5 19.5c0 11.333 -6.66699 30.333 -20 57l-203 401l49 86l-199 -439c-8.66699 -19.333 -13 -37.333 -13 -54c0 -24 8.5 -42.667 25.5 -56s39.833 -20 68.5 -20c3.33301 0 5 -2 5 -6s-1.66699 -6 -5 -6
c-12 0 -29.333 0.666992 -52 2c-25.333 1.33301 -47.333 2 -66 2c-18 0 -39.667 -0.666992 -65 -2c-22.667 -1.33301 -41 -2 -55 -2c-2.66699 0 -4 2 -4 6s1.33301 6 4 6c18.667 0 34.334 3.83301 47.001 11.5s25.334 21.334 38.001 41.001s27.667 48.834 45 87.501l217 477
c1.33301 2 4.33301 3 9 3c5.33301 0 8.33301 -1 9 -3l250 -492c23.333 -47.333 42.666 -80 57.999 -98s31.333 -27 48 -27c3.33301 0 5 -2 5 -6zM353.999 805.998c4 0 7.66797 -1.66797 11.001 -5.00098l102 -116c0.666992 0 1 -0.666992 1 -2
s-0.833008 -2.66602 -2.5 -3.99902s-2.83398 -1.66602 -3.50098 -0.999023l-108 39l-109 -39c-1.33301 -0.666992 -3 0.166016 -5 2.49902s-2.33301 3.83301 -1 4.5l103 116c3.33301 3.33301 7.33301 5 12 5z" />
    <glyph glyph-name="Atilde" unicode="&#xc3;" horiz-adv-x="716" 
d="M186 257h288l7 -28h-310zM722 6c0 -4 -1.66797 -6.00195 -5.00098 -6.00195c-13.333 0 -34 0.666992 -62 2c-29.333 1.33301 -50.333 2 -63 2c-16.667 0 -37 -0.666992 -61 -2c-22.667 -1.33301 -40.667 -2 -54 -2c-2.66699 0 -4 2 -4 6s1.33301 6 4 6
c17.333 0 29.833 1.83301 37.5 5.5s11.5 10.167 11.5 19.5c0 11.333 -6.66699 30.333 -20 57l-203 401l49 86l-199 -439c-8.66699 -19.333 -13 -37.333 -13 -54c0 -24 8.5 -42.667 25.5 -56s39.833 -20 68.5 -20c3.33301 0 5 -2 5 -6s-1.66699 -6 -5 -6
c-12 0 -29.333 0.666992 -52 2c-25.333 1.33301 -47.333 2 -66 2c-18 0 -39.667 -0.666992 -65 -2c-22.667 -1.33301 -41 -2 -55 -2c-2.66699 0 -4 2 -4 6s1.33301 6 4 6c18.667 0 34.334 3.83301 47.001 11.5s25.334 21.334 38.001 41.001s27.667 48.834 45 87.501l217 477
c1.33301 2 4.33301 3 9 3c5.33301 0 8.33301 -1 9 -3l250 -492c23.333 -47.333 42.666 -80 57.999 -98s31.333 -27 48 -27c3.33301 0 5 -2 5 -6zM456.499 768.998c7 4 14.8369 10.999 23.5039 20.999l2 1c1.33301 0 2.66602 -1 3.99902 -3s1.66602 -3.66699 0.999023 -5
c-18 -32 -32.5 -53.333 -43.5 -64s-24.167 -16 -39.5 -16c-12.667 0 -31.334 3.66699 -56.001 11c-11.333 3.33301 -23 6.33301 -35 9s-23.333 4 -34 4c-12.667 0 -21.667 -1.66699 -27 -5s-13.333 -10.666 -24 -21.999h-1c-2 0 -3.83301 0.833008 -5.5 2.5
s-1.83398 3.16699 -0.500977 4.5c30 54 59 81 87 81c7.33301 0 23 -3.33301 47 -10c12 -4 24.667 -7.5 38 -10.5s25.333 -4.5 36 -4.5c11.333 0 20.5 2 27.5 6z" />
    <glyph glyph-name="Adieresis" unicode="&#xc4;" horiz-adv-x="716" 
d="M186 257h288l7 -28h-310zM722 6c0 -4 -1.66797 -6.00195 -5.00098 -6.00195c-13.333 0 -34 0.666992 -62 2c-29.333 1.33301 -50.333 2 -63 2c-16.667 0 -37 -0.666992 -61 -2c-22.667 -1.33301 -40.667 -2 -54 -2c-2.66699 0 -4 2 -4 6s1.33301 6 4 6
c17.333 0 29.833 1.83301 37.5 5.5s11.5 10.167 11.5 19.5c0 11.333 -6.66699 30.333 -20 57l-203 401l49 86l-199 -439c-8.66699 -19.333 -13 -37.333 -13 -54c0 -24 8.5 -42.667 25.5 -56s39.833 -20 68.5 -20c3.33301 0 5 -2 5 -6s-1.66699 -6 -5 -6
c-12 0 -29.333 0.666992 -52 2c-25.333 1.33301 -47.333 2 -66 2c-18 0 -39.667 -0.666992 -65 -2c-22.667 -1.33301 -41 -2 -55 -2c-2.66699 0 -4 2 -4 6s1.33301 6 4 6c18.667 0 34.334 3.83301 47.001 11.5s25.334 21.334 38.001 41.001s27.667 48.834 45 87.501l217 477
c1.33301 2 4.33301 3 9 3c5.33301 0 8.33301 -1 9 -3l250 -492c23.333 -47.333 42.666 -80 57.999 -98s31.333 -27 48 -27c3.33301 0 5 -2 5 -6zM227.499 717.498c-9.66699 9.66699 -14.5 23.167 -14.5 40.5c0 16 5 28.667 15 38s23.333 14 40 14s29.5 -4.66699 38.5 -14
s13.5 -22 13.5 -38c0 -17.333 -4.5 -30.833 -13.5 -40.5s-21.833 -14.5 -38.5 -14.5c-17.333 0 -30.833 4.83301 -40.5 14.5zM401.999 717.498c-9.33301 9.66699 -14.002 23.167 -14.002 40.5c0 16 4.83301 28.5 14.5 37.5s22.834 13.5 39.501 13.5s29.5 -4.5 38.5 -13.5
s13.5 -21.5 13.5 -37.5c0 -17.333 -4.5 -30.833 -13.5 -40.5s-21.833 -14.5 -38.5 -14.5c-17.333 0 -30.666 4.83301 -39.999 14.5z" />
    <glyph glyph-name="Aring" unicode="&#xc5;" horiz-adv-x="716" 
d="M186 257h288l7 -28h-310zM722 6c0 -4 -1.66797 -6.00195 -5.00098 -6.00195c-13.333 0 -34 0.666992 -62 2c-29.333 1.33301 -50.333 2 -63 2c-16.667 0 -37 -0.666992 -61 -2c-22.667 -1.33301 -40.667 -2 -54 -2c-2.66699 0 -4 2 -4 6s1.33301 6 4 6
c17.333 0 29.833 1.83301 37.5 5.5s11.5 10.167 11.5 19.5c0 11.333 -6.66699 30.333 -20 57l-203 401l49 86l-199 -439c-8.66699 -19.333 -13 -37.333 -13 -54c0 -24 8.5 -42.667 25.5 -56s39.833 -20 68.5 -20c3.33301 0 5 -2 5 -6s-1.66699 -6 -5 -6
c-12 0 -29.333 0.666992 -52 2c-25.333 1.33301 -47.333 2 -66 2c-18 0 -39.667 -0.666992 -65 -2c-22.667 -1.33301 -41 -2 -55 -2c-2.66699 0 -4 2 -4 6s1.33301 6 4 6c18.667 0 34.334 3.83301 47.001 11.5s25.334 21.334 38.001 41.001s27.667 48.834 45 87.501l217 477
c1.33301 2 4.33301 3 9 3c5.33301 0 8.33301 -1 9 -3l250 -492c23.333 -47.333 42.666 -80 57.999 -98s31.333 -27 48 -27c3.33301 0 5 -2 5 -6zM267.999 683.498c-19.333 15.667 -29 34.167 -29 55.5c0 24 11.833 42.833 35.5 56.5s50.5 20.5 80.5 20.5
c29.333 0 54.333 -7.66699 75 -23s31 -34 31 -56c0 -23.333 -11.667 -42 -35 -56s-50 -21 -80 -21c-32.667 0 -58.667 7.83301 -78 23.5zM387.999 718.998c0 22.667 -5.16699 42.167 -15.5 58.5s-22.833 24.5 -37.5 24.5c-15.333 0 -23 -14.333 -23 -43
c0 -22 4.33301 -41.667 13 -59s20.667 -26 36 -26c18 0 27 15 27 45z" />
    <glyph glyph-name="AE" unicode="&#xc6;" horiz-adv-x="888" 
d="M-12 6c0 4 1.66699 5.99707 5 5.99707c28 0 53.5 9 76.5 27s48.833 49 77.5 93l288 442c8.66699 12 13 20.333 13 25c0 6 -5.5 9.83301 -16.5 11.5s-31.167 2.5 -60.5 2.5c-2 0 -3 2 -3 6s1 6 3 6h430c6.66699 0 10 -3 10 -9l2 -133
c0 -1.33301 -1.83301 -2.33301 -5.5 -3s-5.83398 0 -6.50098 2c-4 15.333 -13 32 -27 50s-31.167 33.167 -51.5 45.5s-41.833 18.5 -64.5 18.5h-42c-19.333 0 -33.666 -4.33301 -42.999 -13s-14 -22 -14 -40v-458c0 -19.333 3.66699 -33.666 11 -42.999s19 -14 35 -14h44
c24.667 0 49.834 6 75.501 18s48.167 28.167 67.5 48.5s32.666 41.833 39.999 64.5c0 1.33301 1 2 3 2s3.83301 -0.333008 5.5 -1s2.5 -1.66699 2.5 -3c-6 -58.667 -9 -106 -9 -142c0 -5.33301 -1.16699 -9.16602 -3.5 -11.499s-6.16602 -3.5 -11.499 -3.5h-437
c-1.33301 0 -2 2 -2 6s0.666992 6 2 6c21.333 0 36.833 1.66699 46.5 5s16.334 9.83301 20.001 19.5s5.5 24.5 5.5 44.5v508l36 15l-296 -466c-17.333 -26.667 -26 -50.667 -26 -72c0 -17.333 6.33301 -30.666 19 -39.999s31 -14 55 -14c3.33301 0 5 -2 5 -6
s-1.66699 -6 -5 -6c-14 0 -34.333 0.666992 -61 2c-30.667 1.33301 -57.334 2 -80.001 2c-16.667 0 -36.334 -0.666992 -59.001 -2c-20 -1.33301 -36.333 -2 -49 -2c-3.33301 0 -5 2 -5 6zM305 338.997h230l7 -28h-252zM731.5 287.497c-21 15.667 -51.167 23.5 -90.5 23.5
h-159v28h160c38.667 0 68.167 6.66699 88.5 20s30.5 32 30.5 56c0 2 2 3 6 3s6 -1 6 -3l-1 -90c0 -21.333 0.333008 -37.333 1 -48l1 -54c0 -1.33301 -1.83301 -2 -5.5 -2s-5.5 0.666992 -5.5 2c0 27.333 -10.5 48.833 -31.5 64.5z" />
    <glyph glyph-name="Ccedilla" unicode="&#xc7;" horiz-adv-x="681" 
d="M522.5 628.5c32.333 -5 58.165 -11.502 77.498 -19.502c6 -2 9.83301 -4.5 11.5 -7.5s2.83398 -8.16699 3.50098 -15.5l13 -139c0 -2 -1.66699 -3.33301 -5 -4s-5.66602 0.333008 -6.99902 3c-18.667 54.667 -45.334 96.5 -80.001 125.5s-76.334 43.5 -125.001 43.5
c-45.333 0 -85.833 -12.167 -121.5 -36.5s-63.667 -59.166 -84 -104.499s-30.5 -98.333 -30.5 -159c0 -61.333 10.5 -115.166 31.5 -161.499s50 -82 87 -107s79.5 -37.5 127.5 -37.5c46 0 84.667 12.5 116 37.5s61 66.167 89 123.5c0.666992 2 2.66699 2.66699 6 2
s5 -2 5 -4l-15 -124c-1.33301 -8 -2.66602 -13.167 -3.99902 -15.5s-5 -4.83301 -11 -7.5c-61.333 -22 -123.333 -33 -186 -33c-71.333 0 -135.166 13.5 -191.499 40.5s-100.5 64.833 -132.5 113.5s-48 104 -48 166c0 63.333 16.5 119.833 49.5 169.5s78.333 88.5 136 116.5
s121.834 42 192.501 42c31.333 0 63.166 -2.5 95.499 -7.5zM413.999 -32.002c0 -12.667 3.16895 -23.8311 9.50195 -33.498s16.5 -18.5 30.5 -26.5c17.333 -10.667 30.833 -21.834 40.5 -33.501s14.5 -26.5 14.5 -44.5c0 -28 -10.167 -52.5 -30.5 -73.5
s-50.833 -31.5 -91.5 -31.5c-50 0 -75 16 -75 48c0 10 4 19 12 27s17.333 12 28 12c12.667 0 21.667 -2.83301 27 -8.5s9.66602 -13.834 12.999 -24.501c3.33301 -10 7.16602 -17.5 11.499 -22.5s12.166 -7.5 23.499 -7.5c14.667 0 22 8 22 24
c0 17.333 -6.16699 33 -18.5 47s-33.833 29.667 -64.5 47c-6 2 -9 6 -9 12c0 4.66699 1.33301 10 4 16c10 24 20.667 51.667 32 83c0.666992 0.666992 3.33398 7.66699 8.00098 21l17 -1c-2.66699 -10 -4 -20 -4 -30z" />
    <glyph glyph-name="Egrave" unicode="&#xc8;" horiz-adv-x="552" 
d="M38 6c0 4 1 5.99707 3 5.99707c21.333 0 36.833 1.66699 46.5 5s16.167 9.83301 19.5 19.5s5 24.5 5 44.5v463c0 20 -1.66699 34.667 -5 44s-10 15.833 -20 19.5s-25.333 5.5 -46 5.5c-2 0 -3 2 -3 6s1 6 3 6h424c6.66699 0 10 -3 10 -9l2 -133
c0 -1.33301 -1.83301 -2.33301 -5.5 -3s-5.83398 0 -6.50098 2c-10.667 38.667 -28.667 67.334 -54 86.001s-58.666 28 -99.999 28h-30c-20 0 -34.667 -4.33301 -44 -13s-14 -22 -14 -40v-458c0 -19.333 3.66699 -33.666 11 -42.999s19 -14 35 -14h33
c52 0 93.667 10.667 125 32s54.333 54.333 69 99c0 1.33301 1.33301 2 4 2c2 0 3.83301 -0.5 5.5 -1.5s2.5 -1.83301 2.5 -2.5c-6.66699 -52 -10 -99.333 -10 -142c0 -5.33301 -1 -9.16602 -3 -11.499s-6 -3.5 -12 -3.5h-442c-2 0 -3 2 -3 6zM395.5 287.497
c-21 15.667 -51.168 23.5 -90.501 23.5h-135v28h136c38.667 0 68.334 6.66699 89.001 20s31 32 31 56c0 2 1.83301 3 5.5 3s5.5 -1 5.5 -3l-1 -90l1 -48c1.33301 -22.667 2 -40.667 2 -54c0 -1.33301 -2 -2 -6 -2s-6 0.666992 -6 2c0 27.333 -10.5 48.833 -31.5 64.5z
M175.999 755.997c-8 1.33301 -4.16602 5.8291 11.501 13.4961s33.667 14.334 54 20.001s32.166 6.83398 35.499 3.50098l47 -40c29.333 -25.333 55.333 -46.666 78 -63.999c2 -0.666992 3 -2 3 -4s-0.666992 -3.66699 -2 -5s-3 -1.66602 -5 -0.999023
c-74.667 33.333 -148.667 59 -222 77z" />
    <glyph glyph-name="Eacute" unicode="&#xc9;" horiz-adv-x="552" 
d="M38 6c0 4 1 5.99707 3 5.99707c21.333 0 36.833 1.66699 46.5 5s16.167 9.83301 19.5 19.5s5 24.5 5 44.5v463c0 20 -1.66699 34.667 -5 44s-10 15.833 -20 19.5s-25.333 5.5 -46 5.5c-2 0 -3 2 -3 6s1 6 3 6h424c6.66699 0 10 -3 10 -9l2 -133
c0 -1.33301 -1.83301 -2.33301 -5.5 -3s-5.83398 0 -6.50098 2c-10.667 38.667 -28.667 67.334 -54 86.001s-58.666 28 -99.999 28h-30c-20 0 -34.667 -4.33301 -44 -13s-14 -22 -14 -40v-458c0 -19.333 3.66699 -33.666 11 -42.999s19 -14 35 -14h33
c52 0 93.667 10.667 125 32s54.333 54.333 69 99c0 1.33301 1.33301 2 4 2c2 0 3.83301 -0.5 5.5 -1.5s2.5 -1.83301 2.5 -2.5c-6.66699 -52 -10 -99.333 -10 -142c0 -5.33301 -1 -9.16602 -3 -11.499s-6 -3.5 -12 -3.5h-442c-2 0 -3 2 -3 6zM395.5 287.497
c-21 15.667 -51.168 23.5 -90.501 23.5h-135v28h136c38.667 0 68.334 6.66699 89.001 20s31 32 31 56c0 2 1.83301 3 5.5 3s5.5 -1 5.5 -3l-1 -90l1 -48c1.33301 -22.667 2 -40.667 2 -54c0 -1.33301 -2 -2 -6 -2s-6 0.666992 -6 2c0 27.333 -10.5 48.833 -31.5 64.5z
M198.999 677.997c-2.66699 0 -4.33301 1.50195 -5 4.50195s0 5.16699 2 6.5c19.333 14 46.333 36 81 66c20 17.333 35 30 45 38c3.33301 3.33301 15.166 2.16602 35.499 -3.50098s38.333 -12.334 54 -20.001s19.5 -12.167 11.5 -13.5
c-41.333 -10 -79.166 -21.167 -113.499 -33.5s-70.5 -26.833 -108.5 -43.5z" />
    <glyph glyph-name="Ecircumflex" unicode="&#xca;" horiz-adv-x="552" 
d="M38 6c0 4 1 5.99707 3 5.99707c21.333 0 36.833 1.66699 46.5 5s16.167 9.83301 19.5 19.5s5 24.5 5 44.5v463c0 20 -1.66699 34.667 -5 44s-10 15.833 -20 19.5s-25.333 5.5 -46 5.5c-2 0 -3 2 -3 6s1 6 3 6h424c6.66699 0 10 -3 10 -9l2 -133
c0 -1.33301 -1.83301 -2.33301 -5.5 -3s-5.83398 0 -6.50098 2c-10.667 38.667 -28.667 67.334 -54 86.001s-58.666 28 -99.999 28h-30c-20 0 -34.667 -4.33301 -44 -13s-14 -22 -14 -40v-458c0 -19.333 3.66699 -33.666 11 -42.999s19 -14 35 -14h33
c52 0 93.667 10.667 125 32s54.333 54.333 69 99c0 1.33301 1.33301 2 4 2c2 0 3.83301 -0.5 5.5 -1.5s2.5 -1.83301 2.5 -2.5c-6.66699 -52 -10 -99.333 -10 -142c0 -5.33301 -1 -9.16602 -3 -11.499s-6 -3.5 -12 -3.5h-442c-2 0 -3 2 -3 6zM395.5 287.497
c-21 15.667 -51.168 23.5 -90.501 23.5h-135v28h136c38.667 0 68.334 6.66699 89.001 20s31 32 31 56c0 2 1.83301 3 5.5 3s5.5 -1 5.5 -3l-1 -90l1 -48c1.33301 -22.667 2 -40.667 2 -54c0 -1.33301 -2 -2 -6 -2s-6 0.666992 -6 2c0 27.333 -10.5 48.833 -31.5 64.5z
M298.999 822.997c4 0 7.66797 -1.66797 11.001 -5.00098l102 -116c0.666992 0 1 -0.666992 1 -2s-0.833008 -2.66602 -2.5 -3.99902s-2.83398 -1.66602 -3.50098 -0.999023l-108 39l-109 -39c-1.33301 -0.666992 -3 0.166016 -5 2.49902s-2.33301 3.83301 -1 4.5l103 116
c3.33301 3.33301 7.33301 5 12 5z" />
    <glyph glyph-name="Edieresis" unicode="&#xcb;" horiz-adv-x="552" 
d="M38 6c0 4 1 5.99707 3 5.99707c21.333 0 36.833 1.66699 46.5 5s16.167 9.83301 19.5 19.5s5 24.5 5 44.5v463c0 20 -1.66699 34.667 -5 44s-10 15.833 -20 19.5s-25.333 5.5 -46 5.5c-2 0 -3 2 -3 6s1 6 3 6h424c6.66699 0 10 -3 10 -9l2 -133
c0 -1.33301 -1.83301 -2.33301 -5.5 -3s-5.83398 0 -6.50098 2c-10.667 38.667 -28.667 67.334 -54 86.001s-58.666 28 -99.999 28h-30c-20 0 -34.667 -4.33301 -44 -13s-14 -22 -14 -40v-458c0 -19.333 3.66699 -33.666 11 -42.999s19 -14 35 -14h33
c52 0 93.667 10.667 125 32s54.333 54.333 69 99c0 1.33301 1.33301 2 4 2c2 0 3.83301 -0.5 5.5 -1.5s2.5 -1.83301 2.5 -2.5c-6.66699 -52 -10 -99.333 -10 -142c0 -5.33301 -1 -9.16602 -3 -11.499s-6 -3.5 -12 -3.5h-442c-2 0 -3 2 -3 6zM395.5 287.497
c-21 15.667 -51.168 23.5 -90.501 23.5h-135v28h136c38.667 0 68.334 6.66699 89.001 20s31 32 31 56c0 2 1.83301 3 5.5 3s5.5 -1 5.5 -3l-1 -90l1 -48c1.33301 -22.667 2 -40.667 2 -54c0 -1.33301 -2 -2 -6 -2s-6 0.666992 -6 2c0 27.333 -10.5 48.833 -31.5 64.5z
M171.499 717.497c-9.66699 9.66699 -14.5 23.167 -14.5 40.5c0 16 5 28.667 15 38s23.333 14 40 14s29.5 -4.66699 38.5 -14s13.5 -22 13.5 -38c0 -17.333 -4.5 -30.833 -13.5 -40.5s-21.833 -14.5 -38.5 -14.5c-17.333 0 -30.833 4.83301 -40.5 14.5zM345.999 717.497
c-9.33301 9.66699 -14.002 23.167 -14.002 40.5c0 16 4.83301 28.5 14.5 37.5s22.834 13.5 39.501 13.5s29.5 -4.5 38.5 -13.5s13.5 -21.5 13.5 -37.5c0 -17.333 -4.5 -30.833 -13.5 -40.5s-21.833 -14.5 -38.5 -14.5c-17.333 0 -30.666 4.83301 -39.999 14.5z" />
    <glyph glyph-name="Igrave" unicode="&#xcc;" horiz-adv-x="342" 
d="M232 36c3.33301 -9.33301 9.83105 -15.667 19.498 -19s25.167 -5 46.5 -5c2 0 3 -2 3 -6s-1 -6 -3 -6c-22 -0 -39.333 0.333008 -52 1l-76 1l-74 -1c-13.333 -0.666992 -31.333 -1 -54 -1c-1.33301 0 -2 2 -2 6s0.666992 6 2 6c21.333 0 37 1.66699 47 5
s16.833 9.83301 20.5 19.5s5.5 24.5 5.5 44.5v463c0 20 -1.83301 34.667 -5.5 44s-10.5 15.833 -20.5 19.5s-25.667 5.5 -47 5.5c-1.33301 0 -2 2 -2 6s0.666992 6 2 6l54 -1c30.667 -1.33301 55.334 -2 74.001 -2c20.667 0 46.334 0.666992 77.001 2l51 1c2 0 3 -2 3 -6
s-1 -6 -3 -6c-20.667 0 -36 -2 -46 -6s-16.667 -10.833 -20 -20.5s-5 -24.5 -5 -44.5v-461c0 -20.667 1.66699 -35.667 5 -45zM48.998 755.999c-8 1.33301 -4.16602 5.8291 11.501 13.4961s33.667 14.334 54 20.001s32.166 6.83398 35.499 3.50098l47 -40
c29.333 -25.333 55.333 -46.666 78 -63.999c2 -0.666992 3 -2 3 -4s-0.666992 -3.66699 -2 -5s-3 -1.66602 -5 -0.999023c-74.667 33.333 -148.667 59 -222 77z" />
    <glyph glyph-name="Iacute" unicode="&#xcd;" horiz-adv-x="342" 
d="M232 36c3.33301 -9.33301 9.83105 -15.667 19.498 -19s25.167 -5 46.5 -5c2 0 3 -2 3 -6s-1 -6 -3 -6c-22 -0 -39.333 0.333008 -52 1l-76 1l-74 -1c-13.333 -0.666992 -31.333 -1 -54 -1c-1.33301 0 -2 2 -2 6s0.666992 6 2 6c21.333 0 37 1.66699 47 5
s16.833 9.83301 20.5 19.5s5.5 24.5 5.5 44.5v463c0 20 -1.83301 34.667 -5.5 44s-10.5 15.833 -20.5 19.5s-25.667 5.5 -47 5.5c-1.33301 0 -2 2 -2 6s0.666992 6 2 6l54 -1c30.667 -1.33301 55.334 -2 74.001 -2c20.667 0 46.334 0.666992 77.001 2l51 1c2 0 3 -2 3 -6
s-1 -6 -3 -6c-20.667 0 -36 -2 -46 -6s-16.667 -10.833 -20 -20.5s-5 -24.5 -5 -44.5v-461c0 -20.667 1.66699 -35.667 5 -45zM71.998 677.999c-2.66699 0 -4.33301 1.50195 -5 4.50195s0 5.16699 2 6.5c19.333 14 46.333 36 81 66c20 17.333 35 30 45 38
c3.33301 3.33301 15.166 2.16602 35.499 -3.50098s38.333 -12.334 54 -20.001s19.5 -12.167 11.5 -13.5c-41.333 -10 -79.166 -21.167 -113.499 -33.5s-70.5 -26.833 -108.5 -43.5z" />
    <glyph glyph-name="Icircumflex" unicode="&#xce;" horiz-adv-x="342" 
d="M232 36c3.33301 -9.33301 9.83105 -15.667 19.498 -19s25.167 -5 46.5 -5c2 0 3 -2 3 -6s-1 -6 -3 -6c-22 -0 -39.333 0.333008 -52 1l-76 1l-74 -1c-13.333 -0.666992 -31.333 -1 -54 -1c-1.33301 0 -2 2 -2 6s0.666992 6 2 6c21.333 0 37 1.66699 47 5
s16.833 9.83301 20.5 19.5s5.5 24.5 5.5 44.5v463c0 20 -1.83301 34.667 -5.5 44s-10.5 15.833 -20.5 19.5s-25.667 5.5 -47 5.5c-1.33301 0 -2 2 -2 6s0.666992 6 2 6l54 -1c30.667 -1.33301 55.334 -2 74.001 -2c20.667 0 46.334 0.666992 77.001 2l51 1c2 0 3 -2 3 -6
s-1 -6 -3 -6c-20.667 0 -36 -2 -46 -6s-16.667 -10.833 -20 -20.5s-5 -24.5 -5 -44.5v-461c0 -20.667 1.66699 -35.667 5 -45zM171.998 822.999c4 0 7.66797 -1.66797 11.001 -5.00098l102 -116c0.666992 0 1 -0.666992 1 -2s-0.833008 -2.66602 -2.5 -3.99902
s-2.83398 -1.66602 -3.50098 -0.999023l-108 39l-109 -39c-1.33301 -0.666992 -3 0.166016 -5 2.49902s-2.33301 3.83301 -1 4.5l103 116c3.33301 3.33301 7.33301 5 12 5z" />
    <glyph glyph-name="Idieresis" unicode="&#xcf;" horiz-adv-x="342" 
d="M232 36c3.33301 -9.33301 9.83105 -15.667 19.498 -19s25.167 -5 46.5 -5c2 0 3 -2 3 -6s-1 -6 -3 -6c-22 -0 -39.333 0.333008 -52 1l-76 1l-74 -1c-13.333 -0.666992 -31.333 -1 -54 -1c-1.33301 0 -2 2 -2 6s0.666992 6 2 6c21.333 0 37 1.66699 47 5
s16.833 9.83301 20.5 19.5s5.5 24.5 5.5 44.5v463c0 20 -1.83301 34.667 -5.5 44s-10.5 15.833 -20.5 19.5s-25.667 5.5 -47 5.5c-1.33301 0 -2 2 -2 6s0.666992 6 2 6l54 -1c30.667 -1.33301 55.334 -2 74.001 -2c20.667 0 46.334 0.666992 77.001 2l51 1c2 0 3 -2 3 -6
s-1 -6 -3 -6c-20.667 0 -36 -2 -46 -6s-16.667 -10.833 -20 -20.5s-5 -24.5 -5 -44.5v-461c0 -20.667 1.66699 -35.667 5 -45zM54.498 717.499c-9.66699 9.66699 -14.5 23.167 -14.5 40.5c0 16 5 28.667 15 38s23.333 14 40 14s29.667 -4.66699 39 -14s14 -22 14 -38
c0 -17.333 -4.66699 -30.833 -14 -40.5s-22.333 -14.5 -39 -14.5c-17.333 0 -30.833 4.83301 -40.5 14.5zM207.998 717.499c-9.33301 9.66699 -14 23.167 -14 40.5c0 16 4.66699 28.5 14 37.5s22.333 13.5 39 13.5s29.5 -4.5 38.5 -13.5s13.5 -21.5 13.5 -37.5
c0 -17.333 -4.5 -30.833 -13.5 -40.5s-21.833 -14.5 -38.5 -14.5s-29.667 4.83301 -39 14.5z" />
    </font>
</defs>
</svg>
