<svg width="30" height="30" viewBox="0 0 30 30" fill="none" xmlns="http://www.w3.org/2000/svg">
<circle cx="15" cy="15" r="15" fill="#B84C74"/>
<path d="M1.88068 19V11.7273H2.76136V18.2188H6.14205V19H1.88068ZM13.3588 15.3636C13.3588 16.1307 13.2203 16.7936 12.9434 17.3523C12.6664 17.911 12.2864 18.3419 11.8034 18.6449C11.3205 18.9479 10.7689 19.0994 10.1486 19.0994C9.52835 19.0994 8.97674 18.9479 8.49379 18.6449C8.01083 18.3419 7.63086 17.911 7.35387 17.3523C7.07688 16.7936 6.93839 16.1307 6.93839 15.3636C6.93839 14.5966 7.07688 13.9337 7.35387 13.375C7.63086 12.8163 8.01083 12.3854 8.49379 12.0824C8.97674 11.7794 9.52835 11.6278 10.1486 11.6278C10.7689 11.6278 11.3205 11.7794 11.8034 12.0824C12.2864 12.3854 12.6664 12.8163 12.9434 13.375C13.2203 13.9337 13.3588 14.5966 13.3588 15.3636ZM12.5066 15.3636C12.5066 14.7339 12.4012 14.2024 12.1905 13.7692C11.9822 13.3359 11.6993 13.008 11.3418 12.7855C10.9867 12.563 10.589 12.4517 10.1486 12.4517C9.70827 12.4517 9.30936 12.563 8.95188 12.7855C8.59677 13.008 8.31386 13.3359 8.10316 13.7692C7.89483 14.2024 7.79066 14.7339 7.79066 15.3636C7.79066 15.9934 7.89483 16.5249 8.10316 16.9581C8.31386 17.3913 8.59677 17.7192 8.95188 17.9418C9.30936 18.1643 9.70827 18.2756 10.1486 18.2756C10.589 18.2756 10.9867 18.1643 11.3418 17.9418C11.6993 17.7192 11.9822 17.3913 12.1905 16.9581C12.4012 16.5249 12.5066 15.9934 12.5066 15.3636ZM19.8113 14C19.7331 13.7609 19.6301 13.5466 19.5023 13.3572C19.3768 13.1655 19.2265 13.0021 19.0513 12.8672C18.8785 12.7322 18.682 12.6293 18.4618 12.5582C18.2417 12.4872 18.0002 12.4517 17.7374 12.4517C17.3065 12.4517 16.9147 12.563 16.562 12.7855C16.2092 13.008 15.9287 13.3359 15.7203 13.7692C15.512 14.2024 15.4078 14.7339 15.4078 15.3636C15.4078 15.9934 15.5132 16.5249 15.7239 16.9581C15.9346 17.3913 16.2199 17.7192 16.5797 17.9418C16.9396 18.1643 17.3444 18.2756 17.7942 18.2756C18.2109 18.2756 18.5778 18.1868 18.8951 18.0092C19.2147 17.8293 19.4632 17.576 19.6408 17.2493C19.8207 16.9202 19.9107 16.5331 19.9107 16.0881L20.1806 16.1449H17.9931V15.3636H20.763V16.1449C20.763 16.7438 20.6351 17.2647 20.3794 17.7074C20.1261 18.1501 19.7757 18.4934 19.3283 18.7372C18.8832 18.9787 18.3719 19.0994 17.7942 19.0994C17.1503 19.0994 16.5845 18.9479 16.0968 18.6449C15.6114 18.3419 15.2327 17.911 14.9604 17.3523C14.6905 16.7936 14.5556 16.1307 14.5556 15.3636C14.5556 14.7884 14.6325 14.2711 14.7864 13.8118C14.9426 13.3501 15.1628 12.9571 15.4469 12.6328C15.731 12.3085 16.0672 12.0599 16.4554 11.8871C16.8437 11.7143 17.271 11.6278 17.7374 11.6278C18.1209 11.6278 18.4784 11.6858 18.8098 11.8018C19.1436 11.9155 19.4408 12.0777 19.7012 12.2884C19.964 12.4967 20.1829 12.7464 20.3581 13.0376C20.5333 13.3265 20.6541 13.6473 20.7203 14H19.8113ZM28.4077 15.3636C28.4077 16.1307 28.2692 16.7936 27.9922 17.3523C27.7152 17.911 27.3352 18.3419 26.8523 18.6449C26.3693 18.9479 25.8177 19.0994 25.1974 19.0994C24.5772 19.0994 24.0256 18.9479 23.5426 18.6449C23.0597 18.3419 22.6797 17.911 22.4027 17.3523C22.1257 16.7936 21.9872 16.1307 21.9872 15.3636C21.9872 14.5966 22.1257 13.9337 22.4027 13.375C22.6797 12.8163 23.0597 12.3854 23.5426 12.0824C24.0256 11.7794 24.5772 11.6278 25.1974 11.6278C25.8177 11.6278 26.3693 11.7794 26.8523 12.0824C27.3352 12.3854 27.7152 12.8163 27.9922 13.375C28.2692 13.9337 28.4077 14.5966 28.4077 15.3636ZM27.5554 15.3636C27.5554 14.7339 27.45 14.2024 27.2393 13.7692C27.031 13.3359 26.7481 13.008 26.3906 12.7855C26.0355 12.563 25.6378 12.4517 25.1974 12.4517C24.7571 12.4517 24.3582 12.563 24.0007 12.7855C23.6456 13.008 23.3627 13.3359 23.152 13.7692C22.9437 14.2024 22.8395 14.7339 22.8395 15.3636C22.8395 15.9934 22.9437 16.5249 23.152 16.9581C23.3627 17.3913 23.6456 17.7192 24.0007 17.9418C24.3582 18.1643 24.7571 18.2756 25.1974 18.2756C25.6378 18.2756 26.0355 18.1643 26.3906 17.9418C26.7481 17.7192 27.031 17.3913 27.2393 16.9581C27.45 16.5249 27.5554 15.9934 27.5554 15.3636Z" fill="white"/>
</svg>
